<?xml version="1.0" standalone="no"?>
<!DOCTYPE svg PUBLIC "-//W3C//DTD SVG 1.1//EN" 
    "http://www.w3.org/Graphics/SVG/1.1/DTD/svg11.dtd">
<svg width="21cm" height="29.7cm"
    xmlns="http://www.w3.org/2000/svg" version="1.1" viewBox="0 0 744.09449 1052.3622">
  <g fill="none" stroke="black" stroke-width="0.05cm" stroke-linejoin="round" stroke-linecap="round">
    <path d="M148.8189 377.3622 L297.6378 377.3622 L297.6378 526.1811 L148.8189 526.1811 L148.8189 377.3622" />
    <path d="M297.6378 228.54331 L372.04724 228.54331 L372.04724 302.95276 L297.6378 302.95276 L297.6378 228.54331" />
    <path d="M372.04724 247.14567 L376.69783 247.14567 L376.69783 251.79626 L372.04724 251.79626 L372.04724 247.14567" />
    <path d="M372.04724 256.44685 L376.69783 256.44685 L376.69783 261.09744 L372.04724 261.09744 L372.04724 256.44685" />
    <path d="M372.04724 261.09744 L376.69783 261.09744 L376.69783 265.74803 L372.04724 265.74803 L372.04724 261.09744" />
    <path d="M372.04724 265.74803 L390.64961 265.74803 L390.64961 284.35039 L372.04724 284.35039 L372.04724 265.74803" />
    <path d="M376.69783 256.44685 L381.34843 256.44685 L381.34843 261.09744 L376.69783 261.09744 L376.69783 256.44685" />
    <path d="M381.34843 251.79626 L385.99902 251.79626 L385.99902 256.44685 L381.34843 256.44685 L381.34843 251.79626" />
    <path d="M385.99902 242.49508 L390.64961 242.49508 L390.64961 247.14567 L385.99902 247.14567 L385.99902 242.49508" />
    <path d="M385.99902 237.84449 L390.64961 237.84449 L390.64961 242.49508 L385.99902 242.49508 L385.99902 237.84449" />
    <path d="M381.34843 237.84449 L385.99902 237.84449 L385.99902 242.49508 L381.34843 242.49508 L381.34843 237.84449" />
    <path d="M376.69783 228.54331 L381.34843 228.54331 L381.34843 233.1939 L376.69783 233.1939 L376.69783 228.54331" />
    <path d="M385.99902 228.54331 L390.64961 228.54331 L390.64961 233.1939 L385.99902 233.1939 L385.99902 228.54331" />
    <path d="M390.64961 247.14567 L395.3002 247.14567 L395.3002 251.79626 L390.64961 251.79626 L390.64961 247.14567" />
    <path d="M395.3002 251.79626 L399.95079 251.79626 L399.95079 256.44685 L395.3002 256.44685 L395.3002 251.79626" />
    <path d="M404.60138 256.44685 L409.25197 256.44685 L409.25197 261.09744 L404.60138 261.09744 L404.60138 256.44685" />
    <path d="M409.25197 265.74803 L446.45669 265.74803 L446.45669 302.95276 L409.25197 302.95276 L409.25197 265.74803" />
    <path d="M395.3002 275.04921 L399.95079 275.04921 L399.95079 279.6998 L395.3002 279.6998 L395.3002 275.04921" />
    <path d="M390.64961 275.04921 L395.3002 275.04921 L395.3002 279.6998 L390.64961 279.6998 L390.64961 275.04921" />
    <path d="M390.64961 279.6998 L395.3002 279.6998 L395.3002 284.35039 L390.64961 284.35039 L390.64961 279.6998" />
    <path d="M385.99902 284.35039 L390.64961 284.35039 L390.64961 289.00098 L385.99902 289.00098 L385.99902 284.35039" />
    <path d="M385.99902 289.00098 L390.64961 289.00098 L390.64961 293.65157 L385.99902 293.65157 L385.99902 289.00098" />
    <path d="M376.69783 284.35039 L381.34843 284.35039 L381.34843 289.00098 L376.69783 289.00098 L376.69783 284.35039" />
    <path d="M372.04724 289.00098 L376.69783 289.00098 L376.69783 293.65157 L372.04724 293.65157 L372.04724 289.00098" />
    <path d="M372.04724 302.95276 L409.25197 302.95276 L409.25197 340.15748 L372.04724 340.15748 L372.04724 302.95276" />
    <path d="M409.25197 302.95276 L418.55315 302.95276 L418.55315 312.25394 L409.25197 312.25394 L409.25197 302.95276" />
    <path d="M423.20374 312.25394 L427.85433 312.25394 L427.85433 316.90453 L423.20374 316.90453 L423.20374 312.25394" />
    <path d="M423.20374 316.90453 L427.85433 316.90453 L427.85433 321.55512 L423.20374 321.55512 L423.20374 316.90453" />
    <path d="M427.85433 312.25394 L437.15551 312.25394 L437.15551 321.55512 L427.85433 321.55512 L427.85433 312.25394" />
    <path d="M437.15551 312.25394 L446.45669 312.25394 L446.45669 321.55512 L437.15551 321.55512 L437.15551 312.25394" />
    <path d="M427.85433 321.55512 L446.45669 321.55512 L446.45669 340.15748 L427.85433 340.15748 L427.85433 321.55512" />
    <path d="M455.75787 377.3622 L460.40846 377.3622 L460.40846 382.0128 L455.75787 382.0128 L455.75787 377.3622" />
    <path d="M455.75787 382.0128 L460.40846 382.0128 L460.40846 386.66339 L455.75787 386.66339 L455.75787 382.0128" />
    <path d="M455.75787 386.66339 L465.05906 386.66339 L465.05906 395.96457 L455.75787 395.96457 L455.75787 386.66339" />
    <path d="M451.10728 382.0128 L455.75787 382.0128 L455.75787 386.66339 L451.10728 386.66339 L451.10728 382.0128" />
    <path d="M465.05906 377.3622 L469.70965 377.3622 L469.70965 382.0128 L465.05906 382.0128 L465.05906 377.3622" />
    <path d="M474.36024 377.3622 L483.66142 377.3622 L483.66142 386.66339 L474.36024 386.66339 L474.36024 377.3622" />
    <path d="M474.36024 386.66339 L483.66142 386.66339 L483.66142 395.96457 L474.36024 395.96457 L474.36024 386.66339" />
    <path d="M465.05906 391.31398 L469.70965 391.31398 L469.70965 395.96457 L465.05906 395.96457 L465.05906 391.31398" />
    <path d="M483.66142 395.96457 L502.26378 395.96457 L502.26378 414.56693 L483.66142 414.56693 L483.66142 395.96457" />
    <path d="M483.66142 377.3622 L502.26378 377.3622 L502.26378 395.96457 L483.66142 395.96457 L483.66142 377.3622" />
    <path d="M502.26378 377.3622 L506.91437 377.3622 L506.91437 382.0128 L502.26378 382.0128 L502.26378 377.3622" />
    <path d="M502.26378 386.66339 L511.56496 386.66339 L511.56496 395.96457 L502.26378 395.96457 L502.26378 386.66339" />
    <path d="M511.56496 386.66339 L516.21555 386.66339 L516.21555 391.31398 L511.56496 391.31398 L511.56496 386.66339" />
    <path d="M516.21555 386.66339 L520.86614 386.66339 L520.86614 391.31398 L516.21555 391.31398 L516.21555 386.66339" />
    <path d="M516.21555 391.31398 L520.86614 391.31398 L520.86614 395.96457 L516.21555 395.96457 L516.21555 391.31398" />
    <path d="M516.21555 395.96457 L520.86614 395.96457 L520.86614 400.61516 L516.21555 400.61516 L516.21555 395.96457" />
    <path d="M516.21555 400.61516 L520.86614 400.61516 L520.86614 405.26575 L516.21555 405.26575 L516.21555 400.61516" />
    <path d="M516.21555 405.26575 L520.86614 405.26575 L520.86614 409.91634 L516.21555 409.91634 L516.21555 405.26575" />
    <path d="M520.86614 414.56693 L558.07087 414.56693 L558.07087 451.77165 L520.86614 451.77165 L520.86614 414.56693" />
    <path d="M502.26378 405.26575 L511.56496 405.26575 L511.56496 414.56693 L502.26378 414.56693 L502.26378 405.26575" />
    <path d="M502.26378 395.96457 L511.56496 395.96457 L511.56496 405.26575 L502.26378 405.26575 L502.26378 395.96457" />
    <path d="M511.56496 377.3622 L520.86614 377.3622 L520.86614 386.66339 L511.56496 386.66339 L511.56496 377.3622" />
    <path d="M520.86614 377.3622 L539.4685 377.3622 L539.4685 395.96457 L520.86614 395.96457 L520.86614 377.3622" />
    <path d="M558.07087 354.10925 L562.72146 354.10925 L562.72146 358.75984 L558.07087 358.75984 L558.07087 354.10925" />
    <path d="M562.72146 354.10925 L567.37205 354.10925 L567.37205 358.75984 L562.72146 358.75984 L562.72146 354.10925" />
    <path d="M567.37205 344.80807 L572.02264 344.80807 L572.02264 349.45866 L567.37205 349.45866 L567.37205 344.80807" />
    <path d="M558.07087 330.8563 L567.37205 330.8563 L567.37205 340.15748 L558.07087 340.15748 L558.07087 330.8563" />
    <path d="M567.37205 321.55512 L576.67323 321.55512 L576.67323 330.8563 L567.37205 330.8563 L567.37205 321.55512" />
    <path d="M567.37205 316.90453 L572.02264 316.90453 L572.02264 321.55512 L567.37205 321.55512 L567.37205 316.90453" />
    <path d="M576.67323 321.55512 L585.97441 321.55512 L585.97441 330.8563 L576.67323 330.8563 L576.67323 321.55512" />
    <path d="M576.67323 330.8563 L585.97441 330.8563 L585.97441 340.15748 L576.67323 340.15748 L576.67323 330.8563" />
    <path d="M585.97441 321.55512 L590.625 321.55512 L590.625 326.20571 L585.97441 326.20571 L585.97441 321.55512" />
    <path d="M585.97441 316.90453 L590.625 316.90453 L590.625 321.55512 L585.97441 321.55512 L585.97441 316.90453" />
    <path d="M585.97441 312.25394 L590.625 312.25394 L590.625 316.90453 L585.97441 316.90453 L585.97441 312.25394" />
    <path d="M581.32382 307.60335 L585.97441 307.60335 L585.97441 312.25394 L581.32382 312.25394 L581.32382 307.60335" />
    <path d="M581.32382 302.95276 L585.97441 302.95276 L585.97441 307.60335 L581.32382 307.60335 L581.32382 302.95276" />
    <path d="M581.32382 298.30217 L585.97441 298.30217 L585.97441 302.95276 L581.32382 302.95276 L581.32382 298.30217" />
    <path d="M572.02264 298.30217 L576.67323 298.30217 L576.67323 302.95276 L572.02264 302.95276 L572.02264 298.30217" />
    <path d="M567.37205 293.65157 L572.02264 293.65157 L572.02264 298.30217 L567.37205 298.30217 L567.37205 293.65157" />
    <path d="M558.07087 293.65157 L567.37205 293.65157 L567.37205 302.95276 L558.07087 302.95276 L558.07087 293.65157" />
    <path d="M558.07087 284.35039 L567.37205 284.35039 L567.37205 293.65157 L558.07087 293.65157 L558.07087 284.35039" />
    <path d="M558.07087 265.74803 L576.67323 265.74803 L576.67323 284.35039 L558.07087 284.35039 L558.07087 265.74803" />
    <path d="M548.76969 256.44685 L558.07087 256.44685 L558.07087 265.74803 L548.76969 265.74803 L548.76969 256.44685" />
    <path d="M548.76969 247.14567 L558.07087 247.14567 L558.07087 256.44685 L548.76969 256.44685 L548.76969 247.14567" />
    <path d="M544.11909 247.14567 L548.76969 247.14567 L548.76969 251.79626 L544.11909 251.79626 L544.11909 247.14567" />
    <path d="M520.86614 247.14567 L539.4685 247.14567 L539.4685 265.74803 L520.86614 265.74803 L520.86614 247.14567" />
    <path d="M520.86614 265.74803 L558.07087 265.74803 L558.07087 302.95276 L520.86614 302.95276 L520.86614 265.74803" />
    <path d="M520.86614 228.54331 L530.16732 228.54331 L530.16732 237.84449 L520.86614 237.84449 L520.86614 228.54331" />
    <path d="M558.07087 228.54331 L595.27559 228.54331 L595.27559 265.74803 L558.07087 265.74803 L558.07087 228.54331" />
    <path d="M576.67323 265.74803 L595.27559 265.74803 L595.27559 284.35039 L576.67323 284.35039 L576.67323 265.74803" />
    <path d="M590.625 289.00098 L595.27559 289.00098 L595.27559 293.65157 L590.625 293.65157 L590.625 289.00098" />
    <path d="M590.625 298.30217 L595.27559 298.30217 L595.27559 302.95276 L590.625 302.95276 L590.625 298.30217" />
    <path d="M572.02264 307.60335 L576.67323 307.60335 L576.67323 312.25394 L572.02264 312.25394 L572.02264 307.60335" />
    <path d="M590.625 321.55512 L595.27559 321.55512 L595.27559 326.20571 L590.625 326.20571 L590.625 321.55512" />
    <path d="M590.625 335.50689 L595.27559 335.50689 L595.27559 340.15748 L590.625 340.15748 L590.625 335.50689" />
    <path d="M539.4685 321.55512 L558.07087 321.55512 L558.07087 340.15748 L539.4685 340.15748 L539.4685 321.55512" />
    <path d="M530.16732 316.90453 L534.81791 316.90453 L534.81791 321.55512 L530.16732 321.55512 L530.16732 316.90453" />
    <path d="M520.86614 321.55512 L539.4685 321.55512 L539.4685 340.15748 L520.86614 340.15748 L520.86614 321.55512" />
    <path d="M534.81791 307.60335 L539.4685 307.60335 L539.4685 312.25394 L534.81791 312.25394 L534.81791 307.60335" />
    <path d="M483.66142 414.56693 L520.86614 414.56693 L520.86614 451.77165 L483.66142 451.77165 L483.66142 414.56693" />
    <path d="M479.01083 414.56693 L483.66142 414.56693 L483.66142 419.21752 L479.01083 419.21752 L479.01083 414.56693" />
    <path d="M474.36024 419.21752 L479.01083 419.21752 L479.01083 423.86811 L474.36024 423.86811 L474.36024 419.21752" />
    <path d="M465.05906 423.86811 L469.70965 423.86811 L469.70965 428.5187 L465.05906 428.5187 L465.05906 423.86811" />
    <path d="M465.05906 428.5187 L469.70965 428.5187 L469.70965 433.16929 L465.05906 433.16929 L465.05906 428.5187" />
    <path d="M460.40846 433.16929 L465.05906 433.16929 L465.05906 437.81988 L460.40846 437.81988 L460.40846 433.16929" />
    <path d="M455.75787 433.16929 L460.40846 433.16929 L460.40846 437.81988 L455.75787 437.81988 L455.75787 433.16929" />
    <path d="M455.75787 442.47047 L460.40846 442.47047 L460.40846 447.12106 L455.75787 447.12106 L455.75787 442.47047" />
    <path d="M446.45669 447.12106 L451.10728 447.12106 L451.10728 451.77165 L446.45669 451.77165 L446.45669 447.12106" />
    <path d="M446.45669 414.56693 L465.05906 414.56693 L465.05906 433.16929 L446.45669 433.16929 L446.45669 414.56693" />
    <path d="M492.9626 470.37402 L502.26378 470.37402 L502.26378 479.6752 L492.9626 479.6752 L492.9626 470.37402" />
    <path d="M492.9626 479.6752 L502.26378 479.6752 L502.26378 488.97638 L492.9626 488.97638 L492.9626 479.6752" />
    <path d="M488.31201 484.32579 L492.9626 484.32579 L492.9626 488.97638 L488.31201 488.97638 L488.31201 484.32579" />
    <path d="M483.66142 488.97638 L520.86614 488.97638 L520.86614 526.1811 L483.66142 526.1811 L483.66142 488.97638" />
    <path d="M479.01083 488.97638 L483.66142 488.97638 L483.66142 493.62697 L479.01083 493.62697 L479.01083 488.97638" />
    <path d="M465.05906 488.97638 L474.36024 488.97638 L474.36024 498.27756 L465.05906 498.27756 L465.05906 488.97638" />
    <path d="M455.75787 488.97638 L460.40846 488.97638 L460.40846 493.62697 L455.75787 493.62697 L455.75787 488.97638" />
    <path d="M446.45669 488.97638 L455.75787 488.97638 L455.75787 498.27756 L446.45669 498.27756 L446.45669 488.97638" />
    <path d="M451.10728 507.57874 L455.75787 507.57874 L455.75787 512.22933 L451.10728 512.22933 L451.10728 507.57874" />
    <path d="M465.05906 507.57874 L483.66142 507.57874 L483.66142 526.1811 L465.05906 526.1811 L465.05906 507.57874" />
    <path d="M502.26378 470.37402 L520.86614 470.37402 L520.86614 488.97638 L502.26378 488.97638 L502.26378 470.37402" />
    <path d="M520.86614 470.37402 L539.4685 470.37402 L539.4685 488.97638 L520.86614 488.97638 L520.86614 470.37402" />
    <path d="M530.16732 461.07283 L534.81791 461.07283 L534.81791 465.72343 L530.16732 465.72343 L530.16732 461.07283" />
    <path d="M534.81791 461.07283 L539.4685 461.07283 L539.4685 465.72343 L534.81791 465.72343 L534.81791 461.07283" />
    <path d="M520.86614 451.77165 L530.16732 451.77165 L530.16732 461.07283 L520.86614 461.07283 L520.86614 451.77165" />
    <path d="M558.07087 451.77165 L595.27559 451.77165 L595.27559 488.97638 L558.07087 488.97638 L558.07087 451.77165" />
    <path d="M558.07087 488.97638 L567.37205 488.97638 L567.37205 498.27756 L558.07087 498.27756 L558.07087 488.97638" />
    <path d="M548.76969 488.97638 L558.07087 488.97638 L558.07087 498.27756 L548.76969 498.27756 L548.76969 488.97638" />
    <path d="M548.76969 498.27756 L558.07087 498.27756 L558.07087 507.57874 L548.76969 507.57874 L548.76969 498.27756" />
    <path d="M539.4685 498.27756 L544.11909 498.27756 L544.11909 502.92815 L539.4685 502.92815 L539.4685 498.27756" />
    <path d="M530.16732 516.87992 L539.4685 516.87992 L539.4685 526.1811 L530.16732 526.1811 L530.16732 516.87992" />
    <path d="M576.67323 521.53051 L581.32382 521.53051 L581.32382 526.1811 L576.67323 526.1811 L576.67323 521.53051" />
    <path d="M581.32382 521.53051 L585.97441 521.53051 L585.97441 526.1811 L581.32382 526.1811 L581.32382 521.53051" />
    <path d="M576.67323 488.97638 L595.27559 488.97638 L595.27559 507.57874 L576.67323 507.57874 L576.67323 488.97638" />
    <path d="M572.02264 488.97638 L576.67323 488.97638 L576.67323 493.62697 L572.02264 493.62697 L572.02264 488.97638" />
    <path d="M520.86614 675 L595.27559 675 L595.27559 749.40945 L520.86614 749.40945 L520.86614 675" />
    <path d="M506.91437 675 L511.56496 675 L511.56496 679.65059 L506.91437 679.65059 L506.91437 675" />
    <path d="M506.91437 684.30118 L511.56496 684.30118 L511.56496 688.95177 L506.91437 688.95177 L506.91437 684.30118" />
    <path d="M502.26378 684.30118 L506.91437 684.30118 L506.91437 688.95177 L502.26378 688.95177 L502.26378 684.30118" />
    <path d="M506.91437 688.95177 L511.56496 688.95177 L511.56496 693.60236 L506.91437 693.60236 L506.91437 688.95177" />
    <path d="M511.56496 688.95177 L516.21555 688.95177 L516.21555 693.60236 L511.56496 693.60236 L511.56496 688.95177" />
    <path d="M511.56496 693.60236 L520.86614 693.60236 L520.86614 702.90354 L511.56496 702.90354 L511.56496 693.60236" />
    <path d="M506.91437 698.25295 L511.56496 698.25295 L511.56496 702.90354 L506.91437 702.90354 L506.91437 698.25295" />
    <path d="M511.56496 702.90354 L516.21555 702.90354 L516.21555 707.55413 L511.56496 707.55413 L511.56496 702.90354" />
    <path d="M483.66142 693.60236 L502.26378 693.60236 L502.26378 712.20472 L483.66142 712.20472 L483.66142 693.60236" />
    <path d="M483.66142 712.20472 L520.86614 712.20472 L520.86614 749.40945 L483.66142 749.40945 L483.66142 712.20472" />
    <path d="M479.01083 726.1565 L483.66142 726.1565 L483.66142 730.80709 L479.01083 730.80709 L479.01083 726.1565" />
    <path d="M465.05906 721.50591 L474.36024 721.50591 L474.36024 730.80709 L465.05906 730.80709 L465.05906 721.50591" />
    <path d="M460.40846 721.50591 L465.05906 721.50591 L465.05906 726.1565 L460.40846 726.1565 L460.40846 721.50591" />
    <path d="M455.75787 716.85531 L460.40846 716.85531 L460.40846 721.50591 L455.75787 721.50591 L455.75787 716.85531" />
    <path d="M451.10728 716.85531 L455.75787 716.85531 L455.75787 721.50591 L451.10728 721.50591 L451.10728 716.85531" />
    <path d="M451.10728 726.1565 L455.75787 726.1565 L455.75787 730.80709 L451.10728 730.80709 L451.10728 726.1565" />
    <path d="M455.75787 726.1565 L460.40846 726.1565 L460.40846 730.80709 L455.75787 730.80709 L455.75787 726.1565" />
    <path d="M465.05906 735.45768 L469.70965 735.45768 L469.70965 740.10827 L465.05906 740.10827 L465.05906 735.45768" />
    <path d="M474.36024 740.10827 L483.66142 740.10827 L483.66142 749.40945 L474.36024 749.40945 L474.36024 740.10827" />
    <path d="M474.36024 758.71063 L479.01083 758.71063 L479.01083 763.36122 L474.36024 763.36122 L474.36024 758.71063" />
    <path d="M455.75787 768.01181 L465.05906 768.01181 L465.05906 777.31299 L455.75787 777.31299 L455.75787 768.01181" />
    <path d="M451.10728 772.6624 L455.75787 772.6624 L455.75787 777.31299 L451.10728 777.31299 L451.10728 772.6624" />
    <path d="M451.10728 777.31299 L455.75787 777.31299 L455.75787 781.96358 L451.10728 781.96358 L451.10728 777.31299" />
    <path d="M455.75787 777.31299 L465.05906 777.31299 L465.05906 786.61417 L455.75787 786.61417 L455.75787 777.31299" />
    <path d="M446.45669 749.40945 L465.05906 749.40945 L465.05906 768.01181 L446.45669 768.01181 L446.45669 749.40945" />
    <path d="M488.31201 791.26476 L492.9626 791.26476 L492.9626 795.91535 L488.31201 795.91535 L488.31201 791.26476" />
    <path d="M492.9626 791.26476 L497.61319 791.26476 L497.61319 795.91535 L492.9626 795.91535 L492.9626 791.26476" />
    <path d="M492.9626 786.61417 L497.61319 786.61417 L497.61319 791.26476 L492.9626 791.26476 L492.9626 786.61417" />
    <path d="M497.61319 786.61417 L502.26378 786.61417 L502.26378 791.26476 L497.61319 791.26476 L497.61319 786.61417" />
    <path d="M492.9626 795.91535 L502.26378 795.91535 L502.26378 805.21654 L492.9626 805.21654 L492.9626 795.91535" />
    <path d="M483.66142 795.91535 L492.9626 795.91535 L492.9626 805.21654 L483.66142 805.21654 L483.66142 795.91535" />
    <path d="M488.31201 809.86713 L492.9626 809.86713 L492.9626 814.51772 L488.31201 814.51772 L488.31201 809.86713" />
    <path d="M492.9626 814.51772 L502.26378 814.51772 L502.26378 823.8189 L492.9626 823.8189 L492.9626 814.51772" />
    <path d="M483.66142 819.16831 L488.31201 819.16831 L488.31201 823.8189 L483.66142 823.8189 L483.66142 819.16831" />
    <path d="M497.61319 805.21654 L502.26378 805.21654 L502.26378 809.86713 L497.61319 809.86713 L497.61319 805.21654" />
    <path d="M502.26378 805.21654 L520.86614 805.21654 L520.86614 823.8189 L502.26378 823.8189 L502.26378 805.21654" />
    <path d="M539.4685 786.61417 L548.76969 786.61417 L548.76969 795.91535 L539.4685 795.91535 L539.4685 786.61417" />
    <path d="M548.76969 791.26476 L553.42028 791.26476 L553.42028 795.91535 L548.76969 795.91535 L548.76969 791.26476" />
    <path d="M553.42028 791.26476 L558.07087 791.26476 L558.07087 795.91535 L553.42028 795.91535 L553.42028 791.26476" />
    <path d="M553.42028 800.56594 L558.07087 800.56594 L558.07087 805.21654 L553.42028 805.21654 L553.42028 800.56594" />
    <path d="M446.45669 675 L483.66142 675 L483.66142 712.20472 L446.45669 712.20472 L446.45669 675" />
    <path d="M288.33661 679.65059 L292.9872 679.65059 L292.9872 684.30118 L288.33661 684.30118 L288.33661 679.65059" />
    <path d="M279.03543 675 L288.33661 675 L288.33661 684.30118 L279.03543 684.30118 L279.03543 675" />
    <path d="M274.38484 675 L279.03543 675 L279.03543 679.65059 L274.38484 679.65059 L274.38484 675" />
    <path d="M269.73425 679.65059 L274.38484 679.65059 L274.38484 684.30118 L269.73425 684.30118 L269.73425 679.65059" />
    <path d="M260.43307 675 L265.08366 675 L265.08366 679.65059 L260.43307 679.65059 L260.43307 675" />
    <path d="M260.43307 684.30118 L269.73425 684.30118 L269.73425 693.60236 L260.43307 693.60236 L260.43307 684.30118" />
    <path d="M260.43307 693.60236 L279.03543 693.60236 L279.03543 712.20472 L260.43307 712.20472 L260.43307 693.60236" />
    <path d="M283.68602 688.95177 L288.33661 688.95177 L288.33661 693.60236 L283.68602 693.60236 L283.68602 688.95177" />
    <path d="M279.03543 712.20472 L297.6378 712.20472 L297.6378 730.80709 L279.03543 730.80709 L279.03543 712.20472" />
    <path d="M223.22835 675 L260.43307 675 L260.43307 712.20472 L223.22835 712.20472 L223.22835 675" />
    <path d="M186.02362 675 L223.22835 675 L223.22835 712.20472 L186.02362 712.20472 L186.02362 675" />
    <path d="M186.02362 712.20472 L223.22835 712.20472 L223.22835 749.40945 L186.02362 749.40945 L186.02362 712.20472" />
    <path d="M148.8189 712.20472 L186.02362 712.20472 L186.02362 749.40945 L148.8189 749.40945 L148.8189 712.20472" />
    <path d="M148.8189 749.40945 L158.12008 749.40945 L158.12008 758.71063 L148.8189 758.71063 L148.8189 749.40945" />
    <path d="M148.8189 758.71063 L158.12008 758.71063 L158.12008 768.01181 L148.8189 768.01181 L148.8189 758.71063" />
    <path d="M158.12008 768.01181 L162.77067 768.01181 L162.77067 772.6624 L158.12008 772.6624 L158.12008 768.01181" />
    <path d="M162.77067 768.01181 L167.42126 768.01181 L167.42126 772.6624 L162.77067 772.6624 L162.77067 768.01181" />
    <path d="M167.42126 768.01181 L186.02362 768.01181 L186.02362 786.61417 L167.42126 786.61417 L167.42126 768.01181" />
    <path d="M162.77067 772.6624 L167.42126 772.6624 L167.42126 777.31299 L162.77067 777.31299 L162.77067 772.6624" />
    <path d="M158.12008 777.31299 L167.42126 777.31299 L167.42126 786.61417 L158.12008 786.61417 L158.12008 777.31299" />
    <path d="M148.8189 777.31299 L158.12008 777.31299 L158.12008 786.61417 L148.8189 786.61417 L148.8189 777.31299" />
    <path d="M148.8189 772.6624 L153.46949 772.6624 L153.46949 777.31299 L148.8189 777.31299 L148.8189 772.6624" />
    <path d="M167.42126 786.61417 L186.02362 786.61417 L186.02362 805.21654 L167.42126 805.21654 L167.42126 786.61417" />
    <path d="M162.77067 805.21654 L167.42126 805.21654 L167.42126 809.86713 L162.77067 809.86713 L162.77067 805.21654" />
    <path d="M148.8189 805.21654 L153.46949 805.21654 L153.46949 809.86713 L148.8189 809.86713 L148.8189 805.21654" />
    <path d="M186.02362 805.21654 L204.62598 805.21654 L204.62598 823.8189 L186.02362 823.8189 L186.02362 805.21654" />
    <path d="M204.62598 805.21654 L223.22835 805.21654 L223.22835 823.8189 L204.62598 823.8189 L204.62598 805.21654" />
    <path d="M167.42126 749.40945 L186.02362 749.40945 L186.02362 768.01181 L167.42126 768.01181 L167.42126 749.40945" />
    <path d="M409.25197 228.54331 L446.45669 228.54331 L446.45669 265.74803 L409.25197 265.74803 L409.25197 228.54331" />
  </g>
</svg>