<?xml version="1.0" standalone="no"?>
<!DOCTYPE svg PUBLIC "-//W3C//DTD SVG 1.1//EN" 
    "http://www.w3.org/Graphics/SVG/1.1/DTD/svg11.dtd">
<svg width="21cm" height="29.7cm"
    xmlns="http://www.w3.org/2000/svg" version="1.1" viewBox="0 0 744.09449 1052.3622">
  <g fill="none" stroke="black" stroke-width="0.05cm" stroke-linejoin="round" stroke-linecap="round">
    <path d="M148.8189 228.54331 L297.6378 228.54331 L297.6378 377.3622 L148.8189 377.3622 L148.8189 228.54331" />
    <path d="M372.04724 382.0128 L376.69783 382.0128 L376.69783 386.66339 L372.04724 386.66339 L372.04724 382.0128" />
    <path d="M381.34843 377.3622 L390.64961 377.3622 L390.64961 386.66339 L381.34843 386.66339 L381.34843 377.3622" />
    <path d="M390.64961 377.3622 L409.25197 377.3622 L409.25197 395.96457 L390.64961 395.96457 L390.64961 377.3622" />
    <path d="M409.25197 377.3622 L427.85433 377.3622 L427.85433 395.96457 L409.25197 395.96457 L409.25197 377.3622" />
    <path d="M427.85433 395.96457 L437.15551 395.96457 L437.15551 405.26575 L427.85433 405.26575 L427.85433 395.96457" />
    <path d="M437.15551 405.26575 L446.45669 405.26575 L446.45669 414.56693 L437.15551 414.56693 L437.15551 405.26575" />
    <path d="M427.85433 414.56693 L446.45669 414.56693 L446.45669 433.16929 L427.85433 433.16929 L427.85433 414.56693" />
    <path d="M418.55315 414.56693 L427.85433 414.56693 L427.85433 423.86811 L418.55315 423.86811 L418.55315 414.56693" />
    <path d="M399.95079 414.56693 L409.25197 414.56693 L409.25197 423.86811 L399.95079 423.86811 L399.95079 414.56693" />
    <path d="M399.95079 423.86811 L404.60138 423.86811 L404.60138 428.5187 L399.95079 428.5187 L399.95079 423.86811" />
    <path d="M390.64961 414.56693 L399.95079 414.56693 L399.95079 423.86811 L390.64961 423.86811 L390.64961 414.56693" />
    <path d="M381.34843 414.56693 L390.64961 414.56693 L390.64961 423.86811 L381.34843 423.86811 L381.34843 414.56693" />
    <path d="M381.34843 428.5187 L385.99902 428.5187 L385.99902 433.16929 L381.34843 433.16929 L381.34843 428.5187" />
    <path d="M385.99902 428.5187 L390.64961 428.5187 L390.64961 433.16929 L385.99902 433.16929 L385.99902 428.5187" />
    <path d="M390.64961 433.16929 L409.25197 433.16929 L409.25197 451.77165 L390.64961 451.77165 L390.64961 433.16929" />
    <path d="M409.25197 433.16929 L427.85433 433.16929 L427.85433 451.77165 L409.25197 451.77165 L409.25197 433.16929" />
    <path d="M427.85433 433.16929 L446.45669 433.16929 L446.45669 451.77165 L427.85433 451.77165 L427.85433 433.16929" />
    <path d="M372.04724 395.96457 L390.64961 395.96457 L390.64961 414.56693 L372.04724 414.56693 L372.04724 395.96457" />
    <path d="M483.66142 321.55512 L492.9626 321.55512 L492.9626 330.8563 L483.66142 330.8563 L483.66142 321.55512" />
    <path d="M492.9626 321.55512 L502.26378 321.55512 L502.26378 330.8563 L492.9626 330.8563 L492.9626 321.55512" />
    <path d="M497.61319 316.90453 L502.26378 316.90453 L502.26378 321.55512 L497.61319 321.55512 L497.61319 316.90453" />
    <path d="M497.61319 312.25394 L502.26378 312.25394 L502.26378 316.90453 L497.61319 316.90453 L497.61319 312.25394" />
    <path d="M492.9626 312.25394 L497.61319 312.25394 L497.61319 316.90453 L492.9626 316.90453 L492.9626 312.25394" />
    <path d="M492.9626 302.95276 L502.26378 302.95276 L502.26378 312.25394 L492.9626 312.25394 L492.9626 302.95276" />
    <path d="M502.26378 302.95276 L520.86614 302.95276 L520.86614 321.55512 L502.26378 321.55512 L502.26378 302.95276" />
    <path d="M502.26378 321.55512 L520.86614 321.55512 L520.86614 340.15748 L502.26378 340.15748 L502.26378 321.55512" />
    <path d="M497.61319 330.8563 L502.26378 330.8563 L502.26378 335.50689 L497.61319 335.50689 L497.61319 330.8563" />
    <path d="M520.86614 330.8563 L530.16732 330.8563 L530.16732 340.15748 L520.86614 340.15748 L520.86614 330.8563" />
    <path d="M520.86614 340.15748 L530.16732 340.15748 L530.16732 349.45866 L520.86614 349.45866 L520.86614 340.15748" />
    <path d="M534.81791 340.15748 L539.4685 340.15748 L539.4685 344.80807 L534.81791 344.80807 L534.81791 340.15748" />
    <path d="M539.4685 340.15748 L548.76969 340.15748 L548.76969 349.45866 L539.4685 349.45866 L539.4685 340.15748" />
    <path d="M548.76969 330.8563 L553.42028 330.8563 L553.42028 335.50689 L548.76969 335.50689 L548.76969 330.8563" />
    <path d="M539.4685 326.20571 L544.11909 326.20571 L544.11909 330.8563 L539.4685 330.8563 L539.4685 326.20571" />
    <path d="M534.81791 326.20571 L539.4685 326.20571 L539.4685 330.8563 L534.81791 330.8563 L534.81791 326.20571" />
    <path d="M530.16732 326.20571 L534.81791 326.20571 L534.81791 330.8563 L530.16732 330.8563 L530.16732 326.20571" />
    <path d="M530.16732 321.55512 L534.81791 321.55512 L534.81791 326.20571 L530.16732 326.20571 L530.16732 321.55512" />
    <path d="M525.51673 316.90453 L530.16732 316.90453 L530.16732 321.55512 L525.51673 321.55512 L525.51673 316.90453" />
    <path d="M520.86614 312.25394 L525.51673 312.25394 L525.51673 316.90453 L520.86614 316.90453 L520.86614 312.25394" />
    <path d="M530.16732 302.95276 L539.4685 302.95276 L539.4685 312.25394 L530.16732 312.25394 L530.16732 302.95276" />
    <path d="M539.4685 312.25394 L548.76969 312.25394 L548.76969 321.55512 L539.4685 321.55512 L539.4685 312.25394" />
    <path d="M548.76969 312.25394 L558.07087 312.25394 L558.07087 321.55512 L548.76969 321.55512 L548.76969 312.25394" />
    <path d="M544.11909 302.95276 L548.76969 302.95276 L548.76969 307.60335 L544.11909 307.60335 L544.11909 302.95276" />
    <path d="M539.4685 284.35039 L558.07087 284.35039 L558.07087 302.95276 L539.4685 302.95276 L539.4685 284.35039" />
    <path d="M539.4685 265.74803 L558.07087 265.74803 L558.07087 284.35039 L539.4685 284.35039 L539.4685 265.74803" />
    <path d="M520.86614 265.74803 L539.4685 265.74803 L539.4685 284.35039 L520.86614 284.35039 L520.86614 265.74803" />
    <path d="M558.07087 265.74803 L595.27559 265.74803 L595.27559 302.95276 L558.07087 302.95276 L558.07087 265.74803" />
    <path d="M562.72146 242.49508 L567.37205 242.49508 L567.37205 247.14567 L562.72146 247.14567 L562.72146 242.49508" />
    <path d="M562.72146 237.84449 L567.37205 237.84449 L567.37205 242.49508 L562.72146 242.49508 L562.72146 237.84449" />
    <path d="M558.07087 237.84449 L562.72146 237.84449 L562.72146 242.49508 L558.07087 242.49508 L558.07087 237.84449" />
    <path d="M567.37205 228.54331 L576.67323 228.54331 L576.67323 237.84449 L567.37205 237.84449 L567.37205 228.54331" />
    <path d="M576.67323 228.54331 L581.32382 228.54331 L581.32382 233.1939 L576.67323 233.1939 L576.67323 228.54331" />
    <path d="M576.67323 237.84449 L585.97441 237.84449 L585.97441 247.14567 L576.67323 247.14567 L576.67323 237.84449" />
    <path d="M576.67323 247.14567 L585.97441 247.14567 L585.97441 256.44685 L576.67323 256.44685 L576.67323 247.14567" />
    <path d="M585.97441 247.14567 L595.27559 247.14567 L595.27559 256.44685 L585.97441 256.44685 L585.97441 247.14567" />
    <path d="M585.97441 233.1939 L590.625 233.1939 L590.625 237.84449 L585.97441 237.84449 L585.97441 233.1939" />
    <path d="M585.97441 228.54331 L590.625 228.54331 L590.625 233.1939 L585.97441 233.1939 L585.97441 228.54331" />
    <path d="M590.625 233.1939 L595.27559 233.1939 L595.27559 237.84449 L590.625 237.84449 L590.625 233.1939" />
    <path d="M590.625 321.55512 L595.27559 321.55512 L595.27559 326.20571 L590.625 326.20571 L590.625 321.55512" />
    <path d="M585.97441 321.55512 L590.625 321.55512 L590.625 326.20571 L585.97441 326.20571 L585.97441 321.55512" />
    <path d="M585.97441 326.20571 L590.625 326.20571 L590.625 330.8563 L585.97441 330.8563 L585.97441 326.20571" />
    <path d="M576.67323 330.8563 L581.32382 330.8563 L581.32382 335.50689 L576.67323 335.50689 L576.67323 330.8563" />
    <path d="M558.07087 321.55512 L576.67323 321.55512 L576.67323 340.15748 L558.07087 340.15748 L558.07087 321.55512" />
    <path d="M558.07087 344.80807 L562.72146 344.80807 L562.72146 349.45866 L558.07087 349.45866 L558.07087 344.80807" />
    <path d="M558.07087 349.45866 L567.37205 349.45866 L567.37205 358.75984 L558.07087 358.75984 L558.07087 349.45866" />
    <path d="M548.76969 349.45866 L558.07087 349.45866 L558.07087 358.75984 L548.76969 358.75984 L548.76969 349.45866" />
    <path d="M558.07087 358.75984 L562.72146 358.75984 L562.72146 363.41043 L558.07087 363.41043 L558.07087 358.75984" />
    <path d="M562.72146 358.75984 L567.37205 358.75984 L567.37205 363.41043 L562.72146 363.41043 L562.72146 358.75984" />
    <path d="M567.37205 363.41043 L572.02264 363.41043 L572.02264 368.06102 L567.37205 368.06102 L567.37205 363.41043" />
    <path d="M567.37205 368.06102 L572.02264 368.06102 L572.02264 372.71161 L567.37205 372.71161 L567.37205 368.06102" />
    <path d="M558.07087 368.06102 L567.37205 368.06102 L567.37205 377.3622 L558.07087 377.3622 L558.07087 368.06102" />
    <path d="M534.81791 368.06102 L539.4685 368.06102 L539.4685 372.71161 L534.81791 372.71161 L534.81791 368.06102" />
    <path d="M530.16732 358.75984 L539.4685 358.75984 L539.4685 368.06102 L530.16732 368.06102 L530.16732 358.75984" />
    <path d="M525.51673 358.75984 L530.16732 358.75984 L530.16732 363.41043 L525.51673 363.41043 L525.51673 358.75984" />
    <path d="M520.86614 358.75984 L525.51673 358.75984 L525.51673 363.41043 L520.86614 363.41043 L520.86614 358.75984" />
    <path d="M520.86614 372.71161 L525.51673 372.71161 L525.51673 377.3622 L520.86614 377.3622 L520.86614 372.71161" />
    <path d="M446.45669 228.54331 L520.86614 228.54331 L520.86614 302.95276 L446.45669 302.95276 L446.45669 228.54331" />
    <path d="M297.6378 526.1811 L446.45669 526.1811 L446.45669 675 L297.6378 675 L297.6378 526.1811" />
    <path d="M279.03543 563.38583 L297.6378 563.38583 L297.6378 581.98819 L279.03543 581.98819 L279.03543 563.38583" />
    <path d="M279.03543 581.98819 L297.6378 581.98819 L297.6378 600.59055 L279.03543 600.59055 L279.03543 581.98819" />
    <path d="M274.38484 581.98819 L279.03543 581.98819 L279.03543 586.63878 L274.38484 586.63878 L274.38484 581.98819" />
    <path d="M269.73425 581.98819 L274.38484 581.98819 L274.38484 586.63878 L269.73425 586.63878 L269.73425 581.98819" />
    <path d="M265.08366 581.98819 L269.73425 581.98819 L269.73425 586.63878 L265.08366 586.63878 L265.08366 581.98819" />
    <path d="M269.73425 591.28937 L279.03543 591.28937 L279.03543 600.59055 L269.73425 600.59055 L269.73425 591.28937" />
    <path d="M260.43307 609.89173 L269.73425 609.89173 L269.73425 619.19291 L260.43307 619.19291 L260.43307 609.89173" />
    <path d="M260.43307 619.19291 L269.73425 619.19291 L269.73425 628.49409 L260.43307 628.49409 L260.43307 619.19291" />
    <path d="M269.73425 619.19291 L274.38484 619.19291 L274.38484 623.8435 L269.73425 623.8435 L269.73425 619.19291" />
    <path d="M269.73425 628.49409 L279.03543 628.49409 L279.03543 637.79528 L269.73425 637.79528 L269.73425 628.49409" />
    <path d="M279.03543 619.19291 L297.6378 619.19291 L297.6378 637.79528 L279.03543 637.79528 L279.03543 619.19291" />
    <path d="M288.33661 614.54232 L292.9872 614.54232 L292.9872 619.19291 L288.33661 619.19291 L288.33661 614.54232" />
    <path d="M279.03543 637.79528 L297.6378 637.79528 L297.6378 656.39764 L279.03543 656.39764 L279.03543 637.79528" />
    <path d="M260.43307 665.69882 L269.73425 665.69882 L269.73425 675 L260.43307 675 L260.43307 665.69882" />
    <path d="M297.6378 675 L334.84252 675 L334.84252 712.20472 L297.6378 712.20472 L297.6378 675" />
    <path d="M334.84252 675 L353.44488 675 L353.44488 693.60236 L334.84252 693.60236 L334.84252 675" />
    <path d="M353.44488 693.60236 L362.74606 693.60236 L362.74606 702.90354 L353.44488 702.90354 L353.44488 693.60236" />
    <path d="M353.44488 702.90354 L362.74606 702.90354 L362.74606 712.20472 L353.44488 712.20472 L353.44488 702.90354" />
    <path d="M381.34843 702.90354 L390.64961 702.90354 L390.64961 712.20472 L381.34843 712.20472 L381.34843 702.90354" />
    <path d="M409.25197 702.90354 L418.55315 702.90354 L418.55315 712.20472 L409.25197 712.20472 L409.25197 702.90354" />
    <path d="M418.55315 702.90354 L427.85433 702.90354 L427.85433 712.20472 L418.55315 712.20472 L418.55315 702.90354" />
    <path d="M418.55315 712.20472 L427.85433 712.20472 L427.85433 721.50591 L418.55315 721.50591 L418.55315 712.20472" />
    <path d="M409.25197 712.20472 L418.55315 712.20472 L418.55315 721.50591 L409.25197 721.50591 L409.25197 712.20472" />
    <path d="M427.85433 707.55413 L432.50492 707.55413 L432.50492 712.20472 L427.85433 712.20472 L427.85433 707.55413" />
    <path d="M437.15551 702.90354 L441.8061 702.90354 L441.8061 707.55413 L437.15551 707.55413 L437.15551 702.90354" />
    <path d="M441.8061 698.25295 L446.45669 698.25295 L446.45669 702.90354 L441.8061 702.90354 L441.8061 698.25295" />
    <path d="M441.8061 693.60236 L446.45669 693.60236 L446.45669 698.25295 L441.8061 698.25295 L441.8061 693.60236" />
    <path d="M418.55315 684.30118 L427.85433 684.30118 L427.85433 693.60236 L418.55315 693.60236 L418.55315 684.30118" />
    <path d="M413.90256 684.30118 L418.55315 684.30118 L418.55315 688.95177 L413.90256 688.95177 L413.90256 684.30118" />
    <path d="M409.25197 684.30118 L413.90256 684.30118 L413.90256 688.95177 L409.25197 688.95177 L409.25197 684.30118" />
    <path d="M427.85433 730.80709 L446.45669 730.80709 L446.45669 749.40945 L427.85433 749.40945 L427.85433 730.80709" />
    <path d="M427.85433 749.40945 L432.50492 749.40945 L432.50492 754.06004 L427.85433 754.06004 L427.85433 749.40945" />
    <path d="M427.85433 758.71063 L432.50492 758.71063 L432.50492 763.36122 L427.85433 763.36122 L427.85433 758.71063" />
    <path d="M418.55315 758.71063 L423.20374 758.71063 L423.20374 763.36122 L418.55315 763.36122 L418.55315 758.71063" />
    <path d="M418.55315 754.06004 L423.20374 754.06004 L423.20374 758.71063 L418.55315 758.71063 L418.55315 754.06004" />
    <path d="M413.90256 749.40945 L418.55315 749.40945 L418.55315 754.06004 L413.90256 754.06004 L413.90256 749.40945" />
    <path d="M409.25197 749.40945 L413.90256 749.40945 L413.90256 754.06004 L409.25197 754.06004 L409.25197 749.40945" />
    <path d="M409.25197 754.06004 L413.90256 754.06004 L413.90256 758.71063 L409.25197 758.71063 L409.25197 754.06004" />
    <path d="M409.25197 758.71063 L418.55315 758.71063 L418.55315 768.01181 L409.25197 768.01181 L409.25197 758.71063" />
    <path d="M409.25197 768.01181 L427.85433 768.01181 L427.85433 786.61417 L409.25197 786.61417 L409.25197 768.01181" />
    <path d="M409.25197 786.61417 L446.45669 786.61417 L446.45669 823.8189 L409.25197 823.8189 L409.25197 786.61417" />
    <path d="M390.64961 786.61417 L409.25197 786.61417 L409.25197 805.21654 L390.64961 805.21654 L390.64961 786.61417" />
    <path d="M381.34843 795.91535 L390.64961 795.91535 L390.64961 805.21654 L381.34843 805.21654 L381.34843 795.91535" />
    <path d="M376.69783 800.56594 L381.34843 800.56594 L381.34843 805.21654 L376.69783 805.21654 L376.69783 800.56594" />
    <path d="M372.04724 795.91535 L376.69783 795.91535 L376.69783 800.56594 L372.04724 800.56594 L372.04724 795.91535" />
    <path d="M376.69783 786.61417 L381.34843 786.61417 L381.34843 791.26476 L376.69783 791.26476 L376.69783 786.61417" />
    <path d="M385.99902 805.21654 L390.64961 805.21654 L390.64961 809.86713 L385.99902 809.86713 L385.99902 805.21654" />
    <path d="M390.64961 805.21654 L409.25197 805.21654 L409.25197 823.8189 L390.64961 823.8189 L390.64961 805.21654" />
    <path d="M385.99902 809.86713 L390.64961 809.86713 L390.64961 814.51772 L385.99902 814.51772 L385.99902 809.86713" />
    <path d="M385.99902 819.16831 L390.64961 819.16831 L390.64961 823.8189 L385.99902 823.8189 L385.99902 819.16831" />
    <path d="M372.04724 814.51772 L381.34843 814.51772 L381.34843 823.8189 L372.04724 823.8189 L372.04724 814.51772" />
    <path d="M437.15551 758.71063 L446.45669 758.71063 L446.45669 768.01181 L437.15551 768.01181 L437.15551 758.71063" />
    <path d="M437.15551 749.40945 L446.45669 749.40945 L446.45669 758.71063 L437.15551 758.71063 L437.15551 749.40945" />
    <path d="M218.57776 735.45768 L223.22835 735.45768 L223.22835 740.10827 L218.57776 740.10827 L218.57776 735.45768" />
    <path d="M218.57776 726.1565 L223.22835 726.1565 L223.22835 730.80709 L218.57776 730.80709 L218.57776 726.1565" />
    <path d="M218.57776 716.85531 L223.22835 716.85531 L223.22835 721.50591 L218.57776 721.50591 L218.57776 716.85531" />
    <path d="M213.92717 716.85531 L218.57776 716.85531 L218.57776 721.50591 L213.92717 721.50591 L213.92717 716.85531" />
    <path d="M209.27657 716.85531 L213.92717 716.85531 L213.92717 721.50591 L209.27657 721.50591 L209.27657 716.85531" />
    <path d="M204.62598 716.85531 L209.27657 716.85531 L209.27657 721.50591 L204.62598 721.50591 L204.62598 716.85531" />
    <path d="M204.62598 721.50591 L213.92717 721.50591 L213.92717 730.80709 L204.62598 730.80709 L204.62598 721.50591" />
    <path d="M199.97539 726.1565 L204.62598 726.1565 L204.62598 730.80709 L199.97539 730.80709 L199.97539 726.1565" />
    <path d="M195.3248 726.1565 L199.97539 726.1565 L199.97539 730.80709 L195.3248 730.80709 L195.3248 726.1565" />
    <path d="M186.02362 721.50591 L195.3248 721.50591 L195.3248 730.80709 L186.02362 730.80709 L186.02362 721.50591" />
    <path d="M186.02362 712.20472 L190.67421 712.20472 L190.67421 716.85531 L186.02362 716.85531 L186.02362 712.20472" />
    <path d="M195.3248 712.20472 L204.62598 712.20472 L204.62598 721.50591 L195.3248 721.50591 L195.3248 712.20472" />
    <path d="M199.97539 707.55413 L204.62598 707.55413 L204.62598 712.20472 L199.97539 712.20472 L199.97539 707.55413" />
    <path d="M199.97539 702.90354 L204.62598 702.90354 L204.62598 707.55413 L199.97539 707.55413 L199.97539 702.90354" />
    <path d="M195.3248 702.90354 L199.97539 702.90354 L199.97539 707.55413 L195.3248 707.55413 L195.3248 702.90354" />
    <path d="M195.3248 698.25295 L199.97539 698.25295 L199.97539 702.90354 L195.3248 702.90354 L195.3248 698.25295" />
    <path d="M195.3248 693.60236 L199.97539 693.60236 L199.97539 698.25295 L195.3248 698.25295 L195.3248 693.60236" />
    <path d="M204.62598 693.60236 L213.92717 693.60236 L213.92717 702.90354 L204.62598 702.90354 L204.62598 693.60236" />
    <path d="M213.92717 693.60236 L223.22835 693.60236 L223.22835 702.90354 L213.92717 702.90354 L213.92717 693.60236" />
    <path d="M218.57776 702.90354 L223.22835 702.90354 L223.22835 707.55413 L218.57776 707.55413 L218.57776 702.90354" />
    <path d="M213.92717 707.55413 L218.57776 707.55413 L218.57776 712.20472 L213.92717 712.20472 L213.92717 707.55413" />
    <path d="M209.27657 707.55413 L213.92717 707.55413 L213.92717 712.20472 L209.27657 712.20472 L209.27657 707.55413" />
    <path d="M204.62598 712.20472 L209.27657 712.20472 L209.27657 716.85531 L204.62598 716.85531 L204.62598 712.20472" />
    <path d="M218.57776 712.20472 L223.22835 712.20472 L223.22835 716.85531 L218.57776 716.85531 L218.57776 712.20472" />
    <path d="M195.3248 740.10827 L204.62598 740.10827 L204.62598 749.40945 L195.3248 749.40945 L195.3248 740.10827" />
    <path d="M190.67421 744.75886 L195.3248 744.75886 L195.3248 749.40945 L190.67421 749.40945 L190.67421 744.75886" />
    <path d="M186.02362 749.40945 L223.22835 749.40945 L223.22835 786.61417 L186.02362 786.61417 L186.02362 749.40945" />
    <path d="M186.02362 730.80709 L195.3248 730.80709 L195.3248 740.10827 L186.02362 740.10827 L186.02362 730.80709" />
    <path d="M167.42126 749.40945 L186.02362 749.40945 L186.02362 768.01181 L167.42126 768.01181 L167.42126 749.40945" />
    <path d="M167.42126 768.01181 L172.07185 768.01181 L172.07185 772.6624 L167.42126 772.6624 L167.42126 768.01181" />
    <path d="M172.07185 768.01181 L176.72244 768.01181 L176.72244 772.6624 L172.07185 772.6624 L172.07185 768.01181" />
    <path d="M176.72244 768.01181 L181.37303 768.01181 L181.37303 772.6624 L176.72244 772.6624 L176.72244 768.01181" />
    <path d="M176.72244 777.31299 L186.02362 777.31299 L186.02362 786.61417 L176.72244 786.61417 L176.72244 777.31299" />
    <path d="M172.07185 777.31299 L176.72244 777.31299 L176.72244 781.96358 L172.07185 781.96358 L172.07185 777.31299" />
    <path d="M172.07185 781.96358 L176.72244 781.96358 L176.72244 786.61417 L172.07185 786.61417 L172.07185 781.96358" />
    <path d="M167.42126 781.96358 L172.07185 781.96358 L172.07185 786.61417 L167.42126 786.61417 L167.42126 781.96358" />
    <path d="M167.42126 772.6624 L172.07185 772.6624 L172.07185 777.31299 L167.42126 777.31299 L167.42126 772.6624" />
    <path d="M158.12008 786.61417 L167.42126 786.61417 L167.42126 795.91535 L158.12008 795.91535 L158.12008 786.61417" />
    <path d="M162.77067 795.91535 L167.42126 795.91535 L167.42126 800.56594 L162.77067 800.56594 L162.77067 795.91535" />
    <path d="M162.77067 805.21654 L167.42126 805.21654 L167.42126 809.86713 L162.77067 809.86713 L162.77067 805.21654" />
    <path d="M167.42126 805.21654 L172.07185 805.21654 L172.07185 809.86713 L167.42126 809.86713 L167.42126 805.21654" />
    <path d="M167.42126 809.86713 L172.07185 809.86713 L172.07185 814.51772 L167.42126 814.51772 L167.42126 809.86713" />
    <path d="M176.72244 814.51772 L186.02362 814.51772 L186.02362 823.8189 L176.72244 823.8189 L176.72244 814.51772" />
    <path d="M176.72244 805.21654 L186.02362 805.21654 L186.02362 814.51772 L176.72244 814.51772 L176.72244 805.21654" />
    <path d="M204.62598 805.21654 L213.92717 805.21654 L213.92717 814.51772 L204.62598 814.51772 L204.62598 805.21654" />
    <path d="M204.62598 814.51772 L213.92717 814.51772 L213.92717 823.8189 L204.62598 823.8189 L204.62598 814.51772" />
    <path d="M213.92717 814.51772 L223.22835 814.51772 L223.22835 823.8189 L213.92717 823.8189 L213.92717 814.51772" />
    <path d="M213.92717 805.21654 L223.22835 805.21654 L223.22835 814.51772 L213.92717 814.51772 L213.92717 805.21654" />
    <path d="M148.8189 768.01181 L167.42126 768.01181 L167.42126 786.61417 L148.8189 786.61417 L148.8189 768.01181" />
    <path d="M148.8189 712.20472 L186.02362 712.20472 L186.02362 749.40945 L148.8189 749.40945 L148.8189 712.20472" />
    <path d="M148.8189 702.90354 L158.12008 702.90354 L158.12008 712.20472 L148.8189 712.20472 L148.8189 702.90354" />
    <path d="M148.8189 693.60236 L158.12008 693.60236 L158.12008 702.90354 L148.8189 702.90354 L148.8189 693.60236" />
    <path d="M158.12008 707.55413 L162.77067 707.55413 L162.77067 712.20472 L158.12008 712.20472 L158.12008 707.55413" />
    <path d="M167.42126 702.90354 L176.72244 702.90354 L176.72244 712.20472 L167.42126 712.20472 L167.42126 702.90354" />
    <path d="M167.42126 698.25295 L172.07185 698.25295 L172.07185 702.90354 L167.42126 702.90354 L167.42126 698.25295" />
    <path d="M172.07185 688.95177 L176.72244 688.95177 L176.72244 693.60236 L172.07185 693.60236 L172.07185 688.95177" />
    <path d="M167.42126 684.30118 L172.07185 684.30118 L172.07185 688.95177 L167.42126 688.95177 L167.42126 684.30118" />
    <path d="M167.42126 675 L172.07185 675 L172.07185 679.65059 L167.42126 679.65059 L167.42126 675" />
    <path d="M176.72244 679.65059 L181.37303 679.65059 L181.37303 684.30118 L176.72244 684.30118 L176.72244 679.65059" />
    <path d="M176.72244 684.30118 L186.02362 684.30118 L186.02362 693.60236 L176.72244 693.60236 L176.72244 684.30118" />
    <path d="M181.37303 693.60236 L186.02362 693.60236 L186.02362 698.25295 L181.37303 698.25295 L181.37303 693.60236" />
    <path d="M186.02362 675 L195.3248 675 L195.3248 684.30118 L186.02362 684.30118 L186.02362 675" />
    <path d="M227.87894 628.49409 L232.52953 628.49409 L232.52953 633.14469 L227.87894 633.14469 L227.87894 628.49409" />
    <path d="M232.52953 628.49409 L241.83071 628.49409 L241.83071 637.79528 L232.52953 637.79528 L232.52953 628.49409" />
    <path d="M223.22835 619.19291 L232.52953 619.19291 L232.52953 628.49409 L223.22835 628.49409 L223.22835 619.19291" />
    <path d="M241.83071 619.19291 L260.43307 619.19291 L260.43307 637.79528 L241.83071 637.79528 L241.83071 619.19291" />
    <path d="M241.83071 600.59055 L260.43307 600.59055 L260.43307 619.19291 L241.83071 619.19291 L241.83071 600.59055" />
    <path d="M232.52953 600.59055 L237.18012 600.59055 L237.18012 605.24114 L232.52953 605.24114 L232.52953 600.59055" />
    <path d="M246.4813 558.73524 L251.13189 558.73524 L251.13189 563.38583 L246.4813 563.38583 L246.4813 558.73524" />
    <path d="M246.4813 554.08465 L251.13189 554.08465 L251.13189 558.73524 L246.4813 558.73524 L246.4813 554.08465" />
    <path d="M251.13189 544.78346 L260.43307 544.78346 L260.43307 554.08465 L251.13189 554.08465 L251.13189 544.78346" />
    <path d="M255.78248 558.73524 L260.43307 558.73524 L260.43307 563.38583 L255.78248 563.38583 L255.78248 558.73524" />
    <path d="M232.52953 535.48228 L241.83071 535.48228 L241.83071 544.78346 L232.52953 544.78346 L232.52953 535.48228" />
    <path d="M237.18012 530.83169 L241.83071 530.83169 L241.83071 535.48228 L237.18012 535.48228 L237.18012 530.83169" />
    <path d="M148.8189 526.1811 L223.22835 526.1811 L223.22835 600.59055 L148.8189 600.59055 L148.8189 526.1811" />
  </g>
</svg>