<?xml version="1.0" standalone="no"?>
<!DOCTYPE svg PUBLIC "-//W3C//DTD SVG 1.1//EN" 
    "http://www.w3.org/Graphics/SVG/1.1/DTD/svg11.dtd">
<svg width="21cm" height="29.7cm"
    xmlns="http://www.w3.org/2000/svg" version="1.1" viewBox="0 0 744.09449 1052.3622">
  <g fill="none" stroke="black" stroke-width="0.05cm" stroke-linejoin="round" stroke-linecap="round">
    <path d="M223.22835 600.59055 L297.6378 600.59055 L297.6378 675 L223.22835 675 L223.22835 600.59055" />
    <path d="M223.22835 675 L297.6378 675 L297.6378 749.40945 L223.22835 749.40945 L223.22835 675" />
    <path d="M446.45669 675 L520.86614 675 L520.86614 749.40945 L446.45669 749.40945 L446.45669 675" />
    <path d="M453.89764 685.71757 L453.9728 685.70372 L454.72441 685.53112 L454.75534 685.52255 L455.47602 685.32584 L456.22763 685.09326 L456.97924 684.83552 L457.14968 684.77094 L457.73085 684.55168 L458.48246 684.24525 L458.99945 684.01933 L459.23407 683.91621 L459.98568 683.56236 L460.57728 683.26772 L460.73729 683.18678 L461.4889 682.78418 L461.96555 682.51611 L462.09594 682.44094 L461.96555 682.51611 L461.4889 682.78418 L460.73729 683.18678 L460.57728 683.26772 L459.98568 683.56236 L459.23407 683.91621 L458.99945 684.01933 L458.48246 684.24525 L457.73085 684.55168 L457.14968 684.77094 L456.97924 684.83552 L456.22763 685.09326 L455.47602 685.32584 L454.75534 685.52255 L454.72441 685.53112 L453.9728 685.70372 L453.89764 685.71757" />
    <path d="M453.89764 692.67565 L453.9728 692.63932 L454.67653 692.28704 L454.72441 692.26415 L455.47602 691.88476 L456.14863 691.53543 L456.22763 691.49592 L456.97924 691.10367 L457.57814 690.78382 L457.73085 690.7047 L458.48246 690.30313 L458.98051 690.03221 L459.23407 689.89751 L459.98568 689.4902 L460.36745 689.2806 L460.73729 689.0808 L461.4889 688.66941 L461.74284 688.52899 L462.24052 688.25599 L462.99213 687.84029 L463.10487 687.77738 L463.74374 687.42043 L464.44541 687.02577 L464.49535 686.99745 L465.24696 686.5679 L465.75838 686.27416 L465.99857 686.13378 L466.75018 685.69276 L467.04003 685.52255 L467.50179 685.24422 L468.2534 684.79044 L468.28592 684.77094 L469.00501 684.32475 L469.49876 684.01933 L469.75662 683.85332 L470.50823 683.37328 L470.67588 683.26772 L471.25984 682.88236 L471.82182 682.51611 L471.93137 682.44094" />
    <path d="M453.89764 692.67565 L453.9728 692.63932 L454.67653 692.28704 L454.72441 692.26415 L455.47602 691.88476 L456.14863 691.53543 L456.22763 691.49592 L456.97924 691.10367 L457.57814 690.78382 L457.73085 690.7047 L458.48246 690.30313 L458.98051 690.03221 L459.23407 689.89751 L459.98568 689.4902 L460.36745 689.2806 L460.73729 689.0808 L461.4889 688.66941 L461.74284 688.52899 L462.24052 688.25599 L462.99213 687.84029 L463.10487 687.77738 L463.74374 687.42043 L464.44541 687.02577 L464.49535 686.99745 L465.24696 686.5679 L465.75838 686.27416 L465.99857 686.13378 L466.75018 685.69276 L467.04003 685.52255 L467.50179 685.24422 L468.2534 684.79044 L468.28592 684.77094 L469.00501 684.32475 L469.49876 684.01933 L469.75662 683.85332 L470.50823 683.37328 L470.67588 683.26772 L471.25984 682.88236 L471.82182 682.51611 L471.93137 682.44094" />
    <path d="M496.98105 682.44094 L497.02152 682.51611 L497.44212 683.26772 L497.56621 683.47915 L497.8593 684.01933 L498.28637 684.77094 L498.31782 684.82317 L498.71222 685.52255 L499.06943 686.12456 L499.15332 686.27416 L499.60059 687.02577 L499.82105 687.37688 L500.0613 687.77738 L500.53671 688.52899 L500.57266 688.5829 L501.02155 689.2806 L501.32427 689.72917 L501.52306 690.03221 L502.0395 690.78382 L502.07588 690.83458 L502.56853 691.53543 L502.82749 691.88999 L503.11376 692.28704 L503.5791 692.91025 L503.67435 693.03865 L504.24943 693.79026 L504.33071 693.89389 L504.83957 694.54188 L505.08232 694.84466 L505.44473 695.29349 L505.83393 695.7679 L506.06431 696.0451 L506.58554 696.66566 L506.69769 696.79671 L507.33715 697.54021 L507.3443 697.54832 L508.00535 698.29993 L508.08876 698.41385 L508.5644 699.05154 L508.84037 699.39267 L509.18114 699.80315 L509.59198 700.33999 L509.76133 700.55476 L510.29536 701.30637 L510.34359 701.38384 L510.77774 702.05798 L511.0952 702.64312 L511.18906 702.80959 L511.52762 703.5612 L511.77471 704.31281 L511.84681 704.66848 L511.93061 705.06442 L511.98811 705.81603 L511.94295 706.56764 L511.84681 707.05834 L511.79876 707.31926 L511.56573 708.07087 L511.24291 708.82248 L511.0952 709.09262 L510.84776 709.57409 L510.38477 710.3257 L510.34359 710.38316 L509.87471 711.07731 L509.59198 711.44904 L509.31858 711.82892 L508.84037 712.43078 L508.72732 712.58053 L508.11037 713.33214 L508.08876 713.35662 L507.47648 714.08375 L507.33715 714.23978 L506.82738 714.83536 L506.58554 715.1043 L506.16763 715.58697 L505.83393 715.95682 L505.50076 716.33858 L505.08232 716.80194 L504.82936 717.09019 L504.33071 717.64277 L504.15534 717.8418 L503.5791 718.4813 L503.47999 718.59341 L502.82749 719.31867 L502.80411 719.34503 L502.1281 720.09664 L502.07588 720.15422 L501.45142 720.84825 L501.32427 720.98891 L500.77357 721.59986 L500.57266 721.82239 L500.09383 722.35147 L499.82105 722.65322 L499.41118 723.10308 L499.06943 723.4795 L498.72426 723.85469 L498.31782 724.29905 L498.03145 724.6063 L497.56621 725.10947 L497.33084 725.35791 L496.8146 725.90926 L496.62179 726.10952 L496.06299 726.69815 L495.90309 726.86113 L495.31138 727.47564 L495.17446 727.61274 L494.55977 728.24298 L494.43654 728.36435 L493.80816 729.00137 L493.69005 729.11596 L493.05655 729.75187 L492.93562 729.86757 L492.30494 730.49528 L492.17373 730.61918 L491.55333 731.23204 L491.40451 731.37079 L490.80172 731.96215 L490.62761 732.12241 L490.05011 732.685 L489.84189 732.87402 L489.2985 733.39924 L489.0451 733.62563 L488.54689 734.10249 L488.23329 734.37724 L487.79528 734.791 L487.3999 735.12885 L487.04366 735.45918 L486.53398 735.88046 L486.29205 736.09889 L485.61697 736.63207 L485.54044 736.69854 L484.78883 737.25746 L484.58459 737.38368 L484.03722 737.75695 L483.33526 738.13529 L483.28561 738.16499 L482.534 738.50172 L481.78239 738.72359 L481.03078 738.8377 L480.27917 738.8508 L479.52756 738.76951 L478.77595 738.60042 L478.02434 738.35026 L477.52916 738.13529 L477.27273 738.03526 L476.52112 737.67571 L475.99696 737.38368 L475.76951 737.26792 L475.0179 736.83285 L474.70477 736.63207 L474.26628 736.37181 L473.51467 735.88679 L473.50555 735.88046 L472.76306 735.39809 L472.37127 735.12885 L472.01145 734.89553 L471.25984 734.38512 L471.24895 734.37724 L470.50823 733.86324 L470.18651 733.62563 L469.75662 733.32179 L469.1416 732.87402 L469.00501 732.77822 L468.2534 732.23448 L468.10296 732.12241 L467.50179 731.6878 L467.07565 731.37079 L466.75018 731.13451 L466.0601 730.61918 L465.99857 730.5741 L465.24696 730.00778 L465.06564 729.86757 L464.49535 729.43244 L464.09068 729.11596 L463.74374 728.84697 L463.13561 728.36435 L462.99213 728.25095 L462.24052 727.64392 L462.20266 727.61274 L461.4889 727.02466 L461.29392 726.86113 L460.73729 726.3923 L460.40678 726.10952 L459.98568 725.74631 L459.54142 725.35791 L459.23407 725.08603 L458.69779 724.6063 L458.48246 724.41071 L457.87564 723.85469 L457.73085 723.71952 L457.07462 723.10308 L456.97924 723.0115 L456.29426 722.35147 L456.22763 722.28564 L455.53405 721.59986 L455.47602 721.54086 L454.79338 720.84825 L454.72441 720.77609 L454.07163 720.09664 L453.9728 719.99032 L453.89764 719.91012 L453.9728 719.99032 L454.07163 720.09664 L454.72441 720.77609 L454.79338 720.84825 L455.47602 721.54086 L455.53405 721.59986 L456.22763 722.28564 L456.29426 722.35147 L456.97924 723.0115 L457.07462 723.10308 L457.73085 723.71952 L457.87564 723.85469 L458.48246 724.41071 L458.69779 724.6063 L459.23407 725.08603 L459.54142 725.35791 L459.98568 725.74631 L460.40678 726.10952 L460.73729 726.3923 L461.29392 726.86113 L461.4889 727.02466 L462.20266 727.61274 L462.24052 727.64392 L462.99213 728.25095 L463.13561 728.36435 L463.74374 728.84697 L464.09068 729.11596 L464.49535 729.43244 L465.06564 729.86757 L465.24696 730.00778 L465.99857 730.5741 L466.0601 730.61918 L466.75018 731.13451 L467.07565 731.37079 L467.50179 731.6878 L468.10296 732.12241 L468.2534 732.23448 L469.00501 732.77822 L469.1416 732.87402 L469.75662 733.32179 L470.18651 733.62563 L470.50823 733.86324 L471.24895 734.37724 L471.25984 734.38512 L472.01145 734.89553 L472.37127 735.12885 L472.76306 735.39809 L473.50555 735.88046 L473.51467 735.88679 L474.26628 736.37181 L474.70477 736.63207 L475.0179 736.83285 L475.76951 737.26792 L475.99696 737.38368 L476.52112 737.67571 L477.27273 738.03526 L477.52916 738.13529 L478.02434 738.35026 L478.77595 738.60042 L479.52756 738.76951 L480.27917 738.8508 L481.03078 738.8377 L481.78239 738.72359 L482.534 738.50172 L483.28561 738.16499 L483.33526 738.13529 L484.03722 737.75695 L484.58459 737.38368 L484.78883 737.25746 L485.54044 736.69854 L485.61697 736.63207 L486.29205 736.09889 L486.53398 735.88046 L487.04366 735.45918 L487.3999 735.12885 L487.79528 734.791 L488.23329 734.37724 L488.54689 734.10249 L489.0451 733.62563 L489.2985 733.39924 L489.84189 732.87402 L490.05011 732.685 L490.62761 732.12241 L490.80172 731.96215 L491.40451 731.37079 L491.55333 731.23204 L492.17373 730.61918 L492.30494 730.49528 L492.93562 729.86757 L493.05655 729.75187 L493.69005 729.11596 L493.80816 729.00137 L494.43654 728.36435 L494.55977 728.24298 L495.17446 727.61274 L495.31138 727.47564 L495.90309 726.86113 L496.06299 726.69815 L496.62179 726.10952 L496.8146 725.90926 L497.33084 725.35791 L497.56621 725.10947 L498.03145 724.6063 L498.31782 724.29905 L498.72426 723.85469 L499.06943 723.4795 L499.41118 723.10308 L499.82105 722.65322 L500.09383 722.35147 L500.57266 721.82239 L500.77357 721.59986 L501.32427 720.98891 L501.45142 720.84825 L502.07588 720.15422 L502.1281 720.09664 L502.80411 719.34503 L502.82749 719.31867 L503.47999 718.59341 L503.5791 718.4813 L504.15534 717.8418 L504.33071 717.64277 L504.82936 717.09019 L505.08232 716.80194 L505.50076 716.33858 L505.83393 715.95682 L506.16763 715.58697 L506.58554 715.1043 L506.82738 714.83536 L507.33715 714.23978 L507.47648 714.08375 L508.08876 713.35662 L508.11037 713.33214 L508.72732 712.58053 L508.84037 712.43078 L509.31858 711.82892 L509.59198 711.44904 L509.87471 711.07731 L510.34359 710.38316 L510.38477 710.3257 L510.84776 709.57409 L511.0952 709.09262 L511.24291 708.82248 L511.56573 708.07087 L511.79876 707.31926 L511.84681 707.05834 L511.94295 706.56764 L511.98811 705.81603 L511.93061 705.06442 L511.84681 704.66848 L511.77471 704.31281 L511.52762 703.5612 L511.18906 702.80959 L511.0952 702.64312 L510.77774 702.05798 L510.34359 701.38384 L510.29536 701.30637 L509.76133 700.55476 L509.59198 700.33999 L509.18114 699.80315 L508.84037 699.39267 L508.5644 699.05154 L508.08876 698.41385 L508.00535 698.29993 L507.3443 697.54832 L507.33715 697.54021 L506.69769 696.79671 L506.58554 696.66566 L506.06431 696.0451 L505.83393 695.7679 L505.44473 695.29349 L505.08232 694.84466 L504.83957 694.54188 L504.33071 693.89389 L504.24943 693.79026 L503.67435 693.03865 L503.5791 692.91025 L503.11376 692.28704 L502.82749 691.88999 L502.56853 691.53543 L502.07588 690.83458 L502.0395 690.78382 L501.52306 690.03221 L501.32427 689.72917 L501.02155 689.2806 L500.57266 688.5829 L500.53671 688.52899 L500.0613 687.77738 L499.82105 687.37688 L499.60059 687.02577 L499.15332 686.27416 L499.06943 686.12456 L498.71222 685.52255 L498.31782 684.82317 L498.28637 684.77094 L497.8593 684.01933 L497.56621 683.47915 L497.44212 683.26772 L497.02152 682.51611 L496.98105 682.44094" />
    <path d="M504.10161 682.44094 L504.12096 682.51611 L504.33071 683.24749 L504.33635 683.26772 L504.57082 684.01933 L504.83132 684.77094 L505.08232 685.42587 L505.11878 685.52255 L505.43129 686.27416 L505.77405 687.02577 L505.83393 687.14646 L506.14539 687.77738 L506.54841 688.52899 L506.58554 688.59338 L506.9832 689.2806 L507.33715 689.84998 L507.45157 690.03221 L507.95487 690.78382 L508.08876 690.97256 L508.49535 691.53543 L508.84037 691.98792 L509.07409 692.28704 L509.59198 692.91867 L509.69343 693.03865 L510.34359 693.77597 L510.35668 693.79026 L511.06897 694.54188 L511.0952 694.56878 L511.8341 695.29349 L511.84681 695.30568 L512.59843 695.99186 L512.66005 696.0451 L513.35004 696.63196 L513.4252 696.69205 L513.35004 696.63196 L512.66005 696.0451 L512.59843 695.99186 L511.84681 695.30568 L511.8341 695.29349 L511.0952 694.56878 L511.06897 694.54188 L510.35668 693.79026 L510.34359 693.77597 L509.69343 693.03865 L509.59198 692.91867 L509.07409 692.28704 L508.84037 691.98792 L508.49535 691.53543 L508.08876 690.97256 L507.95487 690.78382 L507.45157 690.03221 L507.33715 689.84998 L506.9832 689.2806 L506.58554 688.59338 L506.54841 688.52899 L506.14539 687.77738 L505.83393 687.14646 L505.77405 687.02577 L505.43129 686.27416 L505.11878 685.52255 L505.08232 685.42587 L504.83132 684.77094 L504.57082 684.01933 L504.33635 683.26772 L504.33071 683.24749 L504.12096 682.51611 L504.10161 682.44094" />
    <path d="M509.7025 682.44094 L509.71987 682.51611 L509.92257 683.26772 L510.15699 684.01933 L510.34359 684.54329 L510.42569 684.77094 L510.73188 685.52255 L511.07743 686.27416 L511.0952 686.30914 L511.4682 687.02577 L511.84681 687.68023 L511.90476 687.77738 L512.39505 688.52899 L512.59843 688.81509 L512.94271 689.2806 L513.35004 689.78921 L513.4252 689.87881 L513.35004 689.78921 L512.94271 689.2806 L512.59843 688.81509 L512.39505 688.52899 L511.90476 687.77738 L511.84681 687.68023 L511.4682 687.02577 L511.0952 686.30914 L511.07743 686.27416 L510.73188 685.52255 L510.42569 684.77094 L510.34359 684.54329 L510.15699 684.01933 L509.92257 683.26772 L509.71987 682.51611 L509.7025 682.44094" />
    <path d="M513.4252 714.08493 L513.35004 714.13578 L512.59843 714.68732 L512.41148 714.83536 L511.84681 715.26157 L511.44525 715.58697 L511.0952 715.8598 L510.51964 716.33858 L510.34359 716.48057 L509.63127 717.09019 L509.59198 717.12303 L508.84037 717.78526 L508.77922 717.8418 L508.08876 718.46913 L507.95778 718.59341 L507.33715 719.17534 L507.16294 719.34503 L506.58554 719.90364 L506.39248 720.09664 L505.83393 720.65384 L505.64431 720.84825 L505.08232 721.42569 L504.91651 721.59986 L504.33071 722.21884 L504.20727 722.35147 L503.5791 723.03269 L503.51492 723.10308 L502.83799 723.85469 L502.82749 723.86654 L502.17499 724.6063 L502.07588 724.72085 L501.52396 725.35791 L501.32427 725.5934 L500.88361 726.10952 L500.57266 726.48236 L500.25285 726.86113 L499.82105 727.38567 L499.63078 727.61274 L499.06943 728.30235 L499.01789 728.36435 L498.41318 729.11596 L498.31782 729.23906 L497.81806 729.86757 L497.56621 730.19808 L497.23581 730.61918 L496.8146 731.18271 L496.66941 731.37079 L496.12088 732.12241 L496.06299 732.20714 L495.59075 732.87402 L495.31138 733.29728 L495.08596 733.62563 L494.60961 734.37724 L494.55977 734.46381 L494.15975 735.12885 L493.80816 735.77454 L493.74764 735.88046 L493.36835 736.63207 L493.05655 737.33626 L493.03438 737.38368 L492.73831 738.13529 L492.49321 738.8869 L492.30494 739.62151 L492.3003 739.63851 L492.15557 740.39012 L492.06857 741.14173 L492.04113 741.89334 L492.04456 741.9685" />
    <path d="M492.30494 739.62151 L492.3003 739.63851 L492.15557 740.39012 L492.06857 741.14173 L492.04113 741.89334 L492.04456 741.9685" />
    <path d="M492.30494 739.62151 L492.49321 738.8869 L492.73831 738.13529 L493.03438 737.38368 L493.05655 737.33626 L493.36835 736.63207 L493.74764 735.88046 L493.80816 735.77454 L494.15975 735.12885 L494.55977 734.46381 L494.60961 734.37724 L495.08596 733.62563 L495.31138 733.29728 L495.59075 732.87402 L496.06299 732.20714 L496.12088 732.12241 L496.66941 731.37079 L496.8146 731.18271 L497.23581 730.61918 L497.56621 730.19808 L497.81806 729.86757 L498.31782 729.23906 L498.41318 729.11596 L499.01789 728.36435 L499.06943 728.30235 L499.63078 727.61274 L499.82105 727.38567 L500.25285 726.86113 L500.57266 726.48236 L500.88361 726.10952 L501.32427 725.5934 L501.52396 725.35791 L502.07588 724.72085 L502.17499 724.6063 L502.82749 723.86654 L502.83799 723.85469 L503.51492 723.10308 L503.5791 723.03269 L504.20727 722.35147 L504.33071 722.21884 L504.91651 721.59986 L505.08232 721.42569 L505.64431 720.84825 L505.83393 720.65384 L506.39248 720.09664 L506.58554 719.90364 L507.16294 719.34503 L507.33715 719.17534 L507.95778 718.59341 L508.08876 718.46913 L508.77922 717.8418 L508.84037 717.78526 L509.59198 717.12303 L509.63127 717.09019 L510.34359 716.48057 L510.51964 716.33858 L511.0952 715.8598 L511.44525 715.58697 L511.84681 715.26157 L512.41148 714.83536 L512.59843 714.68732 L513.35004 714.13578 L513.4252 714.08493" />
    <path d="M513.4252 718.70633 L513.35004 718.75032 L512.59843 719.22737 L512.42611 719.34503 L511.84681 719.73933 L511.3562 720.09664 L511.0952 720.28724 L510.37214 720.84825 L510.34359 720.87058 L509.59198 721.49052 L509.46567 721.59986 L508.84037 722.14805 L508.61794 722.35147 L508.08876 722.84386 L507.82005 723.10308 L507.33715 723.57907 L507.06583 723.85469 L506.58554 724.35514 L506.35026 724.6063 L505.83393 725.17366 L505.66929 725.35791 L505.08232 726.03626 L505.01971 726.10952 L504.39981 726.86113 L504.33071 726.94839 L503.80712 727.61274 L503.5791 727.91467 L503.23918 728.36435 L502.82749 728.93402 L502.69513 729.11596 L502.17481 729.86757 L502.07588 730.01876 L501.67781 730.61918 L501.32427 731.18419 L501.20544 731.37079 L500.75897 732.12241 L500.57266 732.46118 L500.34078 732.87402 L499.95396 733.62563 L499.82105 733.91266 L499.60065 734.37724 L499.28444 735.12885 L499.06943 735.71747 L499.00826 735.88046 L498.77416 736.63207 L498.58639 737.38368 L498.44766 738.13529 L498.36084 738.8869 L498.32906 739.63851 L498.35585 740.39012 L498.4454 741.14173 L498.6028 741.89334 L498.62596 741.9685 L498.6028 741.89334 L498.4454 741.14173 L498.35585 740.39012 L498.32906 739.63851 L498.36084 738.8869 L498.44766 738.13529 L498.58639 737.38368 L498.77416 736.63207 L499.00826 735.88046 L499.06943 735.71747 L499.28444 735.12885 L499.60065 734.37724 L499.82105 733.91266 L499.95396 733.62563 L500.34078 732.87402 L500.57266 732.46118 L500.75897 732.12241 L501.20544 731.37079 L501.32427 731.18419 L501.67781 730.61918 L502.07588 730.01876 L502.17481 729.86757 L502.69513 729.11596 L502.82749 728.93402 L503.23918 728.36435 L503.5791 727.91467 L503.80712 727.61274 L504.33071 726.94839 L504.39981 726.86113 L505.01971 726.10952 L505.08232 726.03626 L505.66929 725.35791 L505.83393 725.17366 L506.35026 724.6063 L506.58554 724.35514 L507.06583 723.85469 L507.33715 723.57907 L507.82005 723.10308 L508.08876 722.84386 L508.61794 722.35147 L508.84037 722.14805 L509.46567 721.59986 L509.59198 721.49052 L510.34359 720.87058 L510.37214 720.84825 L511.0952 720.28724 L511.3562 720.09664 L511.84681 719.73933 L512.42611 719.34503 L512.59843 719.22737 L513.35004 718.75032 L513.4252 718.70633" />
    <path d="M513.4252 722.91579 L513.35004 722.96271 L513.14184 723.10308 L512.59843 723.48009 L512.09434 723.85469 L511.84681 724.04509 L511.15986 724.6063 L511.0952 724.66128 L510.34359 725.3348 L510.31897 725.35791 L509.59198 726.07101 L509.55424 726.10952 L508.85269 726.86113 L508.84037 726.87509 L508.20907 727.61274 L508.08876 727.76212 L507.6152 728.36435 L507.33715 728.74182 L507.06631 729.11596 L506.58554 729.82807 L506.55917 729.86757 L506.0966 730.61918 L505.83393 731.08363 L505.672 731.37079 L505.28777 732.12241 L505.08232 732.57094 L504.9428 732.87402 L504.63958 733.62563 L504.37779 734.37724 L504.33071 734.54333 L504.16276 735.12885 L503.99635 735.88046 L503.88205 736.63207 L503.82446 737.38368 L503.82891 738.13529 L503.90162 738.8869 L504.04981 739.63851 L504.28186 740.39012 L504.33071 740.50688 L504.61422 741.14173 L505.05672 741.89334 L505.08232 741.92896 L505.11309 741.9685 L505.08232 741.92896 L505.05672 741.89334 L504.61422 741.14173 L504.33071 740.50688 L504.28186 740.39012 L504.04981 739.63851 L503.90162 738.8869 L503.82891 738.13529 L503.82446 737.38368 L503.88205 736.63207 L503.99635 735.88046 L504.16276 735.12885 L504.33071 734.54333 L504.37779 734.37724 L504.63958 733.62563 L504.9428 732.87402 L505.08232 732.57094 L505.28777 732.12241 L505.672 731.37079 L505.83393 731.08363 L506.0966 730.61918 L506.55917 729.86757 L506.58554 729.82807 L507.06631 729.11596 L507.33715 728.74182 L507.6152 728.36435 L508.08876 727.76212 L508.20907 727.61274 L508.84037 726.87509 L508.85269 726.86113 L509.55424 726.10952 L509.59198 726.07101 L510.31897 725.35791 L510.34359 725.3348 L511.0952 724.66128 L511.15986 724.6063 L511.84681 724.04509 L512.09434 723.85469 L512.59843 723.48009 L513.14184 723.10308 L513.35004 722.96271 L513.4252 722.91579" />
    <path d="M513.4252 727.91664 L513.35004 727.98431 L512.95572 728.36435 L512.59843 728.74079 L512.26234 729.11596 L511.84681 729.62815 L511.66176 729.86757 L511.14203 730.61918 L511.0952 730.69664 L510.70273 731.37079 L510.34359 732.08405 L510.32484 732.12241 L510.02202 732.87402 L509.78074 733.62563 L509.60512 734.37724 L509.59198 734.47385 L509.50425 735.12885 L509.47776 735.88046 L509.53238 736.63207 L509.59198 736.94871 L509.68097 737.38368 L509.938 738.13529 L510.31405 738.8869 L510.34359 738.93228 L510.85211 739.63851 L511.0952 739.90696 L511.58448 740.39012 L511.84681 740.60622 L512.58232 741.14173 L512.59843 741.15185 L513.35004 741.57436 L513.4252 741.61091 L513.35004 741.57436 L512.59843 741.15185 L512.58232 741.14173 L511.84681 740.60622 L511.58448 740.39012 L511.0952 739.90696 L510.85211 739.63851 L510.34359 738.93228 L510.31405 738.8869 L509.938 738.13529 L509.68097 737.38368 L509.59198 736.94871 L509.53238 736.63207 L509.47776 735.88046 L509.50425 735.12885 L509.59198 734.47385 L509.60512 734.37724 L509.78074 733.62563 L510.02202 732.87402 L510.32484 732.12241 L510.34359 732.08405 L510.70273 731.37079 L511.0952 730.69664 L511.14203 730.61918 L511.66176 729.86757 L511.84681 729.62815 L512.26234 729.11596 L512.59843 728.74079 L512.95572 728.36435 L513.35004 727.98431 L513.4252 727.91664" />
    <path d="M470.05077 741.9685 L470.00433 741.89334 L469.75662 741.53325 L469.48911 741.14173 L469.00501 740.46575 L468.95353 740.39012 L468.37642 739.63851 L468.2534 739.49057 L467.75742 738.8869 L467.50179 738.5977 L467.0983 738.13529 L466.75018 737.76163 L466.40289 737.38368 L465.99857 736.96869 L465.67538 736.63207 L465.24696 736.20853 L464.92015 735.88046 L464.49535 735.47329 L464.14158 735.12885 L463.74374 734.75694 L463.34392 734.37724 L462.99213 734.0548 L462.53113 733.62563 L462.24052 733.36326 L461.70678 732.87402 L461.4889 732.67945 L460.87408 732.12241 L460.73729 732.00115 L460.03578 731.37079 L459.98568 731.32657 L459.23407 730.65471 L459.19475 730.61918 L458.48246 729.98417 L458.35286 729.86757 L457.73085 729.31335 L457.511 729.11596 L456.97924 728.6415 L456.67046 728.36435 L456.22763 727.96803 L455.83229 727.61274 L455.47602 727.29246 L454.99729 726.86113 L454.72441 726.61443 L454.16604 726.10952 L453.9728 725.93368 L453.89764 725.86541 L453.9728 725.93368 L454.16604 726.10952 L454.72441 726.61443 L454.99729 726.86113 L455.47602 727.29246 L455.83229 727.61274 L456.22763 727.96803 L456.67046 728.36435 L456.97924 728.6415 L457.511 729.11596 L457.73085 729.31335 L458.35286 729.86757 L458.48246 729.98417 L459.19475 730.61918 L459.23407 730.65471 L459.98568 731.32657 L460.03578 731.37079 L460.73729 732.00115 L460.87408 732.12241 L461.4889 732.67945 L461.70678 732.87402 L462.24052 733.36326 L462.53113 733.62563 L462.99213 734.0548 L463.34392 734.37724 L463.74374 734.75694 L464.14158 735.12885 L464.49535 735.47329 L464.92015 735.88046 L465.24696 736.20853 L465.67538 736.63207 L465.99857 736.96869 L466.40289 737.38368 L466.75018 737.76163 L467.0983 738.13529 L467.50179 738.5977 L467.75742 738.8869 L468.2534 739.49057 L468.37642 739.63851 L468.95353 740.39012 L469.00501 740.46575 L469.48911 741.14173 L469.75662 741.53325 L470.00433 741.89334 L470.05077 741.9685" />
    <path d="M463.31785 741.9685 L463.27011 741.89334 L462.99213 741.48253 L462.76183 741.14173 L462.24052 740.41415 L462.22334 740.39012 L461.65785 739.63851 L461.4889 739.42538 L461.06374 738.8869 L460.73729 738.49292 L460.44219 738.13529 L459.98568 737.60599 L459.79475 737.38368 L459.23407 736.75669 L459.12308 736.63207 L458.48246 735.9387 L458.42885 735.88046 L457.73085 735.14693 L457.7137 735.12885 L456.97924 734.37726 L456.22763 733.62634 L456.22692 733.62563 L455.47602 732.89148 L455.45816 732.87402 L454.72441 732.17048 L454.67423 732.12241 L453.9728 731.46158 L453.89764 731.39089 L453.9728 731.46158 L454.67423 732.12241 L454.72441 732.17048 L455.45816 732.87402 L455.47602 732.89148 L456.22692 733.62563 L456.22763 733.62634 L456.97922 734.37724 L457.7137 735.12885 L457.73085 735.14693 L458.42885 735.88046 L458.48246 735.9387 L459.12308 736.63207 L459.23407 736.75669 L459.79475 737.38368 L459.98568 737.60599 L460.44219 738.13529 L460.73729 738.49292 L461.06374 738.8869 L461.4889 739.42538 L461.65785 739.63851 L462.22334 740.39012 L462.24052 740.41415 L462.76183 741.14173 L462.99213 741.48253 L463.27011 741.89334 L463.31785 741.9685" />
    <path d="M457.42895 741.9685 L457.37751 741.89334 L456.97924 741.33437 L456.84107 741.14173 L456.28116 740.39012 L456.22763 740.32086 L455.69721 739.63851 L455.47602 739.36411 L455.08904 738.8869 L454.72441 738.45238 L454.4566 738.13529 L453.9728 737.58057 L453.89764 737.49499 L453.9728 737.58057 L454.4566 738.13529 L454.72441 738.45238 L455.08904 738.8869 L455.47602 739.36411 L455.69721 739.63851 L456.22763 740.32086 L456.28116 740.39012 L456.84107 741.14173 L456.97924 741.33437 L457.37751 741.89334 L457.42895 741.9685" />
    <path d="M453.89764 710.20609 L453.93778 710.3257 L453.9728 710.4149 L454.22599 711.07731 L454.54918 711.82892 L454.72441 712.1762 L454.92476 712.58053 L455.32899 713.33214 L455.47602 713.58352 L455.76398 714.08375 L456.22763 714.83094 L456.23034 714.83536 L456.72777 715.58697 L456.97924 715.94272 L457.25726 716.33858 L457.73085 716.97192 L457.81904 717.09019 L458.41404 717.8418 L458.48246 717.92366 L459.04347 718.59341 L459.23407 718.80981 L459.70803 719.34503 L459.98568 719.64431 L460.40897 720.09664 L460.73729 720.43286 L461.1478 720.84825 L461.4889 721.18035 L461.92632 721.59986 L462.24052 721.89099 L462.74655 722.35147 L462.99213 722.56828 L463.61075 723.10308 L463.74374 723.21511 L464.49535 723.83337 L464.52194 723.85469 L465.24696 724.42338 L465.48702 724.6063 L465.99857 724.98956 L466.50593 725.35791 L466.75018 725.53311 L467.50179 726.05445 L467.58407 726.10952 L468.2534 726.55449 L468.73256 726.86113 L469.00501 727.03519 L469.75662 727.49674 L469.95362 727.61274 L470.50823 727.94074 L471.25641 728.36435 L471.25984 728.36632 L472.01145 728.7754 L472.6993 729.11596 L472.76306 729.14793 L473.51467 729.50081 L474.26628 729.8262 L474.37165 729.86757 L475.0179 730.12622 L475.76951 730.39302 L476.50914 730.61918 L476.52112 730.62294 L477.27273 730.81868 L478.02434 730.97176 L478.77595 731.08016 L479.52756 731.14224 L480.27917 731.15672 L481.03078 731.12266 L481.78239 731.03941 L482.534 730.90659 L483.28561 730.72405 L483.62449 730.61918 L484.03722 730.49641 L484.78883 730.22524 L485.54044 729.90719 L485.62197 729.86757 L486.29205 729.55356 L487.04366 729.15748 L487.11456 729.11596 L487.79528 728.7299 L488.38329 728.36435 L488.54689 728.26538 L489.2985 727.77123 L489.52215 727.61274 L490.05011 727.24697 L490.57066 726.86113 L490.80172 726.69287 L491.55333 726.11079 L491.55487 726.10952 L492.30494 725.5025 L492.47465 725.35791 L493.05655 724.86607 L493.3498 724.6063 L493.80816 724.20152 L494.18452 723.85469 L494.55977 723.50831 L494.9828 723.10308 L495.31138 722.78688 L495.74922 722.35147 L496.06299 722.03672 L496.48692 721.59986 L496.8146 721.25828 L497.1997 720.84825 L497.56621 720.45237 L497.89046 720.09664 L498.31782 719.61952 L498.5612 719.34503 L499.06943 718.75969 L499.2131 718.59341 L499.82105 717.87211 L499.84659 717.8418 L500.46052 717.09019 L500.57266 716.94783 L501.05537 716.33858 L501.32427 715.9848 L501.62982 715.58697 L502.07588 714.97758 L502.18153 714.83536 L502.70774 714.08375 L502.82749 713.90036 L503.20583 713.33214 L503.5791 712.72646 L503.67117 712.58053 L504.10058 711.82892 L504.33071 711.37808 L504.48849 711.07731 L504.8305 710.3257 L505.08232 709.66968 L505.12015 709.57409 L505.3552 708.82248 L505.52806 708.07087 L505.6352 707.31926 L505.67373 706.56764 L505.64154 705.81603 L505.53749 705.06442 L505.36151 704.31281 L505.11471 703.5612 L505.08232 703.48331 L504.80237 702.80959 L504.42587 702.05798 L504.33071 701.89311 L503.99155 701.30637 L503.5791 700.67045 L503.50373 700.55476 L503.01529 699.80315 L502.82749 699.5374 L502.4523 699.05154 L502.07588 698.57584 L501.85648 698.29993 L501.32427 697.64289 L501.24684 697.54832 L500.62356 696.79671 L500.57266 696.7357 L499.98598 696.0451 L499.82105 695.85129 L499.3347 695.29349 L499.06943 694.98851 L498.66879 694.54188 L498.31782 694.14816 L497.98649 693.79026 L497.56621 693.33189 L497.28491 693.03865 L496.8146 692.54211 L496.55983 692.28704 L496.06299 691.78191 L495.80515 691.53543 L495.31138 691.055 L495.01222 690.78382 L494.55977 690.36555 L494.16876 690.03221 L493.80816 689.71815 L493.25717 689.2806 L493.05655 689.11762 L492.30494 688.56714 L492.24684 688.52899 L491.55333 688.06317 L491.06802 687.77738 L490.80172 687.61677 L490.05011 687.22262 L489.61025 687.02577 L489.2985 686.88281 L488.54689 686.59248 L487.79528 686.35562 L487.47406 686.27416 L487.04366 686.16213 L486.29205 686.01052 L485.54044 685.89976 L484.78883 685.82539 L484.03722 685.78336 L483.28561 685.77004 L482.534 685.80189 L481.78239 685.86231 L481.03078 685.9487 L480.27917 686.06109 L479.52756 686.19931 L479.18661 686.27416 L478.77595 686.35998 L478.02434 686.54242 L477.27273 686.74841 L476.52112 686.97698 L476.37611 687.02577 L475.76951 687.22184 L475.0179 687.48567 L474.26628 687.7685 L474.24433 687.77738 L473.51467 688.06348 L472.76306 688.37499 L472.41084 688.52899 L472.01145 688.69965 L471.25984 689.03684 L470.73864 689.2806 L470.50823 689.38683 L469.75662 689.74797 L469.18493 690.03221 L469.00501 690.1212 L468.2534 690.50593 L467.72618 690.78382 L467.50179 690.90258 L466.75018 691.31194 L466.35012 691.53543 L465.99857 691.73454 L465.24696 692.17092 L465.05107 692.28704 L464.49535 692.62424 L463.82725 693.03865 L463.74374 693.09203 L462.99213 693.58048 L462.67418 693.79026 L462.24052 694.08736 L461.58565 694.54188 L461.4889 694.61202 L460.73729 695.16086 L460.55653 695.29349 L459.98568 695.73452 L459.58517 696.0451 L459.23407 696.33397 L458.67245 696.79671 L458.48246 696.96424 L457.81976 697.54832 L457.73085 697.63304 L457.02952 698.29993 L456.97924 698.35224 L456.30498 699.05154 L456.22763 699.1406 L455.64997 699.80315 L455.47602 700.02875 L455.06866 700.55476 L454.72441 701.06944 L454.56524 701.30637 L454.13854 702.05798 L453.9728 702.4153 L453.89764 702.57685 L453.9728 702.4153 L454.13854 702.05798 L454.56524 701.30637 L454.72441 701.06944 L455.06866 700.55476 L455.47602 700.02875 L455.64997 699.80315 L456.22763 699.1406 L456.30498 699.05154 L456.97924 698.35224 L457.02952 698.29993 L457.73085 697.63304 L457.81976 697.54832 L458.48246 696.96424 L458.67245 696.79671 L459.23407 696.33397 L459.58517 696.0451 L459.98568 695.73452 L460.55653 695.29349 L460.73729 695.16086 L461.4889 694.61202 L461.58565 694.54188 L462.24052 694.08736 L462.67418 693.79026 L462.99213 693.58048 L463.74374 693.09203 L463.82725 693.03865 L464.49535 692.62424 L465.05107 692.28704 L465.24696 692.17092 L465.99857 691.73454 L466.35012 691.53543 L466.75018 691.31194 L467.50179 690.90258 L467.72618 690.78382 L468.2534 690.50593 L469.00501 690.1212 L469.18493 690.03221 L469.75662 689.74797 L470.50823 689.38683 L470.73864 689.2806 L471.25984 689.03684 L472.01145 688.69965 L472.41084 688.52899 L472.76306 688.37499 L473.51467 688.06348 L474.24433 687.77738 L474.26628 687.7685 L475.0179 687.48567 L475.76951 687.22184 L476.37611 687.02577 L476.52112 686.97698 L477.27273 686.74841 L478.02434 686.54242 L478.77595 686.35998 L479.18661 686.27416 L479.52756 686.19931 L480.27917 686.06109 L481.03078 685.9487 L481.78239 685.86231 L482.534 685.80189 L483.28561 685.77004 L484.03722 685.78336 L484.78883 685.82539 L485.54044 685.89976 L486.29205 686.01052 L487.04366 686.16213 L487.47406 686.27416 L487.79528 686.35562 L488.54689 686.59248 L489.2985 686.88281 L489.61025 687.02577 L490.05011 687.22262 L490.80172 687.61677 L491.06802 687.77738 L491.55333 688.06317 L492.24684 688.52899 L492.30494 688.56714 L493.05655 689.11762 L493.25717 689.2806 L493.80816 689.71815 L494.16876 690.03221 L494.55977 690.36555 L495.01222 690.78382 L495.31138 691.055 L495.80515 691.53543 L496.06299 691.78191 L496.55983 692.28704 L496.8146 692.54211 L497.28491 693.03865 L497.56621 693.33189 L497.98649 693.79026 L498.31782 694.14816 L498.66879 694.54188 L499.06943 694.98851 L499.3347 695.29349 L499.82105 695.85129 L499.98598 696.0451 L500.57266 696.7357 L500.62356 696.79671 L501.24684 697.54832 L501.32427 697.64289 L501.85648 698.29993 L502.07588 698.57584 L502.4523 699.05154 L502.82749 699.5374 L503.01529 699.80315 L503.50373 700.55476 L503.5791 700.67045 L503.99155 701.30637 L504.33071 701.89311 L504.42587 702.05798 L504.80237 702.80959 L505.08232 703.48331 L505.11471 703.5612 L505.36151 704.31281 L505.53749 705.06442 L505.64154 705.81603 L505.67373 706.56764 L505.6352 707.31926 L505.52806 708.07087 L505.3552 708.82248 L505.12015 709.57409 L505.08232 709.66968 L504.8305 710.3257 L504.48849 711.07731 L504.33071 711.37808 L504.10058 711.82892 L503.67117 712.58053 L503.5791 712.72646 L503.20583 713.33214 L502.82749 713.90036 L502.70774 714.08375 L502.18153 714.83536 L502.07588 714.97758 L501.62982 715.58697 L501.32427 715.9848 L501.05537 716.33858 L500.57266 716.94783 L500.46052 717.09019 L499.84659 717.8418 L499.82105 717.87211 L499.2131 718.59341 L499.06943 718.75969 L498.5612 719.34503 L498.31782 719.61952 L497.89046 720.09664 L497.56621 720.45237 L497.1997 720.84825 L496.8146 721.25828 L496.48692 721.59986 L496.06299 722.03672 L495.74922 722.35147 L495.31138 722.78688 L494.9828 723.10308 L494.55977 723.50831 L494.18452 723.85469 L493.80816 724.20152 L493.3498 724.6063 L493.05655 724.86607 L492.47465 725.35791 L492.30494 725.5025 L491.55487 726.10952 L491.55333 726.11079 L490.80172 726.69287 L490.57066 726.86113 L490.05011 727.24697 L489.52215 727.61274 L489.2985 727.77123 L488.54689 728.26538 L488.38329 728.36435 L487.79528 728.7299 L487.11456 729.11596 L487.04366 729.15748 L486.29205 729.55356 L485.62197 729.86757 L485.54044 729.90719 L484.78883 730.22524 L484.03722 730.49641 L483.62449 730.61918 L483.28561 730.72405 L482.534 730.90659 L481.78239 731.03941 L481.03078 731.12266 L480.27917 731.15672 L479.52756 731.14224 L478.77595 731.08016 L478.02434 730.97176 L477.27273 730.81868 L476.52112 730.62294 L476.50914 730.61918 L475.76951 730.39302 L475.0179 730.12622 L474.37165 729.86757 L474.26628 729.8262 L473.51467 729.50081 L472.76306 729.14793 L472.6993 729.11596 L472.01145 728.7754 L471.25984 728.36632 L471.25641 728.36435 L470.50823 727.94074 L469.95362 727.61274 L469.75662 727.49674 L469.00501 727.03519 L468.73256 726.86113 L468.2534 726.55449 L467.58407 726.10952 L467.50179 726.05445 L466.75018 725.53311 L466.50593 725.35791 L465.99857 724.98956 L465.48702 724.6063 L465.24696 724.42338 L464.52194 723.85469 L464.49535 723.83337 L463.74374 723.21511 L463.61075 723.10308 L462.99213 722.56828 L462.74655 722.35147 L462.24052 721.89099 L461.92632 721.59986 L461.4889 721.18035 L461.1478 720.84825 L460.73729 720.43286 L460.40897 720.09664 L459.98568 719.64431 L459.70803 719.34503 L459.23407 718.80981 L459.04347 718.59341 L458.48246 717.92366 L458.41404 717.8418 L457.81904 717.09019 L457.73085 716.97192 L457.25726 716.33858 L456.97924 715.94272 L456.72777 715.58697 L456.23034 714.83536 L456.22763 714.83094 L455.76398 714.08375 L455.47602 713.58352 L455.32899 713.33214 L454.92476 712.58053 L454.72441 712.1762 L454.54918 711.82892 L454.22599 711.07731 L453.9728 710.4149 L453.93778 710.3257 L453.89764 710.20609" />
    <path d="M460.68228 706.56764 L460.73729 706.20508 L460.79711 705.81603 L460.97315 705.06442 L461.2124 704.31281 L461.4889 703.62926 L461.51685 703.5612 L461.88898 702.80959 L462.24052 702.20803 L462.32975 702.05798 L462.84191 701.30637 L462.99213 701.11074 L463.42791 700.55476 L463.74374 700.19193 L464.09042 699.80315 L464.49535 699.38867 L464.8341 699.05154 L465.24696 698.67222 L465.66558 698.29993 L465.99857 698.02385 L466.59396 697.54832 L466.75018 697.43098 L467.50179 696.88905 L467.63586 696.79671 L468.2534 696.39313 L468.81481 696.0451 L469.00501 695.93231 L469.75662 695.50997 L470.16622 695.29349 L470.50823 695.11879 L471.25984 694.75876 L471.7462 694.54188 L472.01145 694.42636 L472.76306 694.12284 L473.51467 693.84397 L473.67357 693.79026 L474.26628 693.59226 L475.0179 693.36551 L475.76951 693.16337 L476.29839 693.03865 L476.52112 692.98614 L477.27273 692.83365 L478.02434 692.70565 L478.77595 692.60215 L479.52756 692.52307 L480.27917 692.46829 L481.03078 692.43759 L481.78239 692.43208 L482.534 692.4522 L483.28561 692.4984 L484.03722 692.57249 L484.78883 692.67645 L485.54044 692.81243 L486.29205 692.98274 L486.49682 693.03865 L487.04366 693.18787 L487.79528 693.43068 L488.54689 693.71419 L488.7238 693.79026 L489.2985 694.03818 L490.05011 694.40563 L490.29999 694.54188 L490.80172 694.81734 L491.55333 695.27492 L491.58128 695.29349 L492.30494 695.77919 L492.66939 696.0451 L493.05655 696.33185 L493.63969 696.79671 L493.80816 696.9337 L494.51681 697.54832 L494.55977 697.58652 L495.31138 698.29356 L495.31782 698.29993 L496.05573 699.05154 L496.06299 699.05921 L496.73829 699.80315 L496.8146 699.89098 L497.37161 700.55476 L497.56621 700.81166 L497.92673 701.30637 L498.31782 701.86493 L498.44878 702.05798 L498.90503 702.80959 L499.06943 703.12072 L499.29523 703.5612 L499.61801 704.31281 L499.82105 704.90781 L499.87297 705.06442 L500.05731 705.81603 L500.17361 706.56764 L500.22244 707.31926 L500.20531 708.07087 L500.12456 708.82248 L499.98315 709.57409 L499.82105 710.18552 L499.78405 710.3257 L499.52864 711.07731 L499.22335 711.82892 L499.06943 712.15517 L498.86894 712.58053 L498.46976 713.33214 L498.31782 713.59044 L498.02659 714.08375 L497.56621 714.80277 L497.54517 714.83536 L497.02063 715.58697 L496.8146 715.86469 L496.45814 716.33858 L496.06299 716.83652 L495.85778 717.09019 L495.31138 717.73425 L495.21784 717.8418 L494.55977 718.56707 L494.53512 718.59341 L493.80816 719.34156 L493.80466 719.34503 L493.05655 720.06253 L493.0194 720.09664 L492.30494 720.73362 L492.16979 720.84825 L491.55333 721.35876 L491.24515 721.59986 L490.80172 721.94017 L490.23108 722.35147 L490.05011 722.48012 L489.2985 722.97781 L489.09383 723.10308 L488.54689 723.43493 L487.79528 723.85394 L487.79379 723.85469 L487.04366 724.2311 L486.29205 724.56992 L486.20005 724.6063 L485.54044 724.86739 L484.78883 725.12423 L484.03722 725.33981 L483.95826 725.35791 L483.28561 725.51285 L482.534 725.64317 L481.78239 725.73047 L481.03078 725.77455 L480.27917 725.7755 L479.52756 725.73369 L478.77595 725.64978 L478.02434 725.52481 L477.27273 725.36013 L477.26446 725.35791 L476.52112 725.15611 L475.76951 724.91577 L475.0179 724.64142 L474.93125 724.6063 L474.26628 724.33233 L473.51467 723.99357 L473.23013 723.85469 L472.76306 723.62169 L472.01145 723.21897 L471.80673 723.10308 L471.25984 722.78579 L470.54981 722.35147 L470.50823 722.32525 L469.75662 721.82802 L469.42715 721.59986 L469.00501 721.29658 L468.40688 720.84825 L468.2534 720.72818 L467.50179 720.11703 L467.47757 720.09664 L466.75018 719.4536 L466.63123 719.34503 L465.99857 718.7351 L465.85571 718.59341 L465.24696 717.95182 L465.1451 717.8418 L464.49535 717.09121 L464.49448 717.09019 L463.90248 716.33858 L463.74374 716.11973 L463.36324 715.58697 L462.99213 715.01837 L462.87403 714.83536 L462.43508 714.08375 L462.24052 713.71127 L462.04361 713.33214 L461.69905 712.58053 L461.4889 712.05196 L461.40022 711.82892 L461.1477 711.07731 L460.94161 710.3257 L460.7868 709.57409 L460.73729 709.22088 L460.68109 708.82248 L460.62681 708.07087 L460.62636 707.31926 L460.68228 706.56764 L460.68228 706.56764 L460.62636 707.31926 L460.62681 708.07087 L460.68109 708.82248 L460.73729 709.22088 L460.7868 709.57409 L460.94161 710.3257 L461.1477 711.07731 L461.40022 711.82892 L461.4889 712.05196 L461.69905 712.58053 L462.04361 713.33214 L462.24052 713.71127 L462.43508 714.08375 L462.87403 714.83536 L462.99213 715.01837 L463.36324 715.58697 L463.74374 716.11973 L463.90248 716.33858 L464.49448 717.09019 L464.49535 717.09121 L465.1451 717.8418 L465.24696 717.95182 L465.85571 718.59341 L465.99857 718.7351 L466.63123 719.34503 L466.75018 719.4536 L467.47757 720.09664 L467.50179 720.11703 L468.2534 720.72818 L468.40688 720.84825 L469.00501 721.29658 L469.42715 721.59986 L469.75662 721.82802 L470.50823 722.32525 L470.54981 722.35147 L471.25984 722.78579 L471.80673 723.10308 L472.01145 723.21897 L472.76306 723.62169 L473.23013 723.85469 L473.51467 723.99357 L474.26628 724.33233 L474.93125 724.6063 L475.0179 724.64142 L475.76951 724.91577 L476.52112 725.15611 L477.26446 725.35791 L477.27273 725.36013 L478.02434 725.52481 L478.77595 725.64978 L479.52756 725.73369 L480.27917 725.7755 L481.03078 725.77455 L481.78239 725.73047 L482.534 725.64317 L483.28561 725.51285 L483.95826 725.35791 L484.03722 725.33981 L484.78883 725.12423 L485.54044 724.86739 L486.20005 724.6063 L486.29205 724.56992 L487.04366 724.2311 L487.79379 723.85469 L487.79528 723.85394 L488.54689 723.43493 L489.09383 723.10308 L489.2985 722.97781 L490.05011 722.48012 L490.23108 722.35147 L490.80172 721.94017 L491.24515 721.59986 L491.55333 721.35876 L492.16979 720.84825 L492.30494 720.73362 L493.0194 720.09664 L493.05655 720.06253 L493.80466 719.34503 L493.80816 719.34156 L494.53512 718.59341 L494.55977 718.56707 L495.21784 717.8418 L495.31138 717.73425 L495.85778 717.09019 L496.06299 716.83652 L496.45814 716.33858 L496.8146 715.86469 L497.02063 715.58697 L497.54517 714.83536 L497.56621 714.80277 L498.02659 714.08375 L498.31782 713.59044 L498.46976 713.33214 L498.86894 712.58053 L499.06943 712.15517 L499.22335 711.82892 L499.52864 711.07731 L499.78405 710.3257 L499.82105 710.18552 L499.98315 709.57409 L500.12456 708.82248 L500.20531 708.07087 L500.22244 707.31926 L500.17361 706.56764 L500.05731 705.81603 L499.87297 705.06442 L499.82105 704.90781 L499.61801 704.31281 L499.29523 703.5612 L499.06943 703.12072 L498.90503 702.80959 L498.44878 702.05798 L498.31782 701.86493 L497.92673 701.30637 L497.56621 700.81166 L497.37161 700.55476 L496.8146 699.89098 L496.73829 699.80315 L496.06299 699.05921 L496.05573 699.05154 L495.31782 698.29993 L495.31138 698.29356 L494.55977 697.58652 L494.51681 697.54832 L493.80816 696.9337 L493.63969 696.79671 L493.05655 696.33185 L492.66939 696.0451 L492.30494 695.77919 L491.58128 695.29349 L491.55333 695.27492 L490.80172 694.81734 L490.29999 694.54188 L490.05011 694.40563 L489.2985 694.03818 L488.7238 693.79026 L488.54689 693.71419 L487.79528 693.43068 L487.04366 693.18787 L486.49682 693.03865 L486.29205 692.98274 L485.54044 692.81243 L484.78883 692.67645 L484.03722 692.57249 L483.28561 692.4984 L482.534 692.4522 L481.78239 692.43208 L481.03078 692.43759 L480.27917 692.46829 L479.52756 692.52307 L478.77595 692.60215 L478.02434 692.70565 L477.27273 692.83365 L476.52112 692.98614 L476.29839 693.03865 L475.76951 693.16337 L475.0179 693.36551 L474.26628 693.59226 L473.67357 693.79026 L473.51467 693.84397 L472.76306 694.12284 L472.01145 694.42636 L471.7462 694.54188 L471.25984 694.75876 L470.50823 695.11879 L470.16622 695.29349 L469.75662 695.50997 L469.00501 695.93231 L468.81481 696.0451 L468.2534 696.39313 L467.63586 696.79671 L467.50179 696.88905 L466.75018 697.43098 L466.59396 697.54832 L465.99857 698.02385 L465.66558 698.29993 L465.24696 698.67222 L464.8341 699.05154 L464.49535 699.38867 L464.09042 699.80315 L463.74374 700.19193 L463.42791 700.55476 L462.99213 701.11074 L462.84191 701.30637 L462.32975 702.05798 L462.24052 702.20803 L461.88898 702.80959 L461.51685 703.5612 L461.4889 703.62926 L461.2124 704.31281 L460.97315 705.06442 L460.79711 705.81603 L460.73729 706.20508" />
    <path d="M468.24753 707.31926 L468.2534 707.29035 L468.40641 706.56764 L468.64068 705.81603 L468.95292 705.06442 L469.00501 704.96351 L469.35846 704.31281 L469.75662 703.70603 L469.85733 703.5612 L470.46809 702.80959 L470.50823 702.76632 L471.21117 702.05798 L471.25984 702.01431 L472.01145 701.38796 L472.11783 701.30637 L472.76306 700.85789 L473.24271 700.55476 L473.51467 700.39693 L474.26628 700.00251 L474.6925 699.80315 L475.0179 699.66152 L475.76951 699.37265 L476.52112 699.12337 L476.77566 699.05154 L477.27273 698.919 L478.02434 698.75346 L478.77595 698.62278 L479.52756 698.52653 L480.27917 698.46454 L481.03078 698.43688 L481.78239 698.44389 L482.534 698.48619 L483.28561 698.56461 L484.03722 698.6802 L484.78883 698.83416 L485.54044 699.02781 L485.61681 699.05154 L486.29205 699.27047 L487.04366 699.55776 L487.59954 699.80315 L487.79528 699.89405 L488.54689 700.28952 L488.99669 700.55476 L489.2985 700.74361 L490.05011 701.26401 L490.10607 701.30637 L490.80172 701.87036 L491.01512 702.05798 L491.55333 702.57243 L491.78352 702.80959 L492.30494 703.40112 L492.43662 703.5612 L492.98186 704.31281 L493.05655 704.43282 L493.42405 705.06442 L493.78085 705.81603 L493.80816 705.89018 L494.04179 706.56764 L494.22092 707.31926 L494.32002 708.07087 L494.3407 708.82248 L494.28551 709.57409 L494.15785 710.3257 L493.96174 711.07731 L493.80816 711.5175 L493.69589 711.82892 L493.3593 712.58053 L493.05655 713.15548 L492.95983 713.33214 L492.48671 714.08375 L492.30494 714.34163 L491.94048 714.83536 L491.55333 715.312 L491.31761 715.58697 L490.80172 716.14003 L490.60456 716.33858 L490.05011 716.8567 L489.78159 717.09019 L489.2985 717.48332 L488.82028 717.8418 L488.54689 718.03519 L487.79528 718.51866 L487.66532 718.59341 L487.04366 718.93324 L486.29205 719.29685 L486.176 719.34503 L485.54044 719.59758 L484.78883 719.84805 L484.03722 720.04951 L483.80139 720.09664 L483.28561 720.19594 L482.534 720.29161 L481.78239 720.33833 L481.03078 720.33608 L480.27917 720.2852 L479.52756 720.18647 L479.06192 720.09664 L478.77595 720.03836 L478.02434 719.83874 L477.27273 719.59407 L476.6208 719.34503 L476.52112 719.30466 L475.76951 718.9596 L475.05303 718.59341 L475.0179 718.57428 L474.26628 718.12761 L473.8214 717.8418 L473.51467 717.63033 L472.78346 717.09019 L472.76306 717.07386 L472.01145 716.43371 L471.90588 716.33858 L471.25984 715.70052 L471.15055 715.58697 L470.50823 714.84649 L470.49901 714.83536 L469.94495 714.08375 L469.75662 713.79089 L469.47269 713.33214 L469.07555 712.58053 L469.00501 712.41912 L468.75507 711.82892 L468.50278 711.07731 L468.3166 710.3257 L468.2534 709.92734 L468.19862 709.57409 L468.14783 708.82248 L468.16356 708.07087 L468.24753 707.31926 L468.24753 707.31926 L468.16356 708.07087 L468.14783 708.82248 L468.19862 709.57409 L468.2534 709.92734 L468.3166 710.3257 L468.50278 711.07731 L468.75507 711.82892 L469.00501 712.41912 L469.07555 712.58053 L469.47269 713.33214 L469.75662 713.79089 L469.94495 714.08375 L470.49901 714.83536 L470.50823 714.84649 L471.15055 715.58697 L471.25984 715.70052 L471.90588 716.33858 L472.01145 716.43371 L472.76306 717.07386 L472.78346 717.09019 L473.51467 717.63033 L473.8214 717.8418 L474.26628 718.12761 L475.0179 718.57428 L475.05303 718.59341 L475.76951 718.9596 L476.52112 719.30466 L476.6208 719.34503 L477.27273 719.59407 L478.02434 719.83874 L478.77595 720.03836 L479.06192 720.09664 L479.52756 720.18647 L480.27917 720.2852 L481.03078 720.33608 L481.78239 720.33833 L482.534 720.29161 L483.28561 720.19594 L483.80139 720.09664 L484.03722 720.04951 L484.78883 719.84805 L485.54044 719.59758 L486.176 719.34503 L486.29205 719.29685 L487.04366 718.93324 L487.66532 718.59341 L487.79528 718.51866 L488.54689 718.03519 L488.82028 717.8418 L489.2985 717.48332 L489.78159 717.09019 L490.05011 716.8567 L490.60456 716.33858 L490.80172 716.14003 L491.31761 715.58697 L491.55333 715.312 L491.94048 714.83536 L492.30494 714.34163 L492.48671 714.08375 L492.95983 713.33214 L493.05655 713.15548 L493.3593 712.58053 L493.69589 711.82892 L493.80816 711.5175 L493.96174 711.07731 L494.15785 710.3257 L494.28551 709.57409 L494.3407 708.82248 L494.32002 708.07087 L494.22092 707.31926 L494.04179 706.56764 L493.80816 705.89018 L493.78085 705.81603 L493.42405 705.06442 L493.05655 704.43282 L492.98186 704.31281 L492.43662 703.5612 L492.30494 703.40112 L491.78352 702.80959 L491.55333 702.57243 L491.01512 702.05798 L490.80172 701.87036 L490.10607 701.30637 L490.05011 701.26401 L489.2985 700.74361 L488.99669 700.55476 L488.54689 700.28952 L487.79528 699.89405 L487.59954 699.80315 L487.04366 699.55776 L486.29205 699.27047 L485.61681 699.05154 L485.54044 699.02781 L484.78883 698.83416 L484.03722 698.6802 L483.28561 698.56461 L482.534 698.48619 L481.78239 698.44389 L481.03078 698.43688 L480.27917 698.46454 L479.52756 698.52653 L478.77595 698.62278 L478.02434 698.75346 L477.27273 698.919 L476.77566 699.05154 L476.52112 699.12337 L475.76951 699.37265 L475.0179 699.66152 L474.6925 699.80315 L474.26628 700.00251 L473.51467 700.39693 L473.24271 700.55476 L472.76306 700.85789 L472.11783 701.30637 L472.01145 701.38796 L471.25984 702.01431 L471.21117 702.05798 L470.50823 702.76632 L470.46809 702.80959 L469.85733 703.5612 L469.75662 703.70603 L469.35846 704.31281 L469.00501 704.96351 L468.95292 705.06442 L468.64068 705.81603 L468.40641 706.56764 L468.2534 707.29035" />
    <path d="M438.10077 518.74016 L438.16066 518.665 L438.18898 518.62933 L438.76405 517.91339 L438.94059 517.69223 L439.01575 517.59953 L438.94059 517.69223 L438.76405 517.91339 L438.18898 518.62933 L438.16066 518.665 L438.10077 518.74016" />
    <path d="M433.81886 518.74016 L433.87747 518.665 L434.43092 517.95186 L434.46076 517.91339 L435.03736 517.16178 L435.18253 516.97017 L435.60743 516.41016 L435.93414 515.97327 L436.17062 515.65855 L436.68576 514.96185 L436.7267 514.90694 L437.27515 514.15533 L437.43737 513.92795 L437.81564 513.40372 L438.18898 512.87279 L438.34618 512.65211 L438.86413 511.9005 L438.94059 511.78492 L439.01575 511.67277 L438.94059 511.78492 L438.86413 511.9005 L438.34618 512.65211 L438.18898 512.87279 L437.81564 513.40372 L437.43737 513.92795 L437.27515 514.15533 L436.7267 514.90694 L436.68576 514.96185 L436.17062 515.65855 L435.93414 515.97327 L435.60743 516.41016 L435.18253 516.97017 L435.03736 517.16178 L434.46076 517.91339 L434.43092 517.95186 L433.87747 518.665 L433.81886 518.74016" />
    <path d="M429.25012 518.74016 L429.30943 518.665 L429.90305 517.91339 L429.92126 517.89012 L430.48364 517.16178 L430.67287 516.91443 L431.05385 516.41016 L431.42448 515.91216 L431.61111 515.65855 L432.15252 514.90694 L432.17609 514.87309 L432.671 514.15533 L432.9277 513.77187 L433.17258 513.40372 L433.65613 512.65211 L433.67931 512.61421 L434.11512 511.9005 L434.43092 511.36264 L434.55661 511.14889 L434.97354 510.39728 L435.18253 509.99698 L435.36649 509.64567 L435.73121 508.89406 L435.93414 508.4379 L436.06594 508.14245 L436.36458 507.39084 L436.62874 506.63923 L436.68576 506.44421 L436.84838 505.88762 L437.02301 505.13601 L437.14989 504.3844 L437.22421 503.63278 L437.24087 502.88117 L437.19457 502.12956 L437.07984 501.37795 L436.89121 500.62634 L436.68576 500.04471 L436.61914 499.87473 L436.24175 499.12312 L435.93414 498.62973 L435.75183 498.37151 L435.18253 497.6906 L435.11433 497.6199 L434.43092 496.99773 L434.26323 496.86829 L433.67931 496.46036 L433.08339 496.11668 L432.9277 496.03342 L432.17609 495.70221 L431.42448 495.44367 L431.12425 495.36507 L430.67287 495.25198 L429.92126 495.11784 L429.16965 495.0342 L428.41804 494.99623 L427.66643 494.99962 L426.91482 495.04061 L426.16321 495.1159 L425.4116 495.22262 L424.65999 495.35838 L424.62937 495.36507 L423.90838 495.52085 L423.15676 495.70857 L422.40515 495.92063 L421.78088 496.11668 L421.65354 496.15647 L420.90193 496.41551 L420.15032 496.6971 L419.72709 496.86829 L419.39871 497.00128 L418.6471 497.32764 L418.01513 497.6199 L417.89549 497.6756 L417.14388 498.04636 L416.51899 498.37151 L416.39227 498.43826 L415.64066 498.85368 L415.17469 499.12312 L414.88905 499.29129 L414.13744 499.75233 L413.94502 499.87473 L413.38583 500.239 L412.81032 500.62634 L412.63422 500.74829 L411.88261 501.28104 L411.74781 501.37795 L411.13099 501.83599 L410.73746 502.12956 L410.37938 502.40628 L409.75978 502.88117 L409.62777 502.98611 L408.87616 503.57013 L408.79258 503.63278 L408.12455 504.15087 L407.80723 504.3844 L407.37294 504.71446 L406.77708 505.13601 L406.62133 505.24952 L405.86972 505.7488 L405.63508 505.88762 L405.11811 506.20119 L404.3665 506.59392 L404.26221 506.63923 L403.61489 506.92641 L402.86328 507.18676 L402.11167 507.37179 L401.98019 507.39084 L401.36006 507.48228 L400.60845 507.51383 L399.85684 507.46581 L399.41545 507.39084 L399.10523 507.33941 L398.35361 507.13703 L397.602 506.85767 L397.14019 506.63923 L396.85039 506.505 L396.09878 506.08355 L395.79994 505.88762 L395.34717 505.59675 L394.71782 505.13601 L394.59556 505.04833 L393.84395 504.44673 L393.773 504.3844 L393.09234 503.79912 L392.91354 503.63278 L392.34073 503.10868 L392.11052 502.88117 L391.58912 502.35661 L391.37682 502.12956 L390.83751 501.55384 L390.68125 501.37795 L390.0859 500.69925 L390.02478 500.62634 L389.41122 499.87473 L389.33429 499.77658 L388.84138 499.12312 L388.58268 498.7597 L388.31464 498.37151 L387.83351 497.6199 L387.83107 497.61572 L387.40294 496.86829 L387.07946 496.23323 L387.02087 496.11668 L386.69114 495.36507 L386.41462 494.61346 L386.32785 494.32016 L386.19242 493.86185 L386.02614 493.11024 L385.91723 492.35863 L385.86649 491.60702 L385.87449 490.8554 L385.94174 490.10379 L386.06873 489.35218 L386.25601 488.60057 L386.32785 488.38233 L386.50106 487.84896 L386.80448 487.09735 L387.07946 486.52803 L387.16663 486.34574 L387.58304 485.59413 L387.83107 485.20024 L388.05461 484.84252 L388.57874 484.09091 L388.58268 484.08576 L389.15024 483.3393 L389.33429 483.11624 L389.76821 482.58769 L390.0859 482.22663 L390.4281 481.83608 L390.83751 481.39517 L391.12489 481.08447 L391.58912 480.60595 L391.85293 480.33286 L392.34073 479.84677 L392.60585 479.58125 L393.09234 479.10792 L393.37658 478.82963 L393.84395 478.38122 L394.15754 478.07802 L394.59556 477.65949 L394.94094 477.32641 L395.34717 476.9361 L395.71919 476.5748 L396.09878 476.19471 L396.46602 475.82319 L396.85039 475.43886 L397.2095 475.07158 L397.602 474.65842 L397.91686 474.31997 L398.35361 473.83381 L398.58757 473.56836 L399.10523 472.95622 L399.22118 472.81675 L399.81745 472.06514 L399.85684 472.01296 L400.37717 471.31353 L400.60845 470.98296 L400.89971 470.56192 L401.36006 469.84848 L401.3845 469.81031 L401.83414 469.0587 L402.11167 468.55342 L402.24652 468.30709 L402.62333 467.55548 L402.86328 467.02531 L402.96369 466.80387 L403.26952 466.05225 L403.53825 465.30064 L403.61489 465.05394 L403.77313 464.54903 L403.97262 463.79742 L404.13607 463.04581 L404.26393 462.2942 L404.35654 461.54259 L404.3665 461.41238 L404.41491 460.79098 L404.43787 460.03937 L404.42537 459.28776 L404.42057 459.2126 L404.42537 459.28776 L404.43787 460.03937 L404.41491 460.79098 L404.3665 461.41238 L404.35654 461.54259 L404.26393 462.2942 L404.13607 463.04581 L403.97262 463.79742 L403.77313 464.54903 L403.61489 465.05394 L403.53825 465.30064 L403.26952 466.05225 L402.96369 466.80387 L402.86328 467.02531 L402.62333 467.55548 L402.24652 468.30709 L402.11167 468.55342 L401.83414 469.0587 L401.3845 469.81031 L401.36006 469.84848 L400.89971 470.56192 L400.60845 470.98296 L400.37717 471.31353 L399.85684 472.01296 L399.81745 472.06514 L399.22118 472.81675 L399.10523 472.95622 L398.58757 473.56836 L398.35361 473.83381 L397.91686 474.31997 L397.602 474.65842 L397.2095 475.07158 L396.85039 475.43886 L396.46602 475.82319 L396.09878 476.19471 L395.71919 476.5748 L395.34717 476.9361 L394.94094 477.32641 L394.59556 477.65949 L394.15754 478.07802 L393.84395 478.38122 L393.37658 478.82963 L393.09234 479.10792 L392.60585 479.58125 L392.34073 479.84677 L391.85293 480.33286 L391.58912 480.60595 L391.12489 481.08447 L390.83751 481.39517 L390.4281 481.83608 L390.0859 482.22663 L389.76821 482.58769 L389.33429 483.11624 L389.15024 483.3393 L388.58268 484.08576 L388.57874 484.09091 L388.05461 484.84252 L387.83107 485.20024 L387.58304 485.59413 L387.16663 486.34574 L387.07946 486.52803 L386.80448 487.09735 L386.50106 487.84896 L386.32785 488.38233 L386.25601 488.60057 L386.06873 489.35218 L385.94174 490.10379 L385.87449 490.8554 L385.86649 491.60702 L385.91723 492.35863 L386.02614 493.11024 L386.19242 493.86185 L386.32785 494.32016 L386.41462 494.61346 L386.69114 495.36507 L387.02087 496.11668 L387.07946 496.23323 L387.40294 496.86829 L387.83107 497.61572 L387.83351 497.6199 L388.31464 498.37151 L388.58268 498.7597 L388.84138 499.12312 L389.33429 499.77658 L389.41122 499.87473 L390.02478 500.62634 L390.0859 500.69925 L390.68125 501.37795 L390.83751 501.55384 L391.37682 502.12956 L391.58912 502.35661 L392.11052 502.88117 L392.34073 503.10868 L392.91354 503.63278 L393.09234 503.79912 L393.773 504.3844 L393.84395 504.44673 L394.59556 505.04833 L394.71782 505.13601 L395.34717 505.59675 L395.79994 505.88762 L396.09878 506.08355 L396.85039 506.505 L397.14019 506.63923 L397.602 506.85767 L398.35361 507.13703 L399.10523 507.33941 L399.41545 507.39084 L399.85684 507.46581 L400.60845 507.51383 L401.36006 507.48228 L401.98019 507.39084 L402.11167 507.37179 L402.86328 507.18676 L403.61489 506.92641 L404.26221 506.63923 L404.3665 506.59392 L405.11811 506.20119 L405.63508 505.88762 L405.86972 505.7488 L406.62133 505.24952 L406.77708 505.13601 L407.37294 504.71446 L407.80723 504.3844 L408.12455 504.15087 L408.79258 503.63278 L408.87616 503.57013 L409.62777 502.98611 L409.75978 502.88117 L410.37938 502.40628 L410.73746 502.12956 L411.13099 501.83599 L411.74781 501.37795 L411.88261 501.28104 L412.63422 500.74829 L412.81032 500.62634 L413.38583 500.239 L413.94502 499.87473 L414.13744 499.75233 L414.88905 499.29129 L415.17469 499.12312 L415.64066 498.85368 L416.39227 498.43826 L416.51899 498.37151 L417.14388 498.04636 L417.89549 497.6756 L418.01513 497.6199 L418.6471 497.32764 L419.39871 497.00128 L419.72709 496.86829 L420.15032 496.6971 L420.90193 496.41551 L421.65354 496.15647 L421.78088 496.11668 L422.40515 495.92063 L423.15676 495.70857 L423.90838 495.52085 L424.62937 495.36507 L424.65999 495.35838 L425.4116 495.22262 L426.16321 495.1159 L426.91482 495.04061 L427.66643 494.99962 L428.41804 494.99623 L429.16965 495.0342 L429.92126 495.11784 L430.67287 495.25198 L431.12425 495.36507 L431.42448 495.44367 L432.17609 495.70221 L432.9277 496.03342 L433.08339 496.11668 L433.67931 496.46036 L434.26323 496.86829 L434.43092 496.99773 L435.11433 497.6199 L435.18253 497.6906 L435.75183 498.37151 L435.93414 498.62973 L436.24175 499.12312 L436.61914 499.87473 L436.68576 500.04471 L436.89121 500.62634 L437.07984 501.37795 L437.19457 502.12956 L437.24087 502.88117 L437.22421 503.63278 L437.14989 504.3844 L437.02301 505.13601 L436.84838 505.88762 L436.68576 506.44421 L436.62874 506.63923 L436.36458 507.39084 L436.06594 508.14245 L435.93414 508.4379 L435.73121 508.89406 L435.36649 509.64567 L435.18253 509.99698 L434.97354 510.39728 L434.55661 511.14889 L434.43092 511.36264 L434.11512 511.9005 L433.67931 512.61421 L433.65613 512.65211 L433.17258 513.40372 L432.9277 513.77187 L432.671 514.15533 L432.17609 514.87309 L432.15252 514.90694 L431.61111 515.65855 L431.42448 515.91216 L431.05385 516.41016 L430.67287 516.91443 L430.48364 517.16178 L429.92126 517.89012 L429.90305 517.91339 L429.30943 518.665 L429.25012 518.74016" />
    <path d="M423.04295 518.74016 L423.10948 518.665 L423.15676 518.61243 L423.76385 517.91339 L423.90838 517.74889 L424.40642 517.16178 L424.65999 516.86361 L425.03236 516.41016 L425.4116 515.94517 L425.63738 515.65855 L426.16321 514.97993 L426.21786 514.90694 L426.75725 514.15533 L426.91482 513.92603 L427.2608 513.40372 L427.66643 512.76069 L427.73258 512.65211 L428.14964 511.9005 L428.41804 511.37298 L428.52824 511.14889 L428.84859 510.39728 L429.12525 509.64567 L429.16965 509.4889 L429.33303 508.89406 L429.47697 508.14245 L429.54866 507.39084 L429.53246 506.63923 L429.40833 505.88762 L429.16965 505.18774 L429.14777 505.13601 L428.65761 504.3844 L428.41804 504.12567 L427.8064 503.63278 L427.66643 503.54457 L426.91482 503.20083 L426.16321 502.98448 L425.48806 502.88117 L425.4116 502.87107 L424.65999 502.84286 L423.90838 502.87953 L423.89556 502.88117 L423.15676 502.97982 L422.40515 503.13345 L421.65354 503.33477 L420.90193 503.57966 L420.76416 503.63278 L420.15032 503.8807 L419.39871 504.22403 L419.08424 504.3844 L418.6471 504.61972 L417.89549 505.06239 L417.78045 505.13601 L417.14388 505.5683 L416.70379 505.88762 L416.39227 506.12826 L415.76742 506.63923 L415.64066 506.74974 L414.93971 507.39084 L414.88905 507.4402 L414.19239 508.14245 L414.13744 508.20168 L413.509 508.89406 L413.38583 509.03621 L412.86758 509.64567 L412.63422 509.9343 L412.25819 510.39728 L411.88261 510.87998 L411.66934 511.14889 L411.13099 511.85171 L411.09232 511.9005 L410.51718 512.65211 L410.37938 512.83675 L409.93244 513.40372 L409.62777 513.79574 L409.32722 514.15533 L408.87616 514.69888 L408.68666 514.90694 L408.12455 515.52499 L407.98802 515.65855 L407.37294 516.25857 L407.19311 516.41016 L406.62133 516.88951 L406.23098 517.16178 L405.86972 517.41203 L405.11811 517.8273 L404.9151 517.91339 L404.3665 518.14514 L403.61489 518.36519 L402.86328 518.49293 L402.11167 518.53506 L401.36006 518.4962 L400.60845 518.37935 L399.85684 518.18617 L399.10523 517.91721 L399.09697 517.91339 L398.35361 517.58191 L397.602 517.17109 L397.58767 517.16178 L396.85039 516.69578 L396.46172 516.41016 L396.09878 516.14956 L395.50059 515.65855 L395.34717 515.53504 L394.65449 514.90694 L394.59556 514.85437 L393.89055 514.15533 L393.84395 514.10977 L393.18643 513.40372 L393.09234 513.30392 L392.52653 512.65211 L392.34073 512.44053 L391.89966 511.9005 L391.58912 511.52468 L391.29755 511.14889 L390.83751 510.56329 L390.71393 510.39728 L390.14587 509.64567 L390.0859 509.56775 L389.5899 508.89406 L389.33429 508.55311 L389.03726 508.14245 L388.58268 507.52704 L388.4848 507.39084 L387.93064 506.63923 L387.83107 506.5078 L387.3696 505.88762 L387.07946 505.50875 L386.79676 505.13601 L386.32785 504.53262 L386.21413 504.3844 L385.65198 503.63278 L385.57623 503.5332 L385.07855 502.88117 L384.82462 502.54917 L384.50042 502.12956 L384.07301 501.5701 L383.92367 501.37795 L383.35332 500.62634 L383.3214 500.58278 L382.78953 499.87473 L382.56979 499.56713 L382.2418 499.12312 L381.81818 498.51185 L381.71661 498.37151 L381.21241 497.6199 L381.06657 497.38134 L380.73492 496.86829 L380.31496 496.1422 L380.29914 496.11668 L379.88921 495.36507 L379.56335 494.6663 L379.53644 494.61346 L379.48819 494.49908 L379.53644 494.61346 L379.56335 494.6663 L379.88921 495.36507 L380.29914 496.11668 L380.31496 496.1422 L380.73492 496.86829 L381.06657 497.38134 L381.21241 497.6199 L381.71661 498.37151 L381.81818 498.51185 L382.2418 499.12312 L382.56979 499.56713 L382.78953 499.87473 L383.3214 500.58278 L383.35332 500.62634 L383.92367 501.37795 L384.07301 501.5701 L384.50042 502.12956 L384.82462 502.54917 L385.07855 502.88117 L385.57623 503.5332 L385.65198 503.63278 L386.21413 504.3844 L386.32785 504.53262 L386.79676 505.13601 L387.07946 505.50875 L387.3696 505.88762 L387.83107 506.5078 L387.93064 506.63923 L388.4848 507.39084 L388.58268 507.52704 L389.03726 508.14245 L389.33429 508.55311 L389.5899 508.89406 L390.0859 509.56775 L390.14587 509.64567 L390.71393 510.39728 L390.83751 510.56329 L391.29755 511.14889 L391.58912 511.52468 L391.89966 511.9005 L392.34073 512.44053 L392.52653 512.65211 L393.09234 513.30392 L393.18643 513.40372 L393.84395 514.10977 L393.89055 514.15533 L394.59556 514.85437 L394.65449 514.90694 L395.34717 515.53504 L395.50059 515.65855 L396.09878 516.14956 L396.46172 516.41016 L396.85039 516.69578 L397.58767 517.16178 L397.602 517.17109 L398.35361 517.58191 L399.09697 517.91339 L399.10523 517.91721 L399.85684 518.18617 L400.60845 518.37935 L401.36006 518.4962 L402.11167 518.53506 L402.86328 518.49293 L403.61489 518.36519 L404.3665 518.14514 L404.9151 517.91339 L405.11811 517.8273 L405.86972 517.41203 L406.23098 517.16178 L406.62133 516.88951 L407.19311 516.41016 L407.37294 516.25857 L407.98802 515.65855 L408.12455 515.52499 L408.68666 514.90694 L408.87616 514.69888 L409.32722 514.15533 L409.62777 513.79574 L409.93244 513.40372 L410.37938 512.83675 L410.51718 512.65211 L411.09232 511.9005 L411.13099 511.85171 L411.66934 511.14889 L411.88261 510.87998 L412.25819 510.39728 L412.63422 509.9343 L412.86758 509.64567 L413.38583 509.03621 L413.509 508.89406 L414.13744 508.20168 L414.19239 508.14245 L414.88905 507.4402 L414.93971 507.39084 L415.64066 506.74974 L415.76742 506.63923 L416.39227 506.12826 L416.70379 505.88762 L417.14388 505.5683 L417.78045 505.13601 L417.89549 505.06239 L418.6471 504.61972 L419.08424 504.3844 L419.39871 504.22403 L420.15032 503.8807 L420.76416 503.63278 L420.90193 503.57966 L421.65354 503.33477 L422.40515 503.13345 L423.15676 502.97982 L423.89556 502.88117 L423.90838 502.87953 L424.65999 502.84286 L425.4116 502.87107 L425.48806 502.88117 L426.16321 502.98448 L426.91482 503.20083 L427.66643 503.54457 L427.8064 503.63278 L428.41804 504.12567 L428.65761 504.3844 L429.14777 505.13601 L429.16965 505.18774 L429.40833 505.88762 L429.53246 506.63923 L429.54866 507.39084 L429.47697 508.14245 L429.33303 508.89406 L429.16965 509.4889 L429.12525 509.64567 L428.84859 510.39728 L428.52824 511.14889 L428.41804 511.37298 L428.14964 511.9005 L427.73258 512.65211 L427.66643 512.76069 L427.2608 513.40372 L426.91482 513.92603 L426.75725 514.15533 L426.21786 514.90694 L426.16321 514.97993 L425.63738 515.65855 L425.4116 515.94517 L425.03236 516.41016 L424.65999 516.86361 L424.40642 517.16178 L423.90838 517.74889 L423.76385 517.91339 L423.15676 518.61243 L423.10948 518.665 L423.04295 518.74016" />
    <path d="M439.01575 491.46293 L438.94059 491.37313 L438.45357 490.8554 L438.18898 490.60772 L437.59285 490.10379 L437.43737 489.96914 L436.68576 489.38952 L436.6308 489.35218 L435.93414 488.86507 L435.49305 488.60057 L435.18253 488.40786 L434.43092 488.01549 L434.04087 487.84896 L433.67931 487.68839 L432.9277 487.42522 L432.17609 487.23069 L431.42448 487.09912 L431.40678 487.09735 L430.67287 487.02066 L429.92126 486.99855 L429.16965 487.02793 L428.48721 487.09735 L428.41804 487.10389 L427.66643 487.2165 L426.91482 487.36632 L426.16321 487.55024 L425.4116 487.76547 L425.15547 487.84896 L424.65999 488.00173 L423.90838 488.25932 L423.15676 488.54054 L423.00825 488.60057 L422.40515 488.83332 L421.65354 489.14366 L421.17854 489.35218 L420.90193 489.46891 L420.15032 489.80462 L419.51607 490.10379 L419.39871 490.15734 L418.6471 490.51737 L417.97528 490.8554 L417.89549 490.89445 L417.14388 491.27774 L416.52557 491.60702 L416.39227 491.67641 L415.64066 492.08166 L415.14545 492.35863 L414.88905 492.49951 L414.13744 492.92543 L413.8206 493.11024 L413.38583 493.36068 L412.63422 493.80627 L412.54229 493.86185 L411.88261 494.25779 L411.30403 494.61346 L411.13099 494.71946 L410.37938 495.18499 L410.09009 495.36507 L409.62777 495.65249 L408.87864 496.11668 L408.87616 496.11822 L408.12455 496.57279 L407.6209 496.86829 L407.37294 497.01401 L406.62133 497.43297 L406.26178 497.6199 L405.86972 497.82412 L405.11811 498.18025 L404.66189 498.37151 L404.3665 498.49566 L403.61489 498.76343 L402.86328 498.97903 L402.17987 499.12312 L402.11167 499.13753 L401.36006 499.2339 L400.60845 499.26501 L399.85684 499.22782 L399.12858 499.12312 L399.10523 499.11969 L398.35361 498.93542 L397.602 498.67397 L396.93366 498.37151 L396.85039 498.33213 L396.09878 497.89507 L395.70176 497.6199 L395.34717 497.35702 L394.77904 496.86829 L394.59556 496.69556 L394.0536 496.11668 L393.84395 495.86487 L393.47023 495.36507 L393.09234 494.77709 L392.99633 494.61346 L392.62874 493.86185 L392.34225 493.11024 L392.34073 493.10479 L392.14741 492.35863 L392.02785 491.60702 L391.98221 490.8554 L392.00861 490.10379 L392.10473 489.35218 L392.2679 488.60057 L392.34073 488.36216 L392.50078 487.84896 L392.79816 487.09735 L393.09234 486.47675 L393.15565 486.34574 L393.57797 485.59413 L393.84395 485.17306 L394.05623 484.84252 L394.58689 484.09091 L394.59556 484.07966 L395.17306 483.3393 L395.34717 483.13009 L395.80347 482.58769 L396.09878 482.25442 L396.47266 481.83608 L396.85039 481.43014 L397.17392 481.08447 L397.602 480.64048 L397.89948 480.33286 L398.35361 479.87247 L398.64091 479.58125 L399.10523 479.10115 L399.36838 478.82963 L399.85684 478.34024 L400.11455 478.07802 L400.60845 477.5672 L400.83815 477.32641 L401.36006 476.76694 L401.53731 476.5748 L402.11167 475.93414 L402.21029 475.82319 L402.85581 475.07158 L402.86328 475.06259 L403.4773 474.31997 L403.61489 474.14567 L404.0701 473.56836 L404.3665 473.17192 L404.6329 472.81675 L405.11811 472.12971 L405.16408 472.06514 L405.67175 471.31353 L405.86972 470.99913 L406.14911 470.56192 L406.59278 469.81031 L406.62133 469.75851 L407.01569 469.0587 L407.37294 468.35978 L407.40068 468.30709 L407.76546 467.55548 L408.09124 466.80387 L408.12455 466.71874 L408.3962 466.05225 L408.66546 465.30064 L408.87616 464.62267 L408.90027 464.54903 L409.11243 463.79742 L409.2885 463.04581 L409.42952 462.2942 L409.53629 461.54259 L409.60936 460.79098 L409.62777 460.44255 L409.65073 460.03937 L409.65785 459.28776 L409.655 459.2126 L409.65785 459.28776 L409.65073 460.03937 L409.62777 460.44255 L409.60936 460.79098 L409.53629 461.54259 L409.42952 462.2942 L409.2885 463.04581 L409.11243 463.79742 L408.90027 464.54903 L408.87616 464.62267 L408.66546 465.30064 L408.3962 466.05225 L408.12455 466.71874 L408.09124 466.80387 L407.76546 467.55548 L407.40068 468.30709 L407.37294 468.35978 L407.01569 469.0587 L406.62133 469.75851 L406.59278 469.81031 L406.14911 470.56192 L405.86972 470.99913 L405.67175 471.31353 L405.16408 472.06514 L405.11811 472.12971 L404.6329 472.81675 L404.3665 473.17192 L404.0701 473.56836 L403.61489 474.14567 L403.4773 474.31997 L402.86328 475.06259 L402.85581 475.07158 L402.21029 475.82319 L402.11167 475.93414 L401.53731 476.5748 L401.36006 476.76694 L400.83815 477.32641 L400.60845 477.5672 L400.11455 478.07802 L399.85684 478.34024 L399.36838 478.82963 L399.10523 479.10115 L398.64091 479.58125 L398.35361 479.87247 L397.89948 480.33286 L397.602 480.64048 L397.17392 481.08447 L396.85039 481.43014 L396.47266 481.83608 L396.09878 482.25442 L395.80347 482.58769 L395.34717 483.13009 L395.17306 483.3393 L394.59556 484.07966 L394.58689 484.09091 L394.05623 484.84252 L393.84395 485.17306 L393.57797 485.59413 L393.15565 486.34574 L393.09234 486.47675 L392.79816 487.09735 L392.50078 487.84896 L392.34073 488.36216 L392.2679 488.60057 L392.10473 489.35218 L392.00861 490.10379 L391.98221 490.8554 L392.02785 491.60702 L392.14741 492.35863 L392.34073 493.10479 L392.34225 493.11024 L392.62874 493.86185 L392.99633 494.61346 L393.09234 494.77709 L393.47023 495.36507 L393.84395 495.86487 L394.0536 496.11668 L394.59556 496.69556 L394.77904 496.86829 L395.34717 497.35702 L395.70176 497.6199 L396.09878 497.89507 L396.85039 498.33213 L396.93366 498.37151 L397.602 498.67397 L398.35361 498.93542 L399.10523 499.11969 L399.12858 499.12312 L399.85684 499.22782 L400.60845 499.26501 L401.36006 499.2339 L402.11167 499.13753 L402.17987 499.12312 L402.86328 498.97903 L403.61489 498.76343 L404.3665 498.49566 L404.66189 498.37151 L405.11811 498.18025 L405.86972 497.82412 L406.26178 497.6199 L406.62133 497.43297 L407.37294 497.01401 L407.6209 496.86829 L408.12455 496.57279 L408.87616 496.11822 L408.87864 496.11668 L409.62777 495.65249 L410.09009 495.36507 L410.37938 495.18499 L411.13099 494.71946 L411.30403 494.61346 L411.88261 494.25779 L412.54229 493.86185 L412.63422 493.80627 L413.38583 493.36068 L413.8206 493.11024 L414.13744 492.92543 L414.88905 492.49951 L415.14545 492.35863 L415.64066 492.08166 L416.39227 491.67641 L416.52557 491.60702 L417.14388 491.27774 L417.89549 490.89445 L417.97528 490.8554 L418.6471 490.51737 L419.39871 490.15734 L419.51607 490.10379 L420.15032 489.80462 L420.90193 489.46891 L421.17854 489.35218 L421.65354 489.14366 L422.40515 488.83332 L423.00825 488.60057 L423.15676 488.54054 L423.90838 488.25932 L424.65999 488.00173 L425.15547 487.84896 L425.4116 487.76547 L426.16321 487.55024 L426.91482 487.36632 L427.66643 487.2165 L428.41804 487.10389 L428.48721 487.09735 L429.16965 487.02793 L429.92126 486.99855 L430.67287 487.02066 L431.40678 487.09735 L431.42448 487.09912 L432.17609 487.23069 L432.9277 487.42522 L433.67931 487.68839 L434.04087 487.84896 L434.43092 488.01549 L435.18253 488.40786 L435.49305 488.60057 L435.93414 488.86507 L436.6308 489.35218 L436.68576 489.38952 L437.43737 489.96914 L437.59285 490.10379 L438.18898 490.60772 L438.45357 490.8554 L438.94059 491.37313 L439.01575 491.46293" />
    <path d="M439.01575 470.42688 L438.94059 470.42721 L438.18898 470.38573 L437.43737 470.29355 L436.68576 470.14388 L435.93414 469.9288 L435.61593 469.81031 L435.18253 469.64731 L434.43092 469.29138 L434.02788 469.0587 L433.67931 468.85385 L432.9277 468.32867 L432.90053 468.30709 L432.17609 467.71645 L432.00167 467.55548 L431.42448 467.00442 L431.23466 466.80387 L430.67287 466.1848 L430.56219 466.05225 L429.9633 465.30064 L429.92126 465.24532 L429.42495 464.54903 L429.16965 464.16602 L428.93639 463.79742 L428.49289 463.04581 L428.41804 462.91085 L428.08905 462.2942 L427.723 461.54259 L427.66643 461.41803 L427.38943 460.79098 L427.08858 460.03937 L426.91482 459.56157 L426.81352 459.28776 L426.78802 459.2126 L426.81352 459.28776 L426.91482 459.56157 L427.08858 460.03937 L427.38943 460.79098 L427.66643 461.41803 L427.723 461.54259 L428.08905 462.2942 L428.41804 462.91085 L428.49289 463.04581 L428.93639 463.79742 L429.16965 464.16602 L429.42495 464.54903 L429.92126 465.24532 L429.9633 465.30064 L430.56219 466.05225 L430.67287 466.1848 L431.23466 466.80387 L431.42448 467.00442 L432.00167 467.55548 L432.17609 467.71645 L432.90053 468.30709 L432.9277 468.32867 L433.67931 468.85385 L434.02788 469.0587 L434.43092 469.29138 L435.18253 469.64731 L435.61593 469.81031 L435.93414 469.9288 L436.68576 470.14388 L437.43737 470.29355 L438.18898 470.38573 L438.94059 470.42721 L439.01575 470.42688" />
    <path d="M439.01575 462.63231 L438.94059 462.60164 L438.31734 462.2942 L438.18898 462.22773 L437.43737 461.77755 L437.09723 461.54259 L436.68576 461.24174 L436.14168 460.79098 L435.93414 460.60788 L435.35447 460.03937 L435.18253 459.85864 L434.68628 459.28776 L434.62573 459.2126 L434.68628 459.28776 L435.18253 459.85864 L435.35447 460.03937 L435.93414 460.60788 L436.14168 460.79098 L436.68576 461.24174 L437.09723 461.54259 L437.43737 461.77755 L438.18898 462.22773 L438.31734 462.2942 L438.94059 462.60164 L439.01575 462.63231" />
    <path d="M399.76831 459.2126 L399.77786 459.28776 L399.8282 460.03937 L399.83409 460.79098 L399.79625 461.54259 L399.71529 462.2942 L399.59178 463.04581 L399.42617 463.79742 L399.21883 464.54903 L399.10523 464.89203 L398.96746 465.30064 L398.67259 466.05225 L398.35361 466.76611 L398.33638 466.80387 L397.95257 467.55548 L397.602 468.17718 L397.52694 468.30709 L397.05366 469.0587 L396.85039 469.35759 L396.53423 469.81031 L396.09878 470.39308 L395.96894 470.56192 L395.3559 471.31353 L395.34717 471.32369 L394.69109 472.06514 L394.59556 472.16836 L393.97638 472.81675 L393.84395 472.95024 L393.22716 473.56836 L393.09234 473.70096 L392.43408 474.31997 L392.34073 474.40664 L391.60872 475.07158 L391.58912 475.0893 L390.83751 475.75378 L390.75716 475.82319 L390.0859 476.40612 L389.88734 476.5748 L389.33429 477.05094 L389.00739 477.32641 L388.58268 477.69211 L388.1249 478.07802 L387.83107 478.33326 L387.24727 478.82963 L387.07946 478.97792 L386.38141 479.58125 L386.32785 479.62979 L385.57623 480.29403 L385.53098 480.33286 L384.82462 480.97603 L384.70188 481.08447 L384.07301 481.68023 L383.90285 481.83608 L383.3214 482.41364 L383.13933 482.58769 L382.56979 483.18573 L382.41697 483.3393 L381.81818 484.00998 L381.74216 484.09091 L381.11754 484.84252 L381.06657 484.91285 L380.54326 485.59413 L380.31496 485.94556 L380.0366 486.34574 L379.60783 487.09735 L379.56335 487.19424 L379.48819 487.34537 L379.56335 487.19424 L379.60783 487.09735 L380.0366 486.34574 L380.31496 485.94556 L380.54326 485.59413 L381.06657 484.91285 L381.11754 484.84252 L381.74216 484.09091 L381.81818 484.00998 L382.41697 483.3393 L382.56979 483.18573 L383.13933 482.58769 L383.3214 482.41364 L383.90285 481.83608 L384.07301 481.68023 L384.70188 481.08447 L384.82462 480.97603 L385.53098 480.33286 L385.57623 480.29403 L386.32785 479.62979 L386.38141 479.58125 L387.07946 478.97792 L387.24727 478.82963 L387.83107 478.33326 L388.1249 478.07802 L388.58268 477.69211 L389.00739 477.32641 L389.33429 477.05094 L389.88734 476.5748 L390.0859 476.40612 L390.75716 475.82319 L390.83751 475.75378 L391.58912 475.0893 L391.60872 475.07158 L392.34073 474.40664 L392.43408 474.31997 L393.09234 473.70096 L393.22716 473.56836 L393.84395 472.95024 L393.97638 472.81675 L394.59556 472.16836 L394.69109 472.06514 L395.34717 471.32369 L395.3559 471.31353 L395.96894 470.56192 L396.09878 470.39308 L396.53423 469.81031 L396.85039 469.35759 L397.05366 469.0587 L397.52694 468.30709 L397.602 468.17718 L397.95257 467.55548 L398.33638 466.80387 L398.35361 466.76611 L398.67259 466.05225 L398.96746 465.30064 L399.10523 464.89203 L399.21883 464.54903 L399.42617 463.79742 L399.59178 463.04581 L399.71529 462.2942 L399.79625 461.54259 L399.83409 460.79098 L399.8282 460.03937 L399.77786 459.28776 L399.76831 459.2126" />
    <path d="M394.05989 459.2126 L394.08944 459.28776 L394.29726 460.03937 L394.42204 460.79098 L394.46944 461.54259 L394.44457 462.2942 L394.35208 463.04581 L394.19617 463.79742 L393.98067 464.54903 L393.84395 464.92384 L393.69923 465.30064 L393.35298 466.05225 L393.09234 466.54241 L392.94586 466.80387 L392.47099 467.55548 L392.34073 467.74142 L391.9233 468.30709 L391.58912 468.72382 L391.30562 469.0587 L390.83751 469.57337 L390.60952 469.81031 L390.0859 470.33109 L389.84158 470.56192 L389.33429 471.0159 L388.98473 471.31353 L388.58268 471.64497 L388.04663 472.06514 L387.83107 472.23031 L387.07946 472.7761 L387.01942 472.81675 L386.32785 473.2796 L385.87058 473.56836 L385.57623 473.75378 L384.82462 474.19409 L384.58946 474.31997 L384.07301 474.59875 L383.3214 474.97087 L383.08942 475.07158 L382.56979 475.30159 L381.81818 475.59005 L381.09259 475.82319 L381.06657 475.83181 L380.31496 476.00916 L379.56335 476.11648 L379.48819 476.11838 L379.56335 476.11648 L380.31496 476.00916 L381.06657 475.83181 L381.09259 475.82319 L381.81818 475.59005 L382.56979 475.30159 L383.08942 475.07158 L383.3214 474.97087 L384.07301 474.59875 L384.58946 474.31997 L384.82462 474.19409 L385.57623 473.75378 L385.87058 473.56836 L386.32785 473.2796 L387.01942 472.81675 L387.07946 472.7761 L387.83107 472.23031 L388.04663 472.06514 L388.58268 471.64497 L388.98473 471.31353 L389.33429 471.0159 L389.84158 470.56192 L390.0859 470.33109 L390.60952 469.81031 L390.83751 469.57337 L391.30562 469.0587 L391.58912 468.72382 L391.9233 468.30709 L392.34073 467.74142 L392.47099 467.55548 L392.94586 466.80387 L393.09234 466.54241 L393.35298 466.05225 L393.69923 465.30064 L393.84395 464.92384 L393.98067 464.54903 L394.19617 463.79742 L394.35208 463.04581 L394.44457 462.2942 L394.46944 461.54259 L394.42204 460.79098 L394.29726 460.03937 L394.08944 459.28776 L394.05989 459.2126" />
    <path d="M381.33936 459.2126 L381.25275 459.28776 L381.06657 459.45627 L380.45537 460.03937 L380.31496 460.1798 L379.73198 460.79098 L379.56335 460.97734 L379.48819 461.06397 L379.56335 460.97734 L379.73198 460.79098 L380.31496 460.1798 L380.45537 460.03937 L381.06657 459.45627 L381.25275 459.28776 L381.33936 459.2126" />
    <path d="M372.04724 451.77165 L446.45669 451.77165 L446.45669 526.1811 L372.04724 526.1811 L372.04724 451.77165" />
    <path d="M403.61489 485.19743 L403.41337 485.59413 L403.17352 486.34574 L403.15578 487.09735 L403.61489 487.84151 L403.62805 487.84896 L404.3665 488.04061 L405.11811 488.00477 L405.83813 487.84896 L405.86972 487.84135 L406.62133 487.5522 L407.37294 487.2334 L407.65353 487.09735 L408.12455 486.85175 L408.87616 486.4522 L409.0655 486.34574 L409.62777 486.00959 L410.33482 485.59413 L410.37938 485.56619 L411.13099 485.07319 L411.48624 484.84252 L411.88261 484.56818 L412.58234 484.09091 L412.63422 484.05303 L413.38583 483.49342 L413.59414 483.3393 L414.13744 482.90749 L414.54346 482.58769 L414.88905 482.29313 L415.42739 481.83608 L415.64066 481.63833 L416.23666 481.08447 L416.39227 480.92463 L416.96318 480.33286 L417.14388 480.12255 L417.60144 479.58125 L417.89549 479.18227 L418.14932 478.82963 L418.60463 478.07802 L418.6471 477.9884 L418.94683 477.32641 L419.19407 476.5748 L419.34176 475.82319 L419.37969 475.07158 L419.29581 474.31997 L419.0764 473.56836 L418.70658 472.81675 L418.6471 472.72817 L417.95318 472.06514 L417.89549 472.02273 L417.14388 471.77755 L416.39227 471.82288 L415.71184 472.06514 L415.64066 472.08981 L414.88905 472.5424 L414.54003 472.81675 L414.13744 473.11939 L413.6416 473.56836 L413.38583 473.78961 L412.85234 474.31997 L412.63422 474.52723 L412.11904 475.07158 L411.88261 475.31082 L411.4159 475.82319 L411.13099 476.12367 L410.72911 476.5748 L410.37938 476.95355 L410.05089 477.32641 L409.62777 477.7922 L409.3769 478.07802 L408.87616 478.63475 L408.70501 478.82963 L408.12455 479.47916 L408.0347 479.58125 L407.37294 480.32585 L407.36676 480.33286 L406.71839 481.08447 L406.62133 481.19858 L406.07925 481.83608 L405.86972 482.08832 L405.45302 482.58769 L405.11811 483.00355 L404.8454 483.3393 L404.3665 483.95829 L404.2682 484.09091 L403.80197 484.84252 L403.61489 485.19743 L403.61489 485.19743 L403.80197 484.84252 L404.2682 484.09091 L404.3665 483.95829 L404.8454 483.3393 L405.11811 483.00355 L405.45302 482.58769 L405.86972 482.08832 L406.07925 481.83608 L406.62133 481.19858 L406.71839 481.08447 L407.36676 480.33286 L407.37294 480.32585 L408.0347 479.58125 L408.12455 479.47916 L408.70501 478.82963 L408.87616 478.63475 L409.3769 478.07802 L409.62777 477.7922 L410.05089 477.32641 L410.37938 476.95355 L410.72911 476.5748 L411.13099 476.12367 L411.4159 475.82319 L411.88261 475.31082 L412.11904 475.07158 L412.63422 474.52723 L412.85234 474.31997 L413.38583 473.78961 L413.6416 473.56836 L414.13744 473.11939 L414.54003 472.81675 L414.88905 472.5424 L415.64066 472.08981 L415.71184 472.06514 L416.39227 471.82288 L417.14388 471.77755 L417.89549 472.02273 L417.95318 472.06514 L418.6471 472.72817 L418.70658 472.81675 L419.0764 473.56836 L419.29581 474.31997 L419.37969 475.07158 L419.34176 475.82319 L419.19407 476.5748 L418.94683 477.32641 L418.6471 477.9884 L418.60463 478.07802 L418.14932 478.82963 L417.89549 479.18227 L417.60144 479.58125 L417.14388 480.12255 L416.96318 480.33286 L416.39227 480.92463 L416.23666 481.08447 L415.64066 481.63833 L415.42739 481.83608 L414.88905 482.29313 L414.54346 482.58769 L414.13744 482.90749 L413.59414 483.3393 L413.38583 483.49342 L412.63422 484.05303 L412.58234 484.09091 L411.88261 484.56818 L411.48624 484.84252 L411.13099 485.07319 L410.37938 485.56619 L410.33482 485.59413 L409.62777 486.00959 L409.0655 486.34574 L408.87616 486.4522 L408.12455 486.85175 L407.65353 487.09735 L407.37294 487.2334 L406.62133 487.5522 L405.86972 487.84135 L405.83813 487.84896 L405.11811 488.00477 L404.3665 488.04061 L403.62805 487.84896 L403.61489 487.84151 L403.15578 487.09735 L403.17352 486.34574 L403.41337 485.59413" />
    <path d="M379.48819 505.53379 L379.56335 505.60895 L379.81888 505.88762 L380.31496 506.42669 L380.49961 506.63923 L381.06657 507.32047 L381.12196 507.39084 L381.68601 508.14245 L381.81818 508.32666 L382.20842 508.89406 L382.56979 509.44007 L382.70166 509.64567 L383.16552 510.39728 L383.3214 510.65884 L383.60756 511.14889 L384.03547 511.9005 L384.07301 511.96872 L384.44516 512.65211 L384.82462 513.35889 L384.84864 513.40372 L385.23995 514.15533 L385.57623 514.80585 L385.62881 514.90694 L386.01114 515.65855 L386.32785 516.28268 L386.39342 516.41016 L386.77323 517.16178 L387.07946 517.76721 L387.15492 517.91339 L387.53721 518.665 L387.57552 518.74016 L387.53721 518.665 L387.15492 517.91339 L387.07946 517.76721 L386.77323 517.16178 L386.39342 516.41016 L386.32785 516.28268 L386.01114 515.65855 L385.62881 514.90694 L385.57623 514.80585 L385.23995 514.15533 L384.84864 513.40372 L384.82462 513.35889 L384.44516 512.65211 L384.07301 511.96872 L384.03547 511.9005 L383.60756 511.14889 L383.3214 510.65884 L383.16552 510.39728 L382.70166 509.64567 L382.56979 509.44007 L382.20842 508.89406 L381.81818 508.32666 L381.68601 508.14245 L381.12196 507.39084 L381.06657 507.32047 L380.49961 506.63923 L380.31496 506.42669 L379.81888 505.88762 L379.56335 505.60895 L379.48819 505.53379" />
    <path d="M297.6378 228.54331 L446.45669 228.54331 L446.45669 377.3622 L297.6378 377.3622 L297.6378 228.54331" />
  </g>
</svg>