<?xml version="1.0" standalone="no"?>
<!DOCTYPE svg PUBLIC "-//W3C//DTD SVG 1.1//EN" 
    "http://www.w3.org/Graphics/SVG/1.1/DTD/svg11.dtd">
<svg width="21cm" height="29.7cm"
    xmlns="http://www.w3.org/2000/svg" version="1.1" viewBox="0 0 744.09449 1052.3622">
  <g fill="none" stroke="black" stroke-width="0.05cm" stroke-linejoin="round" stroke-linecap="round">
    <path d="M148.8189 526.1811 L297.6378 526.1811 L297.6378 675 L148.8189 675 L148.8189 526.1811" />
    <path d="M297.6378 377.3622 L446.45669 377.3622 L446.45669 526.1811 L297.6378 526.1811 L297.6378 377.3622" />
    <path d="M446.45669 526.1811 L465.05906 526.1811 L465.05906 544.78346 L446.45669 544.78346 L446.45669 526.1811" />
    <path d="M446.45669 544.78346 L465.05906 544.78346 L465.05906 563.38583 L446.45669 563.38583 L446.45669 544.78346" />
    <path d="M465.05906 535.48228 L474.36024 535.48228 L474.36024 544.78346 L465.05906 544.78346 L465.05906 535.48228" />
    <path d="M465.05906 526.1811 L474.36024 526.1811 L474.36024 535.48228 L465.05906 535.48228 L465.05906 526.1811" />
    <path d="M479.01083 535.48228 L483.66142 535.48228 L483.66142 540.13287 L479.01083 540.13287 L479.01083 535.48228" />
    <path d="M479.01083 540.13287 L483.66142 540.13287 L483.66142 544.78346 L479.01083 544.78346 L479.01083 540.13287" />
    <path d="M483.66142 526.1811 L520.86614 526.1811 L520.86614 563.38583 L483.66142 563.38583 L483.66142 526.1811" />
    <path d="M483.66142 563.38583 L520.86614 563.38583 L520.86614 600.59055 L483.66142 600.59055 L483.66142 563.38583" />
    <path d="M474.36024 600.59055 L483.66142 600.59055 L483.66142 609.89173 L474.36024 609.89173 L474.36024 600.59055" />
    <path d="M474.36024 609.89173 L483.66142 609.89173 L483.66142 619.19291 L474.36024 619.19291 L474.36024 609.89173" />
    <path d="M469.70965 609.89173 L474.36024 609.89173 L474.36024 614.54232 L469.70965 614.54232 L469.70965 609.89173" />
    <path d="M465.05906 619.19291 L474.36024 619.19291 L474.36024 628.49409 L465.05906 628.49409 L465.05906 619.19291" />
    <path d="M465.05906 628.49409 L474.36024 628.49409 L474.36024 637.79528 L465.05906 637.79528 L465.05906 628.49409" />
    <path d="M460.40846 628.49409 L465.05906 628.49409 L465.05906 633.14469 L460.40846 633.14469 L460.40846 628.49409" />
    <path d="M474.36024 619.19291 L483.66142 619.19291 L483.66142 628.49409 L474.36024 628.49409 L474.36024 619.19291" />
    <path d="M479.01083 628.49409 L483.66142 628.49409 L483.66142 633.14469 L479.01083 633.14469 L479.01083 628.49409" />
    <path d="M502.26378 637.79528 L520.86614 637.79528 L520.86614 656.39764 L502.26378 656.39764 L502.26378 637.79528" />
    <path d="M502.26378 656.39764 L506.91437 656.39764 L506.91437 661.04823 L502.26378 661.04823 L502.26378 656.39764" />
    <path d="M492.9626 656.39764 L502.26378 656.39764 L502.26378 665.69882 L492.9626 665.69882 L492.9626 656.39764" />
    <path d="M483.66142 656.39764 L492.9626 656.39764 L492.9626 665.69882 L483.66142 665.69882 L483.66142 656.39764" />
    <path d="M492.9626 670.34941 L497.61319 670.34941 L497.61319 675 L492.9626 675 L492.9626 670.34941" />
    <path d="M497.61319 670.34941 L502.26378 670.34941 L502.26378 675 L497.61319 675 L497.61319 670.34941" />
    <path d="M502.26378 670.34941 L506.91437 670.34941 L506.91437 675 L502.26378 675 L502.26378 670.34941" />
    <path d="M506.91437 665.69882 L511.56496 665.69882 L511.56496 670.34941 L506.91437 670.34941 L506.91437 665.69882" />
    <path d="M511.56496 670.34941 L516.21555 670.34941 L516.21555 675 L511.56496 675 L511.56496 670.34941" />
    <path d="M516.21555 670.34941 L520.86614 670.34941 L520.86614 675 L516.21555 675 L516.21555 670.34941" />
    <path d="M465.05906 656.39764 L483.66142 656.39764 L483.66142 675 L465.05906 675 L465.05906 656.39764" />
    <path d="M460.40846 651.74705 L465.05906 651.74705 L465.05906 656.39764 L460.40846 656.39764 L460.40846 651.74705" />
    <path d="M451.10728 661.04823 L455.75787 661.04823 L455.75787 665.69882 L451.10728 665.69882 L451.10728 661.04823" />
    <path d="M446.45669 661.04823 L451.10728 661.04823 L451.10728 665.69882 L446.45669 665.69882 L446.45669 661.04823" />
    <path d="M455.75787 670.34941 L460.40846 670.34941 L460.40846 675 L455.75787 675 L455.75787 670.34941" />
    <path d="M446.45669 637.79528 L455.75787 637.79528 L455.75787 647.09646 L446.45669 647.09646 L446.45669 637.79528" />
    <path d="M446.45669 600.59055 L465.05906 600.59055 L465.05906 619.19291 L446.45669 619.19291 L446.45669 600.59055" />
    <path d="M372.04724 675 L446.45669 675 L446.45669 749.40945 L372.04724 749.40945 L372.04724 675" />
    <path d="M372.04724 749.40945 L446.45669 749.40945 L446.45669 823.8189 L372.04724 823.8189 L372.04724 749.40945" />
    <path d="M334.84252 749.40945 L372.04724 749.40945 L372.04724 786.61417 L334.84252 786.61417 L334.84252 749.40945" />
    <path d="M330.19193 763.36122 L334.84252 763.36122 L334.84252 768.01181 L330.19193 768.01181 L330.19193 763.36122" />
    <path d="M325.54134 763.36122 L330.19193 763.36122 L330.19193 768.01181 L325.54134 768.01181 L325.54134 763.36122" />
    <path d="M316.24016 758.71063 L325.54134 758.71063 L325.54134 768.01181 L316.24016 768.01181 L316.24016 758.71063" />
    <path d="M306.93898 758.71063 L311.58957 758.71063 L311.58957 763.36122 L306.93898 763.36122 L306.93898 758.71063" />
    <path d="M297.6378 758.71063 L306.93898 758.71063 L306.93898 768.01181 L297.6378 768.01181 L297.6378 758.71063" />
    <path d="M297.6378 768.01181 L316.24016 768.01181 L316.24016 786.61417 L297.6378 786.61417 L297.6378 768.01181" />
    <path d="M316.24016 768.01181 L334.84252 768.01181 L334.84252 786.61417 L316.24016 786.61417 L316.24016 768.01181" />
    <path d="M316.24016 749.40945 L325.54134 749.40945 L325.54134 758.71063 L316.24016 758.71063 L316.24016 749.40945" />
    <path d="M325.54134 786.61417 L334.84252 786.61417 L334.84252 795.91535 L325.54134 795.91535 L325.54134 786.61417" />
    <path d="M334.84252 786.61417 L372.04724 786.61417 L372.04724 823.8189 L334.84252 823.8189 L334.84252 786.61417" />
    <path d="M316.24016 805.21654 L334.84252 805.21654 L334.84252 823.8189 L316.24016 823.8189 L316.24016 805.21654" />
    <path d="M306.93898 814.51772 L311.58957 814.51772 L311.58957 819.16831 L306.93898 819.16831 L306.93898 814.51772" />
    <path d="M297.6378 805.21654 L306.93898 805.21654 L306.93898 814.51772 L297.6378 814.51772 L297.6378 805.21654" />
    <path d="M297.6378 786.61417 L316.24016 786.61417 L316.24016 805.21654 L297.6378 805.21654 L297.6378 786.61417" />
    <path d="M558.07087 637.79528 L595.27559 637.79528 L595.27559 675 L558.07087 675 L558.07087 637.79528" />
    <path d="M558.07087 619.19291 L576.67323 619.19291 L576.67323 637.79528 L558.07087 637.79528 L558.07087 619.19291" />
    <path d="M558.07087 614.54232 L562.72146 614.54232 L562.72146 619.19291 L558.07087 619.19291 L558.07087 614.54232" />
    <path d="M567.37205 614.54232 L572.02264 614.54232 L572.02264 619.19291 L567.37205 619.19291 L567.37205 614.54232" />
    <path d="M572.02264 609.89173 L576.67323 609.89173 L576.67323 614.54232 L572.02264 614.54232 L572.02264 609.89173" />
    <path d="M576.67323 619.19291 L595.27559 619.19291 L595.27559 637.79528 L576.67323 637.79528 L576.67323 619.19291" />
    <path d="M572.02264 595.93996 L576.67323 595.93996 L576.67323 600.59055 L572.02264 600.59055 L572.02264 595.93996" />
    <path d="M572.02264 591.28937 L576.67323 591.28937 L576.67323 595.93996 L572.02264 595.93996 L572.02264 591.28937" />
    <path d="M567.37205 572.68701 L576.67323 572.68701 L576.67323 581.98819 L567.37205 581.98819 L567.37205 572.68701" />
    <path d="M562.72146 572.68701 L567.37205 572.68701 L567.37205 577.3376 L562.72146 577.3376 L562.72146 572.68701" />
    <path d="M567.37205 554.08465 L576.67323 554.08465 L576.67323 563.38583 L567.37205 563.38583 L567.37205 554.08465" />
    <path d="M572.02264 544.78346 L576.67323 544.78346 L576.67323 549.43406 L572.02264 549.43406 L572.02264 544.78346" />
    <path d="M572.02264 540.13287 L576.67323 540.13287 L576.67323 544.78346 L572.02264 544.78346 L572.02264 540.13287" />
    <path d="M567.37205 540.13287 L572.02264 540.13287 L572.02264 544.78346 L567.37205 544.78346 L567.37205 540.13287" />
    <path d="M567.37205 535.48228 L572.02264 535.48228 L572.02264 540.13287 L567.37205 540.13287 L567.37205 535.48228" />
    <path d="M558.07087 535.48228 L567.37205 535.48228 L567.37205 544.78346 L558.07087 544.78346 L558.07087 535.48228" />
    <path d="M558.07087 530.83169 L562.72146 530.83169 L562.72146 535.48228 L558.07087 535.48228 L558.07087 530.83169" />
    <path d="M567.37205 526.1811 L576.67323 526.1811 L576.67323 535.48228 L567.37205 535.48228 L567.37205 526.1811" />
    <path d="M576.67323 540.13287 L581.32382 540.13287 L581.32382 544.78346 L576.67323 544.78346 L576.67323 540.13287" />
    <path d="M581.32382 535.48228 L585.97441 535.48228 L585.97441 540.13287 L581.32382 540.13287 L581.32382 535.48228" />
    <path d="M585.97441 540.13287 L590.625 540.13287 L590.625 544.78346 L585.97441 544.78346 L585.97441 540.13287" />
    <path d="M585.97441 563.38583 L595.27559 563.38583 L595.27559 572.68701 L585.97441 572.68701 L585.97441 563.38583" />
    <path d="M548.76969 540.13287 L553.42028 540.13287 L553.42028 544.78346 L548.76969 544.78346 L548.76969 540.13287" />
  </g>
</svg>