<?xml version="1.0" standalone="no"?>
<!DOCTYPE svg PUBLIC "-//W3C//DTD SVG 1.1//EN" 
    "http://www.w3.org/Graphics/SVG/1.1/DTD/svg11.dtd">
<svg width="21cm" height="29.7cm"
    xmlns="http://www.w3.org/2000/svg" version="1.1" viewBox="0 0 744.09449 1052.3622">
  <g fill="none" stroke="black" stroke-width="0.05cm" stroke-linejoin="round" stroke-linecap="round">
    <path d="M223.22835 675 L297.6378 675 L297.6378 749.40945 L223.22835 749.40945 L223.22835 675" />
    <path d="M297.6378 600.59055 L372.04724 600.59055 L372.04724 675 L297.6378 675 L297.6378 600.59055" />
    <path d="M446.45669 526.1811 L595.27559 526.1811 L595.27559 675 L446.45669 675 L446.45669 526.1811" />
    <path d="M446.45669 377.3622 L520.86614 377.3622 L520.86614 451.77165 L446.45669 451.77165 L446.45669 377.3622" />
    <path d="M446.45669 228.54331 L595.27559 228.54331 L595.27559 377.3622 L446.45669 377.3622 L446.45669 228.54331" />
    <path d="M297.6378 302.95276 L372.04724 302.95276 L372.04724 377.3622 L297.6378 377.3622 L297.6378 302.95276" />
  </g>
</svg>