<?xml version="1.0" standalone="no"?>
<!DOCTYPE svg PUBLIC "-//W3C//DTD SVG 1.1//EN" 
    "http://www.w3.org/Graphics/SVG/1.1/DTD/svg11.dtd">
<svg width="21cm" height="29.7cm"
    xmlns="http://www.w3.org/2000/svg" version="1.1" viewBox="0 0 744.09449 1052.3622">
  <g fill="none" stroke="black" stroke-width="0.05cm" stroke-linejoin="round" stroke-linecap="round">
    <path d="M372.04724 600.59055 L446.45669 600.59055 L446.45669 675 L372.04724 675 L372.04724 600.59055" />
    <path d="M379.48819 615.57088 L379.56335 615.56659 L380.31496 615.46001 L381.06657 615.28968 L381.81818 615.05588 L382.288 614.87115 L382.56979 614.75621 L383.3214 614.38777 L383.79062 614.11954 L384.07301 613.95128 L384.82462 613.44121 L384.92137 613.36793 L385.57623 612.84607 L385.83711 612.61632 L386.32785 612.15834 L386.61656 611.86471 L387.07946 611.36335 L387.2945 611.1131 L387.83107 610.44628 L387.89545 610.36149 L388.4312 609.60988 L388.58268 609.3827 L388.91792 608.85827 L389.33429 608.16205 L389.36644 608.10666 L389.40752 608.0315 L389.36644 608.10666 L389.33429 608.16205 L388.91792 608.85827 L388.58268 609.3827 L388.4312 609.60988 L387.89545 610.36149 L387.83107 610.44628 L387.2945 611.1131 L387.07946 611.36335 L386.61656 611.86471 L386.32785 612.15834 L385.83711 612.61632 L385.57623 612.84607 L384.92137 613.36793 L384.82462 613.44121 L384.07301 613.95128 L383.79062 614.11954 L383.3214 614.38777 L382.56979 614.75621 L382.288 614.87115 L381.81818 615.05588 L381.06657 615.28968 L380.31496 615.46001 L379.56335 615.56659 L379.48819 615.57088" />
    <path d="M379.48819 622.01617 L379.56335 622.0189 L380.31496 621.99283 L381.06657 621.91252 L381.81818 621.77761 L382.38321 621.63565 L382.56979 621.58784 L383.3214 621.34273 L384.07301 621.04489 L384.42172 620.88404 L384.82462 620.69436 L385.57623 620.2935 L385.84899 620.13243 L386.32785 619.84341 L387.03039 619.38082 L387.07946 619.34772 L387.83107 618.80425 L388.05877 618.62921 L388.58268 618.2145 L388.98577 617.87759 L389.33429 617.57579 L389.829 617.12598 L390.0859 616.88234 L390.59892 616.37437 L390.83751 616.12653 L391.3053 615.62276 L391.58912 615.30104 L391.95797 614.87115 L392.34073 614.40108 L392.56568 614.11954 L393.09234 613.42564 L393.13572 613.36793 L393.67531 612.61632 L393.84395 612.37009 L394.19081 611.86471 L394.59556 611.24901 L394.68593 611.1131 L395.16765 610.36149 L395.34717 610.07132 L395.63939 609.60988 L396.09878 608.86271 L396.1016 608.85827 L396.56644 608.10666 L396.61191 608.0315 L396.56644 608.10666 L396.1016 608.85827 L396.09878 608.86271 L395.63939 609.60988 L395.34717 610.07132 L395.16765 610.36149 L394.68593 611.1131 L394.59556 611.24901 L394.19081 611.86471 L393.84395 612.37009 L393.67531 612.61632 L393.13572 613.36793 L393.09234 613.42564 L392.56568 614.11954 L392.34073 614.40108 L391.95797 614.87115 L391.58912 615.30104 L391.3053 615.62276 L390.83751 616.12653 L390.59892 616.37437 L390.0859 616.88234 L389.829 617.12598 L389.33429 617.57579 L388.98577 617.87759 L388.58268 618.2145 L388.05877 618.62921 L387.83107 618.80425 L387.07946 619.34772 L387.03039 619.38082 L386.32785 619.84341 L385.84899 620.13243 L385.57623 620.2935 L384.82462 620.69436 L384.42172 620.88404 L384.07301 621.04489 L383.3214 621.34273 L382.56979 621.58784 L382.38321 621.63565 L381.81818 621.77761 L381.06657 621.91252 L380.31496 621.99283 L379.56335 622.0189 L379.48819 622.01617" />
    <path d="M379.48819 628.07436 L379.56335 628.08367 L380.31496 628.12471 L381.06657 628.11249 L381.81818 628.04606 L382.56979 627.92491 L383.3214 627.74904 L383.65176 627.64853 L384.07301 627.52044 L384.82462 627.24054 L385.57623 626.91017 L385.6028 626.89692 L386.32785 626.53486 L387.02655 626.14531 L387.07946 626.11572 L387.83107 625.65874 L388.237 625.3937 L388.58268 625.167 L389.33429 624.64549 L389.33898 624.64209 L390.0859 624.09829 L390.36173 623.89048 L390.83751 623.52874 L391.33693 623.13887 L391.58912 622.9394 L392.27229 622.38726 L392.34073 622.33092 L393.09234 621.70127 L393.16964 621.63565 L393.84395 621.04832 L394.03046 620.88404 L394.59556 620.37029 L394.85505 620.13243 L395.34717 619.66417 L395.64362 619.38082 L396.09878 618.9276 L396.39867 618.62921 L396.85039 618.16043 L397.12487 617.87759 L397.602 617.36532 L397.82809 617.12598 L398.35361 616.54794 L398.51485 616.37437 L399.10523 615.71686 L399.19223 615.62276 L399.85684 614.88305 L399.86793 614.87115 L400.55312 614.11954 L400.60845 614.05763 L401.25536 613.36793 L401.36006 613.25477 L401.98505 612.61632 L402.11167 612.48596 L402.75519 611.86471 L402.86328 611.76008 L403.58161 611.1131 L403.61489 611.08317 L404.3665 610.4575 L404.49165 610.36149 L405.11811 609.88399 L405.51086 609.60988 L405.86972 609.36144 L406.62133 608.88672 L406.6703 608.85827 L407.37294 608.45363 L407.82808 608.10666 L407.92601 608.0315 L407.82808 608.10666 L407.37294 608.45363 L406.6703 608.85827 L406.62133 608.88672 L405.86972 609.36144 L405.51086 609.60988 L405.11811 609.88399 L404.49165 610.36149 L404.3665 610.4575 L403.61489 611.08317 L403.58161 611.1131 L402.86328 611.76008 L402.75519 611.86471 L402.11167 612.48596 L401.98505 612.61632 L401.36006 613.25477 L401.25536 613.36793 L400.60845 614.05763 L400.55312 614.11954 L399.86793 614.87115 L399.85684 614.88305 L399.19223 615.62276 L399.10523 615.71686 L398.51485 616.37437 L398.35361 616.54794 L397.82809 617.12598 L397.602 617.36532 L397.12487 617.87759 L396.85039 618.16043 L396.39867 618.62921 L396.09878 618.9276 L395.64362 619.38082 L395.34717 619.66417 L394.85505 620.13243 L394.59556 620.37029 L394.03046 620.88404 L393.84395 621.04832 L393.16964 621.63565 L393.09234 621.70127 L392.34073 622.33092 L392.27229 622.38726 L391.58912 622.9394 L391.33693 623.13887 L390.83751 623.52874 L390.36173 623.89048 L390.0859 624.09829 L389.33898 624.64209 L389.33429 624.64549 L388.58268 625.167 L388.237 625.3937 L387.83107 625.65874 L387.07946 626.11572 L387.02655 626.14531 L386.32785 626.53486 L385.6028 626.89692 L385.57623 626.91017 L384.82462 627.24054 L384.07301 627.52044 L383.65176 627.64853 L383.3214 627.74904 L382.56979 627.92491 L381.81818 628.04606 L381.06657 628.11249 L380.31496 628.12471 L379.56335 628.08367 L379.48819 628.07436" />
    <path d="M379.48819 635.0152 L379.56335 635.03226 L380.31496 635.14021 L380.73205 635.16464 L381.06657 635.18521 L381.78021 635.16464 L381.81818 635.16359 L382.56979 635.07731 L383.3214 634.92517 L384.07301 634.70731 L384.82462 634.42456 L384.8496 634.41303 L385.57623 634.09047 L386.32785 633.69766 L386.38887 633.66142 L387.07946 633.26224 L387.62654 632.90981 L387.83107 632.78115 L388.58268 632.26566 L388.72877 632.1582 L389.33429 631.72232 L389.74904 631.40659 L390.0859 631.155 L390.72771 630.65497 L390.83751 630.57086 L391.58912 629.97763 L391.68137 629.90336 L392.34073 629.38047 L392.62608 629.15175 L393.09234 628.78253 L393.57382 628.40014 L393.84395 628.18746 L394.53009 627.64853 L394.59556 627.59733 L395.34717 627.01294 L395.49775 626.89692 L396.09878 626.4329 L396.47527 626.14531 L396.85039 625.85672 L397.45976 625.3937 L397.602 625.28428 L398.35361 624.71477 L398.45133 624.64209 L399.10523 624.14666 L399.44975 623.89048 L399.85684 623.5805 L400.44867 623.13887 L400.60845 623.01616 L401.36006 622.4523 L401.44918 622.38726 L402.11167 621.88808 L402.45644 621.63565 L402.86328 621.328 L403.47008 620.88404 L403.61489 620.77479 L404.3665 620.22969 L404.50591 620.13243 L405.11811 619.69335 L405.57147 619.38082 L405.86972 619.17056 L406.62133 618.65734 L406.66363 618.62921 L407.37294 618.149 L407.77886 617.87759 L408.12455 617.64348 L408.87616 617.13463 L408.88881 617.12598 L409.62777 616.617 L409.97047 616.37437 L410.37938 616.08411 L411.00392 615.62276 L411.13099 615.52908 L411.88261 614.94708 L411.97505 614.87115 L412.63422 614.3335 L412.87957 614.11954 L413.38583 613.68277 L413.72579 613.36793 L414.13744 612.99199 L414.51987 612.61632 L414.88905 612.25961 L415.2689 611.86471 L415.64066 611.48526 L415.97989 611.1131 L416.39227 610.66945 L416.65915 610.36149 L417.14388 609.81326 L417.31201 609.60988 L417.89549 608.91805 L417.94279 608.85827 L418.54924 608.10666 L418.61093 608.0315 L418.54924 608.10666 L417.94279 608.85827 L417.89549 608.91805 L417.31201 609.60988 L417.14388 609.81326 L416.65915 610.36149 L416.39227 610.66945 L415.97989 611.1131 L415.64066 611.48526 L415.2689 611.86471 L414.88905 612.25961 L414.51987 612.61632 L414.13744 612.99199 L413.72579 613.36793 L413.38583 613.68277 L412.87957 614.11954 L412.63422 614.3335 L411.97505 614.87115 L411.88261 614.94708 L411.13099 615.52908 L411.00392 615.62276 L410.37938 616.08411 L409.97047 616.37437 L409.62777 616.617 L408.88881 617.12598 L408.87616 617.13463 L408.12455 617.64348 L407.77886 617.87759 L407.37294 618.149 L406.66363 618.62921 L406.62133 618.65734 L405.86972 619.17056 L405.57147 619.38082 L405.11811 619.69335 L404.50591 620.13243 L404.3665 620.22969 L403.61489 620.77479 L403.47008 620.88404 L402.86328 621.328 L402.45644 621.63565 L402.11167 621.88808 L401.44918 622.38726 L401.36006 622.4523 L400.60845 623.01616 L400.44867 623.13887 L399.85684 623.5805 L399.44975 623.89048 L399.10523 624.14666 L398.45133 624.64209 L398.35361 624.71477 L397.602 625.28428 L397.45976 625.3937 L396.85039 625.85672 L396.47527 626.14531 L396.09878 626.4329 L395.49775 626.89692 L395.34717 627.01294 L394.59556 627.59733 L394.53009 627.64853 L393.84395 628.18746 L393.57382 628.40014 L393.09234 628.78253 L392.62608 629.15175 L392.34073 629.38047 L391.68137 629.90336 L391.58912 629.97763 L390.83751 630.57086 L390.72771 630.65497 L390.0859 631.155 L389.74904 631.40659 L389.33429 631.72232 L388.72877 632.1582 L388.58268 632.26566 L387.83107 632.78115 L387.62654 632.90981 L387.07946 633.26224 L386.38887 633.66142 L386.32785 633.69766 L385.57623 634.09047 L384.8496 634.41303 L384.82462 634.42456 L384.07301 634.70731 L383.3214 634.92517 L382.56979 635.07731 L381.81818 635.16359 L381.78021 635.16464 L381.06657 635.18521 L380.73205 635.16464 L380.31496 635.14021 L379.56335 635.03226 L379.48819 635.0152" />
    <path d="M390.83751 640.72828 L390.65502 641.17752 L390.44293 641.92913 L390.32868 642.68074 L390.31816 643.43236 L390.41686 644.18397 L390.62981 644.93558 L390.83751 645.40922 L390.95699 645.68719 L391.39411 646.4388 L391.58912 646.70487 L391.94144 647.19041 L392.34073 647.64848 L392.59658 647.94202 L393.09234 648.43311 L393.35784 648.69363 L393.84395 649.11684 L394.22833 649.44524 L394.59556 649.72966 L395.21593 650.19685 L395.34717 650.28805 L396.09878 650.79258 L396.34196 650.94846 L396.85039 651.25431 L397.602 651.68633 L397.62719 651.70007 L398.35361 652.07908 L399.10523 652.44883 L399.11141 652.45168 L399.85684 652.78676 L400.60845 653.10663 L400.84984 653.20329 L401.36006 653.40556 L402.11167 653.68797 L402.85677 653.9549 L402.86328 653.95726 L403.61489 654.21175 L404.3665 654.45558 L405.11811 654.68937 L405.17764 654.70651 L405.86972 654.91396 L406.62133 655.12969 L407.37294 655.33635 L407.84772 655.45812 L408.12455 655.53474 L408.87616 655.72523 L409.62777 655.904 L410.37938 656.06808 L411.11739 656.20974 L411.13099 656.21278 L411.88261 656.33755 L412.63422 656.42226 L413.38583 656.44169 L414.13744 656.34488 L414.49568 656.20974 L414.88905 656.0436 L415.54735 655.45812 L415.64066 655.36366 L416.06828 654.70651 L416.39227 654.13158 L416.46706 653.9549 L416.78561 653.20329 L417.0779 652.45168 L417.14388 652.28134 L417.33577 651.70007 L417.57762 650.94846 L417.81033 650.19685 L417.89549 649.92036 L418.02797 649.44524 L418.23582 648.69363 L418.43888 647.94202 L418.6471 647.26457 L418.66885 647.19041 L418.86852 646.4388 L419.07671 645.68719 L419.29429 644.93558 L419.39871 644.58912 L419.52114 644.18397 L419.76013 643.43236 L420.01513 642.68074 L420.15032 642.30329 L420.28992 641.92913 L420.59044 641.17752 L420.90193 640.47073 L420.92323 640.42591 L421.30542 639.6743 L421.65354 639.07108 L421.75016 638.92269 L422.29675 638.17108 L422.40515 638.03782 L423.0136 637.41947 L423.15676 637.2911 L423.90838 636.75987 L424.07921 636.66786 L424.65999 636.38727 L425.4116 636.13382 L426.16321 635.96893 L426.54851 635.91625 L426.91482 635.87027 L427.66643 635.82235 L428.41804 635.81353 L429.16965 635.83478 L429.92126 635.87913 L430.35975 635.91625 L430.67287 635.94108 L431.42448 636.01621 L432.17609 636.10103 L432.9277 636.19256 L433.67931 636.2883 L434.43092 636.38609 L435.18253 636.48405 L435.93414 636.58052 L436.63447 636.66786 L436.68576 636.67402 L437.43737 636.76305 L438.18898 636.84642 L438.94059 636.92302 L439.01575 636.9299 L438.94059 636.92302 L438.18898 636.84642 L437.43737 636.76305 L436.68576 636.67402 L436.63447 636.66786 L435.93414 636.58052 L435.18253 636.48405 L434.43092 636.38609 L433.67931 636.2883 L432.9277 636.19256 L432.17609 636.10103 L431.42448 636.01621 L430.67287 635.94108 L430.35975 635.91625 L429.92126 635.87913 L429.16965 635.83478 L428.41804 635.81353 L427.66643 635.82235 L426.91482 635.87027 L426.54851 635.91625 L426.16321 635.96893 L425.4116 636.13382 L424.65999 636.38727 L424.07921 636.66786 L423.90838 636.75987 L423.15676 637.2911 L423.0136 637.41947 L422.40515 638.03782 L422.29675 638.17108 L421.75016 638.92269 L421.65354 639.07108 L421.30542 639.6743 L420.92323 640.42591 L420.90193 640.47073 L420.59044 641.17752 L420.28992 641.92913 L420.15032 642.30329 L420.01513 642.68074 L419.76013 643.43236 L419.52114 644.18397 L419.39871 644.58912 L419.29429 644.93558 L419.07671 645.68719 L418.86852 646.4388 L418.66885 647.19041 L418.6471 647.26457 L418.43888 647.94202 L418.23582 648.69363 L418.02797 649.44524 L417.89549 649.92036 L417.81033 650.19685 L417.57762 650.94846 L417.33577 651.70007 L417.14388 652.28134 L417.0779 652.45168 L416.78561 653.20329 L416.46706 653.9549 L416.39227 654.13158 L416.06828 654.70651 L415.64066 655.36366 L415.54735 655.45812 L414.88905 656.0436 L414.49568 656.20974 L414.13744 656.34488 L413.38583 656.44169 L412.63422 656.42226 L411.88261 656.33755 L411.13099 656.21278 L411.11739 656.20974 L410.37938 656.06808 L409.62777 655.904 L408.87616 655.72523 L408.12455 655.53474 L407.84772 655.45812 L407.37294 655.33635 L406.62133 655.12969 L405.86972 654.91396 L405.17764 654.70651 L405.11811 654.68937 L404.3665 654.45558 L403.61489 654.21175 L402.86328 653.95726 L402.85677 653.9549 L402.11167 653.68797 L401.36006 653.40556 L400.84984 653.20329 L400.60845 653.10663 L399.85684 652.78676 L399.11141 652.45168 L399.10523 652.44883 L398.35361 652.07908 L397.62719 651.70007 L397.602 651.68633 L396.85039 651.25431 L396.34196 650.94846 L396.09878 650.79258 L395.34717 650.28805 L395.21593 650.19685 L394.59556 649.72966 L394.22833 649.44524 L393.84395 649.11684 L393.35784 648.69363 L393.09234 648.43311 L392.59658 647.94202 L392.34073 647.64848 L391.94144 647.19041 L391.58912 646.70487 L391.39411 646.4388 L390.95699 645.68719 L390.83751 645.40922 L390.62981 644.93558 L390.41686 644.18397 L390.31816 643.43236 L390.32868 642.68074 L390.44293 641.92913 L390.65502 641.17752 L390.83751 640.72828 L390.95491 640.42591 L391.33174 639.6743 L391.58912 639.24954 L391.78106 638.92269 L392.29386 638.17108 L392.34073 638.11036 L392.86404 637.41947 L393.09234 637.14652 L393.48939 636.66786 L393.84395 636.27433 L394.16707 635.91625 L394.59556 635.473 L394.89677 635.16464 L395.34717 634.72919 L395.68013 634.41303 L396.09878 634.03382 L396.51985 633.66142 L396.85039 633.38013 L397.41849 632.90981 L397.602 632.76255 L398.35361 632.17762 L398.37953 632.1582 L399.10523 631.62733 L399.4184 631.40659 L399.85684 631.10322 L400.53072 630.65497 L400.60845 630.60393 L401.36006 630.13402 L401.74719 629.90336 L402.11167 629.68752 L402.86328 629.26557 L403.07938 629.15175 L403.61489 628.86949 L404.3665 628.49693 L404.57794 628.40014 L405.11811 628.15096 L405.86972 627.83017 L406.33435 627.64853 L406.62133 627.53456 L407.37294 627.26359 L408.12455 627.01231 L408.5004 626.89692 L408.87616 626.77803 L409.62777 626.55574 L410.37938 626.33794 L411.03806 626.14531 L411.13099 626.1168 L411.88261 625.88393 L412.63422 625.62477 L413.21777 625.3937 L413.38583 625.32259 L414.13744 624.95728 L414.66333 624.64209 L414.88905 624.49583 L415.64066 623.8986 L415.64919 623.89048 L416.37412 623.13887 L416.39227 623.11859 L416.94677 622.38726 L417.14388 622.10827 L417.43178 621.63565 L417.8648 620.88404 L417.89549 620.83075 L418.25114 620.13243 L418.62335 619.38082 L418.6471 619.33433 L418.9719 618.62921 L419.32013 617.87759 L419.39871 617.71516 L419.6596 617.12598 L420.0032 616.37437 L420.15032 616.06731 L420.34771 615.62276 L420.69737 614.87115 L420.90193 614.45173 L421.05367 614.11954 L421.41521 613.36793 L421.65354 612.89473 L421.78606 612.61632 L422.16225 611.86471 L422.40515 611.40001 L422.54801 611.1131 L422.93947 610.36149 L423.15676 609.96041 L423.33896 609.60988 L423.74462 608.85827 L423.90838 608.56504 L424.15553 608.10666 L424.19727 608.0315 L424.15553 608.10666 L423.90838 608.56504 L423.74462 608.85827 L423.33896 609.60988 L423.15676 609.96041 L422.93947 610.36149 L422.54801 611.1131 L422.40515 611.40001 L422.16225 611.86471 L421.78606 612.61632 L421.65354 612.89473 L421.41521 613.36793 L421.05367 614.11954 L420.90193 614.45173 L420.69737 614.87115 L420.34771 615.62276 L420.15032 616.06731 L420.0032 616.37437 L419.6596 617.12598 L419.39871 617.71516 L419.32013 617.87759 L418.9719 618.62921 L418.6471 619.33433 L418.62335 619.38082 L418.25114 620.13243 L417.89549 620.83075 L417.8648 620.88404 L417.43178 621.63565 L417.14388 622.10827 L416.94677 622.38726 L416.39227 623.11859 L416.37412 623.13887 L415.64919 623.89048 L415.64066 623.8986 L414.88905 624.49583 L414.66333 624.64209 L414.13744 624.95728 L413.38583 625.32259 L413.21777 625.3937 L412.63422 625.62477 L411.88261 625.88393 L411.13099 626.1168 L411.03806 626.14531 L410.37938 626.33794 L409.62777 626.55574 L408.87616 626.77803 L408.5004 626.89692 L408.12455 627.01231 L407.37294 627.26359 L406.62133 627.53456 L406.33435 627.64853 L405.86972 627.83017 L405.11811 628.15096 L404.57794 628.40014 L404.3665 628.49693 L403.61489 628.86949 L403.07938 629.15175 L402.86328 629.26557 L402.11167 629.68752 L401.74719 629.90336 L401.36006 630.13402 L400.60845 630.60393 L400.53072 630.65497 L399.85684 631.10322 L399.4184 631.40659 L399.10523 631.62733 L398.37953 632.1582 L398.35361 632.17762 L397.602 632.76255 L397.41849 632.90981 L396.85039 633.38013 L396.51985 633.66142 L396.09878 634.03382 L395.68013 634.41303 L395.34717 634.72919 L394.89677 635.16464 L394.59556 635.473 L394.16707 635.91625 L393.84395 636.27433 L393.48939 636.66786 L393.09234 637.14652 L392.86404 637.41947 L392.34073 638.11036 L392.29386 638.17108 L391.78106 638.92269 L391.58912 639.24954 L391.33174 639.6743 L390.95491 640.42591 L390.83751 640.72828" />
    <path d="M379.48819 653.60352 L379.56335 653.57708 L380.31496 653.36245 L381.05376 653.20329 L381.06657 653.20048 L381.81818 653.09009 L382.56979 653.03631 L383.3214 653.03845 L384.07301 653.0948 L384.82462 653.20277 L384.82711 653.20329 L385.57623 653.35514 L386.32785 653.5509 L387.07946 653.78587 L387.54762 653.9549 L387.83107 654.05425 L388.58268 654.35012 L389.33429 654.67109 L389.41116 654.70651 L390.0859 655.01164 L390.83751 655.36785 L391.01997 655.45812 L391.58912 655.73733 L392.34073 656.11444 L392.52713 656.20974 L393.09234 656.49915 L393.84395 656.88441 L393.9942 656.96135 L394.59556 657.27287 L395.34717 657.65522 L395.4583 657.71296 L396.09878 658.05627 L396.85039 658.45457 L396.86943 658.46457 L397.602 658.86522 L398.24655 659.21618 L398.35361 659.27784 L399.10523 659.71322 L399.53885 659.96779 L399.85684 660.16941 L400.60845 660.65768 L400.70099 660.7194 L401.36006 661.20664 L401.70316 661.47101 L402.11167 661.82913 L402.53884 662.22262 L402.86328 662.57429 L403.21234 662.97423 L403.61489 663.54278 L403.73703 663.72584 L404.12465 664.47745 L404.3665 665.14614 L404.3947 665.22906 L404.55318 665.98067 L404.61572 666.73228 L404.5898 667.48389 L404.57895 667.55906 L404.5898 667.48389 L404.61572 666.73228 L404.55318 665.98067 L404.3947 665.22906 L404.3665 665.14614 L404.12465 664.47745 L403.73703 663.72584 L403.61489 663.54278 L403.21234 662.97423 L402.86328 662.57429 L402.53884 662.22262 L402.11167 661.82913 L401.70316 661.47101 L401.36006 661.20664 L400.70099 660.7194 L400.60845 660.65768 L399.85684 660.16941 L399.53885 659.96779 L399.10523 659.71322 L398.35361 659.27784 L398.24655 659.21618 L397.602 658.86522 L396.86943 658.46457 L396.85039 658.45457 L396.09878 658.05627 L395.4583 657.71296 L395.34717 657.65522 L394.59556 657.27287 L393.9942 656.96135 L393.84395 656.88441 L393.09234 656.49915 L392.52713 656.20974 L392.34073 656.11444 L391.58912 655.73733 L391.01997 655.45812 L390.83751 655.36785 L390.0859 655.01164 L389.41116 654.70651 L389.33429 654.67109 L388.58268 654.35012 L387.83107 654.05425 L387.54762 653.9549 L387.07946 653.78587 L386.32785 653.5509 L385.57623 653.35514 L384.82711 653.20329 L384.82462 653.20277 L384.07301 653.0948 L383.3214 653.03845 L382.56979 653.03631 L381.81818 653.09009 L381.06657 653.20048 L381.05376 653.20329 L380.31496 653.36245 L379.56335 653.57708 L379.48819 653.60352" />
    <path d="M412.81056 667.55906 L412.84792 667.48389 L413.20548 666.73228 L413.38583 666.3323 L413.56023 665.98067 L413.91479 665.22906 L414.13744 664.73615 L414.27158 664.47745 L414.64048 663.72584 L414.88905 663.20686 L415.02584 662.97423 L415.4542 662.22262 L415.64066 661.8916 L415.97329 661.47101 L416.39227 660.96875 L416.75074 660.7194 L417.14388 660.46098 L417.89549 660.25316 L418.6471 660.22475 L419.39871 660.29844 L420.15032 660.43822 L420.90193 660.62544 L421.19832 660.7194 L421.65354 660.8393 L422.40515 661.07668 L423.15676 661.34261 L423.4746 661.47101 L423.90838 661.6255 L424.65999 661.92667 L425.33602 662.22262 L425.4116 662.25262 L426.16321 662.59013 L426.91482 662.9551 L426.9503 662.97423 L427.66643 663.3336 L428.39003 663.72584 L428.41804 663.74011 L429.16965 664.16269 L429.68796 664.47745 L429.92126 664.6122 L430.67287 665.08328 L430.88847 665.22906 L431.42448 665.57633 L432.00757 665.98067 L432.17609 666.09305 L432.9277 666.62869 L433.06439 666.73228 L433.67931 667.18219 L434.06952 667.48389 L434.16989 667.55906 L434.06952 667.48389 L433.67931 667.18219 L433.06439 666.73228 L432.9277 666.62869 L432.17609 666.09305 L432.00757 665.98067 L431.42448 665.57633 L430.88847 665.22906 L430.67287 665.08328 L429.92126 664.6122 L429.68796 664.47745 L429.16965 664.16269 L428.41804 663.74011 L428.39003 663.72584 L427.66643 663.3336 L426.9503 662.97423 L426.91482 662.9551 L426.16321 662.59013 L425.4116 662.25262 L425.33602 662.22262 L424.65999 661.92667 L423.90838 661.6255 L423.4746 661.47101 L423.15676 661.34261 L422.40515 661.07668 L421.65354 660.8393 L421.19832 660.7194 L420.90193 660.62544 L420.15032 660.43822 L419.39871 660.29844 L418.6471 660.22475 L417.89549 660.25316 L417.14388 660.46098 L416.75074 660.7194 L416.39227 660.96875 L415.97329 661.47101 L415.64066 661.8916 L415.4542 662.22262 L415.02584 662.97423 L414.88905 663.20686 L414.64048 663.72584 L414.27158 664.47745 L414.13744 664.73615 L413.91479 665.22906 L413.56023 665.98067 L413.38583 666.3323 L413.20548 666.73228 L412.84792 667.48389 L412.81056 667.55906" />
    <path d="M426.91482 647.49251 L426.77294 647.94202 L426.59982 648.69363 L426.48922 649.44524 L426.43877 650.19685 L426.4476 650.94846 L426.5162 651.70007 L426.64638 652.45168 L426.84121 653.20329 L426.91482 653.41485 L427.10015 653.9549 L427.4274 654.70651 L427.66643 655.15527 L427.82461 655.45812 L428.28978 656.20974 L428.41804 656.38847 L428.81815 656.96135 L429.16965 657.40306 L429.4083 657.71296 L429.92126 658.30833 L430.05082 658.46457 L430.67287 659.14532 L430.73488 659.21618 L431.42448 659.94046 L431.4493 659.96779 L432.17609 660.71126 L432.18366 660.7194 L432.9277 661.46943 L432.92919 661.47101 L433.67931 662.22241 L433.67951 662.22262 L434.43092 662.97418 L435.18253 663.72583 L435.93414 664.47745 L436.68576 665.22906 L439.01575 667.55906 L436.68576 665.22906 L435.93414 664.47745 L435.18254 663.72584 L434.43097 662.97423 L433.67951 662.22262 L433.67931 662.22241 L432.92919 661.47101 L432.9277 661.46943 L432.18366 660.7194 L432.17609 660.71126 L431.4493 659.96779 L431.42448 659.94046 L430.73488 659.21618 L430.67287 659.14532 L430.05082 658.46457 L429.92126 658.30833 L429.4083 657.71296 L429.16965 657.40306 L428.81815 656.96135 L428.41804 656.38847 L428.28978 656.20974 L427.82461 655.45812 L427.66643 655.15527 L427.4274 654.70651 L427.10015 653.9549 L426.91482 653.41485 L426.84121 653.20329 L426.64638 652.45168 L426.5162 651.70007 L426.4476 650.94846 L426.43877 650.19685 L426.48922 649.44524 L426.59982 648.69363 L426.77294 647.94202 L426.91482 647.49251 L427.01405 647.19041 L427.33286 646.4388 L427.66643 645.81573 L427.7401 645.68719 L428.26244 644.93558 L428.41804 644.74779 L428.93555 644.18397 L429.16965 643.96691 L429.82491 643.43236 L429.92126 643.36416 L430.67287 642.89582 L431.07868 642.68074 L431.42448 642.51837 L432.17609 642.21631 L432.9277 641.96688 L433.05951 641.92913 L433.67931 641.76821 L434.43092 641.60507 L435.18253 641.46967 L435.93414 641.35675 L436.68576 641.26178 L437.43737 641.18086 L437.47178 641.17752 L438.18898 641.1124 L438.94059 641.05138 L439.01575 641.04577 L438.94059 641.05138 L438.18898 641.1124 L437.47178 641.17752 L437.43737 641.18086 L436.68576 641.26178 L435.93414 641.35675 L435.18253 641.46967 L434.43092 641.60507 L433.67931 641.76821 L433.05951 641.92913 L432.9277 641.96688 L432.17609 642.21631 L431.42448 642.51837 L431.07868 642.68074 L430.67287 642.89582 L429.92126 643.36416 L429.82491 643.43236 L429.16965 643.96691 L428.93555 644.18397 L428.41804 644.74779 L428.26244 644.93558 L427.7401 645.68719 L427.66643 645.81573 L427.33286 646.4388 L427.01405 647.19041 L426.91482 647.49251" />
    <path d="M434.43092 649.86671 L434.29457 650.19685 L434.09083 650.94846 L433.9876 651.70007 L433.97266 652.45168 L434.03637 653.20329 L434.17109 653.9549 L434.37069 654.70651 L434.43092 654.87756 L434.62621 655.45812 L434.93375 656.20974 L435.18253 656.72984 L435.28813 656.96135 L435.68058 657.71296 L435.93414 658.14888 L436.10929 658.46457 L436.56813 659.21618 L436.68576 659.3928 L437.05201 659.96779 L437.43737 660.52987 L437.5621 660.7194 L438.09326 661.47101 L438.18898 661.5979 L438.64351 662.22262 L438.94059 662.60806 L439.01575 662.70882 L438.94059 662.60806 L438.64351 662.22262 L438.18898 661.5979 L438.09326 661.47101 L437.5621 660.7194 L437.43737 660.52987 L437.05201 659.96779 L436.68576 659.3928 L436.56813 659.21618 L436.10929 658.46457 L435.93414 658.14888 L435.68058 657.71296 L435.28813 656.96135 L435.18253 656.72984 L434.93375 656.20974 L434.62621 655.45812 L434.43092 654.87756 L434.37069 654.70651 L434.17109 653.9549 L434.03637 653.20329 L433.97266 652.45168 L433.9876 651.70007 L434.09083 650.94846 L434.29457 650.19685 L434.43092 649.86671 L434.61593 649.44524 L435.07866 648.69363 L435.18253 648.56299 L435.71963 647.94202 L435.93414 647.74335 L436.59289 647.19041 L436.68576 647.12537 L437.43737 646.64223 L437.7893 646.4388 L438.18898 646.23866 L438.94059 645.8965 L439.01575 645.86548 L438.94059 645.8965 L438.18898 646.23866 L437.7893 646.4388 L437.43737 646.64223 L436.68576 647.12537 L436.59289 647.19041 L435.93414 647.74335 L435.71963 647.94202 L435.18253 648.56299 L435.07866 648.69363 L434.61593 649.44524 L434.43092 649.86671" />
    <path d="M439.01575 632.76998 L438.94059 632.75134 L438.18898 632.54525 L437.43737 632.31864 L436.94503 632.1582 L436.68576 632.06874 L435.93414 631.79255 L435.18253 631.49347 L434.97475 631.40659 L434.43092 631.16307 L433.67931 630.80334 L433.38446 630.65497 L432.9277 630.4062 L432.17609 629.97025 L432.06505 629.90336 L431.42448 629.48027 L430.95597 629.15175 L430.67287 628.93196 L430.02306 628.40014 L429.92126 628.30688 L429.23517 627.64853 L429.16965 627.57729 L428.5688 626.89692 L428.41804 626.70068 L428.0061 626.14531 L427.66643 625.60975 L427.53346 625.3937 L427.13295 624.64209 L426.91482 624.13329 L426.81346 623.89048 L426.54775 623.13887 L426.33579 622.38726 L426.17235 621.63565 L426.16321 621.58005 L426.05041 620.88404 L425.97066 620.13243 L425.93025 619.38082 L425.92659 618.62921 L425.9575 617.87759 L426.02112 617.12598 L426.1158 616.37437 L426.16321 616.09204 L426.23878 615.62276 L426.38886 614.87115 L426.56568 614.11954 L426.76805 613.36793 L426.91482 612.88428 L426.99388 612.61632 L427.24102 611.86471 L427.51005 611.1131 L427.66643 610.70956 L427.79875 610.36149 L428.10552 609.60988 L428.41804 608.88667 L428.43016 608.85827 L428.77007 608.10666 L428.80555 608.0315 L428.77007 608.10666 L428.43016 608.85827 L428.41804 608.88667 L428.10552 609.60988 L427.79875 610.36149 L427.66643 610.70956 L427.51005 611.1131 L427.24102 611.86471 L426.99388 612.61632 L426.91482 612.88428 L426.76805 613.36793 L426.56568 614.11954 L426.38886 614.87115 L426.23878 615.62276 L426.16321 616.09204 L426.1158 616.37437 L426.02112 617.12598 L425.9575 617.87759 L425.92659 618.62921 L425.93025 619.38082 L425.97066 620.13243 L426.05041 620.88404 L426.16321 621.58005 L426.17235 621.63565 L426.33579 622.38726 L426.54775 623.13887 L426.81346 623.89048 L426.91482 624.13329 L427.13295 624.64209 L427.53346 625.3937 L427.66643 625.60975 L428.0061 626.14531 L428.41804 626.70068 L428.5688 626.89692 L429.16965 627.57729 L429.23517 627.64853 L429.92126 628.30688 L430.02306 628.40014 L430.67287 628.93196 L430.95597 629.15175 L431.42448 629.48027 L432.06505 629.90336 L432.17609 629.97025 L432.9277 630.4062 L433.38446 630.65497 L433.67931 630.80334 L434.43092 631.16307 L434.97475 631.40659 L435.18253 631.49347 L435.93414 631.79255 L436.68576 632.06874 L436.94503 632.1582 L437.43737 632.31864 L438.18898 632.54525 L438.94059 632.75134 L439.01575 632.76998" />
    <path d="M439.01575 627.91002 L438.94059 627.87497 L438.5008 627.64853 L438.18898 627.47582 L437.43737 627.02089 L437.24775 626.89692 L436.68576 626.49842 L436.22439 626.14531 L435.93414 625.90288 L435.36446 625.3937 L435.18253 625.21505 L434.63308 624.64209 L434.43092 624.40876 L434.00513 623.89048 L433.67931 623.44792 L433.46223 623.13887 L433.00642 622.38726 L432.9277 622.23809 L432.62248 621.63565 L432.29581 620.88404 L432.17609 620.55888 L432.02484 620.13243 L431.80674 619.38082 L431.6379 618.62921 L431.51609 617.87759 L431.43923 617.12598 L431.42448 616.80315 L431.40552 616.37437 L431.41246 615.62276 L431.42448 615.42647 L431.45833 614.87115 L431.54144 614.11954 L431.65971 613.36793 L431.81122 612.61632 L431.99402 611.86471 L432.17609 611.22086 L432.20677 611.1131 L432.45099 610.36149 L432.72106 609.60988 L432.9277 609.08291 L433.01704 608.85827 L433.34019 608.10666 L433.3745 608.0315 L433.34019 608.10666 L433.01704 608.85827 L432.9277 609.08291 L432.72106 609.60988 L432.45099 610.36149 L432.20677 611.1131 L432.17609 611.22086 L431.99402 611.86471 L431.81122 612.61632 L431.65971 613.36793 L431.54144 614.11954 L431.45833 614.87115 L431.42448 615.42647 L431.41246 615.62276 L431.40552 616.37437 L431.42448 616.80315 L431.43923 617.12598 L431.51609 617.87759 L431.6379 618.62921 L431.80674 619.38082 L432.02484 620.13243 L432.17609 620.55888 L432.29581 620.88404 L432.62248 621.63565 L432.9277 622.23809 L433.00642 622.38726 L433.46223 623.13887 L433.67931 623.44792 L434.00513 623.89048 L434.43092 624.40876 L434.63308 624.64209 L435.18253 625.21505 L435.36446 625.3937 L435.93414 625.90288 L436.22439 626.14531 L436.68576 626.49842 L437.24775 626.89692 L437.43737 627.02089 L438.18898 627.47582 L438.5008 627.64853 L438.94059 627.87497 L439.01575 627.91002" />
    <path d="M439.01575 620.31668 L438.94059 620.22227 L438.87572 620.13243 L438.39843 619.38082 L438.18898 618.99489 L438.00735 618.62921 L437.69841 617.87759 L437.45563 617.12598 L437.43737 617.0499 L437.28781 616.37437 L437.18021 615.62276 L437.12956 614.87115 L437.1335 614.11954 L437.18945 613.36793 L437.29465 612.61632 L437.43737 611.9089 L437.44677 611.86471 L437.65492 611.1131 L437.90578 610.36149 L438.18898 609.62801 L438.19643 609.60988 L438.54769 608.85827 L438.93336 608.10666 L438.94059 608.09377 L438.97816 608.0315 L438.94059 608.09377 L438.93336 608.10666 L438.54769 608.85827 L438.19643 609.60988 L438.18898 609.62801 L437.90578 610.36149 L437.65492 611.1131 L437.44677 611.86471 L437.43737 611.9089 L437.29465 612.61632 L437.18945 613.36793 L437.1335 614.11954 L437.12956 614.87115 L437.18021 615.62276 L437.28781 616.37437 L437.43737 617.0499 L437.45563 617.12598 L437.69841 617.87759 L438.00735 618.62921 L438.18898 618.99489 L438.39843 619.38082 L438.87572 620.13243 L438.94059 620.22227 L439.01575 620.31668" />
    <path d="M520.86614 526.1811 L595.27559 526.1811 L595.27559 600.59055 L520.86614 600.59055 L520.86614 526.1811" />
  </g>
</svg>