<?xml version="1.0" standalone="no"?>
<!DOCTYPE svg PUBLIC "-//W3C//DTD SVG 1.1//EN" 
    "http://www.w3.org/Graphics/SVG/1.1/DTD/svg11.dtd">
<svg width="29.7cm" height="42cm"
    xmlns="http://www.w3.org/2000/svg" version="1.1" viewBox="0 0 1052.3622 1488.18898">
  <g fill="none" stroke="black" stroke-width="0.1cm" stroke-linejoin="round" stroke-linecap="round">
    <path d="M323.47326 557.46345 L318.64605 552.3724" />
    <path d="M336.40755 552.44582 L341.38505 557.39003" />
    <path d="M354.16164 552.53181 L359.30427 557.30403" />
    <path d="M371.90766 552.63335 L377.23154 557.20249" />
    <path d="M389.64516 552.75422 L395.16733 557.08162" />
    <path d="M407.37408 552.89924 L413.11171 556.9366" />
    <path d="M425.09512 553.07445 L431.06397 556.76139" />
    <path d="M442.81038 553.28724 L449.022 556.54861" />
    <path d="M460.52431 553.54614 L466.98137 556.2897" />
    <path d="M478.24492 553.86006 L484.93405 555.97579" />
    <path d="M495.98515 554.23615 L502.86712 555.59969" />
    <path d="M513.76325 554.67616 L520.76231 555.15969" />
    <path d="M531.60072 555.1713 L538.59814 554.66454" />
    <path d="M549.51618 555.69864 L556.35597 554.13721" />
    <path d="M567.51665 556.22299 L574.02879 553.61286" />
    <path d="M585.59187 556.70674 L591.62687 553.12911" />
    <path d="M603.71724 557.12222 L609.1748 552.71362" />
    <path d="M621.86362 557.45827 L626.70171 552.37757" />
    <path d="M640.00659 557.71821 L644.23203 552.11764" />
    <path d="M658.13045 557.91337 L661.78147 551.92248" />
    <path d="M676.22757 558.05732 L679.35764 551.77852" />
    <path d="M694.29589 558.16251 L696.96262 551.67334" />
    <path d="M712.33651 558.23901 L714.5953 551.59683" />
    <path d="M730.35199 558.29455 L732.25311 551.54129" />
    <path d="M731.98895 576.7014 L730.61615 583.58153" />
    <path d="M714.31758 576.73855 L712.61422 583.54438" />
    <path d="M696.67317 576.79252 L694.58534 583.49041" />
    <path d="M679.06036 576.87069 L676.52485 583.41224" />
    <path d="M661.48348 576.98364 L658.42844 583.29929" />
    <path d="M643.94482 577.14602 L640.2938 583.13691" />
    <path d="M626.44156 577.37662 L622.12377 582.90631" />
    <path d="M608.96098 577.69603 L603.93105 582.5869" />
    <path d="M591.47576 578.11934 L585.74298 582.1636" />
    <path d="M573.94477 578.6437 L567.60068 581.63924" />
    <path d="M556.32562 579.23806 L549.54653 581.04487" />
    <path d="M538.59503 579.84827 L531.60383 580.43466" />
    <path d="M520.75964 580.41923 L513.76592 579.8637" />
    <path d="M502.84748 580.91577 L496.00478 579.36716" />
    <path d="M484.89091 581.32711 L478.28805 578.95583" />
    <path d="M466.9155 581.65893 L460.59017 578.624" />
    <path d="M448.9375 581.92384 L442.89488 578.35909" />
    <path d="M430.96566 582.13533 L425.19342 578.14761" />
    <path d="M413.00398 582.30516 L407.48181 577.97777" />
    <path d="M395.0537 582.44281 L389.7588 577.84012" />
    <path d="M377.11468 582.55554 L372.02452 577.72739" />
    <path d="M359.18614 582.64886 L354.27976 577.63407" />
    <path d="M341.26705 582.72695 L336.52555 577.55598" />
    <path d="M323.35636 582.79294 L318.76295 577.48999" />
    <path d="M318.89497 602.6047 L323.22434 608.12532" />
    <path d="M336.66048 602.662 L341.13213 608.06802" />
    <path d="M354.41683 602.73048 L359.04908 607.99954" />
    <path d="M372.16248 602.81335 L376.97672 607.91666" />
    <path d="M389.89574 602.915 L394.91675 607.81502" />
    <path d="M407.61488 603.0415 L412.87091 607.68852" />
    <path d="M425.31846 603.20131 L430.84063 607.52871" />
    <path d="M443.00617 603.40619 L448.82621 607.32383" />
    <path d="M460.68051 603.67209 L466.82517 607.05792" />
    <path d="M478.34997 604.01936 L484.82899 606.71065" />
    <path d="M496.03433 604.4701 L502.81793 606.25991" />
    <path d="M513.77011 605.0387 L520.75544 605.69131" />
    <path d="M531.60883 605.71278 L538.59002 605.01724" />
    <path d="M549.59524 606.4346 L556.2769 604.29541" />
    <path d="M567.73102 607.11237 L573.81442 603.61765" />
    <path d="M585.96415 607.66891 L591.25459 603.0611" />
    <path d="M604.22348 608.07896 L608.66855 602.65106" />
    <path d="M622.45716 608.36045 L626.10817 602.36956" />
    <path d="M640.64184 608.54656 L643.59678 602.18346" />
    <path d="M658.77355 608.6676 L661.13837 602.06242" />
    <path d="M676.85716 608.74585 L678.72805 601.98416" />
    <path d="M694.90019 608.79628 L696.35832 601.93373" />
    <path d="M714.02178 601.90146 L712.91002 608.82856" />
    <path d="M730.89301 608.84889 L731.71209 601.88112" />
    <path d="M731.42726 627.08289 L731.17784 634.09421" />
    <path d="M731.13994 652.30799 L731.46516 659.31619" />
    <path d="M730.85586 677.55632 L731.74924 684.51495" />
    <path d="M730.58042 702.82643 L732.02468 709.69192" />
    <path d="M730.31824 728.11577 L732.28685 734.84966" />
    <path d="M730.0728 753.421 L732.5323 759.99151" />
    <path d="M729.84634 778.73847 L732.75876 785.12114" />
    <path d="M729.6399 804.06453 L732.9652 810.24216" />
    <path d="M729.45355 829.39588 L733.15155 835.35789" />
    <path d="M729.2866 854.72969 L733.3185 860.47117" />
    <path d="M729.13786 880.06366 L733.46724 885.58428" />
    <path d="M729.00584 905.39603 L733.59925 910.69899" />
    <path d="M728.88894 930.72553 L733.71616 935.81658" />
    <path d="M710.97715 930.79895 L715.95465 935.74316" />
    <path d="M693.05794 930.88494 L698.20057 935.65716" />
    <path d="M675.13067 930.98648 L680.45455 935.55562" />
    <path d="M657.19487 931.10735 L662.71704 935.43475" />
    <path d="M639.25049 931.25237 L644.98813 935.28973" />
    <path d="M621.29824 931.42758 L627.26709 935.11452" />
    <path d="M603.34021 931.64037 L609.55182 934.90174" />
    <path d="M585.38084 931.89927 L591.8379 934.64283" />
    <path d="M567.42816 932.21319 L574.11728 934.32892" />
    <path d="M549.49509 932.58928 L556.37706 933.95282" />
    <path d="M531.59989 933.02928 L538.59896 933.51282" />
    <path d="M513.76407 933.52443 L520.76149 933.01767" />
    <path d="M496.00624 934.05177 L502.84602 932.49034" />
    <path d="M484.84555 931.96599 L478.33341 934.57612" />
    <path d="M460.73534 935.05987 L466.77034 931.48224" />
    <path d="M448.64497 931.06675 L443.18741 935.47535" />
    <path d="M425.66049 935.8114 L430.49859 930.7307" />
    <path d="M412.35562 930.47077 L408.13017 936.07134" />
    <path d="M390.58074 936.2665 L394.23175 930.27561" />
    <path d="M376.13464 930.13165 L373.00456 936.41045" />
    <path d="M355.39958 936.51564 L358.06632 930.02647" />
    <path d="M340.0257 929.94996 L337.76691 936.59214" />
    <path d="M320.1091 936.64768 L322.01021 929.89442" />
    <path d="M320.37325 911.48757 L321.74606 904.60745" />
    <path d="M338.04462 911.45042 L339.74799 904.6446" />
    <path d="M355.68904 911.39646 L357.77686 904.69857" />
    <path d="M373.30184 911.31829 L375.83736 904.77674" />
    <path d="M390.87872 911.20534 L393.93377 904.88969" />
    <path d="M408.41739 911.04296 L412.0684 905.05206" />
    <path d="M425.92065 910.81235 L430.23844 905.28267" />
    <path d="M443.40123 910.49294 L448.43115 905.60208" />
    <path d="M460.88645 910.06964 L466.61922 906.02538" />
    <path d="M478.41744 909.54528 L484.76153 906.54974" />
    <path d="M496.03658 908.95092 L502.81568 907.1441" />
    <path d="M513.76718 908.3407 L520.75838 907.75432" />
    <path d="M531.60257 907.76974 L538.59629 908.32528" />
    <path d="M549.51472 907.27321 L556.35742 908.82181" />
    <path d="M567.47129 906.86187 L574.07415 909.23315" />
    <path d="M585.4467 906.53004 L591.77204 909.56498" />
    <path d="M603.42471 906.26513 L609.46732 909.82989" />
    <path d="M621.39654 906.05365 L627.16879 910.04137" />
    <path d="M639.35823 905.88381 L644.8804 910.21121" />
    <path d="M657.30851 905.74617 L662.60341 910.34886" />
    <path d="M675.24753 905.63344 L680.33769 910.46158" />
    <path d="M693.17607 905.54011 L698.08244 910.55491" />
    <path d="M711.09515 905.46203 L715.83665 910.63299" />
    <path d="M711.23008 880.12096 L715.70173 885.52698" />
    <path d="M693.31313 880.18944 L697.94538 885.4585" />
    <path d="M675.38549 880.27231 L680.19973 885.37563" />
    <path d="M657.44545 880.37396 L662.46646 885.27398" />
    <path d="M639.49129 880.50046 L644.74733 885.14748" />
    <path d="M621.52158 880.66027 L627.04375 884.98767" />
    <path d="M603.536 880.86515 L609.35603 884.78279" />
    <path d="M585.53704 881.13105 L591.6817 884.51689" />
    <path d="M567.53321 881.47833 L574.01223 884.16961" />
    <path d="M549.54427 881.92906 L556.32788 883.71887" />
    <path d="M531.60676 882.49766 L538.59209 883.15027" />
    <path d="M513.77219 883.17174 L520.75337 882.4762" />
    <path d="M496.0853 883.89356 L502.76696 881.75438" />
    <path d="M484.63118 881.07661 L478.54779 884.57133" />
    <path d="M461.10761 885.12787 L466.39806 880.52006" />
    <path d="M448.13872 880.11002 L443.69365 885.53792" />
    <path d="M426.25403 885.81942 L429.90505 879.82852" />
    <path d="M411.72037 879.64242 L408.76542 886.00552" />
    <path d="M391.22384 886.12656 L393.58865 879.52138" />
    <path d="M375.50504 879.44312 L373.63416 886.20482" />
    <path d="M356.00389 886.25524 L357.46201 879.39269" />
    <path d="M339.45218 879.36042 L338.34042 886.28752" />
    <path d="M320.65012 886.30785 L321.46919 879.34008" />
    <path d="M320.93495 861.10608 L321.18436 854.09477" />
    <path d="M339.14372 854.10129 L338.64889 861.09957" />
    <path d="M356.33825 861.08602 L357.12765 854.11483" />
    <path d="M375.14329 854.13978 L373.99591 861.06107" />
    <path d="M391.61243 861.0173 L393.20007 854.18355" />
    <path d="M409.17576 860.94204 L411.31003 854.25881" />
    <path d="M426.67213 860.81358 L429.48696 854.38727" />
    <path d="M444.09068 860.59587 L447.7417 854.60498" />
    <path d="M461.43724 860.23542 L466.06843 854.96544" />
    <path d="M478.76072 859.67486 L484.41825 855.526" />
    <path d="M496.17006 858.90549 L502.6822 856.29536" />
    <path d="M513.78101 858.02756 L520.74455 857.1733" />
    <path d="M531.61389 857.20516 L538.58496 857.99569" />
    <path d="M549.59151 856.54256 L556.28064 858.65829" />
    <path d="M567.62585 856.05047 L573.9196 859.15038" />
    <path d="M585.66426 855.69477 L591.55448 859.50608" />
    <path d="M603.68493 855.43673 L609.2071 859.76413" />
    <path d="M621.68206 855.24627 L626.88326 859.95459" />
    <path d="M639.6564 855.10258 L644.58222 860.09827" />
    <path d="M657.61077 854.99174 L662.30115 860.20912" />
    <path d="M675.54834 854.90442 L680.03687 860.29643" />
    <path d="M693.47196 854.83433 L697.78654 860.36652" />
    <path d="M711.38406 854.77711 L715.54774 860.42374" />
    <path d="M711.55915 829.43249 L715.37265 835.32128" />
    <path d="M693.65542 829.47703 L697.60309 835.27674" />
    <path d="M675.74008 829.53219 L679.84514 835.22158" />
    <path d="M657.8101 829.60191 L662.10181 835.15186" />
    <path d="M639.86154 829.69218 L644.37708 835.06159" />
    <path d="M621.88926 829.81236 L626.67607 834.94141" />
    <path d="M603.88698 829.97762 L609.00506 834.77615" />
    <path d="M585.84828 830.21319 L591.37045 834.54058" />
    <path d="M567.77124 830.56132 L573.77421 834.19245" />
    <path d="M549.67325 831.08881 L556.1989 833.66496" />
    <path d="M531.62749 831.87608 L538.57137 832.87769" />
    <path d="M513.79874 832.92972 L520.72682 831.82405" />
    <path d="M496.33409 834.03353 L502.51817 830.72024" />
    <path d="M484.05305 829.87968 L479.12592 834.87409" />
    <path d="M461.92733 835.37233 L465.57834 829.38144" />
    <path d="M447.21877 829.11982 L444.61361 835.63395" />
    <path d="M427.17589 835.76637 L428.9832 828.9874" />
    <path d="M410.84526 828.92112 L409.64053 835.83265" />
    <path d="M392.03434 835.86499 L392.77815 828.88878" />
    <path d="M374.76176 828.87428 L374.37744 835.87949" />
    <path d="M356.68385 835.88442 L356.78205 828.86935" />
    <path d="M338.82939 828.86965 L338.96322 835.88412" />
    <path d="M321.22227 835.88099 L320.89704 828.87278" />
    <path d="M321.50635 810.63266 L320.61296 803.67403" />
    <path d="M338.51666 803.66607 L339.27595 810.64061" />
    <path d="M357.03088 810.64854 L356.43503 803.65814" />
    <path d="M374.37329 803.65097 L374.76591 810.65572" />
    <path d="M392.47316 810.66058 L392.33933 803.64611" />
    <path d="M410.34551 803.64697 L410.14027 810.65972" />
    <path d="M427.74711 810.64543 L428.41197 803.66126" />
    <path d="M445.26 810.5993 L446.57238 803.70739" />
    <path d="M462.62344 810.47443 L464.88223 803.83225" />
    <path d="M479.76398 810.14879 L483.41499 804.1579" />
    <path d="M496.69735 809.35764 L502.15491 804.94904" />
    <path d="M513.84289 807.93406 L520.68267 806.37263" />
    <path d="M531.65844 806.47157 L538.54041 807.83511" />
    <path d="M549.83027 805.52266 L556.04188 808.78403" />
    <path d="M568.01164 804.98964 L573.53381 809.31704" />
    <path d="M586.12062 804.68124 L591.09812 809.62545" />
    <path d="M604.1632 804.4899 L608.72883 809.81679" />
    <path d="M622.15682 804.36301 L626.40851 809.94368" />
    <path d="M640.11554 804.27409 L644.12308 810.0326" />
    <path d="M658.04921 804.20895 L661.86271 810.09774" />
    <path d="M675.9645 804.15948 L679.62071 810.14721" />
    <path d="M693.86605 804.1208 L697.39246 810.18588" />
    <path d="M711.75708 804.08983 L715.17473 810.21685" />
    <path d="M711.97896 778.75267 L714.95284 785.10694" />
    <path d="M694.10567 778.77008 L697.15284 785.08953" />
    <path d="M676.22458 778.79189 L679.36063 785.06771" />
    <path d="M658.33298 778.81996 L661.57894 785.03964" />
    <path d="M640.42669 778.85731 L643.81193 785.0023" />
    <path d="M622.49913 778.90917 L626.06619 784.95043" />
    <path d="M604.53926 778.9854 L608.35277 784.8742" />
    <path d="M586.52753 779.10648 L590.69121 784.75312" />
    <path d="M568.42753 779.32111 L573.11791 784.53849" />
    <path d="M550.17499 779.7661 L555.69716 784.0935" />
    <path d="M531.75486 780.87194 L538.44399 782.98767" />
    <path d="M514.00671 783.23487 L520.51885 780.62474" />
    <path d="M501.25164 778.93435 L497.60062 784.92525" />
    <path d="M480.79566 785.34668 L482.3833 778.51293" />
    <path d="M482.09212 760.17794 L481.08685 753.23458" />
    <path d="M464.43633 760.1469 L463.06934 753.26562" />
    <path d="M446.69786 760.12593 L445.13451 753.28659" />
    <path d="M428.92272 760.11129 L427.23636 753.30123" />
    <path d="M411.12818 760.10059 L409.35761 753.31193" />
    <path d="M393.32215 760.09245 L391.49034 753.32007" />
    <path d="M375.50877 760.08607 L373.63043 753.32645" />
    <path d="M357.6904 760.08094 L355.77551 753.33158" />
    <path d="M339.86848 760.07673 L337.92413 753.33579" />
    <path d="M322.04396 760.0732 L320.07535 753.33931" />
    <path d="M322.2894 734.76797 L319.82991 728.19746" />
    <path d="M337.65533 728.20169 L340.13728 734.76375" />
    <path d="M357.98746 734.7586 L355.47844 728.20684" />
    <path d="M373.29846 728.21325 L375.84073 734.75218" />
    <path d="M393.6983 734.74397 L391.11419 728.22146" />
    <path d="M408.92372 728.23234 L411.56207 734.73309" />
    <path d="M429.43526 734.71802 L426.72382 728.24741" />
    <path d="M444.50859 728.26964 L447.32379 734.69579" />
    <path d="M465.23978 734.65985 L462.26589 728.30558" />
    <path d="M479.9665 728.37288 L483.21246 734.59256" />
    <path d="M501.33288 734.42711 L497.51938 728.53832" />
    <path d="M514.50169 729.31902 L520.02386 733.64642" />
    <path d="M536.92493 728.48727 L533.27392 734.47816" />
    <path d="M532.33834 754.54256 L537.86051 758.86996" />
    <path d="M551.02932 753.76186 L554.84283 759.65066" />
    <path d="M569.14974 753.59642 L572.3957 759.8161" />
    <path d="M587.12243 753.52912 L590.09631 759.88339" />
    <path d="M605.03842 753.49318 L607.85361 759.91933" />
    <path d="M622.92694 753.47095 L625.63838 759.94157" />
    <path d="M640.80013 753.45588 L643.43849 759.95664" />
    <path d="M658.6639 753.44501 L661.24802 759.96751" />
    <path d="M676.52147 753.43679 L679.06374 759.97572" />
    <path d="M694.37475 753.43038 L696.88376 759.98214" />
    <path d="M712.22493 753.42523 L714.70688 759.98729" />
    <path d="M712.49372 728.11225 L714.43808 734.85318" />
    <path d="M694.67181 728.10804 L696.5867 734.8574" />
    <path d="M676.85343 728.1029 L678.73178 734.86253" />
    <path d="M659.04005 728.09653 L660.87186 734.86891" />
    <path d="M641.23403 728.08839 L643.0046 734.87704" />
    <path d="M623.43948 728.07769 L625.12584 734.88775" />
    <path d="M605.66434 728.06304 L607.22769 734.90239" />
    <path d="M587.92587 728.04208 L589.29286 734.92336" />
    <path d="M570.27009 728.01104 L571.27535 734.95439" />
    <path d="M552.86916 727.97548 L553.00299 734.98995" />
    <path d="M569.9789 709.67605 L571.56654 702.8423" />
    <path d="M554.76158 703.26373 L551.11057 709.25462" />
    <path d="M538.3555 704.95411 L531.84336 707.56424" />
    <path d="M520.60734 707.31704 L513.91822 705.20131" />
    <path d="M502.18722 708.42287 L496.66505 704.09548" />
    <path d="M483.93467 708.86787 L479.2443 703.65048" />
    <path d="M465.83468 709.08249 L461.671 703.43586" />
    <path d="M447.82294 709.20357 L444.00944 703.31478" />
    <path d="M429.86307 709.2798 L426.29601 703.23855" />
    <path d="M411.93551 709.33167 L408.55028 703.18668" />
    <path d="M394.02923 709.36902 L390.78326 703.14933" />
    <path d="M376.13762 709.39709 L373.00158 703.12126" />
    <path d="M358.25654 709.4189 L355.20936 703.09945" />
    <path d="M340.38324 709.43631 L337.40936 703.08204" />
    <path d="M322.51587 709.45051 L319.60344 703.06784" />
    <path d="M322.72231 684.12445 L319.397 677.94682" />
    <path d="M337.18748 677.97212 L340.60513 684.09914" />
    <path d="M358.49615 684.06817 L354.96975 678.00309" />
    <path d="M372.7415 678.04177 L376.3977 684.0295" />
    <path d="M394.313 683.98003 L390.49949 678.09124" />
    <path d="M408.23912 678.15638 L412.24666 683.91489" />
    <path d="M430.20539 683.82597 L425.95369 678.2453" />
    <path d="M443.63338 678.37219 L448.199 683.69908" />
    <path d="M466.24159 683.50774 L461.26408 678.56353" />
    <path d="M478.8284 678.87193 L484.35057 683.19933" />
    <path d="M502.53194 682.66632 L496.32032 679.40495" />
    <path d="M513.82179 680.35386 L520.70376 681.7174" />
    <path d="M538.51932 680.25492 L531.67953 681.81635" />
    <path d="M555.66485 678.83133 L550.20729 683.23993" />
    <path d="M572.59823 678.04019 L568.94721 684.03108" />
    <path d="M589.73876 677.71454 L587.47997 684.35672" />
    <path d="M588.85678 702.76004 L588.36195 709.75831" />
    <path d="M606.3791 702.75194 L606.51293 709.76641" />
    <path d="M624.01608 702.76145 L624.54925 709.7569" />
    <path d="M641.71589 702.77458 L642.52273 709.74377" />
    <path d="M659.45333 702.7875 L660.45859 709.73085" />
    <path d="M677.21492 702.7992 L678.3703 709.71915" />
    <path d="M694.99287 702.80951 L696.26564 709.70884" />
    <path d="M712.78241 702.81853 L714.1494 709.69982" />
    <path d="M713.08625 677.54836 L713.84555 684.5229" />
    <path d="M695.33133 677.54043 L695.92718 684.53083" />
    <path d="M677.5963 677.53326 L677.98892 684.53801" />
    <path d="M659.88904 677.5284 L660.02288 684.54287" />
    <path d="M642.22193 677.52926 L642.01669 684.54201" />
    <path d="M624.61509 677.54355 L623.95024 684.52772" />
    <path d="M607.1022 677.58968 L605.78983 684.48159" />
    <path d="M623.37901 659.20157 L625.18632 652.42261" />
    <path d="M607.7486 652.55503 L605.14343 659.06915" />
    <path d="M590.43488 652.81664 L586.78386 658.80754" />
    <path d="M573.23629 653.31489 L568.30915 658.30929" />
    <path d="M556.02811 654.15544 L549.84404 657.46874" />
    <path d="M538.56346 655.25926 L531.63539 656.36492" />
    <path d="M520.73472 656.3129 L513.79084 655.31128" />
    <path d="M502.68896 657.10016 L496.1633 654.52402" />
    <path d="M484.59097 657.62765 L478.588 653.99653" />
    <path d="M466.51392 657.97579 L460.99175 653.64839" />
    <path d="M448.47523 658.21136 L443.35715 653.41282" />
    <path d="M430.47294 658.37662 L425.68614 653.24756" />
    <path d="M412.50066 658.4968 L407.98512 653.12738" />
    <path d="M394.5521 658.58707 L390.26039 653.03712" />
    <path d="M376.62213 658.65679 L372.51707 652.96739" />
    <path d="M358.70678 658.71195 L354.75912 652.91224" />
    <path d="M340.80306 658.75649 L336.98955 652.86769" />
    <path d="M322.90865 658.79309 L319.21066 652.83109" />
    <path d="M323.0756 633.45929 L319.04371 627.71781" />
    <path d="M336.81446 627.76523 L340.97814 633.41187" />
    <path d="M354.57566 627.82245 L358.89024 633.35464" />
    <path d="M372.32533 627.89254 L376.81387 633.28455" />
    <path d="M390.06106 627.97986 L394.75143 633.19724" />
    <path d="M407.77998 628.0907 L412.70581 633.0864" />
    <path d="M425.47894 628.23439 L430.68014 632.94271" />
    <path d="M443.1551 628.42485 L448.67727 632.75225" />
    <path d="M460.80773 628.68289 L466.69794 632.49421" />
    <path d="M478.44261 629.0386 L484.73636 632.1385" />
    <path d="M496.08157 629.53068 L502.77069 631.64641" />
    <path d="M513.77725 630.19328 L520.74831 630.98382" />
    <path d="M531.61765 631.01568 L538.5812 630.16142" />
    <path d="M549.68 631.89361 L556.19214 629.28349" />
    <path d="M567.94395 632.66298 L573.60149 628.51412" />
    <path d="M586.29377 633.22354 L590.92497 627.95356" />
    <path d="M604.62051 633.584 L608.27152 627.5931" />
    <path d="M622.87525 633.8017 L625.69008 627.37539" />
    <path d="M641.05218 633.93017 L643.18645 627.24693" />
    <path d="M659.16214 634.00542 L660.74978 627.17167" />
    <path d="M678.3663 627.1279 L677.21892 634.04919" />
    <path d="M695.23455 634.07415 L696.02395 627.10295" />
    <path d="M713.71332 627.08941 L713.21849 634.08769" />
    <path d="M713.39898 652.30486 L713.53282 659.31933" />
    <path d="M695.67836 652.30456 L695.58015 659.31962" />
    <path d="M677.98477 652.30948 L677.60045 659.3147" />
    <path d="M660.32787 652.32399 L659.58405 659.30019" />
    <path d="M641.51695 659.26786 L642.72168 652.35632" />
    <path d="M515.43727 759.70171 L519.08829 753.71081" />
    <path d="M499.35921 753.19902 L499.49305 760.21349" />
    <path d="M463.50542 785.42894 L464.00025 778.43066" />
    <path d="M445.98311 785.43704 L445.84927 778.42257" />
    <path d="M428.34613 785.42753 L427.81296 778.43207" />
    <path d="M410.64632 785.4144 L409.83947 778.4452" />
    <path d="M392.90888 785.40148 L391.90361 778.45812" />
    <path d="M375.14729 785.38978 L373.99191 778.46982" />
    <path d="M357.36933 785.37947 L356.09657 778.48013" />
    <path d="M339.5798 785.37044 L338.21281 778.48916" />
    <path d="M321.78178 785.36254 L320.33753 778.49706" />
  </g>
</svg>