<?xml version="1.0" standalone="no"?>
<!DOCTYPE svg PUBLIC "-//W3C//DTD SVG 1.1//EN" 
    "http://www.w3.org/Graphics/SVG/1.1/DTD/svg11.dtd">
<svg width="29.7cm" height="42cm"
    xmlns="http://www.w3.org/2000/svg" version="1.1" viewBox="0 0 1052.3622 1488.18898">
  <g fill="none" stroke="black" stroke-width="0.1cm" stroke-linejoin="round" stroke-linecap="round">
    <path d="M321.38568 558.41061 L320.73363 551.42523" />
    <path d="M338.56924 551.42533 L339.22337 558.41052" />
    <path d="M357.05808 558.4107 L356.40782 551.42515" />
    <path d="M374.2503 551.42461 L374.88889 558.41124" />
    <path d="M392.71478 558.4122 L392.09771 551.42364" />
    <path d="M409.95119 551.4222 L410.5346 558.41365" />
    <path d="M428.34727 558.41557 L427.81181 551.42028" />
    <path d="M445.68048 551.41798 L446.1519 558.41787" />
    <path d="M463.94806 558.42036 L463.55761 551.41549" />
    <path d="M481.44289 551.41311 L481.73607 558.42273" />
    <path d="M499.5172 558.42462 L499.33506 551.41123" />
    <path d="M517.23187 551.41019 L517.29368 558.42566" />
    <path d="M535.06852 558.42566 L535.13033 551.41019" />
    <path d="M553.02714 551.41123 L552.845 558.42462" />
    <path d="M570.62613 558.42273 L570.91931 551.41311" />
    <path d="M588.80459 551.41549 L588.41414 558.42036" />
    <path d="M606.21031 558.41787 L606.68172 551.41798" />
    <path d="M624.55039 551.42028 L624.01494 558.41557" />
    <path d="M641.8276 558.41365 L642.41102 551.4222" />
    <path d="M660.26449 551.42364 L659.64743 558.4122" />
    <path d="M677.47331 558.41124 L678.1119 551.42461" />
    <path d="M695.95438 551.42515 L695.30413 558.4107" />
    <path d="M713.13883 558.41052 L713.79297 551.42533" />
    <path d="M731.62857 551.42523 L730.97652 558.41061" />
    <path d="M730.93485 583.63001 L731.67025 576.65292" />
    <path d="M713.09231 583.62939 L713.83949 576.65354" />
    <path d="M695.25259 583.62906 L696.00591 576.65387" />
    <path d="M677.41688 583.62916 L678.16833 576.65377" />
    <path d="M659.58668 583.62985 L660.32524 576.65308" />
    <path d="M641.76377 583.63127 L642.47485 576.65166" />
    <path d="M623.95014 583.63354 L624.61519 576.64939" />
    <path d="M606.14771 583.63663 L606.74432 576.6463" />
    <path d="M588.3579 583.64031 L588.86083 576.64262" />
    <path d="M570.58102 583.6441 L570.96442 576.63883" />
    <path d="M552.81564 583.64727 L553.05651 576.63566" />
    <path d="M535.05831 583.6491 L535.14054 576.63383" />
    <path d="M517.30389 583.6491 L517.22167 576.63383" />
    <path d="M499.54656 583.64727 L499.3057 576.63566" />
    <path d="M481.78118 583.6441 L481.39778 576.63883" />
    <path d="M464.0043 583.64031 L463.50137 576.64262" />
    <path d="M446.21449 583.63663 L445.61789 576.6463" />
    <path d="M428.41206 583.63354 L427.74702 576.64939" />
    <path d="M410.59844 583.63127 L409.88735 576.65166" />
    <path d="M392.77553 583.62985 L392.03696 576.65308" />
    <path d="M374.94532 583.62916 L374.19387 576.65377" />
    <path d="M357.10961 583.62906 L356.35629 576.65387" />
    <path d="M339.26989 583.62939 L338.52271 576.65354" />
    <path d="M320.69195 576.65292 L321.42736 583.63001" />
    <path d="M320.64677 601.88152 L321.47254 608.8485" />
    <path d="M339.32167 608.847 L338.47093 601.88302" />
    <path d="M356.29719 601.8843 L357.16871 608.84571" />
    <path d="M375.01225 608.84484 L374.12695 601.88517" />
    <path d="M391.96217 601.88536 L392.85032 608.84466" />
    <path d="M410.68031 608.8455 L409.80548 601.88451" />
    <path d="M427.66021 601.88229 L428.49887 608.84773" />
    <path d="M446.3022 608.85158 L445.53018 601.87844" />
    <path d="M463.41907 601.87305 L464.0866 608.85697" />
    <path d="M481.84978 608.86321 L481.32919 601.8668" />
    <path d="M499.25972 601.86108 L499.59254 608.86893" />
    <path d="M517.32013 608.87241 L517.20543 601.8576" />
    <path d="M535.15678 601.8576 L535.04207 608.87241" />
    <path d="M552.76967 608.86893 L553.10248 601.86108" />
    <path d="M571.03302 601.8668 L570.51242 608.86321" />
    <path d="M588.27561 608.85697 L588.94313 601.87305" />
    <path d="M606.83203 601.87844 L606.06001 608.85158" />
    <path d="M623.86333 608.84773 L624.702 601.88229" />
    <path d="M642.55673 601.88451 L641.6819 608.8455" />
    <path d="M659.51188 608.84466 L660.40004 601.88536" />
    <path d="M678.23525 601.88517 L677.34996 608.84484" />
    <path d="M695.19349 608.84571 L696.06501 601.8843" />
    <path d="M713.89127 601.88302 L713.04053 608.847" />
    <path d="M730.88967 608.8485 L731.71543 601.88152" />
    <path d="M730.84265 634.06614 L731.76245 627.11095" />
    <path d="M712.9851 634.06332 L713.9467 627.11378" />
    <path d="M695.12812 634.06044 L696.13039 627.11666" />
    <path d="M677.27304 634.05773 L678.31217 627.11937" />
    <path d="M659.42204 634.05555 L660.48988 627.12155" />
    <path d="M641.57845 634.05448 L642.66017 627.12262" />
    <path d="M623.74726 634.05532 L624.81807 627.12178" />
    <path d="M605.9353 634.05905 L606.95674 627.11805" />
    <path d="M588.15093 634.06634 L589.0678 627.11076" />
    <path d="M570.40213 634.07679 L571.14332 627.10031" />
    <path d="M552.69213 634.08793 L553.18001 627.08917" />
    <path d="M535.01394 634.09538 L535.18491 627.08172" />
    <path d="M517.34826 634.09538 L517.17729 627.08172" />
    <path d="M499.67007 634.08793 L499.18219 627.08917" />
    <path d="M481.96008 634.07679 L481.21889 627.10031" />
    <path d="M464.21127 634.06634 L463.2944 627.11076" />
    <path d="M446.42691 634.05905 L445.40547 627.11805" />
    <path d="M428.61495 634.05532 L427.54414 627.12178" />
    <path d="M410.78375 634.05448 L409.70204 627.12262" />
    <path d="M392.94017 634.05555 L391.87232 627.12155" />
    <path d="M375.08916 634.05773 L374.05003 627.11937" />
    <path d="M357.23409 634.06044 L356.23181 627.11666" />
    <path d="M339.3771 634.06332 L338.4155 627.11378" />
    <path d="M320.59975 627.11095 L321.51956 634.06614" />
    <path d="M320.55375 652.34089 L321.56556 659.28329" />
    <path d="M339.43292 659.27868 L338.35968 652.34551" />
    <path d="M356.16367 652.35072 L357.30223 659.27346" />
    <path d="M375.17272 659.26773 L373.96648 652.35645" />
    <path d="M391.76974 652.36245 L393.04275 659.26173" />
    <path d="M410.90915 659.25611 L409.57664 652.36807" />
    <path d="M427.39301 652.37205 L428.76607 659.25213" />
    <path d="M446.60339 659.25199 L445.22898 652.37219" />
    <path d="M463.10069 652.36537 L464.40498 659.25881" />
    <path d="M482.14883 659.27508 L481.03014 652.3491" />
    <path d="M499.03774 652.32578 L499.81452 659.2984" />
    <path d="M517.40346 659.31714 L517.1221 652.30704" />
    <path d="M535.2401 652.30704 L534.95875 659.31714" />
    <path d="M552.54768 659.2984 L553.32446 652.32578" />
    <path d="M571.33206 652.3491 L570.21338 659.27508" />
    <path d="M587.95723 659.25881 L589.26151 652.36537" />
    <path d="M607.13322 652.37219 L605.75881 659.25199" />
    <path d="M623.59614 659.25213 L624.96919 652.37205" />
    <path d="M642.78557 652.36807 L641.45306 659.25611" />
    <path d="M659.31945 659.26173 L660.59246 652.36245" />
    <path d="M678.39573 652.35645 L677.18949 659.26773" />
    <path d="M695.05998 659.27346 L696.19853 652.35072" />
    <path d="M714.00252 652.34551 L712.92928 659.27868" />
    <path d="M730.79664 659.28329 L731.80846 652.34089" />
    <path d="M730.75568 684.50062 L731.84941 677.57065" />
    <path d="M712.87824 684.49393 L714.05357 677.57733" />
    <path d="M694.99556 684.48579 L696.26295 677.58547" />
    <path d="M677.10716 684.47589 L678.47805 677.59538" />
    <path d="M659.21299 684.46392 L660.69893 677.60734" />
    <path d="M641.31407 684.44983 L642.92455 677.62143" />
    <path d="M623.41403 684.43426 L625.1513 677.63701" />
    <path d="M605.52227 684.4197 L607.36976 677.65157" />
    <path d="M587.6606 684.41277 L589.55813 677.6585" />
    <path d="M569.8745 684.42656 L571.67094 677.64471" />
    <path d="M552.24139 684.47403 L553.63076 677.59723" />
    <path d="M534.82695 684.53291 L535.3719 677.53836" />
    <path d="M517.53525 684.53291 L516.9903 677.53836" />
    <path d="M500.12082 684.47403 L498.73144 677.59723" />
    <path d="M482.4877 684.42656 L480.69126 677.64471" />
    <path d="M464.7016 684.41277 L462.80407 677.6585" />
    <path d="M446.83993 684.4197 L444.99244 677.65157" />
    <path d="M428.94818 684.43426 L427.2109 677.63701" />
    <path d="M411.04813 684.44983 L409.43766 677.62143" />
    <path d="M393.14921 684.46392 L391.66328 677.60734" />
    <path d="M375.25504 684.47589 L373.88415 677.59538" />
    <path d="M357.36665 684.48579 L356.09925 677.58547" />
    <path d="M339.48397 684.49393 L338.30864 677.57733" />
    <path d="M320.51279 677.57065 L321.60652 684.50062" />
    <path d="M320.48165 702.79925 L321.63766 709.7191" />
    <path d="M339.52367 709.71049 L338.26894 702.80786" />
    <path d="M356.04772 702.81888 L357.41818 709.69947" />
    <path d="M373.81586 702.83324 L375.32333 709.68512" />
    <path d="M391.57069 702.85227 L393.2418 709.66608" />
    <path d="M409.30897 702.87791 L411.17682 709.64044" />
    <path d="M427.02738 702.91281 L429.1317 709.60554" />
    <path d="M444.72452 702.95992 L447.10786 709.55843" />
    <path d="M462.40796 703.01935 L465.09771 709.499" />
    <path d="M480.11826 703.07473 L483.06071 709.44362" />
    <path d="M498.00939 703.05012 L500.84287 709.46823" />
    <path d="M516.54472 702.82558 L517.98084 709.69277" />
    <path d="M534.38136 709.69277 L535.81749 702.82558" />
    <path d="M551.51934 709.46823 L554.35281 703.05012" />
    <path d="M569.3015 709.44362 L572.24395 703.07473" />
    <path d="M587.26449 709.499 L589.95425 703.01935" />
    <path d="M605.25434 709.55843 L607.63769 702.95992" />
    <path d="M623.2305 709.60554 L625.33482 702.91281" />
    <path d="M641.18539 709.64044 L643.05323 702.87791" />
    <path d="M659.12041 709.66608 L660.79151 702.85227" />
    <path d="M677.03887 709.68512 L678.54634 702.83324" />
    <path d="M696.31449 702.81888 L694.94402 709.69947" />
    <path d="M712.83854 709.71049 L714.09326 702.80786" />
    <path d="M731.88056 702.79925 L730.72454 709.7191" />
    <path d="M730.70762 734.93977 L731.89748 728.02566" />
    <path d="M712.81665 734.92998 L714.11516 728.03545" />
    <path d="M694.91505 734.91712 L696.34346 728.04832" />
    <path d="M676.9995 734.89976 L678.58571 728.06568" />
    <path d="M659.0652 734.87561 L660.84672 728.08982" />
    <path d="M641.10503 734.84075 L643.13359 728.12468" />
    <path d="M623.1082 734.78814 L625.45713 728.1773" />
    <path d="M605.05809 734.70434 L607.83394 728.2611" />
    <path d="M586.92992 734.56243 L590.28881 728.403" />
    <path d="M568.69384 734.30821 L572.8516 728.65722" />
    <path d="M550.3582 733.86174 L555.51394 729.10369" />
    <path d="M532.29991 733.59645 L537.89895 729.36899" />
    <path d="M520.0623 733.59645 L514.46326 729.36899" />
    <path d="M502.004 733.86174 L496.84826 729.10369" />
    <path d="M483.66837 734.30821 L479.5106 728.65722" />
    <path d="M465.43228 734.56243 L462.07339 728.403" />
    <path d="M447.30411 734.70434 L444.52826 728.2611" />
    <path d="M429.25401 734.78814 L426.90507 728.1773" />
    <path d="M411.25718 734.84075 L409.22861 728.12468" />
    <path d="M393.29701 734.87561 L391.51548 728.08982" />
    <path d="M375.36271 734.89976 L373.77649 728.06568" />
    <path d="M357.44716 734.91712 L356.01874 728.04832" />
    <path d="M339.54556 734.92998 L338.24705 728.03545" />
    <path d="M320.46473 728.02566 L321.65459 734.93977" />
    <path d="M320.46473 753.2492 L321.65459 760.16332" />
    <path d="M339.54556 760.15353 L338.24705 753.25899" />
    <path d="M356.01874 753.27186 L357.44716 760.14066" />
    <path d="M373.77649 753.28922 L375.36271 760.1233" />
    <path d="M391.51548 753.31337 L393.29701 760.09915" />
    <path d="M409.22861 753.34822 L411.25718 760.0643" />
    <path d="M426.90507 753.40084 L429.25401 760.01168" />
    <path d="M444.52826 753.48464 L447.30411 759.92788" />
    <path d="M462.07339 753.62654 L465.43228 759.78597" />
    <path d="M479.5106 753.88076 L483.66837 759.53176" />
    <path d="M496.84826 754.32723 L502.004 759.08528" />
    <path d="M514.46326 754.59253 L520.0623 758.81999" />
    <path d="M532.29991 758.81999 L537.89895 754.59253" />
    <path d="M550.3582 759.08528 L555.51394 754.32723" />
    <path d="M568.69384 759.53176 L572.8516 753.88076" />
    <path d="M586.92992 759.78597 L590.28881 753.62654" />
    <path d="M605.05809 759.92788 L607.83394 753.48464" />
    <path d="M623.1082 760.01168 L625.45713 753.40084" />
    <path d="M641.10503 760.0643 L643.13359 753.34822" />
    <path d="M659.0652 760.09915 L660.84672 753.31337" />
    <path d="M676.9995 760.1233 L678.58571 753.28922" />
    <path d="M694.91505 760.14066 L696.34346 753.27186" />
    <path d="M714.11516 753.25899 L712.81665 760.15353" />
    <path d="M730.70762 760.16332 L731.89748 753.2492" />
    <path d="M730.72454 785.38973 L731.88056 778.46988" />
    <path d="M712.83854 785.38112 L714.09326 778.47848" />
    <path d="M694.94402 785.3701 L696.31449 778.48951" />
    <path d="M677.03887 785.35574 L678.54634 778.50386" />
    <path d="M659.12041 785.33671 L660.79151 778.52289" />
    <path d="M641.18539 785.31107 L643.05323 778.54853" />
    <path d="M623.2305 785.27616 L625.33482 778.58344" />
    <path d="M605.25434 785.22906 L607.63769 778.63054" />
    <path d="M587.26449 785.16963 L589.95425 778.68997" />
    <path d="M569.3015 785.11424 L572.24395 778.74536" />
    <path d="M551.51934 785.13886 L554.35281 778.72075" />
    <path d="M534.38136 785.36339 L535.81749 778.49621" />
    <path d="M517.98084 785.36339 L516.54472 778.49621" />
    <path d="M500.84287 785.13886 L498.00939 778.72075" />
    <path d="M483.06071 785.11424 L480.11826 778.74536" />
    <path d="M465.09771 785.16963 L462.40796 778.68997" />
    <path d="M447.10786 785.22906 L444.72452 778.63054" />
    <path d="M429.1317 785.27616 L427.02738 778.58344" />
    <path d="M411.17682 785.31107 L409.30897 778.54853" />
    <path d="M393.2418 785.33671 L391.57069 778.52289" />
    <path d="M375.32333 785.35574 L373.81586 778.50386" />
    <path d="M357.41818 785.3701 L356.04772 778.48951" />
    <path d="M339.52367 785.38112 L338.26894 778.47848" />
    <path d="M320.48165 778.46988 L321.63766 785.38973" />
    <path d="M320.51279 803.68836 L321.60652 810.61833" />
    <path d="M339.48397 810.61164 L338.30864 803.69504" />
    <path d="M356.09925 803.70318 L357.36665 810.6035" />
    <path d="M375.25504 810.5936 L373.88415 803.71309" />
    <path d="M391.66328 803.72505 L393.14921 810.58163" />
    <path d="M409.43766 803.73914 L411.04813 810.56754" />
    <path d="M427.2109 803.75472 L428.94818 810.55197" />
    <path d="M444.99244 803.76928 L446.83993 810.53741" />
    <path d="M462.80407 803.77621 L464.7016 810.53048" />
    <path d="M480.69126 803.76242 L482.4877 810.54427" />
    <path d="M498.73144 803.71494 L500.12082 810.59174" />
    <path d="M517.53525 810.65062 L516.9903 803.65607" />
    <path d="M535.3719 803.65607 L534.82695 810.65062" />
    <path d="M552.24139 810.59174 L553.63076 803.71494" />
    <path d="M569.8745 810.54427 L571.67094 803.76242" />
    <path d="M587.6606 810.53048 L589.55813 803.77621" />
    <path d="M605.52227 810.53741 L607.36976 803.76928" />
    <path d="M623.41403 810.55197 L625.1513 803.75472" />
    <path d="M641.31407 810.56754 L642.92455 803.73914" />
    <path d="M659.21299 810.58163 L660.69893 803.72505" />
    <path d="M678.47805 803.71309 L677.10716 810.5936" />
    <path d="M694.99556 810.6035 L696.26295 803.70318" />
    <path d="M714.05357 803.69504 L712.87824 810.61164" />
    <path d="M730.75568 810.61833 L731.84941 803.68836" />
    <path d="M730.79664 835.84809 L731.80846 828.90568" />
    <path d="M712.92928 835.84347 L714.00252 828.9103" />
    <path d="M695.05998 835.83826 L696.19853 828.91551" />
    <path d="M677.18949 835.83252 L678.39573 828.92125" />
    <path d="M659.31945 835.82653 L660.59246 828.92724" />
    <path d="M641.45306 835.82091 L642.78557 828.93286" />
    <path d="M623.59614 835.81692 L624.96919 828.93685" />
    <path d="M605.75881 835.81679 L607.13322 828.93698" />
    <path d="M587.95723 835.82361 L589.26151 828.93016" />
    <path d="M570.21338 835.83988 L571.33206 828.91389" />
    <path d="M552.54768 835.86319 L553.32446 828.89058" />
    <path d="M534.95875 835.88194 L535.2401 828.87183" />
    <path d="M517.40346 835.88194 L517.1221 828.87183" />
    <path d="M499.81452 835.86319 L499.03774 828.89058" />
    <path d="M482.14883 835.83988 L481.03014 828.91389" />
    <path d="M464.40498 835.82361 L463.10069 828.93016" />
    <path d="M446.60339 835.81679 L445.22898 828.93698" />
    <path d="M428.76607 835.81692 L427.39301 828.93685" />
    <path d="M410.90915 835.82091 L409.57664 828.93286" />
    <path d="M393.04275 835.82653 L391.76974 828.92724" />
    <path d="M375.17272 835.83252 L373.96648 828.92125" />
    <path d="M357.30223 835.83826 L356.16367 828.91551" />
    <path d="M339.43292 835.84347 L338.35968 828.9103" />
    <path d="M320.55375 828.90568 L321.56556 835.84809" />
    <path d="M320.59975 854.12283 L321.51956 861.07802" />
    <path d="M339.3771 861.07519 L338.4155 854.12566" />
    <path d="M356.23181 854.12853 L357.23409 861.07232" />
    <path d="M375.08916 861.06961 L374.05003 854.13124" />
    <path d="M391.87232 854.13342 L392.94017 861.06743" />
    <path d="M410.78375 861.06635 L409.70204 854.1345" />
    <path d="M427.54414 854.13365 L428.61495 861.0672" />
    <path d="M446.42691 861.07092 L445.40547 854.12993" />
    <path d="M463.2944 854.12264 L464.21127 861.07822" />
    <path d="M481.96008 861.08867 L481.21889 854.11218" />
    <path d="M499.18219 854.10105 L499.67007 861.09981" />
    <path d="M517.34826 861.10726 L517.17729 854.09359" />
    <path d="M535.18491 854.09359 L535.01394 861.10726" />
    <path d="M552.69213 861.09981 L553.18001 854.10105" />
    <path d="M571.14332 854.11218 L570.40213 861.08867" />
    <path d="M588.15093 861.07822 L589.0678 854.12264" />
    <path d="M606.95674 854.12993 L605.9353 861.07092" />
    <path d="M623.74726 861.0672 L624.81807 854.13365" />
    <path d="M642.66017 854.1345 L641.57845 861.06635" />
    <path d="M659.42204 861.06743 L660.48988 854.13342" />
    <path d="M678.31217 854.13124 L677.27304 861.06961" />
    <path d="M695.12812 861.07232 L696.13039 854.12853" />
    <path d="M713.9467 854.12566 L712.9851 861.07519" />
    <path d="M730.84265 861.07802 L731.76245 854.12283" />
    <path d="M730.88967 886.30746 L731.71543 879.34048" />
    <path d="M713.04053 886.30596 L713.89127 879.34198" />
    <path d="M695.19349 886.30467 L696.06501 879.34327" />
    <path d="M677.34996 886.3038 L678.23525 879.34414" />
    <path d="M659.51188 886.30362 L660.40004 879.34432" />
    <path d="M641.6819 886.30446 L642.55673 879.34347" />
    <path d="M623.86333 886.30669 L624.702 879.34125" />
    <path d="M606.06001 886.31054 L606.83203 879.3374" />
    <path d="M588.27561 886.31593 L588.94313 879.33201" />
    <path d="M570.51242 886.32217 L571.03302 879.32577" />
    <path d="M552.76967 886.32789 L553.10248 879.32004" />
    <path d="M535.04207 886.33137 L535.15678 879.31656" />
    <path d="M517.32013 886.33137 L517.20543 879.31656" />
    <path d="M499.59254 886.32789 L499.25972 879.32004" />
    <path d="M481.84978 886.32217 L481.32919 879.32577" />
    <path d="M464.0866 886.31593 L463.41907 879.33201" />
    <path d="M446.3022 886.31054 L445.53018 879.3374" />
    <path d="M428.49887 886.30669 L427.66021 879.34125" />
    <path d="M410.68031 886.30446 L409.80548 879.34347" />
    <path d="M392.85032 886.30362 L391.96217 879.34432" />
    <path d="M375.01225 886.3038 L374.12695 879.34414" />
    <path d="M357.16871 886.30467 L356.29719 879.34327" />
    <path d="M339.32167 886.30596 L338.47093 879.34198" />
    <path d="M320.64677 879.34048 L321.47254 886.30746" />
    <path d="M320.69195 904.55896 L321.42736 911.53606" />
    <path d="M339.26989 911.53543 L338.52271 904.55959" />
    <path d="M356.35629 904.55992 L357.10961 911.5351" />
    <path d="M374.94532 911.53521 L374.19387 904.55982" />
    <path d="M392.03696 904.55913 L392.77553 911.53589" />
    <path d="M410.59844 911.53732 L409.88735 904.5577" />
    <path d="M427.74702 904.55543 L428.41206 911.53959" />
    <path d="M446.21449 911.54268 L445.61789 904.55234" />
    <path d="M463.50137 904.54866 L464.0043 911.54636" />
    <path d="M481.78118 911.55014 L481.39778 904.54488" />
    <path d="M499.3057 904.5417 L499.54656 911.55332" />
    <path d="M517.30389 911.55514 L517.22167 904.53988" />
    <path d="M535.14054 904.53988 L535.05831 911.55514" />
    <path d="M552.81564 911.55332 L553.05651 904.5417" />
    <path d="M570.96442 904.54488 L570.58102 911.55014" />
    <path d="M588.3579 911.54636 L588.86083 904.54866" />
    <path d="M606.74432 904.55234 L606.14771 911.54268" />
    <path d="M623.95014 911.53959 L624.61519 904.55543" />
    <path d="M642.47485 904.5577 L641.76377 911.53732" />
    <path d="M659.58668 911.53589 L660.32524 904.55913" />
    <path d="M678.16833 904.55982 L677.41688 911.53521" />
    <path d="M695.25259 911.5351 L696.00591 904.55992" />
    <path d="M713.83949 904.55959 L713.09231 911.53543" />
    <path d="M730.93485 911.53606 L731.67025 904.55896" />
    <path d="M730.97652 936.76374 L731.62857 929.77836" />
    <path d="M713.13883 936.76365 L713.79297 929.77846" />
    <path d="M695.30413 936.76383 L695.95438 929.77828" />
    <path d="M677.47331 936.76437 L678.1119 929.77774" />
    <path d="M659.64743 936.76533 L660.26449 929.77677" />
    <path d="M641.8276 936.76678 L642.41102 929.77533" />
    <path d="M624.01494 936.7687 L624.55039 929.77341" />
    <path d="M606.21031 936.771 L606.68172 929.77111" />
    <path d="M588.41414 936.77349 L588.80459 929.76862" />
    <path d="M570.62613 936.77586 L570.91931 929.76624" />
    <path d="M552.845 936.77774 L553.02714 929.76436" />
    <path d="M535.06852 936.77879 L535.13033 929.76332" />
    <path d="M517.29368 936.77879 L517.23187 929.76332" />
    <path d="M499.5172 936.77774 L499.33506 929.76436" />
    <path d="M481.73607 936.77586 L481.44289 929.76624" />
    <path d="M463.94806 936.77349 L463.55761 929.76862" />
    <path d="M446.1519 936.771 L445.68048 929.77111" />
    <path d="M428.34727 936.7687 L427.81181 929.77341" />
    <path d="M410.5346 936.76678 L409.95119 929.77533" />
    <path d="M392.71478 936.76533 L392.09771 929.77677" />
    <path d="M374.88889 936.76437 L374.2503 929.77774" />
    <path d="M357.05808 936.76383 L356.40782 929.77828" />
    <path d="M339.22337 936.76365 L338.56924 929.77846" />
    <path d="M320.73363 929.77836 L321.38568 936.76374" />
  </g>
</svg>