<?xml version="1.0" standalone="no"?>
<!DOCTYPE svg PUBLIC "-//W3C//DTD SVG 1.1//EN" 
    "http://www.w3.org/Graphics/SVG/1.1/DTD/svg11.dtd">
<svg width="29.7cm" height="42cm"
    xmlns="http://www.w3.org/2000/svg" version="1.1" viewBox="0 0 1052.3622 1488.18898">
  <g fill="none" stroke="black" stroke-width="0.1cm" stroke-linejoin="round" stroke-linecap="round">
    <path d="M321.22166 558.42205 L320.89766 551.41379" />
    <path d="M338.72101 551.41443 L339.07159 558.42142" />
    <path d="M356.92489 558.42054 L356.54101 551.4153" />
    <path d="M374.3563 551.41654 L374.7829 558.41931" />
    <path d="M392.64781 558.41747 L392.16468 551.41838" />
    <path d="M409.96236 551.42129 L410.52343 558.41456" />
    <path d="M428.41702 558.40953 L427.74206 551.42632" />
    <path d="M445.4881 551.43627 L446.34428 558.39958" />
    <path d="M464.34635 558.37522 L463.15932 551.46062" />
    <path d="M480.60563 551.55085 L482.57334 558.285" />
    <path d="M496.85048 552.53649 L502.00178 557.29935" />
    <path d="M515.45911 557.92657 L519.06645 551.90928" />
    <path d="M534.31449 558.33685 L535.88436 551.499" />
    <path d="M553.42275 551.44397 L552.4494 558.39187" />
    <path d="M570.42421 558.40844 L571.12123 551.4274" />
    <path d="M588.87866 551.4204 L588.34008 558.41545" />
    <path d="M606.22795 558.41901 L606.66408 551.41683" />
    <path d="M624.46495 551.41479 L624.10037 558.42106" />
    <path d="M641.96338 558.42233 L642.27524 551.41352" />
    <path d="M660.09168 551.41268 L659.82024 558.42317" />
    <path d="M677.67285 558.42375 L677.91237 551.41209" />
    <path d="M695.7361 551.41168 L695.52241 558.42417" />
    <path d="M713.36971 558.42448 L713.5621 551.41137" />
    <path d="M731.38982 551.41114 L731.21528 558.42471" />
    <path d="M731.39725 576.63487 L731.20785 583.64806" />
    <path d="M731.405 601.85863 L731.2001 608.87138" />
    <path d="M731.4121 627.08239 L731.193 634.09471" />
    <path d="M731.41611 652.30606 L731.18899 659.31813" />
    <path d="M731.41166 677.52946 L731.19344 684.54181" />
    <path d="M731.389 702.75237 L731.2161 709.76598" />
    <path d="M731.3379 727.97502 L731.26719 734.99041" />
    <path d="M731.26492 753.19859 L731.34018 760.21393" />
    <path d="M731.20111 778.42339 L731.40399 785.43621" />
    <path d="M731.16842 803.64803 L731.43668 810.65865" />
    <path d="M731.16164 828.87184 L731.44346 835.88193" />
    <path d="M731.16776 854.09514 L731.43734 861.10571" />
    <path d="M731.17834 879.31829 L731.42675 886.32964" />
    <path d="M731.18956 904.54146 L731.41554 911.55356" />
    <path d="M731.19998 929.76468 L731.40512 936.77743" />
    <path d="M713.35077 929.76507 L713.58103 936.77704" />
    <path d="M695.49853 929.76562 L695.75998 936.77649" />
    <path d="M677.64202 929.76641 L677.94319 936.77569" />
    <path d="M659.77926 929.76763 L660.13266 936.77447" />
    <path d="M641.90678 929.76962 L642.33185 936.77248" />
    <path d="M624.01802 929.77318 L624.5473 936.76893" />
    <path d="M606.09887 929.7804 L606.79316 936.76171" />
    <path d="M588.11244 929.79855 L589.10629 936.74355" />
    <path d="M569.92505 929.86714 L571.62039 936.67497" />
    <path d="M550.62076 930.63581 L555.25139 935.90629" />
    <path d="M533.27672 936.2682 L536.92213 930.2739" />
    <path d="M518.0518 929.85307 L516.47376 936.68904" />
    <path d="M498.92475 936.74291 L499.92751 929.7992" />
    <path d="M481.9597 929.78277 L481.21927 936.75934" />
    <path d="M463.45725 936.76645 L464.04843 929.77566" />
    <path d="M446.16377 929.77193 L445.6686 936.77018" />
    <path d="M427.86534 936.77238 L428.29374 929.76972" />
    <path d="M410.4326 929.76831 L410.05319 936.77379" />
    <path d="M392.23523 936.77476 L392.57727 929.76735" />
    <path d="M374.72594 929.76666 L374.41326 936.77544" />
    <path d="M356.58841 936.77595 L356.87749 929.76616" />
    <path d="M339.03119 929.76577 L338.76142 936.77633" />
    <path d="M320.93278 936.77663 L321.18653 929.76547" />
    <path d="M320.90421 911.55194 L321.21511 904.54308" />
    <path d="M339.0599 904.54345 L338.73271 911.55157" />
    <path d="M356.55938 911.55109 L356.90652 904.54393" />
    <path d="M374.75551 904.54457 L374.38369 911.55045" />
    <path d="M392.20485 911.5496 L392.60764 904.54542" />
    <path d="M410.4641 904.54662 L410.02169 911.5484" />
    <path d="M427.83232 911.54666 L428.32676 904.54836" />
    <path d="M446.19879 904.55104 L445.63359 911.54398" />
    <path d="M463.41968 911.53953 L464.086 904.55549" />
    <path d="M482.00026 904.56377 L481.17871 911.53125" />
    <path d="M498.88216 911.51295 L499.9701 904.58207" />
    <path d="M516.4412 911.45782 L518.08435 904.6372" />
    <path d="M533.41141 911.12254 L536.78744 904.97248" />
    <path d="M549.95083 906.20536 L555.92131 909.88966" />
    <path d="M569.716 904.70259 L571.82944 911.39244" />
    <path d="M588.01567 904.59024 L589.20307 911.50478" />
    <path d="M606.04042 904.56316 L606.85162 911.53186" />
    <path d="M623.97792 904.5529 L624.58741 911.54212" />
    <path d="M641.8772 904.548 L642.36143 911.54702" />
    <path d="M659.7564 904.54532 L660.15552 911.5497" />
    <path d="M677.62379 904.5437 L677.96142 911.55132" />
    <path d="M695.48365 904.54266 L695.77486 911.55236" />
    <path d="M713.3384 904.54195 L713.5934 911.55307" />
    <path d="M713.32474 879.31894 L713.60706 886.329" />
    <path d="M695.46676 879.31986 L695.79175 886.32808" />
    <path d="M677.60254 879.32125 L677.98267 886.32669" />
    <path d="M659.72898 879.32345 L660.18294 886.32449" />
    <path d="M641.84058 879.32719 L642.39804 886.32075" />
    <path d="M623.92649 879.33422 L624.63884 886.31371" />
    <path d="M605.9621 879.34963 L606.92993 886.2983" />
    <path d="M587.87801 879.39318 L589.34073 886.25476" />
    <path d="M569.39011 879.60006 L572.15533 886.04788" />
    <path d="M549.4463 882.46811 L556.42585 883.17983" />
    <path d="M533.52963 885.961 L536.66922 879.68694" />
    <path d="M518.11976 879.42239 L516.4058 886.22555" />
    <path d="M498.83119 886.28102 L500.02107 879.36692" />
    <path d="M482.05172 879.34668 L481.12725 886.30125" />
    <path d="M463.36988 886.31088 L464.13579 879.33706" />
    <path d="M446.24694 879.33172 L445.58543 886.31621" />
    <path d="M427.78536 886.31949 L428.37372 879.32845" />
    <path d="M410.51037 879.32631 L409.97541 886.32163" />
    <path d="M392.1588 886.3231 L392.65369 879.32483" />
    <path d="M374.80176 879.32379 L374.33744 886.32415" />
    <path d="M356.51252 886.32491 L356.95338 879.32303" />
    <path d="M339.10776 879.32247 L338.68485 886.32546" />
    <path d="M320.85494 886.32586 L321.26437 879.32207" />
    <path d="M320.74442 861.09411 L321.37489 854.10675" />
    <path d="M339.20797 854.10643 L338.58463 861.09443" />
    <path d="M356.42044 861.09435 L357.04546 854.1065" />
    <path d="M374.88743 854.10698 L374.25176 861.09387" />
    <path d="M392.07814 861.09292 L392.73435 854.10793" />
    <path d="M410.58719 854.10949 L409.8986 861.09136" />
    <path d="M427.71141 861.08893 L428.44768 854.11192" />
    <path d="M446.31883 854.11574 L445.51355 861.08512" />
    <path d="M463.29961 861.0789 L464.20606 854.12196" />
    <path d="M481.05903 861.06796 L482.11993 854.13289" />
    <path d="M498.76866 861.04614 L500.0836 854.15472" />
    <path d="M516.36707 860.99202 L518.15848 854.20884" />
    <path d="M533.63348 860.78731 L536.56537 854.41355" />
    <path d="M549.68268 858.91215 L556.18947 856.28871" />
    <path d="M568.84985 854.66653 L572.6956 860.53432" />
    <path d="M587.67364 854.21966 L589.5451 860.98119" />
    <path d="M605.85577 854.14257 L607.03626 861.05829" />
    <path d="M623.86116 854.11797 L624.70417 861.08288" />
    <path d="M641.7966 854.10743 L642.44203 861.09342" />
    <path d="M659.69766 854.10208 L660.21426 861.09878" />
    <path d="M677.57939 854.09904 L678.00582 861.10182" />
    <path d="M695.44922 854.09718 L695.80929 861.10368" />
    <path d="M713.3112 854.09597 L713.6206 861.10489" />
    <path d="M713.30202 828.87284 L713.62978 835.88093" />
    <path d="M695.43568 828.87436 L695.82283 835.87941" />
    <path d="M677.55941 828.87677 L678.02581 835.877" />
    <path d="M659.66769 828.88088 L660.24423 835.87289" />
    <path d="M641.75015 828.88849 L642.48848 835.86528" />
    <path d="M623.78481 828.90452 L624.78051 835.84925" />
    <path d="M605.71652 828.9457 L607.17552 835.80807" />
    <path d="M587.36498 829.09715 L589.85376 835.65662" />
    <path d="M567.99491 830.2347 L573.55053 834.51907" />
    <path d="M550.31551 834.7088 L555.55664 830.04497" />
    <path d="M536.47421 829.14963 L533.72465 835.60414" />
    <path d="M516.32432 835.7569 L518.20123 828.99687" />
    <path d="M500.16328 828.94734 L498.68899 835.80643" />
    <path d="M480.96196 835.82817 L482.21701 828.9256" />
    <path d="M464.31638 828.91457 L463.18929 835.8392" />
    <path d="M445.38947 835.84499 L446.4429 828.90878" />
    <path d="M428.58834 828.90611 L427.57075 835.84766" />
    <path d="M409.73655 835.84802 L410.74924 828.90575" />
    <path d="M392.92516 828.9076 L391.88733 835.84617" />
    <path d="M374.02075 835.84156 L375.11845 828.91221" />
    <path d="M356.13049 835.83264 L357.33541 828.92113" />
    <path d="M338.20251 835.81546 L339.5901 828.93831" />
    <path d="M320.20341 835.77865 L321.9159 828.97512" />
    <path d="M320.43526 803.70149 L321.68405 810.6052" />
    <path d="M337.87663 803.79694 L339.91598 810.50975" />
    <path d="M354.63471 804.34219 L358.83119 809.96449" />
    <path d="M371.2358 808.24465 L377.9034 806.06203" />
    <path d="M390.63518 810.1813 L394.17731 804.12539" />
    <path d="M409.06577 810.45782 L411.42002 803.84887" />
    <path d="M427.14551 810.53458 L429.01358 803.77211" />
    <path d="M445.09407 810.56352 L446.73831 803.74317" />
    <path d="M462.97395 810.57365 L464.53172 803.73303" />
    <path d="M480.80353 810.57204 L482.37544 803.73465" />
    <path d="M498.58001 810.55764 L500.27225 803.74904" />
    <path d="M516.27627 810.51964 L518.24929 803.78704" />
    <path d="M533.804 810.41326 L536.39486 803.89343" />
    <path d="M550.83387 809.96153 L555.03827 804.34515" />
    <path d="M567.29393 806.70256 L574.25151 807.60412" />
    <path d="M586.96187 804.05642 L590.25687 810.25026" />
    <path d="M605.57782 803.7546 L607.31421 810.55208" />
    <path d="M623.72711 803.68974 L624.83822 810.61694" />
    <path d="M641.72496 803.66771 L642.51366 810.63898" />
    <path d="M659.65794 803.65815 L660.25397 810.64854" />
    <path d="M677.55774 803.65334 L678.02747 810.65335" />
    <path d="M695.43849 803.65066 L695.82002 810.65603" />
    <path d="M713.30737 803.64905 L713.62443 810.65763" />
    <path d="M713.34421 778.42404 L713.5876 785.43556" />
    <path d="M695.48027 778.42509 L695.77824 785.43451" />
    <path d="M677.60543 778.42692 L677.97978 785.43268" />
    <path d="M659.71261 778.43038 L660.19931 785.42922" />
    <path d="M641.78737 778.43767 L642.45125 785.42193" />
    <path d="M623.79578 778.45588 L624.76955 785.40372" />
    <path d="M605.63796 778.51626 L607.25407 785.34334" />
    <path d="M586.89736 778.86807 L590.32138 784.99153" />
    <path d="M567.31619 782.52779 L574.22925 781.33181" />
    <path d="M551.12578 784.93447 L554.74636 778.92513" />
    <path d="M536.329 778.64448 L533.86985 785.21512" />
    <path d="M516.21927 785.27887 L518.30629 778.58073" />
    <path d="M500.45131 778.57508 L498.40095 785.28453" />
    <path d="M480.4319 785.24117 L482.74707 778.61843" />
    <path d="M462.16775 785.05913 L465.33792 778.80047" />
    <path d="M442.92584 783.76365 L448.90654 780.09595" />
    <path d="M425.85836 779.21474 L430.30072 784.64486" />
    <path d="M409.28743 778.55456 L411.19835 785.30505" />
    <path d="M391.85781 778.46507 L392.95469 785.39454" />
    <path d="M374.20529 778.4409 L374.9339 785.41871" />
    <path d="M356.47016 778.43178 L356.99574 785.42782" />
    <path d="M338.6964 778.42763 L339.0962 785.43197" />
    <path d="M320.90183 778.42548 L321.21749 785.43412" />
    <path d="M338.94395 760.21381 L338.84865 753.19871" />
    <path d="M356.67405 753.19888 L356.79185 760.21364" />
    <path d="M374.49484 753.19918 L374.64435 760.21334" />
    <path d="M392.30803 753.19976 L392.50446 760.21276" />
    <path d="M410.10763 753.20099 L410.37815 760.21152" />
    <path d="M427.87999 753.20407 L428.27909 760.20845" />
    <path d="M445.58704 753.21386 L446.24534 760.19866" />
    <path d="M463.07712 753.26408 L464.42855 760.14844" />
    <path d="M479.11112 754.22374 L484.06785 759.18878" />
    <path d="M497.62153 759.71435 L501.23073 753.69817" />
    <path d="M516.12332 760.02391 L518.40224 753.38861" />
    <path d="M533.89383 760.00046 L536.30502 753.41206" />
    <path d="M550.61063 759.33257 L555.26151 754.07995" />
    <path d="M569.13728 753.60295 L572.40816 759.80957" />
    <path d="M588.06353 753.24111 L589.1552 760.17141" />
    <path d="M606.15998 753.21007 L606.73205 760.20245" />
    <path d="M624.10321 753.20298 L624.46212 760.20954" />
    <path d="M641.99519 753.20058 L642.24343 760.21194" />
    <path d="M659.86462 753.19957 L660.0473 760.21294" />
    <path d="M677.72241 753.19909 L677.86281 760.21343" />
    <path d="M695.57354 753.19883 L695.68497 760.21369" />
    <path d="M713.42057 753.19868 L713.51124 760.21384" />
    <path d="M713.50797 727.9751 L713.42383 734.99034" />
    <path d="M695.68012 727.97521 L695.57839 734.99022" />
    <path d="M677.85528 727.9754 L677.72993 734.99003" />
    <path d="M660.03496 727.97573 L659.87696 734.9897" />
    <path d="M642.22171 727.97634 L642.01692 734.9891" />
    <path d="M624.42001 727.97753 L624.14532 734.9879" />
    <path d="M606.63822 727.98011 L606.25381 734.98532" />
    <path d="M588.89252 727.98629 L588.32622 734.97914" />
    <path d="M571.21338 728.00263 L570.33207 734.9628" />
    <path d="M553.64157 728.04652 L552.23058 734.91892" />
    <path d="M536.12597 728.12841 L534.07288 734.83703" />
    <path d="M518.34337 728.14543 L516.18219 734.82001" />
    <path d="M500.21495 728.06468 L498.63731 734.90075" />
    <path d="M482.08546 728.01008 L481.09351 734.95535" />
    <path d="M464.06775 727.98901 L463.43792 734.97643" />
    <path d="M446.12699 727.98118 L445.70539 734.98425" />
    <path d="M428.22836 727.978 L427.93072 734.98743" />
    <path d="M410.35275 727.97656 L410.13303 734.98887" />
    <path d="M392.49034 727.97585 L392.32215 734.98958" />
    <path d="M374.63588 727.97547 L374.50332 734.98996" />
    <path d="M356.78646 727.97525 L356.67944 734.99018" />
    <path d="M338.94036 727.97512 L338.85224 734.99031" />
    <path d="M321.09654 727.97504 L321.02277 734.9904" />
    <path d="M321.02029 753.19861 L321.09903 760.21391" />
    <path d="M338.74729 709.76388 L339.04531 702.75447" />
    <path d="M321.18396 702.7535 L320.93535 709.76485" />
    <path d="M338.52094 684.52337 L339.27167 677.5479" />
    <path d="M321.3628 677.54088 L320.75651 684.53038" />
    <path d="M336.4696 658.34513 L341.32301 653.27905" />
    <path d="M353.34121 656.70724 L360.12469 654.91694" />
    <path d="M377.91773 656.8586 L371.22147 654.76558" />
    <path d="M389.5131 653.82843 L395.29939 657.79575" />
    <path d="M412.90869 658.09216 L407.5771 653.53202" />
    <path d="M425.36909 653.58529 L430.78999 658.03889" />
    <path d="M448.9448 657.58203 L442.88758 654.04215" />
    <path d="M460.2807 655.31266 L467.22497 656.31152" />
    <path d="M484.72685 654.24298 L478.45212 657.3812" />
    <path d="M483.40741 678.03558 L479.77156 684.03569" />
    <path d="M465.60474 678.05643 L461.90093 684.01483" />
    <path d="M447.58288 677.949 L444.2495 684.12227" />
    <path d="M429.43838 677.80164 L426.7207 684.26963" />
    <path d="M411.29137 677.68811 L409.19442 684.38315" />
    <path d="M393.20253 677.61933 L391.60996 684.45193" />
    <path d="M375.17859 677.58103 L373.96061 684.49024" />
    <path d="M357.2065 677.55987 L356.2594 684.5114" />
    <path d="M356.91436 702.756 L356.55154 709.76236" />
    <path d="M374.79433 702.75851 L374.34486 709.75984" />
    <path d="M392.6901 702.7628 L392.12239 709.75555" />
    <path d="M410.60887 702.77044 L409.87691 709.74791" />
    <path d="M428.56065 702.78445 L427.59843 709.7339" />
    <path d="M446.55645 702.81023 L445.27592 709.70812" />
    <path d="M464.59849 702.85476 L462.90718 709.66359" />
    <path d="M482.65414 702.91677 L480.52482 709.60158" />
    <path d="M500.63358 702.96566 L498.21869 709.55269" />
    <path d="M518.44614 702.95693 L516.07942 709.56142" />
    <path d="M536.10886 702.89968 L534.08999 709.61867" />
    <path d="M553.72366 702.84086 L552.14848 709.67749" />
    <path d="M571.36605 702.80184 L570.17939 709.71651" />
    <path d="M589.0561 702.77986 L588.16264 709.73849" />
    <path d="M606.78748 702.76796 L606.10456 709.75039" />
    <path d="M624.54896 702.76142 L624.01637 709.75693" />
    <path d="M642.33126 702.75771 L641.90736 709.76064" />
    <path d="M660.12787 702.75552 L659.78404 709.76283" />
    <path d="M677.93442 702.75417 L677.65079 709.76418" />
    <path d="M695.748 702.75331 L695.51051 709.76504" />
    <path d="M713.56664 702.75275 L713.36516 709.7656" />
    <path d="M713.59064 677.52998 L713.34117 684.54129" />
    <path d="M695.77313 677.53071 L695.48538 684.54056" />
    <path d="M677.96024 677.53177 L677.62498 684.5395" />
    <path d="M660.15351 677.53333 L659.7584 684.53794" />
    <path d="M642.35517 677.5357 L641.88345 684.53557" />
    <path d="M624.56843 677.53942 L623.9969 684.53185" />
    <path d="M606.79803 677.54547 L606.094 684.5258" />
    <path d="M589.051 677.55567 L588.16774 684.5156" />
    <path d="M571.33754 677.57353 L570.2079 684.49774" />
    <path d="M553.67145 677.60571 L552.2007 684.46556" />
    <path d="M536.06732 677.66393 L534.13153 684.40733" />
    <path d="M518.52726 677.76359 L515.9983 684.30768" />
    <path d="M501.00972 677.90555 L497.84254 684.16572" />
    <path d="M515.91279 659.04979 L518.61277 652.57439" />
    <path d="M534.17312 659.19545 L536.02573 652.42873" />
    <path d="M553.60975 652.36951 L552.2624 659.25467" />
    <path d="M571.28522 652.34186 L570.26022 659.28233" />
    <path d="M589.01288 652.3275 L588.20586 659.29668" />
    <path d="M606.77233 652.31943 L606.1197 659.30476" />
    <path d="M624.55223 652.31459 L624.0131 659.30959" />
    <path d="M642.34589 652.31154 L641.89273 659.31264" />
    <path d="M660.14918 652.30954 L659.76274 659.31464" />
    <path d="M677.95939 652.30818 L677.62583 659.316" />
    <path d="M695.77472 652.30723 L695.48379 659.31695" />
    <path d="M713.59392 652.30655 L713.33788 659.31763" />
    <path d="M713.58825 627.08281 L713.34355 634.09429" />
    <path d="M695.76694 627.08338 L695.49157 634.09372" />
    <path d="M677.9489 627.08416 L677.63631 634.09294" />
    <path d="M660.13521 627.08526 L659.77671 634.09184" />
    <path d="M642.32745 627.08686 L641.91117 634.09024" />
    <path d="M624.52802 627.08927 L624.03731 634.08783" />
    <path d="M606.74078 627.09308 L606.15125 634.08402" />
    <path d="M588.97232 627.0995 L588.24642 634.0776" />
    <path d="M571.23477 627.11124 L570.31067 634.06586" />
    <path d="M553.55307 627.13536 L552.31908 634.04174" />
    <path d="M535.98647 627.19468 L534.21238 633.98242" />
    <path d="M518.707 627.39177 L515.81856 633.78533" />
    <path d="M502.22011 628.46749 L496.63216 632.70961" />
    <path d="M484.67997 632.24809 L478.499 628.92901" />
    <path d="M465.55108 633.60044 L461.9546 627.57665" />
    <path d="M447.15278 633.87124 L444.6796 627.30586" />
    <path d="M429.04934 633.9597 L427.10974 627.2174" />
    <path d="M411.06662 633.99834 L409.41916 627.17876" />
    <path d="M393.14459 634.01784 L391.6679 627.15926" />
    <path d="M375.25868 634.02808 L373.88051 627.14902" />
    <path d="M357.39786 634.03283 L356.06805 627.14427" />
    <path d="M339.55746 634.03355 L338.23515 627.14355" />
    <path d="M321.73681 634.03044 L320.3825 627.14665" />
    <path d="M321.37424 608.85875 L320.74507 601.87127" />
    <path d="M338.56556 601.87276 L339.22704 608.85725" />
    <path d="M357.08611 608.85506 L356.37979 601.87496" />
    <path d="M374.18544 601.87823 L374.95375 608.85178" />
    <path d="M392.83391 608.84671 L391.97858 601.8833" />
    <path d="M409.75205 601.89164 L410.73373 608.83837" />
    <path d="M428.66747 608.82326 L427.49161 601.90675" />
    <path d="M445.16453 601.93861 L446.66785 608.7914" />
    <path d="M464.8281 608.70402 L462.67758 602.026" />
    <path d="M479.66392 602.43288 L483.51505 608.29714" />
    <path d="M502.87281 604.71264 L495.97945 606.01738" />
    <path d="M518.81247 602.218 L515.71309 608.51201" />
    <path d="M535.94988 601.96179 L534.24897 608.76823" />
    <path d="M553.50338 601.90331 L552.36877 608.8267" />
    <path d="M571.19075 601.88213 L570.3547 608.84788" />
    <path d="M588.93606 601.87238 L588.28268 608.85764" />
    <path d="M606.71141 601.86719 L606.18062 608.86283" />
    <path d="M624.50427 601.86414 L624.06106 608.86587" />
    <path d="M642.30819 601.86222 L641.93043 608.86779" />
    <path d="M660.11953 601.86095 L659.79239 608.86907" />
    <path d="M677.93608 601.86007 L677.64913 608.86995" />
    <path d="M695.75643 601.85944 L695.50208 608.87058" />
    <path d="M713.57962 601.85898 L713.35218 608.87104" />
    <path d="M713.57058 576.63515 L713.36122 583.64778" />
    <path d="M695.74585 576.63553 L695.51266 583.6474" />
    <path d="M677.92362 576.63604 L677.66159 583.64689" />
    <path d="M660.10478 576.63675 L659.80714 583.64618" />
    <path d="M642.29061 576.63778 L641.94801 583.64515" />
    <path d="M624.48316 576.63933 L624.08217 583.6436" />
    <path d="M606.68587 576.6418 L606.20616 583.64113" />
    <path d="M588.90501 576.64607 L588.31373 583.63686" />
    <path d="M571.15319 576.65429 L570.39225 583.62864" />
    <path d="M553.46025 576.67298 L552.4119 583.60996" />
    <path d="M535.91591 576.72994 L534.28294 583.55299" />
    <path d="M518.93148 577.05592 L515.59407 583.22701" />
    <path d="M502.71534 581.3606 L496.13692 578.92233" />
    <path d="M482.90094 583.39497 L480.27803 576.88796" />
    <path d="M464.51679 583.56514 L462.98888 576.71779" />
    <path d="M446.45999 583.60693 L445.37238 576.676" />
    <path d="M428.50653 583.62325 L427.65255 576.65968" />
    <path d="M410.59805 583.63131 L409.88774 576.65162" />
    <path d="M392.71308 583.63589 L392.09942 576.64704" />
    <path d="M374.84193 583.63875 L374.29726 576.64418" />
    <path d="M356.97963 583.64066 L356.48627 576.64228" />
    <path d="M339.12333 583.64199 L338.66928 576.64095" />
    <path d="M320.84801 576.63998 L321.27131 583.64295" />
    <path d="M322.61156 652.66618 L319.50775 658.958" />
    <path d="M497.33567 658.62903 L501.51659 652.99515" />
  </g>
</svg>