<?xml version="1.0" standalone="no"?>
<!DOCTYPE svg PUBLIC "-//W3C//DTD SVG 1.1//EN" 
    "http://www.w3.org/Graphics/SVG/1.1/DTD/svg11.dtd">
<svg width="29.7cm" height="42cm"
    xmlns="http://www.w3.org/2000/svg" version="1.1" viewBox="0 0 1052.3622 1488.18898">
  <g fill="none" stroke="black" stroke-width="0.1cm" stroke-linejoin="round" stroke-linecap="round">
    <path d="M317.55178 554.91647 L324.56753 554.91937" />
    <path d="M335.38843 554.91551 L342.40418 554.92034" />
    <path d="M353.22508 554.9139 L360.24082 554.92194" />
    <path d="M371.06173 554.91123 L378.07747 554.92462" />
    <path d="M388.89839 554.90678 L395.9141 554.92907" />
    <path d="M406.73507 554.89938 L413.75072 554.93647" />
    <path d="M424.5718 554.88707 L431.58728 554.94878" />
    <path d="M442.40869 554.86662 L449.42369 554.96923" />
    <path d="M460.246 554.83269 L467.25967 555.00315" />
    <path d="M478.08446 554.77651 L485.09451 555.05934" />
    <path d="M495.92608 554.68374 L502.92618 555.15211" />
    <path d="M513.77625 554.53151 L520.74931 555.30433" />
    <path d="M531.64907 554.28531 L538.54979 555.55054" />
    <path d="M549.57886 553.90091 L556.29328 555.93494" />
    <path d="M567.6351 553.34933 L573.91034 556.48652" />
    <path d="M585.90238 552.68692 L591.31636 557.14892" />
    <path d="M604.36546 552.09366 L608.52657 557.74219" />
    <path d="M622.8496 551.71613 L625.71573 558.11972" />
    <path d="M641.19836 551.5331 L643.04027 558.30275" />
    <path d="M660.52859 558.37874 L659.38333 551.4571" />
    <path d="M677.44133 551.42768 L678.14388 558.40816" />
    <path d="M695.84363 558.41924 L695.41488 551.41661" />
    <path d="M713.33533 551.41248 L713.59648 558.42337" />
    <path d="M731.38202 558.4249 L731.22308 551.41095" />
    <path d="M731.23137 576.63431 L731.37373 583.64862" />
    <path d="M731.23964 601.8577 L731.36546 608.87232" />
    <path d="M731.24787 627.0811 L731.35723 634.096" />
    <path d="M731.25603 652.30453 L731.34907 659.31966" />
    <path d="M731.2641 677.52797 L731.341 684.5433" />
    <path d="M731.27205 702.75143 L731.33305 709.76692" />
    <path d="M731.27985 727.97492 L731.32525 734.99052" />
    <path d="M731.2875 753.19842 L731.3176 760.2141" />
    <path d="M731.29498 778.42194 L731.31012 785.43767" />
    <path d="M731.30232 803.64547 L731.30278 810.66122" />
    <path d="M731.30255 828.86901 L731.30255 835.88476" />
    <path d="M731.30255 854.09255 L731.30255 861.1083" />
    <path d="M731.30255 879.3161 L731.30255 886.33184" />
    <path d="M731.30255 904.53964 L731.30255 911.55539" />
    <path d="M731.30255 929.76318 L731.30255 936.77893" />
    <path d="M713.4659 929.76318 L713.4659 936.77893" />
    <path d="M695.62925 929.76318 L695.62925 936.77893" />
    <path d="M677.79261 929.76318 L677.79261 936.77893" />
    <path d="M659.95596 929.76318 L659.95596 936.77893" />
    <path d="M642.11931 929.76318 L642.11931 936.77893" />
    <path d="M624.28266 929.76318 L624.28266 936.77893" />
    <path d="M606.44602 929.76318 L606.44602 936.77893" />
    <path d="M588.60937 929.76318 L588.60937 936.77893" />
    <path d="M570.77272 929.76318 L570.77272 936.77893" />
    <path d="M552.93607 929.76318 L552.93607 936.77893" />
    <path d="M535.09943 929.76318 L535.09943 936.77893" />
    <path d="M517.26278 929.76318 L517.26278 936.77893" />
    <path d="M499.42613 929.76318 L499.42613 936.77893" />
    <path d="M481.58948 929.76318 L481.58948 936.77893" />
    <path d="M463.75284 929.76318 L463.75284 936.77893" />
    <path d="M445.91619 929.76318 L445.91619 936.77893" />
    <path d="M428.07954 929.76318 L428.07954 936.77893" />
    <path d="M410.24289 929.76318 L410.24289 936.77893" />
    <path d="M392.40625 929.76318 L392.40625 936.77893" />
    <path d="M374.5696 929.76318 L374.5696 936.77893" />
    <path d="M356.73295 929.76318 L356.73295 936.77893" />
    <path d="M338.8963 929.76318 L338.8963 936.77893" />
    <path d="M321.05966 929.76318 L321.05966 936.77893" />
    <path d="M338.8963 911.55539 L338.8963 904.53964" />
    <path d="M321.05966 904.53964 L321.05966 911.55539" />
    <path d="M338.8963 886.33184 L338.8963 879.3161" />
    <path d="M321.05966 879.3161 L321.05966 886.33184" />
    <path d="M338.8963 861.1083 L338.8963 854.09255" />
    <path d="M321.05966 854.09255 L321.05966 861.1083" />
    <path d="M338.8963 835.88476 L338.8963 828.86901" />
    <path d="M321.05966 828.86901 L321.05966 835.88476" />
    <path d="M317.58697 806.65772 L324.53234 807.64896" />
    <path d="M338.8963 803.64547 L338.8963 810.66122" />
    <path d="M356.73295 803.64547 L356.73295 810.66122" />
    <path d="M356.73295 828.86901 L356.73295 835.88476" />
    <path d="M356.73295 854.09255 L356.73295 861.1083" />
    <path d="M356.73295 879.3161 L356.73295 886.33184" />
    <path d="M356.73295 904.53964 L356.73295 911.55539" />
    <path d="M374.5696 904.53964 L374.5696 911.55539" />
    <path d="M392.40625 904.53964 L392.40625 911.55539" />
    <path d="M410.24289 904.53964 L410.24289 911.55539" />
    <path d="M428.07954 904.53964 L428.07954 911.55539" />
    <path d="M445.91619 904.53964 L445.91619 911.55539" />
    <path d="M463.75284 904.53964 L463.75284 911.55539" />
    <path d="M481.58948 904.53964 L481.58948 911.55539" />
    <path d="M499.42613 904.53964 L499.42613 911.55539" />
    <path d="M517.26278 904.53964 L517.26278 911.55539" />
    <path d="M535.09943 904.53964 L535.09943 911.55539" />
    <path d="M552.93607 904.53964 L552.93607 911.55539" />
    <path d="M570.77272 904.53964 L570.77272 911.55539" />
    <path d="M588.60937 904.53964 L588.60937 911.55539" />
    <path d="M606.44602 904.53964 L606.44602 911.55539" />
    <path d="M624.28266 904.53964 L624.28266 911.55539" />
    <path d="M642.11931 904.53964 L642.11931 911.55539" />
    <path d="M659.95596 904.53964 L659.95596 911.55539" />
    <path d="M677.79261 904.53964 L677.79261 911.55539" />
    <path d="M695.62925 904.53964 L695.62925 911.55539" />
    <path d="M713.4659 904.53964 L713.4659 911.55539" />
    <path d="M713.4659 879.3161 L713.4659 886.33184" />
    <path d="M695.62925 879.3161 L695.62925 886.33184" />
    <path d="M677.79261 879.3161 L677.79261 886.33184" />
    <path d="M659.95596 879.3161 L659.95596 886.33184" />
    <path d="M642.11931 879.3161 L642.11931 886.33184" />
    <path d="M624.28266 879.3161 L624.28266 886.33184" />
    <path d="M606.44602 879.3161 L606.44602 886.33184" />
    <path d="M588.60937 879.3161 L588.60937 886.33184" />
    <path d="M570.77272 879.3161 L570.77272 886.33184" />
    <path d="M552.93607 879.3161 L552.93607 886.33184" />
    <path d="M535.09943 879.3161 L535.09943 886.33184" />
    <path d="M517.26278 879.3161 L517.26278 886.33184" />
    <path d="M499.42613 879.3161 L499.42613 886.33184" />
    <path d="M481.58948 879.3161 L481.58948 886.33184" />
    <path d="M463.75284 879.3161 L463.75284 886.33184" />
    <path d="M445.91619 879.3161 L445.91619 886.33184" />
    <path d="M428.07954 879.3161 L428.07954 886.33184" />
    <path d="M410.24289 879.3161 L410.24289 886.33184" />
    <path d="M392.40625 879.3161 L392.40625 886.33184" />
    <path d="M374.5696 879.3161 L374.5696 886.33184" />
    <path d="M392.40625 861.1083 L392.40625 854.09255" />
    <path d="M374.5696 854.09255 L374.5696 861.1083" />
    <path d="M392.40625 835.88476 L392.40625 828.86901" />
    <path d="M374.5696 828.86901 L374.5696 835.88476" />
    <path d="M392.40625 810.66122 L392.40625 803.64547" />
    <path d="M374.5696 803.64547 L374.5696 810.66122" />
    <path d="M371.06367 781.81302 L378.07553 782.04658" />
    <path d="M388.90863 781.66178 L395.90387 782.19783" />
    <path d="M406.82093 781.15822 L413.66486 782.70139" />
    <path d="M427.01927 778.586 L429.13981 785.2736" />
    <path d="M445.91619 778.42193 L445.91619 785.43768" />
    <path d="M445.91619 803.64547 L445.91619 810.66122" />
    <path d="M463.75284 810.66122 L463.75284 803.64547" />
    <path d="M481.58948 803.64547 L481.58948 810.66122" />
    <path d="M481.58948 828.86901 L481.58948 835.88476" />
    <path d="M499.42613 835.88476 L499.42613 828.86901" />
    <path d="M517.26278 828.86901 L517.26278 835.88476" />
    <path d="M517.26278 854.09255 L517.26278 861.1083" />
    <path d="M535.09943 861.1083 L535.09943 854.09255" />
    <path d="M552.93607 854.09255 L552.93607 861.1083" />
    <path d="M570.77272 854.09255 L570.77272 861.1083" />
    <path d="M588.60937 854.09255 L588.60937 861.1083" />
    <path d="M606.44602 854.09255 L606.44602 861.1083" />
    <path d="M624.28266 854.09255 L624.28266 861.1083" />
    <path d="M642.11931 854.09255 L642.11931 861.1083" />
    <path d="M659.95596 854.09255 L659.95596 861.1083" />
    <path d="M677.79261 854.09255 L677.79261 861.1083" />
    <path d="M695.62925 854.09255 L695.62925 861.1083" />
    <path d="M713.4659 854.09255 L713.4659 861.1083" />
    <path d="M713.4659 828.86901 L713.4659 835.88476" />
    <path d="M695.62925 828.86901 L695.62925 835.88476" />
    <path d="M677.79261 828.86901 L677.79261 835.88476" />
    <path d="M659.95596 828.86901 L659.95596 835.88476" />
    <path d="M642.11931 828.86901 L642.11931 835.88476" />
    <path d="M624.28266 828.86901 L624.28266 835.88476" />
    <path d="M606.44602 828.86901 L606.44602 835.88476" />
    <path d="M588.60937 828.86901 L588.60937 835.88476" />
    <path d="M570.77272 828.86901 L570.77272 835.88476" />
    <path d="M552.93607 828.86901 L552.93607 835.88476" />
    <path d="M535.09943 828.86901 L535.09943 835.88476" />
    <path d="M552.93607 810.66122 L552.93607 803.64547" />
    <path d="M570.77272 803.64547 L570.77272 810.66122" />
    <path d="M588.60937 803.64547 L588.60937 810.66122" />
    <path d="M606.44602 803.64547 L606.44602 810.66122" />
    <path d="M624.28266 803.64547 L624.28266 810.66122" />
    <path d="M642.11931 803.64547 L642.11931 810.66122" />
    <path d="M659.95596 803.64547 L659.95596 810.66122" />
    <path d="M677.79261 803.64547 L677.79261 810.66122" />
    <path d="M695.62925 803.64547 L695.62925 810.66122" />
    <path d="M713.4659 803.64547 L713.4659 810.66122" />
    <path d="M713.45494 778.42194 L713.47687 785.43766" />
    <path d="M695.61393 778.42196 L695.64458 785.43764" />
    <path d="M677.77238 778.42199 L677.81283 785.43762" />
    <path d="M659.9319 778.42201 L659.98002 785.43759" />
    <path d="M642.09693 778.422 L642.14169 785.4376" />
    <path d="M624.27828 778.42193 L624.28704 785.43767" />
    <path d="M606.44602 778.42193 L606.44602 785.43768" />
    <path d="M588.60937 778.42193 L588.60937 785.43768" />
    <path d="M570.77272 778.42193 L570.77272 785.43768" />
    <path d="M552.93607 778.42193 L552.93607 785.43768" />
    <path d="M535.09943 778.42193 L535.09943 785.43768" />
    <path d="M535.09943 803.64547 L535.09943 810.66122" />
    <path d="M517.26278 803.64547 L517.26278 810.66122" />
    <path d="M499.42613 803.64547 L499.42613 810.66122" />
    <path d="M517.26278 785.43768 L517.26278 778.42193" />
    <path d="M499.42613 778.42193 L499.42613 785.43768" />
    <path d="M481.58948 778.42193 L481.58948 785.43768" />
    <path d="M463.75284 778.42193 L463.75284 785.43768" />
    <path d="M481.58948 760.21413 L481.58948 753.19839" />
    <path d="M499.42613 753.19839 L499.42613 760.21413" />
    <path d="M517.26278 753.19839 L517.26278 760.21413" />
    <path d="M535.09943 753.19839 L535.09943 760.21413" />
    <path d="M552.93607 753.19839 L552.93607 760.21413" />
    <path d="M570.77272 753.19839 L570.77272 760.21413" />
    <path d="M588.47066 753.20113 L588.74807 760.21139" />
    <path d="M606.27365 753.20262 L606.61839 760.2099" />
    <path d="M624.13518 753.20149 L624.43014 760.21103" />
    <path d="M642.00822 753.20014 L642.2304 760.21237" />
    <path d="M659.8774 753.19926 L660.03452 760.21325" />
    <path d="M677.73908 753.19879 L677.84614 760.21372" />
    <path d="M695.59365 753.19857 L695.66486 760.21395" />
    <path d="M713.44261 753.19846 L713.4892 760.21406" />
    <path d="M713.42996 727.97503 L713.50184 734.99041" />
    <path d="M695.57273 727.9753 L695.68578 734.99014" />
    <path d="M677.70449 727.97595 L677.88072 734.98948" />
    <path d="M659.82023 727.97747 L660.09169 734.98796" />
    <path d="M641.91381 727.98087 L642.32482 734.98457" />
    <path d="M623.97951 727.98797 L624.58582 734.97747" />
    <path d="M606.01746 728.00112 L606.87457 734.96431" />
    <path d="M588.04902 728.01989 L589.16971 734.94555" />
    <path d="M570.16013 728.02875 L571.38531 734.93669" />
    <path d="M552.648 727.98669 L553.22415 734.97874" />
    <path d="M535.09943 727.97484 L535.09943 734.99059" />
    <path d="M517.26278 727.97484 L517.26278 734.99059" />
    <path d="M498.19999 728.19611 L500.65227 734.76932" />
    <path d="M478.39663 730.02983 L484.78234 732.9356" />
    <path d="M460.3018 730.85381 L467.20387 732.11163" />
    <path d="M460.94007 754.61019 L466.5656 758.80233" />
    <path d="M442.48954 755.95576 L449.34284 757.45676" />
    <path d="M424.58692 756.37947 L431.57216 757.03305" />
    <path d="M406.73863 756.54715 L413.74716 756.86537" />
    <path d="M388.89934 756.62396 L395.91315 756.78856" />
    <path d="M371.062 756.66211 L378.07719 756.7504" />
    <path d="M353.22516 756.68201 L360.24074 756.73051" />
    <path d="M335.38846 756.69271 L342.40415 756.71981" />
    <path d="M317.55179 756.6986 L324.56752 756.71392" />
    <path d="M317.55181 781.91457 L324.5675 781.94503" />
    <path d="M335.38855 781.90102 L342.40406 781.95858" />
    <path d="M353.22553 781.87345 L360.24037 781.98615" />
    <path d="M353.22511 731.46744 L360.24079 731.49799" />
    <path d="M371.06183 731.4559 L378.07737 731.50953" />
    <path d="M388.8987 731.4351 L395.9138 731.53033" />
    <path d="M406.73607 731.39675 L413.74971 731.56868" />
    <path d="M424.57527 731.32367 L431.58381 731.64177" />
    <path d="M442.42168 731.17682 L449.4107 731.78862" />
    <path d="M442.4131 706.07606 L449.41928 706.44229" />
    <path d="M460.26098 705.92429 L467.24469 706.59406" />
    <path d="M478.13774 705.63413 L485.04122 706.88422" />
    <path d="M496.11699 705.09523 L502.73527 707.42312" />
    <path d="M514.34853 704.30665 L520.17702 708.2117" />
    <path d="M532.7496 703.65466 L537.44925 708.86369" />
    <path d="M551.07061 703.28845 L554.80154 709.2299" />
    <path d="M569.34472 703.05512 L572.20073 709.46323" />
    <path d="M587.57838 702.90623 L589.64036 709.61212" />
    <path d="M605.73781 702.82353 L607.15422 709.69482" />
    <path d="M623.8125 702.78295 L624.75282 709.7354" />
    <path d="M641.81395 702.76462 L642.42467 709.75373" />
    <path d="M659.76044 702.75675 L660.15148 709.7616" />
    <path d="M677.66863 702.75349 L677.91658 709.76486" />
    <path d="M695.55119 702.75217 L695.70732 709.76618" />
    <path d="M713.41701 702.75164 L713.5148 709.76671" />
    <path d="M713.40377 677.52831 L713.52804 684.54296" />
    <path d="M695.5291 677.52919 L695.72941 684.54208" />
    <path d="M677.63171 677.53145 L677.95351 684.53982" />
    <path d="M659.69861 677.53721 L660.21331 684.53405" />
    <path d="M641.71037 677.55168 L642.52825 684.51959" />
    <path d="M623.63981 677.58717 L624.92552 684.4841" />
    <path d="M605.45483 677.67071 L607.4372 684.40056" />
    <path d="M587.13487 677.85271 L590.08387 684.21856" />
    <path d="M568.71012 678.19823 L572.83532 683.87304" />
    <path d="M550.2928 678.72949 L555.57935 683.34178" />
    <path d="M532.01751 679.36023 L538.18134 682.71103" />
    <path d="M513.93022 679.94053 L520.59533 682.13074" />
    <path d="M495.98163 680.37187 L502.87063 681.6994" />
    <path d="M478.10303 680.64856 L485.07594 681.42271" />
    <path d="M460.25205 680.81278 L467.25362 681.25848" />
    <path d="M442.41066 680.9074 L449.42172 681.16387" />
    <path d="M424.57245 680.96156 L431.58663 681.1097" />
    <path d="M406.73528 680.99264 L413.7505 681.07862" />
    <path d="M388.89846 681.01057 L395.91403 681.0607" />
    <path d="M371.06175 681.02096 L378.07744 681.05031" />
    <path d="M353.22509 681.02701 L360.24081 681.04425" />
    <path d="M335.38843 681.03056 L342.40417 681.04071" />
    <path d="M317.55178 681.03263 L324.56753 681.03863" />
    <path d="M317.55178 706.25539 L324.56753 706.26296" />
    <path d="M335.38844 706.25272 L342.40417 706.26563" />
    <path d="M353.22509 706.24812 L360.24081 706.27024" />
    <path d="M371.06178 706.24012 L378.07742 706.27823" />
    <path d="M388.89853 706.22614 L395.91396 706.29221" />
    <path d="M406.73549 706.20143 L413.75029 706.31692" />
    <path d="M424.57315 706.1571 L431.58593 706.36125" />
    <path d="M424.57214 655.75427 L431.58694 655.86991" />
    <path d="M442.40969 655.71387 L449.42269 655.91032" />
    <path d="M460.24893 655.64528 L467.25674 655.9789" />
    <path d="M478.09299 655.52974 L485.08598 656.09444" />
    <path d="M495.95039 655.33839 L502.90187 656.28579" />
    <path d="M513.8427 655.0322 L520.68286 656.59199" />
    <path d="M531.81733 654.57395 L538.38153 657.05024" />
    <path d="M549.95078 653.97003 L555.92137 657.65415" />
    <path d="M568.29299 653.33094 L573.25245 658.29324" />
    <path d="M586.76214 652.82999 L590.4566 658.79419" />
    <path d="M605.18663 652.53808 L607.7054 659.0861" />
    <path d="M623.46774 652.40019 L625.09759 659.22399" />
    <path d="M641.60528 652.34208 L642.63334 659.2821" />
    <path d="M659.63553 652.31888 L660.27638 659.3053" />
    <path d="M677.59403 652.30984 L677.99118 659.31434" />
    <path d="M695.50659 652.30636 L695.75191 659.31782" />
    <path d="M713.3903 652.30503 L713.5415 659.31915" />
    <path d="M713.37667 627.08181 L713.55513 634.09529" />
    <path d="M695.48381 627.08369 L695.7747 634.09341" />
    <path d="M677.55592 627.08867 L678.02929 634.08843" />
    <path d="M659.57199 627.10175 L660.33993 634.07535" />
    <path d="M641.50052 627.13568 L642.7381 634.04141" />
    <path d="M623.3008 627.22089 L625.26453 633.95621" />
    <path d="M604.94244 627.41925 L607.94959 633.75785" />
    <path d="M586.46451 627.81281 L590.75423 633.36429" />
    <path d="M568.02406 628.40909 L573.52138 632.76801" />
    <path d="M549.77881 629.05987 L556.09334 632.11723" />
    <path d="M531.73424 629.59824 L538.46461 631.57886" />
    <path d="M513.80912 629.97419 L520.71644 631.20291" />
    <path d="M495.93815 630.21554 L502.91412 630.96156" />
    <path d="M478.08877 630.36453 L485.0902 630.81257" />
    <path d="M460.24751 630.45478 L467.25816 630.72232" />
    <path d="M442.40922 630.5089 L449.42316 630.6682" />
    <path d="M424.57199 630.54118 L431.5871 630.63592" />
    <path d="M406.73513 630.56039 L413.75065 630.61671" />
    <path d="M388.89841 630.5718 L395.91408 630.60529" />
    <path d="M371.06174 630.57859 L378.07746 630.59851" />
    <path d="M353.22508 630.58262 L360.24082 630.59448" />
    <path d="M335.38843 630.58501 L342.40418 630.59208" />
    <path d="M317.55178 630.58644 L324.56753 630.59066" />
    <path d="M317.55178 655.80961 L324.56753 655.81457" />
    <path d="M335.38843 655.80792 L342.40417 655.81626" />
    <path d="M353.22508 655.80505 L360.24082 655.81913" />
    <path d="M371.06174 655.80021 L378.07745 655.82397" />
    <path d="M388.89843 655.79199 L395.91406 655.83219" />
    <path d="M406.73518 655.77803 L413.7506 655.84616" />
    <path d="M406.7351 605.34101 L413.75069 605.389" />
    <path d="M424.5719 605.32487 L431.58719 605.40515" />
    <path d="M442.40896 605.29789 L449.42342 605.43212" />
    <path d="M460.24675 605.25294 L467.25892 605.47708" />
    <path d="M478.08658 605.17828 L485.09238 605.55174" />
    <path d="M495.93198 605.05507 L502.92029 605.67494" />
    <path d="M513.7923 604.85419 L520.73326 605.87582" />
    <path d="M531.69114 604.5351 L538.50771 606.19492" />
    <path d="M549.68088 604.05775 L556.19126 606.67226" />
    <path d="M567.8457 603.43168 L573.69974 607.29833" />
    <path d="M586.23077 602.78675 L590.98797 607.94327" />
    <path d="M604.72489 602.30839 L608.16715 608.42162" />
    <path d="M623.14148 602.04795 L625.42385 608.68207" />
    <path d="M641.39734 601.93223 L642.84128 608.79778" />
    <path d="M659.50854 601.88578 L660.40337 608.84423" />
    <path d="M677.51765 601.86793 L678.06756 608.86209" />
    <path d="M695.46086 601.86118 L695.79764 608.86884" />
    <path d="M713.36293 601.85864 L713.56887 608.87137" />
    <path d="M713.34914 576.63554 L713.58266 583.6474" />
    <path d="M695.43786 576.63882 L695.82064 583.64411" />
    <path d="M677.47941 576.6476 L678.1058 583.63533" />
    <path d="M659.44558 576.67092 L660.46634 583.61201" />
    <path d="M641.29648 576.73146 L642.94214 583.55147" />
    <path d="M622.99095 576.88008 L625.57438 583.40285" />
    <path d="M604.53327 577.20096 L608.35876 583.08197" />
    <path d="M586.04731 577.74542 L591.17143 582.53751" />
    <path d="M567.72284 578.40843 L573.8226 581.8745" />
    <path d="M549.61973 578.9982 L556.25241 581.28474" />
    <path d="M531.66559 579.42455 L538.53326 580.85839" />
    <path d="M513.78251 579.70224 L520.74305 580.58069" />
    <path d="M495.92838 579.87514 L502.92388 580.4078" />
    <path d="M478.08529 579.98077 L485.09367 580.30217" />
    <path d="M460.2463 580.04476 L467.25938 580.23817" />
    <path d="M442.4088 580.08337 L449.42358 580.19957" />
    <path d="M424.57184 580.1066 L431.58724 580.17633" />
    <path d="M406.73508 580.12055 L413.75071 580.16238" />
    <path d="M388.89839 580.12893 L395.9141 580.154" />
    <path d="M371.06173 580.13395 L378.07746 580.14898" />
    <path d="M353.22508 580.13696 L360.24082 580.14597" />
    <path d="M335.38843 580.13876 L342.40418 580.14417" />
    <path d="M324.56753 580.14308 L317.55178 580.13985" />
    <path d="M317.55178 605.36317 L324.56753 605.36684" />
    <path d="M335.38843 605.36194 L342.40418 605.36807" />
    <path d="M353.22508 605.35988 L360.24082 605.37013" />
    <path d="M371.06173 605.35644 L378.07746 605.37358" />
    <path d="M388.8984 605.35067 L395.91409 605.37935" />
    <path d="M335.38844 731.47394 L342.40417 731.4915" />
    <path d="M324.56753 731.4878 L317.55179 731.47764" />
    <path d="M410.24289 803.64547 L410.24289 810.66122" />
    <path d="M428.07954 810.66122 L428.07954 803.64547" />
    <path d="M428.07954 828.86901 L428.07954 835.88476" />
    <path d="M445.91619 835.88476 L445.91619 828.86901" />
    <path d="M463.75284 828.86901 L463.75284 835.88476" />
    <path d="M463.75284 854.09255 L463.75284 861.1083" />
    <path d="M481.58948 861.1083 L481.58948 854.09255" />
    <path d="M499.42613 854.09255 L499.42613 861.1083" />
    <path d="M445.91619 854.09255 L445.91619 861.1083" />
    <path d="M428.07954 854.09255 L428.07954 861.1083" />
    <path d="M410.24289 854.09255 L410.24289 861.1083" />
    <path d="M410.24289 835.88476 L410.24289 828.86901" />
  </g>
</svg>