<?xml version="1.0" standalone="no"?>
<!DOCTYPE svg PUBLIC "-//W3C//DTD SVG 1.1//EN" 
    "http://www.w3.org/Graphics/SVG/1.1/DTD/svg11.dtd">
<svg width="29.7cm" height="42cm"
    xmlns="http://www.w3.org/2000/svg" version="1.1" viewBox="0 0 1052.3622 1488.18898">
  <g fill="none" stroke="black" stroke-width="0.1cm" stroke-linejoin="round" stroke-linecap="round">
    <path d="M323.43785 557.49656 L318.68146 552.33928" />
    <path d="M336.40343 552.44998 L341.38918 557.38587" />
    <path d="M354.12001 552.57747 L359.34589 557.25837" />
    <path d="M371.83232 552.72419 L377.30688 557.11166" />
    <path d="M389.54213 552.89258 L395.27036 556.94326" />
    <path d="M407.25201 553.08494 L413.23377 556.75091" />
    <path d="M424.96548 553.30306 L431.1936 556.53279" />
    <path d="M442.68695 553.54781 L449.14542 556.28804" />
    <path d="M460.42166 553.81863 L467.08401 556.01721" />
    <path d="M478.17518 554.11312 L485.00379 555.72272" />
    <path d="M495.95282 554.4267 L502.89944 555.40915" />
    <path d="M513.7588 554.75274 L520.76676 555.08311" />
    <path d="M531.59544 555.08311 L538.60341 554.75274" />
    <path d="M549.46276 555.40915 L556.40938 554.4267" />
    <path d="M567.35842 555.72272 L574.18703 554.11312" />
    <path d="M585.27819 556.01721 L591.94055 553.81863" />
    <path d="M603.21678 556.28804 L609.67525 553.54781" />
    <path d="M621.1686 556.53279 L627.39673 553.30306" />
    <path d="M639.12843 556.75091 L645.11019 553.08494" />
    <path d="M657.09184 556.94326 L662.82008 552.89258" />
    <path d="M675.05533 557.11166 L680.52989 552.72419" />
    <path d="M693.01631 557.25837 L698.2422 552.57747" />
    <path d="M710.97303 557.38587 L715.95878 552.44998" />
    <path d="M728.92436 557.49656 L733.68074 552.33928" />
    <path d="M733.49273 577.40134 L729.11237 582.88159" />
    <path d="M715.77648 577.50207 L711.15532 582.78086" />
    <path d="M698.06848 577.62048 L693.19003 582.66245" />
    <path d="M680.36809 577.75985 L675.21713 582.52308" />
    <path d="M662.6739 577.92381 L657.23802 582.35912" />
    <path d="M644.98343 578.11612 L639.25519 582.16681" />
    <path d="M627.29283 578.34033 L621.2725 581.9426" />
    <path d="M609.5966 578.59906 L603.29543 581.68387" />
    <path d="M591.88763 578.8932 L585.3311 581.38973" />
    <path d="M574.15763 579.22084 L567.38781 581.06209" />
    <path d="M556.39815 579.5765 L549.47399 580.70643" />
    <path d="M538.60212 579.95093 L531.59673 580.332" />
    <path d="M520.76547 580.332 L513.76008 579.95093" />
    <path d="M502.88821 580.70643 L495.96405 579.5765" />
    <path d="M484.9744 581.06209 L478.20457 579.22084" />
    <path d="M467.0311 581.38973 L460.47457 578.8932" />
    <path d="M449.06677 581.68387 L442.7656 578.59906" />
    <path d="M431.0897 581.9426 L425.06938 578.34033" />
    <path d="M413.10701 582.16681 L407.37877 578.11612" />
    <path d="M395.12418 582.35912 L389.68831 577.92381" />
    <path d="M377.14508 582.52308 L371.99412 577.75985" />
    <path d="M359.17218 582.66245 L354.29372 577.62048" />
    <path d="M341.20688 582.78086 L336.58572 577.50207" />
    <path d="M323.24983 582.88159 L318.86948 577.40134" />
    <path d="M319.09444 602.4593 L323.02487 608.27071" />
    <path d="M336.80832 602.54623 L340.98429 608.18378" />
    <path d="M354.51077 602.65077 L358.95513 608.07924" />
    <path d="M372.20154 602.77706 L376.93766 607.95296" />
    <path d="M389.88112 602.93007 L394.93137 607.79995" />
    <path d="M407.55122 603.11554 L412.93456 607.61447" />
    <path d="M425.21542 603.33967 L430.94366 607.39035" />
    <path d="M442.87989 603.60829 L448.95249 607.12172" />
    <path d="M460.55393 603.9255 L466.95174 606.80451" />
    <path d="M478.24989 604.29157 L484.92908 606.43845" />
    <path d="M495.98173 604.70073 L502.87053 606.02929" />
    <path d="M513.76213 605.13997 L520.76343 605.59005" />
    <path d="M531.59878 605.59005 L538.60007 605.13997" />
    <path d="M549.49167 606.02929 L556.38048 604.70073" />
    <path d="M567.43312 606.43845 L574.11232 604.29157" />
    <path d="M585.41046 606.80451 L591.80827 603.9255" />
    <path d="M603.40972 607.12172 L609.48232 603.60829" />
    <path d="M621.41855 607.39035 L627.14678 603.33967" />
    <path d="M639.42764 607.61447 L644.81098 603.11554" />
    <path d="M657.43084 607.79995 L662.48108 602.93007" />
    <path d="M675.42455 607.95296 L680.16066 602.77706" />
    <path d="M693.40707 608.07924 L697.85144 602.65077" />
    <path d="M711.37792 608.18378 L715.55388 602.54623" />
    <path d="M729.33734 608.27071 L733.26776 602.4593" />
    <path d="M733.00097 627.51926 L729.60413 633.65784" />
    <path d="M715.28404 627.58862 L711.64776 633.58848" />
    <path d="M697.5815 627.67412 L693.677 633.50298" />
    <path d="M679.89493 627.78045 L675.69029 633.39665" />
    <path d="M662.22547 627.91376 L657.68644 633.26334" />
    <path d="M644.57332 628.08195 L639.6653 633.09514" />
    <path d="M626.93665 628.29475 L621.62868 632.88235" />
    <path d="M609.31013 628.56321 L603.5819 632.61389" />
    <path d="M591.68302 628.89804 L585.53571 632.27906" />
    <path d="M574.03768 629.30589 L567.50776 631.87121" />
    <path d="M556.35038 629.78375 L549.52177 631.39335" />
    <path d="M538.59652 630.31378 L531.60233 630.86332" />
    <path d="M520.75987 630.86332 L513.76568 630.31378" />
    <path d="M502.84044 631.39335 L496.01183 629.78375" />
    <path d="M484.85444 631.87121 L478.32452 629.30589" />
    <path d="M466.82649 632.27906 L460.67918 628.89804" />
    <path d="M448.78031 632.61389 L443.05207 628.56321" />
    <path d="M430.73353 632.88235 L425.42555 628.29475" />
    <path d="M412.6969 633.09514 L407.78888 628.08195" />
    <path d="M394.67576 633.26334 L390.13673 627.91376" />
    <path d="M376.67192 633.39665 L372.46728 627.78045" />
    <path d="M358.6852 633.50298 L354.7807 627.67412" />
    <path d="M340.71444 633.58848 L337.07817 627.58862" />
    <path d="M322.75808 633.65784 L319.36123 627.51926" />
    <path d="M319.67289 652.58997 L322.44643 659.03421" />
    <path d="M337.4006 652.63907 L340.392 658.98511" />
    <path d="M355.11214 652.70112 L358.35377 658.92306" />
    <path d="M372.80443 652.78069 L376.33476 658.84349" />
    <path d="M390.4741 652.8843 L394.33839 658.73989" />
    <path d="M408.11775 653.02122 L412.36803 658.60296" />
    <path d="M425.73303 653.20459 L430.42605 658.41959" />
    <path d="M443.32069 653.45231 L448.51169 658.17187" />
    <path d="M460.88872 653.78675 L466.61695 657.83743" />
    <path d="M478.45836 654.23056 L484.72061 657.39363" />
    <path d="M496.06904 654.79469 L502.78322 656.8295" />
    <path d="M513.77267 655.45952 L520.75289 656.16466" />
    <path d="M531.60932 656.16466 L538.58954 655.45952" />
    <path d="M549.57898 656.8295 L556.29317 654.79469" />
    <path d="M567.6416 657.39363 L573.90384 654.23056" />
    <path d="M585.74525 657.83743 L591.47349 653.78675" />
    <path d="M603.85052 658.17187 L609.04151 653.45231" />
    <path d="M621.93615 658.41959 L626.62918 653.20459" />
    <path d="M639.99417 658.60296 L644.24445 653.02122" />
    <path d="M658.02381 658.73989 L661.88811 652.8843" />
    <path d="M676.02744 658.84349 L679.55777 652.78069" />
    <path d="M694.00844 658.92306 L697.25007 652.70112" />
    <path d="M711.9702 658.98511 L714.9616 652.63907" />
    <path d="M729.91578 659.03421 L732.68932 652.58997" />
    <path d="M732.33334 677.68263 L730.27176 684.38864" />
    <path d="M714.58526 677.71115 L712.34655 684.36012" />
    <path d="M696.85271 677.74803 L694.4058 684.32324" />
    <path d="M679.13974 677.79674 L676.44547 684.27452" />
    <path d="M661.45166 677.86261 L658.46026 684.20865" />
    <path d="M643.79537 677.95408 L640.44325 684.11719" />
    <path d="M626.17944 678.0848 L622.38589 683.98647" />
    <path d="M608.61312 678.27722 L604.27891 683.79405" />
    <path d="M591.10224 678.56769 L586.11649 683.50358" />
    <path d="M573.63684 679.01029 L567.9086 683.06097" />
    <path d="M556.16531 679.66552 L549.70684 682.40575" />
    <path d="M538.57274 680.54441 L531.62612 681.52686" />
    <path d="M520.73609 681.52686 L513.78947 680.54441" />
    <path d="M502.65537 682.40575 L496.1969 679.66552" />
    <path d="M484.4536 683.06097 L478.72537 679.01029" />
    <path d="M466.24571 683.50358 L461.25996 678.56769" />
    <path d="M448.08329 683.79405 L443.74909 678.27722" />
    <path d="M429.97631 683.98647 L426.18277 678.0848" />
    <path d="M411.91895 684.11719 L408.56683 677.95408" />
    <path d="M393.90195 684.20865 L390.91055 677.86261" />
    <path d="M375.91673 684.27452 L373.22247 677.79674" />
    <path d="M357.95641 684.32324 L355.50949 677.74803" />
    <path d="M340.01566 684.36012 L337.77695 677.71115" />
    <path d="M322.09044 684.38864 L320.02887 677.68263" />
    <path d="M320.42335 702.80949 L321.69596 709.70886" />
    <path d="M338.20167 702.82076 L339.59093 709.69759" />
    <path d="M355.96852 702.83561 L357.49738 709.68274" />
    <path d="M373.72024 702.85568 L375.41896 709.66267" />
    <path d="M391.45157 702.88371 L393.36092 709.63464" />
    <path d="M409.15462 702.92438 L411.33117 709.59397" />
    <path d="M426.81727 702.98628 L429.34181 709.53207" />
    <path d="M444.42049 703.08615 L447.41189 709.4322" />
    <path d="M461.9347 703.25925 L465.57097 709.2591" />
    <path d="M479.31997 703.58439 L483.859 708.93396" />
    <path d="M496.56201 704.23383 L502.29025 708.28452" />
    <path d="M513.84847 705.45437 L520.67708 707.06398" />
    <path d="M531.68512 707.06398 L538.51373 705.45437" />
    <path d="M550.07196 708.28452 L555.80019 704.23383" />
    <path d="M568.50321 708.93396 L573.04224 703.58439" />
    <path d="M586.79123 709.2591 L590.42751 703.25925" />
    <path d="M604.95032 709.4322 L607.94172 703.08615" />
    <path d="M623.02039 709.53207 L625.54494 702.98628" />
    <path d="M641.03103 709.59397 L643.20759 702.92438" />
    <path d="M659.00128 709.63464 L660.91064 702.88371" />
    <path d="M676.94325 709.66267 L678.64196 702.85568" />
    <path d="M694.86482 709.68274 L696.39369 702.83561" />
    <path d="M712.77127 709.69759 L714.16053 702.82076" />
    <path d="M731.93885 702.80949 L730.66624 709.70886" />
    <path d="M731.51782 727.98145 L731.08728 734.98398" />
    <path d="M731.08728 753.205 L731.51782 760.20752" />
    <path d="M730.66624 778.48012 L731.93885 785.37948" />
    <path d="M730.27176 803.80034 L732.33334 810.50635" />
    <path d="M729.91578 829.15477 L732.68932 835.599" />
    <path d="M729.60413 854.53114 L733.00097 860.66972" />
    <path d="M729.33734 879.91826 L733.26776 885.72967" />
    <path d="M729.11237 905.30738 L733.49273 910.78764" />
    <path d="M728.92436 930.69241 L733.68074 935.84969" />
    <path d="M710.97303 930.80311 L715.95878 935.739" />
    <path d="M693.01631 930.9306 L698.2422 935.6115" />
    <path d="M675.05533 931.07732 L680.52989 935.46479" />
    <path d="M657.09184 931.24571 L662.82008 935.29639" />
    <path d="M639.12843 931.43807 L645.11019 935.10403" />
    <path d="M621.1686 931.65619 L627.39673 934.88592" />
    <path d="M603.21678 931.90093 L609.67525 934.64117" />
    <path d="M585.27819 932.17176 L591.94055 934.37034" />
    <path d="M567.35842 932.46625 L574.18703 934.07585" />
    <path d="M549.46276 932.77983 L556.40938 933.76228" />
    <path d="M531.59544 933.10587 L538.60341 933.43624" />
    <path d="M513.7588 933.43624 L520.76676 933.10587" />
    <path d="M495.95282 933.76228 L502.89944 932.77983" />
    <path d="M478.17518 934.07585 L485.00379 932.46625" />
    <path d="M467.08401 932.17176 L460.42166 934.37034" />
    <path d="M442.68695 934.64117 L449.14542 931.90093" />
    <path d="M431.1936 931.65619 L424.96548 934.88592" />
    <path d="M407.25201 935.10403 L413.23377 931.43807" />
    <path d="M395.27036 931.24571 L389.54213 935.29639" />
    <path d="M371.83232 935.46479 L377.30688 931.07732" />
    <path d="M359.34589 930.9306 L354.12001 935.6115" />
    <path d="M336.40343 935.739 L341.38918 930.80311" />
    <path d="M323.43785 930.69241 L318.68146 935.84969" />
    <path d="M318.86948 910.78764 L323.24983 905.30738" />
    <path d="M336.58572 910.6869 L341.20688 905.40812" />
    <path d="M354.29372 910.56849 L359.17218 905.52653" />
    <path d="M371.99412 910.42912 L377.14508 905.6659" />
    <path d="M389.68831 910.26517 L395.12418 905.82985" />
    <path d="M407.37877 910.07285 L413.10701 906.02217" />
    <path d="M425.06938 909.84865 L431.0897 906.24637" />
    <path d="M442.7656 909.58991 L449.06677 906.50511" />
    <path d="M460.47457 909.29577 L467.0311 906.79925" />
    <path d="M478.20457 908.96813 L484.9744 907.12689" />
    <path d="M495.96405 908.61248 L502.88821 907.48255" />
    <path d="M513.76008 908.23804 L520.76547 907.85698" />
    <path d="M531.59673 907.85698 L538.60212 908.23804" />
    <path d="M549.47399 907.48255 L556.39815 908.61248" />
    <path d="M567.38781 907.12689 L574.15763 908.96813" />
    <path d="M585.3311 906.79925 L591.88763 909.29577" />
    <path d="M603.29543 906.50511 L609.5966 909.58991" />
    <path d="M621.2725 906.24637 L627.29283 909.84865" />
    <path d="M639.25519 906.02217 L644.98343 910.07285" />
    <path d="M657.23802 905.82985 L662.6739 910.26517" />
    <path d="M675.21713 905.6659 L680.36809 910.42912" />
    <path d="M693.19003 905.52653 L698.06848 910.56849" />
    <path d="M711.15532 905.40812 L715.77648 910.6869" />
    <path d="M711.37792 880.00519 L715.55388 885.64275" />
    <path d="M693.40707 880.10973 L697.85144 885.53821" />
    <path d="M675.42455 880.23602 L680.16066 885.41192" />
    <path d="M657.43084 880.38903 L662.48108 885.25891" />
    <path d="M639.42764 880.5745 L644.81098 885.07344" />
    <path d="M621.41855 880.79863 L627.14678 884.84931" />
    <path d="M603.40972 881.06725 L609.48232 884.58069" />
    <path d="M585.41046 881.38446 L591.80827 884.26348" />
    <path d="M567.43312 881.75053 L574.11232 883.89741" />
    <path d="M549.49167 882.15969 L556.38048 883.48825" />
    <path d="M531.59878 882.59893 L538.60007 883.04901" />
    <path d="M513.76213 883.04901 L520.76343 882.59893" />
    <path d="M495.98173 883.48825 L502.87053 882.15969" />
    <path d="M478.24989 883.89741 L484.92908 881.75053" />
    <path d="M466.95174 881.38446 L460.55393 884.26348" />
    <path d="M442.87989 884.58069 L448.95249 881.06725" />
    <path d="M430.94366 880.79863 L425.21542 884.84931" />
    <path d="M407.55122 885.07344 L412.93456 880.5745" />
    <path d="M394.93137 880.38903 L389.88112 885.25891" />
    <path d="M372.20154 885.41192 L376.93766 880.23602" />
    <path d="M358.95513 880.10973 L354.51077 885.53821" />
    <path d="M336.80832 885.64275 L340.98429 880.00519" />
    <path d="M323.02487 879.91826 L319.09444 885.72967" />
    <path d="M319.36123 860.66972 L322.75808 854.53114" />
    <path d="M337.07817 860.60035 L340.71444 854.6005" />
    <path d="M354.7807 860.51486 L358.6852 854.686" />
    <path d="M372.46728 860.40853 L376.67192 854.79233" />
    <path d="M390.13673 860.27521 L394.67576 854.92564" />
    <path d="M407.78888 860.10702 L412.6969 855.09383" />
    <path d="M425.42555 859.89423 L430.73353 855.30662" />
    <path d="M443.05207 859.62577 L448.78031 855.57509" />
    <path d="M460.67918 859.29094 L466.82649 855.90992" />
    <path d="M478.32452 858.88309 L484.85444 856.31776" />
    <path d="M496.01183 858.40523 L502.84044 856.79563" />
    <path d="M513.76568 857.8752 L520.75987 857.32566" />
    <path d="M531.60233 857.32566 L538.59652 857.8752" />
    <path d="M549.52177 856.79563 L556.35038 858.40523" />
    <path d="M567.50776 856.31776 L574.03768 858.88309" />
    <path d="M585.53571 855.90992 L591.68302 859.29094" />
    <path d="M603.5819 855.57509 L609.31013 859.62577" />
    <path d="M621.62868 855.30662 L626.93665 859.89423" />
    <path d="M639.6653 855.09383 L644.57332 860.10702" />
    <path d="M657.68644 854.92564 L662.22547 860.27521" />
    <path d="M675.69029 854.79233 L679.89493 860.40853" />
    <path d="M693.677 854.686 L697.5815 860.51486" />
    <path d="M711.64776 854.6005 L715.28404 860.60035" />
    <path d="M711.9702 829.20386 L714.9616 835.54991" />
    <path d="M694.00844 829.26591 L697.25007 835.48786" />
    <path d="M676.02744 829.34549 L679.55777 835.40828" />
    <path d="M658.02381 829.44909 L661.88811 835.30468" />
    <path d="M639.99417 829.58601 L644.24445 835.16776" />
    <path d="M621.93615 829.76938 L626.62918 834.98439" />
    <path d="M603.85052 830.0171 L609.04151 834.73667" />
    <path d="M585.74525 830.35154 L591.47349 834.40223" />
    <path d="M567.6416 830.79535 L573.90384 833.95842" />
    <path d="M549.57898 831.35948 L556.29317 833.39429" />
    <path d="M531.60932 832.02431 L538.58954 832.72946" />
    <path d="M513.77267 832.72946 L520.75289 832.02431" />
    <path d="M496.06904 833.39429 L502.78322 831.35948" />
    <path d="M484.72061 830.79535 L478.45836 833.95842" />
    <path d="M460.88872 834.40223 L466.61695 830.35154" />
    <path d="M448.51169 830.0171 L443.32069 834.73667" />
    <path d="M425.73303 834.98439 L430.42605 829.76938" />
    <path d="M412.36803 829.58601 L408.11775 835.16776" />
    <path d="M390.4741 835.30468 L394.33839 829.44909" />
    <path d="M376.33476 829.34549 L372.80443 835.40828" />
    <path d="M355.11214 835.48786 L358.35377 829.26591" />
    <path d="M340.392 829.20386 L337.4006 835.54991" />
    <path d="M319.67289 835.599 L322.44643 829.15477" />
    <path d="M320.02887 810.50635 L322.09044 803.80034" />
    <path d="M337.77695 810.47783 L340.01566 803.82885" />
    <path d="M355.50949 810.44095 L357.95641 803.86574" />
    <path d="M373.22247 810.39223 L375.91673 803.91445" />
    <path d="M390.91055 810.32636 L393.90195 803.98032" />
    <path d="M408.56683 810.2349 L411.91895 804.07179" />
    <path d="M426.18277 810.10418 L429.97631 804.20251" />
    <path d="M443.74909 809.91176 L448.08329 804.39493" />
    <path d="M461.25996 809.62129 L466.24571 804.6854" />
    <path d="M478.72537 809.17868 L484.4536 805.128" />
    <path d="M496.1969 808.52346 L502.65537 805.78322" />
    <path d="M513.78947 807.64457 L520.73609 806.66212" />
    <path d="M531.62612 806.66212 L538.57274 807.64457" />
    <path d="M549.70684 805.78322 L556.16531 808.52346" />
    <path d="M567.9086 805.128 L573.63684 809.17868" />
    <path d="M586.11649 804.6854 L591.10224 809.62129" />
    <path d="M604.27891 804.39493 L608.61312 809.91176" />
    <path d="M622.38589 804.20251 L626.17944 810.10418" />
    <path d="M640.44325 804.07179 L643.79537 810.2349" />
    <path d="M658.46026 803.98032 L661.45166 810.32636" />
    <path d="M676.44547 803.91445 L679.13974 810.39223" />
    <path d="M694.4058 803.86574 L696.85271 810.44095" />
    <path d="M712.34655 803.82885 L714.58526 810.47783" />
    <path d="M712.77127 778.49139 L714.16053 785.36821" />
    <path d="M694.86482 778.50623 L696.39369 785.35337" />
    <path d="M676.94325 778.52631 L678.64196 785.3333" />
    <path d="M659.00128 778.55434 L660.91064 785.30527" />
    <path d="M641.03103 778.59501 L643.20759 785.26459" />
    <path d="M623.02039 778.65691 L625.54494 785.2027" />
    <path d="M604.95032 778.75678 L607.94172 785.10282" />
    <path d="M586.79123 778.92987 L590.42751 784.92973" />
    <path d="M568.50321 779.25502 L573.04224 784.60459" />
    <path d="M550.07196 779.90446 L555.80019 783.95514" />
    <path d="M531.68512 781.125 L538.51373 782.7346" />
    <path d="M513.84847 782.7346 L520.67708 781.125" />
    <path d="M502.29025 779.90446 L496.56201 783.95514" />
    <path d="M479.31997 784.60459 L483.859 779.25502" />
    <path d="M465.57097 778.92987 L461.9347 784.92973" />
    <path d="M444.42049 785.10282 L447.41189 778.75678" />
    <path d="M429.34181 778.65691 L426.81727 785.2027" />
    <path d="M409.15462 785.26459 L411.33117 778.59501" />
    <path d="M393.36092 778.55434 L391.45157 785.30527" />
    <path d="M373.72024 785.3333 L375.41896 778.52631" />
    <path d="M357.49738 778.50623 L355.96852 785.35337" />
    <path d="M338.20167 785.36821 L339.59093 778.49139" />
    <path d="M321.69596 778.48012 L320.42335 785.37948" />
    <path d="M320.84438 760.20752 L321.27493 753.205" />
    <path d="M339.13199 753.20631 L338.66062 760.20621" />
    <path d="M356.47259 760.20446 L356.99332 753.20806" />
    <path d="M374.8604 753.21046 L374.2788 760.20206" />
    <path d="M392.077 760.19865 L392.73549 753.21387" />
    <path d="M410.62224 753.21896 L409.86354 760.19356" />
    <path d="M427.63226 760.1855 L428.52683 753.22702" />
    <path d="M445.37169 760.17162 L446.46069 753.2409" />
    <path d="M463.05821 760.14467 L464.44746 753.26785" />
    <path d="M480.63481 760.08173 L482.54416 753.33079" />
    <path d="M497.93043 759.87928 L500.92183 753.53324" />
    <path d="M514.39866 758.7316 L520.1269 754.68092" />
    <path d="M532.23531 754.68092 L537.96354 758.7316" />
    <path d="M551.44037 753.53324 L554.43177 759.87928" />
    <path d="M569.81804 753.33079 L571.7274 760.08173" />
    <path d="M587.91474 753.26785 L589.304 760.14467" />
    <path d="M605.90152 753.2409 L606.99052 760.17162" />
    <path d="M623.83538 753.22702 L624.72995 760.1855" />
    <path d="M641.73996 753.21896 L642.49866 760.19356" />
    <path d="M659.62671 753.21387 L660.28521 760.19865" />
    <path d="M677.50181 753.21046 L678.0834 760.20206" />
    <path d="M695.36889 753.20806 L695.88962 760.20446" />
    <path d="M713.23021 753.20631 L713.70159 760.20621" />
    <path d="M713.70159 727.98277 L713.23021 734.98266" />
    <path d="M695.88962 727.98452 L695.36889 734.98092" />
    <path d="M678.0834 727.98692 L677.50181 734.97852" />
    <path d="M660.28521 727.99033 L659.62671 734.97511" />
    <path d="M642.49866 727.99542 L641.73996 734.97002" />
    <path d="M624.72995 728.00348 L623.83538 734.96196" />
    <path d="M606.99052 728.01736 L605.90152 734.94807" />
    <path d="M589.304 728.04431 L587.91474 734.92113" />
    <path d="M571.7274 728.10725 L569.81804 734.85818" />
    <path d="M554.43177 728.3097 L551.44037 734.65574" />
    <path d="M537.96354 729.45738 L532.23531 733.50806" />
    <path d="M520.1269 733.50806 L514.39866 729.45738" />
    <path d="M500.92183 734.65574 L497.93043 728.3097" />
    <path d="M482.54416 734.85818 L480.63481 728.10725" />
    <path d="M464.44746 734.92113 L463.05821 728.04431" />
    <path d="M446.46069 734.94807 L445.37169 728.01736" />
    <path d="M428.52683 734.96196 L427.63226 728.00348" />
    <path d="M410.62224 734.97002 L409.86354 727.99542" />
    <path d="M392.73549 734.97511 L392.077 727.99033" />
    <path d="M374.8604 734.97852 L374.2788 727.98692" />
    <path d="M356.99332 734.98092 L356.47259 727.98452" />
    <path d="M339.13199 734.98266 L338.66062 727.98277" />
    <path d="M320.84438 727.98145 L321.27493 734.98398" />
  </g>
</svg>