<?xml version="1.0" standalone="no"?>
<!DOCTYPE svg PUBLIC "-//W3C//DTD SVG 1.1//EN" 
    "http://www.w3.org/Graphics/SVG/1.1/DTD/svg11.dtd">
<svg width="29.7cm" height="42cm"
    xmlns="http://www.w3.org/2000/svg" version="1.1" viewBox="0 0 1052.3622 1488.18898">
  <g fill="none" stroke="black" stroke-width="0.05cm" stroke-linejoin="round" stroke-linecap="round">
    <path d="M83.13892 1456.85868 L83.13892 1467.14173" />
    <path d="M77.54248 1467.04278 L786.50228 1467.04278" />
    <path d="M781.02123 1467.14173 L781.02123 626.60588" />
    <path d="M792.09872 626.60588 L792.09872 1456.85868" />
    <path d="M803.17622 1456.85868 L803.17622 610.94074" />
    <path d="M808.65727 605.45968 L1030.20721 605.45968" />
    <path d="M1024.72616 595.27559 L1024.72616 814.58765" />
    <path d="M1030.20721 809.1066 L310.16991 809.1066" />
    <path d="M315.76636 814.58765 L315.76636 704.93162" />
    <path d="M321.24741 699.45057 L1031.31496 699.45057" />
    <path d="M1031.31496 683.78542 L332.32491 683.78542" />
    <path d="M326.84385 689.26647 L326.84385 830.2528" />
    <path d="M321.24741 824.77174 L1019.12971 824.77174" />
    <path d="M1013.64866 830.2528 L1013.64866 579.61044" />
    <path d="M1002.57116 579.61044 L1002.57116 845.91794" />
    <path d="M1008.05222 840.43689 L343.4024 840.43689" />
    <path d="M348.99885 845.91794 L348.99885 673.60133" />
    <path d="M337.92135 673.60133 L337.92135 830.2528" />
    <path d="M360.07634 845.91794 L360.07634 673.60133" />
    <path d="M365.5574 668.12027 L465.25487 668.12027" />
    <path d="M470.85131 673.60133 L470.85131 939.90883" />
    <path d="M465.25487 934.42777 L1008.05222 934.42777" />
    <path d="M1013.64866 939.90883 L1013.64866 1315.87236" />
    <path d="M1019.12971 1310.3913 L243.70493 1310.3913" />
    <path d="M238.22388 1315.87236 L238.22388 1467.14173" />
    <path d="M227.14638 1467.14173 L227.14638 1331.53751" />
    <path d="M232.62743 1326.05645 L1008.05222 1326.05645" />
    <path d="M1002.57116 1331.53751 L1002.57116 924.24368" />
    <path d="M996.97472 918.76263 L454.17737 918.76263" />
    <path d="M459.77382 924.24368 L459.77382 657.93618" />
    <path d="M448.69632 657.93618 L448.69632 908.57853" />
    <path d="M443.09988 903.09748 L985.89722 903.09748" />
    <path d="M991.49367 908.57853 L991.49367 1347.20265" />
    <path d="M996.97472 1341.7216 L188.31745 1341.7216" />
    <path d="M182.83639 1347.20265 L182.83639 1467.14173" />
    <path d="M171.7589 1467.14173 L171.7589 1347.20265" />
    <path d="M160.6814 1347.20265 L160.6814 1467.14173" />
    <path d="M149.6039 1467.14173 L149.6039 1362.8678" />
    <path d="M155.08496 1357.38675 L974.81973 1357.38675" />
    <path d="M969.33867 1362.8678 L969.33867 563.9453" />
    <path d="M958.26118 563.9453 L958.26118 1378.53295" />
    <path d="M963.74223 1373.05189 L132.92996 1373.05189" />
    <path d="M127.44891 1378.53295 L127.44891 1467.14173" />
    <path d="M116.37141 1467.14173 L116.37141 1378.53295" />
    <path d="M110.77497 1388.71704 L941.58724 1388.71704" />
    <path d="M936.10618 1394.19809 L936.10618 548.28015" />
    <path d="M925.02869 548.28015 L925.02869 1394.19809" />
    <path d="M913.95119 1394.19809 L913.95119 548.28015" />
    <path d="M908.35475 558.46424 L941.58724 558.46424" />
    <path d="M947.18368 563.9453 L947.18368 1378.53295" />
    <path d="M980.41617 1347.20265 L980.41617 563.9453" />
    <path d="M991.49367 563.9453 L991.49367 861.58309" />
    <path d="M996.97472 856.10204 L365.5574 856.10204" />
    <path d="M371.15384 861.58309 L371.15384 657.93618" />
    <path d="M382.23134 657.93618 L382.23134 861.58309" />
    <path d="M393.30883 861.58309 L393.30883 657.93618" />
    <path d="M404.38633 657.93618 L404.38633 877.24824" />
    <path d="M398.78989 871.76719 L985.89722 871.76719" />
    <path d="M985.89722 887.43233 L432.02238 887.43233" />
    <path d="M437.61882 892.91339 L437.61882 657.93618" />
    <path d="M426.54133 657.93618 L426.54133 877.24824" />
    <path d="M415.46383 877.24824 L415.46383 657.93618" />
    <path d="M481.92881 673.60133 L481.92881 1467.14173" />
    <path d="M470.85131 1467.14173 L470.85131 1049.56486" />
    <path d="M476.33237 1044.0838 L1031.31496 1044.0838" />
    <path d="M1031.31496 1028.41866 L476.33237 1028.41866" />
    <path d="M476.33237 1012.75351 L1031.31496 1012.75351" />
    <path d="M1031.31496 997.08836 L476.33237 997.08836" />
    <path d="M476.33237 981.42322 L1031.31496 981.42322" />
    <path d="M1030.20721 965.75807 L476.33237 965.75807" />
    <path d="M476.33237 950.09292 L1019.12971 950.09292" />
    <path d="M1024.72616 955.57397 L1024.72616 1300.20721" />
    <path d="M1030.20721 1294.72616 L254.78243 1294.72616" />
    <path d="M249.30138 1300.20721 L249.30138 1467.14173" />
    <path d="M260.37887 1467.14173 L260.37887 1284.54206" />
    <path d="M265.85993 1279.06101 L1031.31496 1279.06101" />
    <path d="M1031.31496 1263.39586 L276.93742 1263.39586" />
    <path d="M271.45637 1268.87692 L271.45637 1467.14173" />
    <path d="M282.53387 1467.14173 L282.53387 1253.21177" />
    <path d="M288.01492 1247.73072 L1031.31496 1247.73072" />
    <path d="M1031.31496 1232.06557 L299.09242 1232.06557" />
    <path d="M293.61136 1237.54662 L293.61136 1467.14173" />
    <path d="M304.68886 1467.14173 L304.68886 1221.88148" />
    <path d="M310.16991 1216.40042 L1031.31496 1216.40042" />
    <path d="M1031.31496 1200.73528 L332.32491 1200.73528" />
    <path d="M326.84385 1206.21633 L326.84385 1467.14173" />
    <path d="M315.76636 1467.14173 L315.76636 1206.21633" />
    <path d="M337.92135 1190.55118 L337.92135 1467.14173" />
    <path d="M348.99885 1467.14173 L348.99885 1174.88603" />
    <path d="M360.07634 1174.88603 L360.07634 1467.14173" />
    <path d="M371.15384 1467.14173 L371.15384 1159.22089" />
    <path d="M382.23134 1159.22089 L382.23134 1467.14173" />
    <path d="M393.30883 1467.14173 L393.30883 1159.22089" />
    <path d="M398.78989 1153.73983 L1031.31496 1153.73983" />
    <path d="M1031.31496 1169.40498 L365.5574 1169.40498" />
    <path d="M343.4024 1185.07013 L1031.31496 1185.07013" />
    <path d="M1031.31496 1138.07469 L420.94488 1138.07469" />
    <path d="M415.46383 1143.55574 L415.46383 1467.14173" />
    <path d="M426.54133 1467.14173 L426.54133 1127.89059" />
    <path d="M432.02238 1122.40954 L1031.31496 1122.40954" />
    <path d="M1031.31496 1106.74439 L454.17737 1106.74439" />
    <path d="M448.69632 1112.22545 L448.69632 1467.14173" />
    <path d="M437.61882 1467.14173 L437.61882 1112.22545" />
    <path d="M454.17737 1091.07925 L1031.31496 1091.07925" />
    <path d="M1031.31496 1075.4141 L465.25487 1075.4141" />
    <path d="M459.77382 1080.89515 L459.77382 1467.14173" />
    <path d="M493.00631 1467.14173 L493.00631 673.60133" />
    <path d="M504.0838 673.60133 L504.0838 1467.14173" />
    <path d="M515.1613 1467.14173 L515.1613 673.60133" />
    <path d="M526.2388 673.60133 L526.2388 1467.14173" />
    <path d="M537.31629 1467.14173 L537.31629 673.60133" />
    <path d="M542.79735 668.12027 L1031.31496 668.12027" />
    <path d="M1031.31496 652.45513 L753.26979 652.45513" />
    <path d="M747.78874 657.93618 L747.78874 1467.14173" />
    <path d="M736.71124 1467.14173 L736.71124 657.93618" />
    <path d="M725.63374 657.93618 L725.63374 1467.14173" />
    <path d="M714.55624 1467.14173 L714.55624 657.93618" />
    <path d="M703.47875 657.93618 L703.47875 1467.14173" />
    <path d="M692.40125 1467.14173 L692.40125 657.93618" />
    <path d="M681.32375 657.93618 L681.32375 1467.14173" />
    <path d="M670.24626 1467.14173 L670.24626 657.93618" />
    <path d="M664.64981 652.45513 L620.33983 652.45513" />
    <path d="M614.85877 657.93618 L614.85877 1467.14173" />
    <path d="M603.78128 1467.14173 L603.78128 657.93618" />
    <path d="M592.70378 657.93618 L592.70378 1467.14173" />
    <path d="M581.62628 1467.14173 L581.62628 657.93618" />
    <path d="M570.54879 657.93618 L570.54879 1467.14173" />
    <path d="M559.47129 1467.14173 L559.47129 657.93618" />
    <path d="M548.39379 657.93618 L548.39379 1467.14173" />
    <path d="M625.93627 1467.14173 L625.93627 642.27103" />
    <path d="M637.01377 642.27103 L637.01377 1467.14173" />
    <path d="M648.09126 1467.14173 L648.09126 642.27103" />
    <path d="M659.16876 642.27103 L659.16876 1467.14173" />
    <path d="M758.86623 1467.14173 L758.86623 642.27103" />
    <path d="M769.94373 642.27103 L769.94373 1467.14173" />
    <path d="M814.25372 1456.85868 L814.25372 595.27559" />
    <path d="M825.33121 595.27559 L825.33121 1441.19354" />
    <path d="M836.40871 1441.19354 L836.40871 579.61044" />
    <path d="M847.48621 579.61044 L847.48621 1425.52839" />
    <path d="M858.5637 1425.52839 L858.5637 579.61044" />
    <path d="M864.04476 574.12939 L996.97472 574.12939" />
    <path d="M1019.12971 589.79454 L830.81227 589.79454" />
    <path d="M797.57978 621.12483 L1031.31496 621.12483" />
    <path d="M1031.31496 636.78998 L775.42478 636.78998" />
    <path d="M869.6412 563.9453 L869.6412 1425.52839" />
    <path d="M875.12225 1420.04733 L88.61998 1420.04733" />
    <path d="M94.21642 1409.86324 L94.21642 1467.14173" />
    <path d="M105.29392 1467.14173 L105.29392 1394.19809" />
    <path d="M99.69747 1404.38219 L908.35475 1404.38219" />
    <path d="M902.87369 1409.86324 L902.87369 563.9453" />
    <path d="M891.7962 563.9453 L891.7962 1409.86324" />
    <path d="M880.7187 1409.86324 L880.7187 563.9453" />
    <path d="M1031.31496 715.11571 L310.16991 715.11571" />
    <path d="M310.16991 730.78086 L1031.31496 730.78086" />
    <path d="M1031.31496 746.44601 L299.09242 746.44601" />
    <path d="M304.68886 736.26191 L304.68886 783.25736" />
    <path d="M299.09242 777.7763 L1031.31496 777.7763" />
    <path d="M1031.31496 762.11116 L299.09242 762.11116" />
    <path d="M310.16991 793.44145 L1031.31496 793.44145" />
    <path d="M1031.31496 1059.74895 L465.25487 1059.74895" />
    <path d="M404.38633 1143.55574 L404.38633 1467.14173" />
    <path d="M216.06888 1331.53751 L216.06888 1467.14173" />
    <path d="M204.99139 1467.14173 L204.99139 1331.53751" />
    <path d="M193.91389 1331.53751 L193.91389 1467.14173" />
    <path d="M138.52641 1467.14173 L138.52641 1362.8678" />
    <path d="M88.61998 1435.71248 L841.88976 1435.71248" />
    <path d="M88.61998 1451.37763 L819.73477 1451.37763" />
    <path d="M814.25372 344.63324 L814.25372 78.32574" />
    <path d="M803.17622 78.32574 L803.17622 344.63324" />
    <path d="M792.09872 344.63324 L792.09872 78.32574" />
    <path d="M781.02123 78.32574 L781.02123 344.63324" />
    <path d="M775.42478 339.15218 L875.12225 339.15218" />
    <path d="M869.6412 344.63324 L869.6412 93.99088" />
    <path d="M864.04476 88.50983 L509.56486 88.50983" />
    <path d="M515.1613 93.99088 L515.1613 21.04724" />
    <path d="M504.0838 21.04724 L504.0838 78.32574" />
    <path d="M498.48736 72.84468 L764.34729 72.84468" />
    <path d="M769.94373 78.32574 L769.94373 328.96809" />
    <path d="M758.86623 328.96809 L758.86623 62.66059" />
    <path d="M747.78874 62.66059 L747.78874 313.30294" />
    <path d="M736.71124 313.30294 L736.71124 46.99544" />
    <path d="M731.11479 41.51439 L498.48736 41.51439" />
    <path d="M498.48736 57.17954 L742.19229 57.17954" />
    <path d="M725.63374 31.33029 L725.63374 297.6378" />
    <path d="M720.0373 292.15674 L930.50974 292.15674" />
    <path d="M925.02869 297.6378 L925.02869 125.32118" />
    <path d="M919.43224 119.84012 L520.64235 119.84012" />
    <path d="M526.2388 125.32118 L526.2388 21.04724" />
    <path d="M537.31629 21.04724 L537.31629 125.32118" />
    <path d="M542.79735 135.50527 L930.50974 135.50527" />
    <path d="M936.10618 140.98632 L936.10618 281.97265" />
    <path d="M941.58724 276.4916 L708.9598 276.4916" />
    <path d="M714.55624 281.97265 L714.55624 21.04724" />
    <path d="M720.0373 25.84924 L498.48736 25.84924" />
    <path d="M548.39379 21.04724 L548.39379 140.98632" />
    <path d="M559.47129 140.98632 L559.47129 21.04724" />
    <path d="M570.54879 21.04724 L570.54879 156.65147" />
    <path d="M564.95234 151.17042 L941.58724 151.17042" />
    <path d="M947.18368 156.65147 L947.18368 266.3075" />
    <path d="M952.66473 260.82645 L697.8823 260.82645" />
    <path d="M703.47875 266.3075 L703.47875 21.04724" />
    <path d="M692.40125 21.04724 L692.40125 250.64235" />
    <path d="M686.80481 245.1613 L952.66473 245.1613" />
    <path d="M952.66473 229.49615 L686.80481 229.49615" />
    <path d="M681.32375 219.31206 L681.32375 21.04724" />
    <path d="M670.24626 21.04724 L670.24626 187.98177" />
    <path d="M664.64981 182.50071 L952.66473 182.50071" />
    <path d="M952.66473 198.16586 L675.72731 198.16586" />
    <path d="M675.72731 213.83101 L952.66473 213.83101" />
    <path d="M952.66473 166.83557 L609.26233 166.83557" />
    <path d="M614.85877 172.31662 L614.85877 21.04724" />
    <path d="M603.78128 21.04724 L603.78128 156.65147" />
    <path d="M592.70378 156.65147 L592.70378 21.04724" />
    <path d="M581.62628 21.04724 L581.62628 156.65147" />
    <path d="M625.93627 172.31662 L625.93627 21.04724" />
    <path d="M637.01377 21.04724 L637.01377 172.31662" />
    <path d="M648.09126 172.31662 L648.09126 21.04724" />
    <path d="M659.16876 21.04724 L659.16876 172.31662" />
    <path d="M731.11479 307.82189 L919.43224 307.82189" />
    <path d="M913.95119 313.30294 L913.95119 109.65603" />
    <path d="M902.87369 109.65603 L902.87369 328.96809" />
    <path d="M908.35475 323.48704 L753.26979 323.48704" />
    <path d="M825.33121 344.63324 L825.33121 78.32574" />
    <path d="M836.40871 78.32574 L836.40871 344.63324" />
    <path d="M847.48621 344.63324 L847.48621 78.32574" />
    <path d="M858.5637 78.32574 L858.5637 344.63324" />
    <path d="M880.7187 328.96809 L880.7187 93.99088" />
    <path d="M891.7962 93.99088 L891.7962 328.96809" />
    <path d="M897.27725 104.17498 L520.64235 104.17498" />
  </g>
</svg>