<?xml version="1.0" standalone="no"?>
<!DOCTYPE svg PUBLIC "-//W3C//DTD SVG 1.1//EN" 
    "http://www.w3.org/Graphics/SVG/1.1/DTD/svg11.dtd">
<svg width="29.7cm" height="42cm"
    xmlns="http://www.w3.org/2000/svg" version="1.1" viewBox="0 0 1052.3622 1488.18898">
  <g fill="none" stroke="black" stroke-width="0.1cm" stroke-linejoin="round" stroke-linecap="round">
    <path d="M317.5735 554.52821 L324.54581 555.30764" />
    <path d="M335.39753 554.66536 L342.39507 555.17049" />
    <path d="M353.22524 554.88379 L360.24066 554.95206" />
    <path d="M371.06832 555.13291 L378.07088 554.70294" />
    <path d="M388.9247 555.34693 L395.88779 554.48891" />
    <path d="M406.77818 555.46653 L413.7076 554.36932" />
    <path d="M424.61298 555.4547 L431.5461 554.38115" />
    <path d="M442.42948 555.30267 L449.4029 554.53318" />
    <path d="M460.24696 555.03635 L467.25871 554.7995" />
    <path d="M478.0871 554.72173 L485.09187 555.11412" />
    <path d="M495.94982 554.44844 L502.90245 555.38741" />
    <path d="M513.81111 554.29249 L520.71445 555.54336" />
    <path d="M531.64776 554.29249 L538.55109 555.54336" />
    <path d="M549.45976 554.44844 L556.41239 555.38741" />
    <path d="M567.27034 554.72173 L574.2751 555.11412" />
    <path d="M585.10349 555.03635 L592.11524 554.7995" />
    <path d="M602.95931 555.30267 L609.93273 554.53318" />
    <path d="M620.8161 555.4547 L627.74923 554.38115" />
    <path d="M638.6546 555.46653 L645.58402 554.36932" />
    <path d="M656.47442 555.34693 L663.4375 554.48891" />
    <path d="M674.29133 555.13291 L681.29389 554.70294" />
    <path d="M692.12155 554.88379 L699.13696 554.95206" />
    <path d="M709.96713 554.66536 L716.96467 555.17049" />
    <path d="M727.81639 554.52821 L734.78871 555.30764" />
    <path d="M727.81917 579.72768 L734.78593 580.55526" />
    <path d="M709.96843 579.87145 L716.96337 580.41148" />
    <path d="M692.12157 580.10469 L699.13694 580.17824" />
    <path d="M674.2925 580.37479 L681.29271 579.90814" />
    <path d="M656.47959 580.61052 L663.43233 579.67242" />
    <path d="M638.66392 580.74601 L645.5747 579.53692" />
    <path d="M620.82596 580.73846 L627.73937 579.54448" />
    <path d="M602.9649 580.57389 L609.92713 579.70904" />
    <path d="M585.10407 580.27591 L592.11467 580.00702" />
    <path d="M567.27203 579.91715 L574.27342 580.36578" />
    <path d="M549.46976 579.60306 L556.40238 580.67987" />
    <path d="M531.66574 579.42383 L538.53311 580.8591" />
    <path d="M531.69378 604.52431 L538.50507 606.2057" />
    <path d="M549.48528 604.73479 L556.38687 605.99522" />
    <path d="M567.2746 605.10364 L574.27084 605.62637" />
    <path d="M585.10492 605.52002 L592.11382 605.21" />
    <path d="M602.97273 605.85641 L609.9193 604.8736" />
    <path d="M620.83913 606.03375 L627.7262 604.69626" />
    <path d="M638.67585 606.03413 L645.56278 604.69588" />
    <path d="M656.48596 605.87907 L663.42596 604.85094" />
    <path d="M674.2939 605.61844 L681.29131 605.11157" />
    <path d="M692.1216 605.32542 L699.1369 605.4046" />
    <path d="M709.96989 605.07677 L716.96191 605.65325" />
    <path d="M727.82218 604.92659 L734.78292 605.80342" />
    <path d="M727.82532 630.12587 L734.77978 631.05123" />
    <path d="M709.97145 630.28192 L716.96035 630.89518" />
    <path d="M692.12164 630.54604 L699.13687 630.63106" />
    <path d="M674.29552 630.86342 L681.28969 630.31368" />
    <path d="M656.49363 631.152 L663.41829 630.0251" />
    <path d="M638.69089 631.3309 L645.54774 629.84619" />
    <path d="M620.85668 631.34208 L627.70865 629.83502" />
    <path d="M602.9839 631.15328 L609.90813 630.02382" />
    <path d="M585.10622 630.77052 L592.11252 630.40658" />
    <path d="M567.27874 630.27662 L574.2667 630.90048" />
    <path d="M549.51104 629.83072 L556.36111 631.34638" />
    <path d="M549.55787 654.86716 L556.31428 656.75702" />
    <path d="M567.28591 655.42826 L574.25953 656.19592" />
    <path d="M585.10827 656.02998 L592.11047 655.59421" />
    <path d="M602.99983 656.46704 L609.89221 655.15714" />
    <path d="M620.87955 656.66295 L627.68578 654.96123" />
    <path d="M638.70914 656.63424 L645.52948 654.98995" />
    <path d="M656.50245 656.42727 L663.40947 655.19691" />
    <path d="M674.29729 656.10867 L681.28792 655.51552" />
    <path d="M692.12167 655.76672 L699.13683 655.85747" />
    <path d="M709.97304 655.48792 L716.95876 656.13627" />
    <path d="M727.8284 655.32681 L734.77669 656.29738" />
    <path d="M727.83116 680.53103 L734.77394 681.54023" />
    <path d="M709.9745 680.69613 L716.95731 681.37514" />
    <path d="M692.12171 680.98768 L699.1368 681.08358" />
    <path d="M674.29906 681.35235 L681.28615 680.71892" />
    <path d="M656.51168 681.70055 L663.40024 680.37071" />
    <path d="M638.72948 681.938 L645.50914 680.13327" />
    <path d="M620.9073 681.99068 L627.65803 680.08059" />
    <path d="M603.02163 681.79638 L609.87041 680.27489" />
    <path d="M585.11154 681.30089 L592.1072 680.77038" />
    <path d="M567.29919 680.54597 L574.24625 681.5253" />
    <path d="M549.65337 679.79909 L556.21878 682.27217" />
    <path d="M549.87129 704.55263 L556.00086 707.96572" />
    <path d="M567.3241 705.61713 L574.22134 706.90122" />
    <path d="M585.1163 706.58117 L592.10243 705.93718" />
    <path d="M603.04736 707.12769 L609.84467 705.39066" />
    <path d="M620.93574 707.30953 L627.62959 705.20882" />
    <path d="M638.74851 707.23021 L645.49011 705.28814" />
    <path d="M656.5198 706.96485 L663.39212 705.5535" />
    <path d="M674.30054 706.59184 L681.28467 705.92651" />
    <path d="M692.12174 706.20924 L699.13677 706.30911" />
    <path d="M709.97563 705.90815 L716.95617 706.6102" />
    <path d="M727.83326 705.74034 L734.77184 706.77801" />
    <path d="M727.8344 730.9563 L734.7707 732.00913" />
    <path d="M709.97627 731.12547 L716.95554 731.83996" />
    <path d="M692.12175 731.43169 L699.13676 731.53374" />
    <path d="M674.30141 731.82432 L681.28381 731.14111" />
    <path d="M656.52469 732.2118 L663.38723 730.75364" />
    <path d="M638.76053 732.49454 L645.47809 730.4709" />
    <path d="M620.95508 732.59284 L627.61025 730.37259" />
    <path d="M603.06726 732.4257 L609.82477 730.53974" />
    <path d="M585.12091 731.85128 L592.09783 731.11415" />
    <path d="M567.35783 730.68041 L574.18761 732.28502" />
    <path d="M550.29266 729.17673 L555.57948 733.7887" />
    <path d="M550.29266 754.40027 L555.57948 759.01224" />
    <path d="M567.35783 755.90395 L574.18761 757.50857" />
    <path d="M585.12091 757.07483 L592.09783 756.33769" />
    <path d="M603.06726 757.64924 L609.82477 755.76328" />
    <path d="M620.95508 757.81638 L627.61025 755.59613" />
    <path d="M638.76053 757.71808 L645.47809 755.69444" />
    <path d="M656.52469 757.43534 L663.38723 755.97718" />
    <path d="M674.30141 757.04787 L681.28381 756.36465" />
    <path d="M692.12175 756.65524 L699.13676 756.75728" />
    <path d="M709.97627 756.34902 L716.95554 757.0635" />
    <path d="M727.8344 756.17984 L734.7707 757.23268" />
    <path d="M727.83326 781.41097 L734.77184 782.44863" />
    <path d="M709.97563 781.57877 L716.95617 782.28083" />
    <path d="M692.12174 781.87987 L699.13677 781.97974" />
    <path d="M674.30054 782.26247 L681.28467 781.59713" />
    <path d="M656.5198 782.63548 L663.39212 781.22412" />
    <path d="M638.74851 782.90083 L645.49011 780.95877" />
    <path d="M620.93574 782.98016 L627.62959 780.87944" />
    <path d="M603.04736 782.79832 L609.84467 781.06128" />
    <path d="M585.1163 782.25179 L592.10243 781.60781" />
    <path d="M567.3241 781.28776 L574.22134 782.57184" />
    <path d="M549.87129 780.22326 L556.00086 783.63634" />
    <path d="M549.65337 805.9168 L556.21878 808.38988" />
    <path d="M567.29919 806.66368 L574.24625 807.64301" />
    <path d="M585.11154 807.4186 L592.1072 806.88809" />
    <path d="M603.02163 807.91409 L609.87041 806.3926" />
    <path d="M620.9073 808.10839 L627.65803 806.1983" />
    <path d="M638.72948 808.05571 L645.50914 806.25098" />
    <path d="M656.51168 807.81826 L663.40024 806.48842" />
    <path d="M674.29906 807.47006 L681.28615 806.83663" />
    <path d="M692.12171 807.10539 L699.1368 807.20129" />
    <path d="M709.9745 806.81384 L716.95731 807.49285" />
    <path d="M727.83116 806.64874 L734.77394 807.65794" />
    <path d="M727.8284 831.8916 L734.77669 832.86217" />
    <path d="M709.97304 832.05271 L716.95876 832.70106" />
    <path d="M692.12167 832.33151 L699.13683 832.42226" />
    <path d="M674.29729 832.67346 L681.28792 832.08031" />
    <path d="M656.50245 832.99206 L663.40947 831.76171" />
    <path d="M638.70914 833.19903 L645.52948 831.55474" />
    <path d="M620.87955 833.22775 L627.68578 831.52602" />
    <path d="M602.99983 833.03184 L609.89221 831.72193" />
    <path d="M585.10827 832.59477 L592.11047 832.159" />
    <path d="M567.28591 831.99306 L574.25953 832.76071" />
    <path d="M549.55787 831.43196 L556.31428 833.32181" />
    <path d="M549.51104 856.8426 L556.36111 858.35826" />
    <path d="M567.27874 857.28849 L574.2667 857.91236" />
    <path d="M585.10622 857.7824 L592.11252 857.41846" />
    <path d="M602.9839 858.16515 L609.90813 857.0357" />
    <path d="M620.85668 858.35396 L627.70865 856.8469" />
    <path d="M638.69089 858.34278 L645.54774 856.85807" />
    <path d="M656.49363 858.16388 L663.41829 857.03698" />
    <path d="M674.29552 857.87529 L681.28969 857.32556" />
    <path d="M692.12164 857.55792 L699.13687 857.64294" />
    <path d="M709.97145 857.2938 L716.96035 857.90706" />
    <path d="M727.82532 857.13775 L734.77978 858.06311" />
    <path d="M727.82218 882.38555 L734.78292 883.26238" />
    <path d="M709.96989 882.53573 L716.96191 883.11221" />
    <path d="M692.1216 882.78438 L699.1369 882.86356" />
    <path d="M674.2939 883.0774 L681.29131 882.57053" />
    <path d="M656.48596 883.33803 L663.42596 882.30991" />
    <path d="M638.67585 883.4931 L645.56278 882.15484" />
    <path d="M620.83913 883.49272 L627.7262 882.15522" />
    <path d="M602.97273 883.31537 L609.9193 882.33256" />
    <path d="M585.10492 882.97898 L592.11382 882.66896" />
    <path d="M567.2746 882.56261 L574.27084 883.08533" />
    <path d="M549.48528 882.19375 L556.38687 883.45418" />
    <path d="M531.69378 881.98327 L538.50507 883.66467" />
    <path d="M531.66574 907.32988 L538.53311 908.76515" />
    <path d="M549.46976 907.50911 L556.40238 908.58592" />
    <path d="M567.27203 907.82319 L574.27342 908.27183" />
    <path d="M585.10407 908.18196 L592.11467 907.91306" />
    <path d="M602.9649 908.47994 L609.92713 907.61508" />
    <path d="M620.82596 908.6445 L627.73937 907.45052" />
    <path d="M638.66392 908.65206 L645.5747 907.44297" />
    <path d="M656.47959 908.51656 L663.43233 907.57846" />
    <path d="M674.2925 908.28083 L681.29271 907.81419" />
    <path d="M692.12157 908.01074 L699.13694 908.08428" />
    <path d="M709.96843 907.7775 L716.96337 908.31752" />
    <path d="M727.81917 907.63372 L734.78593 908.4613" />
    <path d="M727.81639 932.88134 L734.78871 933.66077" />
    <path d="M709.96713 933.01849 L716.96467 933.52362" />
    <path d="M692.12155 933.23691 L699.13696 933.30519" />
    <path d="M674.29133 933.48604 L681.29389 933.05606" />
    <path d="M656.47442 933.70006 L663.4375 932.84204" />
    <path d="M638.6546 933.81966 L645.58402 932.72245" />
    <path d="M620.8161 933.80783 L627.74923 932.73428" />
    <path d="M602.95931 933.6558 L609.93273 932.88631" />
    <path d="M585.10349 933.38948 L592.11524 933.15263" />
    <path d="M567.27034 933.07486 L574.2751 933.46725" />
    <path d="M549.45976 932.80157 L556.41239 933.74053" />
    <path d="M531.64776 932.64562 L538.55109 933.89649" />
    <path d="M513.81111 932.64562 L520.71445 933.89649" />
    <path d="M495.94982 932.80157 L502.90245 933.74053" />
    <path d="M478.0871 933.07486 L485.09187 933.46725" />
    <path d="M460.24696 933.38948 L467.25871 933.15263" />
    <path d="M442.42948 933.6558 L449.4029 932.88631" />
    <path d="M424.61298 933.80783 L431.5461 932.73428" />
    <path d="M406.77818 933.81966 L413.7076 932.72245" />
    <path d="M388.9247 933.70006 L395.88779 932.84204" />
    <path d="M371.06832 933.48604 L378.07088 933.05606" />
    <path d="M353.22524 933.23691 L360.24066 933.30519" />
    <path d="M335.39753 933.01849 L342.39507 933.52362" />
    <path d="M317.5735 932.88134 L324.54581 933.66077" />
    <path d="M317.57627 907.63372 L324.54304 908.4613" />
    <path d="M335.39884 907.7775 L342.39377 908.31752" />
    <path d="M353.22527 908.01074 L360.24063 908.08428" />
    <path d="M371.06949 908.28083 L378.0697 907.81419" />
    <path d="M388.92987 908.51656 L395.88262 907.57846" />
    <path d="M406.78751 908.65206 L413.69828 907.44297" />
    <path d="M424.62284 908.6445 L431.53624 907.45052" />
    <path d="M442.43507 908.47994 L449.39731 907.61508" />
    <path d="M460.24754 908.18196 L467.25813 907.91306" />
    <path d="M478.08879 907.82319 L485.09018 908.27183" />
    <path d="M495.95982 907.50911 L502.89244 908.58592" />
    <path d="M513.8291 907.32988 L520.69646 908.76515" />
    <path d="M513.85713 881.98327 L520.66842 883.66467" />
    <path d="M495.97533 882.19375 L502.87693 883.45418" />
    <path d="M478.09136 882.56261 L485.08761 883.08533" />
    <path d="M460.24839 882.97898 L467.25728 882.66896" />
    <path d="M442.4429 883.31537 L449.38947 882.33256" />
    <path d="M424.636 883.49272 L431.52308 882.15522" />
    <path d="M406.79943 883.4931 L413.68636 882.15484" />
    <path d="M388.93624 883.33803 L395.87625 882.30991" />
    <path d="M371.07089 883.0774 L378.06831 882.57053" />
    <path d="M353.2253 882.78438 L360.2406 882.86356" />
    <path d="M335.40029 882.53573 L342.39231 883.11221" />
    <path d="M317.57929 882.38555 L324.54003 883.26238" />
    <path d="M317.58243 857.13775 L324.53688 858.06311" />
    <path d="M335.40186 857.2938 L342.39075 857.90706" />
    <path d="M353.22533 857.55792 L360.24057 857.64294" />
    <path d="M371.07251 857.87529 L378.06669 857.32556" />
    <path d="M388.94392 858.16388 L395.86857 857.03698" />
    <path d="M406.81447 858.34278 L413.67132 856.85807" />
    <path d="M424.65356 858.35396 L431.50553 856.8469" />
    <path d="M442.45407 858.16515 L449.37831 857.0357" />
    <path d="M460.24969 857.7824 L467.25599 857.41846" />
    <path d="M478.09551 857.28849 L485.08346 857.91236" />
    <path d="M496.00109 856.8426 L502.85117 858.35826" />
    <path d="M513.90415 856.58812 L520.62141 858.61273" />
    <path d="M531.74079 856.58812 L538.45806 858.61273" />
    <path d="M531.82771 831.11156 L538.37114 833.64221" />
    <path d="M513.99106 831.11156 L520.5345 833.64221" />
    <path d="M496.04792 831.43196 L502.80434 833.32181" />
    <path d="M478.10267 831.99306 L485.0763 832.76071" />
    <path d="M460.25174 832.59477 L467.25394 832.159" />
    <path d="M442.47 833.03184 L449.36238 831.72193" />
    <path d="M424.67642 833.22775 L431.48266 831.52602" />
    <path d="M413.65306 831.55474 L406.83272 833.19903" />
    <path d="M388.95273 832.99206 L395.85976 831.76171" />
    <path d="M371.07428 832.67346 L378.06491 832.08031" />
    <path d="M353.22537 832.33151 L360.24053 832.42226" />
    <path d="M335.40344 832.05271 L342.38917 832.70106" />
    <path d="M317.58551 831.8916 L324.5338 832.86217" />
    <path d="M317.58826 806.64874 L324.53105 807.65794" />
    <path d="M335.4049 806.81384 L342.38771 807.49285" />
    <path d="M353.2254 807.10539 L360.2405 807.20129" />
    <path d="M371.07605 807.47006 L378.06315 806.83663" />
    <path d="M388.96197 807.81826 L395.85053 806.48842" />
    <path d="M406.85307 808.05571 L413.63272 806.25098" />
    <path d="M424.70418 808.10839 L431.4549 806.1983" />
    <path d="M442.4918 807.91409 L449.34058 806.3926" />
    <path d="M460.25501 807.4186 L467.25067 806.88809" />
    <path d="M478.11595 806.66368 L485.06301 807.64301" />
    <path d="M496.14343 805.9168 L502.70883 808.38988" />
    <path d="M514.17468 805.48936 L520.35088 808.81733" />
    <path d="M532.01133 805.48936 L538.18752 808.81733" />
    <path d="M532.46968 779.60824 L537.72917 784.25136" />
    <path d="M514.63303 779.60824 L519.89252 784.25136" />
    <path d="M496.36135 780.22326 L502.49091 783.63634" />
    <path d="M478.14087 781.28776 L485.0381 782.57184" />
    <path d="M460.25977 782.25179 L467.2459 781.60781" />
    <path d="M442.51753 782.79832 L449.31484 781.06128" />
    <path d="M431.42647 780.87944 L424.73261 782.98016" />
    <path d="M406.8721 782.90083 L413.61369 780.95877" />
    <path d="M395.84241 781.22412 L388.97009 782.63548" />
    <path d="M371.07753 782.26247 L378.06166 781.59713" />
    <path d="M353.22543 781.87987 L360.24047 781.97974" />
    <path d="M335.40604 781.57877 L342.38657 782.28083" />
    <path d="M317.59036 781.41097 L324.52895 782.44863" />
    <path d="M317.59151 756.17984 L324.52781 757.23268" />
    <path d="M335.40667 756.34902 L342.38594 757.0635" />
    <path d="M353.22545 756.65524 L360.24045 756.75728" />
    <path d="M371.0784 757.04787 L378.0608 756.36465" />
    <path d="M388.97497 757.43534 L395.83752 755.97718" />
    <path d="M406.88411 757.71808 L413.60167 755.69444" />
    <path d="M424.75196 757.81638 L431.40712 755.59613" />
    <path d="M442.53744 757.64924 L449.29494 755.76328" />
    <path d="M460.26438 757.07483 L467.24129 756.33769" />
    <path d="M478.17459 755.90395 L485.00437 757.50857" />
    <path d="M496.78272 754.40027 L502.06954 759.01224" />
    <path d="M515.82296 753.50749 L518.70259 759.90503" />
    <path d="M533.65961 753.50749 L536.53924 759.90503" />
    <path d="M533.65961 728.28395 L536.53924 734.68148" />
    <path d="M515.82296 728.28395 L518.70259 734.68148" />
    <path d="M496.78272 729.17673 L502.06954 733.7887" />
    <path d="M478.17459 730.68041 L485.00437 732.28502" />
    <path d="M460.26438 731.85128 L467.24129 731.11415" />
    <path d="M442.53744 732.4257 L449.29494 730.53974" />
    <path d="M431.40712 730.37259 L424.75196 732.59284" />
    <path d="M406.88411 732.49454 L413.60167 730.4709" />
    <path d="M395.83752 730.75364 L388.97497 732.2118" />
    <path d="M371.0784 731.82432 L378.0608 731.14111" />
    <path d="M353.22545 731.43169 L360.24045 731.53374" />
    <path d="M335.40667 731.12547 L342.38594 731.83996" />
    <path d="M317.59151 730.9563 L324.52781 732.00913" />
    <path d="M317.59036 705.74034 L324.52895 706.77801" />
    <path d="M335.40604 705.90815 L342.38657 706.6102" />
    <path d="M353.22543 706.20924 L360.24047 706.30911" />
    <path d="M371.07753 706.59184 L378.06166 705.92651" />
    <path d="M388.97009 706.96485 L395.84241 705.5535" />
    <path d="M406.8721 707.23021 L413.61369 705.28814" />
    <path d="M424.73261 707.30953 L431.42647 705.20882" />
    <path d="M442.51753 707.12769 L449.31484 705.39066" />
    <path d="M460.25977 706.58117 L467.2459 705.93718" />
    <path d="M478.14087 705.61713 L485.0381 706.90122" />
    <path d="M496.36135 704.55263 L502.49091 707.96572" />
    <path d="M514.63303 703.93762 L519.89252 708.58073" />
    <path d="M532.46968 703.93762 L537.72917 708.58073" />
    <path d="M532.01133 679.37165 L538.18752 682.69962" />
    <path d="M514.17468 679.37165 L520.35088 682.69962" />
    <path d="M496.14343 679.79909 L502.70883 682.27217" />
    <path d="M478.11595 680.54597 L485.06301 681.5253" />
    <path d="M460.25501 681.30089 L467.25067 680.77038" />
    <path d="M442.4918 681.79638 L449.34058 680.27489" />
    <path d="M424.70418 681.99068 L431.4549 680.08059" />
    <path d="M413.63272 680.13327 L406.85307 681.938" />
    <path d="M388.96197 681.70055 L395.85053 680.37071" />
    <path d="M371.07605 681.35235 L378.06315 680.71892" />
    <path d="M353.2254 680.98768 L360.2405 681.08358" />
    <path d="M335.4049 680.69613 L342.38771 681.37514" />
    <path d="M317.58826 680.53103 L324.53105 681.54023" />
    <path d="M317.58551 655.32681 L324.5338 656.29738" />
    <path d="M335.40344 655.48792 L342.38917 656.13627" />
    <path d="M353.22537 655.76672 L360.24053 655.85747" />
    <path d="M371.07428 656.10867 L378.06491 655.51552" />
    <path d="M388.95273 656.42727 L395.85976 655.19691" />
    <path d="M406.83272 656.63424 L413.65306 654.98995" />
    <path d="M424.67642 656.66295 L431.48266 654.96123" />
    <path d="M442.47 656.46704 L449.36238 655.15714" />
    <path d="M460.25174 656.02998 L467.25394 655.59421" />
    <path d="M478.10267 655.42826 L485.0763 656.19592" />
    <path d="M496.04792 654.86716 L502.80434 656.75702" />
    <path d="M513.99106 654.54677 L520.5345 657.07741" />
    <path d="M531.82771 654.54677 L538.37114 657.07741" />
    <path d="M531.74079 629.57624 L538.45806 631.60086" />
    <path d="M513.90415 629.57624 L520.62141 631.60086" />
    <path d="M496.00109 629.83072 L502.85117 631.34638" />
    <path d="M478.09551 630.27662 L485.08346 630.90048" />
    <path d="M460.24969 630.77052 L467.25599 630.40658" />
    <path d="M442.45407 631.15328 L449.37831 630.02382" />
    <path d="M424.65356 631.34208 L431.50553 629.83502" />
    <path d="M406.81447 631.3309 L413.67132 629.84619" />
    <path d="M388.94392 631.152 L395.86857 630.0251" />
    <path d="M371.07251 630.86342 L378.06669 630.31368" />
    <path d="M353.22533 630.54604 L360.24057 630.63106" />
    <path d="M335.40186 630.28192 L342.39075 630.89518" />
    <path d="M317.58243 630.12587 L324.53688 631.05123" />
    <path d="M317.57929 604.92659 L324.54003 605.80342" />
    <path d="M335.40029 605.07677 L342.39231 605.65325" />
    <path d="M353.2253 605.32542 L360.2406 605.4046" />
    <path d="M371.07089 605.61844 L378.06831 605.11157" />
    <path d="M388.93624 605.87907 L395.87625 604.85094" />
    <path d="M406.79943 606.03413 L413.68636 604.69588" />
    <path d="M424.636 606.03375 L431.52308 604.69626" />
    <path d="M442.4429 605.85641 L449.38947 604.8736" />
    <path d="M460.24839 605.52002 L467.25728 605.21" />
    <path d="M478.09136 605.10364 L485.08761 605.62637" />
    <path d="M495.97533 604.73479 L502.87693 605.99522" />
    <path d="M513.85713 604.52431 L520.66842 606.2057" />
    <path d="M513.8291 579.42383 L520.69646 580.8591" />
    <path d="M495.95982 579.60306 L502.89244 580.67987" />
    <path d="M478.08879 579.91715 L485.09018 580.36578" />
    <path d="M460.24754 580.27591 L467.25813 580.00702" />
    <path d="M442.43507 580.57389 L449.39731 579.70904" />
    <path d="M424.62284 580.73846 L431.53624 579.54448" />
    <path d="M406.78751 580.74601 L413.69828 579.53692" />
    <path d="M388.92987 580.61052 L395.88262 579.67242" />
    <path d="M371.06949 580.37479 L378.0697 579.90814" />
    <path d="M353.22527 580.10469 L360.24063 580.17824" />
    <path d="M335.39884 579.87145 L342.39377 580.41148" />
    <path d="M324.54304 580.55526 L317.57627 579.72768" />
  </g>
</svg>