<?xml version="1.0" standalone="no"?>
<!DOCTYPE svg PUBLIC "-//W3C//DTD SVG 1.1//EN" 
    "http://www.w3.org/Graphics/SVG/1.1/DTD/svg11.dtd">
<svg width="29.7cm" height="42cm"
    xmlns="http://www.w3.org/2000/svg" version="1.1" viewBox="0 0 1052.3622 1488.18898">
  <g fill="none" stroke="black" stroke-width="0.1cm" stroke-linejoin="round" stroke-linecap="round">
    <path d="M318.44239 552.58231 L323.67692 557.25354" />
    <path d="M336.3838 552.46996 L341.4088 557.36589" />
    <path d="M354.3411 552.35195 L359.1248 557.4839" />
    <path d="M372.31665 552.22917 L376.82255 557.60668" />
    <path d="M390.31292 552.10311 L394.49957 557.73273" />
    <path d="M408.33229 551.97602 L412.15349 557.85983" />
    <path d="M426.37682 551.85101 L429.78226 557.98483" />
    <path d="M444.44781 551.73217 L447.38456 558.10368" />
    <path d="M462.54536 551.62442 L464.96031 558.21143" />
    <path d="M480.66785 551.53329 L482.51112 558.30256" />
    <path d="M500.04068 558.37155 L498.81158 551.4643" />
    <path d="M516.97068 551.42223 L517.55488 558.41361" />
    <path d="M535.06137 558.42559 L535.13749 551.41026" />
    <path d="M553.30335 551.42933 L552.5688 558.40652" />
    <path d="M570.0857 558.35786 L571.45974 551.47798" />
    <path d="M587.61944 558.28322 L589.5993 551.55263" />
    <path d="M605.17544 558.18761 L607.71659 551.64824" />
    <path d="M622.75696 558.07663 L625.80837 551.75922" />
    <path d="M640.3652 557.95573 L643.87342 551.88011" />
    <path d="M657.99977 557.82971 L661.91215 552.00614" />
    <path d="M675.65913 557.70243 L679.92608 552.13342" />
    <path d="M693.34112 557.5768 L697.91738 552.25904" />
    <path d="M711.04331 557.4549 L715.88849 552.38095" />
    <path d="M728.76323 557.33805 L733.84187 552.4978" />
    <path d="M734.0016 577.90086 L728.6035 582.38207" />
    <path d="M716.05695 577.7768 L710.87485 582.50613" />
    <path d="M698.09322 577.64466 L693.16529 582.63828" />
    <path d="M680.10693 577.50535 L675.47828 582.77758" />
    <path d="M662.09432 577.36071 L657.8176 582.92222" />
    <path d="M644.05161 577.21377 L640.18701 583.06916" />
    <path d="M625.97551 577.0691 L622.58982 583.21383" />
    <path d="M607.86398 576.93295 L605.02805 583.34998" />
    <path d="M589.71721 576.81312 L587.50152 583.46981" />
    <path d="M571.53865 576.71823 L570.00679 583.5647" />
    <path d="M553.33557 576.65641 L552.53658 583.62652" />
    <path d="M553.3682 601.88385 L552.50395 608.84616" />
    <path d="M569.91085 608.76535 L571.6346 601.96466" />
    <path d="M589.86332 602.08891 L587.35542 608.6411" />
    <path d="M590.04663 627.38863 L587.17211 633.78847" />
    <path d="M571.75019 627.21961 L569.79525 633.95749" />
    <path d="M553.39126 627.11033 L552.48089 634.06677" />
    <path d="M553.36606 652.33067 L552.50609 659.29351" />
    <path d="M569.66418 659.1402 L571.88127 652.48398" />
    <path d="M590.27809 652.72655 L586.94064 658.89763" />
    <path d="M590.56945 678.12646 L586.64929 683.9448" />
    <path d="M571.99191 677.74644 L569.55353 684.32482" />
    <path d="M553.11494 677.53232 L552.75721 684.53894" />
    <path d="M551.77399 702.94938 L554.09816 709.56897" />
    <path d="M571.94768 702.95393 L569.59776 709.56442" />
    <path d="M571.9494 728.17808 L569.59604 734.78735" />
    <path d="M585.7559 733.52303 L591.46284 729.4424" />
    <path d="M609.6951 730.16036 L603.19693 732.80507" />
    <path d="M602.94796 756.96846 L609.94408 756.44406" />
    <path d="M627.78995 756.64199 L620.77538 756.77053" />
    <path d="M620.8759 781.09366 L627.68943 782.76594" />
    <path d="M638.69869 781.15228 L645.53993 782.70732" />
    <path d="M663.38947 782.64824 L656.52244 781.21136" />
    <path d="M656.69789 805.85328 L663.21403 808.45341" />
    <path d="M681.09336 808.34088 L674.49186 805.96581" />
    <path d="M692.29544 806.06207 L698.96307 808.24462" />
    <path d="M716.82572 808.16171 L710.10608 806.14497" />
    <path d="M727.92198 806.2169 L734.68312 808.08979" />
    <path d="M734.5594 833.68001 L728.0457 831.07377" />
    <path d="M716.68258 833.77622 L710.24922 830.97755" />
    <path d="M698.79594 833.88594 L692.46256 830.86783" />
    <path d="M680.89626 834.01166 L674.68895 830.74211" />
    <path d="M662.97905 834.15625 L656.93287 830.59752" />
    <path d="M645.03797 834.32281 L639.20066 830.43096" />
    <path d="M627.06407 834.5144 L621.50126 830.23937" />
    <path d="M609.04471 834.73315 L603.84732 830.02062" />
    <path d="M590.96232 834.97857 L586.25641 829.7752" />
    <path d="M572.79351 835.24422 L568.75194 829.50955" />
    <path d="M554.51109 835.51129 L551.36106 829.24248" />
    <path d="M536.09634 835.74012 L534.10251 829.01365" />
    <path d="M517.56691 835.87155 L516.95865 828.88222" />
    <path d="M499.85612 828.89546 L498.99615 835.85831" />
    <path d="M499.88131 854.12221 L498.97095 861.07864" />
    <path d="M499.85826 879.34281 L498.994 886.30512" />
    <path d="M480.72761 886.22431 L482.45136 879.42362" />
    <path d="M465.00679 879.54788 L462.49888 886.10006" />
    <path d="M444.3176 885.94642 L447.51477 879.70152" />
    <path d="M429.97271 879.87082 L426.18637 885.77712" />
    <path d="M408.10265 885.60327 L412.38314 880.04466" />
    <path d="M394.75141 880.21525 L390.06108 885.43268" />
    <path d="M372.05539 885.27017 L377.08381 880.37777" />
    <path d="M359.38649 880.52965 L354.07941 885.11829" />
    <path d="M336.1277 884.97804 L341.66491 880.6699" />
    <path d="M323.92366 880.79846 L318.19565 884.84947" />
    <path d="M318.36061 910.28812 L323.7587 905.8069" />
    <path d="M336.30525 910.41218 L341.48735 905.68284" />
    <path d="M354.26899 910.54432 L359.19692 905.5507" />
    <path d="M372.25528 910.68362 L376.88392 905.4114" />
    <path d="M390.26789 910.82827 L394.54461 905.26676" />
    <path d="M408.3106 910.97521 L412.17519 905.11981" />
    <path d="M426.38669 911.11988 L429.77239 904.97514" />
    <path d="M444.49822 911.25602 L447.33415 904.839" />
    <path d="M462.64499 911.37585 L464.86068 904.71917" />
    <path d="M480.82355 911.47075 L482.35541 904.62428" />
    <path d="M499.02663 911.53256 L499.82563 904.56246" />
    <path d="M517.24335 911.55533 L517.2822 904.53969" />
    <path d="M534.73824 904.55828 L535.46061 911.53674" />
    <path d="M553.66523 911.47877 L552.20692 904.61626" />
    <path d="M569.69931 904.70791 L571.84614 911.38712" />
    <path d="M589.99579 911.26978 L587.22294 904.82524" />
    <path d="M604.78154 904.95968 L608.11049 911.13534" />
    <path d="M626.18981 910.99165 L622.37552 905.10337" />
    <path d="M640.00302 905.24993 L644.2356 910.8451" />
    <path d="M662.25107 910.70037 L657.66085 905.39465" />
    <path d="M675.34529 905.53438 L680.23992 910.56064" />
    <path d="M698.20591 910.42785 L693.0526 905.66717" />
    <path d="M710.77929 905.79201 L716.15251 910.30302" />
    <path d="M734.08282 910.1865 L728.52228 905.90852" />
    <path d="M734.24869 884.72803 L728.35641 880.91991" />
    <path d="M716.33328 884.8447 L710.59853 880.80324" />
    <path d="M698.40223 884.97241 L692.85628 880.67553" />
    <path d="M680.45186 885.11166 L675.13335 880.53628" />
    <path d="M662.4777 885.26241 L657.43422 880.38553" />
    <path d="M644.47441 885.42371 L639.76421 880.22422" />
    <path d="M626.436 885.59314 L622.12933 880.05479" />
    <path d="M608.35624 885.76612 L604.5358 879.88182" />
    <path d="M590.22971 885.93519 L586.98903 879.71275" />
    <path d="M572.0535 886.08967 L569.49194 879.55827" />
    <path d="M553.82952 886.21616 L552.04263 879.43178" />
    <path d="M535.56657 886.3006 L534.63228 879.34734" />
    <path d="M517.24464 879.31614 L517.28092 886.3318" />
    <path d="M517.36246 861.10688 L517.1631 854.09397" />
    <path d="M535.74551 861.04829 L534.45334 854.15257" />
    <path d="M554.08223 860.91577 L551.78992 854.28508" />
    <path d="M572.34974 860.73383 L569.1957 854.46703" />
    <path d="M590.54213 860.52782 L586.67661 854.67304" />
    <path d="M608.665 860.31728 L604.22703 854.88357" />
    <path d="M626.72899 860.11452 L621.83634 855.08633" />
    <path d="M644.74551 859.92599 L639.49311 855.27486" />
    <path d="M662.72475 859.75425 L657.18716 855.4466" />
    <path d="M680.67507 859.59958 L674.91015 855.60127" />
    <path d="M698.603 859.46107 L692.65551 855.73978" />
    <path d="M716.5136 859.33729 L710.4182 855.86356" />
    <path d="M734.4107 859.22665 L728.1944 855.97421" />
    <path d="M734.76961 782.46336 L727.83549 781.39624" />
    <path d="M716.92686 782.50161 L710.00495 781.358" />
    <path d="M699.08278 782.54487 L692.17572 781.31474" />
    <path d="M681.23708 782.5937 L674.34813 781.26591" />
    <path d="M681.29932 756.7964 L674.28589 756.61612" />
    <path d="M663.46317 756.77431 L656.44875 756.63821" />
    <path d="M645.6271 756.73082 L638.61152 756.68169" />
    <path d="M645.55034 730.75248 L638.68829 732.21296" />
    <path d="M627.65965 730.53342 L620.90568 732.43202" />
    <path d="M627.36862 704.59123 L621.1967 707.92712" />
    <path d="M609.28468 704.19832 L603.60735 708.32004" />
    <path d="M590.94067 703.63806 L586.27807 708.88029" />
    <path d="M608.88472 678.51415 L604.00731 683.55712" />
    <path d="M627.02644 678.85003 L621.53889 683.22124" />
    <path d="M645.06181 679.12595 L639.17681 682.94532" />
    <path d="M645.34011 704.86934 L638.89852 707.64901" />
    <path d="M663.25714 705.07285 L656.65477 707.4455" />
    <path d="M663.4141 730.8941 L656.49782 732.07133" />
    <path d="M681.26602 730.99222 L674.31919 731.97321" />
    <path d="M699.11202 731.06375 L692.14649 731.90169" />
    <path d="M692.12284 756.60503 L699.13567 756.80748" />
    <path d="M716.97216 756.81255 L709.95964 756.59997" />
    <path d="M734.80876 756.81421 L727.79634 756.59831" />
    <path d="M734.79558 731.16032 L727.80952 731.80511" />
    <path d="M716.95476 731.11796 L709.97704 731.84748" />
    <path d="M716.87741 705.4426 L710.05439 707.07575" />
    <path d="M699.0164 705.34681 L692.2421 707.17154" />
    <path d="M681.14514 705.22685 L674.44007 707.2915" />
    <path d="M680.96193 679.53211 L674.62329 682.53916" />
    <path d="M663.0322 679.34983 L656.87972 682.72144" />
    <path d="M662.78075 653.73225 L657.13117 657.89194" />
    <path d="M644.77141 653.51611 L639.46721 658.10808" />
    <path d="M626.7006 653.27068 L621.86473 658.3535" />
    <path d="M608.54497 653.00147 L604.34707 658.62271" />
    <path d="M622.14937 633.37319 L626.41596 627.80391" />
    <path d="M644.50003 628.01224 L639.7386 633.16486" />
    <path d="M662.53191 628.20744 L657.38001 632.96966" />
    <path d="M680.52266 628.38582 L675.06256 632.79128" />
    <path d="M680.74627 653.91973 L674.83894 657.70445" />
    <path d="M698.68056 654.08157 L692.57794 657.54261" />
    <path d="M698.86541 679.68194 L692.3931 682.38932" />
    <path d="M716.7514 679.80652 L710.18041 682.26474" />
    <path d="M734.62536 679.91131 L727.97974 682.15996" />
    <path d="M734.73181 705.52069 L727.87329 706.99766" />
    <path d="M734.48779 654.3426 L728.11731 657.28159" />
    <path d="M716.59237 654.22138 L710.33943 657.4028" />
    <path d="M716.41589 628.69045 L710.51592 632.48665" />
    <path d="M698.48154 628.54658 L692.77696 632.63051" />
    <path d="M698.28279 603.07069 L692.97571 607.65933" />
    <path d="M680.30682 602.9188 L675.27839 607.81121" />
    <path d="M662.30112 602.75629 L657.6108 607.97372" />
    <path d="M644.25956 602.5857 L639.97907 608.14431" />
    <path d="M626.17583 602.41186 L622.3895 608.31816" />
    <path d="M608.0446 602.24256 L604.84743 608.48746" />
    <path d="M608.26797 627.59094 L604.62406 633.58616" />
    <path d="M534.99975 627.08209 L535.1991 634.09501" />
    <path d="M534.7953 652.31743 L535.40356 659.30676" />
    <path d="M534.12677 677.6653 L536.07208 684.40596" />
    <path d="M531.91424 704.78956 L538.28461 707.72879" />
    <path d="M538.59983 731.25388 L531.59902 731.71156" />
    <path d="M516.31189 734.85925 L518.21367 728.10618" />
    <path d="M498.91532 734.9532 L499.93694 728.01223" />
    <path d="M478.85627 733.68152 L484.32269 729.28391" />
    <path d="M482.76617 753.40163 L480.4128 760.01089" />
    <path d="M497.0742 754.10364 L501.77806 759.30888" />
    <path d="M520.76318 756.47742 L513.76238 756.9351" />
    <path d="M536.05031 753.32972 L534.14854 760.08279" />
    <path d="M553.44689 753.23578 L552.42526 760.17674" />
    <path d="M573.50593 754.50746 L568.03951 758.90506" />
    <path d="M567.32026 781.30875 L574.22518 782.55085" />
    <path d="M592.01174 782.78364 L585.207 781.07596" />
    <path d="M585.72004 805.16413 L591.49869 809.14256" />
    <path d="M609.47307 808.92595 L603.41896 805.38074" />
    <path d="M621.15505 805.56487 L627.41027 808.74181" />
    <path d="M645.32142 808.58572 L638.9172 805.72097" />
    <path d="M609.8422 782.80793 L603.04983 781.05167" />
    <path d="M592.0311 755.93366 L585.18763 757.47886" />
    <path d="M556.44394 781.93727 L549.42821 781.92233" />
    <path d="M538.60565 781.82216 L531.5932 782.03745" />
    <path d="M520.44797 783.39942 L514.07759 780.46019" />
    <path d="M500.58822 785.2396 L498.26405 778.62001" />
    <path d="M480.41453 785.23505 L482.76444 778.62455" />
    <path d="M461.42154 784.55091 L466.08413 779.30869" />
    <path d="M448.75486 779.86894 L443.07752 783.99066" />
    <path d="M424.99358 783.59774 L431.1655 780.26186" />
    <path d="M413.46369 780.53996 L407.0221 783.31964" />
    <path d="M389.10506 783.11612 L395.70743 780.74348" />
    <path d="M377.92213 780.89747 L371.21707 782.96213" />
    <path d="M353.3458 782.84216 L360.1201 781.01744" />
    <path d="M335.48479 782.74637 L342.30781 781.11323" />
    <path d="M317.6304 782.66829 L324.48891 781.19131" />
    <path d="M324.38247 806.02902 L317.73684 808.27767" />
    <path d="M335.61081 808.38245 L342.1818 805.92423" />
    <path d="M353.49679 808.50703 L359.96911 805.79965" />
    <path d="M371.40028 808.65687 L377.73892 805.64982" />
    <path d="M389.33001 808.83915 L395.48248 805.46754" />
    <path d="M407.3004 809.06303 L413.18539 805.24366" />
    <path d="M425.33577 809.33895 L430.82332 804.96774" />
    <path d="M443.47748 809.67483 L448.3549 804.63186" />
    <path d="M461.79276 810.06251 L465.71291 804.24417" />
    <path d="M480.3703 810.44253 L482.80867 803.86415" />
    <path d="M499.24727 810.65665 L499.60499 803.65003" />
    <path d="M518.23544 810.52367 L516.29012 803.78301" />
    <path d="M536.96856 810.12176 L533.23029 804.18493" />
    <path d="M555.33108 809.71638 L550.54107 804.59031" />
    <path d="M573.46751 809.39907 L568.07793 804.90762" />
    <path d="M550.58415 728.8801 L555.288 734.08533" />
    <path d="M513.75656 706.36682 L520.769 706.15153" />
    <path d="M495.91826 706.2517 L502.934 706.26665" />
    <path d="M478.13702 705.63813 L485.04194 706.88022" />
    <path d="M460.35046 705.40534 L467.15521 707.11301" />
    <path d="M467.17457 730.71012 L460.3311 732.25532" />
    <path d="M442.41813 731.74492 L449.41425 731.22052" />
    <path d="M449.16527 755.3839 L442.6671 758.02862" />
    <path d="M424.70256 757.65556 L431.45652 755.75696" />
    <path d="M406.81187 757.4365 L413.67392 755.97602" />
    <path d="M388.94811 757.29487 L395.86438 756.11765" />
    <path d="M371.09619 757.19676 L378.04301 756.21576" />
    <path d="M353.25019 757.12523 L360.21571 756.28729" />
    <path d="M335.40744 757.07102 L342.38516 756.3415" />
    <path d="M317.56663 757.02865 L324.55268 756.38387" />
    <path d="M317.55344 731.37477 L324.56587 731.59067" />
    <path d="M335.39004 731.37642 L342.40257 731.58901" />
    <path d="M353.22654 731.38149 L360.23936 731.58394" />
    <path d="M371.06288 731.39257 L378.07631 731.57286" />
    <path d="M388.89903 731.41466 L395.91346 731.55077" />
    <path d="M406.73511 731.45815 L413.75068 731.50728" />
    <path d="M424.57226 731.54699 L431.58683 731.41845" />
    <path d="M424.67278 705.42304 L431.48631 707.09531" />
    <path d="M442.52 705.38105 L449.31237 707.1373" />
    <path d="M442.88913 679.26303 L448.94324 682.80824" />
    <path d="M460.86351 679.04642 L466.64216 683.02485" />
    <path d="M478.89469 678.78991 L484.28427 683.28136" />
    <path d="M497.03113 678.4726 L501.82113 683.59867" />
    <path d="M515.39364 678.06722 L519.13192 684.00405" />
    <path d="M516.26586 652.44886 L518.2597 659.17532" />
    <path d="M497.85111 652.67768 L501.00115 658.9465" />
    <path d="M479.5687 652.94476 L483.61027 658.67943" />
    <path d="M461.39988 653.2104 L466.10579 658.41378" />
    <path d="M443.31749 653.45583 L448.51488 658.16835" />
    <path d="M425.29814 653.67457 L430.86094 657.94961" />
    <path d="M424.95193 679.44716 L431.20715 682.6241" />
    <path d="M407.04079 679.60326 L413.445 682.46801" />
    <path d="M406.82227 705.48165 L413.66351 707.0367" />
    <path d="M388.97273 705.54073 L395.83976 706.97762" />
    <path d="M371.12512 705.59528 L378.01408 706.92307" />
    <path d="M353.27942 705.64411 L360.18648 706.87424" />
    <path d="M335.43535 705.68737 L342.35726 706.83098" />
    <path d="M317.5926 705.72561 L324.52671 706.79274" />
    <path d="M317.67909 680.09919 L324.44023 681.97208" />
    <path d="M335.53649 680.02726 L342.25612 682.044" />
    <path d="M353.39914 679.94436 L360.06676 682.12691" />
    <path d="M371.26885 679.8481 L377.87035 682.22317" />
    <path d="M389.14818 679.73557 L395.66432 682.3357" />
    <path d="M389.38316 654.03273 L395.42933 657.59145" />
    <path d="M407.32424 653.86616 L413.16155 657.75802" />
    <path d="M407.61669 628.26299 L412.86909 632.91411" />
    <path d="M425.63321 628.07446 L430.52587 633.10264" />
    <path d="M443.6972 627.8717 L448.13517 633.3054" />
    <path d="M461.82008 627.66116 L465.6856 633.51594" />
    <path d="M480.01247 627.45515 L483.1665 633.72195" />
    <path d="M498.27997 627.27321 L500.57229 633.90389" />
    <path d="M516.61669 627.14069 L517.90887 634.03641" />
    <path d="M535.11757 608.87283 L535.08129 601.85718" />
    <path d="M516.79564 601.88838 L517.72992 608.84164" />
    <path d="M498.53269 601.97282 L500.31958 608.75719" />
    <path d="M480.3087 602.09931 L482.87026 608.6307" />
    <path d="M462.1325 602.25379 L465.37317 608.47623" />
    <path d="M444.00597 602.42286 L447.82641 608.30716" />
    <path d="M425.92621 602.59583 L430.23288 608.13418" />
    <path d="M407.88779 602.76526 L412.598 607.96475" />
    <path d="M389.88451 602.92656 L394.92799 607.80345" />
    <path d="M389.63745 628.43473 L395.17504 632.74237" />
    <path d="M371.68714 628.5894 L377.45206 632.5877" />
    <path d="M371.46594 654.17731 L377.67325 657.44687" />
    <path d="M353.56626 654.30303 L359.89964 657.32115" />
    <path d="M335.67962 654.41276 L342.11299 657.21142" />
    <path d="M317.80281 654.50897 L324.3165 657.11521" />
    <path d="M317.95151 628.96233 L324.1678 632.21477" />
    <path d="M335.8486 628.85168 L341.944 632.32541" />
    <path d="M353.7592 628.7279 L359.7067 632.44919" />
    <path d="M353.95998 603.21657 L359.50592 607.51345" />
    <path d="M371.91034 603.07732 L377.22886 607.6527" />
    <path d="M394.70136 582.79432 L390.11114 577.48861" />
    <path d="M372.12228 577.62833 L377.01691 582.6546" />
    <path d="M354.1563 577.76112 L359.3096 582.52181" />
    <path d="M336.20969 577.88596 L341.58291 582.39697" />
    <path d="M323.83992 582.28046 L318.27939 578.00247" />
    <path d="M318.11352 603.46095 L324.0058 607.26907" />
    <path d="M336.02893 603.34428 L341.76368 607.38573" />
    <path d="M408.1266 577.34388 L412.35919 582.93905" />
    <path d="M426.1724 577.19732 L429.98668 583.08561" />
    <path d="M444.25171 577.05364 L447.58067 583.2293" />
    <path d="M462.36641 576.9192 L465.13926 583.36373" />
    <path d="M480.51607 576.80186 L482.6629 583.48107" />
    <path d="M498.69698 576.71021 L500.15528 583.57272" />
    <path d="M517.62396 583.6307 L516.90159 576.65224" />
    <path d="M535.11885 576.63365 L535.08 583.64929" />
    <path d="M710.6973 607.51908 L716.2345 603.21094" />
    <path d="M728.43855 607.39051 L734.16655 603.3395" />
    <path d="M734.33131 628.81886 L728.27379 632.35824" />
    <path d="M466.60631 754.66594 L460.89937 758.74658" />
    <path d="M482.69803 829.04878 L480.48094 835.70499" />
    <path d="M462.08411 835.46242 L465.42156 829.29135" />
    <path d="M443.81724 835.18751 L448.01514 829.56626" />
    <path d="M425.6616 834.91829 L430.49748 829.83548" />
    <path d="M407.59079 834.67287 L412.89499 830.0809" />
    <path d="M389.58146 834.45673 L395.23103 830.29704" />
    <path d="M371.61593 834.26925 L377.52327 830.48452" />
    <path d="M353.68164 834.1074 L359.78426 830.64637" />
    <path d="M335.76983 833.96759 L342.02278 830.78618" />
    <path d="M324.2449 830.90739 L317.87441 833.84638" />
    <path d="M324.08841 855.83073 L318.0309 859.37012" />
    <path d="M335.94632 859.49852 L341.84629 855.70233" />
    <path d="M353.88066 859.64239 L359.58524 855.55846" />
    <path d="M371.83955 859.80315 L377.29965 855.3977" />
    <path d="M389.8303 859.98154 L394.98219 855.21932" />
    <path d="M407.86218 860.17674 L412.62361 855.02412" />
    <path d="M425.94625 860.38507 L430.21284 854.81578" />
    <path d="M444.09423 860.59804 L447.73814 854.60282" />
    <path d="M462.31558 860.80034 L465.19009 854.40051" />
    <path d="M480.61201 860.96936 L482.56696 854.23149" />
    <path d="M499.79341 929.78246 L499.05885 936.75965" />
    <path d="M480.90247 936.71099 L482.2765 929.83111" />
    <path d="M462.76291 936.63635 L464.74277 929.90576" />
    <path d="M444.64561 936.54073 L447.18676 930.00137" />
    <path d="M426.55384 936.42976 L429.60525 930.11235" />
    <path d="M408.48879 936.30886 L411.997 930.23324" />
    <path d="M390.45005 936.18284 L394.36244 930.35927" />
    <path d="M372.43612 936.05556 L376.70308 930.48655" />
    <path d="M354.44482 935.92993 L359.02108 930.61217" />
    <path d="M336.47371 935.80803 L341.31889 930.73408" />
    <path d="M323.59898 930.85092 L318.52033 935.69118" />
    <path d="M517.22472 936.77872 L517.30084 929.76339" />
    <path d="M534.80733 929.77536 L535.39152 936.76674" />
    <path d="M553.55062 936.72468 L552.32152 929.81743" />
    <path d="M569.85109 929.88642 L571.69435 936.65569" />
    <path d="M587.40189 929.97755 L589.81684 936.56456" />
    <path d="M604.97764 930.0853 L607.91439 936.45681" />
    <path d="M622.57994 930.20414 L625.98538 936.33796" />
    <path d="M640.20871 930.32915 L644.02991 936.21295" />
    <path d="M657.86263 930.45624 L662.04929 936.08586" />
    <path d="M675.53966 930.5823 L680.04555 935.95981" />
    <path d="M693.2374 930.70508 L698.0211 935.83703" />
    <path d="M710.9534 930.82309 L715.9784 935.71902" />
    <path d="M728.68528 930.93544 L733.91981 935.60667" />
  </g>
</svg>