<?xml version="1.0" standalone="no"?>
<!DOCTYPE svg PUBLIC "-//W3C//DTD SVG 1.1//EN" 
    "http://www.w3.org/Graphics/SVG/1.1/DTD/svg11.dtd">
<svg width="29.7cm" height="42cm"
    xmlns="http://www.w3.org/2000/svg" version="1.1" viewBox="0 0 1052.3622 1488.18898">
  <g fill="none" stroke="black" stroke-width="0.1cm" stroke-linejoin="round" stroke-linecap="round">
    <path d="M24.85895 21.04724 L24.85895 187.48837" />
    <path d="M33.14527 187.48837 L33.14527 21.04724" />
    <path d="M41.43158 21.04724 L41.43158 187.48837" />
    <path d="M49.7179 187.48837 L49.7179 21.04724" />
    <path d="M58.00422 21.04724 L58.00422 187.48837" />
    <path d="M66.29053 187.48837 L66.29053 21.04724" />
    <path d="M74.57685 21.04724 L74.57685 187.48837" />
    <path d="M91.14948 187.48837 L91.14948 21.04724" />
    <path d="M82.86317 21.04724 L82.86317 187.48837" />
    <path d="M107.72212 187.48837 L107.72212 21.04724" />
    <path d="M99.4358 21.04724 L99.4358 187.48837" />
    <path d="M124.29475 175.77035 L124.29475 21.04724" />
    <path d="M132.58107 21.04724 L132.58107 175.77035" />
    <path d="M149.1537 152.3343 L149.1537 21.04724" />
    <path d="M140.86738 21.04724 L140.86738 164.05233" />
    <path d="M165.72633 140.61628 L165.72633 21.04724" />
    <path d="M157.44001 21.04724 L157.44001 152.3343" />
    <path d="M182.29896 46.87209 L182.29896 93.74419" />
    <path d="M174.01265 23.43605 L174.01265 117.18023" />
    <path d="M116.00843 21.04724 L116.00843 175.77035" />
    <path d="M364.59793 257.79652 L364.59793 292.95059" />
    <path d="M372.88425 234.36047 L372.88425 328.10466" />
    <path d="M389.45688 363.25873 L389.45688 199.2064" />
    <path d="M381.17056 210.92442 L381.17056 351.5407" />
    <path d="M406.02951 386.69477 L406.02951 175.77035" />
    <path d="M414.31583 175.77035 L414.31583 398.4128" />
    <path d="M422.60215 398.4128 L422.60215 164.05233" />
    <path d="M430.88846 164.05233 L430.88846 410.13082" />
    <path d="M439.17478 410.13082 L439.17478 164.05233" />
    <path d="M447.46109 152.3343 L447.46109 421.84884" />
    <path d="M455.74741 421.84884 L455.74741 152.3343" />
    <path d="M464.03373 152.3343 L464.03373 421.84884" />
    <path d="M472.32004 433.56687 L472.32004 152.3343" />
    <path d="M480.60636 152.3343 L480.60636 433.56687" />
    <path d="M488.89268 433.56687 L488.89268 140.61628" />
    <path d="M497.17899 140.61628 L497.17899 433.56687" />
    <path d="M505.46531 445.28489 L505.46531 140.61628" />
    <path d="M513.75163 140.61628 L513.75163 445.28489" />
    <path d="M522.03794 445.28489 L522.03794 152.3343" />
    <path d="M530.32426 152.3343 L530.32426 445.28489" />
    <path d="M538.61058 445.28489 L538.61058 152.3343" />
    <path d="M546.89689 152.3343 L546.89689 457.00291" />
    <path d="M555.18321 457.00291 L555.18321 152.3343" />
    <path d="M563.46953 164.05233 L563.46953 1054.62211" />
    <path d="M555.18321 1054.62211 L555.18321 515.59303" />
    <path d="M546.89689 539.02908 L546.89689 1042.90409" />
    <path d="M538.61058 1031.18606 L538.61058 550.7471" />
    <path d="M530.32426 574.18315 L530.32426 1019.46804" />
    <path d="M522.03794 1007.75002 L522.03794 597.6192" />
    <path d="M513.75163 609.33722 L513.75163 984.31397" />
    <path d="M505.46531 949.1599 L505.46531 621.05524" />
    <path d="M497.17899 621.05524 L497.17899 867.13373" />
    <path d="M488.89268 855.41571 L488.89268 621.05524" />
    <path d="M480.60636 621.05524 L480.60636 843.69769" />
    <path d="M472.32004 843.69769 L472.32004 621.05524" />
    <path d="M464.03373 621.05524 L464.03373 855.41571" />
    <path d="M455.74741 855.41571 L455.74741 609.33722" />
    <path d="M447.46109 609.33722 L447.46109 855.41571" />
    <path d="M439.17478 855.41571 L439.17478 609.33722" />
    <path d="M430.88846 597.6192 L430.88846 867.13373" />
    <path d="M422.60215 867.13373 L422.60215 597.6192" />
    <path d="M414.31583 597.6192 L414.31583 867.13373" />
    <path d="M406.02951 878.85176 L406.02951 585.90117" />
    <path d="M397.7432 585.90117 L397.7432 878.85176" />
    <path d="M389.45688 878.85176 L389.45688 585.90117" />
    <path d="M381.17056 585.90117 L381.17056 890.56978" />
    <path d="M372.88425 890.56978 L372.88425 585.90117" />
    <path d="M364.59793 574.18315 L364.59793 890.56978" />
    <path d="M356.31161 890.56978 L356.31161 574.18315" />
    <path d="M348.0253 574.18315 L348.0253 902.2878" />
    <path d="M339.73898 902.2878 L339.73898 574.18315" />
    <path d="M331.45266 574.18315 L331.45266 902.2878" />
    <path d="M323.16635 902.2878 L323.16635 574.18315" />
    <path d="M314.88003 574.18315 L314.88003 902.2878" />
    <path d="M306.59371 914.00583 L306.59371 574.18315" />
    <path d="M298.3074 574.18315 L298.3074 914.00583" />
    <path d="M290.02108 925.72385 L290.02108 585.90117" />
    <path d="M281.73476 585.90117 L281.73476 937.44187" />
    <path d="M273.44845 949.1599 L273.44845 585.90117" />
    <path d="M265.16213 585.90117 L265.16213 972.59595" />
    <path d="M256.87581 984.31397 L256.87581 597.6192" />
    <path d="M248.5895 597.6192 L248.5895 996.03199" />
    <path d="M240.30318 1007.75002 L240.30318 597.6192" />
    <path d="M232.01686 609.33722 L232.01686 1019.46804" />
    <path d="M223.73055 1031.18606 L223.73055 609.33722" />
    <path d="M215.44423 621.05524 L215.44423 1031.18606" />
    <path d="M207.15791 1031.18606 L207.15791 621.05524" />
    <path d="M198.8716 632.77327 L198.8716 1042.90409" />
    <path d="M190.58528 1042.90409 L190.58528 644.49129" />
    <path d="M182.29896 656.20931 L182.29896 1042.90409" />
    <path d="M174.01265 1042.90409 L174.01265 679.64536" />
    <path d="M165.72633 703.08141 L165.72633 1042.90409" />
    <path d="M157.44001 1042.90409 L157.44001 808.54362" />
    <path d="M149.1537 831.97966 L149.1537 1042.90409" />
    <path d="M140.86738 1042.90409 L140.86738 843.69769" />
    <path d="M132.58107 843.69769 L132.58107 1042.90409" />
    <path d="M124.29475 1042.90409 L124.29475 855.41571" />
    <path d="M116.00843 855.41571 L116.00843 1031.18606" />
    <path d="M107.72212 1031.18606 L107.72212 867.13373" />
    <path d="M99.4358 878.85176 L99.4358 1019.46804" />
    <path d="M91.14948 1019.46804 L91.14948 878.85176" />
    <path d="M82.86317 890.56978 L82.86317 1007.75002" />
    <path d="M74.57685 996.03199 L74.57685 914.00583" />
    <path d="M66.29053 937.44187 L66.29053 960.87792" />
    <path d="M571.75584 1066.34013 L571.75584 164.05233" />
    <path d="M580.04216 175.77035 L580.04216 1066.34013" />
    <path d="M588.32848 1078.05816 L588.32848 175.77035" />
    <path d="M596.61479 187.48837 L596.61479 1078.05816" />
    <path d="M604.90111 1078.05816 L604.90111 199.2064" />
    <path d="M613.18743 199.2064 L613.18743 1089.77618" />
    <path d="M621.47374 1089.77618 L621.47374 210.92442" />
    <path d="M629.76006 234.36047 L629.76006 1089.77618" />
    <path d="M638.04638 1089.77618 L638.04638 246.07849" />
    <path d="M646.33269 281.23256 L646.33269 1101.4942" />
    <path d="M662.90533 1101.4942 L662.90533 374.97675" />
    <path d="M654.61901 374.97675 L654.61901 1101.4942" />
    <path d="M679.47796 1101.4942 L679.47796 386.69477" />
    <path d="M671.19164 386.69477 L671.19164 1101.4942" />
    <path d="M696.05059 1101.4942 L696.05059 386.69477" />
    <path d="M704.33691 386.69477 L704.33691 1113.21223" />
    <path d="M720.90954 1113.21223 L720.90954 386.69477" />
    <path d="M712.62323 386.69477 L712.62323 1113.21223" />
    <path d="M737.48217 1136.64827 L737.48217 374.97675" />
    <path d="M745.76849 374.97675 L745.76849 1136.64827" />
    <path d="M754.05481 1148.3663 L754.05481 374.97675" />
    <path d="M762.34112 374.97675 L762.34112 1160.08432" />
    <path d="M770.62744 1171.80234 L770.62744 374.97675" />
    <path d="M778.91376 374.97675 L778.91376 1171.80234" />
    <path d="M787.20007 1183.52037 L787.20007 374.97675" />
    <path d="M795.48639 374.97675 L795.48639 1195.23839" />
    <path d="M803.77271 1195.23839 L803.77271 363.25873" />
    <path d="M812.05902 363.25873 L812.05902 1206.95641" />
    <path d="M820.34534 1206.95641 L820.34534 363.25873" />
    <path d="M828.63166 363.25873 L828.63166 1218.67444" />
    <path d="M836.91797 1218.67444 L836.91797 363.25873" />
    <path d="M845.20429 363.25873 L845.20429 1230.39246" />
    <path d="M853.49061 1230.39246 L853.49061 351.5407" />
    <path d="M861.77692 351.5407 L861.77692 1230.39246" />
    <path d="M870.06324 1230.39246 L870.06324 351.5407" />
    <path d="M878.34956 339.82268 L878.34956 1230.39246" />
    <path d="M886.63587 1242.11048 L886.63587 316.38663" />
    <path d="M894.92219 269.51454 L894.92219 1242.11048" />
    <path d="M903.20851 1242.11048 L903.20851 246.07849" />
    <path d="M911.49482 234.36047 L911.49482 1242.11048" />
    <path d="M919.78114 1242.11048 L919.78114 222.64245" />
    <path d="M928.06746 210.92442 L928.06746 1230.39246" />
    <path d="M936.35377 1230.39246 L936.35377 199.2064" />
    <path d="M944.64009 199.2064 L944.64009 1230.39246" />
    <path d="M952.92641 1230.39246 L952.92641 187.48837" />
    <path d="M961.21272 187.48837 L961.21272 1218.67444" />
    <path d="M969.49904 1218.67444 L969.49904 187.48837" />
    <path d="M977.78536 175.77035 L977.78536 1218.67444" />
    <path d="M986.07167 1206.95641 L986.07167 175.77035" />
    <path d="M994.35799 175.77035 L994.35799 1195.23839" />
    <path d="M1002.64431 1195.23839 L1002.64431 175.77035" />
    <path d="M1010.93062 175.77035 L1010.93062 1183.52037" />
    <path d="M1019.21694 1171.80234 L1019.21694 175.77035" />
    <path d="M1027.50326 175.77035 L1027.50326 1160.08432" />
    <path d="M977.78536 1347.5727 L977.78536 1467.14173" />
    <path d="M969.49904 1467.14173 L969.49904 1347.5727" />
    <path d="M961.21272 1347.5727 L961.21272 1467.14173" />
    <path d="M952.92641 1467.14173 L952.92641 1347.5727" />
    <path d="M944.64009 1347.5727 L944.64009 1467.14173" />
    <path d="M936.35377 1467.14173 L936.35377 1347.5727" />
    <path d="M928.06746 1347.5727 L928.06746 1467.14173" />
    <path d="M919.78114 1467.14173 L919.78114 1347.5727" />
    <path d="M911.49482 1347.5727 L911.49482 1467.14173" />
    <path d="M903.20851 1467.14173 L903.20851 1347.5727" />
    <path d="M894.92219 1359.29072 L894.92219 1467.14173" />
    <path d="M886.63587 1467.14173 L886.63587 1359.29072" />
    <path d="M878.34956 1371.00874 L878.34956 1467.14173" />
    <path d="M870.06324 1467.14173 L870.06324 1371.00874" />
    <path d="M861.77692 1382.72677 L861.77692 1467.14173" />
    <path d="M853.49061 1467.14173 L853.49061 1394.44479" />
    <path d="M845.20429 1406.16281 L845.20429 1467.14173" />
    <path d="M836.91797 1429.59886 L836.91797 1467.14173" />
    <path d="M994.35799 1467.14173 L994.35799 1359.29072" />
    <path d="M986.07167 1359.29072 L986.07167 1467.14173" />
    <path d="M1019.21694 1467.14173 L1019.21694 1371.00874" />
    <path d="M1010.93062 1371.00874 L1010.93062 1467.14173" />
    <path d="M1027.50326 1382.72677 L1027.50326 1467.14173" />
    <path d="M1002.64431 1359.29072 L1002.64431 1467.14173" />
    <path d="M729.19586 386.69477 L729.19586 1124.93025" />
    <path d="M687.76428 386.69477 L687.76428 1101.4942" />
    <path d="M397.7432 374.97675 L397.7432 187.48837" />
  </g>
</svg>