<?xml version="1.0" standalone="no"?>
<!DOCTYPE svg PUBLIC "-//W3C//DTD SVG 1.1//EN" 
    "http://www.w3.org/Graphics/SVG/1.1/DTD/svg11.dtd">
<svg width="29.7cm" height="42cm"
    xmlns="http://www.w3.org/2000/svg" version="1.1" viewBox="0 0 1052.3622 1488.18898">
  <g fill="none" stroke="black" stroke-width="0.1cm" stroke-linejoin="round" stroke-linecap="round">
    <path d="M214.04185 428.38583 L214.01333 434.06196" />
    <path d="M213.84706 448.76547 L214.23248 459.28204" />
    <path d="M213.60992 474.00307 L214.46962 484.49152" />
    <path d="M213.35411 499.25389 L214.72543 509.68779" />
    <path d="M213.07943 524.52095 L215.00011 534.86781" />
    <path d="M212.78629 549.8076 L215.29325 560.02825" />
    <path d="M212.47599 575.1174 L215.60355 585.16553" />
    <path d="M212.15089 600.45392 L215.92865 610.2761" />
    <path d="M211.81463 625.82038 L216.26491 635.35671" />
    <path d="M229.74383 625.77828 L234.009 635.39882" />
    <path d="M229.38166 651.17929 L234.37117 660.44489" />
    <path d="M247.30051 651.13596 L252.12562 660.48822" />
    <path d="M265.23047 651.08898 L269.86896 660.5352" />
    <path d="M283.17382 651.03807 L287.5989 660.58612" />
    <path d="M301.13342 650.98298 L305.31259 660.6412" />
    <path d="M300.65537 676.44282 L305.79064 685.62844" />
    <path d="M318.59657 676.38592 L323.52274 685.68535" />
    <path d="M336.55741 676.32222 L341.2352 685.74904" />
    <path d="M354.54359 676.25093 L358.92231 685.82033" />
    <path d="M372.56309 676.17142 L376.57611 685.89985" />
    <path d="M371.86053 701.74835 L377.27867 710.77001" />
    <path d="M389.83861 701.66636 L394.97388 710.85199" />
    <path d="M407.8601 701.5678 L412.62568 710.95055" />
    <path d="M425.94695 701.4489 L430.21213 711.06945" />
    <path d="M444.13712 701.30725 L447.69526 711.2111" />
    <path d="M442.81815 727.22962 L449.01422 735.73581" />
    <path d="M460.84262 727.09897 L466.66306 735.86647" />
    <path d="M479.02185 726.88991 L484.15712 736.07553" />
    <path d="M497.64706 726.53079 L501.2052 736.43464" />
    <path d="M494.4742 754.92719 L504.37806 758.48533" />
    <path d="M512.07672 757.59592 L522.44883 755.8166" />
    <path d="M534.20977 761.89231 L535.98908 751.5202" />
    <path d="M554.71514 761.65819 L551.15701 751.75433" />
    <path d="M568.20509 752.11345 L573.34036 761.29907" />
    <path d="M570.34287 776.68558 L571.20258 787.17402" />
    <path d="M571.66238 801.96729 L569.88306 812.3394" />
    <path d="M572.41631 827.37836 L569.12914 837.37541" />
    <path d="M572.87526 852.77695 L568.67018 862.42391" />
    <path d="M573.17634 878.14324 L568.3691 887.5047" />
    <path d="M573.3865 903.4808 L568.15895 912.61422" />
    <path d="M573.54052 928.79602 L568.00492 937.74609" />
    <path d="M573.65781 954.09426 L567.88763 962.89493" />
    <path d="M573.74989 979.37958 L567.79555 988.0567" />
    <path d="M573.824 1004.65491 L567.72144 1013.22844" />
    <path d="M573.88486 1029.92243 L567.66058 1038.40801" />
    <path d="M573.9357 1055.18374 L570.46102 1059.80315" />
    <path d="M588.33196 1059.80315 L591.53651 1055.01629" />
    <path d="M606.1998 1059.80315 L609.13378 1054.8652" />
    <path d="M624.06495 1059.80315 L626.72994 1054.73071" />
    <path d="M641.92774 1059.80315 L644.32729 1054.61263" />
    <path d="M640.04529 1039.00103 L644.19334 1029.32941" />
    <path d="M640.20296 1013.84211 L644.03566 1004.04124" />
    <path d="M640.39055 988.68785 L643.84807 978.74842" />
    <path d="M640.6163 963.53718 L643.62232 953.45201" />
    <path d="M640.89118 938.38753 L643.34745 928.15458" />
    <path d="M641.22965 913.23357 L643.00897 902.86146" />
    <path d="M641.65028 888.06483 L642.58834 877.5831" />
    <path d="M642.17509 862.86194 L642.06354 852.33891" />
    <path d="M642.82543 837.5911 L641.4132 827.16267" />
    <path d="M643.61007 812.19956 L640.62856 802.10713" />
    <path d="M644.5021 786.62117 L639.73652 777.23843" />
    <path d="M626.41525 786.74007 L622.15008 777.11953" />
    <path d="M608.22508 786.88173 L604.66695 776.97787" />
    <path d="M609.54405 760.95936 L603.34798 752.45316" />
    <path d="M591.51959 761.09001 L585.69915 752.32251" />
    <path d="M592.99312 734.39294 L584.22562 728.5725" />
    <path d="M575.36553 734.05035 L566.17991 728.91508" />
    <path d="M557.888 733.26178 L547.98415 729.70365" />
    <path d="M540.28548 730.59306 L529.91337 732.37238" />
    <path d="M518.15244 726.29666 L516.37312 736.66877" />
    <path d="M530.62439 709.02697 L539.57446 703.49138" />
    <path d="M558.12213 705.36952 L547.75002 707.14883" />
    <path d="M565.5285 705.82932 L576.01694 706.68903" />
    <path d="M593.7197 707.51265 L583.49904 705.0057" />
    <path d="M601.49409 704.48011 L611.39794 708.03824" />
    <path d="M629.09294 708.39176 L619.47239 704.12659" />
    <path d="M637.42794 703.87639 L646.81068 708.64196" />
    <path d="M664.54877 708.82681 L655.36315 703.69154" />
    <path d="M673.28178 703.5501 L682.30344 708.96825" />
    <path d="M700.0713 709.07961 L691.18721 703.43874" />
    <path d="M709.08215 703.34895 L717.84965 709.1694" />
    <path d="M735.63639 709.24321 L726.96871 703.27514" />
    <path d="M744.84849 703.21344 L753.4299 709.30491" />
    <path d="M771.22894 709.35721 L762.72275 703.16114" />
    <path d="M780.59245 703.11626 L789.03253 709.40209" />
    <path d="M806.83992 709.441 L798.45836 703.07735" />
    <path d="M816.32108 703.0433 L824.6505 709.47505" />
    <path d="M841.88976 709.05519 L834.18109 703.01326" />
    <path d="M841.88976 683.40386 L833.93868 678.12541" />
    <path d="M824.90339 683.89421 L816.06819 678.17706" />
    <path d="M807.10403 683.83575 L798.19425 678.23552" />
    <path d="M789.30861 683.76906 L780.31638 678.30221" />
    <path d="M771.51771 683.69235 L762.43398 678.37892" />
    <path d="M753.73201 683.60327 L744.54639 678.468" />
    <path d="M735.95227 683.49872 L726.65283 678.57255" />
    <path d="M718.17931 683.37453 L708.75249 678.69674" />
    <path d="M700.41396 683.22499 L690.84455 678.84628" />
    <path d="M682.65682 683.04215 L672.92839 679.02912" />
    <path d="M664.90789 682.8147 L655.00403 679.25657" />
    <path d="M647.16553 682.52639 L637.07309 679.54488" />
    <path d="M629.42433 682.15364 L619.141 679.91763" />
    <path d="M611.67032 681.66281 L601.22172 680.40845" />
    <path d="M593.87111 681.00919 L583.34762 681.06207" />
    <path d="M575.95878 680.14598 L565.58667 681.92529" />
    <path d="M557.81442 679.06374 L548.05772 683.00752" />
    <path d="M539.30445 677.87266 L530.8944 684.19861" />
    <path d="M520.42576 676.83061 L514.0998 685.24066" />
    <path d="M501.39802 676.15728 L497.45424 685.91398" />
    <path d="M500.31579 701.07312 L498.53647 711.44523" />
    <path d="M514.49498 710.73421 L520.03058 701.78414" />
    <path d="M481.15963 701.01495 L482.01934 711.5034" />
    <path d="M462.49936 701.14885 L465.00631 711.3695" />
    <path d="M480.69983 686.22169 L482.47914 675.84958" />
    <path d="M463.77928 675.77389 L463.7264 686.29738" />
    <path d="M445.28901 675.81133 L446.54337 686.25993" />
    <path d="M426.96154 675.89397 L429.19754 686.1773" />
    <path d="M408.75214 675.98942 L411.73365 686.08185" />
    <path d="M390.62718 676.08371 L394.18531 685.98756" />
    <path d="M410.94901 661.02631 L409.53678 650.59787" />
    <path d="M391.3502 650.65734 L393.46229 660.96684" />
    <path d="M373.22655 650.72457 L375.91264 660.89961" />
    <path d="M355.1524 650.79327 L358.3135 660.83091" />
    <path d="M337.11724 650.86016 L340.67537 660.76402" />
    <path d="M319.11297 650.92363 L323.00634 660.70056" />
    <path d="M340.14978 635.69888 L337.64283 625.47822" />
    <path d="M319.60563 625.53163 L322.51368 635.64547" />
    <path d="M301.59529 625.58483 L304.85072 635.59227" />
    <path d="M283.60729 625.63662 L287.16543 635.54048" />
    <path d="M265.63795 625.68632 L269.46147 635.49078" />
    <path d="M247.68428 625.73359 L251.74185 635.44351" />
    <path d="M269.06975 610.40248 L266.02968 600.32753" />
    <path d="M248.05629 600.37084 L251.36984 610.35918" />
    <path d="M230.09735 600.41308 L233.65549 610.31693" />
    <path d="M251.01548 585.23954 L248.41065 575.04339" />
    <path d="M230.4368 575.08042 L233.31603 585.20251" />
    <path d="M250.68258 560.08965 L248.74356 549.7462" />
    <path d="M230.75841 549.77626 L232.99442 560.05959" />
    <path d="M250.37314 534.91463 L249.05299 524.47414" />
    <path d="M231.05993 524.4963 L232.6929 534.89246" />
    <path d="M250.08776 509.71929 L249.33837 499.22239" />
    <path d="M231.34035 499.23641 L232.41249 509.70527" />
    <path d="M249.826 484.5079 L249.60013 473.9867" />
    <path d="M231.5996 473.99277 L232.15324 484.50182" />
    <path d="M249.58676 459.28405 L249.83937 448.76346" />
    <path d="M231.8383 448.76208 L231.91454 459.28543" />
    <path d="M231.69535 434.05891 L231.89069 428.38583" />
    <path d="M249.74025 428.38583 L249.36857 434.05074" />
    <path d="M267.03274 434.03657 L267.59062 428.38583" />
    <path d="M285.44188 428.38583 L284.68768 434.01543" />
    <path d="M285.87268 448.78447 L284.90004 459.26304" />
    <path d="M285.63637 473.99143 L285.13635 484.50317" />
    <path d="M285.37353 499.20904 L285.39919 509.73263" />
    <path d="M285.08176 524.44139 L285.69096 534.94737" />
    <path d="M284.75918 549.69362 L286.01354 560.14222" />
    <path d="M284.40493 574.97199 L286.36779 585.31094" />
    <path d="M284.01986 600.28374 L286.75286 610.44628" />
    <path d="M302.02959 600.24032 L304.41643 610.48969" />
    <path d="M320.06211 600.19862 L322.0572 610.53139" />
    <path d="M338.12118 600.1606 L339.67143 610.56941" />
    <path d="M356.21105 600.12914 L357.25485 610.60087" />
    <path d="M355.7124 625.42666 L357.7535 635.75044" />
    <path d="M373.82101 625.38026 L375.31819 635.79684" />
    <path d="M391.97639 625.34433 L392.8361 635.83277" />
    <path d="M410.18712 625.32703 L410.29867 635.85006" />
    <path d="M428.46157 625.34063 L427.69751 635.83647" />
    <path d="M427.80272 650.55757 L428.35636 661.06662" />
    <path d="M446.1662 650.55622 L445.66618 661.06796" />
    <path d="M464.64249 650.62604 L462.86318 660.99815" />
    <path d="M483.23307 650.81356 L479.9459 660.81062" />
    <path d="M501.90774 651.17224 L496.94452 660.45195" />
    <path d="M520.59064 651.73631 L513.93492 659.88787" />
    <path d="M539.17521 652.48423 L531.02365 659.13995" />
    <path d="M557.57593 653.33048 L548.29622 658.2937" />
    <path d="M575.77125 654.16851 L565.77419 657.45568" />
    <path d="M593.79542 654.92243 L583.42331 656.70175" />
    <path d="M601.19015 656.0621 L611.70188 655.56208" />
    <path d="M629.53719 656.08891 L619.02814 655.53527" />
    <path d="M636.90509 655.10598 L647.33353 656.51821" />
    <path d="M665.11071 656.86813 L654.80121 654.75605" />
    <path d="M672.70508 654.46905 L682.88013 657.15514" />
    <path d="M700.64807 657.39264 L690.61044 654.23154" />
    <path d="M708.51398 654.03302 L718.41783 657.59116" />
    <path d="M736.19101 657.75877 L726.41408 653.86541" />
    <path d="M744.31009 653.72251 L753.96831 657.90168" />
    <path d="M771.74987 658.02464 L762.20182 653.59955" />
    <path d="M780.08938 653.49285 L789.5356 658.13133" />
    <path d="M807.32527 658.22465 L797.97301 653.39953" />
    <path d="M815.85298 653.31734 L825.11859 658.30685" />
    <path d="M841.88976 657.80643 L833.72962 653.24446" />
    <path d="M825.29606 632.72114 L815.67551 628.45596" />
    <path d="M807.5041 632.61734 L797.79418 628.55976" />
    <path d="M789.71472 632.50031 L779.91027 628.67679" />
    <path d="M771.92777 632.36762 L762.02392 628.80948" />
    <path d="M754.14291 632.21626 L744.13548 628.96083" />
    <path d="M736.35947 632.04258 L726.24563 629.13452" />
    <path d="M718.57623 631.84203 L708.35557 629.33507" />
    <path d="M700.79115 631.6091 L690.46736 629.568" />
    <path d="M683.00089 631.33714 L672.58432 629.83996" />
    <path d="M665.20018 631.0184 L654.71174 630.15869" />
    <path d="M647.38083 630.64433 L636.8578 630.53277" />
    <path d="M629.53059 630.20652 L619.03474 630.97058" />
    <path d="M611.63207 629.69889 L601.25996 631.47821" />
    <path d="M593.66253 629.1215 L583.55621 632.0556" />
    <path d="M575.5962 628.48601 L565.94924 632.69109" />
    <path d="M557.41111 627.82075 L548.46104 633.35635" />
    <path d="M539.1001 627.17076 L531.09876 634.00634" />
    <path d="M520.68057 626.58788 L513.84499 634.58922" />
    <path d="M502.19393 626.11351 L496.65833 635.06359" />
    <path d="M483.69203 625.76507 L479.48694 635.41203" />
    <path d="M465.21988 625.53539 L462.28579 635.64171" />
    <path d="M446.80585 625.40249 L445.02653 635.7746" />
    <path d="M461.88671 610.28479 L465.61896 600.44523" />
    <path d="M479.18586 610.04574 L483.9931 600.68427" />
    <path d="M502.3749 601.00709 L496.47736 609.72292" />
    <path d="M520.73708 601.41332 L513.78847 609.3167" />
    <path d="M539.05112 601.8907 L531.14774 608.83931" />
    <path d="M557.29399 602.41624 L548.57816 608.31378" />
    <path d="M575.45345 602.96139 L566.09199 607.76863" />
    <path d="M593.52915 603.49888 L583.68959 607.23113" />
    <path d="M611.52978 604.0078 L601.36225 606.72221" />
    <path d="M619.09661 606.25467 L629.46872 604.47535" />
    <path d="M647.36018 604.89598 L636.87845 605.83403" />
    <path d="M654.69502 605.46066 L665.2169 605.26935" />
    <path d="M683.04925 605.59824 L672.53597 605.13178" />
    <path d="M690.39339 604.8431 L700.86512 605.88691" />
    <path d="M718.67031 606.14013 L708.2615 604.58988" />
    <path d="M726.13616 604.36746 L736.46894 606.36255" />
    <path d="M754.26388 606.55843 L744.01451 604.17159" />
    <path d="M761.89457 603.9985 L772.05712 606.73151" />
    <path d="M789.84997 606.88504 L779.77502 603.84497" />
    <path d="M797.65497 603.70823 L807.64331 607.02178" />
    <path d="M825.43771 607.14407 L815.53386 603.58594" />
    <path d="M833.41135 603.47613 L841.88976 606.73706" />
    <path d="M833.55427 628.36341 L841.88976 632.2533" />
    <path d="M841.88976 581.25183 L833.29837 578.57768" />
    <path d="M825.54683 581.58108 L815.42474 578.70185" />
    <path d="M807.74721 581.44388 L797.55106 578.83905" />
    <path d="M789.94701 581.29183 L779.67797 578.9911" />
    <path d="M772.14532 581.12289 L761.80637 579.16004" />
    <path d="M754.34087 580.93474 L743.93753 579.3482" />
    <path d="M736.53193 580.72478 L726.07317 579.55815" />
    <path d="M718.71614 580.49022 L708.21566 579.79271" />
    <path d="M700.89035 580.22818 L690.36816 580.05475" />
    <path d="M683.0504 579.93584 L672.53481 580.34709" />
    <path d="M665.19095 579.61084 L654.72097 580.67209" />
    <path d="M647.30537 579.25181 L636.93326 581.03112" />
    <path d="M629.38582 578.8591 L619.17951 581.42383" />
    <path d="M611.42368 578.43573 L601.46835 581.8472" />
    <path d="M593.41048 577.98832 L583.80826 582.29461" />
    <path d="M575.33943 577.52769 L566.20601 582.75524" />
    <path d="M557.2074 577.06861 L548.66475 583.21432" />
    <path d="M539.01668 576.62838 L531.18217 583.65455" />
    <path d="M520.77586 576.22421 L513.7497 584.05872" />
    <path d="M502.49898 575.87014 L496.35328 584.41279" />
    <path d="M484.20326 575.57476 L478.97571 584.70817" />
    <path d="M465.90598 575.34036 L461.59969 584.94257" />
    <path d="M447.62192 575.1638 L444.21045 585.11913" />
    <path d="M447.27339 600.28124 L444.55898 610.44877" />
    <path d="M428.9692 600.17895 L427.18988 610.55106" />
    <path d="M410.71192 600.12414 L409.77387 610.60587" />
    <path d="M392.5019 600.10407 L392.31059 610.62595" />
    <path d="M374.33637 600.10837 L374.80283 610.62165" />
    <path d="M391.87562 585.37645 L392.93687 574.90648" />
    <path d="M374.77523 574.88367 L374.36397 585.39926" />
    <path d="M356.64624 574.88037 L356.81966 585.40256" />
    <path d="M338.54754 574.89123 L339.24506 585.39171" />
    <path d="M320.47634 574.91209 L321.64297 585.37084" />
    <path d="M302.42974 574.93979 L304.01628 585.34314" />
    <path d="M321.27226 560.17544 L320.84705 549.66041" />
    <path d="M302.79315 549.6737 L303.65286 560.16215" />
    <path d="M320.94331 534.95491 L321.176 524.43386" />
    <path d="M303.12007 524.43358 L303.32595 534.95519" />
    <path d="M320.65268 509.71689 L321.46663 499.22479" />
    <path d="M303.41245 499.21244 L303.03356 509.72924" />
    <path d="M320.3963 484.46713 L321.72302 474.02747" />
    <path d="M303.6732 474.00478 L302.77282 484.48981" />
    <path d="M320.17 459.20981 L321.94931 448.8377" />
    <path d="M303.90552 448.8064 L302.54049 459.24111" />
    <path d="M302.33335 433.98627 L303.2941 428.38583" />
    <path d="M319.96987 433.94793 L321.14738 428.38583" />
    <path d="M337.59756 433.89923 L339.00185 428.38583" />
    <path d="M355.21694 433.8389 L356.85763 428.38583" />
    <path d="M372.82884 433.76574 L374.71487 428.38583" />
    <path d="M390.43435 433.67856 L392.57375 428.38583" />
    <path d="M408.03492 433.57635 L410.43446 428.38583" />
    <path d="M425.63226 433.45827 L428.29725 428.38583" />
    <path d="M443.22843 433.32377 L446.1624 428.38583" />
    <path d="M460.82569 433.17268 L464.03025 428.38583" />
    <path d="M478.42651 433.00524 L481.90118 428.38583" />
    <path d="M496.03339 432.82215 L499.77569 428.38583" />
    <path d="M513.6488 432.62459 L517.65437 428.38583" />
    <path d="M531.27505 432.41419 L535.53794 428.38583" />
    <path d="M548.91414 432.19296 L553.42731 428.38583" />
    <path d="M566.5677 431.96319 L571.32363 428.38583" />
    <path d="M584.2369 431.72736 L589.22837 428.38583" />
    <path d="M601.92246 431.48798 L607.14344 428.38583" />
    <path d="M619.62461 431.24749 L625.07139 428.38583" />
    <path d="M637.34317 431.00819 L643.01568 428.38583" />
    <path d="M655.07761 430.7721 L660.98113 428.38583" />
    <path d="M672.82708 430.54097 L678.97465 428.38583" />
    <path d="M690.59057 430.31622 L697.00653 428.38583" />
    <path d="M708.36689 430.09896 L715.09283 428.38583" />
    <path d="M726.15483 429.88999 L733.25996 428.38583" />
    <path d="M743.95314 429.68987 L751.55477 428.38583" />
    <path d="M761.76063 429.4989 L770.06896 428.38583" />
    <path d="M779.57614 429.31719 L789.00972 428.38583" />
    <path d="M797.39862 429.14471 L807.89966 428.45572" />
    <path d="M815.22709 428.98128 L825.74448 428.61915" />
    <path d="M833.06069 428.82665 L841.88976 428.78229" />
    <path d="M841.88976 454.1545 L833.06415 453.83104" />
    <path d="M825.74746 454.06188 L815.22411 453.98563" />
    <path d="M807.90943 453.89745 L797.38884 454.15006" />
    <path d="M790.06569 453.72276 L779.5593 454.32475" />
    <path d="M772.21513 453.53743 L761.73656 454.51008" />
    <path d="M754.35655 453.34124 L743.92184 454.70627" />
    <path d="M736.4886 453.1341 L726.11649 454.91341" />
    <path d="M718.60982 452.91615 L708.32199 455.13136" />
    <path d="M700.71864 452.6878 L690.53986 455.35971" />
    <path d="M682.81349 452.4498 L672.77172 455.59771" />
    <path d="M664.89281 452.20326 L655.01911 455.84425" />
    <path d="M646.95512 451.94973 L637.2835 456.09778" />
    <path d="M628.99921 451.6912 L619.56611 456.35631" />
    <path d="M611.02418 451.43009 L601.86785 456.61742" />
    <path d="M593.02957 451.16921 L584.18917 456.87831" />
    <path d="M575.01551 450.91162 L566.52993 457.13589" />
    <path d="M556.98274 450.66055 L548.88941 457.38696" />
    <path d="M538.93267 450.41919 L531.26618 457.62832" />
    <path d="M520.86734 450.19051 L513.65821 457.857" />
    <path d="M502.78934 449.97709 L496.06292 458.07042" />
    <path d="M484.70162 449.78097 L478.47734 458.26654" />
    <path d="M466.60739 449.60355 L460.89829 458.44396" />
    <path d="M448.50985 449.44559 L443.32253 458.60192" />
    <path d="M430.41209 449.3072 L425.74699 458.74031" />
    <path d="M430.27619 474.46594 L425.88289 484.02866" />
    <path d="M430.11315 499.61789 L426.04594 509.32379" />
    <path d="M429.91477 524.76299 L426.24431 534.62577" />
    <path d="M429.66968 549.90214 L426.4894 559.93371" />
    <path d="M429.36191 575.03831 L426.79717 585.24462" />
    <path d="M411.13255 574.95541 L409.35324 585.32752" />
    <path d="M411.47103 549.80145 L409.01476 560.0344" />
    <path d="M393.2959 549.73187 L391.51659 560.10398" />
    <path d="M375.14612 549.68779 L373.99308 560.14806" />
    <path d="M357.02197 549.66406 L356.44393 560.17179" />
    <path d="M338.92274 549.65618 L338.86986 560.17967" />
    <path d="M356.12093 534.92048 L357.34497 524.46828" />
    <path d="M339.25069 524.44452 L338.54192 534.94424" />
    <path d="M355.84329 509.65689 L357.62261 499.28478" />
    <path d="M339.53661 499.24813 L338.256 509.69355" />
    <path d="M355.60404 484.38658 L357.86187 474.10802" />
    <path d="M339.78596 474.06124 L338.00665 484.43335" />
    <path d="M355.397 459.11315 L358.0689 448.93437" />
    <path d="M372.99564 459.04464 L376.14355 449.00287" />
    <path d="M394.22674 449.08691 L390.58575 458.9606" />
    <path d="M394.04983 474.24877 L390.76266 484.24583" />
    <path d="M393.84129 499.4085 L390.9712 509.53318" />
    <path d="M393.59329 524.56821 L391.2192 534.82055" />
    <path d="M408.73988 534.73696 L411.7459 524.6518" />
    <path d="M411.97165 499.50113 L408.51413 509.44055" />
    <path d="M375.72443 499.33732 L373.41476 509.60436" />
    <path d="M375.45926 524.50833 L373.67994 534.88044" />
    <path d="M375.95017 474.16983 L373.18903 484.32477" />
    <path d="M412.15924 474.34686 L408.32654 484.14773" />
    <path d="M443.43457 483.88715 L448.3978 474.60744" />
    <path d="M466.52063 474.77226 L460.98504 483.72233" />
    <path d="M466.4153 499.93234 L461.09038 509.00934" />
    <path d="M448.26244 499.76109 L443.56993 509.18059" />
    <path d="M448.09619 524.90541 L443.73619 534.48335" />
    <path d="M447.88808 550.03957 L443.9443 559.79627" />
    <path d="M466.12011 550.2187 L461.38556 559.61714" />
    <path d="M484.35728 550.44289 L478.82169 559.39296" />
    <path d="M502.58911 550.7129 L496.26315 559.12295" />
    <path d="M520.80411 551.02618 L513.72145 558.80967" />
    <path d="M538.99117 551.3766 L531.20768 558.45925" />
    <path d="M557.1411 551.75495 L548.73105 558.0809" />
    <path d="M575.24776 552.15013 L566.29768 557.68572" />
    <path d="M593.30859 552.55065 L583.91015 557.2852" />
    <path d="M611.32437 552.94603 L601.56767 556.88981" />
    <path d="M619.26688 556.50806 L629.29845 553.32778" />
    <path d="M647.23579 553.68979 L637.00283 556.14606" />
    <path d="M654.7699 555.80758 L665.14201 554.02827" />
    <path d="M683.02274 554.34141 L672.56247 555.49444" />
    <path d="M690.37539 555.20695 L700.88312 554.6289" />
    <path d="M718.72765 554.89148 L708.20416 554.94436" />
    <path d="M726.04504 554.70532 L736.56006 555.13053" />
    <path d="M754.38342 555.34778 L743.89497 554.48807" />
    <path d="M761.75154 554.29074 L772.20014 555.5451" />
    <path d="M790.01213 555.72439 L779.61285 554.11146" />
    <path d="M797.47742 553.94841 L807.82086 555.88743" />
    <path d="M825.62745 556.03593 L815.34412 553.79992" />
    <path d="M833.21211 553.66445 L841.88976 555.79293" />
    <path d="M841.88976 530.35658 L833.149 528.73404" />
    <path d="M825.68386 530.51087 L815.28771 528.8779" />
    <path d="M807.86938 530.35446 L797.42889 529.03431" />
    <path d="M790.05145 530.18426 L779.57353 529.20451" />
    <path d="M772.22883 529.99898 L761.72286 529.38979" />
    <path d="M754.4 529.79732 L743.87839 529.59144" />
    <path d="M736.56307 529.57803 L726.04202 529.81073" />
    <path d="M718.71576 529.34 L708.21604 530.04877" />
    <path d="M700.85535 529.08236 L690.40316 530.3064" />
    <path d="M682.97866 528.80472 L672.60655 530.58404" />
    <path d="M665.08213 528.50734 L654.82979 530.88142" />
    <path d="M647.16189 528.19137 L637.07673 531.19739" />
    <path d="M629.21405 527.85915 L619.35128 531.52961" />
    <path d="M611.23499 527.51438 L601.65704 531.87438" />
    <path d="M593.22185 527.16225 L583.99689 532.22652" />
    <path d="M575.17305 526.80929 L566.37239 532.57947" />
    <path d="M557.08883 526.46308 L548.78332 532.92568" />
    <path d="M538.97151 526.13157 L531.22735 533.2572" />
    <path d="M520.82559 525.8223 L513.69996 533.56646" />
    <path d="M502.65743 525.54163 L496.19483 533.84714" />
    <path d="M484.47457 525.29405 L478.7044 534.09471" />
    <path d="M466.28497 525.0819 L461.2207 534.30686" />
    <path d="M484.56666 500.13228 L478.61231 508.8094" />
    <path d="M502.71095 500.36029 L496.14131 508.58139" />
    <path d="M520.84249 500.61437 L513.68307 508.32731" />
    <path d="M538.95589 500.89113 L531.24296 508.05055" />
    <path d="M557.04662 501.18602 L548.82553 507.75566" />
    <path d="M575.11128 501.49367 L566.43416 507.44801" />
    <path d="M593.14787 501.80838 L584.07087 507.1333" />
    <path d="M611.15577 502.12459 L601.73627 506.81709" />
    <path d="M629.13561 502.43724 L619.42972 506.50444" />
    <path d="M637.1496 506.1996 L647.08902 502.74208" />
    <path d="M665.0183 503.0358 L654.89362 505.90588" />
    <path d="M672.65909 505.62567 L682.92612 503.316" />
    <path d="M700.81531 503.58118 L690.4432 505.3605" />
    <path d="M708.24319 505.11114 L718.68861 503.83054" />
    <path d="M736.5486 504.06386 L726.0565 504.87781" />
    <path d="M743.8808 504.66029 L754.3976 504.28139" />
    <path d="M772.23764 504.48367 L761.71405 504.45801" />
    <path d="M779.55451 504.27025 L790.07048 504.67142" />
    <path d="M807.89759 504.84553 L797.40069 504.09615" />
    <path d="M815.25135 503.93477 L825.72022 505.00691" />
    <path d="M841.88976 504.93969 L833.10549 503.78518" />
    <path d="M833.07821 478.81744 L841.88976 479.5397" />
    <path d="M825.74031 479.52412 L815.23126 478.97048" />
    <path d="M807.90974 479.36023 L797.38854 479.13436" />
    <path d="M790.07393 479.18482 L779.55105 479.30977" />
    <path d="M772.23171 478.99729 L761.71998 479.49731" />
    <path d="M754.38171 478.79711 L743.89668 479.69749" />
    <path d="M736.52238 478.58394 L726.08272 479.91066" />
    <path d="M718.65196 478.35764 L708.27985 480.13696" />
    <path d="M700.76853 478.11838 L690.48997 480.37621" />
    <path d="M682.87007 477.86673 L672.71514 480.62787" />
    <path d="M664.95449 477.60371 L654.95743 480.89088" />
    <path d="M647.01975 477.33095 L637.21888 481.16365" />
    <path d="M629.06402 477.05065 L619.5013 481.44395" />
    <path d="M611.08587 476.76568 L601.80616 481.72891" />
    <path d="M593.08441 476.4795 L584.13433 482.01509" />
    <path d="M575.05949 476.19602 L566.48596 482.29858" />
    <path d="M557.01185 475.91944 L548.86029 482.57516" />
    <path d="M538.9432 475.65396 L531.25565 482.84064" />
    <path d="M520.85612 475.40353 L513.66944 483.09107" />
    <path d="M502.75399 475.17152 L496.09827 483.32308" />
    <path d="M484.64076 474.96053 L478.53821 483.53406" />
    <path d="M412.31692 449.18794 L408.16887 458.85957" />
    <path d="M340.00391 448.87984 L337.7887 459.16767" />
    <path d="M267.24872 459.27695 L267.85071 448.77056" />
    <path d="M267.61219 473.98586 L267.48724 484.50874" />
    <path d="M267.34913 499.21285 L267.7503 509.72883" />
    <path d="M267.05984 524.45542 L268.03959 534.93334" />
    <path d="M266.74325 549.71828 L268.35618 560.11757" />
    <path d="M266.39934 575.00694 L268.70008 585.27599" />
    <path d="M211.47214 651.21928 L216.6074 660.4049" />
    <path d="M211.12955 676.65188 L216.94999 685.41938" />
    <path d="M229.01784 676.61803 L234.735 685.45323" />
    <path d="M246.91295 676.58075 L252.51318 685.49052" />
    <path d="M264.81629 676.53952 L270.28314 685.53175" />
    <path d="M282.72965 676.49377 L288.04307 685.5775" />
    <path d="M282.28832 702.00608 L288.4844 710.51227" />
    <path d="M300.17727 701.96847 L306.26874 710.54988" />
    <path d="M318.07562 701.92533 L324.04369 710.59302" />
    <path d="M335.98608 701.87542 L341.80652 710.64293" />
    <path d="M353.91251 701.81713 L359.55339 710.70122" />
    <path d="M353.29871 727.49616 L360.16719 735.46928" />
    <path d="M371.17018 727.46642 L377.96902 735.49901" />
    <path d="M389.05123 727.42926 L395.76126 735.53618" />
    <path d="M406.94641 727.38151 L413.53938 735.58392" />
    <path d="M424.86367 727.31801 L431.29542 735.64743" />
    <path d="M423.91483 753.49038 L432.24425 759.92213" />
    <path d="M441.66309 753.60822 L450.16928 759.8043" />
    <path d="M459.36909 753.79604 L468.13659 759.61648" />
    <path d="M476.99667 754.13862 L486.18229 759.27389" />
    <path d="M476.34526 781.49995 L486.83371 782.35966" />
    <path d="M494.24008 782.81946 L504.61219 781.04014" />
    <path d="M512.78774 784.6976 L521.73782 779.162" />
    <path d="M532.33163 786.40484 L537.86722 777.45476" />
    <path d="M552.04642 787.11586 L553.82573 776.74375" />
    <path d="M554.90796 802.27499 L550.96418 812.03169" />
    <path d="M555.41769 827.73703 L550.45446 837.01674" />
    <path d="M555.70387 853.12539 L550.16828 862.07546" />
    <path d="M555.88484 878.46605 L549.98731 887.18188" />
    <path d="M556.00893 903.77618 L549.86322 912.31884" />
    <path d="M556.09905 929.06603 L549.7731 937.47608" />
    <path d="M556.16737 954.34184 L549.70478 962.64735" />
    <path d="M556.2209 979.60759 L549.65125 987.82868" />
    <path d="M531.51972 987.5746 L538.67913 979.86167" />
    <path d="M521.11925 980.13843 L513.40631 987.29784" />
    <path d="M495.31558 987.00296 L503.53668 980.43331" />
    <path d="M485.92804 980.74096 L477.25092 986.69531" />
    <path d="M459.21434 986.3806 L468.29133 981.05568" />
    <path d="M450.62594 981.37188 L441.20644 986.06439" />
    <path d="M423.22659 985.75174 L432.93249 981.68453" />
    <path d="M415.21261 981.98938 L405.27318 985.4469" />
    <path d="M387.3439 985.15318 L397.46859 982.28309" />
    <path d="M379.70312 982.5633 L369.43608 984.87297" />
    <path d="M351.5469 984.60779 L361.91901 982.82848" />
    <path d="M344.11901 983.07783 L333.6736 984.35844" />
    <path d="M315.81361 984.12511 L326.3057 983.31116" />
    <path d="M308.48141 983.52869 L297.96461 983.90758" />
    <path d="M280.12457 983.70531 L290.64816 983.73096" />
    <path d="M272.8077 983.91872 L262.29173 983.51755" />
    <path d="M244.46461 983.34344 L254.96152 984.09283" />
    <path d="M237.11085 984.25421 L226.64199 983.18206" />
    <path d="M210.47244 983.24929 L219.25672 984.40379" />
    <path d="M226.62189 1008.66486 L237.13094 1009.2185" />
    <path d="M244.45247 1008.82875 L254.97366 1009.05461" />
    <path d="M262.28827 1009.00415 L272.81115 1008.8792" />
    <path d="M280.13049 1009.19169 L290.64223 1008.69167" />
    <path d="M297.98049 1009.39187 L308.46553 1008.49149" />
    <path d="M315.83983 1009.60504 L326.27948 1008.27832" />
    <path d="M333.71025 1009.83134 L344.08236 1008.05202" />
    <path d="M351.59367 1010.07059 L361.87223 1007.81276" />
    <path d="M369.49213 1010.32225 L379.64707 1007.56111" />
    <path d="M387.40772 1010.58526 L397.40477 1007.29809" />
    <path d="M405.34246 1010.85803 L415.14333 1007.02533" />
    <path d="M423.29818 1011.13833 L432.8609 1006.74503" />
    <path d="M441.27633 1011.42329 L450.55604 1006.46007" />
    <path d="M459.2778 1011.70948 L468.22787 1006.17388" />
    <path d="M477.30272 1011.99296 L485.87625 1005.8904" />
    <path d="M495.35035 1012.26954 L503.50191 1005.61382" />
    <path d="M513.41901 1012.53502 L521.10655 1005.34834" />
    <path d="M531.50609 1012.78545 L538.69276 1005.09791" />
    <path d="M549.60821 1013.01746 L556.26394 1004.8659" />
    <path d="M556.29928 1030.11856 L549.57287 1038.21189" />
    <path d="M531.49486 1037.99846 L538.70399 1030.33198" />
    <path d="M538.7134 1055.56439 L534.70784 1059.80315" />
    <path d="M552.58651 1059.80315 L556.32882 1055.36683" />
    <path d="M585.75482 1038.58542 L591.46392 1029.74502" />
    <path d="M603.85235 1038.74338 L609.03968 1029.58706" />
    <path d="M621.95011 1038.88177 L626.61522 1029.44867" />
    <path d="M622.08602 1013.72304 L626.47931 1004.16032" />
    <path d="M622.24906 988.57109 L626.31627 978.86519" />
    <path d="M622.44743 963.42598 L626.1179 953.56321" />
    <path d="M622.69252 938.28684 L625.8728 928.25527" />
    <path d="M623.0003 913.15067 L625.56503 902.94436" />
    <path d="M623.39301 888.01002 L625.17232 877.63791" />
    <path d="M623.90063 862.84835 L624.6647 852.3525" />
    <path d="M624.55949 837.63141 L624.00584 827.12236" />
    <path d="M625.40067 812.29501 L623.16466 802.01168" />
    <path d="M607.07319 812.37764 L605.81884 801.92904" />
    <path d="M588.58293 812.41509 L588.63581 801.8916" />
    <path d="M589.86285 787.04013 L587.35589 776.81947" />
    <path d="M627.49854 760.87097 L621.06679 752.54155" />
    <path d="M638.82283 752.60506 L645.41579 760.80746" />
    <path d="M663.31097 760.75972 L656.60094 752.6528" />
    <path d="M674.39319 752.68997 L681.19202 760.72255" />
    <path d="M675.08353 777.41897 L680.50168 786.44063" />
    <path d="M675.78609 802.28913 L679.79912 812.01756" />
    <path d="M676.44956 827.28936 L679.13565 837.46441" />
    <path d="M677.04401 852.39214 L678.5412 862.80872" />
    <path d="M677.55938 877.56733 L678.02584 888.08061" />
    <path d="M677.99824 902.78972 L677.58698 913.3053" />
    <path d="M678.36912 928.04092 L677.21609 938.50119" />
    <path d="M678.68226 953.30854 L676.90295 963.68065" />
    <path d="M678.94744 978.58462 L676.63777 988.85166" />
    <path d="M679.17318 1003.86421 L676.41204 1014.01915" />
    <path d="M679.36656 1029.14433 L676.21865 1039.18611" />
    <path d="M679.53337 1054.42324 L677.64734 1059.80315" />
    <path d="M695.50458 1059.80315 L697.14526 1054.35007" />
    <path d="M694.2933 1039.25461 L696.96521 1029.07583" />
    <path d="M694.50034 1014.08096 L696.75817 1003.8024" />
    <path d="M694.7396 988.90419 L696.51891 978.53208" />
    <path d="M695.01723 963.72069 L696.24128 953.2685" />
    <path d="M695.34023 938.52492 L695.91828 928.01719" />
    <path d="M695.71597 913.30861 L695.54254 902.78641" />
    <path d="M696.15116 888.05983 L695.10735 877.5881" />
    <path d="M696.6498 862.76232 L694.60871 852.43853" />
    <path d="M697.2098 837.3957 L694.0487 827.35807" />
    <path d="M697.81861 811.93804 L693.4399 802.36864" />
    <path d="M698.44969 786.37185 L692.80881 777.48775" />
    <path d="M710.55568 777.54605 L716.37612 786.31355" />
    <path d="M711.12701 802.43993 L715.8048 811.86675" />
    <path d="M711.68683 827.42496 L715.24497 837.32881" />
    <path d="M712.21242 852.4901 L714.71938 862.71075" />
    <path d="M712.69078 877.61956 L714.24103 888.02837" />
    <path d="M713.11714 902.79727 L713.81466 913.29775" />
    <path d="M713.49234 928.00931 L713.43946 938.5328" />
    <path d="M713.82029 953.24473 L713.11152 963.74446" />
    <path d="M714.1062 978.49543 L712.8256 988.94084" />
    <path d="M714.35556 1003.75562 L712.57624 1014.12773" />
    <path d="M714.57351 1029.02131 L712.35829 1039.30914" />
    <path d="M714.76465 1054.28975 L713.36036 1059.80315" />
    <path d="M731.21482 1059.80315 L732.39233 1054.24104" />
    <path d="M730.41289 1039.35128 L732.19221 1028.97917" />
    <path d="M730.63919 1014.16151 L731.96591 1003.72185" />
    <path d="M730.89557 988.96419 L731.70952 978.47209" />
    <path d="M731.1862 963.75512 L731.4189 953.23407" />
    <path d="M731.51516 938.52857 L731.08994 928.01354" />
    <path d="M731.88586 913.27689 L730.71924 902.81813" />
    <path d="M732.30009 887.99036 L730.305 877.65758" />
    <path d="M732.75658 862.65735 L729.84852 852.5435" />
    <path d="M733.24923 837.26535 L729.35587 827.48842" />
    <path d="M733.76563 811.80306 L728.83946 802.50363" />
    <path d="M734.28658 786.26364 L728.31851 777.59596" />
    <path d="M746.09346 777.6391 L752.18493 786.22051" />
    <path d="M746.57156 802.56053 L751.70683 811.74615" />
    <path d="M747.04961 827.54778 L751.22878 837.20599" />
    <path d="M747.51148 852.59671 L750.76691 862.60415" />
    <path d="M747.94578 877.69928 L750.33262 887.94865" />
    <path d="M748.34593 902.84584 L749.93247 913.24918" />
    <path d="M748.70934 928.02683 L749.56905 938.51528" />
    <path d="M749.03626 953.23379 L749.24214 963.7554" />
    <path d="M749.32864 978.45974 L748.94975 988.97654" />
    <path d="M749.58939 1003.69916 L748.68901 1014.1842" />
    <path d="M749.82171 1028.94786 L748.45668 1039.38258" />
    <path d="M750.02885 1054.20271 L749.06811 1059.80315" />
    <path d="M766.92033 1059.80315 L767.67453 1054.17355" />
    <path d="M766.48952 1039.40451 L767.46217 1028.92593" />
    <path d="M766.72583 1014.19755 L767.22586 1003.68581" />
    <path d="M766.98867 988.97993 L766.96302 978.45634" />
    <path d="M767.28044 963.74758 L766.67125 953.24161" />
    <path d="M767.60302 938.49535 L766.34867 928.04675" />
    <path d="M767.95727 913.21698 L765.99442 902.87804" />
    <path d="M768.34235 887.90524 L765.60934 877.7427" />
    <path d="M768.75491 862.55235 L765.19678 852.6485" />
    <path d="M769.18839 837.15091 L764.7633 827.60286" />
    <path d="M769.63256 811.69521 L764.31913 802.61148" />
    <path d="M770.07388 786.1829 L763.87781 777.6767" />
    <path d="M781.66958 777.70976 L787.9554 786.14984" />
    <path d="M782.07907 802.65723 L787.54592 811.64946" />
    <path d="M782.49325 827.65377 L787.13173 837.1" />
    <path d="M782.90073 852.6982 L786.72425 862.50265" />
    <path d="M783.29246 877.78649 L786.33253 887.86144" />
    <path d="M783.66212 902.91299 L785.96286 913.18203" />
    <path d="M784.00603 928.07141 L785.61895 938.47069" />
    <path d="M784.32262 953.25564 L785.30237 963.73355" />
    <path d="M784.61191 978.46015 L785.01308 988.97612" />
    <path d="M784.87497 1003.68024 L784.75002 1014.20312" />
    <path d="M785.11349 1028.91203 L784.5115 1039.41842" />
    <path d="M785.32947 1054.15241 L784.77158 1059.80315" />
    <path d="M802.62195 1059.80315 L802.99363 1054.13824" />
    <path d="M802.52284 1039.42552 L802.77544 1028.90493" />
    <path d="M802.76207 1014.20228 L802.53621 1003.68108" />
    <path d="M803.02383 988.96659 L802.27445 978.46968" />
    <path d="M803.30921 963.71484 L801.98906 953.27435" />
    <path d="M803.61865 938.44277 L801.67963 928.09933" />
    <path d="M803.95155 913.14559 L801.34673 902.94944" />
    <path d="M804.30592 887.81814 L800.99236 877.8298" />
    <path d="M804.67793 862.45539 L800.62035 852.74546" />
    <path d="M805.0617 837.05302 L800.23658 827.70075" />
    <path d="M805.44925 811.60823 L799.84903 802.69846" />
    <path d="M805.83096 786.12058 L799.46732 777.73902" />
    <path d="M817.26991 777.76509 L823.70166 786.09451" />
    <path d="M817.62721 802.73574 L823.34436 811.57094" />
    <path d="M817.99103 827.74408 L822.98054 837.00969" />
    <path d="M818.3532 852.79015 L822.61837 862.4107" />
    <path d="M818.70672 877.87204 L822.26485 887.7759" />
    <path d="M819.04617 902.98647 L821.9254 913.10855" />
    <path d="M819.36778 928.12939 L821.60379 938.41272" />
    <path d="M819.6693 953.29652 L821.30227 963.69267" />
    <path d="M819.94971 978.4837 L821.02186 988.95257" />
    <path d="M820.20897 1003.68715 L820.76261 1014.1962" />
    <path d="M820.44766 1028.90355 L820.52391 1039.42689" />
    <path d="M820.66685 1054.13007 L820.47152 1059.80315" />
    <path d="M838.32035 1059.80315 L838.34888 1054.12702" />
    <path d="M838.51515 1039.4235 L838.12972 1028.90694" />
    <path d="M838.75229 1014.1859 L837.89258 1003.69746" />
    <path d="M839.00809 988.93508 L837.63678 978.50119" />
    <path d="M839.28277 963.66803 L837.3621 953.32116" />
    <path d="M839.57591 938.38138 L837.06896 928.16073" />
    <path d="M839.88622 913.07158 L836.75865 903.02344" />
    <path d="M840.21131 887.73506 L836.43355 877.91288" />
    <path d="M840.54758 862.36859 L836.09729 852.83226" />
    <path d="M840.89007 836.9697 L835.7548 827.78407" />
    <path d="M841.23266 811.53709 L835.41221 802.76959" />
    <path d="M841.56835 786.07114 L835.07652 777.78846" />
    <path d="M841.88976 760.574 L834.75501 752.83842" />
    <path d="M824.04374 760.5828 L816.92783 752.82971" />
    <path d="M806.19639 760.59261 L799.10189 752.81991" />
    <path d="M788.34752 760.60372 L781.27746 752.8088" />
    <path d="M770.49681 760.61643 L763.45488 752.79608" />
    <path d="M752.64379 760.63111 L745.6346 752.78141" />
    <path d="M734.78787 760.64824 L727.81723 752.76428" />
    <path d="M716.92817 760.6685 L710.00363 752.74402" />
    <path d="M699.06349 760.69282 L692.19501 752.7197" />
    <path d="M699.61581 734.91696 L691.6427 728.04848" />
    <path d="M681.8089 734.88214 L673.77631 728.0833" />
    <path d="M664.00942 734.83773 L655.9025 728.1277" />
    <path d="M646.22051 734.7792 L638.01811 728.18624" />
    <path d="M628.44737 734.69859 L620.11795 728.26684" />
    <path d="M610.69911 734.58075 L602.19292 728.38468" />
    <path d="M662.52359 786.52261 L657.38832 777.33699" />
    <path d="M661.73503 812.10527 L658.17689 802.20142" />
    <path d="M661.012 837.53163 L658.89992 827.22214" />
    <path d="M660.38581 862.84465 L659.5261 852.3562" />
    <path d="M659.86031 888.08491 L660.05161 877.56303" />
    <path d="M659.42533 913.2825 L660.48659 902.81252" />
    <path d="M659.0663 938.45711 L660.84562 928.085" />
    <path d="M658.76892 963.62076 L661.143 953.36843" />
    <path d="M658.52092 988.78048 L661.391 978.65579" />
    <path d="M658.31237 1013.94021 L661.59954 1003.94315" />
    <path d="M658.13546 1039.10207 L661.77645 1029.22837" />
    <path d="M659.78846 1059.80315 L661.92785 1054.51041" />
    <path d="M603.9644 1013.58153 L608.92763 1004.30182" />
    <path d="M604.09976 988.42789 L608.79227 979.00839" />
    <path d="M604.26602 963.28357 L608.62602 953.70562" />
    <path d="M604.47413 938.1494 L608.41791 928.3927" />
    <path d="M604.74028 913.02517 L608.15175 903.06985" />
    <path d="M605.08881 887.90773 L607.80322 877.74021" />
    <path d="M605.55636 862.78648 L607.33567 852.41437" />
    <path d="M606.196 837.63275 L606.69603 827.12102" />
    <path d="M587.71971 837.56294 L589.49903 827.19083" />
    <path d="M587.14232 862.65359 L590.07642 852.54727" />
    <path d="M586.74325 887.74375 L590.47549 877.90419" />
    <path d="M586.45623 912.84862 L590.76251 903.2464" />
    <path d="M586.24209 937.97027 L590.97664 928.57183" />
    <path d="M586.07723 963.10707 L591.1415 953.88212" />
    <path d="M585.94691 988.25664 L591.27183 979.17964" />
    <path d="M585.84157 1013.41672 L591.37717 1004.46664" />
    <path d="M531.53661 962.36668 L538.66224 954.62251" />
    <path d="M521.13486 954.93178 L513.3907 962.05741" />
    <path d="M495.27338 961.72589 L503.57888 955.2633" />
    <path d="M485.98982 955.60951 L477.18915 961.37968" />
    <path d="M459.14036 961.02673 L468.36531 955.96246" />
    <path d="M450.70516 956.3146 L441.12722 960.67459" />
    <path d="M423.14815 960.32983 L433.01093 956.65936" />
    <path d="M415.28547 956.99158 L405.20031 959.99761" />
    <path d="M387.28008 959.68164 L397.53241 957.30755" />
    <path d="M379.75565 957.60494 L369.38354 959.38425" />
    <path d="M351.50685 959.10662 L361.95905 957.88257" />
    <path d="M344.14617 958.14021 L333.64644 958.84898" />
    <path d="M315.79913 958.61094 L326.32018 958.37825" />
    <path d="M308.48381 958.59754 L297.9622 958.39165" />
    <path d="M280.13337 958.19 L290.63935 958.79919" />
    <path d="M272.78867 958.98447 L262.31076 958.00472" />
    <path d="M244.49282 957.83452 L254.93331 959.15467" />
    <path d="M237.0745 959.31108 L226.67834 957.67811" />
    <path d="M210.47244 957.8324 L219.2132 959.45493" />
    <path d="M226.73475 932.15305 L237.01808 934.38906" />
    <path d="M244.54134 932.30154 L254.88479 934.24056" />
    <path d="M262.35007 932.46459 L272.74935 934.07752" />
    <path d="M280.16206 932.64387 L290.61066 933.89823" />
    <path d="M297.97878 932.8412 L308.46723 933.70091" />
    <path d="M315.80214 933.05845 L326.31717 933.48366" />
    <path d="M333.63456 933.29749 L344.15805 933.24461" />
    <path d="M351.47908 933.56008 L361.98682 932.98203" />
    <path d="M369.33947 933.84757 L379.79973 932.69454" />
    <path d="M387.22019 934.16071 L397.5923 932.3814" />
    <path d="M405.12642 934.49919 L415.35937 932.04292" />
    <path d="M423.06376 934.86119 L433.09533 931.68091" />
    <path d="M441.03784 935.24294 L450.79454 931.29916" />
    <path d="M459.05362 935.63833 L468.45206 930.90378" />
    <path d="M477.11445 936.03885 L486.06452 930.50326" />
    <path d="M495.22111 936.43403 L503.63115 930.10808" />
    <path d="M513.37104 936.81238 L521.15452 929.72973" />
    <path d="M531.5581 937.1628 L538.64075 929.37931" />
    <path d="M531.58635 911.96477 L538.61251 904.13025" />
    <path d="M521.18004 904.53443 L513.34552 911.56059" />
    <path d="M495.1548 911.12036 L503.69746 904.97466" />
    <path d="M486.15619 905.43374 L477.02277 910.66129" />
    <path d="M458.95173 910.20065 L468.55394 905.89437" />
    <path d="M450.89385 906.34178 L440.93853 909.75325" />
    <path d="M422.97639 909.32988 L433.1827 906.76514" />
    <path d="M415.42895 907.15785 L405.05684 908.93717" />
    <path d="M387.17126 908.57814 L397.64123 907.51688" />
    <path d="M379.82739 907.84188 L369.31181 908.25314" />
    <path d="M351.47185 907.9608 L361.99405 908.13422" />
    <path d="M344.14654 908.39627 L333.64606 907.69875" />
    <path d="M315.83028 907.4642 L326.28903 908.63082" />
    <path d="M308.42468 908.84078 L298.02134 907.25424" />
    <path d="M280.21689 907.06608 L290.55583 909.02894" />
    <path d="M262.41519 906.89714 L272.68423 909.19788" />
    <path d="M244.61499 906.7451 L254.81114 909.34992" />
    <path d="M226.81537 906.60789 L236.93746 909.48713" />
    <path d="M210.47244 906.93715 L219.06384 909.61129" />
    <path d="M210.47244 932.39605 L219.1501 934.52453" />
    <path d="M236.82834 884.60304 L226.92449 881.0449" />
    <path d="M210.47244 881.45192 L218.95086 884.71285" />
    <path d="M244.71889 881.16719 L254.70724 884.48075" />
    <path d="M262.51224 881.30393 L272.58719 884.344" />
    <path d="M280.30509 881.45747 L290.46763 884.19047" />
    <path d="M298.09832 881.63055 L308.34769 884.01739" />
    <path d="M315.89327 881.82642 L326.22604 883.82151" />
    <path d="M333.6919 882.04884 L344.10071 883.59909" />
    <path d="M351.49709 882.30207 L361.96881 883.34587" />
    <path d="M369.31296 882.59074 L379.82624 883.0572" />
    <path d="M387.1453 882.91962 L397.66719 882.72832" />
    <path d="M405.00203 883.293 L415.48376 882.35494" />
    <path d="M422.89349 883.71363 L433.2656 881.93431" />
    <path d="M440.83242 884.18117 L450.99995 881.46677" />
    <path d="M458.83306 884.69009 L468.67262 880.95785" />
    <path d="M476.90875 885.22759 L486.27022 880.42035" />
    <path d="M495.06822 885.77274 L503.78405 879.8752" />
    <path d="M513.31109 886.29827 L521.21447 879.34966" />
    <path d="M531.62512 886.77566 L538.57373 878.87228" />
    <path d="M531.68164 861.6011 L538.51722 853.59976" />
    <path d="M521.26345 854.18264 L513.26211 861.01822" />
    <path d="M494.95109 860.36822 L503.90117 854.83263" />
    <path d="M486.41296 855.49788 L476.766 859.70297" />
    <path d="M458.69968 859.06747 L468.806 856.13338" />
    <path d="M451.10224 856.71077 L440.73013 858.49008" />
    <path d="M422.83162 857.98246 L433.32746 857.21839" />
    <path d="M415.50441 857.6562 L404.98138 857.54465" />
    <path d="M387.16202 857.17057 L397.65047 858.03028" />
    <path d="M379.77789 858.34902 L369.36131 856.85184" />
    <path d="M351.57106 856.57988 L361.89484 858.62097" />
    <path d="M333.78598 856.34695 L344.00663 858.8539" />
    <path d="M316.00273 856.1464 L326.11658 859.05445" />
    <path d="M298.21929 855.97271 L308.22673 859.22814" />
    <path d="M280.43443 855.82136 L290.33829 859.37949" />
    <path d="M262.64749 855.68867 L272.45194 859.51219" />
    <path d="M244.8581 855.57164 L254.56803 859.62922" />
    <path d="M227.06614 855.46784 L236.68669 859.73301" />
    <path d="M210.47244 855.93567 L218.80793 859.82557" />
    <path d="M236.50922 834.87164 L227.24362 829.88213" />
    <path d="M210.47244 830.38255 L218.63258 834.94452" />
    <path d="M245.03693 829.96433 L254.3892 834.78944" />
    <path d="M262.8266 830.05764 L272.27282 834.69613" />
    <path d="M280.61234 830.16434 L290.16038 834.58943" />
    <path d="M298.3939 830.2873 L308.05212 834.46647" />
    <path d="M316.17119 830.4302 L325.94812 834.32357" />
    <path d="M333.94438 830.59782 L343.84823 834.15595" />
    <path d="M351.71413 830.79634 L361.75177 833.95744" />
    <path d="M369.48208 831.03384 L379.65712 833.71993" />
    <path d="M387.2515 831.32084 L397.56099 833.43293" />
    <path d="M405.02868 831.67077 L415.45711 833.083" />
    <path d="M422.82502 832.10006 L433.33407 832.65371" />
    <path d="M440.66032 832.6269 L451.17206 832.12687" />
    <path d="M458.56678 833.26654 L468.93889 831.48723" />
    <path d="M476.59096 834.02047 L486.58801 830.7333" />
    <path d="M494.78628 834.8585 L504.06599 829.89527" />
    <path d="M513.187 835.70475 L521.33856 829.04902" />
    <path d="M531.77156 836.45267 L538.42729 828.3011" />
    <path d="M531.93645 811.35837 L538.2624 802.94832" />
    <path d="M513.05775 810.31632 L521.4678 803.99037" />
    <path d="M494.54778 809.12523 L504.30448 805.18145" />
    <path d="M476.40343 808.043 L486.77554 806.26369" />
    <path d="M458.49109 807.17978 L469.01458 807.1269" />
    <path d="M440.69189 806.52616 L451.14049 807.78052" />
    <path d="M433.22121 808.27135 L422.93788 806.03534" />
    <path d="M405.19668 805.66259 L415.28911 808.6441" />
    <path d="M387.45432 805.37428 L397.35817 808.93241" />
    <path d="M369.70539 805.14683 L379.43381 809.15986" />
    <path d="M351.94825 804.96399 L361.51765 809.3427" />
    <path d="M334.18289 804.81445 L343.60971 809.49224" />
    <path d="M316.40994 804.69026 L325.70937 809.61643" />
    <path d="M298.6302 804.58571 L307.81582 809.72098" />
    <path d="M280.8445 804.49663 L289.92822 809.81006" />
    <path d="M263.0536 804.41992 L272.04583 809.88677" />
    <path d="M245.25818 804.35323 L254.16795 809.95346" />
    <path d="M227.45882 804.29477 L236.29402 810.01192" />
    <path d="M210.47244 804.78512 L218.42352 810.06356" />
    <path d="M236.04113 785.14568 L227.71171 778.71393" />
    <path d="M210.47244 779.13379 L218.18111 785.17572" />
    <path d="M245.52228 778.74798 L253.90385 785.11162" />
    <path d="M263.32967 778.78689 L271.76976 785.07271" />
    <path d="M281.13326 778.83177 L289.63946 785.02784" />
    <path d="M298.9323 778.88407 L307.51371 784.97554" />
    <path d="M316.72581 778.94577 L325.3935 784.91384" />
    <path d="M334.51255 779.01958 L343.28005 784.84002" />
    <path d="M352.2909 779.10936 L361.175 784.75024" />
    <path d="M370.05877 779.22073 L379.08043 784.63887" />
    <path d="M387.81344 779.36217 L396.99906 784.49744" />
    <path d="M405.55152 779.54701 L414.93427 784.31259" />
    <path d="M423.26927 779.79721 L432.88981 784.06239" />
    <path d="M440.96426 780.15073 L450.86811 783.70887" />
    <path d="M458.64251 780.67632 L468.86316 783.18328" />
    <path d="M406.14169 753.40978 L414.3441 760.00274" />
    <path d="M388.35279 753.35124 L396.4597 760.06128" />
    <path d="M370.55331 753.30684 L378.58589 760.10568" />
    <path d="M352.74639 753.27202 L360.71951 760.1405" />
    <path d="M334.93406 753.24399 L342.85854 760.16853" />
    <path d="M317.11767 753.22094 L325.00164 760.19158" />
    <path d="M299.29816 753.20166 L307.14786 760.21086" />
    <path d="M281.47619 753.18529 L289.29654 760.22722" />
    <path d="M263.65225 753.17123 L271.44718 760.24129" />
    <path d="M245.82672 753.15901 L253.59941 760.25351" />
    <path d="M227.99987 753.1483 L235.75296 760.26422" />
    <path d="M210.47244 753.416 L217.90761 760.27368" />
    <path d="M235.43437 735.35926 L228.31846 727.60617" />
    <path d="M210.47244 727.61498 L217.60719 735.35055" />
    <path d="M217.28569 710.40051 L210.79386 702.11784" />
    <path d="M228.66054 702.09447 L235.09229 710.42388" />
    <path d="M246.53124 702.06839 L252.89489 710.44996" />
    <path d="M264.4068 702.03913 L270.69263 710.47922" />
    <path d="M264.01468 727.58525 L271.08474 735.38018" />
    <path d="M281.8654 727.57254 L288.90732 735.39289" />
    <path d="M299.71841 727.55787 L306.72761 735.40757" />
    <path d="M317.57434 727.54074 L324.54497 735.4247" />
    <path d="M335.43403 727.52048 L342.35857 735.44496" />
    <path d="M253.26031 735.36907 L246.16582 727.59637" />
    <path d="M210.47244 1008.64927 L219.28399 1009.37153" />
    <path d="M226.61475 1034.1271 L237.13809 1034.20334" />
    <path d="M244.45277 1034.29152 L254.97336 1034.03892" />
    <path d="M262.29652 1034.46622 L272.80291 1033.86423" />
    <path d="M280.14707 1034.65154 L290.62565 1033.6789" />
    <path d="M298.00565 1034.84774 L308.44037 1033.4827" />
    <path d="M315.8736 1035.05488 L326.24571 1033.27556" />
    <path d="M333.75239 1035.27283 L344.04022 1033.05761" />
    <path d="M351.64356 1035.50117 L361.82234 1032.82927" />
    <path d="M369.54871 1035.73918 L379.59049 1032.59127" />
    <path d="M387.4694 1035.98572 L397.34309 1032.34473" />
    <path d="M405.40708 1036.23924 L415.07871 1032.0912" />
    <path d="M423.36299 1036.49777 L432.79609 1031.83267" />
    <path d="M441.33803 1036.75888 L450.49435 1031.57156" />
    <path d="M459.33263 1037.01977 L468.17304 1031.31067" />
    <path d="M477.3467 1037.27736 L485.83227 1031.05308" />
    <path d="M495.37947 1037.52843 L503.4728 1030.80201" />
    <path d="M513.42953 1037.76979 L521.09602 1030.56065" />
    <path d="M516.82427 1059.80315 L521.08715 1055.77479" />
    <path d="M498.9349 1059.80315 L503.44806 1055.99602" />
    <path d="M481.03858 1059.80315 L485.79451 1056.22578" />
    <path d="M463.13384 1059.80315 L468.1253 1056.46162" />
    <path d="M445.21877 1059.80315 L450.43975 1056.701" />
    <path d="M427.29081 1059.80315 L432.7376 1056.94148" />
    <path d="M409.34652 1059.80315 L415.01903 1057.18078" />
    <path d="M391.38108 1059.80315 L397.2846 1057.41687" />
    <path d="M373.38756 1059.80315 L379.53512 1057.648" />
    <path d="M355.35567 1059.80315 L361.77164 1057.87276" />
    <path d="M337.26938 1059.80315 L343.99531 1058.09002" />
    <path d="M319.10225 1059.80315 L326.20738 1058.29898" />
    <path d="M300.80744 1059.80315 L308.40906 1058.4991" />
    <path d="M282.29324 1059.80315 L290.60158 1058.69008" />
    <path d="M263.35248 1059.80315 L272.78607 1058.87179" />
    <path d="M244.46254 1059.73326 L254.96359 1059.04427" />
    <path d="M226.61772 1059.56983 L237.13511 1059.2077" />
    <path d="M210.47244 1059.40669 L219.30152 1059.36232" />
    <path d="M210.47244 1034.03448 L219.29805 1034.35793" />
    <path d="M709.50366 728.02045 L717.42814 734.94499" />
    <path d="M727.36057 727.9974 L735.24453 734.96804" />
    <path d="M745.21435 727.97812 L753.06405 734.98732" />
    <path d="M763.06567 727.96175 L770.88602 735.00368" />
    <path d="M780.91503 727.94769 L788.70996 735.01775" />
    <path d="M798.76279 727.93547 L806.53549 735.02996" />
    <path d="M816.60924 727.92476 L824.36233 735.04067" />
    <path d="M834.4546 727.9153 L841.88976 734.77297" />
  </g>
</svg>