<?xml version="1.0" standalone="no"?>
<!DOCTYPE svg PUBLIC "-//W3C//DTD SVG 1.1//EN" 
    "http://www.w3.org/Graphics/SVG/1.1/DTD/svg11.dtd">
<svg width="29.7cm" height="42cm"
    xmlns="http://www.w3.org/2000/svg" version="1.1" viewBox="0 0 1052.3622 1488.18898">
  <g fill="none" stroke="black" stroke-width="0.1cm" stroke-linejoin="round" stroke-linecap="round">
    <path d="M318.26758 557.04147 L323.85174 552.79437" />
    <path d="M336.31311 557.29117 L341.4795 552.54468" />
    <path d="M354.46142 557.591 L359.00448 552.24485" />
    <path d="M372.77719 557.93329 L376.362 551.90255" />
    <path d="M391.35015 558.26304 L393.46235 551.5728" />
    <path d="M410.25299 551.41006 L410.2328 558.42578" />
    <path d="M426.88347 551.62026 L429.27561 558.21559" />
    <path d="M443.69812 552.20032 L448.13425 557.63553" />
    <path d="M460.87621 552.91039 L466.62946 556.92546" />
    <path d="M478.3497 553.57294 L484.82927 556.26291" />
    <path d="M496.00316 554.1508 L502.8491 555.68504" />
    <path d="M513.76375 554.66902 L520.76181 555.16683" />
    <path d="M531.60039 555.16683 L538.59846 554.66902" />
    <path d="M549.51311 555.68504 L556.35904 554.1508" />
    <path d="M567.53294 556.26291 L574.01251 553.57294" />
    <path d="M585.73274 556.92546 L591.486 552.91039" />
    <path d="M604.22795 557.63553 L608.66408 552.20032" />
    <path d="M623.08659 558.21559 L625.47873 551.62026" />
    <path d="M642.10922 551.41006 L642.1294 558.42578" />
    <path d="M658.89986 551.5728 L661.01206 558.26304" />
    <path d="M676.0002 551.90255 L679.58501 557.93329" />
    <path d="M693.35772 552.24485 L697.90079 557.591" />
    <path d="M710.88271 552.54468 L716.04909 557.29117" />
    <path d="M728.51047 552.79437 L734.09463 557.04147" />
    <path d="M728.45029 578.09946 L734.15481 582.18347" />
    <path d="M728.39672 603.39998 L734.20838 607.33003" />
    <path d="M728.34893 628.69612 L734.25617 632.48098" />
    <path d="M728.30619 653.98808 L734.29891 657.6361" />
    <path d="M728.26787 679.27611 L734.33722 682.79516" />
    <path d="M728.23344 704.56043 L734.37166 707.95792" />
    <path d="M728.20241 729.84128 L734.40269 733.12416" />
    <path d="M728.17438 755.11888 L734.43071 758.29364" />
    <path d="M728.14901 780.39346 L734.45609 783.46614" />
    <path d="M728.12597 805.66521 L734.47913 808.64147" />
    <path d="M728.10501 830.93434 L734.50008 833.81943" />
    <path d="M728.0859 856.20101 L734.5192 858.99984" />
    <path d="M728.06843 881.46541 L734.53666 884.18253" />
    <path d="M728.05244 906.72768 L734.55266 909.36734" />
    <path d="M728.03775 931.98798 L734.56735 934.55413" />
    <path d="M710.22096 931.93857 L716.71085 934.60353" />
    <path d="M692.40394 931.89174 L698.85457 934.65037" />
    <path d="M674.58517 931.85065 L681.00004 934.69145" />
    <path d="M656.7622 931.82016 L663.14972 934.72195" />
    <path d="M638.93128 931.80763 L645.30735 934.73448" />
    <path d="M621.08712 931.8241 L627.47821 934.71801" />
    <path d="M603.22327 931.88573 L609.66876 934.65637" />
    <path d="M585.3341 932.01495 L591.88464 934.52715" />
    <path d="M567.42017 932.23879 L574.12527 934.30331" />
    <path d="M549.49724 932.57851 L556.37491 933.9636" />
    <path d="M531.60019 933.02507 L538.59866 933.51704" />
    <path d="M513.76354 933.51704 L520.76202 933.02507" />
    <path d="M495.9873 933.9636 L502.86496 932.57851" />
    <path d="M478.23693 934.30331 L484.94204 932.23879" />
    <path d="M467.02811 932.01495 L460.47757 934.52715" />
    <path d="M442.69345 934.65637 L449.13893 931.88573" />
    <path d="M431.27509 931.8241 L424.884 934.71801" />
    <path d="M407.05486 934.73448 L413.43093 931.80763" />
    <path d="M395.6 931.82016 L389.21249 934.72195" />
    <path d="M371.36216 934.69145 L377.77703 931.85065" />
    <path d="M359.95827 931.89174 L353.50763 934.65037" />
    <path d="M335.65136 934.60353 L342.14125 931.93857" />
    <path d="M324.32445 931.98798 L317.79486 934.55413" />
    <path d="M317.80954 909.36734 L324.30977 906.72768" />
    <path d="M335.66947 909.42328 L342.12314 906.67174" />
    <path d="M353.52999 909.47797 L359.93591 906.61705" />
    <path d="M371.38967 909.52847 L377.74953 906.56655" />
    <path d="M389.24604 909.57011 L395.56645 906.52491" />
    <path d="M407.09507 909.59554 L413.39072 906.49948" />
    <path d="M424.93063 909.59333 L431.22845 906.50169" />
    <path d="M442.74442 909.54586 L449.08796 906.54917" />
    <path d="M460.52757 909.42693 L466.97811 906.66809" />
    <path d="M478.27685 909.20147 L484.90212 906.89355" />
    <path d="M496.00794 908.83566 L502.84432 907.25936" />
    <path d="M513.76637 908.33086 L520.75919 907.76417" />
    <path d="M531.60301 907.76417 L538.59584 908.33086" />
    <path d="M549.51789 907.25936 L556.35426 908.83566" />
    <path d="M567.46009 906.89355 L574.08536 909.20147" />
    <path d="M585.3841 906.66809 L591.83464 909.42693" />
    <path d="M603.27424 906.54917 L609.61779 909.54586" />
    <path d="M621.13375 906.50169 L627.43157 909.59333" />
    <path d="M638.97149 906.49948 L645.26713 909.59554" />
    <path d="M656.79576 906.52491 L663.11616 909.57011" />
    <path d="M674.61268 906.56655 L680.97253 909.52847" />
    <path d="M692.42629 906.61705 L698.83222 909.47797" />
    <path d="M710.23907 906.67174 L716.69273 909.42328" />
    <path d="M710.25903 881.40229 L716.67277 884.24565" />
    <path d="M692.45127 881.33884 L698.80724 884.30909" />
    <path d="M674.64393 881.27769 L680.94129 884.37025" />
    <path d="M656.83465 881.22316 L663.07727 884.42478" />
    <path d="M639.01927 881.18235 L645.21935 884.46559" />
    <path d="M621.19092 881.16677 L627.37441 884.48117" />
    <path d="M603.33924 881.19512 L609.55279 884.45281" />
    <path d="M585.45111 881.29734 L591.76762 884.3506" />
    <path d="M567.5169 881.51828 L574.02854 884.12966" />
    <path d="M549.54917 881.91069 L556.32297 883.73725" />
    <path d="M531.60749 882.48995 L538.59136 883.15799" />
    <path d="M513.77084 883.15799 L520.75471 882.48995" />
    <path d="M496.03923 883.73725 L502.81303 881.91069" />
    <path d="M484.8453 881.51828 L478.33366 884.12966" />
    <path d="M460.59458 884.3506 L466.91109 881.29734" />
    <path d="M449.02296 881.19512 L442.80941 884.45281" />
    <path d="M424.9878 884.48117 L431.17128 881.16677" />
    <path d="M413.34293 881.18235 L407.14285 884.46559" />
    <path d="M389.28493 884.42478 L395.52756 881.22316" />
    <path d="M377.71828 881.27769 L371.42092 884.37025" />
    <path d="M353.55497 884.30909 L359.91094 881.33884" />
    <path d="M342.10317 881.40229 L335.68943 884.24565" />
    <path d="M317.82554 884.18253 L324.29377 881.46541" />
    <path d="M317.84301 858.99984 L324.2763 856.20101" />
    <path d="M335.71149 859.07086 L342.08111 856.13" />
    <path d="M353.58297 859.14405 L359.88293 856.0568" />
    <path d="M371.45656 859.21727 L377.68264 855.98358" />
    <path d="M389.33026 859.2867 L395.48223 855.91415" />
    <path d="M407.20006 859.34581 L413.28572 855.85504" />
    <path d="M425.05863 859.38348 L431.10045 855.81737" />
    <path d="M442.89362 859.38067 L448.93876 855.82019" />
    <path d="M460.68664 859.30443 L466.81903 855.89643" />
    <path d="M478.41782 859.099 L484.76115 856.10186" />
    <path d="M496.08971 858.68369 L502.76255 856.51716" />
    <path d="M513.77855 858.00705 L520.74701 857.19381" />
    <path d="M531.6152 857.19381 L538.58365 858.00705" />
    <path d="M549.59965 856.51716 L556.2725 858.68369" />
    <path d="M567.60105 856.10186 L573.94439 859.099" />
    <path d="M585.54317 855.89643 L591.67556 859.30443" />
    <path d="M603.42345 855.82019 L609.46859 859.38067" />
    <path d="M621.26175 855.81737 L627.30357 859.38348" />
    <path d="M639.07648 855.85504 L645.16214 859.34581" />
    <path d="M656.87998 855.91415 L663.03194 859.2867" />
    <path d="M674.67957 855.98358 L680.90564 859.21727" />
    <path d="M692.47927 856.0568 L698.77924 859.14405" />
    <path d="M710.28109 856.13 L716.65071 859.07086" />
    <path d="M710.30553 830.85464 L716.62627 833.89913" />
    <path d="M692.51077 830.77058 L698.74774 833.98319" />
    <path d="M674.72041 830.68372 L680.8648 834.07005" />
    <path d="M656.93312 830.5971 L662.9788 834.15667" />
    <path d="M639.14552 830.51631 L645.0931 834.23746" />
    <path d="M621.35049 830.45139 L627.21484 834.30238" />
    <path d="M603.53432 830.42055 L609.35771 834.33322" />
    <path d="M585.67302 830.45776 L591.54572 834.29601" />
    <path d="M567.73162 830.62848 L573.81382 834.12529" />
    <path d="M549.68804 831.05195 L556.18411 833.70182" />
    <path d="M531.63017 831.85779 L538.56868 832.89598" />
    <path d="M513.79353 832.89598 L520.73203 831.85779" />
    <path d="M496.1781 833.70182 L502.67417 831.05195" />
    <path d="M484.63058 830.62848 L478.54839 834.12529" />
    <path d="M460.81649 834.29601 L466.68919 830.45776" />
    <path d="M448.82788 830.42055 L443.0045 834.33322" />
    <path d="M425.14736 834.30238 L431.01172 830.45139" />
    <path d="M413.21669 830.51631 L407.2691 834.23746" />
    <path d="M389.38341 834.15667 L395.42908 830.5971" />
    <path d="M377.64179 830.68372 L371.49741 834.07005" />
    <path d="M353.61446 833.98319 L359.85144 830.77058" />
    <path d="M342.05667 830.85464 L335.73593 833.89913" />
    <path d="M317.86212 833.81943 L324.25719 830.93434" />
    <path d="M317.88308 808.64147 L324.23623 805.66521" />
    <path d="M335.76309 808.73073 L342.02952 805.57596" />
    <path d="M353.65002 808.82688 L359.81588 805.47981" />
    <path d="M371.54442 808.92915 L377.59478 805.37754" />
    <path d="M389.44608 809.03553 L395.36641 805.27116" />
    <path d="M407.35307 809.14183 L413.13272 805.16486" />
    <path d="M425.25972 809.23992 L430.89936 805.06677" />
    <path d="M443.15285 809.31416 L448.67953 804.99253" />
    <path d="M461.00458 809.33331 L466.50109 804.97338" />
    <path d="M478.76172 809.22914 L484.41725 805.07754" />
    <path d="M496.3506 808.84045 L502.50166 805.46624" />
    <path d="M513.82871 807.86912 L520.69685 806.43757" />
    <path d="M531.66535 806.43757 L538.5335 807.86912" />
    <path d="M549.86055 805.46624 L556.0116 808.84045" />
    <path d="M567.94496 805.07754 L573.60048 809.22914" />
    <path d="M585.86111 804.97338 L591.35763 809.33331" />
    <path d="M603.68268 804.99253 L609.20936 809.31416" />
    <path d="M621.46285 805.06677 L627.10248 809.23992" />
    <path d="M639.22949 805.16486 L645.00914 809.14183" />
    <path d="M656.9958 805.27116 L662.91612 809.03553" />
    <path d="M674.76743 805.37754 L680.81778 808.92915" />
    <path d="M692.54632 805.47981 L698.71218 808.82688" />
    <path d="M710.33269 805.57596 L716.59912 808.73073" />
    <path d="M710.36295 780.29369 L716.56886 783.56591" />
    <path d="M692.58661 780.18409 L698.6719 783.67551" />
    <path d="M674.8218 780.06447 L680.76342 783.79514" />
    <path d="M657.07014 779.9355 L662.84177 783.92411" />
    <path d="M639.33238 779.7995 L644.90625 784.0601" />
    <path d="M621.60652 779.66188 L626.9588 784.19772" />
    <path d="M603.8839 779.53382 L609.00813 784.32578" />
    <path d="M586.13975 779.43858 L591.07899 784.42102" />
    <path d="M568.31091 779.43087 L573.23454 784.42873" />
    <path d="M550.24637 779.67798 L555.62577 784.18162" />
    <path d="M531.7817 780.79054 L538.41715 783.06906" />
    <path d="M513.94506 783.06906 L520.5805 780.79054" />
    <path d="M502.11583 779.67798 L496.73643 784.18162" />
    <path d="M479.12767 784.42873 L484.0513 779.43087" />
    <path d="M466.22245 779.43858 L461.28322 784.42102" />
    <path d="M443.35407 784.32578 L448.47831 779.53382" />
    <path d="M430.75568 779.66188 L425.4034 784.19772" />
    <path d="M407.45596 784.0601 L413.02983 779.7995" />
    <path d="M395.29206 779.9355 L389.52043 783.92411" />
    <path d="M371.59879 783.79514 L377.54041 780.06447" />
    <path d="M359.77559 780.18409 L353.69031 783.67551" />
    <path d="M335.79335 783.56591 L341.99926 780.29369" />
    <path d="M324.2132 780.39346 L317.90611 783.46614" />
    <path d="M317.93149 758.29364 L324.18782 755.11888" />
    <path d="M335.82717 758.40496 L341.96544 755.00756" />
    <path d="M353.73612 758.5295 L359.72978 754.88302" />
    <path d="M371.66195 758.6686 L377.47725 754.74392" />
    <path d="M389.60912 758.82317 L395.20337 754.58935" />
    <path d="M407.58288 758.99307 L412.90291 754.41945" />
    <path d="M425.58852 759.17607 L430.57056 754.23644" />
    <path d="M443.62917 759.36609 L448.20321 754.04643" />
    <path d="M461.69948 759.55036 L465.80619 753.86216" />
    <path d="M479.767 759.70355 L483.41197 753.70897" />
    <path d="M497.69836 759.75913 L501.1539 753.65339" />
    <path d="M514.74993 759.15386 L519.77563 754.25866" />
    <path d="M532.58657 754.25866 L537.61228 759.15386" />
    <path d="M551.20831 753.65339 L554.66384 759.75913" />
    <path d="M568.95024 753.70897 L572.5952 759.70355" />
    <path d="M586.55602 753.86216 L590.66272 759.55036" />
    <path d="M604.159 754.04643 L608.73304 759.36609" />
    <path d="M621.79164 754.23644 L626.77369 759.17607" />
    <path d="M639.4593 754.41945 L644.77933 758.99307" />
    <path d="M657.15884 754.58935 L662.75308 758.82317" />
    <path d="M674.88496 754.74392 L680.70025 758.6686" />
    <path d="M692.63242 754.88302 L698.62608 758.5295" />
    <path d="M710.39676 755.00756 L716.53504 758.40496" />
    <path d="M710.43467 729.71726 L716.49713 733.24817" />
    <path d="M692.68471 729.57619 L698.57379 733.38925" />
    <path d="M674.95866 729.41537 L680.62655 733.55006" />
    <path d="M657.26518 729.23219 L662.64674 733.73324" />
    <path d="M639.61665 729.02469 L644.62197 733.94074" />
    <path d="M622.03088 728.79298 L626.53444 734.17245" />
    <path d="M604.53358 728.54201 L608.35846 734.42342" />
    <path d="M587.16293 728.28694 L590.0558 734.6785" />
    <path d="M569.98339 728.0648 L571.56205 734.90063" />
    <path d="M553.15509 727.98169 L552.71705 734.98375" />
    <path d="M537.38496 728.8216 L532.81389 734.14383" />
    <path d="M519.54831 734.14383 L514.97725 728.8216" />
    <path d="M499.64515 734.98375 L499.20711 727.98169" />
    <path d="M482.37881 728.0648 L480.80015 734.90063" />
    <path d="M462.3064 734.6785 L465.19927 728.28694" />
    <path d="M447.82863 728.54201 L444.00375 734.42342" />
    <path d="M425.82776 734.17245 L430.33132 728.79298" />
    <path d="M412.74555 729.02469 L407.74024 733.94074" />
    <path d="M389.71546 733.73324 L395.09703 729.23219" />
    <path d="M377.40355 729.41537 L371.73565 733.55006" />
    <path d="M353.78841 733.38925 L359.67749 729.57619" />
    <path d="M341.92753 729.71726 L335.86507 733.24817" />
    <path d="M317.95952 733.12416 L324.15979 729.84128" />
    <path d="M317.99054 707.95792 L324.12877 704.56043" />
    <path d="M335.90769 708.09585 L341.88491 704.4225" />
    <path d="M353.84831 708.25518 L359.61759 704.26317" />
    <path d="M371.822 708.43998 L377.31719 704.07837" />
    <path d="M389.84348 708.65446 L394.96902 703.86389" />
    <path d="M407.93576 708.90158 L412.55003 703.61677" />
    <path d="M426.13555 709.17912 L430.02354 703.33923" />
    <path d="M444.5012 709.469 L447.33118 703.04935" />
    <path d="M463.12055 709.7096 L464.38512 702.80875" />
    <path d="M481.08215 702.78818 L482.09682 709.73017" />
    <path d="M501.42042 709.145 L497.43184 703.37335" />
    <path d="M513.96689 705.05822 L520.55867 707.46013" />
    <path d="M538.39531 705.05822 L531.80354 707.46013" />
    <path d="M554.93037 703.37335 L550.94178 709.145" />
    <path d="M571.28006 702.78818 L570.26538 709.73017" />
    <path d="M587.97709 702.80875 L589.24165 709.7096" />
    <path d="M605.03103 703.04935 L607.86101 709.469" />
    <path d="M622.33867 703.33923 L626.22666 709.17912" />
    <path d="M639.81218 703.61677 L644.42644 708.90158" />
    <path d="M657.39319 703.86389 L662.51873 708.65446" />
    <path d="M675.04501 704.07837 L680.5402 708.43998" />
    <path d="M692.74461 704.26317 L698.5139 708.25518" />
    <path d="M710.47729 704.4225 L716.45451 708.09585" />
    <path d="M710.52535 679.12295 L716.40645 682.94831" />
    <path d="M692.81346 678.94362 L698.44504 683.12764" />
    <path d="M675.14655 678.73269 L680.43866 683.33858" />
    <path d="M657.54767 678.48508 L662.36425 683.58619" />
    <path d="M640.05459 678.19978 L644.18404 683.87149" />
    <path d="M622.72812 677.89103 L625.83721 684.18024" />
    <path d="M605.65542 677.61801 L607.23661 684.45326" />
    <path d="M588.91033 677.54069 L588.30841 684.53057" />
    <path d="M572.39908 677.92756 L569.14636 684.14371" />
    <path d="M555.73184 678.91694 L550.1403 683.15433" />
    <path d="M538.52823 680.29506 L531.67062 681.77621" />
    <path d="M520.69159 681.77621 L513.83397 680.29506" />
    <path d="M502.2219 683.15433 L496.63036 678.91694" />
    <path d="M483.21584 684.14371 L479.96312 677.92756" />
    <path d="M464.05379 684.53057 L463.45188 677.54069" />
    <path d="M446.70678 677.61801 L445.12559 684.45326" />
    <path d="M426.52499 684.18024 L429.63409 677.89103" />
    <path d="M412.30762 678.19978 L408.17817 683.87149" />
    <path d="M389.99796 683.58619 L394.81453 678.48508" />
    <path d="M377.21566 678.73269 L371.92354 683.33858" />
    <path d="M353.91716 683.12764 L359.54874 678.94362" />
    <path d="M341.83685 679.12295 L335.95575 682.94831" />
    <path d="M318.02498 682.79516 L324.09433 679.27611" />
    <path d="M318.0633 657.6361 L324.05602 653.98808" />
    <path d="M336.01011 657.80585 L341.78249 653.81833" />
    <path d="M353.99656 658.00694 L359.46934 653.61725" />
    <path d="M372.04326 658.24577 L377.09594 653.37841" />
    <path d="M390.18438 658.52659 L394.62811 653.0976" />
    <path d="M408.47605 658.84251 L412.00974 652.78167" />
    <path d="M427.00152 659.15021 L429.15756 652.47397" />
    <path d="M445.83964 659.31913 L445.99273 652.30505" />
    <path d="M462.57791 652.50683 L464.92776 659.11735" />
    <path d="M483.93667 658.41899 L479.2423 653.20519" />
    <path d="M496.3054 654.21014 L502.54686 657.41404" />
    <path d="M520.73005 656.34425 L513.79551 655.27993" />
    <path d="M538.5667 655.27993 L531.63215 656.34425" />
    <path d="M556.0568 654.21014 L549.81535 657.41404" />
    <path d="M573.1199 653.20519 L568.42554 658.41899" />
    <path d="M589.7843 652.50683 L587.43444 659.11735" />
    <path d="M606.36947 652.30505 L606.52256 659.31913" />
    <path d="M623.20464 652.47397 L625.36069 659.15021" />
    <path d="M640.35246 652.78167 L643.88616 658.84251" />
    <path d="M657.73409 653.0976 L662.17783 658.52659" />
    <path d="M675.26627 653.37841 L680.31895 658.24577" />
    <path d="M692.89286 653.61725 L698.36564 658.00694" />
    <path d="M710.57971 653.81833 L716.35209 657.80585" />
    <path d="M710.64137 628.50836 L716.29043 632.66874" />
    <path d="M692.98468 628.2839 L698.27383 632.8932" />
    <path d="M675.40762 628.0162 L680.1776 633.1609" />
    <path d="M657.95825 627.70509 L661.95367 633.47201" />
    <path d="M640.71195 627.37537 L643.52667 633.80173" />
    <path d="M623.75711 627.12027 L624.80822 634.05683" />
    <path d="M607.09306 627.14087 L605.79897 634.03623" />
    <path d="M590.46818 627.61365 L586.75056 633.56344" />
    <path d="M573.53494 628.4263 L568.0105 632.7508" />
    <path d="M556.20629 629.31935 L549.66586 631.85775" />
    <path d="M538.58271 630.17392 L531.61614 631.00318" />
    <path d="M520.74606 631.00318 L513.7795 630.17392" />
    <path d="M502.69635 631.85775 L496.15592 629.31935" />
    <path d="M484.35171 632.7508 L478.82726 628.4263" />
    <path d="M465.61165 633.56344 L461.89402 627.61365" />
    <path d="M446.56324 634.03623 L445.26914 627.14087" />
    <path d="M428.60509 627.12027 L427.55399 634.05683" />
    <path d="M408.83553 633.80173 L411.65026 627.37537" />
    <path d="M394.40396 627.70509 L390.40853 633.47201" />
    <path d="M372.18461 633.1609 L376.95459 628.0162" />
    <path d="M359.37753 628.2839 L354.08838 632.8932" />
    <path d="M336.07177 632.66874 L341.72084 628.50836" />
    <path d="M324.01328 628.69612 L318.10603 632.48098" />
    <path d="M318.15382 607.33003 L323.96549 603.39998" />
    <path d="M336.14189 607.53719 L341.65072 603.19282" />
    <path d="M354.19477 607.78634 L359.27113 602.94368" />
    <path d="M372.35143 608.08252 L376.78777 602.64749" />
    <path d="M390.67578 608.41635 L394.13671 602.31367" />
    <path d="M409.25669 608.7314 L411.2291 601.99862" />
    <path d="M428.14926 608.87219 L428.00982 601.85783" />
    <path d="M444.62133 602.10487 L447.21105 608.62515" />
    <path d="M466.09108 607.97993 L461.41459 602.75009" />
    <path d="M478.58733 603.55056 L484.59164 607.17946" />
    <path d="M502.7748 606.4098 L496.07746 604.32021" />
    <path d="M513.77136 605.02559 L520.75419 605.70443" />
    <path d="M538.59084 605.02559 L531.60801 605.70443" />
    <path d="M556.28474 604.32021 L549.5874 606.4098" />
    <path d="M573.77488 603.55056 L567.77056 607.17946" />
    <path d="M590.94761 602.75009 L586.27113 607.97993" />
    <path d="M607.74087 602.10487 L605.15116 608.62515" />
    <path d="M624.35239 601.85783 L624.21294 608.87219" />
    <path d="M641.1331 601.99862 L643.10552 608.7314" />
    <path d="M658.22549 602.31367 L661.68642 608.41635" />
    <path d="M675.57444 602.64749 L680.01078 608.08252" />
    <path d="M693.09108 602.94368 L698.16743 607.78634" />
    <path d="M710.71149 603.19282 L716.22031 607.53719" />
    <path d="M710.79142 577.87159 L716.14038 582.41134" />
    <path d="M693.21452 577.59701 L698.04399 582.68592" />
    <path d="M675.77072 577.27491 L679.81449 583.00802" />
    <path d="M658.5394 576.93233 L661.37252 583.3506" />
    <path d="M641.60602 576.67135 L642.6326 583.61158" />
    <path d="M624.94174 576.69606 L623.62359 583.58687" />
    <path d="M608.26551 577.14236 L604.62652 583.14057" />
    <path d="M591.26973 577.85506 L585.94901 582.42787" />
    <path d="M573.92001 578.59236 L567.62543 581.69057" />
    <path d="M556.33037 579.25606 L549.54178 581.02687" />
    <path d="M538.59552 579.85424 L531.60333 580.42869" />
    <path d="M520.75887 580.42869 L513.76668 579.85424" />
    <path d="M502.82043 581.02687 L496.03184 579.25606" />
    <path d="M484.73678 581.69057 L478.44219 578.59236" />
    <path d="M466.4132 582.42787 L461.09248 577.85506" />
    <path d="M447.73569 583.14057 L444.09669 577.14236" />
    <path d="M428.73861 583.58687 L427.42047 576.69606" />
    <path d="M409.7296 583.61158 L410.75618 576.67135" />
    <path d="M390.98969 583.3506 L393.82281 576.93233" />
    <path d="M372.54771 583.00802 L376.59149 577.27491" />
    <path d="M354.31821 582.68592 L359.14769 577.59701" />
    <path d="M336.22182 582.41134 L341.57078 577.87159" />
    <path d="M323.91192 578.09946 L318.20739 582.18347" />
  </g>
</svg>