<?xml version="1.0" standalone="no"?>
<!DOCTYPE svg PUBLIC "-//W3C//DTD SVG 1.1//EN" 
    "http://www.w3.org/Graphics/SVG/1.1/DTD/svg11.dtd">
<svg width="29.7cm" height="42cm"
    xmlns="http://www.w3.org/2000/svg" version="1.1" viewBox="0 0 1052.3622 1488.18898">
  <g fill="none" stroke="black" stroke-width="0.1cm" stroke-linejoin="round" stroke-linecap="round">
    <path d="M320.96008 551.41146 L321.15923 558.42438" />
    <path d="M339.00068 558.42424 L338.79193 551.4116" />
    <path d="M356.62355 551.41176 L356.84235 558.42409" />
    <path d="M374.6842 558.42393 L374.455 551.41192" />
    <path d="M392.28634 551.4121 L392.52615 558.42375" />
    <path d="M410.3681 558.42356 L410.11769 551.41228" />
    <path d="M427.94919 551.41247 L428.20989 558.42337" />
    <path d="M446.05135 558.42319 L445.78102 551.41265" />
    <path d="M463.61341 551.41282 L463.89226 558.42303" />
    <path d="M481.73238 558.42289 L481.44658 551.41296" />
    <path d="M499.28077 551.41306 L499.5715 558.42278" />
    <path d="M517.40943 558.42273 L517.11613 551.41312" />
    <path d="M534.95278 551.41312 L535.24607 558.42273" />
    <path d="M553.08144 558.42278 L552.79071 551.41306" />
    <path d="M570.62982 551.41296 L570.91562 558.42289" />
    <path d="M588.7488 558.42303 L588.46994 551.41282" />
    <path d="M606.31085 551.41265 L606.58118 558.42319" />
    <path d="M624.41302 558.42337 L624.15231 551.41247" />
    <path d="M641.99411 551.41228 L642.24451 558.42356" />
    <path d="M660.07586 558.42375 L659.83606 551.4121" />
    <path d="M677.67801 551.41192 L677.9072 558.42393" />
    <path d="M695.73865 558.42409 L695.51986 551.41176" />
    <path d="M713.36153 551.4116 L713.57028 558.42424" />
    <path d="M731.40213 558.42438 L731.20297 551.41146" />
    <path d="M730.79599 576.67036 L731.80911 583.61257" />
    <path d="M730.60685 601.92681 L731.99825 608.8032" />
    <path d="M730.7477 627.12483 L731.8574 634.05226" />
    <path d="M731.1964 652.30582 L731.4087 659.31836" />
    <path d="M731.74549 677.55584 L730.8596 684.51543" />
    <path d="M713.94622 677.5608 L712.98558 684.51047" />
    <path d="M696.15329 677.56712 L695.10522 684.50414" />
    <path d="M678.36825 677.57531 L677.21696 684.49595" />
    <path d="M660.59309 677.58611 L659.31882 684.48516" />
    <path d="M642.83028 677.60056 L641.40834 684.4707" />
    <path d="M625.08266 677.6202 L623.48267 684.45107" />
    <path d="M607.35286 677.647 L605.53918 684.42426" />
    <path d="M589.64144 677.68302 L587.5773 684.38825" />
    <path d="M571.9424 677.72852 L569.60304 684.34275" />
    <path d="M554.23542 677.77728 L551.63673 684.29399" />
    <path d="M536.48218 677.81179 L533.71667 684.25948" />
    <path d="M518.64553 677.81179 L515.88003 684.25948" />
    <path d="M500.72548 677.77728 L498.12679 684.29399" />
    <path d="M482.75916 677.72852 L480.4198 684.34275" />
    <path d="M464.78491 677.68302 L462.72076 684.38825" />
    <path d="M446.82303 677.647 L445.00935 684.42426" />
    <path d="M428.87954 677.6202 L427.27955 684.45107" />
    <path d="M410.95386 677.60056 L409.53192 684.4707" />
    <path d="M393.04338 677.58611 L391.76911 684.48516" />
    <path d="M375.14524 677.57531 L373.99396 684.49595" />
    <path d="M357.25698 677.56712 L356.20892 684.50414" />
    <path d="M339.37662 677.5608 L338.41598 684.51047" />
    <path d="M321.5026 677.55584 L320.61671 684.51543" />
    <path d="M321.84829 702.8411 L320.27102 709.67725" />
    <path d="M321.81889 728.05799 L320.30043 734.90744" />
    <path d="M321.41398 753.21633 L320.70533 760.19619" />
    <path d="M320.82534 778.42976 L321.29397 785.42984" />
    <path d="M320.38573 803.71081 L321.73358 810.59587" />
    <path d="M338.16688 803.72214 L339.62572 810.58454" />
    <path d="M355.93903 803.73649 L357.52687 810.57019" />
    <path d="M373.70014 803.75493 L375.43906 810.55176" />
    <path d="M391.44773 803.77897 L393.36477 810.52772" />
    <path d="M409.1789 803.81073 L411.30689 810.49596" />
    <path d="M426.89069 803.85307 L429.26839 810.45362" />
    <path d="M444.58111 803.90947 L447.25127 810.39722" />
    <path d="M462.2518 803.98284 L465.25387 810.32384" />
    <path d="M479.91332 804.07184 L483.26565 810.23485" />
    <path d="M497.59222 804.16303 L501.26004 810.14365" />
    <path d="M515.33123 804.22515 L519.19433 810.08153" />
    <path d="M533.16788 804.22515 L537.03097 810.08153" />
    <path d="M551.10216 804.16303 L554.76999 810.14365" />
    <path d="M569.09656 804.07184 L572.44888 810.23485" />
    <path d="M587.10833 803.98284 L590.1104 810.32384" />
    <path d="M605.11094 803.90947 L607.7811 810.39722" />
    <path d="M623.09381 803.85307 L625.47152 810.45362" />
    <path d="M641.05532 803.81073 L643.18331 810.49596" />
    <path d="M658.99744 803.77897 L660.91448 810.52772" />
    <path d="M676.92315 803.75493 L678.66207 810.55176" />
    <path d="M694.83533 803.73649 L696.42318 810.57019" />
    <path d="M712.73648 803.72214 L714.19532 810.58454" />
    <path d="M730.62863 803.71081 L731.97647 810.59587" />
    <path d="M730.54119 828.95263 L732.0639 835.80114" />
    <path d="M730.81101 854.12716 L731.79409 861.07369" />
    <path d="M731.29422 879.3161 L731.31088 886.33183" />
    <path d="M731.73063 904.56586 L730.87447 911.52917" />
    <path d="M731.91501 929.81706 L730.69008 936.72505" />
    <path d="M714.10694 929.82225 L712.82487 936.71986" />
    <path d="M696.30006 929.82792 L694.95845 936.71419" />
    <path d="M678.49409 929.83403 L677.09113 936.70807" />
    <path d="M660.68855 929.84053 L659.22336 936.70158" />
    <path d="M642.88283 929.84728 L641.3558 936.69483" />
    <path d="M625.07605 929.85408 L623.48928 936.68803" />
    <path d="M607.26716 929.86064 L605.62487 936.68146" />
    <path d="M589.45495 929.86662 L587.76379 936.67549" />
    <path d="M571.63813 929.87161 L569.90731 936.6705" />
    <path d="M553.81551 929.87521 L552.05664 936.6669" />
    <path d="M535.98614 929.8771 L534.21272 936.66501" />
    <path d="M518.14949 929.8771 L516.37607 936.66501" />
    <path d="M500.30557 929.87521 L498.54669 936.6669" />
    <path d="M482.4549 929.87161 L480.72407 936.6705" />
    <path d="M464.59842 929.86662 L462.90725 936.67549" />
    <path d="M446.73733 929.86064 L445.09504 936.68146" />
    <path d="M428.87292 929.85408 L427.28616 936.68803" />
    <path d="M411.00641 929.84728 L409.47938 936.69483" />
    <path d="M393.13884 929.84053 L391.67365 936.70158" />
    <path d="M375.27108 929.83403 L373.86812 936.70807" />
    <path d="M357.40376 929.82792 L356.06214 936.71419" />
    <path d="M339.53734 929.82225 L338.25527 936.71986" />
    <path d="M321.67212 929.81706 L320.44719 936.72505" />
    <path d="M338.44507 911.52624 L339.34754 904.56878" />
    <path d="M321.48773 904.56586 L320.63158 911.52917" />
    <path d="M338.90515 886.33183 L338.88745 879.31611" />
    <path d="M356.72353 879.31611 L356.74237 886.33183" />
    <path d="M357.20886 904.57207 L356.25704 911.52295" />
    <path d="M375.07156 904.57574 L374.06764 911.51929" />
    <path d="M392.93535 904.57977 L391.87714 911.51525" />
    <path d="M410.79976 904.58412 L409.68603 911.5109" />
    <path d="M428.66403 904.58867 L427.49505 911.50635" />
    <path d="M446.52714 904.59325 L445.30524 911.50177" />
    <path d="M464.38775 904.59757 L463.11792 911.49745" />
    <path d="M482.24434 904.6013 L480.93462 911.49372" />
    <path d="M500.09538 904.60407 L498.75688 911.49095" />
    <path d="M517.93959 904.60555 L516.58597 911.48947" />
    <path d="M535.77624 904.60555 L534.42261 911.48947" />
    <path d="M553.60532 904.60407 L552.26682 911.49095" />
    <path d="M571.42758 904.6013 L570.11786 911.49372" />
    <path d="M589.24428 904.59757 L587.97446 911.49745" />
    <path d="M607.05697 904.59325 L605.83507 911.50177" />
    <path d="M624.86716 904.58867 L623.69817 911.50635" />
    <path d="M642.67618 904.58412 L641.56244 911.5109" />
    <path d="M660.48507 904.57977 L659.42685 911.51525" />
    <path d="M678.29457 904.57574 L677.29065 911.51929" />
    <path d="M696.10516 904.57207 L695.15335 911.52295" />
    <path d="M713.91713 904.56878 L713.01467 911.52624" />
    <path d="M713.45705 879.31611 L713.47475 886.33183" />
    <path d="M695.61983 879.31611 L695.63867 886.33183" />
    <path d="M677.78257 879.31611 L677.80265 886.33183" />
    <path d="M659.94525 879.31611 L659.96666 886.33183" />
    <path d="M642.1079 879.31611 L642.13072 886.33182" />
    <path d="M624.27052 879.31612 L624.29481 886.33182" />
    <path d="M606.43314 879.31612 L606.45889 886.33182" />
    <path d="M588.59581 879.31612 L588.62293 886.33182" />
    <path d="M570.75856 879.31612 L570.78688 886.33181" />
    <path d="M552.92147 879.31613 L552.95068 886.33181" />
    <path d="M535.08459 879.31613 L535.11427 886.33181" />
    <path d="M517.24794 879.31613 L517.27762 886.33181" />
    <path d="M499.41153 879.31613 L499.44073 886.33181" />
    <path d="M481.57533 879.31612 L481.60364 886.33181" />
    <path d="M463.73928 879.31612 L463.7664 886.33182" />
    <path d="M445.90332 879.31612 L445.92906 886.33182" />
    <path d="M428.0674 879.31612 L428.09168 886.33182" />
    <path d="M410.23148 879.31611 L410.2543 886.33182" />
    <path d="M392.39554 879.31611 L392.41695 886.33183" />
    <path d="M374.55956 879.31611 L374.57964 886.33183" />
    <path d="M393.05806 861.04721 L391.75443 854.15364" />
    <path d="M409.54014 854.16367 L410.94565 861.03719" />
    <path d="M427.3221 854.17531 L428.83699 861.02555" />
    <path d="M445.10189 854.18838 L446.73049 861.01248" />
    <path d="M462.88251 854.20223 L464.62316 860.99862" />
    <path d="M480.66862 854.21558 L482.51034 860.98528" />
    <path d="M498.46624 854.22644 L500.38602 860.97441" />
    <path d="M516.28141 854.23262 L518.24414 860.96823" />
    <path d="M534.11806 854.23262 L536.08079 860.96823" />
    <path d="M551.97618 854.22644 L553.89597 860.97441" />
    <path d="M569.85186 854.21558 L571.69358 860.98528" />
    <path d="M587.73905 854.20223 L589.47969 860.99862" />
    <path d="M605.63172 854.18838 L607.26031 861.01248" />
    <path d="M623.52522 854.17531 L625.04011 861.02555" />
    <path d="M641.41656 854.16367 L642.82206 861.03719" />
    <path d="M659.30414 854.15364 L660.60777 861.04721" />
    <path d="M677.18733 854.14517 L678.39789 861.05569" />
    <path d="M695.06603 854.13806 L696.19248 861.06279" />
    <path d="M712.94047 854.13213 L713.99134 861.06873" />
    <path d="M712.64788 828.96572 L714.28392 835.78805" />
    <path d="M694.74698 828.98178 L696.51153 835.772" />
    <path d="M676.83736 829.00158 L678.74785 835.75219" />
    <path d="M658.91795 829.02611 L660.99397 835.72766" />
    <path d="M640.98796 829.05646 L643.25066 835.69731" />
    <path d="M623.04746 829.09368 L625.51787 835.66009" />
    <path d="M605.09829 829.13824 L607.79374 835.61553" />
    <path d="M587.1455 829.18905 L590.07324 835.56472" />
    <path d="M569.1989 829.24188 L572.34654 835.51189" />
    <path d="M551.27351 829.28802 L554.59864 835.46575" />
    <path d="M533.38647 829.31569 L536.81239 835.43809" />
    <path d="M515.54982 829.31569 L518.97574 835.43809" />
    <path d="M497.76357 829.28802 L501.08869 835.46575" />
    <path d="M480.01566 829.24188 L483.1633 835.51189" />
    <path d="M462.28897 829.18905 L465.21671 835.56472" />
    <path d="M444.56847 829.13824 L447.26391 835.61553" />
    <path d="M426.84434 829.09368 L429.31474 835.66009" />
    <path d="M409.11154 829.05646 L411.37425 835.69731" />
    <path d="M391.36823 829.02611 L393.44426 835.72766" />
    <path d="M373.61435 829.00158 L375.52484 835.75219" />
    <path d="M373.96432 854.14517 L375.17488 861.05569" />
    <path d="M356.16972 854.13806 L357.29618 861.06279" />
    <path d="M338.37087 854.13213 L339.42174 861.06873" />
    <path d="M320.56811 854.12716 L321.5512 861.07369" />
    <path d="M321.05132 879.3161 L321.06799 886.33183" />
    <path d="M339.71432 835.78805 L338.07828 828.96572" />
    <path d="M355.85068 828.98178 L357.61523 835.772" />
    <path d="M320.2983 828.95263 L321.82101 835.80114" />
    <path d="M338.64062 778.43126 L339.15198 785.42834" />
    <path d="M356.45173 778.43322 L357.01417 785.42638" />
    <path d="M374.25738 778.43585 L374.88182 785.42375" />
    <path d="M392.05567 778.43949 L392.75682 785.42011" />
    <path d="M409.84386 778.4447 L410.64193 785.41491" />
    <path d="M427.61774 778.45246 L428.54135 785.40714" />
    <path d="M445.37089 778.46457 L446.46149 785.39503" />
    <path d="M463.09378 778.4844 L464.41189 785.37521" />
    <path d="M480.77479 778.51784 L482.40418 785.34176" />
    <path d="M498.41404 778.5711 L500.43822 785.2885" />
    <path d="M516.07688 778.62847 L518.44868 785.23114" />
    <path d="M533.91352 778.62847 L536.28533 785.23114" />
    <path d="M551.92398 778.5711 L553.94816 785.2885" />
    <path d="M569.95803 778.51784 L571.58741 785.34176" />
    <path d="M587.95031 778.4844 L589.26843 785.37521" />
    <path d="M605.90072 778.46457 L606.99131 785.39503" />
    <path d="M623.82086 778.45246 L624.74447 785.40714" />
    <path d="M641.72028 778.4447 L642.51835 785.41491" />
    <path d="M659.60539 778.43949 L660.30653 785.42011" />
    <path d="M677.48038 778.43585 L678.10483 785.42375" />
    <path d="M695.34804 778.43322 L695.91047 785.42638" />
    <path d="M713.21022 778.43126 L713.72158 785.42834" />
    <path d="M731.06824 778.42976 L731.53686 785.42984" />
    <path d="M731.65688 753.21633 L730.94822 760.19619" />
    <path d="M713.85344 753.21986 L713.07837 760.19266" />
    <path d="M696.05679 753.22454 L695.20171 760.18798" />
    <path d="M678.26924 753.23092 L677.31597 760.1816" />
    <path d="M660.49422 753.23993 L659.4177 760.17259" />
    <path d="M642.7371 753.25321 L641.50152 760.1593" />
    <path d="M625.00672 753.27392 L623.55861 760.13859" />
    <path d="M607.31853 753.30863 L605.5735 760.10389" />
    <path d="M589.70146 753.37271 L587.51728 760.0398" />
    <path d="M572.2129 753.50766 L569.33254 759.90486" />
    <path d="M554.95811 753.83981 L550.91404 759.57271" />
    <path d="M537.91879 754.61907 L532.28006 758.79345" />
    <path d="M520.08215 754.61907 L514.44341 758.79345" />
    <path d="M501.44817 753.83981 L497.4041 759.57271" />
    <path d="M483.02966 753.50766 L480.14931 759.90486" />
    <path d="M464.84493 753.37271 L462.66075 760.0398" />
    <path d="M446.7887 753.30863 L445.04367 760.10389" />
    <path d="M428.8036 753.27392 L427.35548 760.13859" />
    <path d="M410.86068 753.25321 L409.6251 760.1593" />
    <path d="M392.94451 753.23993 L391.86798 760.17259" />
    <path d="M375.04623 753.23092 L374.09296 760.1816" />
    <path d="M357.16049 753.22454 L356.30541 760.18798" />
    <path d="M339.28384 753.21986 L338.50877 760.19266" />
    <path d="M355.82448 734.87091 L357.64142 728.09452" />
    <path d="M373.56326 734.84314 L375.57593 728.12229" />
    <path d="M393.53265 728.16061 L391.27984 734.80482" />
    <path d="M411.51933 728.21532 L408.96646 734.75012" />
    <path d="M429.54713 728.2966 L426.61195 734.66884" />
    <path d="M447.63185 728.42303 L444.20052 734.5424" />
    <path d="M465.79373 728.62966 L461.71194 734.33577" />
    <path d="M484.04874 728.98127 L479.13022 733.98416" />
    <path d="M502.36832 729.57256 L496.48394 733.39287" />
    <path d="M520.58491 730.35638 L513.94065 732.60905" />
    <path d="M538.42156 730.35638 L531.7773 732.60905" />
    <path d="M555.87826 729.57256 L549.99388 733.39287" />
    <path d="M573.23198 728.98127 L568.31346 733.98416" />
    <path d="M590.65026 728.62966 L586.56847 734.33577" />
    <path d="M608.16168 728.42303 L604.73035 734.5424" />
    <path d="M625.75025 728.2966 L622.81508 734.66884" />
    <path d="M643.39575 728.21532 L640.84288 734.75012" />
    <path d="M661.08237 728.16061 L658.82955 734.80482" />
    <path d="M678.79894 728.12229 L676.78627 734.84314" />
    <path d="M696.53772 728.09452 L694.72079 734.87091" />
    <path d="M714.29329 728.07381 L712.63852 734.89162" />
    <path d="M732.06178 728.05799 L730.54332 734.90744" />
    <path d="M732.09119 702.8411 L730.51391 709.67725" />
    <path d="M714.32268 702.85754 L712.60912 709.66081" />
    <path d="M696.56625 702.87876 L694.69225 709.63959" />
    <path d="M678.8251 702.90669 L676.76011 709.61166" />
    <path d="M661.10346 702.9443 L658.80846 709.57405" />
    <path d="M643.40693 702.99617 L640.83169 709.52218" />
    <path d="M625.74257 703.06953 L622.82275 709.44882" />
    <path d="M608.11837 703.1756 L604.77366 709.34275" />
    <path d="M590.54014 703.33047 L586.67859 709.18788" />
    <path d="M573.00174 703.55055 L568.54371 708.96781" />
    <path d="M555.46295 703.82606 L550.4092 708.69229" />
    <path d="M537.82829 704.05498 L532.37056 708.46337" />
    <path d="M519.99164 704.05498 L514.53391 708.46337" />
    <path d="M501.95301 703.82606 L496.89925 708.69229" />
    <path d="M483.8185 703.55055 L479.36047 708.96781" />
    <path d="M465.68361 703.33047 L461.82206 709.18788" />
    <path d="M447.58854 703.1756 L444.24383 709.34275" />
    <path d="M429.53945 703.06953 L426.61963 709.44882" />
    <path d="M411.53051 702.99617 L408.95527 709.52218" />
    <path d="M393.55375 702.9443 L391.25874 709.57405" />
    <path d="M375.60209 702.90669 L373.53711 709.61166" />
    <path d="M357.66995 702.87876 L355.79595 709.63959" />
    <path d="M339.75308 702.85754 L338.03952 709.66081" />
    <path d="M339.72369 728.07381 L338.06892 734.89162" />
    <path d="M356.857 659.31777 L356.60891 652.30641" />
    <path d="M374.43452 652.30682 L374.70468 659.31736" />
    <path d="M392.25841 652.30733 L392.55408 659.31685" />
    <path d="M410.08032 652.30799 L410.40546 659.3162" />
    <path d="M427.90008 652.30881 L428.259 659.31537" />
    <path d="M445.71774 652.30984 L446.11464 659.31435" />
    <path d="M463.53393 652.31105 L463.97175 659.31313" />
    <path d="M481.35026 652.31238 L481.82871 659.3118" />
    <path d="M499.16973 652.3136 L499.68253 659.31058" />
    <path d="M516.99628 652.31436 L517.52928 659.30983" />
    <path d="M534.83292 652.31436 L535.36593 659.30983" />
    <path d="M552.67967 652.3136 L553.19248 659.31058" />
    <path d="M570.5335 652.31238 L571.01195 659.3118" />
    <path d="M588.39046 652.31105 L588.82828 659.31313" />
    <path d="M606.24757 652.30984 L606.64446 659.31435" />
    <path d="M624.1032 652.30881 L624.46213 659.31537" />
    <path d="M641.95674 652.30799 L642.28188 659.3162" />
    <path d="M659.80812 652.30733 L660.10379 659.31685" />
    <path d="M677.65753 652.30682 L677.92768 659.31736" />
    <path d="M695.50521 652.30641 L695.7533 659.31777" />
    <path d="M713.35142 652.30609 L713.58038 659.3181" />
    <path d="M712.87302 627.13114 L714.05878 634.04596" />
    <path d="M694.99403 627.13867 L696.26448 634.03843" />
    <path d="M677.11033 627.14767 L678.47488 634.02943" />
    <path d="M659.22172 627.15838 L660.6902 634.01872" />
    <path d="M641.32831 627.17102 L642.91031 634.00608" />
    <path d="M623.43087 627.18567 L625.13446 633.99143" />
    <path d="M605.53121 627.20206 L607.36083 633.97504" />
    <path d="M587.63266 627.21939 L589.58608 633.95771" />
    <path d="M569.74034 627.23603 L571.8051 633.94107" />
    <path d="M551.86082 627.24954 L554.01133 633.92756" />
    <path d="M534.00063 627.25721 L536.19822 633.91989" />
    <path d="M516.16398 627.25721 L518.36157 633.91989" />
    <path d="M498.35088 627.24954 L500.50138 633.92756" />
    <path d="M480.5571 627.23603 L482.62186 633.94107" />
    <path d="M462.77612 627.21939 L464.72955 633.95771" />
    <path d="M445.00138 627.20206 L446.831 633.97504" />
    <path d="M427.22774 627.18567 L428.93134 633.99143" />
    <path d="M409.45189 627.17102 L411.0339 634.00608" />
    <path d="M391.672 627.15838 L393.14049 634.01872" />
    <path d="M373.88732 627.14767 L375.25187 634.02943" />
    <path d="M356.09772 627.13867 L357.36818 634.03843" />
    <path d="M338.30342 627.13114 L339.48918 634.04596" />
    <path d="M338.78182 652.30609 L339.01078 659.3181" />
    <path d="M320.9535 652.30582 L321.16581 659.31836" />
    <path d="M320.5048 627.12483 L321.61451 634.05226" />
    <path d="M339.6336 608.79452 L338.15901 601.93549" />
    <path d="M355.95056 601.9455 L357.51534 608.78452" />
    <path d="M373.73864 601.95697 L375.40055 608.77304" />
    <path d="M391.52356 601.97 L393.28893 608.76001" />
    <path d="M409.30603 601.98455 L411.17976 608.74546" />
    <path d="M427.08732 602.00039 L429.07176 608.72963" />
    <path d="M444.86949 602.01693 L446.96289 608.71308" />
    <path d="M462.65544 602.0332 L464.85023 608.69681" />
    <path d="M480.44883 602.04776 L482.73013 608.68225" />
    <path d="M498.25363 602.05889 L500.59863 608.67113" />
    <path d="M516.07332 602.06495 L518.45224 608.66506" />
    <path d="M533.90996 602.06495 L536.28889 608.66506" />
    <path d="M551.76357 602.05889 L554.10858 608.67113" />
    <path d="M569.63207 602.04776 L571.91337 608.68225" />
    <path d="M587.51198 602.0332 L589.70676 608.69681" />
    <path d="M605.39932 602.01693 L607.49271 608.71308" />
    <path d="M623.29044 602.00039 L625.27488 608.72963" />
    <path d="M641.18244 601.98455 L643.05618 608.74546" />
    <path d="M659.07328 601.97 L660.83864 608.76001" />
    <path d="M676.96165 601.95697 L678.62356 608.77304" />
    <path d="M694.84686 601.9455 L696.41165 608.78452" />
    <path d="M712.72861 601.93549 L714.2032 608.79452" />
    <path d="M712.93212 576.67444 L713.99968 583.60849" />
    <path d="M695.0665 576.67903 L696.19201 583.6039" />
    <path d="M677.19929 576.68413 L678.38592 583.5988" />
    <path d="M659.33084 576.68974 L660.58108 583.59319" />
    <path d="M641.46173 576.69578 L642.7769 583.58715" />
    <path d="M623.59281 576.70209 L624.97251 583.58084" />
    <path d="M605.72531 576.70842 L607.16672 583.57451" />
    <path d="M587.86077 576.7144 L589.35797 583.56853" />
    <path d="M570.00093 576.71955 L571.54452 583.56338" />
    <path d="M552.14756 576.72336 L553.72458 583.55957" />
    <path d="M534.30214 576.7254 L535.89671 583.55753" />
    <path d="M516.46549 576.7254 L518.06006 583.55753" />
    <path d="M498.63762 576.72336 L500.21464 583.55957" />
    <path d="M480.81769 576.71955 L482.36128 583.56338" />
    <path d="M463.00423 576.7144 L464.50144 583.56853" />
    <path d="M445.19549 576.70842 L446.63689 583.57451" />
    <path d="M427.38969 576.70209 L428.76939 583.58084" />
    <path d="M409.58531 576.69578 L410.90048 583.58715" />
    <path d="M391.78113 576.68974 L393.03136 583.59319" />
    <path d="M373.97628 576.68413 L375.16291 583.5988" />
    <path d="M356.1702 576.67903 L357.29571 583.6039" />
    <path d="M338.36252 576.67444 L339.43008 583.60849" />
    <path d="M321.56622 583.61257 L320.55309 576.67036" />
    <path d="M320.36396 601.92681 L321.75535 608.8032" />
  </g>
</svg>