<?xml version="1.0" standalone="no"?>
<!DOCTYPE svg PUBLIC "-//W3C//DTD SVG 1.1//EN" 
    "http://www.w3.org/Graphics/SVG/1.1/DTD/svg11.dtd">
<svg width="29.7cm" height="42cm"
    xmlns="http://www.w3.org/2000/svg" version="1.1" viewBox="0 0 1052.3622 1488.18898">
  <g fill="none" stroke="black" stroke-width="0.1cm" stroke-linejoin="round" stroke-linecap="round">
    <path d="M24.85895 703.08141 L24.85895 902.2878" />
    <path d="M41.43158 914.00583 L41.43158 691.36338" />
    <path d="M33.14527 691.36338 L33.14527 902.2878" />
    <path d="M58.00422 914.00583 L58.00422 679.64536" />
    <path d="M49.7179 679.64536 L49.7179 914.00583" />
    <path d="M66.29053 925.72385 L66.29053 667.92734" />
    <path d="M74.57685 667.92734 L74.57685 925.72385" />
    <path d="M82.86317 925.72385 L82.86317 667.92734" />
    <path d="M91.14948 656.20931 L91.14948 925.72385" />
    <path d="M99.4358 925.72385 L99.4358 503.87501" />
    <path d="M107.72212 492.15698 L107.72212 925.72385" />
    <path d="M116.00843 925.72385 L116.00843 480.43896" />
    <path d="M124.29475 468.72094 L124.29475 925.72385" />
    <path d="M132.58107 925.72385 L132.58107 457.00291" />
    <path d="M140.86738 457.00291 L140.86738 925.72385" />
    <path d="M149.1537 925.72385 L149.1537 445.28489" />
    <path d="M157.44001 445.28489 L157.44001 914.00583" />
    <path d="M165.72633 914.00583 L165.72633 433.56687" />
    <path d="M174.01265 433.56687 L174.01265 914.00583" />
    <path d="M182.29896 902.2878 L182.29896 433.56687" />
    <path d="M190.58528 433.56687 L190.58528 890.56978" />
    <path d="M198.8716 890.56978 L198.8716 433.56687" />
    <path d="M207.15791 433.56687 L207.15791 878.85176" />
    <path d="M215.44423 867.13373 L215.44423 433.56687" />
    <path d="M223.73055 433.56687 L223.73055 855.41571" />
    <path d="M232.01686 831.97966 L232.01686 433.56687" />
    <path d="M240.30318 433.56687 L240.30318 714.79943" />
    <path d="M248.5895 703.08141 L248.5895 433.56687" />
    <path d="M256.87581 445.28489 L256.87581 691.36338" />
    <path d="M265.16213 691.36338 L265.16213 445.28489" />
    <path d="M273.44845 445.28489 L273.44845 679.64536" />
    <path d="M281.73476 679.64536 L281.73476 457.00291" />
    <path d="M290.02108 457.00291 L290.02108 679.64536" />
    <path d="M298.3074 667.92734 L298.3074 468.72094" />
    <path d="M306.59371 480.43896 L306.59371 667.92734" />
    <path d="M314.88003 667.92734 L314.88003 492.15698" />
    <path d="M323.16635 503.87501 L323.16635 667.92734" />
    <path d="M331.45266 667.92734 L331.45266 515.59303" />
    <path d="M339.73898 539.02908 L339.73898 679.64536" />
    <path d="M364.59793 585.90117 L364.59793 808.54362" />
    <path d="M372.88425 820.26164 L372.88425 585.90117" />
    <path d="M381.17056 574.18315 L381.17056 843.69769" />
    <path d="M389.45688 855.41571 L389.45688 574.18315" />
    <path d="M397.7432 574.18315 L397.7432 878.85176" />
    <path d="M406.02951 890.56978 L406.02951 562.46512" />
    <path d="M414.31583 562.46512 L414.31583 914.00583" />
    <path d="M422.60215 972.59595 L422.60215 550.7471" />
    <path d="M430.88846 550.7471 L430.88846 1324.13665" />
    <path d="M422.60215 1324.13665 L422.60215 1007.75002" />
    <path d="M414.31583 1042.90409 L414.31583 1324.13665" />
    <path d="M406.02951 1324.13665 L406.02951 1054.62211" />
    <path d="M397.7432 1054.62211 L397.7432 1324.13665" />
    <path d="M389.45688 1324.13665 L389.45688 1066.34013" />
    <path d="M381.17056 1066.34013 L381.17056 1324.13665" />
    <path d="M372.88425 1324.13665 L372.88425 1066.34013" />
    <path d="M364.59793 1078.05816 L364.59793 1324.13665" />
    <path d="M356.31161 1324.13665 L356.31161 1078.05816" />
    <path d="M348.0253 1078.05816 L348.0253 1324.13665" />
    <path d="M339.73898 1324.13665 L339.73898 1089.77618" />
    <path d="M331.45266 1089.77618 L331.45266 1312.41862" />
    <path d="M323.16635 1312.41862 L323.16635 1089.77618" />
    <path d="M314.88003 1101.4942 L314.88003 1312.41862" />
    <path d="M306.59371 1300.7006 L306.59371 1101.4942" />
    <path d="M298.3074 1113.21223 L298.3074 1300.7006" />
    <path d="M290.02108 1288.98258 L290.02108 1124.93025" />
    <path d="M281.73476 1124.93025 L281.73476 1288.98258" />
    <path d="M273.44845 1277.26455 L273.44845 1136.64827" />
    <path d="M265.16213 1148.3663 L265.16213 1277.26455" />
    <path d="M256.87581 1277.26455 L256.87581 1160.08432" />
    <path d="M248.5895 1160.08432 L248.5895 1277.26455" />
    <path d="M240.30318 1277.26455 L240.30318 1171.80234" />
    <path d="M232.01686 1171.80234 L232.01686 1288.98258" />
    <path d="M223.73055 1300.7006 L223.73055 1160.08432" />
    <path d="M215.44423 1160.08432 L215.44423 1312.41862" />
    <path d="M207.15791 1312.41862 L207.15791 1160.08432" />
    <path d="M198.8716 1148.3663 L198.8716 1324.13665" />
    <path d="M190.58528 1335.85467 L190.58528 1148.3663" />
    <path d="M182.29896 1136.64827 L182.29896 1335.85467" />
    <path d="M174.01265 1347.5727 L174.01265 1136.64827" />
    <path d="M165.72633 1136.64827 L165.72633 1347.5727" />
    <path d="M157.44001 1359.29072 L157.44001 1124.93025" />
    <path d="M149.1537 1124.93025 L149.1537 1359.29072" />
    <path d="M140.86738 1359.29072 L140.86738 1124.93025" />
    <path d="M132.58107 1124.93025 L132.58107 1359.29072" />
    <path d="M124.29475 1371.00874 L124.29475 1124.93025" />
    <path d="M116.00843 1113.21223 L116.00843 1371.00874" />
    <path d="M107.72212 1371.00874 L107.72212 1113.21223" />
    <path d="M99.4358 1113.21223 L99.4358 1371.00874" />
    <path d="M91.14948 1371.00874 L91.14948 1113.21223" />
    <path d="M82.86317 1124.93025 L82.86317 1371.00874" />
    <path d="M74.57685 1371.00874 L74.57685 1124.93025" />
    <path d="M66.29053 1124.93025 L66.29053 1371.00874" />
    <path d="M58.00422 1359.29072 L58.00422 1124.93025" />
    <path d="M49.7179 1124.93025 L49.7179 1359.29072" />
    <path d="M41.43158 1359.29072 L41.43158 1136.64827" />
    <path d="M33.14527 1136.64827 L33.14527 1359.29072" />
    <path d="M24.85895 1347.5727 L24.85895 1148.3663" />
    <path d="M439.17478 1324.13665 L439.17478 550.7471" />
    <path d="M447.46109 539.02908 L447.46109 1312.41862" />
    <path d="M455.74741 1312.41862 L455.74741 539.02908" />
    <path d="M464.03373 539.02908 L464.03373 1300.7006" />
    <path d="M472.32004 1300.7006 L472.32004 539.02908" />
    <path d="M480.60636 527.31105 L480.60636 1288.98258" />
    <path d="M488.89268 1288.98258 L488.89268 527.31105" />
    <path d="M497.17899 527.31105 L497.17899 1277.26455" />
    <path d="M505.46531 1265.54653 L505.46531 527.31105" />
    <path d="M513.75163 527.31105 L513.75163 1242.11048" />
    <path d="M522.03794 1218.67444 L522.03794 527.31105" />
    <path d="M530.32426 527.31105 L530.32426 1195.23839" />
    <path d="M538.61058 1171.80234 L538.61058 527.31105" />
    <path d="M546.89689 527.31105 L546.89689 1160.08432" />
    <path d="M555.18321 1148.3663 L555.18321 527.31105" />
    <path d="M563.46953 539.02908 L563.46953 1148.3663" />
    <path d="M571.75584 1148.3663 L571.75584 539.02908" />
    <path d="M580.04216 539.02908 L580.04216 1148.3663" />
    <path d="M588.32848 1148.3663 L588.32848 550.7471" />
    <path d="M596.61479 550.7471 L596.61479 1136.64827" />
    <path d="M604.90111 1136.64827 L604.90111 550.7471" />
    <path d="M613.18743 562.46512 L613.18743 1136.64827" />
    <path d="M621.47374 1136.64827 L621.47374 574.18315" />
    <path d="M629.76006 574.18315 L629.76006 1136.64827" />
    <path d="M638.04638 1136.64827 L638.04638 585.90117" />
    <path d="M646.33269 597.6192 L646.33269 1136.64827" />
    <path d="M654.61901 1124.93025 L654.61901 621.05524" />
    <path d="M662.90533 632.77327 L662.90533 1124.93025" />
    <path d="M671.19164 1124.93025 L671.19164 656.20931" />
    <path d="M679.47796 679.64536 L679.47796 1124.93025" />
    <path d="M720.90954 1101.4942 L720.90954 738.23548" />
    <path d="M712.62323 738.23548 L712.62323 1101.4942" />
    <path d="M737.48217 1101.4942 L737.48217 738.23548" />
    <path d="M745.76849 738.23548 L745.76849 1101.4942" />
    <path d="M762.34112 1089.77618 L762.34112 738.23548" />
    <path d="M770.62744 738.23548 L770.62744 1089.77618" />
    <path d="M778.91376 1089.77618 L778.91376 726.51745" />
    <path d="M787.20007 726.51745 L787.20007 1089.77618" />
    <path d="M795.48639 1089.77618 L795.48639 726.51745" />
    <path d="M803.77271 726.51745 L803.77271 1101.4942" />
    <path d="M812.05902 1101.4942 L812.05902 714.79943" />
    <path d="M820.34534 714.79943 L820.34534 1101.4942" />
    <path d="M828.63166 1101.4942 L828.63166 714.79943" />
    <path d="M836.91797 714.79943 L836.91797 1101.4942" />
    <path d="M845.20429 1101.4942 L845.20429 703.08141" />
    <path d="M853.49061 703.08141 L853.49061 1113.21223" />
    <path d="M861.77692 1113.21223 L861.77692 703.08141" />
    <path d="M870.06324 703.08141 L870.06324 1113.21223" />
    <path d="M878.34956 1113.21223 L878.34956 703.08141" />
    <path d="M886.63587 691.36338 L886.63587 1113.21223" />
    <path d="M894.92219 1113.21223 L894.92219 691.36338" />
    <path d="M903.20851 691.36338 L903.20851 1113.21223" />
    <path d="M911.49482 1113.21223 L911.49482 691.36338" />
    <path d="M919.78114 691.36338 L919.78114 1113.21223" />
    <path d="M928.06746 1113.21223 L928.06746 691.36338" />
    <path d="M936.35377 691.36338 L936.35377 1113.21223" />
    <path d="M944.64009 1113.21223 L944.64009 691.36338" />
    <path d="M952.92641 691.36338 L952.92641 1113.21223" />
    <path d="M961.21272 1113.21223 L961.21272 691.36338" />
    <path d="M969.49904 691.36338 L969.49904 1113.21223" />
    <path d="M977.78536 1113.21223 L977.78536 691.36338" />
    <path d="M986.07167 703.08141 L986.07167 1113.21223" />
    <path d="M994.35799 1101.4942 L994.35799 703.08141" />
    <path d="M1002.64431 703.08141 L1002.64431 1101.4942" />
    <path d="M1010.93062 1101.4942 L1010.93062 703.08141" />
    <path d="M1019.21694 703.08141 L1019.21694 1101.4942" />
    <path d="M1027.50326 1089.77618 L1027.50326 714.79943" />
    <path d="M754.05481 738.23548 L754.05481 1089.77618" />
    <path d="M944.64009 1371.00874 L944.64009 1467.14173" />
    <path d="M952.92641 1467.14173 L952.92641 1371.00874" />
    <path d="M961.21272 1371.00874 L961.21272 1467.14173" />
    <path d="M969.49904 1467.14173 L969.49904 1371.00874" />
    <path d="M977.78536 1371.00874 L977.78536 1467.14173" />
    <path d="M986.07167 1467.14173 L986.07167 1371.00874" />
    <path d="M994.35799 1371.00874 L994.35799 1467.14173" />
    <path d="M1002.64431 1467.14173 L1002.64431 1371.00874" />
    <path d="M1010.93062 1371.00874 L1010.93062 1467.14173" />
    <path d="M1019.21694 1467.14173 L1019.21694 1371.00874" />
    <path d="M1027.50326 1382.72677 L1027.50326 1467.14173" />
    <path d="M936.35377 1467.14173 L936.35377 1382.72677" />
    <path d="M928.06746 1382.72677 L928.06746 1467.14173" />
    <path d="M919.78114 1467.14173 L919.78114 1394.44479" />
    <path d="M911.49482 1394.44479 L911.49482 1467.14173" />
    <path d="M903.20851 1467.14173 L903.20851 1406.16281" />
    <path d="M894.92219 1417.88084 L894.92219 1467.14173" />
    <path d="M886.63587 1441.31688 L886.63587 1467.14173" />
    <path d="M729.19586 738.23548 L729.19586 1101.4942" />
    <path d="M704.33691 726.51745 L704.33691 1113.21223" />
    <path d="M696.05059 714.79943 L696.05059 1113.21223" />
    <path d="M687.76428 703.08141 L687.76428 1113.21223" />
    <path d="M356.31161 773.38955 L356.31161 574.18315" />
    <path d="M348.0253 562.46512 L348.0253 738.23548" />
    <path d="M240.30318 749.9535 L240.30318 796.82559" />
    <path d="M91.14948 585.90117 L91.14948 527.31105" />
    <path d="M737.48217 351.5407 L737.48217 269.51454" />
    <path d="M745.76849 246.07849 L745.76849 374.97675" />
    <path d="M754.05481 386.69477 L754.05481 234.36047" />
    <path d="M762.34112 222.64245 L762.34112 398.4128" />
    <path d="M770.62744 410.13082 L770.62744 210.92442" />
    <path d="M778.91376 199.2064 L778.91376 421.84884" />
    <path d="M787.20007 421.84884 L787.20007 199.2064" />
    <path d="M795.48639 187.48837 L795.48639 433.56687" />
    <path d="M803.77271 433.56687 L803.77271 187.48837" />
    <path d="M812.05902 175.77035 L812.05902 433.56687" />
    <path d="M820.34534 445.28489 L820.34534 175.77035" />
    <path d="M828.63166 175.77035 L828.63166 445.28489" />
    <path d="M836.91797 445.28489 L836.91797 164.05233" />
    <path d="M845.20429 164.05233 L845.20429 445.28489" />
    <path d="M853.49061 445.28489 L853.49061 164.05233" />
    <path d="M861.77692 164.05233 L861.77692 445.28489" />
    <path d="M870.06324 445.28489 L870.06324 164.05233" />
    <path d="M878.34956 164.05233 L878.34956 445.28489" />
    <path d="M886.63587 445.28489 L886.63587 164.05233" />
    <path d="M894.92219 164.05233 L894.92219 445.28489" />
    <path d="M903.20851 445.28489 L903.20851 164.05233" />
    <path d="M911.49482 164.05233 L911.49482 445.28489" />
    <path d="M919.78114 433.56687 L919.78114 164.05233" />
    <path d="M928.06746 175.77035 L928.06746 433.56687" />
    <path d="M944.64009 421.84884 L944.64009 175.77035" />
    <path d="M936.35377 175.77035 L936.35377 433.56687" />
    <path d="M961.21272 410.13082 L961.21272 187.48837" />
    <path d="M952.92641 187.48837 L952.92641 421.84884" />
    <path d="M1002.64431 257.79652 L1002.64431 339.82268" />
    <path d="M994.35799 234.36047 L994.35799 363.25873" />
    <path d="M986.07167 222.64245 L986.07167 374.97675" />
    <path d="M977.78536 210.92442 L977.78536 398.4128" />
    <path d="M969.49904 199.2064 L969.49904 398.4128" />
    <path d="M994.35799 117.18023 L994.35799 21.04724" />
    <path d="M986.07167 21.04724 L986.07167 105.46221" />
    <path d="M977.78536 105.46221 L977.78536 21.04724" />
    <path d="M969.49904 21.04724 L969.49904 105.46221" />
    <path d="M961.21272 105.46221 L961.21272 21.04724" />
    <path d="M952.92641 21.04724 L952.92641 93.74419" />
    <path d="M944.64009 93.74419 L944.64009 21.04724" />
    <path d="M936.35377 21.04724 L936.35377 82.02616" />
    <path d="M928.06746 58.59012 L928.06746 21.04724" />
    <path d="M1002.64431 21.04724 L1002.64431 105.46221" />
    <path d="M1010.93062 105.46221 L1010.93062 21.04724" />
    <path d="M1019.21694 21.04724 L1019.21694 105.46221" />
    <path d="M1027.50326 105.46221 L1027.50326 21.04724" />
  </g>
</svg>