<?xml version="1.0" standalone="no"?>
<!DOCTYPE svg PUBLIC "-//W3C//DTD SVG 1.1//EN" 
    "http://www.w3.org/Graphics/SVG/1.1/DTD/svg11.dtd">
<svg width="29.7cm" height="42cm"
    xmlns="http://www.w3.org/2000/svg" version="1.1" viewBox="0 0 1052.3622 1488.18898">
  <g fill="none" stroke="black" stroke-width="0.1cm" stroke-linejoin="round" stroke-linecap="round">
    <path d="M323.02811 552.01442 L319.0912 557.82143" />
    <path d="M336.86428 557.77731 L340.92833 552.05854" />
    <path d="M354.63746 557.73112 L358.82844 552.10472" />
    <path d="M372.41159 557.68345 L376.72761 552.15239" />
    <path d="M390.18769 557.63513 L394.6248 552.20072" />
    <path d="M407.96697 557.58726 L412.51882 552.24859" />
    <path d="M425.75073 557.54124 L430.40835 552.2946" />
    <path d="M443.54037 557.49875 L448.29201 552.3371" />
    <path d="M461.33729 557.4616 L466.16839 552.37425" />
    <path d="M479.14279 557.43166 L484.03617 552.40418" />
    <path d="M496.958 557.41062 L501.89426 552.42523" />
    <path d="M514.78371 557.39974 L519.74184 552.43611" />
    <path d="M532.62036 557.39974 L537.57849 552.43611" />
    <path d="M550.46794 557.41062 L555.4042 552.42523" />
    <path d="M568.32603 557.43166 L573.21941 552.40418" />
    <path d="M586.19382 557.4616 L591.02492 552.37425" />
    <path d="M604.07019 557.49875 L608.82184 552.3371" />
    <path d="M621.95385 557.54124 L626.61148 552.2946" />
    <path d="M639.84339 557.58726 L644.39524 552.24859" />
    <path d="M657.73741 557.63513 L662.17451 552.20072" />
    <path d="M675.63459 557.68345 L679.95062 552.15239" />
    <path d="M693.53376 557.73112 L697.72475 552.10472" />
    <path d="M711.43388 557.77731 L715.49792 552.05854" />
    <path d="M729.33409 557.82143 L733.27101 552.01442" />
    <path d="M733.16035 577.16594 L729.44475 583.11699" />
    <path d="M715.3955 577.21199 L711.5363 583.07094" />
    <path d="M697.6319 577.26144 L693.6266 583.02149" />
    <path d="M679.86863 577.31387 L675.71658 582.96906" />
    <path d="M662.10445 577.36853 L657.80746 582.9144" />
    <path d="M644.33786 577.42426 L639.90076 582.85867" />
    <path d="M626.56705 577.47937 L621.99828 582.80356" />
    <path d="M608.78999 577.53168 L604.10205 582.75125" />
    <path d="M591.00451 577.57856 L586.21422 582.70437" />
    <path d="M573.20853 577.61718 L568.33692 582.66575" />
    <path d="M555.40016 577.64478 L550.47198 582.63815" />
    <path d="M537.57803 577.65919 L532.62082 582.62374" />
    <path d="M519.74139 577.65919 L514.78417 582.62374" />
    <path d="M501.89022 577.64478 L496.96204 582.63815" />
    <path d="M484.02529 577.61718 L479.15368 582.66575" />
    <path d="M466.14798 577.57856 L461.35769 582.70437" />
    <path d="M448.26016 577.53168 L443.57222 582.75125" />
    <path d="M430.36393 577.47937 L425.79515 582.80356" />
    <path d="M412.46145 577.42426 L408.02434 582.85867" />
    <path d="M394.55474 577.36853 L390.25775 582.9144" />
    <path d="M376.64562 577.31387 L372.49358 582.96906" />
    <path d="M358.7356 577.26144 L354.7303 583.02149" />
    <path d="M340.8259 577.21199 L336.9667 583.07094" />
    <path d="M322.91746 577.16594 L319.20186 583.11699" />
    <path d="M322.77415 602.30466 L319.34516 608.42535" />
    <path d="M337.10211 608.37931 L340.6905 602.3507" />
    <path d="M354.85574 608.32832 L358.61017 602.40169" />
    <path d="M372.6069 608.27241 L376.5323 602.4576" />
    <path d="M390.35687 608.21198 L394.45562 602.51804" />
    <path d="M408.10744 608.148 L412.37834 602.58202" />
    <path d="M425.86099 608.08221 L430.29809 602.6478" />
    <path d="M443.62044 608.01731 L448.21194 602.7127" />
    <path d="M461.38917 607.95697 L466.1165 602.77305" />
    <path d="M479.17073 607.90564 L484.00824 602.82438" />
    <path d="M496.96844 607.86799 L501.88383 602.86203" />
    <path d="M514.7849 607.848 L519.74066 602.88201" />
    <path d="M532.62154 607.848 L537.57731 602.88201" />
    <path d="M550.47838 607.86799 L555.39377 602.86203" />
    <path d="M568.35397 607.90564 L573.19148 602.82438" />
    <path d="M586.2457 607.95697 L590.97303 602.77305" />
    <path d="M604.15027 608.01731 L608.74176 602.7127" />
    <path d="M622.06411 608.08221 L626.50122 602.6478" />
    <path d="M639.98386 608.148 L644.25476 602.58202" />
    <path d="M657.90658 608.21198 L662.00533 602.51804" />
    <path d="M675.82991 608.27241 L679.75531 602.4576" />
    <path d="M693.75204 608.32832 L697.50647 602.40169" />
    <path d="M711.6717 608.37931 L715.2601 602.3507" />
    <path d="M729.58806 608.42535 L733.01704 602.30466" />
    <path d="M732.83122 627.43128 L729.77388 633.74582" />
    <path d="M715.0801 627.47414 L711.8517 633.70296" />
    <path d="M697.33512 627.52339 L693.92339 633.65371" />
    <path d="M679.59588 627.57966 L675.98934 633.59744" />
    <path d="M661.86145 627.64333 L658.05047 633.53376" />
    <path d="M644.13012 627.71421 L640.1085 633.46289" />
    <path d="M626.39915 627.79111 L622.16618 633.38599" />
    <path d="M608.66457 627.87134 L604.22746 633.30576" />
    <path d="M590.92114 627.9502 L586.2976 633.2269" />
    <path d="M573.16266 628.0208 L568.38278 633.1563" />
    <path d="M555.38276 628.07481 L550.48938 633.10229" />
    <path d="M537.57605 628.10429 L532.6228 633.0728" />
    <path d="M519.7394 628.10429 L514.78616 633.0728" />
    <path d="M501.87282 628.07481 L496.97944 633.10229" />
    <path d="M483.97942 628.0208 L479.19954 633.1563" />
    <path d="M466.0646 627.9502 L461.44107 633.2269" />
    <path d="M448.13474 627.87134 L443.69764 633.30576" />
    <path d="M430.19603 627.79111 L425.96305 633.38599" />
    <path d="M412.2537 627.71421 L408.23209 633.46289" />
    <path d="M394.31173 627.64333 L390.50076 633.53376" />
    <path d="M376.37287 627.57966 L372.76633 633.59744" />
    <path d="M358.43882 627.52339 L355.02709 633.65371" />
    <path d="M340.51051 627.47414 L337.2821 633.70296" />
    <path d="M322.58832 627.43128 L319.53099 633.74582" />
    <path d="M322.34931 652.54989 L319.77001 659.0743" />
    <path d="M337.52045 659.03889 L340.27216 652.5853" />
    <path d="M355.2616 658.99648 L358.2043 652.6277" />
    <path d="M372.99281 658.94561 L376.14639 652.67858" />
    <path d="M390.71384 658.8847 L394.09865 652.73948" />
    <path d="M408.42528 658.81234 L412.0605 652.81184" />
    <path d="M426.12916 658.72777 L430.02992 652.89641" />
    <path d="M443.82973 658.63199 L448.00265 652.99219" />
    <path d="M461.53428 658.5293 L465.97139 653.09489" />
    <path d="M479.25356 658.42908 L483.92541 653.1951" />
    <path d="M497.00075 658.3464 L501.85151 653.27778" />
    <path d="M514.78864 658.29882 L519.73692 653.32536" />
    <path d="M532.62529 658.29882 L537.57356 653.32536" />
    <path d="M550.5107 658.3464 L555.36145 653.27778" />
    <path d="M568.4368 658.42908 L573.10864 653.1951" />
    <path d="M586.39082 658.5293 L590.82792 653.09489" />
    <path d="M604.35955 658.63199 L608.53248 652.99219" />
    <path d="M622.33229 658.72777 L626.23304 652.89641" />
    <path d="M640.3017 658.81234 L643.93692 652.81184" />
    <path d="M658.26355 658.8847 L661.64836 652.73948" />
    <path d="M676.21582 658.94561 L679.36939 652.67858" />
    <path d="M694.15791 658.99648 L697.1006 652.6277" />
    <path d="M712.09005 659.03889 L714.84175 652.5853" />
    <path d="M730.0129 659.0743 L732.5922 652.54989" />
    <path d="M732.29152 677.67006 L730.31357 684.40121" />
    <path d="M714.53228 677.69378 L712.39952 684.37749" />
    <path d="M696.78446 677.72343 L694.47404 684.34783" />
    <path d="M679.05019 677.76093 L676.53502 684.31033" />
    <path d="M661.33181 677.80884 L658.58011 684.26243" />
    <path d="M643.63161 677.87049 L640.60701 684.20077" />
    <path d="M625.95114 677.94996 L622.61418 684.1213" />
    <path d="M608.28967 678.05132 L604.60236 684.01994" />
    <path d="M590.64139 678.17625 L586.57735 683.89501" />
    <path d="M572.99127 678.31843 L568.55417 683.75284" />
    <path d="M555.3119 678.45481 L550.56025 683.61646" />
    <path d="M537.56756 678.54294 L532.6313 683.52833" />
    <path d="M519.73091 678.54294 L514.79465 683.52833" />
    <path d="M501.80195 678.45481 L497.05031 683.61646" />
    <path d="M483.80804 678.31843 L479.37093 683.75284" />
    <path d="M465.78486 678.17625 L461.72081 683.89501" />
    <path d="M447.75984 678.05132 L444.07253 684.01994" />
    <path d="M429.74802 677.94996 L426.41106 684.1213" />
    <path d="M411.7552 677.87049 L408.73059 684.20077" />
    <path d="M393.7821 677.80884 L391.03039 684.26243" />
    <path d="M375.82718 677.76093 L373.31201 684.31033" />
    <path d="M357.88816 677.72343 L355.57774 684.34783" />
    <path d="M339.96268 677.69378 L337.82992 684.37749" />
    <path d="M322.04863 677.67006 L320.07068 684.40121" />
    <path d="M321.68574 702.80763 L320.43357 709.71072" />
    <path d="M338.21491 709.70023 L339.5777 702.81812" />
    <path d="M355.98605 709.68661 L357.47985 702.83174" />
    <path d="M373.74409 709.66853 L375.3951 702.84982" />
    <path d="M391.48507 709.64394 L393.32742 702.87441" />
    <path d="M409.20349 709.60952 L411.2823 702.90883" />
    <path d="M426.89182 709.55986 L429.26726 702.95849" />
    <path d="M444.54034 709.48597 L447.29204 703.03238" />
    <path d="M462.13863 709.37358 L465.36704 703.14477" />
    <path d="M479.684 709.20439 L483.49497 703.31396" />
    <path d="M497.20758 708.97638 L501.64468 703.54197" />
    <path d="M514.81609 708.77292 L519.70947 703.74543" />
    <path d="M532.65274 708.77292 L537.54612 703.74543" />
    <path d="M550.71752 708.97638 L555.15463 703.54197" />
    <path d="M568.86723 709.20439 L572.67821 703.31396" />
    <path d="M586.99517 709.37358 L590.22357 703.14477" />
    <path d="M605.07016 709.48597 L607.82187 703.03238" />
    <path d="M623.09495 709.55986 L625.47038 702.95849" />
    <path d="M641.07991 709.60952 L643.15872 702.90883" />
    <path d="M659.03479 709.64394 L660.87713 702.87441" />
    <path d="M676.9671 709.66853 L678.61811 702.84982" />
    <path d="M694.88235 709.68661 L696.37616 702.83174" />
    <path d="M714.1473 702.81812 L712.7845 709.70023" />
    <path d="M730.67646 709.71072 L731.92864 702.80763" />
    <path d="M731.51742 727.98143 L731.08768 734.984" />
    <path d="M731.08768 753.20497 L731.51742 760.20755" />
    <path d="M730.67646 778.47825 L731.92864 785.38135" />
    <path d="M730.31357 803.78777 L732.29152 810.51892" />
    <path d="M730.0129 829.11468 L732.5922 835.63909" />
    <path d="M729.77388 854.44316 L732.83122 860.7577" />
    <path d="M729.58806 879.76363 L733.01704 885.88431" />
    <path d="M729.44475 905.07198 L733.16035 911.02304" />
    <path d="M729.33409 930.36755 L733.27101 936.17456" />
    <path d="M711.43388 930.41167 L715.49792 936.13043" />
    <path d="M693.53376 930.45785 L697.72475 936.08425" />
    <path d="M675.63459 930.50552 L679.95062 936.03658" />
    <path d="M657.73741 930.55385 L662.17451 935.98826" />
    <path d="M639.84339 930.60172 L644.39524 935.94039" />
    <path d="M621.95385 930.64773 L626.61148 935.89437" />
    <path d="M604.07019 930.69023 L608.82184 935.85188" />
    <path d="M586.19382 930.72737 L591.02492 935.81473" />
    <path d="M568.32603 930.75731 L573.21941 935.78479" />
    <path d="M550.46794 930.77836 L555.4042 935.76374" />
    <path d="M532.62036 930.78924 L537.57849 935.75287" />
    <path d="M514.78371 930.78924 L519.74184 935.75287" />
    <path d="M496.958 930.77836 L501.89426 935.76374" />
    <path d="M479.14279 930.75731 L484.03617 935.78479" />
    <path d="M461.33729 930.72737 L466.16839 935.81473" />
    <path d="M443.54037 930.69023 L448.29201 935.85188" />
    <path d="M425.75073 930.64773 L430.40835 935.89437" />
    <path d="M407.96697 930.60172 L412.51882 935.94039" />
    <path d="M390.18769 930.55385 L394.6248 935.98826" />
    <path d="M372.41159 930.50552 L376.72761 936.03658" />
    <path d="M354.63746 930.45785 L358.82844 936.08425" />
    <path d="M336.86428 930.41167 L340.92833 936.13043" />
    <path d="M319.0912 930.36755 L323.02811 936.17456" />
    <path d="M340.8259 910.97699 L336.9667 905.11804" />
    <path d="M354.7303 905.16748 L358.7356 910.92754" />
    <path d="M372.49358 905.21991 L376.64562 910.87511" />
    <path d="M390.25775 905.27458 L394.55474 910.82044" />
    <path d="M408.02434 905.3303 L412.46145 910.76472" />
    <path d="M425.79515 905.38542 L430.36393 910.70961" />
    <path d="M443.57222 905.43772 L448.26016 910.6573" />
    <path d="M461.35769 905.48461 L466.14798 910.61041" />
    <path d="M479.15368 905.52322 L484.02529 910.5718" />
    <path d="M496.96204 905.55083 L501.89022 910.5442" />
    <path d="M514.78417 905.56524 L519.74139 910.52978" />
    <path d="M532.62082 905.56524 L537.57803 910.52978" />
    <path d="M550.47198 905.55083 L555.40016 910.5442" />
    <path d="M568.33692 905.52322 L573.20853 910.5718" />
    <path d="M586.21422 905.48461 L591.00451 910.61041" />
    <path d="M604.10205 905.43772 L608.78999 910.6573" />
    <path d="M621.99828 905.38542 L626.56705 910.70961" />
    <path d="M639.90076 905.3303 L644.33786 910.76472" />
    <path d="M657.80746 905.27458 L662.10445 910.82044" />
    <path d="M675.71658 905.21991 L679.86863 910.87511" />
    <path d="M693.6266 905.16748 L697.6319 910.92754" />
    <path d="M711.5363 905.11804 L715.3955 910.97699" />
    <path d="M711.6717 879.80966 L715.2601 885.83827" />
    <path d="M693.75204 879.86065 L697.50647 885.78729" />
    <path d="M675.82991 879.91657 L679.75531 885.73137" />
    <path d="M657.90658 879.977 L662.00533 885.67094" />
    <path d="M639.98386 880.04098 L644.25476 885.60696" />
    <path d="M622.06411 880.10676 L626.50122 885.54118" />
    <path d="M604.15027 880.17166 L608.74176 885.47627" />
    <path d="M586.2457 880.23201 L590.97303 885.41593" />
    <path d="M568.35397 880.28334 L573.19148 885.3646" />
    <path d="M550.47838 880.32099 L555.39377 885.32695" />
    <path d="M532.62154 880.34097 L537.57731 885.30697" />
    <path d="M514.7849 880.34097 L519.74066 885.30697" />
    <path d="M496.96844 880.32099 L501.88383 885.32695" />
    <path d="M479.17073 880.28334 L484.00824 885.3646" />
    <path d="M461.38917 880.23201 L466.1165 885.41593" />
    <path d="M443.62044 880.17166 L448.21194 885.47627" />
    <path d="M425.86099 880.10676 L430.29809 885.54118" />
    <path d="M408.10744 880.04098 L412.37834 885.60696" />
    <path d="M390.35687 879.977 L394.45562 885.67094" />
    <path d="M372.6069 879.91657 L376.5323 885.73137" />
    <path d="M354.85574 879.86065 L358.61017 885.78729" />
    <path d="M337.10211 879.80966 L340.6905 885.83827" />
    <path d="M319.34516 879.76363 L322.77415 885.88431" />
    <path d="M319.20186 905.07198 L322.91746 911.02304" />
    <path d="M340.51051 860.71483 L337.2821 854.48602" />
    <path d="M355.02709 854.53527 L358.43882 860.66559" />
    <path d="M372.76633 854.59154 L376.37287 860.60931" />
    <path d="M390.50076 854.65521 L394.31173 860.54564" />
    <path d="M408.23209 854.72609 L412.2537 860.47477" />
    <path d="M425.96305 854.80299 L430.19603 860.39787" />
    <path d="M443.69764 854.88322 L448.13474 860.31763" />
    <path d="M461.44107 854.96207 L466.0646 860.23878" />
    <path d="M479.19954 855.03267 L483.97942 860.16818" />
    <path d="M496.97944 855.08669 L501.87282 860.11417" />
    <path d="M514.78616 855.11617 L519.7394 860.08468" />
    <path d="M532.6228 855.11617 L537.57605 860.08468" />
    <path d="M550.48938 855.08669 L555.38276 860.11417" />
    <path d="M568.38278 855.03267 L573.16266 860.16818" />
    <path d="M586.2976 854.96207 L590.92114 860.23878" />
    <path d="M604.22746 854.88322 L608.66457 860.31763" />
    <path d="M622.16618 854.80299 L626.39915 860.39787" />
    <path d="M640.1085 854.72609 L644.13012 860.47477" />
    <path d="M658.05047 854.65521 L661.86145 860.54564" />
    <path d="M675.98934 854.59154 L679.59588 860.60931" />
    <path d="M693.92339 854.53527 L697.33512 860.66559" />
    <path d="M711.8517 854.48602 L715.0801 860.71483" />
    <path d="M712.09005 829.15009 L714.84175 835.60368" />
    <path d="M694.15791 829.1925 L697.1006 835.56127" />
    <path d="M676.21582 829.24337 L679.36939 835.5104" />
    <path d="M658.26355 829.30427 L661.64836 835.4495" />
    <path d="M640.3017 829.37664 L643.93692 835.37713" />
    <path d="M622.33229 829.4612 L626.23304 835.29257" />
    <path d="M604.35955 829.55698 L608.53248 835.19679" />
    <path d="M586.39082 829.65968 L590.82792 835.09409" />
    <path d="M568.4368 829.75989 L573.10864 834.99388" />
    <path d="M550.5107 829.84257 L555.36145 834.9112" />
    <path d="M532.62529 829.89016 L537.57356 834.86361" />
    <path d="M514.78864 829.89016 L519.73692 834.86361" />
    <path d="M497.00075 829.84257 L501.85151 834.9112" />
    <path d="M479.25356 829.75989 L483.92541 834.99388" />
    <path d="M461.53428 829.65968 L465.97139 835.09409" />
    <path d="M443.82973 829.55698 L448.00265 835.19679" />
    <path d="M426.12916 829.4612 L430.02992 835.29257" />
    <path d="M408.42528 829.37664 L412.0605 835.37713" />
    <path d="M390.71384 829.30427 L394.09865 835.4495" />
    <path d="M372.99281 829.24337 L376.14639 835.5104" />
    <path d="M355.2616 829.1925 L358.2043 835.56127" />
    <path d="M337.52045 829.15009 L340.27216 835.60368" />
    <path d="M319.77001 829.11468 L322.34931 835.63909" />
    <path d="M319.53099 854.44316 L322.58832 860.7577" />
    <path d="M339.96268 810.4952 L337.82992 803.81149" />
    <path d="M355.57774 803.84114 L357.88816 810.46554" />
    <path d="M373.31201 803.87864 L375.82718 810.42804" />
    <path d="M391.03039 803.92655 L393.7821 810.38014" />
    <path d="M408.73059 803.9882 L411.7552 810.31848" />
    <path d="M426.41106 804.06767 L429.74802 810.23901" />
    <path d="M444.07253 804.16903 L447.75984 810.13765" />
    <path d="M461.72081 804.29396 L465.78486 810.01272" />
    <path d="M479.37093 804.43614 L483.80804 809.87055" />
    <path d="M497.05031 804.57252 L501.80195 809.73417" />
    <path d="M514.79465 804.66065 L519.73091 809.64604" />
    <path d="M532.6313 804.66065 L537.56756 809.64604" />
    <path d="M550.56025 804.57252 L555.3119 809.73417" />
    <path d="M568.55417 804.43614 L572.99127 809.87055" />
    <path d="M586.57735 804.29396 L590.64139 810.01272" />
    <path d="M604.60236 804.16903 L608.28967 810.13765" />
    <path d="M622.61418 804.06767 L625.95114 810.23901" />
    <path d="M640.60701 803.9882 L643.63161 810.31848" />
    <path d="M658.58011 803.92655 L661.33181 810.38014" />
    <path d="M676.53502 803.87864 L679.05019 810.42804" />
    <path d="M694.47404 803.84114 L696.78446 810.46554" />
    <path d="M712.39952 803.81149 L714.53228 810.4952" />
    <path d="M712.7845 778.48874 L714.1473 785.37086" />
    <path d="M694.88235 778.50237 L696.37616 785.35724" />
    <path d="M676.9671 778.52044 L678.61811 785.33916" />
    <path d="M659.03479 778.54504 L660.87713 785.31456" />
    <path d="M641.07991 778.57946 L643.15872 785.28015" />
    <path d="M623.09495 778.62912 L625.47038 785.23048" />
    <path d="M605.07016 778.70301 L607.82187 785.1566" />
    <path d="M586.99517 778.81539 L590.22357 785.04421" />
    <path d="M568.86723 778.98459 L572.67821 784.87502" />
    <path d="M550.71752 779.2126 L555.15463 784.64701" />
    <path d="M532.65274 779.41606 L537.54612 784.44354" />
    <path d="M514.81609 779.41606 L519.70947 784.44354" />
    <path d="M497.20758 779.2126 L501.64468 784.64701" />
    <path d="M479.684 778.98459 L483.49497 784.87502" />
    <path d="M462.13863 778.81539 L465.36704 785.04421" />
    <path d="M444.54034 778.70301 L447.29204 785.1566" />
    <path d="M426.89182 778.62912 L429.26726 785.23048" />
    <path d="M409.20349 778.57946 L411.2823 785.28015" />
    <path d="M391.48507 778.54504 L393.32742 785.31456" />
    <path d="M373.74409 778.52044 L375.3951 785.33916" />
    <path d="M355.98605 778.50237 L357.47985 785.35724" />
    <path d="M338.21491 778.48874 L339.5777 785.37086" />
    <path d="M320.43357 778.47825 L321.68574 785.38135" />
    <path d="M320.07068 803.78777 L322.04863 810.51892" />
    <path d="M339.13146 760.20624 L338.66115 753.20628" />
    <path d="M356.4733 753.20801 L356.9926 760.20451" />
    <path d="M374.27979 753.21038 L374.8594 760.20214" />
    <path d="M392.07844 753.21374 L392.73405 760.19878" />
    <path d="M409.86574 753.21872 L410.62004 760.1938" />
    <path d="M427.63585 753.22656 L428.52323 760.18596" />
    <path d="M445.37813 753.2399 L446.45425 760.17262" />
    <path d="M463.07144 753.2652 L464.43423 760.14732" />
    <path d="M480.66831 753.3215 L482.51066 760.09102" />
    <path d="M498.05028 753.47946 L500.80198 759.93305" />
    <path d="M515.04423 753.98905 L519.48133 759.42347" />
    <path d="M532.88087 753.98905 L537.31798 759.42347" />
    <path d="M551.56022 753.47946 L554.31193 759.93305" />
    <path d="M569.85155 753.3215 L571.69389 760.09102" />
    <path d="M587.92797 753.2652 L589.29077 760.14732" />
    <path d="M605.90796 753.2399 L606.98407 760.17262" />
    <path d="M623.83897 753.22656 L624.72636 760.18596" />
    <path d="M641.74216 753.21872 L642.49646 760.1938" />
    <path d="M659.62815 753.21374 L660.28377 760.19878" />
    <path d="M677.5028 753.21038 L678.08241 760.20214" />
    <path d="M695.3696 753.20801 L695.88891 760.20451" />
    <path d="M713.23074 753.20628 L713.70106 760.20624" />
    <path d="M713.70106 727.98273 L713.23074 734.9827" />
    <path d="M695.88891 727.98447 L695.3696 734.98097" />
    <path d="M678.08241 727.98683 L677.5028 734.9786" />
    <path d="M660.28377 727.99019 L659.62815 734.97524" />
    <path d="M642.49646 727.99518 L641.74216 734.97026" />
    <path d="M624.72636 728.00302 L623.83897 734.96242" />
    <path d="M606.98407 728.01635 L605.90796 734.94908" />
    <path d="M589.29077 728.04166 L587.92797 734.92377" />
    <path d="M571.69389 728.09795 L569.85155 734.86748" />
    <path d="M554.31193 728.25592 L551.56022 734.70951" />
    <path d="M537.31798 728.76551 L532.88087 734.19992" />
    <path d="M519.48133 728.76551 L515.04423 734.19992" />
    <path d="M500.80198 728.25592 L498.05028 734.70951" />
    <path d="M482.51066 728.09795 L480.66831 734.86748" />
    <path d="M464.43423 728.04166 L463.07144 734.92377" />
    <path d="M446.45425 728.01635 L445.37813 734.94908" />
    <path d="M428.52323 728.00302 L427.63585 734.96242" />
    <path d="M410.62004 727.99518 L409.86574 734.97026" />
    <path d="M392.73405 727.99019 L392.07844 734.97524" />
    <path d="M374.8594 727.98683 L374.27979 734.9786" />
    <path d="M356.9926 727.98447 L356.4733 734.98097" />
    <path d="M339.13146 727.98273 L338.66115 734.9827" />
    <path d="M320.84479 734.984 L321.27452 727.98143" />
    <path d="M320.84479 753.20497 L321.27452 760.20755" />
  </g>
</svg>