<?xml version="1.0" standalone="no"?>
<!DOCTYPE svg PUBLIC "-//W3C//DTD SVG 1.1//EN" 
    "http://www.w3.org/Graphics/SVG/1.1/DTD/svg11.dtd">
<svg width="29.7cm" height="42cm"
    xmlns="http://www.w3.org/2000/svg" version="1.1" viewBox="0 0 1052.3622 1488.18898">
  <g fill="none" stroke="black" stroke-width="0.1cm" stroke-linejoin="round" stroke-linecap="round">
    <path d="M318.03258 553.14536 L324.08673 556.69049" />
    <path d="M336.46157 552.3926 L341.33104 557.44324" />
    <path d="M354.52172 552.19476 L358.94418 557.64109" />
    <path d="M372.23364 552.30097 L376.90556 557.53488" />
    <path d="M389.5745 552.84756 L395.23799 556.98829" />
    <path d="M406.77939 554.36177 L413.7064 555.47408" />
    <path d="M424.88041 556.35694 L431.27867 553.47891" />
    <path d="M443.37121 557.33211 L448.46116 552.50374" />
    <path d="M461.52041 557.62375 L465.98526 552.2121" />
    <path d="M479.31574 557.58912 L483.86323 552.24673" />
    <path d="M496.74817 557.18369 L502.10409 552.65215" />
    <path d="M513.9098 555.94881 L520.61576 553.88704" />
    <path d="M531.74645 553.88704 L538.4524 555.94881" />
    <path d="M550.25811 552.65215 L555.61403 557.18369" />
    <path d="M568.49898 552.24673 L573.04646 557.58912" />
    <path d="M586.37695 552.2121 L590.84179 557.62375" />
    <path d="M603.90104 552.50374 L608.99099 557.33211" />
    <path d="M621.08354 553.47891 L627.48179 556.35694" />
    <path d="M638.65581 555.47408 L645.58282 554.36177" />
    <path d="M657.12422 556.98829 L662.7877 552.84756" />
    <path d="M675.45665 557.53488 L680.12857 552.30097" />
    <path d="M693.41802 557.64109 L697.84049 552.19476" />
    <path d="M711.03117 557.44324 L715.90064 552.3926" />
    <path d="M728.27547 556.69049 L734.32962 553.14536" />
    <path d="M728.13527 581.64928 L734.46983 578.63365" />
    <path d="M710.78418 582.40278 L716.14763 577.88015" />
    <path d="M693.1503 582.6234 L698.10821 577.65953" />
    <path d="M675.19917 582.50351 L680.38604 577.77942" />
    <path d="M656.94055 581.93381 L662.97137 578.34912" />
    <path d="M638.64095 580.59555 L645.59767 579.68738" />
    <path d="M620.98817 578.9367 L627.57716 581.34624" />
    <path d="M621.17226 603.74311 L627.39307 606.98691" />
    <path d="M638.67068 606.00696 L645.56795 604.72306" />
    <path d="M657.27994 607.63307 L662.63197 603.09694" />
    <path d="M675.65246 608.14439 L679.93275 602.58563" />
    <path d="M693.61672 608.23814 L697.64179 602.49187" />
    <path d="M711.22283 608.06201 L715.70897 602.66801" />
    <path d="M728.4002 607.33517 L734.2049 603.39484" />
    <path d="M730.84965 634.06706 L731.75545 627.11004" />
    <path d="M713.20874 634.08698 L713.72306 627.09011" />
    <path d="M695.4125 634.08972 L695.84601 627.08738" />
    <path d="M677.55443 634.08833 L678.03078 627.08877" />
    <path d="M659.59213 634.0775 L660.31978 627.09959" />
    <path d="M640.61475 633.75738 L643.62387 627.41972" />
    <path d="M623.69646 627.13 L624.86887 634.0471" />
    <path d="M606.16499 627.09195 L606.72704 634.08515" />
    <path d="M608.61657 653.05639 L604.27546 658.56779" />
    <path d="M590.45016 652.82601 L586.76858 658.79817" />
    <path d="M572.65526 652.85216 L568.89018 658.77203" />
    <path d="M555.25808 653.18274 L550.61407 658.44144" />
    <path d="M538.3434 654.47725 L531.85545 657.14693" />
    <path d="M520.50675 657.14693 L514.0188 654.47725" />
    <path d="M501.74814 658.44144 L497.10413 653.18274" />
    <path d="M483.47203 658.77203 L479.70694 652.85216" />
    <path d="M465.59363 658.79817 L461.91204 652.82601" />
    <path d="M448.08675 658.56779 L443.74563 653.05639" />
    <path d="M431.08484 657.62133 L425.07424 654.00286" />
    <path d="M413.67246 655.07505 L406.81332 656.54914" />
    <path d="M394.91348 653.35873 L389.89902 658.26545" />
    <path d="M376.516 652.89375 L372.6232 658.73043" />
    <path d="M358.55253 652.81304 L354.91337 658.81114" />
    <path d="M340.94668 652.96584 L336.84592 658.65834" />
    <path d="M323.82065 653.64828 L318.29866 657.9759" />
    <path d="M324.21607 679.50519 L317.90324 682.56607" />
    <path d="M324.14446 704.58911 L317.97485 707.92925" />
    <path d="M323.1365 728.65572 L318.98281 734.30971" />
    <path d="M318.98281 753.87926 L323.1365 759.53326" />
    <path d="M337.5524 753.46603 L340.24021 759.94649" />
    <path d="M355.57614 753.39462 L357.88976 760.0179" />
    <path d="M373.31211 753.43152 L375.82708 759.981" />
    <path d="M390.62734 753.6829 L394.18515 759.72961" />
    <path d="M406.9565 755.47955 L413.52928 757.93297" />
    <path d="M425.65503 759.24139 L430.50406 754.17113" />
    <path d="M444.46741 759.90098 L447.36497 753.51154" />
    <path d="M462.57952 760.01209 L464.92615 753.40043" />
    <path d="M480.3833 760.00024 L482.79567 753.41228" />
    <path d="M497.83627 759.83316 L501.01599 753.57936" />
    <path d="M514.40886 758.74594 L520.1167 754.66657" />
    <path d="M532.2455 754.66657 L537.95335 758.74594" />
    <path d="M551.34621 753.57936 L554.52594 759.83316" />
    <path d="M569.56654 753.41228 L571.97891 760.00024" />
    <path d="M587.43605 753.40043 L589.78268 760.01209" />
    <path d="M604.99724 753.51154 L607.8948 759.90098" />
    <path d="M621.85815 754.17113 L626.70718 759.24139" />
    <path d="M638.83292 757.93297 L645.4057 755.47955" />
    <path d="M658.17705 759.72961 L661.73486 753.6829" />
    <path d="M676.53512 759.981 L679.05009 753.43152" />
    <path d="M694.47245 760.0179 L696.78606 753.39462" />
    <path d="M712.122 759.94649 L714.80981 753.46603" />
    <path d="M729.22571 759.53326 L733.37939 753.87926" />
    <path d="M733.37939 734.30971 L729.22571 728.65572" />
    <path d="M714.80981 734.72295 L712.122 728.24249" />
    <path d="M696.78606 734.79436 L694.47245 728.17107" />
    <path d="M679.05009 734.75746 L676.53512 728.20798" />
    <path d="M661.73486 734.50607 L658.17705 728.45936" />
    <path d="M645.4057 732.70943 L638.83292 730.256" />
    <path d="M626.70718 728.94758 L621.85815 734.01785" />
    <path d="M607.8948 728.288 L604.99724 734.67743" />
    <path d="M589.78268 728.17689 L587.43605 734.78855" />
    <path d="M571.97891 728.18874 L569.56654 734.7767" />
    <path d="M554.52594 728.35582 L551.34621 734.60962" />
    <path d="M537.95335 729.44303 L532.2455 733.5224" />
    <path d="M520.1167 733.5224 L514.40886 729.44303" />
    <path d="M501.01599 734.60962 L497.83627 728.35582" />
    <path d="M482.79567 734.7767 L480.3833 728.18874" />
    <path d="M464.92615 734.78855 L462.57952 728.17689" />
    <path d="M447.36497 734.67743 L444.46741 728.288" />
    <path d="M430.50406 734.01785 L425.65503 728.94758" />
    <path d="M413.52928 730.256 L406.9565 732.70943" />
    <path d="M394.18515 728.45936 L390.62734 734.50607" />
    <path d="M375.82708 728.20798 L373.31211 734.75746" />
    <path d="M357.88976 728.17107 L355.57614 734.79436" />
    <path d="M340.24021 728.24249 L337.5524 734.72295" />
    <path d="M354.41811 708.89483 L359.04779 703.62352" />
    <path d="M372.1331 708.7828 L377.0061 703.73555" />
    <path d="M395.31245 704.2947 L389.50004 708.22365" />
    <path d="M413.71274 705.74404 L406.77305 706.77431" />
    <path d="M431.31849 707.60617 L424.84059 704.91218" />
    <path d="M443.2789 703.94619 L448.55348 708.57216" />
    <path d="M466.08844 708.87645 L461.41723 703.6419" />
    <path d="M479.2135 703.6785 L483.96546 708.83985" />
    <path d="M502.1891 708.42047 L496.66317 704.09788" />
    <path d="M513.88857 705.30005 L520.63698 707.2183" />
    <path d="M538.47363 705.30005 L531.72522 707.2183" />
    <path d="M555.69904 704.09788 L550.17311 708.42047" />
    <path d="M573.1487 703.6785 L568.39674 708.83985" />
    <path d="M590.94497 703.6419 L586.27376 708.87645" />
    <path d="M609.08331 703.94619 L603.80873 708.57216" />
    <path d="M627.52161 704.91218 L621.04371 707.60617" />
    <path d="M645.58916 706.77431 L638.64947 705.74404" />
    <path d="M662.86216 708.22365 L657.04976 704.2947" />
    <path d="M675.35611 703.73555 L680.2291 708.7828" />
    <path d="M697.9441 708.89483 L693.31441 703.62352" />
    <path d="M710.93403 703.83126 L715.99778 708.68709" />
    <path d="M734.38736 707.92925 L728.21774 704.58911" />
    <path d="M734.45896 682.56607 L728.14614 679.50519" />
    <path d="M716.12705 683.32112 L710.80475 678.75015" />
    <path d="M698.08535 683.54018 L693.17315 678.53109" />
    <path d="M680.36436 683.42127 L675.22085 678.65" />
    <path d="M662.95677 682.85231 L656.95515 679.21896" />
    <path d="M645.59658 681.49798 L638.64204 680.57329" />
    <path d="M627.56993 679.81127 L620.9954 682.26" />
    <path d="M609.20465 678.86881 L603.68739 683.20246" />
    <path d="M591.08533 678.55072 L586.1334 683.52054" />
    <path d="M573.28717 678.58967 L568.25827 683.4816" />
    <path d="M555.80906 679.02289 L550.06309 683.04838" />
    <path d="M538.49887 680.17021 L531.69998 681.90106" />
    <path d="M520.66222 681.90106 L513.86333 680.17021" />
    <path d="M502.29912 683.04838 L496.55315 679.02289" />
    <path d="M484.10393 683.4816 L479.07504 678.58967" />
    <path d="M466.2288 683.52054 L461.27687 678.55072" />
    <path d="M448.67482 683.20246 L443.15756 678.86881" />
    <path d="M431.36681 682.26 L424.79228 679.81127" />
    <path d="M413.72017 680.57329 L406.76562 681.49798" />
    <path d="M395.40706 679.21896 L389.40543 682.85231" />
    <path d="M377.14135 678.65 L371.99784 683.42127" />
    <path d="M359.18905 678.53109 L354.27685 683.54018" />
    <path d="M341.55746 678.75015 L336.23515 683.32112" />
    <path d="M341.42818 703.83126 L336.36443 708.68709" />
    <path d="M336.36443 779.50188 L341.42818 784.35772" />
    <path d="M354.41811 779.29415 L359.04779 784.56546" />
    <path d="M372.1331 779.40618 L377.0061 784.45342" />
    <path d="M389.50004 779.96532 L395.31245 783.89428" />
    <path d="M406.77305 781.41467 L413.71274 782.44493" />
    <path d="M424.84059 783.27679 L431.31849 780.58281" />
    <path d="M443.2789 784.24278 L448.55348 779.61682" />
    <path d="M461.41723 784.54708 L466.08844 779.31253" />
    <path d="M479.2135 784.51048 L483.96546 779.34912" />
    <path d="M496.66317 784.0911 L502.1891 779.7685" />
    <path d="M513.88857 782.88893 L520.63698 780.97067" />
    <path d="M531.72522 780.97067 L538.47363 782.88893" />
    <path d="M550.17311 779.7685 L555.69904 784.0911" />
    <path d="M568.39674 779.34912 L573.1487 784.51048" />
    <path d="M586.27376 779.31253 L590.94497 784.54708" />
    <path d="M603.80873 779.61682 L609.08331 784.24278" />
    <path d="M621.04371 780.58281 L627.52161 783.27679" />
    <path d="M638.64947 782.44493 L645.58916 781.41467" />
    <path d="M657.04976 783.89428 L662.86216 779.96532" />
    <path d="M675.35611 784.45342 L680.2291 779.40618" />
    <path d="M693.31441 784.56546 L697.9441 779.29415" />
    <path d="M710.93403 784.35772 L715.99778 779.50188" />
    <path d="M728.21774 783.59987 L734.38736 780.25973" />
    <path d="M728.14614 808.68378 L734.45896 805.6229" />
    <path d="M710.80475 809.43883 L716.12705 804.86786" />
    <path d="M693.17315 809.65789 L698.08535 804.6488" />
    <path d="M675.22085 809.53898 L680.36436 804.76771" />
    <path d="M656.95515 808.97002 L662.95677 805.33667" />
    <path d="M638.64204 807.61569 L645.59658 806.691" />
    <path d="M620.9954 805.92898 L627.56993 808.37771" />
    <path d="M621.27736 830.56765 L627.28797 834.18612" />
    <path d="M638.68974 833.11393 L645.54888 831.63984" />
    <path d="M657.44873 834.83025 L662.46319 829.92352" />
    <path d="M675.84621 835.29523 L679.739 829.45854" />
    <path d="M693.80968 835.37594 L697.44883 829.37783" />
    <path d="M711.41552 835.22313 L715.51628 829.53064" />
    <path d="M728.54155 834.54069 L734.06355 830.21308" />
    <path d="M731.75545 861.07894 L730.84965 854.12191" />
    <path d="M713.72306 861.09886 L713.20874 854.10199" />
    <path d="M695.84601 861.1016 L695.4125 854.09926" />
    <path d="M678.03078 861.10021 L677.55443 854.10065" />
    <path d="M660.31978 861.08938 L659.59213 854.11147" />
    <path d="M643.62387 860.76926 L640.61475 854.4316" />
    <path d="M624.86887 854.14188 L623.69646 861.05897" />
    <path d="M606.72704 854.10383 L606.16499 861.09703" />
    <path d="M588.82959 854.09947 L588.38915 861.10138" />
    <path d="M570.9999 854.09992 L570.54555 861.10094" />
    <path d="M553.2509 854.10671 L552.62125 861.09415" />
    <path d="M535.94373 854.19568 L534.25512 861.00518" />
    <path d="M518.10708 861.00518 L516.41848 854.19568" />
    <path d="M499.74095 861.09415 L499.11131 854.10671" />
    <path d="M481.81666 861.10094 L481.36231 854.09992" />
    <path d="M463.97305 861.10138 L463.53262 854.09947" />
    <path d="M446.19722 861.09703 L445.63516 854.10383" />
    <path d="M428.66575 861.05897 L427.49333 854.14188" />
    <path d="M411.74745 854.4316 L408.73834 860.76926" />
    <path d="M392.77007 854.11147 L392.04242 861.08938" />
    <path d="M374.80778 854.10065 L374.33142 861.10021" />
    <path d="M356.9497 854.09926 L356.5162 861.1016" />
    <path d="M339.15346 854.10199 L338.63915 861.09886" />
    <path d="M321.51256 854.12191 L320.60675 861.07894" />
    <path d="M323.96201 880.85381 L318.15731 884.79413" />
    <path d="M324.22694 906.5397 L317.89237 909.55532" />
    <path d="M324.08673 931.49849 L318.03258 935.04362" />
    <path d="M341.33104 930.74573 L336.46157 935.79637" />
    <path d="M358.94418 930.54789 L354.52172 935.99422" />
    <path d="M376.90556 930.6541 L372.23364 935.88801" />
    <path d="M395.23799 931.20068 L389.5745 935.34142" />
    <path d="M413.7064 932.7149 L406.77939 933.82721" />
    <path d="M431.27867 934.71007 L424.88041 931.83204" />
    <path d="M443.37121 930.85687 L448.46116 935.68524" />
    <path d="M465.98526 935.97688 L461.52041 930.56523" />
    <path d="M479.31574 930.59986 L483.86323 935.94225" />
    <path d="M502.10409 935.53682 L496.74817 931.00528" />
    <path d="M513.9098 932.24017 L520.61576 934.30194" />
    <path d="M538.4524 932.24017 L531.74645 934.30194" />
    <path d="M555.61403 931.00528 L550.25811 935.53682" />
    <path d="M573.04646 930.59986 L568.49898 935.94225" />
    <path d="M590.84179 930.56523 L586.37695 935.97688" />
    <path d="M608.99099 930.85687 L603.90104 935.68524" />
    <path d="M627.48179 931.83204 L621.08354 934.71007" />
    <path d="M645.58282 933.82721 L638.65581 932.7149" />
    <path d="M662.7877 935.34142 L657.12422 931.20068" />
    <path d="M675.45665 930.6541 L680.12857 935.88801" />
    <path d="M697.84049 935.99422 L693.41802 930.54789" />
    <path d="M711.03117 930.74573 L715.90064 935.79637" />
    <path d="M734.32962 935.04362 L728.27547 931.49849" />
    <path d="M734.46983 909.55532 L728.13527 906.5397" />
    <path d="M716.14763 910.30882 L710.78418 905.7862" />
    <path d="M698.10821 910.52944 L693.1503 905.56558" />
    <path d="M680.38604 910.40956 L675.19917 905.68546" />
    <path d="M662.97137 909.83986 L656.94055 906.25517" />
    <path d="M645.59767 908.5016 L638.64095 907.59343" />
    <path d="M627.57716 906.84274 L620.98817 909.25228" />
    <path d="M609.22379 905.90528 L603.66824 910.18974" />
    <path d="M591.10801 905.5854 L586.11073 910.50962" />
    <path d="M573.30947 905.62468 L568.23597 910.47034" />
    <path d="M555.82624 906.05951 L550.04591 910.03551" />
    <path d="M538.5026 907.19687 L531.69625 908.89815" />
    <path d="M520.66595 908.89815 L513.8596 907.19687" />
    <path d="M502.31629 910.03551 L496.53597 906.05951" />
    <path d="M484.12623 910.47034 L479.05274 905.62468" />
    <path d="M466.25147 910.50962 L461.2542 905.5854" />
    <path d="M448.69396 910.18974 L443.13841 905.90528" />
    <path d="M431.37404 909.25228 L424.78504 906.84274" />
    <path d="M413.72125 907.59343 L406.76453 908.5016" />
    <path d="M395.42165 906.25517 L389.39084 909.83986" />
    <path d="M377.16304 905.68546 L371.97616 910.40956" />
    <path d="M359.2119 905.56558 L354.254 910.52944" />
    <path d="M341.57803 905.7862 L336.21458 910.30882" />
    <path d="M341.13937 880.12697 L336.65323 885.52097" />
    <path d="M358.74548 879.95084 L354.72042 885.6971" />
    <path d="M376.70974 880.04459 L372.42945 885.60335" />
    <path d="M395.08226 880.5559 L389.73023 885.09204" />
    <path d="M413.69153 882.18202 L406.79426 883.46592" />
    <path d="M431.18995 884.44587 L424.96913 881.20207" />
    <path d="M448.27623 885.41923 L443.55614 880.22871" />
    <path d="M465.78687 885.68192 L461.7188 879.96602" />
    <path d="M483.66566 885.65146 L479.51331 879.99648" />
    <path d="M501.93048 885.28027 L496.92178 880.36767" />
    <path d="M520.56706 884.00165 L513.9585 881.64629" />
    <path d="M538.4037 881.64629 L531.79515 884.00165" />
    <path d="M555.44043 880.36767 L550.43172 885.28027" />
    <path d="M572.84889 879.99648 L568.69655 885.65146" />
    <path d="M590.6434 879.96602 L586.57533 885.68192" />
    <path d="M608.80606 880.22871 L604.08597 885.41923" />
    <path d="M627.39307 881.20207 L621.17226 884.44587" />
    <path d="M645.56795 883.46592 L638.67068 882.18202" />
    <path d="M662.63197 885.09204 L657.27994 880.5559" />
    <path d="M679.93275 885.60335 L675.65246 880.04459" />
    <path d="M697.64179 885.6971 L693.61672 879.95084" />
    <path d="M715.70897 885.52097 L711.22283 880.12697" />
    <path d="M734.2049 884.79413 L728.4002 880.85381" />
    <path d="M604.27546 829.62119 L608.61657 835.13258" />
    <path d="M586.76858 829.39081 L590.45016 835.36296" />
    <path d="M568.89018 829.41695 L572.65526 835.33682" />
    <path d="M550.61407 829.74754 L555.25808 835.00623" />
    <path d="M531.85545 831.04204 L538.3434 833.71173" />
    <path d="M514.0188 833.71173 L520.50675 831.04204" />
    <path d="M497.10413 835.00623 L501.74814 829.74754" />
    <path d="M483.47203 829.41695 L479.70694 835.33682" />
    <path d="M461.91204 835.36296 L465.59363 829.39081" />
    <path d="M448.08675 829.62119 L443.74563 835.13258" />
    <path d="M425.07424 834.18612 L431.08484 830.56765" />
    <path d="M413.67246 833.11393 L406.81332 831.63984" />
    <path d="M389.89902 829.92352 L394.91348 834.83025" />
    <path d="M372.6232 829.45854 L376.516 835.29523" />
    <path d="M354.91337 829.37783 L358.55253 835.37594" />
    <path d="M336.84592 829.53064 L340.94668 835.22313" />
    <path d="M318.29866 830.21308 L323.82065 834.54069" />
    <path d="M317.90324 805.6229 L324.21607 808.68378" />
    <path d="M336.23515 804.86786 L341.55746 809.43883" />
    <path d="M354.27685 804.6488 L359.18905 809.65789" />
    <path d="M371.99784 804.76771 L377.14135 809.53898" />
    <path d="M389.40543 805.33667 L395.40706 808.97002" />
    <path d="M406.76562 806.691 L413.72017 807.61569" />
    <path d="M424.79228 808.37771 L431.36681 805.92898" />
    <path d="M443.15756 809.32017 L448.67482 804.98652" />
    <path d="M461.27687 809.63825 L466.2288 804.66843" />
    <path d="M479.07504 809.59931 L484.10393 804.70738" />
    <path d="M496.55315 809.16609 L502.29912 805.1406" />
    <path d="M513.86333 808.01877 L520.66222 806.28792" />
    <path d="M531.69998 806.28792 L538.49887 808.01877" />
    <path d="M550.06309 805.1406 L555.80906 809.16609" />
    <path d="M568.25827 804.70738 L573.28717 809.59931" />
    <path d="M586.1334 804.66843 L591.08533 809.63825" />
    <path d="M603.68739 804.98652 L609.20465 809.32017" />
    <path d="M627.28797 654.00286 L621.27736 657.62133" />
    <path d="M645.54888 656.54914 L638.68974 655.07505" />
    <path d="M662.46319 658.26545 L657.44873 653.35873" />
    <path d="M679.739 658.73043 L675.84621 652.89375" />
    <path d="M697.44883 658.81114 L693.80968 652.81304" />
    <path d="M715.51628 658.65834 L711.41552 652.96584" />
    <path d="M734.06355 657.9759 L728.54155 653.64828" />
    <path d="M604.08597 602.76975 L608.80606 607.96027" />
    <path d="M586.57533 602.50706 L590.6434 608.22296" />
    <path d="M588.38915 627.08759 L588.82959 634.0895" />
    <path d="M570.54555 627.08804 L570.9999 634.08906" />
    <path d="M552.62125 627.09483 L553.2509 634.08227" />
    <path d="M534.25512 627.1838 L535.94373 633.9933" />
    <path d="M516.41848 633.9933 L518.10708 627.1838" />
    <path d="M499.11131 634.08227 L499.74095 627.09483" />
    <path d="M481.81666 627.08804 L481.36231 634.08906" />
    <path d="M463.53262 634.0895 L463.97305 627.08759" />
    <path d="M446.19722 627.09195 L445.63516 634.08515" />
    <path d="M427.49333 634.0471 L428.66575 627.13" />
    <path d="M408.73834 627.41972 L411.74745 633.75738" />
    <path d="M392.04242 627.09959 L392.77007 634.0775" />
    <path d="M374.33142 627.08877 L374.80778 634.08833" />
    <path d="M356.5162 627.08738 L356.9497 634.08972" />
    <path d="M338.63915 627.09011 L339.15346 634.08698" />
    <path d="M320.60675 627.11004 L321.51256 634.06706" />
    <path d="M318.15731 603.39484 L323.96201 607.33517" />
    <path d="M336.65323 602.66801 L341.13937 608.06201" />
    <path d="M354.72042 602.49187 L358.74548 608.23814" />
    <path d="M372.42945 602.58563 L376.70974 608.14439" />
    <path d="M389.73023 603.09694 L395.08226 607.63307" />
    <path d="M406.79426 604.72306 L413.69153 606.00696" />
    <path d="M424.96913 606.98691 L431.18995 603.74311" />
    <path d="M443.55614 607.96027 L448.27623 602.76975" />
    <path d="M461.7188 608.22296 L465.78687 602.50706" />
    <path d="M479.51331 608.1925 L483.66566 602.53752" />
    <path d="M496.92178 607.8213 L501.93048 602.90871" />
    <path d="M513.9585 606.54269 L520.56706 604.18733" />
    <path d="M531.79515 604.18733 L538.4037 606.54269" />
    <path d="M550.43172 602.90871 L555.44043 607.8213" />
    <path d="M568.69655 602.53752 L572.84889 608.1925" />
    <path d="M568.23597 577.71864 L573.30947 582.56429" />
    <path d="M586.11073 577.67935 L591.10801 582.60358" />
    <path d="M603.66824 577.99924 L609.22379 582.28369" />
    <path d="M550.04591 578.15347 L555.82624 582.12946" />
    <path d="M531.69625 579.29083 L538.5026 580.9921" />
    <path d="M513.8596 580.9921 L520.66595 579.29083" />
    <path d="M496.53597 582.12946 L502.31629 578.15347" />
    <path d="M479.05274 582.56429 L484.12623 577.71864" />
    <path d="M461.2542 582.60358 L466.25147 577.67935" />
    <path d="M443.13841 582.28369 L448.69396 577.99924" />
    <path d="M424.78504 581.34624 L431.37404 578.9367" />
    <path d="M406.76453 579.68738 L413.72125 580.59555" />
    <path d="M389.39084 578.34912 L395.42165 581.93381" />
    <path d="M371.97616 577.77942 L377.16304 582.50351" />
    <path d="M354.254 577.65953 L359.2119 582.6234" />
    <path d="M336.21458 577.88015 L341.57803 582.40278" />
    <path d="M324.22694 581.64928 L317.89237 578.63365" />
    <path d="M317.97485 780.25973 L324.14446 783.59987" />
  </g>
</svg>