<?xml version="1.0" standalone="no"?>
<!DOCTYPE svg PUBLIC "-//W3C//DTD SVG 1.1//EN" 
    "http://www.w3.org/Graphics/SVG/1.1/DTD/svg11.dtd">
<svg width="29.7cm" height="42cm"
    xmlns="http://www.w3.org/2000/svg" version="1.1" viewBox="0 0 1052.3622 1488.18898">
  <g fill="none" stroke="black" stroke-width="0.1cm" stroke-linejoin="round" stroke-linecap="round">
    <path d="M321.35427 558.4134 L320.76504 551.42244" />
    <path d="M338.93138 551.41022 L338.86123 558.42562" />
    <path d="M356.3691 558.40688 L357.0968 551.42897" />
    <path d="M375.25282 551.47723 L373.88637 558.35862" />
    <path d="M391.42035 558.2844 L393.39214 551.55144" />
    <path d="M408.97644 558.1892 L411.50935 551.64664" />
    <path d="M426.55791 558.07859 L429.60118 551.75726" />
    <path d="M444.16598 557.95798 L447.66639 551.87786" />
    <path d="M461.8003 557.83216 L465.70537 552.00369" />
    <path d="M479.45936 557.705 L483.7196 552.13085" />
    <path d="M497.14105 557.57942 L501.71122 552.25643" />
    <path d="M514.84292 557.4575 L519.68264 552.37834" />
    <path d="M532.56254 557.3406 L537.63632 552.49525" />
    <path d="M550.29756 557.22951 L555.57459 552.60634" />
    <path d="M568.04588 557.12462 L573.49957 552.71123" />
    <path d="M585.8056 557.02602 L591.41314 552.80983" />
    <path d="M603.5751 556.93361 L609.31693 552.90223" />
    <path d="M621.35296 556.84717 L627.21237 552.98867" />
    <path d="M639.13798 556.7664 L645.10064 553.06945" />
    <path d="M656.92915 556.69095 L662.98277 553.1449" />
    <path d="M674.7256 556.62046 L680.85961 553.21538" />
    <path d="M692.5266 556.55459 L698.73191 553.28125" />
    <path d="M710.33152 556.49299 L716.60028 553.34286" />
    <path d="M728.13985 556.43533 L734.46525 553.40052" />
    <path d="M728.09676 581.56557 L734.50834 578.71736" />
    <path d="M710.28727 581.62521 L716.64453 578.65772" />
    <path d="M692.48141 581.68945 L698.7771 578.59348" />
    <path d="M674.67979 581.75874 L680.90542 578.52419" />
    <path d="M656.88319 581.83358 L663.02873 578.44935" />
    <path d="M639.0925 581.91449 L645.14612 578.36844" />
    <path d="M621.30885 582.00201 L627.25647 578.28092" />
    <path d="M603.53358 582.09669 L609.35845 578.18624" />
    <path d="M585.76832 582.19905 L591.45041 578.08388" />
    <path d="M568.01504 582.30949 L573.53041 577.97344" />
    <path d="M550.27607 582.42829 L555.59608 577.85464" />
    <path d="M532.5542 582.55538 L537.64465 577.72755" />
    <path d="M514.85263 582.69026 L519.67293 577.59267" />
    <path d="M497.17492 582.83168 L501.67734 577.45125" />
    <path d="M479.52486 582.9774 L483.65411 577.30553" />
    <path d="M461.90606 583.12384 L465.59962 577.15909" />
    <path d="M444.32138 583.26585 L447.511 577.01708" />
    <path d="M426.77213 583.39659 L429.38696 576.88634" />
    <path d="M409.257 583.50795 L411.22879 576.77499" />
    <path d="M391.77123 583.59138 L393.04126 576.69155" />
    <path d="M374.30629 583.63944 L374.83291 576.64349" />
    <path d="M356.85046 583.64737 L356.61545 576.63556" />
    <path d="M339.39052 583.61435 L338.40209 576.66858" />
    <path d="M321.91396 583.54372 L320.20535 576.73921" />
    <path d="M319.54536 602.20082 L322.57395 608.5292" />
    <path d="M337.73748 602.05407 L340.05513 608.67594" />
    <path d="M355.97458 601.94009 L357.49132 608.78992" />
    <path d="M374.89393 608.85786 L374.24526 601.87216" />
    <path d="M392.53145 601.85937 L392.28104 608.87065" />
    <path d="M409.67422 608.82648 L410.81156 601.90353" />
    <path d="M427.09364 608.73149 L429.06544 601.99853" />
    <path d="M444.5539 608.59755 L447.27848 602.13246" />
    <path d="M462.06233 608.43866 L465.44335 602.29135" />
    <path d="M479.61981 608.26769 L483.55916 602.46233" />
    <path d="M497.22291 608.09466 L501.62935 602.63535" />
    <path d="M514.86603 607.92641 L519.65952 602.8036" />
    <path d="M532.54298 607.76704 L537.65587 602.96298" />
    <path d="M550.24786 607.6186 L555.62429 603.11141" />
    <path d="M567.97552 607.48181 L573.56992 603.24821" />
    <path d="M585.72164 607.35654 L591.4971 603.37347" />
    <path d="M603.4827 607.24222 L609.40933 603.48779" />
    <path d="M621.25586 607.13803 L627.30947 603.59198" />
    <path d="M639.03885 607.04308 L645.19977 603.68693" />
    <path d="M656.82987 606.95647 L663.08205 603.77354" />
    <path d="M674.62749 606.87735 L680.95773 603.85266" />
    <path d="M692.43054 606.80494 L698.82797 603.92507" />
    <path d="M710.23811 606.73853 L716.69369 603.99148" />
    <path d="M728.04946 606.67749 L734.55563 604.05252" />
    <path d="M727.99809 631.76571 L734.60701 629.41139" />
    <path d="M710.18393 631.82703 L716.74787 629.35007" />
    <path d="M692.37356 631.89456 L698.88494 629.28254" />
    <path d="M674.56785 631.96918 L681.01736 629.20792" />
    <path d="M656.7679 632.05192 L663.14402 629.12518" />
    <path d="M638.97514 632.14397 L645.26349 629.03313" />
    <path d="M621.19142 632.24669 L627.3739 628.93041" />
    <path d="M603.41921 632.36157 L609.47282 628.81552" />
    <path d="M585.66171 632.49026 L591.55702 628.68684" />
    <path d="M567.92319 632.63437 L573.62225 628.54273" />
    <path d="M550.20923 632.79524 L555.66292 628.38185" />
    <path d="M532.52706 632.97353 L537.67179 628.20357" />
    <path d="M514.88575 633.16827 L519.6398 628.00883" />
    <path d="M497.29601 633.37562 L501.55625 627.80148" />
    <path d="M479.76897 633.58704 L483.40999 627.59006" />
    <path d="M462.31333 633.78746 L465.19234 627.38964" />
    <path d="M444.93029 633.95503 L446.90209 627.22207" />
    <path d="M427.6078 634.06456 L428.55128 627.11254" />
    <path d="M410.31804 634.09562 L410.16774 627.08148" />
    <path d="M393.0229 634.0418 L391.78959 627.1353" />
    <path d="M375.68601 633.91403 L373.45319 627.26307" />
    <path d="M358.28371 633.73503 L355.18219 627.44207" />
    <path d="M340.80805 633.5297 L336.98455 627.64739" />
    <path d="M323.26288 633.3182 L318.85644 627.8589" />
    <path d="M318.26088 653.69737 L323.85843 657.92681" />
    <path d="M336.27817 653.47745 L341.51444 658.14673" />
    <path d="M354.35878 653.22975 L359.10712 658.39443" />
    <path d="M372.52491 652.96175 L376.61428 658.66243" />
    <path d="M390.79941 652.69388 L394.01308 658.93031" />
    <path d="M409.19425 652.46463 L411.29154 659.15956" />
    <path d="M428.46731 659.29847 L427.69177 652.32572" />
    <path d="M446.23346 652.31859 L445.59892 659.30559" />
    <path d="M462.76694 659.17857 L464.73873 652.44561" />
    <path d="M480.03356 658.95602 L483.14541 652.66816" />
    <path d="M497.42041 658.68999 L501.43185 652.9342" />
    <path d="M514.91761 658.4208 L519.60795 653.20339" />
    <path d="M532.50272 658.17054 L537.69613 653.45364" />
    <path d="M550.15322 657.94772 L555.71893 653.67646" />
    <path d="M567.85095 657.75334 L573.69449 653.87085" />
    <path d="M585.58256 657.58512 L591.63618 654.03907" />
    <path d="M603.3386 657.43971 L609.55343 654.18448" />
    <path d="M621.11243 657.3137 L627.45289 654.31048" />
    <path d="M638.89942 657.20402 L645.33921 654.42017" />
    <path d="M656.69625 657.10804 L663.21567 654.51614" />
    <path d="M674.50057 657.02358 L681.08464 654.6006" />
    <path d="M692.31067 656.94883 L698.94784 654.67535" />
    <path d="M710.12527 656.88232 L716.80653 654.74187" />
    <path d="M727.94344 656.82282 L734.66166 654.80137" />
    <path d="M727.8878 681.83856 L734.71729 680.2327" />
    <path d="M710.06428 681.89246 L716.86752 680.1788" />
    <path d="M692.24369 681.95384 L699.01482 680.11742" />
    <path d="M674.42694 682.02429 L681.15828 680.04698" />
    <path d="M656.61533 682.10586 L663.29659 679.96541" />
    <path d="M638.81074 682.20121 L645.42788 679.87006" />
    <path d="M621.01595 682.31383 L627.54937 679.75744" />
    <path d="M603.23518 682.44832 L609.65686 679.62294" />
    <path d="M585.47499 682.6107 L591.74375 679.46057" />
    <path d="M567.74591 682.80866 L573.79953 679.26261" />
    <path d="M550.06516 683.05132 L555.80699 679.01994" />
    <path d="M532.46091 683.34722 L537.73794 678.72405" />
    <path d="M514.97769 683.69713 L519.54786 678.37414" />
    <path d="M497.67593 684.07569 L501.17634 677.99557" />
    <path d="M480.60359 684.40211 L482.57538 677.66915" />
    <path d="M463.71776 684.54333 L463.78791 677.52793" />
    <path d="M446.83958 684.41979 L444.9928 677.65147" />
    <path d="M429.78349 684.10186 L426.37559 677.96941" />
    <path d="M412.49688 683.72352 L407.98891 678.34775" />
    <path d="M395.02438 683.37028 L389.78811 678.70099" />
    <path d="M377.42702 683.07042 L371.71218 679.00085" />
    <path d="M359.75058 682.82424 L353.71532 679.24703" />
    <path d="M342.02426 682.62343 L335.76835 679.44784" />
    <path d="M324.26586 682.45881 L317.85345 679.61246" />
    <path d="M317.6382 705.48534 L324.48111 707.03301" />
    <path d="M335.49571 705.39827 L342.29689 707.12008" />
    <path d="M353.36162 705.29 L360.10428 707.22835" />
    <path d="M371.24095 705.15226 L377.89825 707.36609" />
    <path d="M389.14297 704.97225 L395.66953 707.5461" />
    <path d="M407.08594 704.72985 L413.39985 707.7885" />
    <path d="M425.10862 704.39402 L431.05046 708.12433" />
    <path d="M443.29805 703.92453 L448.53432 708.59382" />
    <path d="M461.84109 703.31802 L465.66459 709.20033" />
    <path d="M482.20613 709.71242 L480.97283 702.80593" />
    <path d="M498.44023 709.62565 L500.41203 702.8927" />
    <path d="M515.13266 709.04625 L519.3929 703.4721" />
    <path d="M532.37258 708.46587 L537.82627 704.05248" />
    <path d="M549.90927 708.0322 L555.96288 704.48615" />
    <path d="M567.58466 707.72255 L573.96078 704.7958" />
    <path d="M585.3274 707.49766 L591.89134 705.02069" />
    <path d="M603.10539 707.3294 L609.78664 705.18895" />
    <path d="M620.90325 707.19977 L627.66208 705.31858" />
    <path d="M638.71303 707.09728 L645.52559 705.42107" />
    <path d="M656.53035 707.01443 L663.38156 705.50392" />
    <path d="M674.35266 706.94618 L681.23255 705.57217" />
    <path d="M692.1784 706.88906 L699.08011 705.62929" />
    <path d="M710.00654 706.84058 L716.92526 705.67777" />
    <path d="M727.83645 706.79895 L734.76865 705.7194" />
    <path d="M727.80054 731.68556 L734.80455 731.27987" />
    <path d="M709.96499 731.7036 L716.96681 731.26184" />
    <path d="M692.12977 731.72514 L699.12874 731.2403" />
    <path d="M674.29503 731.75132 L681.29018 731.21412" />
    <path d="M656.46103 731.78382 L663.45089 731.18162" />
    <path d="M638.6282 731.82522 L645.61042 731.14021" />
    <path d="M620.79733 731.87974 L627.768 731.08569" />
    <path d="M602.97004 731.95472 L609.92199 731.01071" />
    <path d="M585.15001 732.06412 L592.06873 730.90131" />
    <path d="M567.34712 732.23797 L574.19833 730.72747" />
    <path d="M549.59544 732.55294 L556.2767 730.41249" />
    <path d="M532.07262 733.25574 L538.12623 729.70969" />
    <path d="M516.27688 734.8492 L518.24868 728.11624" />
    <path d="M502.04427 733.81736 L496.808 729.14808" />
    <path d="M484.85276 732.76964 L478.3262 730.19579" />
    <path d="M467.15343 732.34363 L460.35225 730.62181" />
    <path d="M449.36465 732.12557 L442.46772 730.83986" />
    <path d="M431.54986 731.99467 L424.60923 730.97076" />
    <path d="M413.72493 731.90773 L406.76086 731.05771" />
    <path d="M395.89527 731.84589 L388.91722 731.11955" />
    <path d="M378.06312 731.79969 L371.07607 731.16574" />
    <path d="M360.22954 731.76389 L353.23636 731.20154" />
    <path d="M342.39507 731.73534 L335.39754 731.2301" />
    <path d="M324.56003 731.71203 L317.55929 731.2534" />
    <path d="M317.55765 756.90911 L324.56166 756.50341" />
    <path d="M335.39539 756.92714 L342.39722 756.48538" />
    <path d="M353.23346 756.94868 L360.23244 756.46384" />
    <path d="M371.07202 756.97486 L378.06717 756.43766" />
    <path d="M388.91132 757.00736 L395.90117 756.40516" />
    <path d="M406.75178 757.04877 L413.73401 756.36375" />
    <path d="M424.59421 757.10329 L431.56487 756.30923" />
    <path d="M442.44021 757.17826 L449.39216 756.23426" />
    <path d="M460.29348 757.28766 L467.21219 756.12485" />
    <path d="M478.16388 757.46151 L485.01509 755.95101" />
    <path d="M496.0855 757.77648 L502.76676 755.63603" />
    <path d="M514.23597 758.47928 L520.28959 754.93323" />
    <path d="M534.11353 760.07274 L536.08532 753.33978" />
    <path d="M550.31794 754.37162 L555.55421 759.0409" />
    <path d="M567.50944 755.41933 L574.036 757.99319" />
    <path d="M585.20878 755.84535 L592.00996 757.56717" />
    <path d="M602.99755 756.0634 L609.89448 757.34912" />
    <path d="M620.81235 756.19431 L627.75298 757.21821" />
    <path d="M638.63728 756.28125 L645.60134 757.13127" />
    <path d="M656.46693 756.34309 L663.44498 757.06943" />
    <path d="M674.29908 756.38928 L681.28613 757.02323" />
    <path d="M692.13267 756.42509 L699.12584 756.98743" />
    <path d="M709.96714 756.45364 L716.96467 756.95888" />
    <path d="M727.80218 756.47694 L734.80292 756.93558" />
    <path d="M727.88109 781.15597 L734.724 782.70364" />
    <path d="M728.09634 805.73017 L734.50876 808.57652" />
    <path d="M728.50378 830.26216 L734.10132 834.49161" />
    <path d="M729.09933 854.87077 L733.50577 860.33008" />
    <path d="M729.78826 879.65978 L732.81684 885.98816" />
    <path d="M730.44825 904.64525 L732.15685 911.44977" />
    <path d="M731.00793 929.77557 L731.59717 936.76653" />
    <path d="M713.50098 929.76335 L713.43082 936.77875" />
    <path d="M695.9931 929.7821 L695.26541 936.76001" />
    <path d="M678.47583 929.83036 L677.10938 936.71175" />
    <path d="M660.94186 929.90457 L658.97006 936.63753" />
    <path d="M643.38576 929.99977 L640.85286 936.54233" />
    <path d="M625.8043 930.11039 L622.76103 936.43172" />
    <path d="M608.19622 930.23099 L604.69581 936.31111" />
    <path d="M590.56191 930.35682 L586.65683 936.18529" />
    <path d="M572.90284 930.48398 L568.6426 936.05813" />
    <path d="M555.22116 930.60956 L550.65099 935.93255" />
    <path d="M537.51928 930.73147 L532.67957 935.81063" />
    <path d="M519.79967 930.84837 L514.72589 935.69373" />
    <path d="M502.06464 930.95947 L496.78762 935.58264" />
    <path d="M484.31633 931.06436 L478.86264 935.47775" />
    <path d="M466.5566 931.16296 L460.94907 935.37915" />
    <path d="M448.78711 931.25536 L443.04527 935.28674" />
    <path d="M431.00925 931.3418 L425.14984 935.2003" />
    <path d="M413.22422 931.42258 L407.26157 935.11953" />
    <path d="M395.43305 931.49803 L389.37944 935.04408" />
    <path d="M377.63661 931.56851 L371.50259 934.97359" />
    <path d="M359.83561 931.63438 L353.63029 934.90772" />
    <path d="M342.03068 931.69599 L335.76192 934.84612" />
    <path d="M324.22236 931.75365 L317.89696 934.78846" />
    <path d="M324.26545 906.62341 L317.85386 909.47161" />
    <path d="M342.07493 906.56377 L335.71767 909.53125" />
    <path d="M359.8808 906.49953 L353.5851 909.59549" />
    <path d="M377.68241 906.43024 L371.45679 909.66479" />
    <path d="M395.47902 906.35539 L389.33347 909.73963" />
    <path d="M413.2697 906.27449 L407.21609 909.82054" />
    <path d="M431.05335 906.18696 L425.10573 909.90806" />
    <path d="M448.82862 906.09228 L443.00376 910.00274" />
    <path d="M466.59388 905.98993 L460.91179 910.10509" />
    <path d="M484.34717 905.87948 L478.8318 910.21554" />
    <path d="M502.08613 905.76069 L496.76613 910.33433" />
    <path d="M519.808 905.63359 L514.71755 910.46143" />
    <path d="M537.50958 905.49872 L532.68928 910.59631" />
    <path d="M555.18728 905.3573 L550.68487 910.73772" />
    <path d="M572.83734 905.21158 L568.7081 910.88344" />
    <path d="M590.45615 905.06513 L586.76259 911.02989" />
    <path d="M608.04082 904.92313 L604.85121 911.17189" />
    <path d="M625.59008 904.79239 L622.97525 911.30264" />
    <path d="M643.10521 904.68103 L641.13341 911.41399" />
    <path d="M660.59097 904.59759 L659.32095 911.49743" />
    <path d="M678.05592 904.54953 L677.5293 911.54549" />
    <path d="M695.51175 904.54161 L695.74676 911.55342" />
    <path d="M712.97168 904.57463 L713.96012 911.5204" />
    <path d="M712.30707 879.51303 L714.62473 886.13491" />
    <path d="M694.87088 879.39905 L696.38763 886.24888" />
    <path d="M677.46827 879.33112 L678.11694 886.31682" />
    <path d="M660.08116 879.31833 L659.83076 886.32961" />
    <path d="M642.68798 879.3625 L641.55064 886.28544" />
    <path d="M625.26856 879.45749 L623.29677 886.19045" />
    <path d="M607.8083 879.59142 L605.08373 886.05652" />
    <path d="M590.29988 879.75031 L586.91886 885.89762" />
    <path d="M572.7424 879.92129 L568.80304 885.72665" />
    <path d="M555.13929 880.09432 L550.73285 885.55362" />
    <path d="M537.49617 880.26256 L532.70268 885.38537" />
    <path d="M519.81923 880.42194 L514.70633 885.226" />
    <path d="M502.11435 880.57038 L496.73792 885.07756" />
    <path d="M484.38668 880.70717 L478.79228 884.94077" />
    <path d="M466.64056 880.83243 L460.86511 884.8155" />
    <path d="M448.87951 880.94675 L442.95287 884.70118" />
    <path d="M431.10635 881.05094 L425.05273 884.59699" />
    <path d="M413.32336 881.1459 L407.16243 884.50204" />
    <path d="M395.53233 881.23251 L389.28016 884.41543" />
    <path d="M377.73472 881.31162 L371.40448 884.33631" />
    <path d="M359.93166 881.38403 L353.53424 884.2639" />
    <path d="M342.12409 881.45044 L335.66852 884.1975" />
    <path d="M324.31274 881.51148 L317.80657 884.13645" />
    <path d="M324.36412 856.42327 L317.75519 858.77759" />
    <path d="M342.17828 856.36195 L335.61433 858.83891" />
    <path d="M359.98864 856.29442 L353.47726 858.90643" />
    <path d="M377.79435 856.2198 L371.34484 858.98106" />
    <path d="M395.59431 856.13706 L389.21819 859.0638" />
    <path d="M413.38707 856.045 L407.09872 859.15585" />
    <path d="M431.17078 855.94229 L424.9883 859.25856" />
    <path d="M448.943 855.8274 L442.88938 859.37345" />
    <path d="M466.70049 855.69871 L460.80518 859.50214" />
    <path d="M484.43901 855.55461 L478.73995 859.64624" />
    <path d="M502.15298 855.39373 L496.69929 859.80712" />
    <path d="M519.83515 855.21545 L514.69041 859.9854" />
    <path d="M537.47645 855.02071 L532.7224 860.18014" />
    <path d="M555.06619 854.81335 L550.80595 860.3875" />
    <path d="M572.59323 854.60194 L568.95221 860.59891" />
    <path d="M590.04888 854.40152 L587.16986 860.79933" />
    <path d="M607.43191 854.23395 L605.46012 860.96691" />
    <path d="M624.75441 854.12442 L623.81092 861.07644" />
    <path d="M642.04416 854.09336 L642.19446 861.1075" />
    <path d="M659.33931 854.14718 L660.57261 861.05367" />
    <path d="M676.6762 854.27495 L678.90902 860.92591" />
    <path d="M694.07849 854.45395 L697.18002 860.7469" />
    <path d="M711.55415 854.65927 L715.37765 860.54158" />
    <path d="M710.84777 830.04224 L716.08404 834.71153" />
    <path d="M693.25508 829.79454 L698.00343 834.95923" />
    <path d="M675.74792 829.52654 L679.83729 835.22723" />
    <path d="M658.34912 829.25867 L661.56279 835.4951" />
    <path d="M641.07067 829.02942 L643.16796 835.72435" />
    <path d="M623.89489 828.89051 L624.67043 835.86326" />
    <path d="M606.76328 828.88339 L606.12875 835.87038" />
    <path d="M589.59527 829.01041 L587.62347 835.74336" />
    <path d="M572.32864 829.23296 L569.2168 835.52081" />
    <path d="M554.94179 829.49899 L550.93036 835.25478" />
    <path d="M537.4446 829.76818 L532.75425 834.98559" />
    <path d="M519.85948 830.01843 L514.66607 834.73534" />
    <path d="M502.20898 830.24126 L496.64328 834.51251" />
    <path d="M484.51126 830.43564 L478.66771 834.31813" />
    <path d="M466.77964 830.60386 L460.72603 834.14991" />
    <path d="M449.02361 830.74927 L442.80877 834.0045" />
    <path d="M431.24977 830.87528 L424.90931 833.87849" />
    <path d="M413.46279 830.98496 L407.023 833.76881" />
    <path d="M395.66595 831.08094 L389.14654 833.67283" />
    <path d="M377.86163 831.1654 L371.27757 833.58837" />
    <path d="M360.05154 831.24015 L353.41437 833.51362" />
    <path d="M342.23693 831.30666 L335.55567 833.44711" />
    <path d="M324.41877 831.36616 L317.70055 833.38761" />
    <path d="M324.4744 806.35041 L317.64491 807.95627" />
    <path d="M342.29792 806.29651 L335.49468 808.01017" />
    <path d="M360.11852 806.23513 L353.34738 808.07155" />
    <path d="M377.93527 806.16469 L371.20393 808.142" />
    <path d="M395.74687 806.08312 L389.06562 808.22357" />
    <path d="M413.55146 805.98777 L406.93433 808.31892" />
    <path d="M431.34625 805.87514 L424.81283 808.43154" />
    <path d="M449.12703 805.74065 L442.70535 808.56603" />
    <path d="M466.88722 805.57828 L460.61845 808.72841" />
    <path d="M484.61629 805.38032 L478.56268 808.92637" />
    <path d="M502.29705 805.13765 L496.55521 809.16903" />
    <path d="M519.90129 804.84176 L514.62427 809.46493" />
    <path d="M537.38451 804.49185 L532.81434 809.81484" />
    <path d="M554.68628 804.11328 L551.18587 810.1934" />
    <path d="M571.75862 803.78686 L569.78682 810.51982" />
    <path d="M588.64445 803.64564 L588.57429 810.66104" />
    <path d="M605.52262 803.76918 L607.36941 810.5375" />
    <path d="M622.57872 804.08712 L625.98661 810.21957" />
    <path d="M639.86533 804.46546 L644.3733 809.84123" />
    <path d="M657.33782 804.8187 L662.57409 809.48799" />
    <path d="M674.93519 805.11856 L680.65002 809.18813" />
    <path d="M692.61163 805.36474 L698.64688 808.94195" />
    <path d="M710.33795 805.56555 L716.59385 808.74114" />
    <path d="M710.06531 781.06889 L716.86649 782.79071" />
    <path d="M692.25792 780.96063 L699.00059 782.89897" />
    <path d="M674.46396 780.82289 L681.12126 783.03672" />
    <path d="M656.69268 780.64287 L663.21924 783.21673" />
    <path d="M638.96236 780.40048 L645.27627 783.45912" />
    <path d="M621.31174 780.06465 L627.25359 783.79495" />
    <path d="M603.82788 779.59516 L609.06415 784.26444" />
    <path d="M586.69762 778.98865 L590.52112 784.87096" />
    <path d="M570.15607 778.47655 L571.38937 785.38305" />
    <path d="M553.92197 778.56332 L551.95018 785.29628" />
    <path d="M537.22955 779.14273 L532.96931 784.71687" />
    <path d="M519.98962 779.72311 L514.53593 784.1365" />
    <path d="M502.45294 780.15678 L496.39932 783.70283" />
    <path d="M484.77754 780.46643 L478.40142 783.39317" />
    <path d="M467.03481 780.69132 L460.47086 783.16828" />
    <path d="M449.25682 780.85958 L442.57556 783.00003" />
    <path d="M431.45896 780.98921 L424.70012 782.87039" />
    <path d="M413.64918 781.0917 L406.83661 782.7679" />
    <path d="M395.83185 781.17455 L388.98064 782.68505" />
    <path d="M378.00954 781.24279 L371.12966 782.61681" />
    <path d="M360.18381 781.29992 L353.28209 782.55968" />
    <path d="M342.35566 781.3484 L335.43695 782.51121" />
    <path d="M324.52575 781.39003 L317.59356 782.46957" />
  </g>
</svg>