<?xml version="1.0" standalone="no"?>
<!DOCTYPE svg PUBLIC "-//W3C//DTD SVG 1.1//EN" 
    "http://www.w3.org/Graphics/SVG/1.1/DTD/svg11.dtd">
<svg width="29.7cm" height="42cm"
    xmlns="http://www.w3.org/2000/svg" version="1.1" viewBox="0 0 1052.3622 1488.18898">
  <g fill="none" stroke="black" stroke-width="0.05cm" stroke-linejoin="round" stroke-linecap="round">
    <path d="M27.75144 234.97721 L27.75144 485.61956" />
    <path d="M21.04724 480.13851 L44.30999 480.13851" />
    <path d="M49.90643 469.95441 L49.90643 234.97721" />
    <path d="M38.82893 234.97721 L38.82893 485.61956" />
    <path d="M21.04724 464.47336 L66.46498 464.47336" />
    <path d="M72.06143 454.28927 L72.06143 250.64235" />
    <path d="M60.98393 250.64235 L60.98393 469.95441" />
    <path d="M21.04724 448.80821 L88.61998 448.80821" />
    <path d="M94.21642 438.62412 L94.21642 266.3075" />
    <path d="M83.13892 266.3075 L83.13892 454.28927" />
    <path d="M21.04724 433.14307 L99.69747 433.14307" />
    <path d="M110.77497 417.47792 L21.04724 417.47792" />
    <path d="M21.04724 401.81277 L121.85247 401.81277" />
    <path d="M121.85247 386.14762 L21.04724 386.14762" />
    <path d="M21.04724 370.48248 L121.85247 370.48248" />
    <path d="M132.92996 354.81733 L21.04724 354.81733" />
    <path d="M21.04724 339.15218 L121.85247 339.15218" />
    <path d="M127.44891 344.63324 L127.44891 360.29838" />
    <path d="M121.85247 323.48704 L21.04724 323.48704" />
    <path d="M21.04724 307.82189 L121.85247 307.82189" />
    <path d="M116.37141 297.6378 L116.37141 407.29383" />
    <path d="M110.77497 292.15674 L21.04724 292.15674" />
    <path d="M21.04724 276.4916 L99.69747 276.4916" />
    <path d="M105.29392 281.97265 L105.29392 422.95897" />
    <path d="M21.04724 260.82645 L77.54248 260.82645" />
    <path d="M21.04724 245.1613 L55.38748 245.1613" />
    <path d="M531.71985 433.14307 L797.57978 433.14307" />
    <path d="M792.09872 422.95897 L792.09872 704.93162" />
    <path d="M797.57978 699.45057 L443.09988 699.45057" />
    <path d="M437.61882 704.93162 L437.61882 1467.14173" />
    <path d="M426.54133 1467.14173 L426.54133 720.59677" />
    <path d="M432.02238 715.11571 L786.50228 715.11571" />
    <path d="M786.50228 730.78086 L420.94488 730.78086" />
    <path d="M415.46383 736.26191 L415.46383 1467.14173" />
    <path d="M404.38633 1467.14173 L404.38633 751.92706" />
    <path d="M409.86738 746.44601 L775.42478 746.44601" />
    <path d="M781.02123 736.26191 L781.02123 407.29383" />
    <path d="M775.42478 401.81277 L553.87484 401.81277" />
    <path d="M548.39379 407.29383 L548.39379 986.90427" />
    <path d="M553.87484 981.42322 L321.24741 981.42322" />
    <path d="M326.84385 986.90427 L326.84385 830.2528" />
    <path d="M332.32491 824.77174 L753.26979 824.77174" />
    <path d="M747.78874 830.2528 L747.78874 360.29838" />
    <path d="M736.71124 360.29838 L736.71124 845.91794" />
    <path d="M742.19229 840.43689 L321.24741 840.43689" />
    <path d="M321.24741 856.10204 L731.11479 856.10204" />
    <path d="M725.63374 861.58309 L725.63374 344.63324" />
    <path d="M714.55624 344.63324 L714.55624 877.24824" />
    <path d="M720.0373 871.76719 L310.16991 871.76719" />
    <path d="M315.76636 861.58309 L315.76636 939.90883" />
    <path d="M310.16991 934.42777 L598.18483 934.42777" />
    <path d="M592.70378 939.90883 L592.70378 360.29838" />
    <path d="M603.78128 360.29838 L603.78128 924.24368" />
    <path d="M614.85877 924.24368 L614.85877 344.63324" />
    <path d="M625.93627 344.63324 L625.93627 924.24368" />
    <path d="M631.41732 918.76263 L310.16991 918.76263" />
    <path d="M310.16991 903.09748 L664.64981 903.09748" />
    <path d="M659.16876 908.57853 L659.16876 344.63324" />
    <path d="M648.09126 344.63324 L648.09126 908.57853" />
    <path d="M637.01377 908.57853 L637.01377 344.63324" />
    <path d="M609.26233 354.81733 L731.11479 354.81733" />
    <path d="M753.26979 370.48248 L587.10734 370.48248" />
    <path d="M581.62628 375.96353 L581.62628 939.90883" />
    <path d="M576.02984 950.09292 L321.24741 950.09292" />
    <path d="M321.24741 965.75807 L564.95234 965.75807" />
    <path d="M559.47129 971.23912 L559.47129 391.62868" />
    <path d="M564.95234 386.14762 L764.34729 386.14762" />
    <path d="M769.94373 391.62868 L769.94373 783.25736" />
    <path d="M775.42478 777.7763 L376.63489 777.7763" />
    <path d="M371.15384 783.25736 L371.15384 1467.14173" />
    <path d="M360.07634 1467.14173 L360.07634 783.25736" />
    <path d="M354.4799 793.44145 L764.34729 793.44145" />
    <path d="M764.34729 809.1066 L343.4024 809.1066" />
    <path d="M337.92135 814.58765 L337.92135 1467.14173" />
    <path d="M348.99885 1467.14173 L348.99885 798.9225" />
    <path d="M382.23134 767.59221 L382.23134 1467.14173" />
    <path d="M393.30883 1467.14173 L393.30883 751.92706" />
    <path d="M387.71239 762.11116 L775.42478 762.11116" />
    <path d="M758.86623 814.58765 L758.86623 375.96353" />
    <path d="M786.50228 417.47792 L542.79735 417.47792" />
    <path d="M537.31629 422.95897 L537.31629 986.90427" />
    <path d="M531.71985 997.08836 L332.32491 997.08836" />
    <path d="M326.84385 1002.56942 L326.84385 1467.14173" />
    <path d="M315.76636 1467.14173 L315.76636 1018.23456" />
    <path d="M321.24741 1012.75351 L520.64235 1012.75351" />
    <path d="M515.1613 1018.23456 L515.1613 485.61956" />
    <path d="M520.64235 480.13851 L808.65727 480.13851" />
    <path d="M814.25372 485.61956 L814.25372 626.60588" />
    <path d="M819.73477 621.12483 L476.33237 621.12483" />
    <path d="M470.85131 626.60588 L470.85131 1467.14173" />
    <path d="M481.92881 1467.14173 L481.92881 595.27559" />
    <path d="M487.40986 589.79454 L819.73477 589.79454" />
    <path d="M819.73477 574.12939 L487.40986 574.12939" />
    <path d="M487.40986 558.46424 L830.81227 558.46424" />
    <path d="M825.33121 548.28015 L825.33121 563.9453" />
    <path d="M819.73477 542.7991 L498.48736 542.7991" />
    <path d="M493.00631 548.28015 L493.00631 1467.14173" />
    <path d="M504.0838 1467.14173 L504.0838 1080.89515" />
    <path d="M498.48736 1075.4141 L232.62743 1075.4141" />
    <path d="M227.14638 1080.89515 L227.14638 1467.14173" />
    <path d="M216.06888 1467.14173 L216.06888 1080.89515" />
    <path d="M204.99139 1080.89515 L204.99139 1467.14173" />
    <path d="M193.91389 1467.14173 L193.91389 1096.5603" />
    <path d="M199.39494 1091.07925 L509.56486 1091.07925" />
    <path d="M509.56486 1106.74439 L166.16245 1106.74439" />
    <path d="M160.6814 1112.22545 L160.6814 1467.14173" />
    <path d="M149.6039 1467.14173 L149.6039 1112.22545" />
    <path d="M144.00746 1122.40954 L520.64235 1122.40954" />
    <path d="M526.2388 1127.89059 L526.2388 1467.14173" />
    <path d="M515.1613 1467.14173 L515.1613 1112.22545" />
    <path d="M531.71985 1138.07469 L110.77497 1138.07469" />
    <path d="M105.29392 1143.55574 L105.29392 1467.14173" />
    <path d="M94.21642 1467.14173 L94.21642 1143.55574" />
    <path d="M88.61998 1153.73983 L542.79735 1153.73983" />
    <path d="M548.39379 1159.22089 L548.39379 1456.85868" />
    <path d="M553.87484 1451.37763 L21.04724 1451.37763" />
    <path d="M21.04724 1435.71248 L564.95234 1435.71248" />
    <path d="M559.47129 1441.19354 L559.47129 1174.88603" />
    <path d="M553.87484 1169.40498 L66.46498 1169.40498" />
    <path d="M60.98393 1174.88603 L60.98393 1467.14173" />
    <path d="M72.06143 1467.14173 L72.06143 1159.22089" />
    <path d="M83.13892 1159.22089 L83.13892 1467.14173" />
    <path d="M116.37141 1467.14173 L116.37141 1127.89059" />
    <path d="M127.44891 1127.89059 L127.44891 1467.14173" />
    <path d="M138.52641 1467.14173 L138.52641 1127.89059" />
    <path d="M171.7589 1096.5603 L171.7589 1467.14173" />
    <path d="M182.83639 1467.14173 L182.83639 1096.5603" />
    <path d="M238.22388 1065.23 L238.22388 1467.14173" />
    <path d="M249.30138 1467.14173 L249.30138 1065.23" />
    <path d="M260.37887 1065.23 L260.37887 1467.14173" />
    <path d="M271.45637 1467.14173 L271.45637 1049.56486" />
    <path d="M282.53387 1049.56486 L282.53387 1467.14173" />
    <path d="M293.61136 1467.14173 L293.61136 1033.89971" />
    <path d="M304.68886 1033.89971 L304.68886 1467.14173" />
    <path d="M448.69632 1467.14173 L448.69632 673.60133" />
    <path d="M454.17737 668.12027 L797.57978 668.12027" />
    <path d="M797.57978 683.78542 L443.09988 683.78542" />
    <path d="M454.17737 652.45513 L808.65727 652.45513" />
    <path d="M808.65727 636.78998 L465.25487 636.78998" />
    <path d="M459.77382 642.27103 L459.77382 1467.14173" />
    <path d="M542.79735 1467.04278 L21.04724 1467.04278" />
    <path d="M27.75144 1467.14173 L27.75144 1206.21633" />
    <path d="M33.23249 1200.73528 L564.95234 1200.73528" />
    <path d="M570.54879 1206.21633 L570.54879 1425.52839" />
    <path d="M576.02984 1420.04733 L21.04724 1420.04733" />
    <path d="M21.04724 1404.38219 L587.10734 1404.38219" />
    <path d="M598.18483 1388.71704 L21.04724 1388.71704" />
    <path d="M21.04724 1373.05189 L609.26233 1373.05189" />
    <path d="M609.26233 1357.38675 L21.04724 1357.38675" />
    <path d="M21.04724 1341.7216 L609.26233 1341.7216" />
    <path d="M609.26233 1326.05645 L21.04724 1326.05645" />
    <path d="M21.04724 1310.3913 L598.18483 1310.3913" />
    <path d="M603.78128 1315.87236 L603.78128 1378.53295" />
    <path d="M642.49482 1373.05189 L963.74223 1373.05189" />
    <path d="M958.26118 1362.8678 L958.26118 1456.85868" />
    <path d="M963.74223 1451.37763 L664.64981 1451.37763" />
    <path d="M670.24626 1456.85868 L670.24626 1315.87236" />
    <path d="M675.72731 1310.3913 L930.50974 1310.3913" />
    <path d="M936.10618 1315.87236 L936.10618 1467.14173" />
    <path d="M947.18368 1467.14173 L947.18368 1331.53751" />
    <path d="M941.58724 1326.05645 L664.64981 1326.05645" />
    <path d="M659.16876 1331.53751 L659.16876 1441.19354" />
    <path d="M653.57232 1435.71248 L963.74223 1435.71248" />
    <path d="M963.74223 1420.04733 L642.49482 1420.04733" />
    <path d="M642.49482 1404.38219 L963.74223 1404.38219" />
    <path d="M963.74223 1388.71704 L642.49482 1388.71704" />
    <path d="M642.49482 1357.38675 L952.66473 1357.38675" />
    <path d="M952.66473 1341.7216 L653.57232 1341.7216" />
    <path d="M648.09126 1347.20265 L648.09126 1425.52839" />
    <path d="M675.72731 1467.04278 L952.66473 1467.04278" />
    <path d="M925.02869 1467.14173 L925.02869 1300.20721" />
    <path d="M919.43224 1294.72616 L697.8823 1294.72616" />
    <path d="M692.40125 1300.20721 L692.40125 1467.14173" />
    <path d="M703.47875 1467.14173 L703.47875 1284.54206" />
    <path d="M714.55624 1284.54206 L714.55624 1467.14173" />
    <path d="M725.63374 1467.14173 L725.63374 1268.87692" />
    <path d="M736.71124 1268.87692 L736.71124 1467.14173" />
    <path d="M747.78874 1467.14173 L747.78874 1268.87692" />
    <path d="M753.26979 1263.39586 L864.04476 1263.39586" />
    <path d="M869.6412 1268.87692 L869.6412 1467.14173" />
    <path d="M891.7962 1467.14173 L891.7962 1268.87692" />
    <path d="M880.7187 1268.87692 L880.7187 1467.14173" />
    <path d="M913.95119 1467.14173 L913.95119 1284.54206" />
    <path d="M902.87369 1284.54206 L902.87369 1467.14173" />
    <path d="M897.27725 1279.06101 L720.0373 1279.06101" />
    <path d="M681.32375 1300.20721 L681.32375 1467.14173" />
    <path d="M758.86623 1467.14173 L758.86623 1253.21177" />
    <path d="M769.94373 1253.21177 L769.94373 1467.14173" />
    <path d="M792.09872 1467.14173 L792.09872 1253.21177" />
    <path d="M781.02123 1253.21177 L781.02123 1467.14173" />
    <path d="M814.25372 1467.14173 L814.25372 1253.21177" />
    <path d="M803.17622 1253.21177 L803.17622 1467.14173" />
    <path d="M836.40871 1467.14173 L836.40871 1253.21177" />
    <path d="M847.48621 1253.21177 L847.48621 1467.14173" />
    <path d="M858.5637 1253.21177 L858.5637 1467.14173" />
    <path d="M825.33121 1253.21177 L825.33121 1467.14173" />
    <path d="M598.18483 1294.72616 L21.04724 1294.72616" />
    <path d="M21.04724 1279.06101 L598.18483 1279.06101" />
    <path d="M592.70378 1268.87692 L592.70378 1394.19809" />
    <path d="M587.10734 1263.39586 L21.04724 1263.39586" />
    <path d="M21.04724 1247.73072 L587.10734 1247.73072" />
    <path d="M581.62628 1237.54662 L581.62628 1409.86324" />
    <path d="M576.02984 1232.06557 L21.04724 1232.06557" />
    <path d="M22.15499 1216.40042 L576.02984 1216.40042" />
    <path d="M564.95234 1185.07013 L44.30999 1185.07013" />
    <path d="M38.82893 1190.55118 L38.82893 1467.14173" />
    <path d="M49.90643 1467.14173 L49.90643 1174.88603" />
    <path d="M265.85993 1059.74895 L498.48736 1059.74895" />
    <path d="M498.48736 1044.0838 L288.01492 1044.0838" />
    <path d="M310.16991 1028.41866 L509.56486 1028.41866" />
    <path d="M504.0838 1033.89971 L504.0838 516.94985" />
    <path d="M509.56486 511.4688 L819.73477 511.4688" />
    <path d="M819.73477 527.13395 L498.48736 527.13395" />
    <path d="M509.56486 495.80365 L819.73477 495.80365" />
    <path d="M808.65727 464.47336 L520.64235 464.47336" />
    <path d="M526.2388 454.28927 L526.2388 1002.56942" />
    <path d="M570.54879 955.57397 L570.54879 375.96353" />
    <path d="M531.71985 448.80821 L797.57978 448.80821" />
    <path d="M803.17622 454.28927 L803.17622 657.93618" />
    <path d="M819.73477 605.45968 L476.33237 605.45968" />
    <path d="M670.24626 344.63324 L670.24626 892.91339" />
    <path d="M681.32375 892.91339 L681.32375 344.63324" />
    <path d="M692.40125 344.63324 L692.40125 892.91339" />
    <path d="M697.8823 887.43233 L310.16991 887.43233" />
    <path d="M537.31629 1143.55574 L537.31629 1467.14173" />
    <path d="M781.02123 1112.22545 L781.02123 892.91339" />
    <path d="M792.09872 892.91339 L792.09872 1112.22545" />
    <path d="M797.57978 1122.40954 L908.35475 1122.40954" />
    <path d="M902.87369 1127.89059 L902.87369 892.91339" />
    <path d="M897.27725 887.43233 L797.57978 887.43233" />
    <path d="M803.17622 877.24824 L803.17622 1127.89059" />
    <path d="M814.25372 1127.89059 L814.25372 877.24824" />
    <path d="M825.33121 877.24824 L825.33121 1127.89059" />
    <path d="M836.40871 1127.89059 L836.40871 877.24824" />
    <path d="M847.48621 877.24824 L847.48621 1127.89059" />
    <path d="M858.5637 1127.89059 L858.5637 877.24824" />
    <path d="M869.6412 877.24824 L869.6412 1127.89059" />
    <path d="M880.7187 1127.89059 L880.7187 877.24824" />
    <path d="M891.7962 877.24824 L891.7962 1127.89059" />
    <path d="M913.95119 1112.22545 L913.95119 892.91339" />
    <path d="M925.02869 892.91339 L925.02869 1112.22545" />
    <path d="M936.10618 1112.22545 L936.10618 908.57853" />
    <path d="M930.50974 903.09748 L764.34729 903.09748" />
    <path d="M758.86623 908.57853 L758.86623 1080.89515" />
    <path d="M753.26979 1075.4141 L963.74223 1075.4141" />
    <path d="M952.66473 1091.07925 L764.34729 1091.07925" />
    <path d="M769.94373 1096.5603 L769.94373 892.91339" />
    <path d="M753.26979 918.76263 L941.58724 918.76263" />
    <path d="M947.18368 924.24368 L947.18368 1096.5603" />
    <path d="M941.58724 1106.74439 L775.42478 1106.74439" />
    <path d="M747.78874 1065.23 L747.78874 924.24368" />
    <path d="M742.19229 934.42777 L963.74223 934.42777" />
    <path d="M969.33867 939.90883 L969.33867 1065.23" />
    <path d="M974.81973 1059.74895 L742.19229 1059.74895" />
    <path d="M742.19229 1044.0838 L974.81973 1044.0838" />
    <path d="M985.89722 1028.41866 L731.11479 1028.41866" />
    <path d="M731.11479 1012.75351 L985.89722 1012.75351" />
    <path d="M985.89722 997.08836 L731.11479 997.08836" />
    <path d="M731.11479 981.42322 L985.89722 981.42322" />
    <path d="M980.41617 971.23912 L980.41617 1033.89971" />
    <path d="M974.81973 965.75807 L731.11479 965.75807" />
    <path d="M731.11479 950.09292 L974.81973 950.09292" />
    <path d="M958.26118 924.24368 L958.26118 1080.89515" />
    <path d="M736.71124 939.90883 L736.71124 1033.89971" />
    <path d="M703.47875 877.24824 L703.47875 344.63324" />
    <path d="M836.40871 203.64691 L836.40871 21.04724" />
    <path d="M847.48621 21.04724 L847.48621 203.64691" />
    <path d="M852.96726 213.83101 L952.66473 213.83101" />
    <path d="M947.18368 219.31206 L947.18368 21.04724" />
    <path d="M936.10618 21.04724 L936.10618 219.31206" />
    <path d="M925.02869 219.31206 L925.02869 21.04724" />
    <path d="M913.95119 21.04724 L913.95119 219.31206" />
    <path d="M902.87369 219.31206 L902.87369 21.04724" />
    <path d="M891.7962 21.04724 L891.7962 219.31206" />
    <path d="M880.7187 219.31206 L880.7187 21.04724" />
    <path d="M869.6412 21.04724 L869.6412 219.31206" />
    <path d="M858.5637 219.31206 L858.5637 21.04724" />
    <path d="M825.33121 21.04724 L825.33121 187.98177" />
    <path d="M819.73477 182.50071 L996.97472 182.50071" />
    <path d="M1008.05222 166.83557 L808.65727 166.83557" />
    <path d="M814.25372 172.31662 L814.25372 21.04724" />
    <path d="M808.65727 25.84924 L996.97472 25.84924" />
    <path d="M991.49367 21.04724 L991.49367 187.98177" />
    <path d="M974.81973 198.16586 L830.81227 198.16586" />
    <path d="M803.17622 156.65147 L803.17622 46.99544" />
    <path d="M808.65727 41.51439 L1008.05222 41.51439" />
    <path d="M1013.64866 46.99544 L1013.64866 156.65147" />
    <path d="M1019.12971 151.17042 L797.57978 151.17042" />
    <path d="M792.09872 140.98632 L792.09872 62.66059" />
    <path d="M797.57978 57.17954 L1019.12971 57.17954" />
    <path d="M1019.12971 72.84468 L786.50228 72.84468" />
    <path d="M786.50228 88.50983 L1030.20721 88.50983" />
    <path d="M1024.72616 78.32574 L1024.72616 109.65603" />
    <path d="M1030.20721 104.17498 L786.50228 104.17498" />
    <path d="M786.50228 119.84012 L1019.12971 119.84012" />
    <path d="M1019.12971 135.50527 L786.50228 135.50527" />
    <path d="M958.26118 203.64691 L958.26118 21.04724" />
    <path d="M969.33867 21.04724 L969.33867 203.64691" />
    <path d="M980.41617 187.98177 L980.41617 21.04724" />
    <path d="M1002.57116 31.33029 L1002.57116 172.31662" />
  </g>
</svg>