<?xml version="1.0" standalone="no"?>
<!DOCTYPE svg PUBLIC "-//W3C//DTD SVG 1.1//EN" 
    "http://www.w3.org/Graphics/SVG/1.1/DTD/svg11.dtd">
<svg width="29.7cm" height="42cm"
    xmlns="http://www.w3.org/2000/svg" version="1.1" viewBox="0 0 1052.3622 1488.18898">
  <g fill="none" stroke="black" stroke-width="0.1cm" stroke-linejoin="round" stroke-linecap="round">
    <path d="M322.16133 558.24831 L319.95798 551.58753" />
    <path d="M339.02797 551.41252 L338.76463 558.42333" />
    <path d="M355.5114 558.20623 L357.9545 551.62961" />
    <path d="M372.6312 557.84159 L376.50799 551.99426" />
    <path d="M390.05565 557.52174 L394.75685 552.31411" />
    <path d="M407.6689 557.30114 L412.81689 552.53471" />
    <path d="M425.40031 557.18219 L430.75877 552.65366" />
    <path d="M443.22086 557.163 L448.61152 552.67284" />
    <path d="M461.13516 557.25308 L466.37051 552.58277" />
    <path d="M479.19211 557.47874 L483.98686 552.35711" />
    <path d="M497.53121 557.86995 L501.32105 551.9659" />
    <path d="M516.44554 558.32927 L518.08001 551.50657" />
    <path d="M534.20635 551.52564 L535.99251 558.31021" />
    <path d="M550.65897 552.2496 L555.21318 557.58625" />
    <path d="M567.84591 552.98429 L573.69954 556.85156" />
    <path d="M585.40973 553.48004 L591.80901 556.3558" />
    <path d="M603.12152 553.7986 L609.77051 556.03725" />
    <path d="M620.8943 554.01009 L627.67103 555.82575" />
    <path d="M638.69499 554.15689 L645.54364 555.67896" />
    <path d="M656.50976 554.26305 L663.40216 555.5728" />
    <path d="M674.33223 554.34261 L681.25298 555.49324" />
    <path d="M692.15922 554.40406 L699.09929 555.43179" />
    <path d="M709.989 554.45278 L716.9428 555.38307" />
    <path d="M727.8206 554.49227 L734.7845 555.34358" />
    <path d="M727.82087 579.71355 L734.78423 580.56938" />
    <path d="M709.98914 579.67532 L716.94267 580.60761" />
    <path d="M692.15912 579.62829 L699.09939 580.65464" />
    <path d="M674.33174 579.56909 L681.25347 580.71384" />
    <path d="M656.50864 579.4925 L663.40328 580.79043" />
    <path d="M638.69284 579.39017 L645.54579 580.89276" />
    <path d="M638.6912 604.62121 L645.54742 606.1088" />
    <path d="M656.50806 604.71914 L663.40386 606.01088" />
    <path d="M674.33176 604.79251 L681.25345 605.9375" />
    <path d="M692.15948 604.84942 L699.09903 605.8806" />
    <path d="M709.98968 604.89483 L716.94212 605.83519" />
    <path d="M727.82151 604.93196 L734.78359 605.79806" />
    <path d="M727.82267 630.14627 L734.78243 631.03083" />
    <path d="M709.99084 630.10987 L716.94096 631.06722" />
    <path d="M692.16056 630.06573 L699.09795 631.11137" />
    <path d="M674.33262 630.01088 L681.25259 631.16621" />
    <path d="M656.50843 629.94069 L663.40349 631.23641" />
    <path d="M638.6906 629.84754 L645.54803 631.32956" />
    <path d="M638.69199 655.06467 L645.54663 656.55952" />
    <path d="M656.51049 655.15338 L663.40143 656.4708" />
    <path d="M674.33487 655.2211 L681.25034 656.40308" />
    <path d="M692.16278 655.27472 L699.09572 656.34947" />
    <path d="M709.99294 655.3184 L716.93886 656.30578" />
    <path d="M727.82461 655.35483 L734.78049 656.26936" />
    <path d="M727.82771 680.55532 L734.77738 681.51595" />
    <path d="M709.9965 680.5175 L716.9353 681.55377" />
    <path d="M692.16686 680.47263 L699.09165 681.59864" />
    <path d="M674.33947 680.41833 L681.24574 681.65294" />
    <path d="M656.51555 680.35095 L663.39636 681.72032" />
    <path d="M638.69724 680.26451 L645.54138 681.80676" />
    <path d="M638.71015 705.43285 L645.52847 707.0855" />
    <path d="M656.52615 705.52323 L663.38576 706.99512" />
    <path d="M674.34815 705.59519 L681.23707 706.92317" />
    <path d="M692.17398 705.65399 L699.08453 706.86437" />
    <path d="M710.0024 705.70302 L716.92941 706.81533" />
    <path d="M727.83262 705.74458 L734.77247 706.77377" />
    <path d="M727.84039 730.91823 L734.76471 732.0472" />
    <path d="M710.01211 730.86912 L716.91969 732.09631" />
    <path d="M692.18633 730.81079 L699.07217 732.15464" />
    <path d="M692.20808 755.9312 L699.05043 757.48132" />
    <path d="M710.02836 756.00736 L716.90345 757.40516" />
    <path d="M727.85284 756.07011 L734.75226 757.34241" />
    <path d="M727.87332 781.1912 L734.73178 782.6684" />
    <path d="M727.90833 806.26766 L734.69677 808.03903" />
    <path d="M727.97153 831.27712 L734.63357 833.47665" />
    <path d="M728.09414 856.18223 L734.51096 859.01862" />
    <path d="M728.35373 880.92406 L734.25137 884.72388" />
    <path d="M728.94505 905.44994 L733.66004 910.64509" />
    <path d="M730.20087 929.94066 L732.40423 936.60144" />
    <path d="M713.59757 929.76565 L713.33423 936.77645" />
    <path d="M696.85081 929.98274 L694.4077 936.55936" />
    <path d="M679.731 930.34739 L675.85421 936.19471" />
    <path d="M662.30656 930.66724 L657.60536 935.87487" />
    <path d="M644.69331 930.88783 L639.54532 935.65427" />
    <path d="M626.96189 931.00679 L621.60343 935.53532" />
    <path d="M609.14134 931.02597 L603.75069 935.51613" />
    <path d="M591.22705 930.9359 L585.99169 935.60621" />
    <path d="M573.1701 930.71024 L568.37534 935.83187" />
    <path d="M554.831 930.31903 L551.04115 936.22308" />
    <path d="M535.91666 929.8597 L534.28219 936.6824" />
    <path d="M518.15586 936.66334 L516.3697 929.87877" />
    <path d="M501.70324 935.93938 L497.14903 930.60273" />
    <path d="M484.5163 935.20469 L478.66267 931.33742" />
    <path d="M466.95247 934.70893 L460.5532 931.83317" />
    <path d="M449.24069 934.39038 L442.59169 932.15173" />
    <path d="M431.46791 934.17888 L424.69117 932.36322" />
    <path d="M413.66722 934.03209 L406.81857 932.51001" />
    <path d="M395.85245 933.92593 L388.96004 932.61618" />
    <path d="M378.02997 933.84637 L371.10922 932.69574" />
    <path d="M360.20298 933.78492 L353.26292 932.75719" />
    <path d="M342.3732 933.7362 L335.41941 932.80591" />
    <path d="M324.54161 933.69671 L317.5777 932.8454" />
    <path d="M324.54133 908.47542 L317.57798 907.6196" />
    <path d="M342.37307 908.51366 L335.41954 907.58136" />
    <path d="M360.20309 908.56068 L353.26282 907.53434" />
    <path d="M378.03046 908.61988 L371.10874 907.47514" />
    <path d="M395.85357 908.69648 L388.95892 907.39855" />
    <path d="M413.66937 908.79881 L406.81642 907.29621" />
    <path d="M424.68732 907.15421 L431.47177 908.94081" />
    <path d="M449.24739 909.14672 L442.58498 906.9483" />
    <path d="M460.54185 906.63515 L466.96382 909.45987" />
    <path d="M484.53413 909.95388 L478.64483 906.14115" />
    <path d="M497.12846 905.39687 L501.72381 910.69815" />
    <path d="M518.16133 911.43835 L516.36423 904.65667" />
    <path d="M518.1687 886.21284 L516.35685 879.43509" />
    <path d="M501.75006 885.45162 L497.10221 880.19632" />
    <path d="M484.55529 884.69725 L478.62368 880.95068" />
    <path d="M466.9763 884.20761 L460.52937 881.44032" />
    <path d="M449.25417 883.90242 L442.57821 881.74551" />
    <path d="M431.47526 883.7039 L424.68382 881.94404" />
    <path d="M413.671 883.56777 L406.81478 882.08017" />
    <path d="M395.85415 883.46984 L388.95834 882.1781" />
    <path d="M378.03044 883.39646 L371.10876 882.25148" />
    <path d="M360.20273 883.33956 L353.26317 882.30838" />
    <path d="M342.37252 883.29415 L335.42008 882.35379" />
    <path d="M324.5407 883.25702 L317.57861 882.39092" />
    <path d="M324.53954 858.04271 L317.57977 857.15815" />
    <path d="M342.37136 858.0791 L335.42124 857.12175" />
    <path d="M360.20165 858.12324 L353.26426 857.07761" />
    <path d="M378.02958 858.17809 L371.10962 857.02276" />
    <path d="M395.85377 858.24829 L388.95872 856.95257" />
    <path d="M413.67161 858.34144 L406.81418 856.85942" />
    <path d="M424.68132 856.73023 L431.47777 858.47062" />
    <path d="M449.26035 858.65957 L442.57203 856.54129" />
    <path d="M460.51623 856.24781 L466.98944 858.95304" />
    <path d="M484.58026 859.43358 L478.59871 855.76727" />
    <path d="M497.06777 855.00363 L501.78449 860.19722" />
    <path d="M518.17917 860.98649 L516.34639 854.21437" />
    <path d="M518.19517 835.75857 L516.33039 828.9952" />
    <path d="M501.83092 834.93074 L497.02135 829.82303" />
    <path d="M484.60876 834.1627 L478.57021 830.59107" />
    <path d="M467.00168 833.69982 L460.50399 831.05395" />
    <path d="M449.26438 833.42322 L442.568 831.33055" />
    <path d="M431.47803 833.24606 L424.68105 831.50771" />
    <path d="M413.67022 833.12431 L406.81557 831.62946" />
    <path d="M395.85172 833.0356 L388.96077 831.71817" />
    <path d="M378.02733 832.96788 L371.11187 831.78589" />
    <path d="M360.19942 832.91426 L353.26648 831.83951" />
    <path d="M342.36926 832.87057 L335.42334 831.8832" />
    <path d="M324.5376 832.83415 L317.58171 831.91962" />
    <path d="M324.53449 807.63366 L317.58482 806.67303" />
    <path d="M342.3657 807.67148 L335.42691 806.63521" />
    <path d="M360.19535 807.71635 L353.27055 806.59034" />
    <path d="M378.02273 807.77064 L371.11647 806.53604" />
    <path d="M395.84665 807.83803 L388.96584 806.46866" />
    <path d="M413.66496 807.92447 L406.82083 806.38222" />
    <path d="M424.68567 806.2663 L431.47341 808.04039" />
    <path d="M449.26257 808.20543 L442.5698 806.10126" />
    <path d="M460.49737 805.84678 L467.0083 808.45991" />
    <path d="M484.63693 808.89065 L478.54203 805.41604" />
    <path d="M496.95815 804.66051 L501.89411 809.64618" />
    <path d="M518.22256 810.52736 L516.303 803.77932" />
    <path d="M518.27915 785.2872 L516.2464 778.5724" />
    <path d="M501.96916 784.34603 L496.8831 779.51357" />
    <path d="M484.64521 783.6525 L478.53375 780.2071" />
    <path d="M466.99481 783.2695 L460.51086 780.5901" />
    <path d="M449.24569 783.03416 L442.58669 780.82545" />
    <path d="M431.45805 782.87366 L424.70103 780.98594" />
    <path d="M413.65205 782.75612 L406.83373 781.10348" />
    <path d="M395.83605 782.66575 L388.97644 781.19386" />
    <path d="M378.01406 782.59379 L371.12514 781.26581" />
    <path d="M360.18823 782.53499 L353.27768 781.32461" />
    <path d="M342.35981 782.48596 L335.4328 781.37365" />
    <path d="M324.52958 782.4444 L317.58973 781.41521" />
    <path d="M324.52181 757.27074 L317.5975 756.14178" />
    <path d="M342.3501 757.31985 L335.44251 756.09266" />
    <path d="M360.17587 757.37818 L353.29003 756.03433" />
    <path d="M371.14116 755.96398 L377.99804 757.44854" />
    <path d="M395.81483 757.53497 L388.99767 755.87755" />
    <path d="M406.86255 755.76902 L413.62324 757.6435" />
    <path d="M431.41792 757.78348 L424.74116 755.62904" />
    <path d="M442.64386 755.44253 L449.18852 757.96999" />
    <path d="M466.91313 758.22866 L460.59254 755.18386" />
    <path d="M478.63989 754.80755 L484.53907 758.60497" />
    <path d="M501.9127 759.18055 L496.93956 754.23196" />
    <path d="M516.10152 753.39618 L518.42404 760.01634" />
    <path d="M535.31016 753.20472 L534.88869 760.2078" />
    <path d="M551.74482 753.40685 L554.12733 760.00567" />
    <path d="M568.47257 754.05777 L573.07287 759.35475" />
    <path d="M585.77022 754.64606 L591.44852 758.76646" />
    <path d="M603.34677 755.06313 L609.54526 758.34939" />
    <path d="M621.04602 755.35372 L627.5193 758.05879" />
    <path d="M638.80318 755.56237 L645.43544 757.85015" />
    <path d="M656.59028 755.71763 L663.32164 757.69489" />
    <path d="M674.39415 755.83695 L681.19106 757.57557" />
    <path d="M674.45257 780.85772 L681.13264 783.00188" />
    <path d="M692.24768 780.99699 L699.01083 782.86261" />
    <path d="M710.05635 781.1051 L716.87545 782.7545" />
    <path d="M710.10686 806.14239 L716.82494 808.1643" />
    <path d="M710.20408 831.08628 L716.72773 833.66749" />
    <path d="M710.40732 855.88279 L716.52448 859.31806" />
    <path d="M710.86906 880.46566 L716.06274 885.18228" />
    <path d="M711.90859 904.90427 L715.02322 911.19075" />
    <path d="M695.24069 904.56122 L696.01781 911.5338" />
    <path d="M678.59987 904.63379 L676.98534 911.46123" />
    <path d="M661.61898 904.9589 L658.29294 911.13613" />
    <path d="M644.28086 905.28474 L639.95776 910.81028" />
    <path d="M626.70436 905.50969 L621.86096 910.58533" />
    <path d="M608.97286 905.61436 L603.91917 910.48067" />
    <path d="M591.11375 905.59124 L586.10499 910.50378" />
    <path d="M573.09616 905.41943 L568.44928 910.67559" />
    <path d="M554.79228 905.07099 L551.07987 911.02403" />
    <path d="M535.91049 904.63469 L534.28836 911.46033" />
    <path d="M551.13475 885.83402 L554.73739 879.81391" />
    <path d="M572.98558 880.10212 L568.55986 885.54581" />
    <path d="M590.93221 880.19536 L586.28653 885.45258" />
    <path d="M608.68047 880.11983 L604.21156 885.52811" />
    <path d="M626.21906 879.89898 L622.34627 885.74896" />
    <path d="M643.4569 879.58112 L640.78173 886.06681" />
    <path d="M660.29485 879.3325 L659.61707 886.31544" />
    <path d="M676.88385 879.43585 L678.70136 886.21209" />
    <path d="M693.67509 879.91082 L697.58341 885.73712" />
    <path d="M692.83959 855.4737 L698.41892 859.72715" />
    <path d="M675.50397 854.94198 L680.08124 860.25887" />
    <path d="M658.5535 854.38511 L661.35842 860.81575" />
    <path d="M641.94746 854.09677 L642.29117 861.10409" />
    <path d="M625.24188 854.22625 L623.32345 860.97461" />
    <path d="M608.11672 854.51596 L604.77531 860.68489" />
    <path d="M590.61074 854.71951 L586.608 860.48135" />
    <path d="M572.80572 854.74174 L568.73973 860.45912" />
    <path d="M554.65401 854.54201 L551.21814 860.65884" />
    <path d="M535.88962 854.18271 L534.30923 861.01814" />
    <path d="M535.90201 879.40914 L534.29684 886.2388" />
    <path d="M551.35822 835.50986 L554.51393 829.24391" />
    <path d="M572.47716 829.31093 L569.06828 835.44284" />
    <path d="M589.97126 829.14417 L587.24748 835.6096" />
    <path d="M606.97389 828.90896 L605.91815 835.84481" />
    <path d="M623.57494 828.94115 L624.99039 835.81262" />
    <path d="M640.26878 829.39683 L643.96985 835.35694" />
    <path d="M657.39133 829.98359 L662.52058 834.77018" />
    <path d="M674.84803 830.47042 L680.73719 834.28335" />
    <path d="M692.48202 830.82766 L698.77649 833.92611" />
    <path d="M692.32389 805.97873 L698.93462 808.32796" />
    <path d="M674.57398 805.7585 L681.01124 808.54819" />
    <path d="M656.88742 805.45356 L663.0245 808.85313" />
    <path d="M639.33021 805.02588 L644.90842 809.2808" />
    <path d="M622.0392 804.45667 L626.52613 809.85002" />
    <path d="M605.19467 803.87625 L607.69736 810.43043" />
    <path d="M588.65329 803.64574 L588.56545 810.66094" />
    <path d="M571.78353 803.79426 L569.76191 810.51243" />
    <path d="M554.23938 803.89657 L551.63277 810.41012" />
    <path d="M535.83339 803.72311 L534.36546 810.58357" />
    <path d="M535.86985 828.95466 L534.329 835.79911" />
    <path d="M552.3128 785.38186 L553.55934 778.47774" />
    <path d="M570.26801 778.45843 L571.27744 785.40118" />
    <path d="M586.81888 778.91329 L590.39986 784.94631" />
    <path d="M603.86862 779.55026 L609.02341 784.30934" />
    <path d="M621.31489 780.05965 L627.25044 783.79996" />
    <path d="M638.95345 780.419 L645.28517 783.44061" />
    <path d="M656.68102 780.67283 L663.2309 783.18677" />
    <path d="M656.54738 730.65401 L663.36454 732.31143" />
    <path d="M674.36417 730.74044 L681.22105 732.225" />
    <path d="M638.73896 730.54547 L645.49966 732.41996" />
    <path d="M620.94428 730.4055 L627.62104 732.55994" />
    <path d="M603.17368 730.21898 L609.71835 732.74645" />
    <path d="M585.44907 729.96031 L591.76966 733.00512" />
    <path d="M567.82313 729.58401 L573.72231 733.38143" />
    <path d="M550.4495 729.00842 L555.42265 733.95701" />
    <path d="M533.93816 728.17263 L536.26069 734.7928" />
    <path d="M517.05204 734.98426 L517.47351 727.98118" />
    <path d="M500.61738 734.78213 L498.23488 728.18331" />
    <path d="M483.88963 734.13121 L479.28934 728.83423" />
    <path d="M466.59198 733.54292 L460.91369 729.42252" />
    <path d="M449.01543 733.12585 L442.81695 729.83959" />
    <path d="M431.31618 732.83525 L424.8429 730.13018" />
    <path d="M413.55902 732.6266 L406.92677 730.33883" />
    <path d="M395.77192 732.47134 L389.04057 730.49409" />
    <path d="M377.96805 732.35202 L371.17115 730.61341" />
    <path d="M360.15413 732.25778 L353.31177 730.70765" />
    <path d="M342.33385 732.18162 L335.45876 730.78382" />
    <path d="M324.50937 732.11887 L317.60995 730.84657" />
    <path d="M324.48889 706.99778 L317.63042 705.52057" />
    <path d="M335.48675 705.43447 L342.30586 707.08388" />
    <path d="M360.11452 707.19199 L353.35138 705.32636" />
    <path d="M371.22956 705.1871 L377.90963 707.33126" />
    <path d="M395.68118 707.51614 L389.13131 705.00221" />
    <path d="M407.07704 704.74837 L413.40875 707.76998" />
    <path d="M431.04732 708.12933 L425.11176 704.38902" />
    <path d="M443.33879 703.87964 L448.49359 708.63871" />
    <path d="M465.54333 709.27568 L461.96234 703.24267" />
    <path d="M463.70892 684.54323 L463.79675 677.52803" />
    <path d="M447.16753 684.31272 L444.66485 677.75854" />
    <path d="M430.323 683.73231 L425.83608 678.33896" />
    <path d="M413.032 683.16309 L407.45379 678.90818" />
    <path d="M395.47478 682.73542 L389.33771 679.33585" />
    <path d="M377.78823 682.43048 L371.35097 679.64079" />
    <path d="M360.03832 682.21025 L353.42758 679.86102" />
    <path d="M342.25534 682.04659 L335.53726 680.02468" />
    <path d="M324.45388 681.92132 L317.66543 680.14995" />
    <path d="M324.39068 656.91186 L317.72864 654.71232" />
    <path d="M335.63448 654.52148 L342.15813 657.1027" />
    <path d="M359.88019 657.36131 L353.58571 654.26287" />
    <path d="M371.62502 653.90562 L377.51418 657.71856" />
    <path d="M394.97087 658.20539 L389.84162 653.41879" />
    <path d="M408.39236 652.83204 L412.09343 658.79214" />
    <path d="M428.78727 659.24783 L427.37181 652.37635" />
    <path d="M427.12033 633.96273 L429.03876 627.21437" />
    <path d="M444.24548 633.67301 L447.58689 627.50408" />
    <path d="M461.75147 633.46947 L465.75421 627.70763" />
    <path d="M479.55649 633.44724 L483.62248 627.72986" />
    <path d="M497.7082 633.64696 L501.14406 627.53014" />
    <path d="M516.47258 634.00626 L518.05298 627.17084" />
    <path d="M534.18303 627.20249 L536.01582 633.97461" />
    <path d="M550.57772 627.99176 L555.29443 633.18534" />
    <path d="M567.78195 628.7554 L573.7635 632.4217" />
    <path d="M585.37276 629.23593 L591.84597 631.94116" />
    <path d="M603.10186 629.52941 L609.79018 631.64769" />
    <path d="M620.88444 629.71835 L627.68089 631.45875" />
    <path d="M620.88418 654.94292 L627.68115 656.68126" />
    <path d="M620.8888 680.14859 L627.67653 681.92268" />
    <path d="M620.90416 705.31531 L627.66117 707.20304" />
    <path d="M603.11651 705.15482 L609.77552 707.36353" />
    <path d="M585.3674 704.91947 L591.85134 707.59888" />
    <path d="M567.71699 704.53648 L573.82845 707.98187" />
    <path d="M550.39304 703.84294 L555.4791 708.67541" />
    <path d="M534.08305 702.90177 L536.1158 709.61658" />
    <path d="M516.6172 709.70713 L517.90836 702.81122" />
    <path d="M500.0494 702.80712 L498.80286 709.71123" />
    <path d="M482.0942 709.73055 L481.08477 702.7878" />
    <path d="M480.57868 684.39472 L482.60029 677.67655" />
    <path d="M498.12283 684.29241 L500.72944 677.77886" />
    <path d="M516.52882 684.46586 L517.99674 677.6054" />
    <path d="M534.13965 677.66161 L536.0592 684.40965" />
    <path d="M550.46809 678.5428 L555.40406 683.52847" />
    <path d="M567.72527 679.29833 L573.82017 682.77294" />
    <path d="M585.3539 679.72907 L591.86484 682.3422" />
    <path d="M603.09963 679.98355 L609.7924 682.08772" />
    <path d="M603.09783 654.76576 L609.79421 656.85842" />
    <path d="M585.36052 654.48915 L591.85822 657.13503" />
    <path d="M567.75344 654.02628 L573.792 657.59791" />
    <path d="M550.53129 653.25823 L555.34086 658.36595" />
    <path d="M534.16703 652.4304 L536.03182 659.19378" />
    <path d="M516.49236 659.23432 L518.0332 652.38987" />
    <path d="M497.84828 658.94507 L501.00399 652.67911" />
    <path d="M479.88504 658.87804 L483.29392 652.74614" />
    <path d="M462.39094 659.0448 L465.11473 652.57938" />
    <path d="M445.38832 659.28002 L446.44406 652.34416" />
    <path d="M410.41475 634.09221 L410.07104 627.08489" />
    <path d="M393.80871 633.80387 L391.00378 627.37323" />
    <path d="M376.85823 633.247 L372.28097 627.9301" />
    <path d="M359.52261 632.71527 L353.94329 628.46182" />
    <path d="M341.95488 632.30618 L335.83772 628.87092" />
    <path d="M324.26807 632.00674 L317.85124 629.17035" />
    <path d="M324.00847 607.26492 L318.11084 603.4651" />
    <path d="M336.29946 603.0067 L341.49314 607.72331" />
    <path d="M358.68711 608.27816 L354.77879 602.45186" />
    <path d="M373.66085 601.97689 L375.47835 608.75313" />
    <path d="M392.06736 608.85647 L392.74513 601.87354" />
    <path d="M408.90531 608.60785 L411.58048 602.12216" />
    <path d="M426.14315 608.29 L430.01594 602.44002" />
    <path d="M443.68173 608.06915 L448.15064 602.66086" />
    <path d="M461.43 607.99362 L466.07567 602.7364" />
    <path d="M479.37663 608.08685 L483.80234 602.64316" />
    <path d="M497.62481 608.37506 L501.22745 602.35495" />
    <path d="M516.46019 608.77983 L518.06536 601.95018" />
    <path d="M534.1935 601.97613 L536.00535 608.75388" />
    <path d="M550.61215 602.73736 L555.26 607.99266" />
    <path d="M567.80692 603.49172 L573.73852 607.23829" />
    <path d="M585.38591 603.98136 L591.83283 606.74865" />
    <path d="M603.10804 604.28655 L609.784 606.44346" />
    <path d="M620.88695 604.48508 L627.67838 606.24494" />
    <path d="M620.89044 579.24816 L627.67489 581.03477" />
    <path d="M603.11481 579.04226 L609.77722 581.24067" />
    <path d="M585.39838 578.72911 L591.82035 581.55382" />
    <path d="M567.82807 578.2351 L573.71737 582.04783" />
    <path d="M550.6384 577.49083 L555.23375 582.7921" />
    <path d="M534.20087 576.75063 L535.99798 583.5323" />
    <path d="M516.45171 583.55429 L518.07384 576.72864" />
    <path d="M497.56992 583.11799 L501.28234 577.16494" />
    <path d="M479.26604 582.76955 L483.91292 577.51338" />
    <path d="M461.24845 582.59773 L466.25722 577.6852" />
    <path d="M443.38935 582.57462 L448.44303 577.70831" />
    <path d="M425.65784 582.67929 L430.50124 577.60364" />
    <path d="M408.08134 582.90423 L412.40444 577.3787" />
    <path d="M390.74322 583.23008 L394.06927 577.05285" />
    <path d="M373.76233 583.55519 L375.37686 576.72774" />
    <path d="M357.12151 583.62775 L356.34439 576.65518" />
    <path d="M340.45362 583.2847 L337.33899 576.99823" />
    <path d="M323.41715 582.73904 L318.70216 577.54389" />
    <path d="M535.74501 778.48184 L534.45385 785.37776" />
  </g>
</svg>