<?xml version="1.0" standalone="no"?>
<!DOCTYPE svg PUBLIC "-//W3C//DTD SVG 1.1//EN" 
    "http://www.w3.org/Graphics/SVG/1.1/DTD/svg11.dtd">
<svg width="29.7cm" height="42cm"
    xmlns="http://www.w3.org/2000/svg" version="1.1" viewBox="0 0 1052.3622 1488.18898">
  <g fill="none" stroke="black" stroke-width="0.05cm" stroke-linejoin="round" stroke-linecap="round">
    <path d="M27.75144 657.93618 L27.75144 1347.20265" />
    <path d="M22.15499 1341.7216 L210.47244 1341.7216" />
    <path d="M210.47244 1326.05645 L22.15499 1326.05645" />
    <path d="M22.15499 1310.3913 L210.47244 1310.3913" />
    <path d="M204.99139 1300.20721 L204.99139 1378.53295" />
    <path d="M210.47244 1373.05189 L33.23249 1373.05189" />
    <path d="M38.82893 1378.53295 L38.82893 657.93618" />
    <path d="M49.90643 657.93618 L49.90643 1394.19809" />
    <path d="M44.30999 1388.71704 L199.39494 1388.71704" />
    <path d="M193.91389 1394.19809 L193.91389 1268.87692" />
    <path d="M188.31745 1263.39586 L21.04724 1263.39586" />
    <path d="M21.04724 1247.73072 L177.23995 1247.73072" />
    <path d="M182.83639 1253.21177 L182.83639 1409.86324" />
    <path d="M188.31745 1404.38219 L55.38748 1404.38219" />
    <path d="M60.98393 1409.86324 L60.98393 673.60133" />
    <path d="M55.38748 668.12027 L21.04724 668.12027" />
    <path d="M21.04724 683.78542 L88.61998 683.78542" />
    <path d="M94.21642 689.26647 L94.21642 1425.52839" />
    <path d="M83.13892 1425.52839 L83.13892 673.60133" />
    <path d="M72.06143 673.60133 L72.06143 1409.86324" />
    <path d="M77.54248 1420.04733 L177.23995 1420.04733" />
    <path d="M171.7589 1425.52839 L171.7589 1237.54662" />
    <path d="M166.16245 1232.06557 L21.04724 1232.06557" />
    <path d="M21.04724 1216.40042 L155.08496 1216.40042" />
    <path d="M160.6814 1221.88148 L160.6814 1425.52839" />
    <path d="M149.6039 1425.52839 L149.6039 1143.55574" />
    <path d="M144.00746 1138.07469 L21.04724 1138.07469" />
    <path d="M21.04724 1122.40954 L144.00746 1122.40954" />
    <path d="M138.52641 1112.22545 L138.52641 1425.52839" />
    <path d="M127.44891 1425.52839 L127.44891 720.59677" />
    <path d="M121.85247 715.11571 L21.04724 715.11571" />
    <path d="M21.04724 730.78086 L132.92996 730.78086" />
    <path d="M138.52641 736.26191 L138.52641 1065.23" />
    <path d="M144.00746 1059.74895 L21.04724 1059.74895" />
    <path d="M21.04724 1044.0838 L155.08496 1044.0838" />
    <path d="M160.6814 1033.89971 L160.6814 767.59221" />
    <path d="M149.6039 767.59221 L149.6039 1049.56486" />
    <path d="M132.92996 1075.4141 L21.04724 1075.4141" />
    <path d="M21.04724 1091.07925 L132.92996 1091.07925" />
    <path d="M155.08496 1153.73983 L21.04724 1153.73983" />
    <path d="M21.04724 1169.40498 L155.08496 1169.40498" />
    <path d="M155.08496 1185.07013 L21.04724 1185.07013" />
    <path d="M21.04724 1200.73528 L155.08496 1200.73528" />
    <path d="M199.39494 1294.72616 L21.04724 1294.72616" />
    <path d="M21.04724 1279.06101 L199.39494 1279.06101" />
    <path d="M210.47244 1357.38675 L33.23249 1357.38675" />
    <path d="M105.29392 1425.52839 L105.29392 704.93162" />
    <path d="M99.69747 699.45057 L21.04724 699.45057" />
    <path d="M21.04724 746.44601 L144.00746 746.44601" />
    <path d="M144.00746 762.11116 L21.04724 762.11116" />
    <path d="M21.04724 777.7763 L166.16245 777.7763" />
    <path d="M171.7589 783.25736 L171.7589 1033.89971" />
    <path d="M177.23995 1028.41866 L21.04724 1028.41866" />
    <path d="M21.04724 1012.75351 L188.31745 1012.75351" />
    <path d="M199.39494 997.08836 L21.04724 997.08836" />
    <path d="M21.04724 981.42322 L210.47244 981.42322" />
    <path d="M221.54994 965.75807 L21.04724 965.75807" />
    <path d="M21.04724 950.09292 L221.54994 950.09292" />
    <path d="M221.54994 934.42777 L21.04724 934.42777" />
    <path d="M21.04724 918.76263 L232.62743 918.76263" />
    <path d="M232.62743 903.09748 L21.04724 903.09748" />
    <path d="M21.04724 887.43233 L221.54994 887.43233" />
    <path d="M227.14638 892.91339 L227.14638 924.24368" />
    <path d="M221.54994 871.76719 L21.04724 871.76719" />
    <path d="M21.04724 856.10204 L210.47244 856.10204" />
    <path d="M216.06888 861.58309 L216.06888 971.23912" />
    <path d="M210.47244 840.43689 L21.04724 840.43689" />
    <path d="M21.04724 824.77174 L199.39494 824.77174" />
    <path d="M204.99139 830.2528 L204.99139 986.90427" />
    <path d="M132.92996 1106.74439 L21.04724 1106.74439" />
    <path d="M182.83639 1018.23456 L182.83639 798.9225" />
    <path d="M177.23995 793.44145 L21.04724 793.44145" />
    <path d="M21.04724 809.1066 L188.31745 809.1066" />
    <path d="M193.91389 814.58765 L193.91389 1002.56942" />
    <path d="M398.78989 1059.74895 L786.50228 1059.74895" />
    <path d="M792.09872 1065.23 L792.09872 1467.14173" />
    <path d="M781.02123 1467.14173 L781.02123 1049.56486" />
    <path d="M769.94373 1049.56486 L769.94373 1467.14173" />
    <path d="M758.86623 1467.14173 L758.86623 1033.89971" />
    <path d="M747.78874 1033.89971 L747.78874 1467.14173" />
    <path d="M736.71124 1467.14173 L736.71124 1018.23456" />
    <path d="M725.63374 1018.23456 L725.63374 1467.14173" />
    <path d="M714.55624 1467.14173 L714.55624 1018.23456" />
    <path d="M703.47875 1018.23456 L703.47875 1467.14173" />
    <path d="M692.40125 1467.14173 L692.40125 1002.56942" />
    <path d="M681.32375 1002.56942 L681.32375 1467.14173" />
    <path d="M675.72731 1467.04278 L897.27725 1467.04278" />
    <path d="M891.7962 1467.14173 L891.7962 1331.53751" />
    <path d="M886.19975 1326.05645 L598.18483 1326.05645" />
    <path d="M603.78128 1331.53751 L603.78128 986.90427" />
    <path d="M598.18483 981.42322 L476.33237 981.42322" />
    <path d="M470.85131 986.90427 L470.85131 1237.54662" />
    <path d="M465.25487 1232.06557 L852.96726 1232.06557" />
    <path d="M852.96726 1216.40042 L443.09988 1216.40042" />
    <path d="M448.69632 1221.88148 L448.69632 986.90427" />
    <path d="M459.77382 986.90427 L459.77382 1221.88148" />
    <path d="M481.92881 1237.54662 L481.92881 971.23912" />
    <path d="M493.00631 971.23912 L493.00631 1253.21177" />
    <path d="M487.40986 1247.73072 L852.96726 1247.73072" />
    <path d="M852.96726 1263.39586 L520.64235 1263.39586" />
    <path d="M526.2388 1268.87692 L526.2388 971.23912" />
    <path d="M515.1613 971.23912 L515.1613 1253.21177" />
    <path d="M504.0838 1253.21177 L504.0838 971.23912" />
    <path d="M537.31629 971.23912 L537.31629 1268.87692" />
    <path d="M542.79735 1279.06101 L864.04476 1279.06101" />
    <path d="M869.6412 1284.54206 L869.6412 1467.14173" />
    <path d="M858.5637 1467.14173 L858.5637 1268.87692" />
    <path d="M875.12225 1294.72616 L564.95234 1294.72616" />
    <path d="M570.54879 1300.20721 L570.54879 971.23912" />
    <path d="M559.47129 971.23912 L559.47129 1284.54206" />
    <path d="M548.39379 1284.54206 L548.39379 971.23912" />
    <path d="M581.62628 971.23912 L581.62628 1300.20721" />
    <path d="M587.10734 1310.3913 L875.12225 1310.3913" />
    <path d="M880.7187 1315.87236 L880.7187 1467.14173" />
    <path d="M902.87369 1456.85868 L902.87369 1347.20265" />
    <path d="M897.27725 1341.7216 L620.33983 1341.7216" />
    <path d="M625.93627 1347.20265 L625.93627 986.90427" />
    <path d="M637.01377 986.90427 L637.01377 1362.8678" />
    <path d="M631.41732 1357.38675 L908.35475 1357.38675" />
    <path d="M908.35475 1373.05189 L642.49482 1373.05189" />
    <path d="M648.09126 1378.53295 L648.09126 986.90427" />
    <path d="M653.57232 997.08836 L443.09988 997.08836" />
    <path d="M437.61882 1002.56942 L437.61882 1206.21633" />
    <path d="M432.02238 1200.73528 L852.96726 1200.73528" />
    <path d="M852.96726 1185.07013 L420.94488 1185.07013" />
    <path d="M426.54133 1190.55118 L426.54133 1018.23456" />
    <path d="M432.02238 1012.75351 L697.8823 1012.75351" />
    <path d="M670.24626 1002.56942 L670.24626 1441.19354" />
    <path d="M664.64981 1435.71248 L908.35475 1435.71248" />
    <path d="M908.35475 1451.37763 L675.72731 1451.37763" />
    <path d="M659.16876 1425.52839 L659.16876 1002.56942" />
    <path d="M614.85877 986.90427 L614.85877 1331.53751" />
    <path d="M592.70378 1315.87236 L592.70378 971.23912" />
    <path d="M420.94488 1028.41866 L742.19229 1028.41866" />
    <path d="M764.34729 1044.0838 L409.86738 1044.0838" />
    <path d="M404.38633 1049.56486 L404.38633 1159.22089" />
    <path d="M398.78989 1153.73983 L852.96726 1153.73983" />
    <path d="M847.48621 1143.55574 L847.48621 1467.14173" />
    <path d="M653.57232 1420.04733 L908.35475 1420.04733" />
    <path d="M908.35475 1404.38219 L653.57232 1404.38219" />
    <path d="M653.57232 1388.71704 L908.35475 1388.71704" />
    <path d="M852.96726 1169.40498 L409.86738 1169.40498" />
    <path d="M415.46383 1174.88603 L415.46383 1033.89971" />
    <path d="M398.78989 1075.4141 L808.65727 1075.4141" />
    <path d="M814.25372 1080.89515 L814.25372 1467.14173" />
    <path d="M841.88976 1138.07469 L398.78989 1138.07469" />
    <path d="M398.78989 1122.40954 L841.88976 1122.40954" />
    <path d="M836.40871 1112.22545 L836.40871 1467.14173" />
    <path d="M830.81227 1106.74439 L387.71239 1106.74439" />
    <path d="M387.71239 1091.07925 L819.73477 1091.07925" />
    <path d="M825.33121 1096.5603 L825.33121 1467.14173" />
    <path d="M803.17622 1065.23 L803.17622 1467.14173" />
    <path d="M393.30883 1080.89515 L393.30883 1112.22545" />
    <path d="M116.37141 1425.52839 L116.37141 704.93162" />
    <path d="M293.61136 156.65147 L293.61136 21.04724" />
    <path d="M282.53387 21.04724 L282.53387 140.98632" />
    <path d="M271.45637 140.98632 L271.45637 21.04724" />
    <path d="M260.37887 21.04724 L260.37887 125.32118" />
    <path d="M254.78243 119.84012 L409.86738 119.84012" />
    <path d="M398.78989 135.50527 L265.85993 135.50527" />
    <path d="M288.01492 151.17042 L376.63489 151.17042" />
    <path d="M371.15384 156.65147 L371.15384 21.04724" />
    <path d="M360.07634 21.04724 L360.07634 156.65147" />
    <path d="M348.99885 156.65147 L348.99885 21.04724" />
    <path d="M337.92135 21.04724 L337.92135 156.65147" />
    <path d="M326.84385 156.65147 L326.84385 21.04724" />
    <path d="M315.76636 21.04724 L315.76636 156.65147" />
    <path d="M304.68886 156.65147 L304.68886 21.04724" />
    <path d="M254.78243 25.84924 L409.86738 25.84924" />
    <path d="M404.38633 21.04724 L404.38633 125.32118" />
    <path d="M420.94488 104.17498 L243.70493 104.17498" />
    <path d="M249.30138 109.65603 L249.30138 31.33029" />
    <path d="M243.70493 41.51439 L409.86738 41.51439" />
    <path d="M415.46383 46.99544 L415.46383 109.65603" />
    <path d="M420.94488 88.50983 L243.70493 88.50983" />
    <path d="M243.70493 72.84468 L420.94488 72.84468" />
    <path d="M420.94488 57.17954 L243.70493 57.17954" />
    <path d="M382.23134 21.04724 L382.23134 140.98632" />
    <path d="M393.30883 140.98632 L393.30883 21.04724" />
    <path d="M659.16876 266.3075 L659.16876 391.62868" />
    <path d="M648.09126 391.62868 L648.09126 281.97265" />
    <path d="M653.57232 276.4916 L753.26979 276.4916" />
    <path d="M758.86623 281.97265 L758.86623 391.62868" />
    <path d="M769.94373 391.62868 L769.94373 281.97265" />
    <path d="M775.42478 292.15674 L642.49482 292.15674" />
    <path d="M637.01377 297.6378 L637.01377 360.29838" />
    <path d="M631.41732 354.81733 L786.50228 354.81733" />
    <path d="M786.50228 339.15218 L631.41732 339.15218" />
    <path d="M631.41732 323.48704 L786.50228 323.48704" />
    <path d="M781.02123 313.30294 L781.02123 375.96353" />
    <path d="M786.50228 370.48248 L642.49482 370.48248" />
    <path d="M642.49482 386.14762 L775.42478 386.14762" />
    <path d="M753.26979 401.81277 L664.64981 401.81277" />
    <path d="M670.24626 407.29383 L670.24626 266.3075" />
    <path d="M681.32375 266.3075 L681.32375 407.29383" />
    <path d="M692.40125 407.29383 L692.40125 250.64235" />
    <path d="M703.47875 250.64235 L703.47875 407.29383" />
    <path d="M714.55624 407.29383 L714.55624 250.64235" />
    <path d="M725.63374 250.64235 L725.63374 407.29383" />
    <path d="M736.71124 407.29383 L736.71124 266.3075" />
    <path d="M731.11479 260.82645 L686.80481 260.82645" />
    <path d="M747.78874 266.3075 L747.78874 407.29383" />
    <path d="M825.33121 469.95441 L825.33121 736.26191" />
    <path d="M819.73477 730.78086 L1019.12971 730.78086" />
    <path d="M1013.64866 736.26191 L1013.64866 469.95441" />
    <path d="M1008.05222 464.47336 L830.81227 464.47336" />
    <path d="M836.40871 454.28927 L836.40871 751.92706" />
    <path d="M830.81227 746.44601 L1008.05222 746.44601" />
    <path d="M1002.57116 751.92706 L1002.57116 454.28927" />
    <path d="M996.97472 448.80821 L852.96726 448.80821" />
    <path d="M847.48621 454.28927 L847.48621 767.59221" />
    <path d="M841.88976 762.11116 L985.89722 762.11116" />
    <path d="M980.41617 767.59221 L980.41617 438.62412" />
    <path d="M974.81973 433.14307 L875.12225 433.14307" />
    <path d="M869.6412 438.62412 L869.6412 767.59221" />
    <path d="M858.5637 767.59221 L858.5637 438.62412" />
    <path d="M880.7187 422.95897 L880.7187 783.25736" />
    <path d="M875.12225 777.7763 L952.66473 777.7763" />
    <path d="M947.18368 783.25736 L947.18368 422.95897" />
    <path d="M936.10618 422.95897 L936.10618 783.25736" />
    <path d="M925.02869 783.25736 L925.02869 422.95897" />
    <path d="M913.95119 422.95897 L913.95119 783.25736" />
    <path d="M902.87369 783.25736 L902.87369 422.95897" />
    <path d="M891.7962 422.95897 L891.7962 783.25736" />
    <path d="M958.26118 767.59221 L958.26118 422.95897" />
    <path d="M969.33867 422.95897 L969.33867 767.59221" />
    <path d="M991.49367 751.92706 L991.49367 438.62412" />
    <path d="M1019.12971 480.13851 L819.73477 480.13851" />
    <path d="M819.73477 495.80365 L1030.20721 495.80365" />
    <path d="M1024.72616 485.61956 L1024.72616 720.59677" />
    <path d="M1030.20721 715.11571 L808.65727 715.11571" />
    <path d="M814.25372 720.59677 L814.25372 501.28471" />
    <path d="M808.65727 511.4688 L1031.31496 511.4688" />
    <path d="M1031.31496 542.7991 L797.57978 542.7991" />
    <path d="M803.17622 532.615 L803.17622 704.93162" />
    <path d="M797.57978 699.45057 L1031.31496 699.45057" />
    <path d="M1031.31496 683.78542 L797.57978 683.78542" />
    <path d="M792.09872 673.60133 L792.09872 595.27559" />
    <path d="M797.57978 589.79454 L1031.31496 589.79454" />
    <path d="M1031.31496 574.12939 L797.57978 574.12939" />
    <path d="M797.57978 558.46424 L1031.31496 558.46424" />
    <path d="M1031.31496 605.45968 L786.50228 605.45968" />
    <path d="M786.50228 621.12483 L1031.31496 621.12483" />
    <path d="M1031.31496 636.78998 L786.50228 636.78998" />
    <path d="M786.50228 652.45513 L1031.31496 652.45513" />
    <path d="M786.50228 668.12027 L1031.31496 668.12027" />
    <path d="M808.65727 527.13395 L1031.31496 527.13395" />
    <path d="M775.42478 307.82189 L631.41732 307.82189" />
  </g>
</svg>