<?xml version="1.0" standalone="no"?>
<!DOCTYPE svg PUBLIC "-//W3C//DTD SVG 1.1//EN" 
    "http://www.w3.org/Graphics/SVG/1.1/DTD/svg11.dtd">
<svg width="29.7cm" height="42cm"
    xmlns="http://www.w3.org/2000/svg" version="1.1" viewBox="0 0 1052.3622 1488.18898">
  <g fill="none" stroke="black" stroke-width="0.1cm" stroke-linejoin="round" stroke-linecap="round">
    <path d="M318.68146 557.49656 L323.43785 552.33928" />
    <path d="M336.40343 557.38587 L341.38918 552.44998" />
    <path d="M354.12001 557.25837 L359.34589 552.57747" />
    <path d="M371.83232 557.11166 L377.30688 552.72419" />
    <path d="M389.54213 556.94326 L395.27036 552.89258" />
    <path d="M407.25201 556.75091 L413.23377 553.08494" />
    <path d="M424.96548 556.53279 L431.1936 553.30306" />
    <path d="M442.68695 556.28804 L449.14542 553.54781" />
    <path d="M460.42166 556.01721 L467.08401 553.81863" />
    <path d="M478.17518 555.72272 L485.00379 554.11312" />
    <path d="M495.95282 555.40915 L502.89944 554.4267" />
    <path d="M513.7588 555.08311 L520.76676 554.75274" />
    <path d="M531.59544 554.75274 L538.60341 555.08311" />
    <path d="M549.46276 554.4267 L556.40938 555.40915" />
    <path d="M567.35842 554.11312 L574.18703 555.72272" />
    <path d="M585.27819 553.81863 L591.94055 556.01721" />
    <path d="M603.21678 553.54781 L609.67525 556.28804" />
    <path d="M621.1686 553.30306 L627.39673 556.53279" />
    <path d="M639.12843 553.08494 L645.11019 556.75091" />
    <path d="M657.09184 552.89258 L662.82008 556.94326" />
    <path d="M675.05533 552.72419 L680.52989 557.11166" />
    <path d="M693.01631 552.57747 L698.2422 557.25837" />
    <path d="M710.97303 552.44998 L715.95878 557.38587" />
    <path d="M728.92436 552.33928 L733.68074 557.49656" />
    <path d="M729.11237 577.40134 L733.49273 582.88159" />
    <path d="M729.33734 602.4593 L733.26776 608.27071" />
    <path d="M729.60413 627.51926 L733.00097 633.65784" />
    <path d="M729.91578 652.58997 L732.68932 659.03421" />
    <path d="M730.27176 677.68263 L732.33334 684.38864" />
    <path d="M730.66624 702.80949 L731.93885 709.70886" />
    <path d="M731.08728 727.98145 L731.51782 734.98398" />
    <path d="M731.51782 753.205 L731.08728 760.20752" />
    <path d="M731.93885 778.48012 L730.66624 785.37948" />
    <path d="M714.16053 778.49139 L712.77127 785.36821" />
    <path d="M696.39369 778.50623 L694.86482 785.35337" />
    <path d="M678.64196 778.52631 L676.94325 785.3333" />
    <path d="M660.91064 778.55434 L659.00128 785.30527" />
    <path d="M643.20759 778.59501 L641.03103 785.26459" />
    <path d="M625.54494 778.65691 L623.02039 785.2027" />
    <path d="M607.94172 778.75678 L604.95032 785.10282" />
    <path d="M590.42751 778.92987 L586.79123 784.92973" />
    <path d="M573.04224 779.25502 L568.50321 784.60459" />
    <path d="M555.80019 779.90446 L550.07196 783.95514" />
    <path d="M538.51373 781.125 L531.68512 782.7346" />
    <path d="M520.67708 782.7346 L513.84847 781.125" />
    <path d="M502.29025 783.95514 L496.56201 779.90446" />
    <path d="M483.859 784.60459 L479.31997 779.25502" />
    <path d="M465.57097 784.92973 L461.9347 778.92987" />
    <path d="M447.41189 785.10282 L444.42049 778.75678" />
    <path d="M429.34181 785.2027 L426.81727 778.65691" />
    <path d="M411.33117 785.26459 L409.15462 778.59501" />
    <path d="M393.36092 785.30527 L391.45157 778.55434" />
    <path d="M375.41896 785.3333 L373.72024 778.52631" />
    <path d="M357.49738 785.35337 L355.96852 778.50623" />
    <path d="M339.59093 785.36821 L338.20167 778.49139" />
    <path d="M321.69596 785.37948 L320.42335 778.48012" />
    <path d="M321.27493 760.20752 L320.84438 753.205" />
    <path d="M338.66062 753.20631 L339.13199 760.20621" />
    <path d="M356.99332 760.20446 L356.47259 753.20806" />
    <path d="M374.2788 753.21046 L374.8604 760.20206" />
    <path d="M392.73549 760.19865 L392.077 753.21387" />
    <path d="M409.86354 753.21896 L410.62224 760.19356" />
    <path d="M428.52683 760.1855 L427.63226 753.22702" />
    <path d="M445.37169 753.2409 L446.46069 760.17162" />
    <path d="M464.44746 760.14467 L463.05821 753.26785" />
    <path d="M480.63481 753.33079 L482.54416 760.08173" />
    <path d="M500.92183 759.87928 L497.93043 753.53324" />
    <path d="M514.39866 754.68092 L520.1269 758.7316" />
    <path d="M537.96354 754.68092 L532.23531 758.7316" />
    <path d="M554.43177 753.53324 L551.44037 759.87928" />
    <path d="M571.7274 753.33079 L569.81804 760.08173" />
    <path d="M589.304 753.26785 L587.91474 760.14467" />
    <path d="M606.99052 753.2409 L605.90152 760.17162" />
    <path d="M624.72995 753.22702 L623.83538 760.1855" />
    <path d="M642.49866 753.21896 L641.73996 760.19356" />
    <path d="M660.28521 753.21387 L659.62671 760.19865" />
    <path d="M678.0834 753.21046 L677.50181 760.20206" />
    <path d="M695.88962 753.20806 L695.36889 760.20446" />
    <path d="M713.70159 753.20631 L713.23021 760.20621" />
    <path d="M713.23021 727.98277 L713.70159 734.98266" />
    <path d="M695.36889 727.98452 L695.88962 734.98092" />
    <path d="M677.50181 727.98692 L678.0834 734.97852" />
    <path d="M659.62671 727.99033 L660.28521 734.97511" />
    <path d="M641.73996 727.99542 L642.49866 734.97002" />
    <path d="M623.83538 728.00348 L624.72995 734.96196" />
    <path d="M605.90152 728.01736 L606.99052 734.94807" />
    <path d="M587.91474 728.04431 L589.304 734.92113" />
    <path d="M569.81804 728.10725 L571.7274 734.85818" />
    <path d="M551.44037 728.3097 L554.43177 734.65574" />
    <path d="M532.23531 729.45738 L537.96354 733.50806" />
    <path d="M514.39866 733.50806 L520.1269 729.45738" />
    <path d="M497.93043 734.65574 L500.92183 728.3097" />
    <path d="M482.54416 728.10725 L480.63481 734.85818" />
    <path d="M463.05821 734.92113 L464.44746 728.04431" />
    <path d="M446.46069 728.01736 L445.37169 734.94807" />
    <path d="M427.63226 734.96196 L428.52683 728.00348" />
    <path d="M410.62224 727.99542 L409.86354 734.97002" />
    <path d="M392.077 734.97511 L392.73549 727.99033" />
    <path d="M374.8604 727.98692 L374.2788 734.97852" />
    <path d="M356.47259 734.98092 L356.99332 727.98452" />
    <path d="M339.13199 727.98277 L338.66062 734.98266" />
    <path d="M320.84438 734.98398 L321.27493 727.98145" />
    <path d="M320.42335 709.70886 L321.69596 702.80949" />
    <path d="M338.20167 709.69759 L339.59093 702.82076" />
    <path d="M355.96852 709.68274 L357.49738 702.83561" />
    <path d="M373.72024 709.66267 L375.41896 702.85568" />
    <path d="M391.45157 709.63464 L393.36092 702.88371" />
    <path d="M409.15462 709.59397 L411.33117 702.92438" />
    <path d="M426.81727 709.53207 L429.34181 702.98628" />
    <path d="M444.42049 709.4322 L447.41189 703.08615" />
    <path d="M461.9347 709.2591 L465.57097 703.25925" />
    <path d="M479.31997 708.93396 L483.859 703.58439" />
    <path d="M496.56201 708.28452 L502.29025 704.23383" />
    <path d="M513.84847 707.06398 L520.67708 705.45437" />
    <path d="M531.68512 705.45437 L538.51373 707.06398" />
    <path d="M550.07196 704.23383 L555.80019 708.28452" />
    <path d="M568.50321 703.58439 L573.04224 708.93396" />
    <path d="M586.79123 703.25925 L590.42751 709.2591" />
    <path d="M604.95032 703.08615 L607.94172 709.4322" />
    <path d="M623.02039 702.98628 L625.54494 709.53207" />
    <path d="M641.03103 702.92438 L643.20759 709.59397" />
    <path d="M659.00128 702.88371 L660.91064 709.63464" />
    <path d="M676.94325 702.85568 L678.64196 709.66267" />
    <path d="M694.86482 702.83561 L696.39369 709.68274" />
    <path d="M712.77127 702.82076 L714.16053 709.69759" />
    <path d="M712.34655 677.71115 L714.58526 684.36012" />
    <path d="M694.4058 677.74803 L696.85271 684.32324" />
    <path d="M676.44547 677.79674 L679.13974 684.27452" />
    <path d="M658.46026 677.86261 L661.45166 684.20865" />
    <path d="M640.44325 677.95408 L643.79537 684.11719" />
    <path d="M622.38589 678.0848 L626.17944 683.98647" />
    <path d="M604.27891 678.27722 L608.61312 683.79405" />
    <path d="M586.11649 678.56769 L591.10224 683.50358" />
    <path d="M567.9086 679.01029 L573.63684 683.06097" />
    <path d="M549.70684 679.66552 L556.16531 682.40575" />
    <path d="M531.62612 680.54441 L538.57274 681.52686" />
    <path d="M513.78947 681.52686 L520.73609 680.54441" />
    <path d="M496.1969 682.40575 L502.65537 679.66552" />
    <path d="M484.4536 679.01029 L478.72537 683.06097" />
    <path d="M461.25996 683.50358 L466.24571 678.56769" />
    <path d="M448.08329 678.27722 L443.74909 683.79405" />
    <path d="M426.18277 683.98647 L429.97631 678.0848" />
    <path d="M411.91895 677.95408 L408.56683 684.11719" />
    <path d="M390.91055 684.20865 L393.90195 677.86261" />
    <path d="M375.91673 677.79674 L373.22247 684.27452" />
    <path d="M355.50949 684.32324 L357.95641 677.74803" />
    <path d="M340.01566 677.71115 L337.77695 684.36012" />
    <path d="M320.02887 684.38864 L322.09044 677.68263" />
    <path d="M319.67289 659.03421 L322.44643 652.58997" />
    <path d="M337.4006 658.98511 L340.392 652.63907" />
    <path d="M355.11214 658.92306 L358.35377 652.70112" />
    <path d="M372.80443 658.84349 L376.33476 652.78069" />
    <path d="M390.4741 658.73989 L394.33839 652.8843" />
    <path d="M408.11775 658.60296 L412.36803 653.02122" />
    <path d="M425.73303 658.41959 L430.42605 653.20459" />
    <path d="M443.32069 658.17187 L448.51169 653.45231" />
    <path d="M460.88872 657.83743 L466.61695 653.78675" />
    <path d="M478.45836 657.39363 L484.72061 654.23056" />
    <path d="M496.06904 656.8295 L502.78322 654.79469" />
    <path d="M513.77267 656.16466 L520.75289 655.45952" />
    <path d="M531.60932 655.45952 L538.58954 656.16466" />
    <path d="M549.57898 654.79469 L556.29317 656.8295" />
    <path d="M567.6416 654.23056 L573.90384 657.39363" />
    <path d="M585.74525 653.78675 L591.47349 657.83743" />
    <path d="M603.85052 653.45231 L609.04151 658.17187" />
    <path d="M621.93615 653.20459 L626.62918 658.41959" />
    <path d="M639.99417 653.02122 L644.24445 658.60296" />
    <path d="M658.02381 652.8843 L661.88811 658.73989" />
    <path d="M676.02744 652.78069 L679.55777 658.84349" />
    <path d="M694.00844 652.70112 L697.25007 658.92306" />
    <path d="M711.9702 652.63907 L714.9616 658.98511" />
    <path d="M711.64776 627.58862 L715.28404 633.58848" />
    <path d="M693.677 627.67412 L697.5815 633.50298" />
    <path d="M675.69029 627.78045 L679.89493 633.39665" />
    <path d="M657.68644 627.91376 L662.22547 633.26334" />
    <path d="M639.6653 628.08195 L644.57332 633.09514" />
    <path d="M621.62868 628.29475 L626.93665 632.88235" />
    <path d="M603.5819 628.56321 L609.31013 632.61389" />
    <path d="M585.53571 628.89804 L591.68302 632.27906" />
    <path d="M567.50776 629.30589 L574.03768 631.87121" />
    <path d="M549.52177 629.78375 L556.35038 631.39335" />
    <path d="M531.60233 630.31378 L538.59652 630.86332" />
    <path d="M513.76568 630.86332 L520.75987 630.31378" />
    <path d="M496.01183 631.39335 L502.84044 629.78375" />
    <path d="M478.32452 631.87121 L484.85444 629.30589" />
    <path d="M466.82649 628.89804 L460.67918 632.27906" />
    <path d="M443.05207 632.61389 L448.78031 628.56321" />
    <path d="M430.73353 628.29475 L425.42555 632.88235" />
    <path d="M407.78888 633.09514 L412.6969 628.08195" />
    <path d="M394.67576 627.91376 L390.13673 633.26334" />
    <path d="M372.46728 633.39665 L376.67192 627.78045" />
    <path d="M358.6852 627.67412 L354.7807 633.50298" />
    <path d="M337.07817 633.58848 L340.71444 627.58862" />
    <path d="M322.75808 627.51926 L319.36123 633.65784" />
    <path d="M319.09444 608.27071 L323.02487 602.4593" />
    <path d="M336.80832 608.18378 L340.98429 602.54623" />
    <path d="M354.51077 608.07924 L358.95513 602.65077" />
    <path d="M372.20154 607.95296 L376.93766 602.77706" />
    <path d="M389.88112 607.79995 L394.93137 602.93007" />
    <path d="M407.55122 607.61447 L412.93456 603.11554" />
    <path d="M425.21542 607.39035 L430.94366 603.33967" />
    <path d="M442.87989 607.12172 L448.95249 603.60829" />
    <path d="M460.55393 606.80451 L466.95174 603.9255" />
    <path d="M478.24989 606.43845 L484.92908 604.29157" />
    <path d="M495.98173 606.02929 L502.87053 604.70073" />
    <path d="M513.76213 605.59005 L520.76343 605.13997" />
    <path d="M531.59878 605.13997 L538.60007 605.59005" />
    <path d="M549.49167 604.70073 L556.38048 606.02929" />
    <path d="M567.43312 604.29157 L574.11232 606.43845" />
    <path d="M585.41046 603.9255 L591.80827 606.80451" />
    <path d="M603.40972 603.60829 L609.48232 607.12172" />
    <path d="M621.41855 603.33967 L627.14678 607.39035" />
    <path d="M639.42764 603.11554 L644.81098 607.61447" />
    <path d="M657.43084 602.93007 L662.48108 607.79995" />
    <path d="M675.42455 602.77706 L680.16066 607.95296" />
    <path d="M693.40707 602.65077 L697.85144 608.07924" />
    <path d="M711.37792 602.54623 L715.55388 608.18378" />
    <path d="M711.15532 577.50207 L715.77648 582.78086" />
    <path d="M693.19003 577.62048 L698.06848 582.66245" />
    <path d="M675.21713 577.75985 L680.36809 582.52308" />
    <path d="M657.23802 577.92381 L662.6739 582.35912" />
    <path d="M639.25519 578.11612 L644.98343 582.16681" />
    <path d="M621.2725 578.34033 L627.29283 581.9426" />
    <path d="M603.29543 578.59906 L609.5966 581.68387" />
    <path d="M585.3311 578.8932 L591.88763 581.38973" />
    <path d="M567.38781 579.22084 L574.15763 581.06209" />
    <path d="M549.47399 579.5765 L556.39815 580.70643" />
    <path d="M531.59673 579.95093 L538.60212 580.332" />
    <path d="M513.76008 580.332 L520.76547 579.95093" />
    <path d="M495.96405 580.70643 L502.88821 579.5765" />
    <path d="M478.20457 581.06209 L484.9744 579.22084" />
    <path d="M460.47457 581.38973 L467.0311 578.8932" />
    <path d="M442.7656 581.68387 L449.06677 578.59906" />
    <path d="M425.06938 581.9426 L431.0897 578.34033" />
    <path d="M407.37877 582.16681 L413.10701 578.11612" />
    <path d="M389.68831 582.35912 L395.12418 577.92381" />
    <path d="M371.99412 582.52308 L377.14508 577.75985" />
    <path d="M354.29372 582.66245 L359.17218 577.62048" />
    <path d="M336.58572 582.78086 L341.20688 577.50207" />
    <path d="M323.24983 577.40134 L318.86948 582.88159" />
    <path d="M320.02887 803.80034 L322.09044 810.50635" />
    <path d="M337.77695 803.82885 L340.01566 810.47783" />
    <path d="M355.50949 803.86574 L357.95641 810.44095" />
    <path d="M373.22247 803.91445 L375.91673 810.39223" />
    <path d="M390.91055 803.98032 L393.90195 810.32636" />
    <path d="M408.56683 804.07179 L411.91895 810.2349" />
    <path d="M426.18277 804.20251 L429.97631 810.10418" />
    <path d="M443.74909 804.39493 L448.08329 809.91176" />
    <path d="M461.25996 804.6854 L466.24571 809.62129" />
    <path d="M478.72537 805.128 L484.4536 809.17868" />
    <path d="M496.1969 805.78322 L502.65537 808.52346" />
    <path d="M513.78947 806.66212 L520.73609 807.64457" />
    <path d="M531.62612 807.64457 L538.57274 806.66212" />
    <path d="M549.70684 808.52346 L556.16531 805.78322" />
    <path d="M567.9086 809.17868 L573.63684 805.128" />
    <path d="M586.11649 809.62129 L591.10224 804.6854" />
    <path d="M604.27891 809.91176 L608.61312 804.39493" />
    <path d="M622.38589 810.10418 L626.17944 804.20251" />
    <path d="M640.44325 810.2349 L643.79537 804.07179" />
    <path d="M658.46026 810.32636 L661.45166 803.98032" />
    <path d="M676.44547 810.39223 L679.13974 803.91445" />
    <path d="M694.4058 810.44095 L696.85271 803.86574" />
    <path d="M712.34655 810.47783 L714.58526 803.82885" />
    <path d="M730.27176 810.50635 L732.33334 803.80034" />
    <path d="M732.68932 829.15477 L729.91578 835.599" />
    <path d="M714.9616 829.20386 L711.9702 835.54991" />
    <path d="M697.25007 829.26591 L694.00844 835.48786" />
    <path d="M679.55777 829.34549 L676.02744 835.40828" />
    <path d="M661.88811 829.44909 L658.02381 835.30468" />
    <path d="M644.24445 829.58601 L639.99417 835.16776" />
    <path d="M626.62918 829.76938 L621.93615 834.98439" />
    <path d="M609.04151 830.0171 L603.85052 834.73667" />
    <path d="M591.47349 830.35154 L585.74525 834.40223" />
    <path d="M573.90384 830.79535 L567.6416 833.95842" />
    <path d="M556.29317 831.35948 L549.57898 833.39429" />
    <path d="M538.58954 832.02431 L531.60932 832.72946" />
    <path d="M520.75289 832.72946 L513.77267 832.02431" />
    <path d="M502.78322 833.39429 L496.06904 831.35948" />
    <path d="M484.72061 833.95842 L478.45836 830.79535" />
    <path d="M466.61695 834.40223 L460.88872 830.35154" />
    <path d="M448.51169 834.73667 L443.32069 830.0171" />
    <path d="M430.42605 834.98439 L425.73303 829.76938" />
    <path d="M412.36803 835.16776 L408.11775 829.58601" />
    <path d="M394.33839 835.30468 L390.4741 829.44909" />
    <path d="M376.33476 835.40828 L372.80443 829.34549" />
    <path d="M358.35377 835.48786 L355.11214 829.26591" />
    <path d="M340.392 835.54991 L337.4006 829.20386" />
    <path d="M322.44643 835.599 L319.67289 829.15477" />
    <path d="M319.36123 854.53114 L322.75808 860.66972" />
    <path d="M337.07817 854.6005 L340.71444 860.60035" />
    <path d="M354.7807 854.686 L358.6852 860.51486" />
    <path d="M372.46728 854.79233 L376.67192 860.40853" />
    <path d="M390.13673 854.92564 L394.67576 860.27521" />
    <path d="M407.78888 855.09383 L412.6969 860.10702" />
    <path d="M425.42555 855.30662 L430.73353 859.89423" />
    <path d="M443.05207 855.57509 L448.78031 859.62577" />
    <path d="M460.67918 855.90992 L466.82649 859.29094" />
    <path d="M478.32452 856.31776 L484.85444 858.88309" />
    <path d="M496.01183 856.79563 L502.84044 858.40523" />
    <path d="M513.76568 857.32566 L520.75987 857.8752" />
    <path d="M531.60233 857.8752 L538.59652 857.32566" />
    <path d="M549.52177 858.40523 L556.35038 856.79563" />
    <path d="M567.50776 858.88309 L574.03768 856.31776" />
    <path d="M585.53571 859.29094 L591.68302 855.90992" />
    <path d="M603.5819 859.62577 L609.31013 855.57509" />
    <path d="M621.62868 859.89423 L626.93665 855.30662" />
    <path d="M639.6653 860.10702 L644.57332 855.09383" />
    <path d="M657.68644 860.27521 L662.22547 854.92564" />
    <path d="M675.69029 860.40853 L679.89493 854.79233" />
    <path d="M693.677 860.51486 L697.5815 854.686" />
    <path d="M711.64776 860.60035 L715.28404 854.6005" />
    <path d="M729.60413 860.66972 L733.00097 854.53114" />
    <path d="M733.26776 879.91826 L729.33734 885.72967" />
    <path d="M715.55388 880.00519 L711.37792 885.64275" />
    <path d="M697.85144 880.10973 L693.40707 885.53821" />
    <path d="M680.16066 880.23602 L675.42455 885.41192" />
    <path d="M662.48108 880.38903 L657.43084 885.25891" />
    <path d="M644.81098 880.5745 L639.42764 885.07344" />
    <path d="M627.14678 880.79863 L621.41855 884.84931" />
    <path d="M609.48232 881.06725 L603.40972 884.58069" />
    <path d="M591.80827 881.38446 L585.41046 884.26348" />
    <path d="M574.11232 881.75053 L567.43312 883.89741" />
    <path d="M556.38048 882.15969 L549.49167 883.48825" />
    <path d="M538.60007 882.59893 L531.59878 883.04901" />
    <path d="M520.76343 883.04901 L513.76213 882.59893" />
    <path d="M502.87053 883.48825 L495.98173 882.15969" />
    <path d="M484.92908 883.89741 L478.24989 881.75053" />
    <path d="M466.95174 884.26348 L460.55393 881.38446" />
    <path d="M448.95249 884.58069 L442.87989 881.06725" />
    <path d="M430.94366 884.84931 L425.21542 880.79863" />
    <path d="M412.93456 885.07344 L407.55122 880.5745" />
    <path d="M394.93137 885.25891 L389.88112 880.38903" />
    <path d="M376.93766 885.41192 L372.20154 880.23602" />
    <path d="M358.95513 885.53821 L354.51077 880.10973" />
    <path d="M340.98429 885.64275 L336.80832 880.00519" />
    <path d="M323.02487 885.72967 L319.09444 879.91826" />
    <path d="M318.86948 905.30738 L323.24983 910.78764" />
    <path d="M336.58572 905.40812 L341.20688 910.6869" />
    <path d="M354.29372 905.52653 L359.17218 910.56849" />
    <path d="M371.99412 905.6659 L377.14508 910.42912" />
    <path d="M389.68831 905.82985 L395.12418 910.26517" />
    <path d="M407.37877 906.02217 L413.10701 910.07285" />
    <path d="M425.06938 906.24637 L431.0897 909.84865" />
    <path d="M442.7656 906.50511 L449.06677 909.58991" />
    <path d="M460.47457 906.79925 L467.0311 909.29577" />
    <path d="M478.20457 907.12689 L484.9744 908.96813" />
    <path d="M495.96405 907.48255 L502.88821 908.61248" />
    <path d="M513.76008 907.85698 L520.76547 908.23804" />
    <path d="M531.59673 908.23804 L538.60212 907.85698" />
    <path d="M549.47399 908.61248 L556.39815 907.48255" />
    <path d="M567.38781 908.96813 L574.15763 907.12689" />
    <path d="M585.3311 909.29577 L591.88763 906.79925" />
    <path d="M603.29543 909.58991 L609.5966 906.50511" />
    <path d="M621.2725 909.84865 L627.29283 906.24637" />
    <path d="M639.25519 910.07285 L644.98343 906.02217" />
    <path d="M657.23802 910.26517 L662.6739 905.82985" />
    <path d="M675.21713 910.42912 L680.36809 905.6659" />
    <path d="M693.19003 910.56849 L698.06848 905.52653" />
    <path d="M711.15532 910.6869 L715.77648 905.40812" />
    <path d="M729.11237 910.78764 L733.49273 905.30738" />
    <path d="M733.68074 930.69241 L728.92436 935.84969" />
    <path d="M715.95878 930.80311 L710.97303 935.739" />
    <path d="M698.2422 930.9306 L693.01631 935.6115" />
    <path d="M680.52989 931.07732 L675.05533 935.46479" />
    <path d="M662.82008 931.24571 L657.09184 935.29639" />
    <path d="M645.11019 931.43807 L639.12843 935.10403" />
    <path d="M627.39673 931.65619 L621.1686 934.88592" />
    <path d="M609.67525 931.90093 L603.21678 934.64117" />
    <path d="M591.94055 932.17176 L585.27819 934.37034" />
    <path d="M574.18703 932.46625 L567.35842 934.07585" />
    <path d="M556.40938 932.77983 L549.46276 933.76228" />
    <path d="M538.60341 933.10587 L531.59544 933.43624" />
    <path d="M520.76676 933.43624 L513.7588 933.10587" />
    <path d="M502.89944 933.76228 L495.95282 932.77983" />
    <path d="M485.00379 934.07585 L478.17518 932.46625" />
    <path d="M467.08401 934.37034 L460.42166 932.17176" />
    <path d="M449.14542 934.64117 L442.68695 931.90093" />
    <path d="M431.1936 934.88592 L424.96548 931.65619" />
    <path d="M413.23377 935.10403 L407.25201 931.43807" />
    <path d="M395.27036 935.29639 L389.54213 931.24571" />
    <path d="M377.30688 935.46479 L371.83232 931.07732" />
    <path d="M359.34589 935.6115 L354.12001 930.9306" />
    <path d="M341.38918 935.739 L336.40343 930.80311" />
    <path d="M323.43785 935.84969 L318.68146 930.69241" />
  </g>
</svg>