<?xml version="1.0" standalone="no"?>
<!DOCTYPE svg PUBLIC "-//W3C//DTD SVG 1.1//EN" 
    "http://www.w3.org/Graphics/SVG/1.1/DTD/svg11.dtd">
<svg width="29.7cm" height="42cm"
    xmlns="http://www.w3.org/2000/svg" version="1.1" viewBox="0 0 1052.3622 1488.18898">
  <g fill="none" stroke="black" stroke-width="0.1cm" stroke-linejoin="round" stroke-linecap="round">
    <path d="M323.27073 557.64121 L318.84858 552.19463" />
    <path d="M337.21098 551.84142 L340.58163 557.99443" />
    <path d="M357.00532 558.41521 L356.46058 551.42064" />
    <path d="M372.94094 558.0248 L376.19826 551.81105" />
    <path d="M389.76971 557.23176 L395.04278 552.60408" />
    <path d="M407.25902 556.76228 L413.22677 553.07356" />
    <path d="M425.01479 556.62453 L431.14429 553.21132" />
    <path d="M442.99249 556.85627 L448.83988 552.97958" />
    <path d="M462.00317 557.95829 L465.5025 551.87755" />
    <path d="M478.80623 552.78282 L484.37274 557.05303" />
    <path d="M495.9826 554.24914 L502.86966 555.5867" />
    <path d="M513.75905 554.74737 L520.7665 555.08847" />
    <path d="M531.5957 555.08847 L538.60315 554.74737" />
    <path d="M549.49254 555.5867 L556.37961 554.24914" />
    <path d="M567.98947 557.05303 L573.55597 552.78282" />
    <path d="M586.8597 551.87755 L590.35903 557.95829" />
    <path d="M603.52232 552.97958 L609.36971 556.85627" />
    <path d="M621.21792 553.21132 L627.34741 556.62453" />
    <path d="M639.13543 553.07356 L645.10319 556.76228" />
    <path d="M657.31942 552.60408 L662.5925 557.23176" />
    <path d="M676.16395 551.81105 L679.42126 558.0248" />
    <path d="M695.35689 558.41521 L695.90162 551.42064" />
    <path d="M711.78058 557.99443 L715.15122 551.84142" />
    <path d="M729.09147 557.64121 L733.51363 552.19463" />
    <path d="M733.32122 577.27264 L729.28388 583.01029" />
    <path d="M714.97037 576.97259 L711.96143 583.31034" />
    <path d="M695.86548 576.64155 L695.39303 583.64138" />
    <path d="M695.82927 601.86284 L695.42924 608.86717" />
    <path d="M712.15827 608.62005 L714.77353 602.10997" />
    <path d="M733.09714 602.35094 L729.50796 608.37908" />
    <path d="M732.83881 627.43497 L729.76629 633.74213" />
    <path d="M714.56123 627.25607 L712.37057 633.92103" />
    <path d="M695.79299 627.0845 L695.46552 634.0926" />
    <path d="M695.75666 652.30653 L695.50185 659.31765" />
    <path d="M712.59708 659.21067 L714.33472 652.41351" />
    <path d="M732.54544 652.53178 L730.05966 659.0924" />
    <path d="M732.21895 677.64957 L730.38615 684.42169" />
    <path d="M714.09603 677.58482 L712.83578 684.48645" />
    <path d="M713.84794 702.77217 L713.08386 709.74618" />
    <path d="M730.74029 709.7217 L731.8648 702.79665" />
    <path d="M731.49214 727.97997 L731.11295 734.98546" />
    <path d="M731.11295 753.20351 L731.49214 760.20901" />
    <path d="M730.74029 778.46728 L731.8648 785.39232" />
    <path d="M730.38615 803.76728 L732.21895 810.5394" />
    <path d="M730.05966 829.09658 L732.54544 835.65719" />
    <path d="M729.76629 854.44685 L732.83881 860.75401" />
    <path d="M729.50796 879.8099 L733.09714 885.83804" />
    <path d="M729.28388 905.17869 L733.32122 910.91633" />
    <path d="M729.09147 930.54776 L733.51363 935.99434" />
    <path d="M711.78058 930.19455 L715.15122 936.34756" />
    <path d="M695.35689 929.77377 L695.90162 936.76834" />
    <path d="M679.42126 930.16418 L676.16395 936.37792" />
    <path d="M662.5925 930.95721 L657.31942 935.58489" />
    <path d="M645.10319 931.42669 L639.13543 935.11541" />
    <path d="M627.34741 931.56445 L621.21792 934.97766" />
    <path d="M609.36971 931.33271 L603.52232 935.2094" />
    <path d="M590.35903 930.23068 L586.8597 936.31142" />
    <path d="M567.98947 931.13594 L573.55597 935.40616" />
    <path d="M549.49254 932.60227 L556.37961 933.93983" />
    <path d="M531.5957 933.1005 L538.60315 933.4416" />
    <path d="M513.75905 933.4416 L520.7665 933.1005" />
    <path d="M495.9826 933.93983 L502.86966 932.60227" />
    <path d="M478.80623 935.40616 L484.37274 931.13594" />
    <path d="M465.5025 936.31142 L462.00317 930.23068" />
    <path d="M448.83988 935.2094 L442.99249 931.33271" />
    <path d="M431.14429 934.97766 L425.01479 931.56445" />
    <path d="M413.22677 935.11541 L407.25902 931.42669" />
    <path d="M395.04278 935.58489 L389.76971 930.95721" />
    <path d="M376.19826 936.37792 L372.94094 930.16418" />
    <path d="M356.46058 936.76834 L357.00532 929.77377" />
    <path d="M340.58163 930.19455 L337.21098 936.34756" />
    <path d="M318.84858 935.99434 L323.27073 930.54776" />
    <path d="M319.04098 910.91633 L323.07833 905.17869" />
    <path d="M337.39184 911.21638 L340.40077 904.87864" />
    <path d="M356.49672 911.54742 L356.96918 904.5476" />
    <path d="M373.11864 904.85378 L376.02056 911.24124" />
    <path d="M394.87108 910.54346 L389.94141 905.55156" />
    <path d="M407.38696 906.01065 L413.09883 910.08437" />
    <path d="M431.03074 909.94372 L425.12834 906.1513" />
    <path d="M443.13004 905.91618 L448.70233 910.17884" />
    <path d="M465.31846 911.18662 L462.18721 904.9084" />
    <path d="M478.96279 910.37252 L484.21618 905.7225" />
    <path d="M496.00315 908.81457 L502.84911 907.28045" />
    <path d="M513.76042 908.24422 L520.76513 907.8508" />
    <path d="M531.59707 907.8508 L538.60178 908.24422" />
    <path d="M549.51309 907.28045 L556.35905 908.81457" />
    <path d="M568.14603 905.7225 L573.39941 910.37252" />
    <path d="M590.17499 904.9084 L587.04375 911.18662" />
    <path d="M609.23216 905.91618 L603.65987 910.17884" />
    <path d="M627.23386 906.1513 L621.33146 909.94372" />
    <path d="M644.97525 906.01065 L639.26337 910.08437" />
    <path d="M662.4208 905.55156 L657.49112 910.54346" />
    <path d="M679.24357 904.85378 L676.34164 911.24124" />
    <path d="M695.39303 904.5476 L695.86548 911.54742" />
    <path d="M711.96143 904.87864 L714.97037 911.21638" />
    <path d="M712.15827 879.56893 L714.77353 886.07901" />
    <path d="M695.42924 879.3218 L695.82927 886.32614" />
    <path d="M679.05131 879.5497 L676.53391 886.09824" />
    <path d="M662.20526 880.13216 L657.70666 885.51578" />
    <path d="M644.80151 880.56321 L639.43712 885.08472" />
    <path d="M627.07639 880.70258 L621.48894 884.94536" />
    <path d="M609.04814 880.47149 L603.8439 885.17645" />
    <path d="M589.97327 879.5921 L587.24547 886.05583" />
    <path d="M568.34876 880.28831 L573.19668 885.35963" />
    <path d="M549.5451 881.92592 L556.32704 883.72202" />
    <path d="M531.59925 882.59164 L538.5996 883.0563" />
    <path d="M513.76261 883.0563 L520.76295 882.59164" />
    <path d="M496.03516 883.72202 L502.8171 881.92592" />
    <path d="M479.16552 885.35963 L484.01345 880.28831" />
    <path d="M465.11674 886.05583 L462.38893 879.5921" />
    <path d="M448.51831 885.17645 L443.31407 880.47149" />
    <path d="M430.87326 884.94536 L425.28582 880.70258" />
    <path d="M412.92509 885.08472 L407.5607 880.56321" />
    <path d="M394.65554 885.51578 L390.15695 880.13216" />
    <path d="M375.8283 886.09824 L373.3109 879.5497" />
    <path d="M356.53294 886.32614 L356.93297 879.3218" />
    <path d="M340.20393 879.56893 L337.58868 886.07901" />
    <path d="M319.26507 885.83804 L322.85425 879.8099" />
    <path d="M319.52339 860.75401 L322.59592 854.44685" />
    <path d="M337.80097 860.93291 L339.99163 854.26795" />
    <path d="M356.56921 861.10448 L356.89669 854.09638" />
    <path d="M373.51711 854.25417 L375.62209 860.94669" />
    <path d="M394.38604 860.49622 L390.42645 854.70464" />
    <path d="M407.7996 855.08339 L412.68619 860.11746" />
    <path d="M430.65071 859.98669 L425.50837 855.21416" />
    <path d="M443.56236 854.99953 L448.27002 860.20132" />
    <path d="M464.89773 860.91621 L462.60794 854.28465" />
    <path d="M479.42836 860.36353 L483.75061 854.83733" />
    <path d="M496.08874 858.6807 L502.76352 856.52015" />
    <path d="M513.76639 857.88408 L520.75917 857.31677" />
    <path d="M531.60304 857.31677 L538.59581 857.88408" />
    <path d="M549.59868 856.52015 L556.27347 858.6807" />
    <path d="M568.61159 854.83733 L572.93385 860.36353" />
    <path d="M589.75426 854.28465 L587.46447 860.91621" />
    <path d="M608.79985 854.99953 L604.09219 860.20132" />
    <path d="M626.85383 855.21416 L621.71149 859.98669" />
    <path d="M644.56261 855.08339 L639.67601 860.11746" />
    <path d="M661.93575 854.70464 L657.97617 860.49622" />
    <path d="M678.84509 854.25417 L676.74012 860.94669" />
    <path d="M695.46552 854.09638 L695.79299 861.10448" />
    <path d="M712.37057 854.26795 L714.56123 860.93291" />
    <path d="M712.59708 828.97831 L714.33472 835.77546" />
    <path d="M695.50185 828.87133 L695.75666 835.88244" />
    <path d="M678.62617 828.96949 L676.95905 835.78428" />
    <path d="M661.6029 829.27967 L658.30901 835.4741" />
    <path d="M644.23297 829.57731 L640.00565 835.17646" />
    <path d="M626.53582 829.6883 L622.02951 835.06547" />
    <path d="M608.46514 829.50838 L604.42689 835.24539" />
    <path d="M589.51919 828.98905 L587.69955 835.76472" />
    <path d="M568.94961 829.37998 L572.59583 835.37379" />
    <path d="M549.69747 831.02907 L556.17468 833.7247" />
    <path d="M531.61048 832.01296 L538.58837 832.74081" />
    <path d="M513.77383 832.74081 L520.75172 832.01296" />
    <path d="M496.18752 833.7247 L502.66474 831.02907" />
    <path d="M483.41259 829.37998 L479.76637 835.37379" />
    <path d="M464.66266 835.76472 L462.84301 828.98905" />
    <path d="M447.93531 835.24539 L443.89706 829.50838" />
    <path d="M430.3327 835.06547 L425.82639 829.6883" />
    <path d="M412.35655 835.17646 L408.12924 829.57731" />
    <path d="M394.05319 835.4741 L390.7593 829.27967" />
    <path d="M375.40316 835.78428 L373.73604 828.96949" />
    <path d="M356.86036 828.87133 L356.60555 835.88244" />
    <path d="M338.02748 835.77546 L339.76512 828.97831" />
    <path d="M322.30254 829.09658 L319.81677 835.65719" />
    <path d="M320.14326 810.5394 L321.97605 803.76728" />
    <path d="M338.26618 810.60416 L339.52643 803.70253" />
    <path d="M356.82398 803.64665 L356.64192 810.66004" />
    <path d="M375.17341 810.60886 L373.96579 803.69783" />
    <path d="M391.1607 803.87405 L393.65179 810.43264" />
    <path d="M411.90793 810.24087 L408.57785 804.06582" />
    <path d="M426.27784 804.14351 L429.88124 810.16317" />
    <path d="M447.49193 810.28739 L444.34045 804.0193" />
    <path d="M463.09198 803.70828 L464.41369 810.59841" />
    <path d="M480.19151 810.37062 L482.98746 803.93607" />
    <path d="M496.39519 808.91929 L502.45707 805.3874" />
    <path d="M513.79172 807.66022 L520.73384 806.64647" />
    <path d="M531.62837 806.64647 L538.57049 807.66022" />
    <path d="M549.90513 805.3874 L555.96702 808.91929" />
    <path d="M569.37475 803.93607 L572.1707 810.37062" />
    <path d="M589.27022 803.70828 L587.94852 810.59841" />
    <path d="M608.02176 804.0193 L604.87028 810.28739" />
    <path d="M626.08436 804.14351 L622.48097 810.16317" />
    <path d="M643.78435 804.06582 L640.45427 810.24087" />
    <path d="M661.20151 803.87405 L658.71041 810.43264" />
    <path d="M678.39641 803.69783 L677.1888 810.60886" />
    <path d="M695.53822 803.64665 L695.72029 810.66004" />
    <path d="M712.83578 803.70253 L714.09603 810.60416" />
    <path d="M713.08386 778.44279 L713.84794 785.41681" />
    <path d="M695.57462 778.42235 L695.68389 785.43725" />
    <path d="M678.15838 778.44105 L677.42684 785.41855" />
    <path d="M660.73539 778.50962 L659.17652 785.34999" />
    <path d="M643.19922 778.59229 L641.0394 785.26731" />
    <path d="M625.4684 778.62841 L623.09693 785.2312" />
    <path d="M607.45914 778.57141 L605.4329 785.28819" />
    <path d="M589.01046 778.44493 L588.20828 785.41467" />
    <path d="M569.88775 778.53539 L571.65769 785.32421" />
    <path d="M550.41949 779.48604 L555.45266 784.37357" />
    <path d="M531.69105 781.10026 L538.5078 782.75934" />
    <path d="M513.8544 782.75934 L520.67116 781.10026" />
    <path d="M501.94271 779.48604 L496.90955 784.37357" />
    <path d="M480.70452 785.32421 L482.47445 778.53539" />
    <path d="M481.28578 760.20096 L481.89319 753.21156" />
    <path d="M498.28723 760.0241 L500.56503 753.38842" />
    <path d="M514.42971 758.77482 L520.09584 754.6377" />
    <path d="M532.26636 754.6377 L537.93249 758.77482" />
    <path d="M551.79717 753.38842 L554.07498 760.0241" />
    <path d="M570.46902 753.21156 L571.07643 760.20096" />
    <path d="M588.74385 753.20096 L588.47489 760.21155" />
    <path d="M606.79699 753.21599 L606.09505 760.19653" />
    <path d="M624.69965 753.22326 L623.86568 760.18926" />
    <path d="M642.49547 753.21861 L641.74315 760.19391" />
    <path d="M660.22167 753.20846 L659.69025 760.20406" />
    <path d="M677.91512 753.20053 L677.67009 760.21199" />
    <path d="M695.61104 753.19843 L695.64747 760.21409" />
    <path d="M713.33788 753.20072 L713.59392 760.2118" />
    <path d="M713.59392 727.97718 L713.33788 734.98825" />
    <path d="M695.64747 727.97489 L695.61104 734.99054" />
    <path d="M677.67009 727.97698 L677.91512 734.98845" />
    <path d="M659.69025 727.98492 L660.22167 734.98051" />
    <path d="M641.74315 727.99507 L642.49547 734.97036" />
    <path d="M623.86568 727.99972 L624.69965 734.96572" />
    <path d="M606.09505 727.99244 L606.79699 734.97299" />
    <path d="M588.47489 727.97742 L588.74385 734.98801" />
    <path d="M571.07643 727.98801 L570.46902 734.97742" />
    <path d="M554.07498 728.16487 L551.79717 734.80056" />
    <path d="M537.93249 729.41416 L532.26636 733.55127" />
    <path d="M520.09584 733.55127 L514.42971 729.41416" />
    <path d="M500.56503 734.80056 L498.28723 728.16487" />
    <path d="M481.89319 734.97742 L481.28578 727.98801" />
    <path d="M463.88732 727.97742 L463.61835 734.98801" />
    <path d="M445.56522 734.97299 L446.26716 727.99244" />
    <path d="M428.49653 727.99972 L427.66255 734.96572" />
    <path d="M409.86673 734.97036 L410.61906 727.99507" />
    <path d="M392.67195 727.98492 L392.14054 734.98051" />
    <path d="M374.44708 734.98845 L374.69211 727.97698" />
    <path d="M356.71474 727.97489 L356.75116 734.99054" />
    <path d="M339.02433 734.98825 L338.76828 727.97718" />
    <path d="M320.87006 727.97997 L321.24925 734.98546" />
    <path d="M320.87006 760.20901 L321.24925 753.20351" />
    <path d="M338.76828 760.2118 L339.02433 753.20072" />
    <path d="M356.71474 760.21409 L356.75116 753.19843" />
    <path d="M374.69211 760.21199 L374.44708 753.20053" />
    <path d="M392.67195 760.20406 L392.14054 753.20846" />
    <path d="M410.61906 760.19391 L409.86673 753.21861" />
    <path d="M428.49653 760.18926 L427.66255 753.22326" />
    <path d="M446.26716 760.19653 L445.56522 753.21599" />
    <path d="M463.88732 760.21155 L463.61835 753.20096" />
    <path d="M464.15393 785.41467 L463.35174 778.44493" />
    <path d="M446.92931 785.28819 L444.90307 778.57141" />
    <path d="M429.26528 785.2312 L426.8938 778.62841" />
    <path d="M411.3228 785.26731 L409.16298 778.59229" />
    <path d="M393.18568 785.34999 L391.62681 778.50962" />
    <path d="M374.93537 785.41855 L374.20383 778.44105" />
    <path d="M356.67832 785.43725 L356.78758 778.42235" />
    <path d="M338.51426 785.41681 L339.27834 778.44279" />
    <path d="M320.4974 785.39232 L321.62191 778.46728" />
    <path d="M321.62191 709.7217 L320.4974 702.79665" />
    <path d="M338.51426 702.77217 L339.27834 709.74618" />
    <path d="M356.78758 709.76662 L356.67832 702.75173" />
    <path d="M356.82398 684.54233 L356.64192 677.52894" />
    <path d="M356.86036 659.31765 L356.60555 652.30653" />
    <path d="M339.76512 659.21067 L338.02748 652.41351" />
    <path d="M322.30254 659.0924 L319.81677 652.53178" />
    <path d="M322.59592 633.74213 L319.52339 627.43497" />
    <path d="M337.80097 627.25607 L339.99163 633.92103" />
    <path d="M356.89669 634.0926 L356.56921 627.0845" />
    <path d="M356.93297 608.86717 L356.53294 601.86284" />
    <path d="M340.20393 608.62005 L337.58868 602.10997" />
    <path d="M322.85425 608.37908 L319.26507 602.35094" />
    <path d="M323.07833 583.01029 L319.04098 577.27264" />
    <path d="M337.39184 576.97259 L340.40077 583.31034" />
    <path d="M356.96918 583.64138 L356.49672 576.64155" />
    <path d="M373.11864 583.33519 L376.02056 576.94774" />
    <path d="M389.94141 582.63741 L394.87108 577.64552" />
    <path d="M407.38696 582.17833 L413.09883 578.10461" />
    <path d="M425.12834 582.03767 L431.03074 578.24526" />
    <path d="M443.13004 582.2728 L448.70233 578.01013" />
    <path d="M462.18721 583.28057 L465.31846 577.00236" />
    <path d="M478.96279 577.81646 L484.21618 582.46647" />
    <path d="M496.00315 579.3744 L502.84911 580.90853" />
    <path d="M513.76042 579.94475 L520.76513 580.33818" />
    <path d="M531.59707 580.33818 L538.60178 579.94475" />
    <path d="M549.51309 580.90853 L556.35905 579.3744" />
    <path d="M568.14603 582.46647 L573.39941 577.81646" />
    <path d="M587.04375 577.00236 L590.17499 583.28057" />
    <path d="M603.65987 578.01013 L609.23216 582.2728" />
    <path d="M621.33146 578.24526 L627.23386 582.03767" />
    <path d="M639.26337 578.10461 L644.97525 582.17833" />
    <path d="M657.49112 577.64552 L662.4208 582.63741" />
    <path d="M676.34164 576.94774 L679.24357 583.33519" />
    <path d="M676.53391 602.09074 L679.05131 608.63928" />
    <path d="M676.74012 627.24229 L678.84509 633.93481" />
    <path d="M676.95905 652.40469 L678.62617 659.21949" />
    <path d="M677.1888 677.58012 L678.39641 684.49115" />
    <path d="M677.42684 702.77042 L678.15838 709.74793" />
    <path d="M695.68389 702.75173 L695.57462 709.76662" />
    <path d="M695.72029 677.52894 L695.53822 684.54233" />
    <path d="M658.71041 677.75634 L661.20151 684.31493" />
    <path d="M659.17652 702.83899 L660.73539 709.67936" />
    <path d="M641.0394 702.92167 L643.19922 709.59669" />
    <path d="M623.09693 702.95778 L625.4684 709.56057" />
    <path d="M605.4329 702.90079 L607.45914 709.61756" />
    <path d="M588.20828 702.77431 L589.01046 709.74404" />
    <path d="M571.65769 702.86477 L569.88775 709.65358" />
    <path d="M555.45266 703.81541 L550.41949 708.70294" />
    <path d="M538.5078 705.42963 L531.69105 707.08872" />
    <path d="M520.67116 707.08872 L513.8544 705.42963" />
    <path d="M501.94271 708.70294 L496.90955 703.81541" />
    <path d="M482.47445 709.65358 L480.70452 702.86477" />
    <path d="M463.35174 709.74404 L464.15393 702.77431" />
    <path d="M446.92931 702.90079 L444.90307 709.61756" />
    <path d="M426.8938 709.56057 L429.26528 702.95778" />
    <path d="M411.3228 702.92167 L409.16298 709.59669" />
    <path d="M391.62681 709.67936 L393.18568 702.83899" />
    <path d="M374.93537 702.77042 L374.20383 709.74793" />
    <path d="M373.96579 684.49115 L375.17341 677.58012" />
    <path d="M391.1607 684.31493 L393.65179 677.75634" />
    <path d="M408.57785 684.12316 L411.90793 677.94811" />
    <path d="M426.27784 684.04546 L429.88124 678.0258" />
    <path d="M444.34045 684.16968 L447.49193 677.90159" />
    <path d="M463.09198 684.4807 L464.41369 677.59057" />
    <path d="M480.19151 677.81836 L482.98746 684.25291" />
    <path d="M502.45707 682.80158 L496.39519 679.26969" />
    <path d="M513.79172 680.52876 L520.73384 681.54251" />
    <path d="M538.57049 680.52876 L531.62837 681.54251" />
    <path d="M555.96702 679.26969 L549.90513 682.80158" />
    <path d="M572.1707 677.81836 L569.37475 684.25291" />
    <path d="M587.94852 677.59057 L589.27022 684.4807" />
    <path d="M604.87028 677.90159 L608.02176 684.16968" />
    <path d="M622.48097 678.0258 L626.08436 684.04546" />
    <path d="M640.45427 677.94811 L643.78435 684.12316" />
    <path d="M661.6029 658.90931 L658.30901 652.71487" />
    <path d="M640.00565 653.01251 L644.23297 658.61167" />
    <path d="M622.02951 653.12351 L626.53582 658.50067" />
    <path d="M604.42689 652.94359 L608.46514 658.6806" />
    <path d="M587.69955 652.42426 L589.51919 659.19992" />
    <path d="M572.59583 652.81518 L568.94961 658.809" />
    <path d="M556.17468 654.46428 L549.69747 657.15991" />
    <path d="M538.58837 655.44817 L531.61048 656.17601" />
    <path d="M520.75172 656.17601 L513.77383 655.44817" />
    <path d="M502.66474 657.15991 L496.18752 654.46428" />
    <path d="M483.41259 658.809 L479.76637 652.81518" />
    <path d="M462.84301 659.19992 L464.66266 652.42426" />
    <path d="M447.93531 652.94359 L443.89706 658.6806" />
    <path d="M425.82639 658.50067 L430.3327 653.12351" />
    <path d="M412.35655 653.01251 L408.12924 658.61167" />
    <path d="M390.7593 658.90931 L394.05319 652.71487" />
    <path d="M375.40316 652.40469 L373.73604 659.21949" />
    <path d="M373.51711 633.93481 L375.62209 627.24229" />
    <path d="M390.42645 633.48434 L394.38604 627.69276" />
    <path d="M407.7996 633.10559 L412.68619 628.07151" />
    <path d="M425.50837 632.97481 L430.65071 628.20228" />
    <path d="M443.56236 633.18945 L448.27002 627.98765" />
    <path d="M462.60794 633.90433 L464.89773 627.27277" />
    <path d="M479.42836 627.82545 L483.75061 633.35165" />
    <path d="M502.76352 631.66882 L496.08874 629.50827" />
    <path d="M513.76639 630.3049 L520.75917 630.8722" />
    <path d="M538.59581 630.3049 L531.60304 630.8722" />
    <path d="M556.27347 629.50827 L549.59868 631.66882" />
    <path d="M572.93385 627.82545 L568.61159 633.35165" />
    <path d="M587.46447 627.27277 L589.75426 633.90433" />
    <path d="M604.09219 627.98765 L608.79985 633.18945" />
    <path d="M621.71149 628.20228 L626.85383 632.97481" />
    <path d="M639.67601 628.07151 L644.56261 633.10559" />
    <path d="M657.97617 627.69276 L661.93575 633.48434" />
    <path d="M657.70666 602.6732 L662.20526 608.05682" />
    <path d="M639.43712 603.10425 L644.80151 607.62576" />
    <path d="M621.48894 603.24362 L627.07639 607.4864" />
    <path d="M603.8439 603.01253 L609.04814 607.71748" />
    <path d="M587.24547 602.13314 L589.97327 608.59687" />
    <path d="M573.19668 602.82934 L568.34876 607.90067" />
    <path d="M556.32704 604.46696 L549.5451 606.26306" />
    <path d="M538.5996 605.13268 L531.59925 605.59734" />
    <path d="M520.76295 605.59734 L513.76261 605.13268" />
    <path d="M502.8171 606.26306 L496.03516 604.46696" />
    <path d="M484.01345 607.90067 L479.16552 602.82934" />
    <path d="M462.38893 608.59687 L465.11674 602.13314" />
    <path d="M443.31407 607.71748 L448.51831 603.01253" />
    <path d="M425.28582 607.4864 L430.87326 603.24362" />
    <path d="M407.5607 607.62576 L412.92509 603.10425" />
    <path d="M390.15695 608.05682 L394.65554 602.6732" />
    <path d="M375.8283 602.09074 L373.3109 608.63928" />
    <path d="M339.52643 684.48645 L338.26618 677.58482" />
    <path d="M321.97605 684.42169 L320.14326 677.64957" />
  </g>
</svg>