<?xml version="1.0" standalone="no"?>
<!DOCTYPE svg PUBLIC "-//W3C//DTD SVG 1.1//EN" 
    "http://www.w3.org/Graphics/SVG/1.1/DTD/svg11.dtd">
<svg width="29.7cm" height="42cm"
    xmlns="http://www.w3.org/2000/svg" version="1.1" viewBox="0 0 1052.3622 1488.18898">
  <g fill="none" stroke="black" stroke-width="0.1cm" stroke-linejoin="round" stroke-linecap="round">
    <path d="M214.11869 434.06143 L214.03355 428.38583" />
    <path d="M231.86986 428.38583 L231.95972 434.06137" />
    <path d="M231.78342 448.76277 L231.96942 459.28474" />
    <path d="M231.77089 473.98654 L231.98194 484.50805" />
    <path d="M231.754 499.21045 L231.99884 509.73123" />
    <path d="M231.72973 524.43462 L232.02311 534.95415" />
    <path d="M231.69141 549.65937 L232.06142 560.17648" />
    <path d="M231.62033 574.88589 L232.1325 585.39704" />
    <path d="M231.43578 600.12168 L232.31706 610.60834" />
    <path d="M229.58851 625.85018 L234.16433 635.32692" />
    <path d="M232.40026 650.57642 L231.35258 661.04776" />
    <path d="M232.07129 675.77743 L231.68155 686.29383" />
    <path d="M231.96598 700.99813 L231.78685 711.52022" />
    <path d="M231.90356 726.22098 L231.84928 736.74446" />
    <path d="M231.84841 751.44452 L231.90443 761.968" />
    <path d="M231.77667 776.66894 L231.97617 787.19067" />
    <path d="M231.62594 801.8975 L232.1269 812.40919" />
    <path d="M230.59869 827.27257 L233.15415 837.4812" />
    <path d="M232.52341 852.37854 L231.22943 862.82231" />
    <path d="M232.16993 877.57035 L231.58291 888.07759" />
    <path d="M232.07466 902.78944 L231.67817 913.30559" />
    <path d="M232.02921 928.01146 L231.72363 938.53065" />
    <path d="M232.00209 953.23428 L231.75074 963.7549" />
    <path d="M231.98385 978.45742 L231.76899 988.97885" />
    <path d="M231.97061 1003.68071 L231.78223 1014.20265" />
    <path d="M231.9605 1028.90408 L231.79233 1039.42636" />
    <path d="M231.9525 1054.1275 L231.87043 1059.80315" />
    <path d="M249.70675 1059.80315 L249.79328 1054.12756" />
    <path d="M249.62455 1039.42629 L249.80158 1028.90415" />
    <path d="M249.61413 1014.20256 L249.812 1003.6808" />
    <path d="M249.60057 988.97875 L249.82556 978.45753" />
    <path d="M249.58205 963.75477 L249.84408 953.23442" />
    <path d="M249.55491 938.53049 L249.87122 928.01162" />
    <path d="M249.51042 913.30542 L249.91571 902.7896" />
    <path d="M249.42119 888.07768 L250.00495 877.57026" />
    <path d="M249.13135 862.82998 L250.29479 852.37087" />
    <path d="M267.01288 862.83478 L268.08655 852.36607" />
    <path d="M284.88046 862.83786 L285.89226 852.36299" />
    <path d="M282.32224 836.65448 L288.45048 828.09929" />
    <path d="M301.44548 837.32936 L305.00054 827.42441" />
    <path d="M319.77528 837.47954 L322.34403 827.27423" />
    <path d="M337.85561 837.53475 L339.937 827.21902" />
    <path d="M355.82926 837.56051 L357.63664 827.19326" />
    <path d="M373.74632 837.57389 L375.39288 827.17988" />
    <path d="M391.62787 837.58081 L393.18462 827.17296" />
    <path d="M389.74965 811.69528 L395.06284 802.61141" />
    <path d="M379.5703 805.51638 L369.5689 808.79031" />
    <path d="M353.58559 802.93662 L359.88032 811.37007" />
    <path d="M337.36679 802.11874 L340.42581 812.18795" />
    <path d="M320.12306 801.97556 L321.99625 812.33113" />
    <path d="M302.57433 801.93167 L303.87168 812.37502" />
    <path d="M284.90371 801.91371 L285.86901 812.39297" />
    <path d="M267.17341 801.90501 L267.92602 812.40168" />
    <path d="M262.38763 831.3573 L272.7118 833.39647" />
    <path d="M247.35469 827.67319 L252.07144 837.08058" />
    <path d="M249.40982 801.90028 L250.01631 812.40641" />
    <path d="M267.68424 787.18989 L267.41519 776.66971" />
    <path d="M285.22695 776.67041 L285.54577 787.1892" />
    <path d="M303.03083 776.6715 L303.41519 787.1881" />
    <path d="M320.82291 776.67332 L321.2964 787.18628" />
    <path d="M338.59646 776.67654 L339.19615 787.18306" />
    <path d="M356.33876 776.68278 L357.12714 787.17683" />
    <path d="M374.02314 776.69644 L375.11605 787.16316" />
    <path d="M391.58359 776.7327 L393.22891 787.1269" />
    <path d="M408.8097 776.86693 L411.67609 786.99267" />
    <path d="M412.00858 802.19663 L408.47721 812.11006" />
    <path d="M411.00241 827.17018 L409.48338 837.58359" />
    <path d="M410.75933 852.36402 L409.72645 862.83683" />
    <path d="M410.64411 877.57748 L409.84167 888.07046" />
    <path d="M410.5747 902.79617 L409.91108 913.29885" />
    <path d="M410.52745 928.01694 L409.95833 938.52516" />
    <path d="M410.49283 953.23872 L409.99296 963.75047" />
    <path d="M410.46617 978.46107 L410.01961 988.97521" />
    <path d="M410.44493 1003.68375 L410.04086 1014.19961" />
    <path d="M410.42754 1028.90665 L410.05824 1039.42379" />
    <path d="M410.41302 1054.1297 L410.22949 1059.80315" />
    <path d="M428.06406 1059.80315 L428.27593 1054.13062" />
    <path d="M427.86694 1039.42273 L428.29215 1028.90771" />
    <path d="M427.84765 1014.19838 L428.31143 1003.68498" />
    <path d="M427.82429 988.97375 L428.33479 978.46252" />
    <path d="M427.79532 963.74872 L428.36377 953.24047" />
    <path d="M427.75824 938.52305 L428.40084 928.01906" />
    <path d="M427.70872 913.29624 L428.45037 902.79878" />
    <path d="M427.63827 888.06724 L428.52082 877.58069" />
    <path d="M427.52734 862.83318 L428.63174 852.36767" />
    <path d="M427.31635 837.58305 L428.84273 827.17072" />
    <path d="M426.67849 812.2252 L429.48059 802.08149" />
    <path d="M444.68301 812.26861 L447.14936 802.03808" />
    <path d="M464.92117 802.02288 L462.5845 812.28381" />
    <path d="M464.59815 827.18342 L462.90752 837.57035" />
    <path d="M464.43268 852.38272 L463.073 862.81813" />
    <path d="M464.32727 877.59361 L463.17841 888.05433" />
    <path d="M464.25258 902.80949 L463.2531 913.28554" />
    <path d="M464.19622 928.02796 L463.30945 938.51415" />
    <path d="M464.15189 953.24794 L463.35378 963.74125" />
    <path d="M464.11596 978.46887 L463.38971 988.9674" />
    <path d="M464.08617 1003.69044 L463.41951 1014.19292" />
    <path d="M464.06102 1028.91244 L463.44465 1039.418" />
    <path d="M464.03949 1054.13477 L463.73023 1059.80315" />
    <path d="M481.55993 1059.80315 L481.96383 1054.14029" />
    <path d="M481.18926 1039.41179 L481.98971 1028.91865" />
    <path d="M481.15944 1014.18589 L482.01952 1003.69747" />
    <path d="M481.12469 988.95938 L482.05428 978.47689" />
    <path d="M481.0836 963.73203 L482.09536 953.25716" />
    <path d="M481.03416 938.50348 L482.14481 928.03863" />
    <path d="M480.97332 913.27312 L482.20565 902.8219" />
    <path d="M480.89613 888.0399 L482.28284 877.60804" />
    <path d="M480.79381 862.80173 L482.38516 852.39912" />
    <path d="M480.6482 837.55382 L482.53077 827.19995" />
    <path d="M480.41055 812.28138 L482.76841 802.0253" />
    <path d="M479.85311 786.89686 L483.32586 776.96274" />
    <path d="M466.13046 777.23581 L461.37521 786.62379" />
    <path d="M441.43067 784.68057 L450.40171 779.17903" />
    <path d="M431.41131 786.00239 L424.74777 777.85721" />
    <path d="M427.78022 751.45297 L428.37886 761.95955" />
    <path d="M445.42247 751.46766 L446.40991 761.94486" />
    <path d="M462.73926 751.54299 L464.76641 761.86953" />
    <path d="M477.87194 752.98248 L485.30703 760.43003" />
    <path d="M496.71923 761.21839 L502.13303 752.19413" />
    <path d="M515.55359 761.68274 L518.97197 751.72978" />
    <path d="M533.29104 761.64755 L536.90781 751.76497" />
    <path d="M549.44791 760.64573 L556.42423 752.76679" />
    <path d="M568.31956 752.0513 L573.22588 761.36122" />
    <path d="M587.79062 751.50854 L589.42812 761.90398" />
    <path d="M586.04136 777.3372 L591.17738 786.5224" />
    <path d="M586.13812 802.50796 L591.08062 811.79872" />
    <path d="M586.74278 827.45728 L590.47595 837.29649" />
    <path d="M587.20577 852.52928 L590.01297 862.67158" />
    <path d="M587.51233 877.67779 L589.7064 887.97015" />
    <path d="M587.71881 902.86161 L589.49992 913.23341" />
    <path d="M587.86398 928.06231 L589.35476 938.4798" />
    <path d="M587.97039 953.27173 L589.24835 963.71746" />
    <path d="M588.05122 978.48601 L589.16752 988.95026" />
    <path d="M588.11445 1003.7032 L589.10429 1014.18016" />
    <path d="M588.16514 1028.9222 L589.0536 1039.40825" />
    <path d="M588.20662 1054.14239 L588.64118 1059.80315" />
    <path d="M606.14977 1054.1353 L606.46938 1059.80315" />
    <path d="M624.04901 1054.13214 L624.30108 1059.80315" />
    <path d="M641.92683 1054.13047 L642.13448 1059.80315" />
    <path d="M659.79261 1054.12949 L659.96883 1059.80315" />
    <path d="M677.65095 1054.12886 L677.80377 1059.80315" />
    <path d="M695.50438 1054.12843 L695.63909 1059.80315" />
    <path d="M713.35438 1054.12813 L713.47469 1059.80315" />
    <path d="M731.20192 1054.12791 L731.31048 1059.80315" />
    <path d="M749.04761 1054.12775 L749.14641 1059.80315" />
    <path d="M766.89188 1054.12762 L766.98246 1059.80315" />
    <path d="M784.73505 1054.12752 L784.81859 1059.80315" />
    <path d="M802.57733 1054.12744 L802.65479 1059.80315" />
    <path d="M820.4189 1054.12738 L820.49105 1059.80315" />
    <path d="M838.25988 1054.12732 L838.32736 1059.80315" />
    <path d="M838.25549 1028.90384 L838.38938 1039.42661" />
    <path d="M820.41413 1028.9039 L820.55744 1039.42654" />
    <path d="M802.57212 1028.90397 L802.72616 1039.42647" />
    <path d="M784.72933 1028.90407 L784.89566 1039.42637" />
    <path d="M766.88556 1028.90418 L767.06612 1039.42626" />
    <path d="M749.04058 1028.90433 L749.23781 1039.42611" />
    <path d="M731.19405 1028.90453 L731.41105 1039.42591" />
    <path d="M713.34548 1028.90479 L713.58632 1039.42565" />
    <path d="M695.49418 1028.90514 L695.76433 1039.4253" />
    <path d="M677.63911 1028.90565 L677.9461 1039.42479" />
    <path d="M659.77859 1028.9064 L660.13333 1039.42404" />
    <path d="M641.90979 1028.90758 L642.32883 1039.42286" />
    <path d="M624.02756 1028.9096 L624.53777 1039.42084" />
    <path d="M606.12125 1028.91344 L606.77078 1039.417" />
    <path d="M624.56334 1014.196 L624.00198 1003.68736" />
    <path d="M641.88965 1003.68488 L642.34897 1014.19848" />
    <path d="M659.76212 1003.68344 L660.1498 1014.19992" />
    <path d="M677.62529 1003.68253 L677.95993 1014.20083" />
    <path d="M695.48235 1003.68192 L695.77616 1014.20144" />
    <path d="M713.3352 1003.68149 L713.5966 1014.20187" />
    <path d="M731.18501 1003.68118 L731.42009 1014.20218" />
    <path d="M749.03255 1003.68095 L749.24584 1014.20241" />
    <path d="M766.87837 1003.68077 L767.07332 1014.20259" />
    <path d="M784.72284 1003.68063 L784.90214 1014.20273" />
    <path d="M802.56624 1003.68052 L802.73204 1014.20284" />
    <path d="M820.40877 1003.68043 L820.5628 1014.20293" />
    <path d="M838.25059 1003.68036 L838.39428 1014.203" />
    <path d="M838.24512 978.45689 L838.39975 988.97938" />
    <path d="M820.40277 978.45698 L820.56881 988.97929" />
    <path d="M802.55962 978.45709 L802.73866 988.97919" />
    <path d="M784.7155 978.45722 L784.90948 988.97905" />
    <path d="M766.87018 978.45739 L767.08151 988.97889" />
    <path d="M749.02335 978.4576 L749.25505 988.97867" />
    <path d="M731.17458 978.45788 L731.43052 988.97839" />
    <path d="M713.32326 978.45826 L713.60854 988.97801" />
    <path d="M695.46853 978.45878 L695.78998 988.97749" />
    <path d="M677.60902 978.45953 L677.97619 988.97674" />
    <path d="M659.74259 978.46065 L660.16933 988.97562" />
    <path d="M641.86555 978.46245 L642.37308 988.97383" />
    <path d="M623.97107 978.46556 L624.59426 988.97071" />
    <path d="M606.04485 978.47164 L606.84718 988.96463" />
    <path d="M606.08691 1003.69214 L606.80512 1014.19122" />
    <path d="M569.98662 1003.73892 L571.55882 1014.14444" />
    <path d="M570.07693 1028.94962 L571.46852 1039.38082" />
    <path d="M570.14897 1054.16405 L570.82219 1059.80315" />
    <path d="M551.59137 1054.30168 L553.04561 1059.80315" />
    <path d="M534.54927 1059.80315 L539.30236 1056.22301" />
    <path d="M531.24976 1037.75225 L538.94909 1030.5782" />
    <path d="M551.38913 1029.13594 L554.48302 1039.1945" />
    <path d="M554.75162 1013.88035 L551.12053 1004.00301" />
    <path d="M531.57789 1012.85133 L538.62097 1005.03202" />
    <path d="M531.87333 987.87493 L538.32552 979.56134" />
    <path d="M550.75109 978.93144 L555.12105 988.50484" />
    <path d="M569.87038 978.53427 L571.67506 988.902" />
    <path d="M569.71572 953.34004 L571.82972 963.64915" />
    <path d="M550.22466 953.98517 L555.64748 963.00402" />
    <path d="M532.13511 962.84195 L538.06374 954.14724" />
    <path d="M532.36536 937.76678 L537.83349 928.77533" />
    <path d="M549.4631 929.3182 L556.40905 937.22391" />
    <path d="M569.50122 928.16518 L572.04423 938.37693" />
    <path d="M605.9253 928.03507 L606.96674 938.50703" />
    <path d="M605.99233 953.25238 L606.8997 963.73681" />
    <path d="M623.93311 953.24441 L624.63222 963.74478" />
    <path d="M641.83634 953.2404 L642.40228 963.74879" />
    <path d="M659.71918 953.23811 L660.19274 963.75108" />
    <path d="M677.58973 953.2367 L677.99549 963.75249" />
    <path d="M695.45228 953.23576 L695.80622 963.75343" />
    <path d="M713.30937 953.23511 L713.62244 963.75408" />
    <path d="M731.16253 953.23465 L731.44257 963.75454" />
    <path d="M749.0128 953.2343 L749.26559 963.75489" />
    <path d="M766.86087 953.23404 L767.09082 963.75515" />
    <path d="M784.70722 953.23384 L784.91777 963.75535" />
    <path d="M802.55221 953.23368 L802.74607 963.75551" />
    <path d="M820.3961 953.23355 L820.57547 963.75564" />
    <path d="M838.23909 953.23344 L838.40577 963.75575" />
    <path d="M838.23261 928.01001 L838.41226 938.5321" />
    <path d="M820.38884 928.01014 L820.58273 938.53197" />
    <path d="M802.54405 928.01029 L802.75423 938.53181" />
    <path d="M784.698 928.01049 L784.92698 938.53162" />
    <path d="M766.8504 928.01074 L767.10129 938.53137" />
    <path d="M749.00082 928.01106 L749.27758 938.53104" />
    <path d="M731.14869 928.01149 L731.45641 938.53061" />
    <path d="M713.29321 928.01208 L713.6386 938.53003" />
    <path d="M695.43317 928.0129 L695.82534 938.52921" />
    <path d="M677.56673 928.01409 L678.01848 938.52801" />
    <path d="M659.69091 928.01592 L660.22101 938.52618" />
    <path d="M641.80051 928.01891 L642.43811 938.5232" />
    <path d="M623.8857 928.02424 L624.67962 938.51787" />
    <path d="M642.48248 913.29677 L641.75614 902.79825" />
    <path d="M659.65662 902.79422 L660.25529 913.3008" />
    <path d="M677.53938 902.7918 L678.04583 913.30323" />
    <path d="M695.41084 902.79024 L695.84767 913.30479" />
    <path d="M713.27465 902.78918 L713.65715 913.30585" />
    <path d="M731.13306 902.78843 L731.47204 913.30659" />
    <path d="M748.9875 902.78789 L749.29089 913.30713" />
    <path d="M766.83896 902.78748 L767.11273 913.30754" />
    <path d="M784.6881 902.78717 L784.93688 913.30785" />
    <path d="M802.53542 902.78693 L802.76286 913.30809" />
    <path d="M820.38129 902.78674 L820.59029 913.30828" />
    <path d="M838.22596 902.78658 L838.41891 913.30844" />
    <path d="M838.21991 877.56316 L838.42496 888.08478" />
    <path d="M820.37419 877.56334 L820.59738 888.0846" />
    <path d="M802.52708 877.56357 L802.77119 888.08436" />
    <path d="M784.67826 877.56387 L784.94673 888.08407" />
    <path d="M766.82728 877.56426 L767.12441 888.08368" />
    <path d="M748.97355 877.56477 L749.30485 888.08317" />
    <path d="M731.11624 877.56546 L731.48886 888.08248" />
    <path d="M713.25416 877.56642 L713.67764 888.08152" />
    <path d="M695.38551 877.56781 L695.87299 888.08013" />
    <path d="M677.5075 877.56989 L678.07771 888.07805" />
    <path d="M659.61549 877.57318 L660.29643 888.07475" />
    <path d="M641.70121 877.5788 L642.53741 888.06914" />
    <path d="M623.7484 877.58935 L624.81693 888.05859" />
    <path d="M623.82555 902.80559 L624.73978 913.28943" />
    <path d="M605.83762 902.82099 L607.05442 913.27403" />
    <path d="M572.3578 913.0649 L569.18764 903.03012" />
    <path d="M548.45821 905.28428 L557.41393 910.81074" />
    <path d="M532.56741 912.66005 L537.63144 903.43497" />
    <path d="M532.74474 887.52951 L537.45411 878.11843" />
    <path d="M547.70141 882.29018 L558.17074 883.35776" />
    <path d="M568.69881 877.98811 L572.84663 887.65983" />
    <path d="M605.72015 877.61247 L607.17189 888.03547" />
    <path d="M624.91492 862.82411 L623.65041 852.37674" />
    <path d="M641.63524 852.36093 L642.60339 862.83992" />
    <path d="M659.56851 852.3529 L660.34341 862.84795" />
    <path d="M677.47279 852.34834 L678.11243 862.85251" />
    <path d="M695.3592 852.34555 L695.89931 862.8553" />
    <path d="M713.23385 852.34374 L713.69795 862.85712" />
    <path d="M731.10037 852.3425 L731.50473 862.85835" />
    <path d="M748.96103 852.34163 L749.31736 862.85922" />
    <path d="M766.81736 852.341 L767.13433 862.85985" />
    <path d="M784.67038 852.34054 L784.9546 862.86032" />
    <path d="M802.52084 852.34018 L802.77744 862.86067" />
    <path d="M820.36926 852.33991 L820.60232 862.86095" />
    <path d="M838.21604 852.33969 L838.42883 862.86116" />
    <path d="M838.21742 827.11612 L838.42745 837.63765" />
    <path d="M820.36987 827.11635 L820.6017 837.63742" />
    <path d="M802.52045 827.11665 L802.77783 837.63712" />
    <path d="M784.66866 827.11704 L784.95632 837.63673" />
    <path d="M766.81386 827.11757 L767.13783 837.6362" />
    <path d="M748.95513 827.11829 L749.32326 837.63548" />
    <path d="M731.09118 827.11932 L731.51392 837.63445" />
    <path d="M713.22009 827.12082 L713.71172 837.63295" />
    <path d="M695.33889 827.12309 L695.91962 837.63068" />
    <path d="M677.4428 827.12671 L678.14241 837.62706" />
    <path d="M659.52355 827.13287 L660.38837 837.6209" />
    <path d="M641.56556 827.14429 L642.67306 837.60948" />
    <path d="M623.53589 827.16834 L625.02944 837.58543" />
    <path d="M605.35177 827.23011 L607.54027 837.52366" />
    <path d="M605.56065 852.41364 L607.33138 862.78722" />
    <path d="M567.88841 853.19959 L573.65703 862.00127" />
    <path d="M548.05598 859.56801 L557.81616 855.63285" />
    <path d="M537.29834 852.82011 L532.90051 862.38075" />
    <path d="M515.91922 862.68781 L518.60634 852.51304" />
    <path d="M515.8551 837.4469 L518.67046 827.30687" />
    <path d="M515.78301 812.20279 L518.74254 802.10389" />
    <path d="M515.69752 786.95341 L518.82804 776.9062" />
    <path d="M533.25506 786.85778 L536.94379 777.00182" />
    <path d="M550.22064 786.4368 L555.65151 777.4228" />
    <path d="M565.58793 782.82679 L575.95751 781.03282" />
    <path d="M565.55454 806.47717 L575.99091 807.82951" />
    <path d="M566.60601 829.1636 L574.93943 835.59017" />
    <path d="M549.00522 835.87475 L556.86692 828.87902" />
    <path d="M549.78277 811.36563 L556.08937 802.94106" />
    <path d="M533.15628 812.04321 L537.04257 802.26347" />
    <path d="M533.03726 837.21776 L537.1616 827.53601" />
    <path d="M498.32041 837.52121 L500.53185 827.23256" />
    <path d="M498.15695 812.25979 L500.69531 802.04689" />
    <path d="M497.88836 786.96189 L500.9639 776.89771" />
    <path d="M515.64189 736.48865 L518.88366 726.47678" />
    <path d="M536.63924 726.45125 L533.55961 736.51418" />
    <path d="M553.99432 726.32842 L551.87783 736.63701" />
    <path d="M571.4337 726.26259 L570.11174 736.70285" />
    <path d="M589.03409 726.23808 L588.18464 736.72736" />
    <path d="M606.73433 726.22881 L606.1577 736.73662" />
    <path d="M606.01697 751.46197 L606.87507 761.95055" />
    <path d="M605.23394 776.8095 L607.65809 787.05011" />
    <path d="M605.14373 802.05524 L607.7483 812.25145" />
    <path d="M623.44933 801.95794 L625.116 812.34875" />
    <path d="M641.52779 801.92489 L642.71083 812.3818" />
    <path d="M659.50894 801.91056 L660.40298 812.39613" />
    <path d="M677.44031 801.90334 L678.1449 812.40335" />
    <path d="M695.34311 801.89932 L695.9154 812.40737" />
    <path d="M713.22811 801.89691 L713.7037 812.40978" />
    <path d="M731.10135 801.89538 L731.50375 812.41131" />
    <path d="M748.96647 801.89437 L749.31193 812.41232" />
    <path d="M766.82576 801.89367 L767.12593 812.41301" />
    <path d="M784.68075 801.89318 L784.94424 812.4135" />
    <path d="M802.53248 801.89283 L802.76579 812.41386" />
    <path d="M820.38171 801.89256 L820.58986 812.41412" />
    <path d="M838.22896 801.89236 L838.41591 812.41432" />
    <path d="M838.2559 776.66841 L838.38896 787.19119" />
    <path d="M820.41113 776.66852 L820.56044 787.19108" />
    <path d="M802.56475 776.66867 L802.73353 787.19094" />
    <path d="M784.71629 776.66887 L784.90869 787.19073" />
    <path d="M766.86511 776.66916 L767.08658 787.19045" />
    <path d="M749.01027 776.66957 L749.26813 787.19003" />
    <path d="M731.15039 776.67019 L731.45471 787.18941" />
    <path d="M713.28336 776.67116 L713.64844 787.18844" />
    <path d="M695.40578 776.67274 L695.85273 787.18686" />
    <path d="M677.51185 776.67549 L678.07336 787.18412" />
    <path d="M659.59093 776.68067 L660.32098 787.17894" />
    <path d="M641.6214 776.6916 L642.61722 787.168" />
    <path d="M623.55234 776.71892 L625.01299 787.14068" />
    <path d="M642.30549 761.96478 L641.93313 751.44774" />
    <path d="M659.81894 751.44623 L660.09297 761.96629" />
    <path d="M677.68731 751.4455 L677.8979 761.96702" />
    <path d="M695.54568 751.44511 L695.71282 761.96741" />
    <path d="M713.3979 751.44489 L713.5339 761.96763" />
    <path d="M731.2461 751.44475 L731.35899 761.96777" />
    <path d="M749.09157 751.44466 L749.18682 761.96785" />
    <path d="M766.93511 751.44461 L767.01658 761.96791" />
    <path d="M784.77725 751.44457 L784.84774 761.96795" />
    <path d="M802.61834 751.44454 L802.67994 761.96798" />
    <path d="M820.45863 751.44452 L820.51294 761.968" />
    <path d="M838.29832 751.4445 L838.34655 761.96801" />
    <path d="M838.34591 726.22096 L838.29896 736.74448" />
    <path d="M820.51212 726.22097 L820.45945 736.74446" />
    <path d="M802.6789 726.22099 L802.61938 736.74444" />
    <path d="M784.84638 726.22102 L784.77861 736.74442" />
    <path d="M767.01477 726.22105 L766.93692 736.74438" />
    <path d="M749.18437 726.2211 L749.09402 736.74433" />
    <path d="M731.35558 726.22117 L731.24952 736.74426" />
    <path d="M713.52901 726.22128 L713.40279 736.74415" />
    <path d="M695.70555 726.22146 L695.55295 736.74397" />
    <path d="M677.88662 726.22175 L677.69859 736.74369" />
    <path d="M660.07446 726.22224 L659.83745 736.74319" />
    <path d="M642.2729 726.22315 L641.96572 736.74229" />
    <path d="M624.48868 726.22494 L624.07665 736.74049" />
    <path d="M624.01348 751.45134 L624.55185 761.96118" />
    <path d="M641.80139 711.51137 L642.43723 701.00698" />
    <path d="M624.6821 701.01255 L623.88323 711.5058" />
    <path d="M606.9582 701.02235 L605.93383 711.496" />
    <path d="M589.27946 701.04021 L587.93927 711.47814" />
    <path d="M571.66272 701.07318 L569.88273 711.44517" />
    <path d="M554.11746 701.1317 L551.75469 711.38665" />
    <path d="M536.61358 701.21993 L533.58527 711.29842" />
    <path d="M519.03782 701.3058 L515.48774 711.21255" />
    <path d="M501.2373 701.3189 L497.61496 711.19945" />
    <path d="M500.60936 726.35567 L498.2429 736.60977" />
    <path d="M482.33344 726.27377 L480.84553 736.69167" />
    <path d="M464.22521 726.24215 L463.28046 736.72328" />
    <path d="M446.23239 726.23042 L445.59998 736.73502" />
    <path d="M428.30277 726.22564 L427.85632 736.73979" />
    <path d="M410.40768 726.22349 L410.0781 736.74195" />
    <path d="M410.04 751.44836 L410.44579 761.96416" />
    <path d="M392.25892 751.44651 L392.55357 761.96601" />
    <path d="M374.45747 751.44564 L374.68173 761.96688" />
    <path d="M356.6446 751.44519 L356.8213 761.96733" />
    <path d="M338.82483 751.44493 L338.96778 761.96758" />
    <path d="M321.0006 751.44478 L321.11871 761.96774" />
    <path d="M303.17337 751.44468 L303.27265 761.96784" />
    <path d="M285.34404 751.44462 L285.42868 761.9679" />
    <path d="M267.5132 751.44457 L267.58623 761.96794" />
    <path d="M249.68123 751.44454 L249.7449 761.96797" />
    <path d="M249.59791 776.66925 L249.82822 787.19035" />
    <path d="M213.95248 776.66871 L214.12706 787.19089" />
    <path d="M213.82886 801.89576 L214.25068 812.41093" />
    <path d="M213.20173 827.18224 L214.87781 837.57153" />
    <path d="M213.29502 862.80927 L214.78452 852.39159" />
    <path d="M213.74246 888.07737 L214.33708 877.57056" />
    <path d="M213.84495 913.30571 L214.23459 902.78931" />
    <path d="M213.8916 938.53078 L214.18794 928.01133" />
    <path d="M213.91878 963.75501 L214.16076 953.23418" />
    <path d="M213.93682 988.97894 L214.14272 978.45733" />
    <path d="M213.94978 1014.20272 L214.12976 1003.68064" />
    <path d="M213.95961 1039.42642 L214.11993 1028.90402" />
    <path d="M214.03407 1059.80315 L214.11217 1054.12745" />
    <path d="M267.54303 1059.80315 L267.63462 1054.12764" />
    <path d="M267.45618 1039.4262 L267.64325 1028.90424" />
    <path d="M267.4454 1014.20246 L267.65403 1003.6809" />
    <path d="M267.43146 988.97862 L267.66797 978.45765" />
    <path d="M267.41259 963.75462 L267.68683 953.23457" />
    <path d="M267.38532 938.5303 L267.71411 928.01181" />
    <path d="M267.34157 913.3052 L267.75786 902.78982" />
    <path d="M267.25736 888.07765 L267.84207 877.57029" />
    <path d="M285.09141 888.07751 L285.68131 877.57043" />
    <path d="M302.92322 888.07723 L303.52279 877.5707" />
    <path d="M302.73774 862.83981 L303.70828 852.36104" />
    <path d="M320.58681 862.84095 L321.53251 852.35991" />
    <path d="M338.4288 862.84143 L339.36381 852.35943" />
    <path d="M356.26418 862.84132 L357.20172 852.35954" />
    <path d="M374.09285 862.8406 L375.04635 852.36026" />
    <path d="M391.91409 862.83917 L392.8984 852.36168" />
    <path d="M392.03508 888.07267 L392.77741 877.57527" />
    <path d="M374.22136 888.07424 L374.91784 877.57369" />
    <path d="M356.40231 888.07538 L357.06359 877.57256" />
    <path d="M338.57912 888.07621 L339.21349 877.57173" />
    <path d="M320.75258 888.07681 L321.36673 877.57113" />
    <path d="M339.14169 902.79143 L338.65091 913.3036" />
    <path d="M339.09863 928.01313 L338.69397 938.52897" />
    <path d="M339.06949 953.23563 L338.72311 963.75355" />
    <path d="M339.04825 978.45852 L338.74435 988.97775" />
    <path d="M339.03198 1003.68162 L338.76063 1014.20174" />
    <path d="M339.01904 1028.90484 L338.77356 1039.4256" />
    <path d="M339.00849 1054.12815 L338.88747 1059.80315" />
    <path d="M356.72331 1059.80315 L356.85533 1054.12838" />
    <path d="M356.59929 1039.42533 L356.86661 1028.90511" />
    <path d="M356.58556 1014.20143 L356.88034 1003.68193" />
    <path d="M356.56839 988.97737 L356.89751 978.4589" />
    <path d="M356.54619 963.75309 L356.91971 953.2361" />
    <path d="M356.51614 938.5284 L356.94976 928.01371" />
    <path d="M356.4726 913.30288 L356.99331 902.79215" />
    <path d="M374.29073 913.30193 L374.84847 902.7931" />
    <path d="M392.10415 913.30064 L392.70834 902.79438" />
    <path d="M392.14972 938.52661 L392.66278 928.0155" />
    <path d="M374.33509 938.52764 L374.80411 928.01447" />
    <path d="M392.63006 953.23755 L392.18244 963.75164" />
    <path d="M392.60523 978.46009 L392.20726 988.97618" />
    <path d="M392.58565 1003.68293 L392.22684 1014.20043" />
    <path d="M392.56975 1028.90595 L392.24274 1039.42449" />
    <path d="M392.55655 1054.1291 L392.3944 1059.80315" />
    <path d="M374.55898 1059.80315 L374.70441 1054.12868" />
    <path d="M374.42264 1039.42498 L374.71655 1028.90546" />
    <path d="M374.40794 1014.20101 L374.73126 1003.68235" />
    <path d="M374.38968 988.97687 L374.74951 978.4594" />
    <path d="M374.36631 963.75248 L374.77288 953.23671" />
    <path d="M320.89778 963.75392 L321.22153 953.23527" />
    <path d="M320.86934 938.52942 L321.24997 928.01268" />
    <path d="M320.82648 913.30415 L321.29283 902.79087" />
    <path d="M302.99986 913.30459 L303.44616 902.79043" />
    <path d="M285.17146 913.30493 L285.60127 902.79009" />
    <path d="M303.40323 928.01233 L303.04278 938.52978" />
    <path d="M303.37533 953.23499 L303.07069 963.7542" />
    <path d="M303.35551 978.45799 L303.09051 988.97828" />
    <path d="M303.3406 1003.68118 L303.10542 1014.20218" />
    <path d="M303.32891 1028.90448 L303.11711 1039.42597" />
    <path d="M303.31946 1054.12784 L303.21541 1059.80315" />
    <path d="M321.05149 1059.80315 L321.16332 1054.12797" />
    <path d="M320.94603 1039.4258 L321.17328 1028.90464" />
    <path d="M320.93377 1014.20198 L321.18554 1003.68137" />
    <path d="M320.91824 988.97805 L321.20107 978.45823" />
    <path d="M285.2615 988.97847 L285.51122 978.45781" />
    <path d="M285.24221 963.75443 L285.53051 953.23476" />
    <path d="M285.21468 938.53006 L285.55804 928.01204" />
    <path d="M285.27588 1014.20233 L285.49684 1003.68103" />
    <path d="M285.28708 1039.4261 L285.48564 1028.90435" />
    <path d="M285.37925 1059.80315 L285.47663 1054.12773" />
    <path d="M445.89784 1059.80315 L446.14899 1054.1321" />
    <path d="M445.66493 1039.42103 L446.16745 1028.90941" />
    <path d="M445.64315 1014.1964 L446.18923 1003.68696" />
    <path d="M445.61703 988.97144 L446.21534 978.46484" />
    <path d="M445.58505 963.74598 L446.24732 953.24321" />
    <path d="M445.54481 938.51974 L446.28757 928.02236" />
    <path d="M445.49229 913.29222 L446.34008 902.8028" />
    <path d="M445.42006 888.06234 L446.41232 877.5856" />
    <path d="M445.31223 862.82746 L446.52015 852.37339" />
    <path d="M445.12612 837.57904 L446.70626 827.17473" />
    <path d="M498.43992 862.76899 L500.41234 852.43186" />
    <path d="M518.54825 877.72159 L515.97731 887.92634" />
    <path d="M518.49514 902.93205 L516.03041 913.16297" />
    <path d="M518.44631 928.14407 L516.07925 938.39803" />
    <path d="M518.40121 953.35741 L516.12434 963.63178" />
    <path d="M518.35941 978.57187 L516.16614 988.8644" />
    <path d="M518.32056 1003.78729 L516.205 1014.09607" />
    <path d="M518.28434 1029.00353 L516.24122 1039.32691" />
    <path d="M518.2505 1054.22049 L517.18358 1059.80315" />
    <path d="M499.38321 1059.80315 L499.96822 1054.15495" />
    <path d="M498.85211 1039.39563 L500.00016 1028.93481" />
    <path d="M498.81612 1014.16801 L500.03614 1003.71535" />
    <path d="M498.77526 988.93954 L500.07701 978.49674" />
    <path d="M498.7284 963.70994 L500.12387 953.27925" />
    <path d="M498.67406 938.47884 L500.1782 928.06327" />
    <path d="M498.61018 913.24567 L500.24209 902.84935" />
    <path d="M498.53372 888.00955 L500.31855 877.63839" />
    <path d="M479.99249 711.27278 L483.18648 701.24557" />
    <path d="M465.02132 701.15255 L462.48435 711.3658" />
    <path d="M446.87659 701.08575 L444.95579 711.4326" />
    <path d="M428.8012 701.04709 L427.35788 711.47126" />
    <path d="M410.79186 701.02608 L409.69392 711.49227" />
    <path d="M392.83203 701.01462 L391.98046 711.50373" />
    <path d="M392.53238 726.22242 L392.28011 736.74302" />
    <path d="M374.66902 726.22185 L374.47018 736.74359" />
    <path d="M356.81321 726.22152 L356.65269 736.74392" />
    <path d="M338.96239 726.22132 L338.83021 736.74411" />
    <path d="M321.11499 726.2212 L321.00433 736.74424" />
    <path d="M303.26999 726.22112 L303.17603 736.74432" />
    <path d="M285.42673 726.22106 L285.34599 736.74437" />
    <path d="M267.58477 726.22102 L267.51466 736.74441" />
    <path d="M249.74379 726.221 L249.68234 736.74444" />
    <path d="M267.43307 711.51969 L267.66635 700.99866" />
    <path d="M249.81486 700.99835 L249.61127 711.52" />
    <path d="M267.28625 686.29084 L267.81317 675.78042" />
    <path d="M249.93847 675.77865 L249.48766 686.29261" />
    <path d="M266.71153 661.00671 L268.38789 650.61747" />
    <path d="M268.90535 635.67273 L266.19407 625.50437" />
    <path d="M267.98776 610.60855 L267.11167 600.12146" />
    <path d="M267.82255 585.3962 L267.27688 574.88673" />
    <path d="M267.75201 560.17584 L267.34742 549.66" />
    <path d="M267.71223 534.95368 L267.38719 524.43508" />
    <path d="M267.68639 509.73087 L267.41303 499.2108" />
    <path d="M267.66811 484.50778 L267.43131 473.98682" />
    <path d="M267.65441 459.28452 L267.44501 448.76299" />
    <path d="M267.64372 434.06118 L267.54231 428.38583" />
    <path d="M285.37843 428.38583 L285.48699 434.06106" />
    <path d="M285.27441 448.76314 L285.49831 459.28438" />
    <path d="M285.25996 473.987 L285.51276 484.50759" />
    <path d="M285.24078 499.21104 L285.53195 509.73064" />
    <path d="M285.21387 524.4354 L285.55886 534.95336" />
    <path d="M285.17292 549.66044 L285.5998 560.1754" />
    <path d="M285.1018 574.88735 L285.67092 585.39558" />
    <path d="M284.94247 600.12195 L285.83025 610.60806" />
    <path d="M284.20821 625.46033 L286.56452 635.71677" />
    <path d="M286.5032 650.67017 L284.26952 660.95401" />
    <path d="M285.69798 675.78306 L285.07475 686.28821" />
    <path d="M285.52126 700.99909 L285.25146 711.51926" />
    <path d="M303.38066 700.99973 L303.06536 711.51862" />
    <path d="M321.24611 701.00067 L320.8732 711.51768" />
    <path d="M339.11982 701.00211 L338.67279 711.51624" />
    <path d="M357.00506 701.00441 L356.46084 711.51395" />
    <path d="M374.9067 701.00817 L374.2325 711.51018" />
    <path d="M391.21182 686.16009 L393.60067 675.91118" />
    <path d="M396.74596 658.78758 L388.06653 652.8366" />
    <path d="M379.5918 657.38186 L369.5474 654.24233" />
    <path d="M361.82056 654.46936 L351.64534 657.15482" />
    <path d="M342.53636 652.01253 L335.25625 659.61165" />
    <path d="M323.38752 651.09322 L318.73179 660.53096" />
    <path d="M321.51437 675.79351 L320.60494 686.27776" />
    <path d="M338.33326 686.26723 L339.45935 675.80403" />
    <path d="M357.44328 675.82199 L356.02262 686.24928" />
    <path d="M375.48309 675.85372 L373.65611 686.21754" />
    <path d="M411.8156 676.01435 L408.67018 686.05691" />
    <path d="M430.1178 676.18464 L426.04128 685.88663" />
    <path d="M448.41622 676.40568 L443.41616 685.66559" />
    <path d="M466.53069 676.56683 L460.97498 685.50443" />
    <path d="M484.31637 676.53555 L478.8626 685.53572" />
    <path d="M501.80151 676.34051 L497.05075 685.73076" />
    <path d="M519.15949 676.12757 L515.36606 685.9437" />
    <path d="M536.55127 675.97808 L533.64758 686.09318" />
    <path d="M554.03914 675.89074 L551.83301 686.18052" />
    <path d="M571.61995 675.84248 L569.92549 686.22879" />
    <path d="M589.27182 675.81569 L587.94692 686.25558" />
    <path d="M606.97404 675.80038 L605.91799 686.27088" />
    <path d="M624.71132 675.79131 L623.85401 686.27996" />
    <path d="M642.4731 675.78573 L641.76552 686.28554" />
    <path d="M660.25229 675.78217 L659.65963 686.28909" />
    <path d="M660.21383 701.00369 L659.69809 711.51466" />
    <path d="M678.00533 701.00167 L677.57988 711.51668" />
    <path d="M695.80737 701.00038 L695.45113 711.51797" />
    <path d="M713.61701 700.99953 L713.3148 711.51882" />
    <path d="M731.43222 700.99896 L731.17288 711.51939" />
    <path d="M749.25161 700.99857 L749.02679 711.51979" />
    <path d="M767.07417 700.99828 L766.87752 711.52007" />
    <path d="M784.89918 700.99808 L784.7258 711.52027" />
    <path d="M802.72612 700.99793 L802.57216 711.52042" />
    <path d="M820.55458 700.99781 L820.41699 711.52054" />
    <path d="M838.38427 700.99773 L838.2606 711.52062" />
    <path d="M838.4069 675.7745 L838.23796 686.29677" />
    <path d="M820.57882 675.77464 L820.39275 686.29662" />
    <path d="M802.7521 675.77483 L802.54618 686.29644" />
    <path d="M784.92703 675.77507 L784.69795 686.2962" />
    <path d="M767.104 675.77538 L766.84768 686.29588" />
    <path d="M749.28351 675.7758 L748.99488 686.29546" />
    <path d="M731.46622 675.77637 L731.13888 686.2949" />
    <path d="M713.653 675.77715 L713.2788 686.29412" />
    <path d="M695.84506 675.77825 L695.41344 686.29302" />
    <path d="M678.04405 675.77983 L677.54116 686.29143" />
    <path d="M695.41105 661.06938 L695.84745 650.55481" />
    <path d="M678.04278 650.55623 L677.54243 661.06795" />
    <path d="M660.24579 650.55827 L659.66613 661.06591" />
    <path d="M642.45918 650.56127 L641.77944 661.06291" />
    <path d="M624.68701 650.56584 L623.87832 661.05834" />
    <path d="M606.93548 650.5731 L605.95655 661.05109" />
    <path d="M589.21464 650.58521 L588.0041 661.03897" />
    <path d="M571.54147 650.60674 L570.00397 661.01744" />
    <path d="M553.94659 650.64822 L551.92556 660.97596" />
    <path d="M536.48889 650.73705 L533.70997 660.88713" />
    <path d="M519.28776 650.95554 L515.2378 660.66864" />
    <path d="M502.56182 651.58668 L496.29044 660.03751" />
    <path d="M486.29553 653.45842 L476.88343 658.16576" />
    <path d="M468.96104 656.56124 L458.54463 655.06294" />
    <path d="M450.45911 658.467 L441.37327 653.15718" />
    <path d="M432.14521 659.15229 L424.01387 652.47189" />
    <path d="M414.24158 659.2322 L406.2442 652.39198" />
    <path d="M411.47849 635.70323 L409.0073 625.47387" />
    <path d="M410.97915 610.57505 L409.50663 600.15496" />
    <path d="M410.77562 585.37624 L409.71016 574.90669" />
    <path d="M410.6637 560.16288 L409.82209 549.67297" />
    <path d="M410.59223 534.94458 L409.89356 524.44418" />
    <path d="M410.54232 509.72412 L409.94347 499.21755" />
    <path d="M410.50533 484.50256 L409.98045 473.99204" />
    <path d="M410.47674 459.28037 L410.00904 448.76714" />
    <path d="M410.45394 434.05779 L410.22626 428.38583" />
    <path d="M428.05959 428.38583 L428.33253 434.05594" />
    <path d="M427.799 448.76943 L428.36009 459.27808" />
    <path d="M427.76444 473.99493 L428.39464 484.49967" />
    <path d="M427.71974 499.22134 L428.43934 509.72033" />
    <path d="M427.65946 524.44937 L428.49962 534.9394" />
    <path d="M427.57332 549.68052 L428.58577 560.15533" />
    <path d="M427.43905 574.91878 L428.72003 585.36415" />
    <path d="M427.19765 600.17763 L428.96143 610.55239" />
    <path d="M426.62485 625.53182 L429.53424 635.64528" />
    <path d="M447.77107 635.51258 L444.06131 625.66452" />
    <path d="M447.04368 610.5046 L444.7887 600.22541" />
    <path d="M446.7319 585.33966 L445.10048 574.94327" />
    <path d="M446.55832 560.14041 L445.27406 549.69544" />
    <path d="M446.44719 534.92933 L445.38519 524.45943" />
    <path d="M446.36965 509.71307 L445.46273 499.2286" />
    <path d="M446.31232 484.49418 L445.52006 474.00042" />
    <path d="M446.26812 459.27378 L445.56425 448.77373" />
    <path d="M446.23297 434.05248 L445.8912 428.38583" />
    <path d="M464.17823 434.0448 L463.71922 428.38583" />
    <path d="M482.2405 434.0216 L481.53782 428.38583" />
    <path d="M500.81475 433.87549 L499.31275 428.38583" />
    <path d="M517.80272 428.38583 L513.08857 432.00375" />
    <path d="M521.08282 450.40521 L513.44273 457.64231" />
    <path d="M501.03597 459.03326 L497.8163 449.01426" />
    <path d="M482.32243 459.23427 L480.85653 448.81324" />
    <path d="M464.22733 459.26413 L463.27835 448.78338" />
    <path d="M480.75093 474.05273 L482.42804 484.44186" />
    <path d="M480.60971 499.30105 L482.56926 509.64063" />
    <path d="M480.41142 524.56614 L482.76755 534.82262" />
    <path d="M480.1137 549.86731 L483.06526 559.96854" />
    <path d="M495.56266 551.34578 L503.28961 558.49007" />
    <path d="M519.96828 550.40495 L514.55728 559.43089" />
    <path d="M519.76583 575.51314 L514.75972 584.76979" />
    <path d="M504.35994 581.97017 L494.49232 578.31276" />
    <path d="M483.55667 585.02172 L479.6223 575.26121" />
    <path d="M464.89877 585.27698 L462.6069 575.00595" />
    <path d="M464.64311 560.10387 L462.86257 549.73197" />
    <path d="M464.48188 534.90544 L463.02379 524.48332" />
    <path d="M464.37079 509.69624 L463.13488 499.24544" />
    <path d="M464.28948 484.48167 L463.21619 474.01292" />
    <path d="M501.33569 484.15038 L497.51658 474.34421" />
    <path d="M520.75478 475.31124 L513.77077 483.18336" />
    <path d="M520.45978 500.29163 L514.06577 508.65005" />
    <path d="M501.75863 509.18742 L497.09363 499.75426" />
    <path d="M520.19842 525.32761 L514.32714 534.06115" />
    <path d="M502.37928 534.04933 L496.47298 525.33944" />
    <path d="M536.23285 524.55609 L533.96601 534.83267" />
    <path d="M536.27683 549.78954 L533.92202 560.04631" />
    <path d="M536.32415 575.02417 L533.8747 585.25876" />
    <path d="M536.37511 600.26018 L533.82374 610.46984" />
    <path d="M536.42999 625.49775 L533.76886 635.67935" />
    <path d="M519.42911 625.79338 L515.09645 635.38372" />
    <path d="M503.61709 627.40696 L495.23517 633.77013" />
    <path d="M486.22521 633.07786 L476.95375 628.09924" />
    <path d="M466.4502 635.10639 L461.05548 626.07071" />
    <path d="M465.36572 610.37352 L462.13995 600.35649" />
    <path d="M484.47783 609.7632 L478.70114 600.96681" />
    <path d="M504.59615 604.38645 L494.25611 606.34356" />
    <path d="M519.58731 600.6445 L514.93824 610.08551" />
    <path d="M553.78704 600.17246 L552.08511 610.55755" />
    <path d="M553.86156 625.40877 L552.01059 635.76833" />
    <path d="M571.4658 625.37258 L570.07964 635.80451" />
    <path d="M589.1538 625.35498 L588.06494 635.82212" />
    <path d="M606.88817 625.34535 L606.00386 635.83175" />
    <path d="M624.6507 625.33963 L623.91463 635.83747" />
    <path d="M642.43152 625.33601 L641.8071 635.84109" />
    <path d="M660.22484 625.33361 L659.68708 635.84349" />
    <path d="M678.02705 625.33196 L677.55817 635.84514" />
    <path d="M695.83578 625.33079 L695.42273 635.84631" />
    <path d="M713.64943 625.32994 L713.28237 635.84716" />
    <path d="M713.65794 650.55379 L713.27387 661.0704" />
    <path d="M731.47289 650.55304 L731.13221 661.07114" />
    <path d="M749.29134 650.55248 L748.98705 661.0717" />
    <path d="M767.11258 650.55206 L766.8391 661.07213" />
    <path d="M784.93606 650.55173 L784.68892 661.07245" />
    <path d="M802.76137 650.55148 L802.53691 661.07271" />
    <path d="M820.58817 650.55128 L820.3834 661.07291" />
    <path d="M838.41622 650.55112 L838.22865 661.07307" />
    <path d="M838.41732 625.32759 L838.22755 635.8495" />
    <path d="M820.58865 625.32774 L820.38292 635.84935" />
    <path d="M802.76107 625.32793 L802.53721 635.84917" />
    <path d="M784.93479 625.32816 L784.6902 635.84894" />
    <path d="M767.11008 625.32845 L766.84161 635.84865" />
    <path d="M749.28729 625.32882 L748.99111 635.84828" />
    <path d="M731.46687 625.3293 L731.13823 635.84779" />
    <path d="M748.99986 610.62497 L749.27854 600.10504" />
    <path d="M731.45623 600.10544 L731.14887 610.62457" />
    <path d="M713.63648 600.10596 L713.29532 610.62405" />
    <path d="M695.82002 600.10666 L695.43849 610.62336" />
    <path d="M678.00782 600.1076 L677.57739 610.62242" />
    <path d="M660.20131 600.10892 L659.7106 610.62109" />
    <path d="M642.40263 600.11083 L641.836 610.61919" />
    <path d="M624.61507 600.11371 L623.95026 610.61631" />
    <path d="M606.84411 600.11828 L606.04792 610.61174" />
    <path d="M589.0994 600.12606 L588.11934 610.60395" />
    <path d="M571.39976 600.14069 L570.14568 610.58932" />
    <path d="M588.16591 585.38456 L589.05283 574.89837" />
    <path d="M571.34343 574.9107 L570.20201 585.37223" />
    <path d="M553.72233 574.93873 L552.14982 585.3442" />
    <path d="M570.24996 560.1537 L571.29548 549.68214" />
    <path d="M553.66608 549.707 L552.20607 560.12885" />
    <path d="M570.29098 534.93409 L571.25446 524.45467" />
    <path d="M553.61694 524.47681 L552.25521 534.91196" />
    <path d="M570.32633 509.71368 L571.21911 499.228" />
    <path d="M553.57375 499.24781 L552.2984 509.69387" />
    <path d="M536.19189 499.32369 L534.00696 509.61799" />
    <path d="M552.3366 484.47485 L553.53555 474.01975" />
    <path d="M536.15369 474.09218 L534.04517 484.40241" />
    <path d="M552.37059 459.25509 L553.50156 448.79242" />
    <path d="M536.11799 448.86147 L534.08087 459.18604" />
    <path d="M535.17841 428.38583 L534.11429 433.96898" />
    <path d="M552.97843 428.38583 L552.40101 434.03475" />
    <path d="M570.80155 428.38583 L570.4076 434.04934" />
    <path d="M571.16154 448.77633 L570.3839 459.27118" />
    <path d="M571.18841 474.00193 L570.35703 484.49266" />
    <path d="M588.92607 473.99503 L588.29267 484.49957" />
    <path d="M588.9509 499.22012 L588.26784 509.72155" />
    <path d="M588.97968 524.44562 L588.23905 534.94315" />
    <path d="M589.0133 549.67164 L588.20543 560.16421" />
    <path d="M606.77311 549.66629 L606.11892 560.16956" />
    <path d="M606.8058 574.89197 L606.08623 585.39096" />
    <path d="M624.58341 574.88826 L623.98192 585.39467" />
    <path d="M642.37626 574.88593 L641.86237 585.397" />
    <path d="M660.17919 574.88439 L659.73273 585.39854" />
    <path d="M677.98913 574.88333 L677.59608 585.3996" />
    <path d="M695.80414 574.88256 L695.45437 585.40037" />
    <path d="M713.62292 574.882 L713.30888 585.40093" />
    <path d="M731.4446 574.88157 L731.1605 585.40136" />
    <path d="M749.26853 574.88124 L749.00987 585.40169" />
    <path d="M767.09426 574.88099 L766.85743 585.40194" />
    <path d="M767.1029 600.10473 L766.84879 610.62528" />
    <path d="M784.92891 600.10448 L784.69607 610.62553" />
    <path d="M802.75629 600.10429 L802.54199 610.62573" />
    <path d="M820.58479 600.10413 L820.38679 610.62589" />
    <path d="M838.41423 600.104 L838.23064 610.62602" />
    <path d="M838.40935 574.88037 L838.23552 585.40256" />
    <path d="M820.57916 574.88048 L820.39241 585.40245" />
    <path d="M802.74981 574.88062 L802.54847 585.40231" />
    <path d="M784.92143 574.88078 L784.70355 585.40215" />
    <path d="M802.55529 560.1789 L802.74298 549.65695" />
    <path d="M784.91376 549.65709 L784.71122 560.17876" />
    <path d="M767.0856 549.65726 L766.86609 560.17859" />
    <path d="M749.25872 549.65747 L749.01967 560.17838" />
    <path d="M731.43345 549.65774 L731.17165 560.17811" />
    <path d="M713.61019 549.65809 L713.32161 560.17776" />
    <path d="M695.78952 549.65855 L695.46898 560.17729" />
    <path d="M677.97225 549.65918 L677.61297 560.17667" />
    <path d="M660.15954 549.66005 L659.75238 560.17579" />
    <path d="M642.3532 549.66131 L641.88542 560.17453" />
    <path d="M624.5561 549.66322 L624.00923 560.17263" />
    <path d="M641.90531 534.95184 L642.33331 524.43692" />
    <path d="M624.53271 524.43852 L624.03262 534.95025" />
    <path d="M606.74527 524.44109 L606.14676 534.94768" />
    <path d="M624.05268 509.72762 L624.51265 499.21406" />
    <path d="M606.72144 499.21624 L606.17059 509.72544" />
    <path d="M624.06998 484.50481 L624.49535 473.98979" />
    <path d="M606.70092 473.99166 L606.19112 484.50293" />
    <path d="M624.085 459.28185 L624.48032 448.76566" />
    <path d="M606.6831 448.76729 L606.20893 459.28022" />
    <path d="M588.90447 448.77023 L588.31427 459.27728" />
    <path d="M588.63115 428.38583 L588.3332 434.05477" />
    <path d="M606.46348 428.38583 L606.22451 434.05736" />
    <path d="M624.2972 428.38583 L624.09814 434.05879" />
    <path d="M642.13175 428.38583 L641.96146 434.05966" />
    <path d="M642.28845 448.76466 L641.95018 459.28285" />
    <path d="M642.30134 473.98864 L641.93728 484.50596" />
    <path d="M642.31616 499.21271 L641.92246 509.72897" />
    <path d="M660.1276 499.21183 L659.78432 509.72985" />
    <path d="M660.14243 524.43588 L659.76949 534.95289" />
    <path d="M677.95739 524.43515 L677.62782 534.95361" />
    <path d="M695.77652 524.43463 L695.48199 534.95413" />
    <path d="M713.59874 524.43425 L713.33307 534.95452" />
    <path d="M731.42329 524.43396 L731.1818 534.95481" />
    <path d="M749.24967 524.43373 L749.02872 534.95503" />
    <path d="M767.0775 524.43355 L766.87419 534.95521" />
    <path d="M784.90649 524.43341 L784.7185 534.95535" />
    <path d="M802.73643 524.43329 L802.56185 534.95547" />
    <path d="M820.56715 524.4332 L820.40442 534.95556" />
    <path d="M820.57308 549.65684 L820.39849 560.17901" />
    <path d="M838.40392 549.65674 L838.24095 560.1791" />
    <path d="M838.39854 524.43312 L838.24633 534.95564" />
    <path d="M838.39349 499.20951 L838.25138 509.73217" />
    <path d="M820.56163 499.20958 L820.40995 509.7321" />
    <path d="M802.73037 499.20966 L802.56791 509.73202" />
    <path d="M784.89983 499.20975 L784.72516 509.73193" />
    <path d="M767.07015 499.20987 L766.88154 509.73181" />
    <path d="M749.24153 499.21002 L749.03686 509.73166" />
    <path d="M731.41423 499.21021 L731.19087 509.73147" />
    <path d="M713.58859 499.21046 L713.34321 509.73122" />
    <path d="M695.76509 499.21078 L695.49341 509.7309" />
    <path d="M677.94443 499.21122 L677.64079 509.73046" />
    <path d="M695.50342 484.5076 L695.75508 473.98699" />
    <path d="M677.93313 473.98736 L677.65209 484.50723" />
    <path d="M660.11473 473.98788 L659.79719 484.50671" />
    <path d="M677.66197 459.28394 L677.92325 448.76357" />
    <path d="M660.1035 448.76401 L659.80841 459.2835" />
    <path d="M659.96681 428.38583 L659.81825 434.06022" />
    <path d="M677.80221 428.38583 L677.67065 434.06061" />
    <path d="M695.63786 428.38583 L695.51994 434.06089" />
    <path d="M695.7463 448.76325 L695.5122 459.28426" />
    <path d="M713.57179 448.76301 L713.36001 459.2845" />
    <path d="M713.57966 473.98672 L713.35215 484.50788" />
    <path d="M731.4062 473.98651 L731.1989 484.50809" />
    <path d="M749.23428 473.98635 L749.04411 484.50825" />
    <path d="M767.06357 473.98622 L766.88812 484.50838" />
    <path d="M784.89383 473.98612 L784.73116 484.50848" />
    <path d="M802.72488 473.98603 L802.5734 484.50856" />
    <path d="M820.55659 473.98596 L820.41499 484.50863" />
    <path d="M838.38884 473.98591 L838.25603 484.50869" />
    <path d="M838.38463 448.76231 L838.26024 459.2852" />
    <path d="M820.55203 448.76236 L820.41954 459.28515" />
    <path d="M802.71994 448.76242 L802.57834 459.28509" />
    <path d="M784.88845 448.76249 L784.73653 459.28502" />
    <path d="M767.0577 448.76258 L766.89399 459.28493" />
    <path d="M749.22784 448.76269 L749.05055 459.28482" />
    <path d="M731.39911 448.76283 L731.20599 459.28468" />
    <path d="M731.30966 428.38583 L731.21227 434.06125" />
    <path d="M749.05627 434.06137 L749.14573 428.38583" />
    <path d="M766.98188 428.38583 L766.89922 434.06147" />
    <path d="M784.8181 428.38583 L784.74133 434.06154" />
    <path d="M802.65437 428.38583 L802.58277 434.06161" />
    <path d="M820.49068 428.38583 L820.42364 434.06166" />
    <path d="M838.32703 428.38583 L838.26404 434.0617" />
    <path d="M713.47369 428.38583 L713.36696 434.06109" />
    <path d="M392.58762 434.0589 L392.39195 428.38583" />
    <path d="M374.72889 434.05961 L374.55705 428.38583" />
    <path d="M356.87517 434.0601 L356.72175 428.38583" />
    <path d="M339.02494 434.06045 L338.88617 428.38583" />
    <path d="M321.17722 434.06071 L321.05039 428.38583" />
    <path d="M303.33138 434.06091 L303.21447 428.38583" />
    <path d="M320.92912 448.76356 L321.19019 459.28395" />
    <path d="M320.91268 473.98754 L321.20663 484.50706" />
    <path d="M320.89106 499.21173 L321.22825 509.72995" />
    <path d="M320.86116 524.43632 L321.25815 534.95245" />
    <path d="M320.81665 549.66173 L321.30266 560.17412" />
    <path d="M320.74218 574.88924 L321.37713 585.39369" />
    <path d="M320.58778 600.1244 L321.53153 610.60562" />
    <path d="M320.04392 625.42571 L322.07539 635.75139" />
    <path d="M304.29684 635.73962 L302.14918 625.43748" />
    <path d="M303.67791 610.60712 L302.7681 600.1229" />
    <path d="M303.52219 585.39476 L302.92382 574.88817" />
    <path d="M303.44981 560.17484 L302.99621 549.661" />
    <path d="M303.40732 534.95296 L303.03869 524.4358" />
    <path d="M303.37908 509.73034 L303.06693 499.21134" />
    <path d="M303.3588 484.50736 L303.08721 473.98724" />
    <path d="M303.34345 459.28419 L303.10256 448.76332" />
    <path d="M339.03901 459.28363 L338.75359 448.76388" />
    <path d="M356.89063 459.2832 L356.57527 448.76431" />
    <path d="M374.74612 459.2826 L374.39308 448.76491" />
    <path d="M392.60719 459.28173 L392.2053 448.76578" />
    <path d="M392.63174 484.50427 L392.18075 473.99032" />
    <path d="M374.76777 484.50538 L374.37143 473.98922" />
    <path d="M356.9101 484.50613 L356.5558 473.98847" />
    <path d="M339.0568 484.50666 L338.73581 473.98793" />
    <path d="M356.5304 499.21293 L356.9355 509.72875" />
    <path d="M356.49571 524.43792 L356.97019 534.95084" />
    <path d="M356.44504 549.66399 L357.02086 560.17185" />
    <path d="M356.36294 574.89268 L357.10297 585.39025" />
    <path d="M356.20321 600.12993 L357.26269 610.60008" />
    <path d="M355.73559 625.42213 L357.73031 635.75497" />
    <path d="M339.88804 635.75606 L337.90457 625.42104" />
    <path d="M339.39241 610.60338 L338.40019 600.12664" />
    <path d="M339.23684 585.39225 L338.55577 574.89069" />
    <path d="M339.15924 560.17316 L338.63337 549.66269" />
    <path d="M339.11208 534.95177 L338.68053 524.437" />
    <path d="M339.08008 509.72944 L338.71252 499.21224" />
    <path d="M374.79591 509.72778 L374.34329 499.2139" />
    <path d="M392.66356 509.72636 L392.14893 499.21532" />
    <path d="M392.70662 534.94761 L392.10587 524.44115" />
    <path d="M374.83415 534.94954 L374.30505 524.43922" />
    <path d="M392.0439 549.6686 L392.76859 560.16724" />
    <path d="M391.946 574.89982 L392.86649 585.38311" />
    <path d="M391.76474 600.14245 L393.04775 610.58757" />
    <path d="M391.29872 625.44462 L393.51377 635.73248" />
    <path d="M375.60323 635.74784 L373.53597 625.42926" />
    <path d="M375.14583 610.59517 L373.99337 600.13484" />
    <path d="M374.9781 585.3874 L374.1611 574.89554" />
    <path d="M374.88955 560.17 L374.24965 549.66585" />
    <path d="M304.78631 650.78788 L301.6597 660.83631" />
    <path d="M303.59658 675.7871 L302.84944 686.28417" />
    <path d="M250.36616 650.59097 L249.05997 661.03321" />
    <path d="M251.38209 635.57864 L248.04404 625.59846" />
    <path d="M250.15005 610.60864 L249.27608 600.12137" />
    <path d="M249.97654 585.39668 L249.4496 574.88625" />
    <path d="M249.906 560.1762 L249.52014 549.65965" />
    <path d="M249.86708 534.95394 L249.55906 524.43482" />
    <path d="M249.84211 509.73107 L249.58402 499.21061" />
    <path d="M249.82458 484.50793 L249.60155 473.98667" />
    <path d="M249.81151 459.28465 L249.61462 448.76287" />
    <path d="M249.80136 434.06128 L249.70611 428.38583" />
    <path d="M213.95155 448.76268 L214.12799 459.28483" />
    <path d="M213.93949 473.98644 L214.14005 484.50815" />
    <path d="M213.92313 499.21032 L214.15641 509.73136" />
    <path d="M213.89943 524.43444 L214.18012 534.95432" />
    <path d="M213.86149 549.65913 L214.21805 560.17671" />
    <path d="M213.78937 574.88562 L214.29017 585.39732" />
    <path d="M213.59052 600.12241 L214.48902 610.60761" />
    <path d="M210.47244 627.04242 L217.7715 634.29811" />
    <path d="M214.46967 650.56787 L213.60987 661.05631" />
    <path d="M214.20981 675.77657 L213.86973 686.2947" />
    <path d="M214.11916 700.99796 L213.96038 711.52039" />
    <path d="M214.06392 726.22096 L214.01562 736.74447" />
    <path d="M214.01494 751.44451 L214.0646 761.96801" />
  </g>
</svg>