<?xml version="1.0" standalone="no"?>
<!DOCTYPE svg PUBLIC "-//W3C//DTD SVG 1.1//EN" 
    "http://www.w3.org/Graphics/SVG/1.1/DTD/svg11.dtd">
<svg width="29.7cm" height="42cm"
    xmlns="http://www.w3.org/2000/svg" version="1.1" viewBox="0 0 1052.3622 1488.18898">
  <g fill="none" stroke="black" stroke-width="0.1cm" stroke-linejoin="round" stroke-linecap="round">
    <path d="M324.1478 556.58181 L317.97151 553.25404" />
    <path d="M336.99389 551.97072 L340.79872 557.86513" />
    <path d="M356.97765 558.41725 L356.48825 551.41859" />
    <path d="M373.09588 558.10121 L376.04332 551.73463" />
    <path d="M389.57973 556.99541 L395.23277 552.84043" />
    <path d="M406.76482 555.3742 L413.72097 554.46165" />
    <path d="M424.81281 553.63978 L431.34627 556.19606" />
    <path d="M443.67126 552.22247 L448.16112 557.61338" />
    <path d="M463.08666 551.47389 L464.41901 558.36196" />
    <path d="M480.51162 558.2561 L482.66734 551.57975" />
    <path d="M496.87165 557.32205 L501.98061 552.5138" />
    <path d="M513.86543 555.79154 L520.66013 554.0443" />
    <path d="M531.70208 554.0443 L538.49677 555.79154" />
    <path d="M550.38159 552.5138 L555.49055 557.32205" />
    <path d="M569.69486 551.57975 L571.85058 558.2561" />
    <path d="M587.9432 558.36196 L589.27554 551.47389" />
    <path d="M604.20109 557.61338 L608.69095 552.22247" />
    <path d="M621.01593 556.19606 L627.5494 553.63978" />
    <path d="M638.64124 554.46165 L645.59738 555.3742" />
    <path d="M657.12944 552.84043 L662.78248 556.99541" />
    <path d="M676.31889 551.73463 L679.26633 558.10121" />
    <path d="M695.38455 558.41725 L695.87396 551.41859" />
    <path d="M711.56349 557.86513 L715.36832 551.97072" />
    <path d="M728.2144 556.58181 L734.3907 553.25404" />
    <path d="M734.3907 578.47758 L728.2144 581.80535" />
    <path d="M715.36832 577.19426 L711.56349 583.08867" />
    <path d="M695.87396 576.64214 L695.38455 583.64079" />
    <path d="M695.87396 601.86568 L695.38455 608.86434" />
    <path d="M711.56349 608.31221 L715.36832 602.41781" />
    <path d="M734.3907 603.70112 L728.2144 607.0289" />
    <path d="M734.3907 628.92466 L728.2144 632.25244" />
    <path d="M715.36832 627.64135 L711.56349 633.53575" />
    <path d="M695.87396 627.08922 L695.38455 634.08788" />
    <path d="M695.87396 652.31276 L695.38455 659.31142" />
    <path d="M711.56349 658.75929 L715.36832 652.86489" />
    <path d="M734.3907 654.1482 L728.2144 657.47598" />
    <path d="M734.3907 679.37175 L728.2144 682.69952" />
    <path d="M715.36832 678.08843 L711.56349 683.98284" />
    <path d="M695.87396 677.5363 L695.38455 684.53496" />
    <path d="M695.87396 702.75985 L695.38455 709.7585" />
    <path d="M711.56349 709.20638 L715.36832 703.31197" />
    <path d="M734.3907 704.59529 L728.2144 707.92306" />
    <path d="M734.3907 729.81883 L728.2144 733.14661" />
    <path d="M715.36832 728.53552 L711.56349 734.42992" />
    <path d="M695.87396 727.98339 L695.38455 734.98205" />
    <path d="M695.87396 753.20693 L695.38455 760.20559" />
    <path d="M679.26633 759.88955 L676.31889 753.52297" />
    <path d="M662.78248 758.78375 L657.12944 754.62877" />
    <path d="M645.59738 757.16253 L638.64124 756.24998" />
    <path d="M627.5494 755.42812 L621.01593 757.9844" />
    <path d="M608.69095 754.01081 L604.20109 759.40171" />
    <path d="M589.27554 753.26222 L587.9432 760.1503" />
    <path d="M589.27554 778.48576 L587.9432 785.37384" />
    <path d="M604.20109 784.62525 L608.69095 779.23435" />
    <path d="M627.5494 780.65166 L621.01593 783.20794" />
    <path d="M627.5494 805.8752 L621.01593 808.43148" />
    <path d="M608.69095 804.45789 L604.20109 809.8488" />
    <path d="M589.27554 803.70931 L587.9432 810.59738" />
    <path d="M589.27554 828.93285 L587.9432 835.82092" />
    <path d="M604.20109 835.07234 L608.69095 829.68143" />
    <path d="M627.5494 831.09875 L621.01593 833.65502" />
    <path d="M627.5494 856.32229 L621.01593 858.87857" />
    <path d="M608.69095 854.90497 L604.20109 860.29588" />
    <path d="M589.27554 854.15639 L587.9432 861.04446" />
    <path d="M589.27554 879.37993 L587.9432 886.26801" />
    <path d="M604.20109 885.51942 L608.69095 880.12852" />
    <path d="M627.5494 881.54583 L621.01593 884.10211" />
    <path d="M627.5494 906.76937 L621.01593 909.32565" />
    <path d="M608.69095 905.35206 L604.20109 910.74296" />
    <path d="M589.27554 904.60347 L587.9432 911.49155" />
    <path d="M589.27554 929.82702 L587.9432 936.71509" />
    <path d="M604.20109 935.96651 L608.69095 930.5756" />
    <path d="M627.5494 931.99291 L621.01593 934.54919" />
    <path d="M645.59738 933.72733 L638.64124 932.81478" />
    <path d="M662.78248 935.34854 L657.12944 931.19356" />
    <path d="M676.31889 930.08776 L679.26633 936.45434" />
    <path d="M695.38455 936.77038 L695.87396 929.77172" />
    <path d="M711.56349 936.21825 L715.36832 930.32385" />
    <path d="M728.2144 934.93494 L734.3907 931.60716" />
    <path d="M728.2144 909.7114 L734.3907 906.38362" />
    <path d="M715.36832 905.10031 L711.56349 910.99471" />
    <path d="M695.38455 911.54684 L695.87396 904.54818" />
    <path d="M679.26633 911.2308 L676.31889 904.86422" />
    <path d="M662.78248 910.125 L657.12944 905.97002" />
    <path d="M645.59738 908.50379 L638.64124 907.59124" />
    <path d="M645.59738 883.28024 L638.64124 882.36769" />
    <path d="M662.78248 884.90146 L657.12944 880.74648" />
    <path d="M676.31889 879.64068 L679.26633 886.00726" />
    <path d="M695.38455 886.3233 L695.87396 879.32464" />
    <path d="M711.56349 885.77117 L715.36832 879.87677" />
    <path d="M728.2144 884.48786 L734.3907 881.16008" />
    <path d="M728.2144 859.26432 L734.3907 855.93654" />
    <path d="M715.36832 854.65323 L711.56349 860.54763" />
    <path d="M695.38455 861.09976 L695.87396 854.1011" />
    <path d="M679.26633 860.78372 L676.31889 854.41714" />
    <path d="M662.78248 859.67792 L657.12944 855.52294" />
    <path d="M645.59738 858.0567 L638.64124 857.14415" />
    <path d="M645.59738 832.83316 L638.64124 831.92061" />
    <path d="M662.78248 834.45437 L657.12944 830.2994" />
    <path d="M676.31889 829.1936 L679.26633 835.56017" />
    <path d="M695.38455 835.87621 L695.87396 828.87756" />
    <path d="M711.56349 835.32409 L715.36832 829.42968" />
    <path d="M728.2144 834.04077 L734.3907 830.713" />
    <path d="M728.2144 808.81723 L734.3907 805.48945" />
    <path d="M715.36832 804.20614 L711.56349 810.10055" />
    <path d="M695.38455 810.65267 L695.87396 803.65401" />
    <path d="M679.26633 810.33663 L676.31889 803.97005" />
    <path d="M662.78248 809.23083 L657.12944 805.07585" />
    <path d="M645.59738 807.60962 L638.64124 806.69707" />
    <path d="M645.59738 782.38608 L638.64124 781.47353" />
    <path d="M662.78248 784.00729 L657.12944 779.85231" />
    <path d="M679.26633 785.11309 L676.31889 778.74651" />
    <path d="M695.38455 785.42913 L695.87396 778.43047" />
    <path d="M711.56349 784.877 L715.36832 778.9826" />
    <path d="M728.2144 783.59369 L734.3907 780.26591" />
    <path d="M728.2144 758.37015 L734.3907 755.04237" />
    <path d="M711.56349 759.65346 L715.36832 753.75906" />
    <path d="M676.31889 728.29943 L679.26633 734.66601" />
    <path d="M657.12944 729.40523 L662.78248 733.56021" />
    <path d="M638.64124 731.02644 L645.59738 731.93899" />
    <path d="M621.01593 732.76086 L627.5494 730.20458" />
    <path d="M608.69095 728.78726 L604.20109 734.17817" />
    <path d="M587.9432 734.92675 L589.27554 728.03868" />
    <path d="M587.9432 709.70321 L589.27554 702.81514" />
    <path d="M604.20109 708.95463 L608.69095 703.56372" />
    <path d="M621.01593 707.53731 L627.5494 704.98104" />
    <path d="M638.64124 705.8029 L645.59738 706.71545" />
    <path d="M657.12944 704.18169 L662.78248 708.33666" />
    <path d="M676.31889 703.07589 L679.26633 709.44246" />
    <path d="M676.31889 677.85234 L679.26633 684.21892" />
    <path d="M657.12944 678.95814 L662.78248 683.11312" />
    <path d="M638.64124 680.57936 L645.59738 681.49191" />
    <path d="M621.01593 682.31377 L627.5494 679.75749" />
    <path d="M608.69095 678.34018 L604.20109 683.73109" />
    <path d="M587.9432 684.47967 L589.27554 677.5916" />
    <path d="M587.9432 659.25613 L589.27554 652.36805" />
    <path d="M604.20109 658.50754 L608.69095 653.11664" />
    <path d="M621.01593 657.09023 L627.5494 654.53395" />
    <path d="M638.64124 655.35582 L645.59738 656.26837" />
    <path d="M657.12944 653.7346 L662.78248 657.88958" />
    <path d="M676.31889 652.6288 L679.26633 658.99538" />
    <path d="M676.31889 627.40526 L679.26633 633.77184" />
    <path d="M657.12944 628.51106 L662.78248 632.66604" />
    <path d="M638.64124 630.13227 L645.59738 631.04482" />
    <path d="M621.01593 631.86669 L627.5494 629.31041" />
    <path d="M608.69095 627.8931 L604.20109 633.284" />
    <path d="M587.9432 634.03259 L589.27554 627.14451" />
    <path d="M587.9432 608.80904 L589.27554 601.92097" />
    <path d="M604.20109 608.06046 L608.69095 602.66955" />
    <path d="M621.01593 606.64315 L627.5494 604.08687" />
    <path d="M638.64124 604.90873 L645.59738 605.82128" />
    <path d="M657.12944 603.28752 L662.78248 607.4425" />
    <path d="M676.31889 602.18172 L679.26633 608.5483" />
    <path d="M676.31889 576.95818 L679.26633 583.32475" />
    <path d="M657.12944 578.06398 L662.78248 582.21895" />
    <path d="M638.64124 579.68519 L645.59738 580.59774" />
    <path d="M621.01593 581.4196 L627.5494 578.86333" />
    <path d="M604.20109 582.83692 L608.69095 577.44601" />
    <path d="M587.9432 583.5855 L589.27554 576.69743" />
    <path d="M571.85058 583.47964 L569.69486 576.80329" />
    <path d="M555.49055 582.54559 L550.38159 577.73734" />
    <path d="M538.49677 581.01509 L531.70208 579.26784" />
    <path d="M520.66013 579.26784 L513.86543 581.01509" />
    <path d="M501.98061 577.73734 L496.87165 582.54559" />
    <path d="M482.66734 576.80329 L480.51162 583.47964" />
    <path d="M482.66734 602.02683 L480.51162 608.70318" />
    <path d="M496.87165 607.76913 L501.98061 602.96088" />
    <path d="M520.66013 604.49139 L513.86543 606.23863" />
    <path d="M520.66013 629.71493 L513.86543 631.46217" />
    <path d="M501.98061 628.18443 L496.87165 632.99267" />
    <path d="M482.66734 627.25038 L480.51162 633.92672" />
    <path d="M482.66734 652.47392 L480.51162 659.15026" />
    <path d="M496.87165 658.21621 L501.98061 653.40797" />
    <path d="M520.66013 654.93847 L513.86543 656.68571" />
    <path d="M520.66013 680.16201 L513.86543 681.90925" />
    <path d="M501.98061 678.63151 L496.87165 683.43976" />
    <path d="M482.66734 677.69746 L480.51162 684.37381" />
    <path d="M482.66734 702.921 L480.51162 709.59735" />
    <path d="M496.87165 708.6633 L501.98061 703.85505" />
    <path d="M520.66013 705.38555 L513.86543 707.1328" />
    <path d="M520.66013 730.6091 L513.86543 732.35634" />
    <path d="M501.98061 729.07859 L496.87165 733.88684" />
    <path d="M482.66734 728.14454 L480.51162 734.82089" />
    <path d="M482.66734 753.36809 L480.51162 760.04443" />
    <path d="M464.41901 760.1503 L463.08666 753.26222" />
    <path d="M448.16112 759.40171 L443.67126 754.01081" />
    <path d="M431.34627 757.9844 L424.81281 755.42812" />
    <path d="M413.72097 756.24998 L406.76482 757.16253" />
    <path d="M395.23277 754.62877 L389.57973 758.78375" />
    <path d="M376.04332 753.52297 L373.09588 759.88955" />
    <path d="M356.48825 753.20693 L356.97765 760.20559" />
    <path d="M356.48825 778.43047 L356.97765 785.42913" />
    <path d="M356.48825 803.65401 L356.97765 810.65267" />
    <path d="M356.48825 828.87756 L356.97765 835.87621" />
    <path d="M356.48825 854.1011 L356.97765 861.09976" />
    <path d="M356.48825 879.32464 L356.97765 886.3233" />
    <path d="M356.48825 904.54818 L356.97765 911.54684" />
    <path d="M356.48825 929.77172 L356.97765 936.77038" />
    <path d="M376.04332 930.08776 L373.09588 936.45434" />
    <path d="M395.23277 931.19356 L389.57973 935.34854" />
    <path d="M413.72097 932.81478 L406.76482 933.72733" />
    <path d="M431.34627 934.54919 L424.81281 931.99291" />
    <path d="M443.67126 930.5756 L448.16112 935.96651" />
    <path d="M464.41901 936.71509 L463.08666 929.82702" />
    <path d="M464.41901 911.49155 L463.08666 904.60347" />
    <path d="M448.16112 910.74296 L443.67126 905.35206" />
    <path d="M431.34627 909.32565 L424.81281 906.76937" />
    <path d="M413.72097 907.59124 L406.76482 908.50379" />
    <path d="M395.23277 905.97002 L389.57973 910.125" />
    <path d="M376.04332 904.86422 L373.09588 911.2308" />
    <path d="M389.57973 884.90146 L395.23277 880.74648" />
    <path d="M413.72097 882.36769 L406.76482 883.28024" />
    <path d="M431.34627 884.10211 L424.81281 881.54583" />
    <path d="M443.67126 880.12852 L448.16112 885.51942" />
    <path d="M464.41901 886.26801 L463.08666 879.37993" />
    <path d="M464.41901 861.04446 L463.08666 854.15639" />
    <path d="M448.16112 860.29588 L443.67126 854.90497" />
    <path d="M431.34627 858.87857 L424.81281 856.32229" />
    <path d="M413.72097 857.14415 L406.76482 858.0567" />
    <path d="M395.23277 855.52294 L389.57973 859.67792" />
    <path d="M376.04332 854.41714 L373.09588 860.78372" />
    <path d="M376.04332 879.64068 L373.09588 886.00726" />
    <path d="M336.99389 879.87677 L340.79872 885.77117" />
    <path d="M336.99389 905.10031 L340.79872 910.99471" />
    <path d="M336.99389 930.32385 L340.79872 936.21825" />
    <path d="M317.97151 931.60716 L324.1478 934.93494" />
    <path d="M317.97151 906.38362 L324.1478 909.7114" />
    <path d="M317.97151 881.16008 L324.1478 884.48786" />
    <path d="M340.79872 860.54763 L336.99389 854.65323" />
    <path d="M317.97151 855.93654 L324.1478 859.26432" />
    <path d="M340.79872 835.32409 L336.99389 829.42968" />
    <path d="M317.97151 830.713 L324.1478 834.04077" />
    <path d="M340.79872 810.10055 L336.99389 804.20614" />
    <path d="M317.97151 805.48945 L324.1478 808.81723" />
    <path d="M340.79872 784.877 L336.99389 778.9826" />
    <path d="M317.97151 780.26591 L324.1478 783.59369" />
    <path d="M340.79872 759.65346 L336.99389 753.75906" />
    <path d="M317.97151 755.04237 L324.1478 758.37015" />
    <path d="M324.1478 733.14661 L317.97151 729.81883" />
    <path d="M336.99389 728.53552 L340.79872 734.42992" />
    <path d="M356.97765 734.98205 L356.48825 727.98339" />
    <path d="M373.09588 734.66601 L376.04332 728.29943" />
    <path d="M389.57973 733.56021 L395.23277 729.40523" />
    <path d="M406.76482 731.93899 L413.72097 731.02644" />
    <path d="M424.81281 730.20458 L431.34627 732.76086" />
    <path d="M443.67126 728.78726 L448.16112 734.17817" />
    <path d="M463.08666 728.03868 L464.41901 734.92675" />
    <path d="M463.08666 702.81514 L464.41901 709.70321" />
    <path d="M443.67126 703.56372 L448.16112 708.95463" />
    <path d="M424.81281 704.98104 L431.34627 707.53731" />
    <path d="M406.76482 706.71545 L413.72097 705.8029" />
    <path d="M389.57973 708.33666 L395.23277 704.18169" />
    <path d="M376.04332 703.07589 L373.09588 709.44246" />
    <path d="M356.97765 709.7585 L356.48825 702.75985" />
    <path d="M340.79872 709.20638 L336.99389 703.31197" />
    <path d="M324.1478 707.92306 L317.97151 704.59529" />
    <path d="M324.1478 682.69952 L317.97151 679.37175" />
    <path d="M336.99389 678.08843 L340.79872 683.98284" />
    <path d="M356.97765 684.53496 L356.48825 677.5363" />
    <path d="M373.09588 684.21892 L376.04332 677.85234" />
    <path d="M389.57973 683.11312 L395.23277 678.95814" />
    <path d="M406.76482 681.49191 L413.72097 680.57936" />
    <path d="M424.81281 679.75749 L431.34627 682.31377" />
    <path d="M443.67126 678.34018 L448.16112 683.73109" />
    <path d="M463.08666 677.5916 L464.41901 684.47967" />
    <path d="M463.08666 652.36805 L464.41901 659.25613" />
    <path d="M443.67126 653.11664 L448.16112 658.50754" />
    <path d="M424.81281 654.53395 L431.34627 657.09023" />
    <path d="M406.76482 656.26837 L413.72097 655.35582" />
    <path d="M389.57973 657.88958 L395.23277 653.7346" />
    <path d="M376.04332 652.6288 L373.09588 658.99538" />
    <path d="M356.97765 659.31142 L356.48825 652.31276" />
    <path d="M340.79872 658.75929 L336.99389 652.86489" />
    <path d="M324.1478 657.47598 L317.97151 654.1482" />
    <path d="M324.1478 632.25244 L317.97151 628.92466" />
    <path d="M336.99389 627.64135 L340.79872 633.53575" />
    <path d="M356.97765 634.08788 L356.48825 627.08922" />
    <path d="M373.09588 633.77184 L376.04332 627.40526" />
    <path d="M389.57973 632.66604 L395.23277 628.51106" />
    <path d="M406.76482 631.04482 L413.72097 630.13227" />
    <path d="M424.81281 629.31041 L431.34627 631.86669" />
    <path d="M443.67126 627.8931 L448.16112 633.284" />
    <path d="M463.08666 627.14451 L464.41901 634.03259" />
    <path d="M463.08666 601.92097 L464.41901 608.80904" />
    <path d="M443.67126 602.66955 L448.16112 608.06046" />
    <path d="M424.81281 604.08687 L431.34627 606.64315" />
    <path d="M406.76482 605.82128 L413.72097 604.90873" />
    <path d="M389.57973 607.4425 L395.23277 603.28752" />
    <path d="M376.04332 602.18172 L373.09588 608.5483" />
    <path d="M356.97765 608.86434 L356.48825 601.86568" />
    <path d="M340.79872 608.31221 L336.99389 602.41781" />
    <path d="M324.1478 607.0289 L317.97151 603.70112" />
    <path d="M324.1478 581.80535 L317.97151 578.47758" />
    <path d="M336.99389 577.19426 L340.79872 583.08867" />
    <path d="M356.97765 583.64079 L356.48825 576.64214" />
    <path d="M373.09588 583.32475 L376.04332 576.95818" />
    <path d="M389.57973 582.21895 L395.23277 578.06398" />
    <path d="M406.76482 580.59774 L413.72097 579.68519" />
    <path d="M424.81281 578.86333 L431.34627 581.4196" />
    <path d="M443.67126 577.44601 L448.16112 582.83692" />
    <path d="M463.08666 576.69743 L464.41901 583.5855" />
    <path d="M531.70208 604.49139 L538.49677 606.23863" />
    <path d="M550.38159 602.96088 L555.49055 607.76913" />
    <path d="M569.69486 602.02683 L571.85058 608.70318" />
    <path d="M571.85058 633.92672 L569.69486 627.25038" />
    <path d="M555.49055 632.99267 L550.38159 628.18443" />
    <path d="M538.49677 631.46217 L531.70208 629.71493" />
    <path d="M531.70208 654.93847 L538.49677 656.68571" />
    <path d="M550.38159 653.40797 L555.49055 658.21621" />
    <path d="M569.69486 652.47392 L571.85058 659.15026" />
    <path d="M571.85058 684.37381 L569.69486 677.69746" />
    <path d="M555.49055 683.43976 L550.38159 678.63151" />
    <path d="M538.49677 681.90925 L531.70208 680.16201" />
    <path d="M531.70208 705.38555 L538.49677 707.1328" />
    <path d="M550.38159 703.85505 L555.49055 708.6633" />
    <path d="M569.69486 702.921 L571.85058 709.59735" />
    <path d="M571.85058 734.82089 L569.69486 728.14454" />
    <path d="M555.49055 733.88684 L550.38159 729.07859" />
    <path d="M538.49677 732.35634 L531.70208 730.6091" />
    <path d="M531.70208 755.83264 L538.49677 757.57988" />
    <path d="M550.38159 754.30214 L555.49055 759.11038" />
    <path d="M569.69486 753.36809 L571.85058 760.04443" />
    <path d="M569.69486 778.59163 L571.85058 785.26797" />
    <path d="M569.69486 803.81517 L571.85058 810.49152" />
    <path d="M569.69486 829.03871 L571.85058 835.71506" />
    <path d="M569.69486 854.26225 L571.85058 860.9386" />
    <path d="M569.69486 879.4858 L571.85058 886.16214" />
    <path d="M569.69486 904.70934 L571.85058 911.38568" />
    <path d="M569.69486 929.93288 L571.85058 936.60923" />
    <path d="M550.38159 930.86693 L555.49055 935.67518" />
    <path d="M531.70208 932.39743 L538.49677 934.14467" />
    <path d="M513.86543 934.14467 L520.66013 932.39743" />
    <path d="M496.87165 935.67518 L501.98061 930.86693" />
    <path d="M482.66734 929.93288 L480.51162 936.60923" />
    <path d="M480.51162 911.38568 L482.66734 904.70934" />
    <path d="M496.87165 910.45163 L501.98061 905.64339" />
    <path d="M513.86543 908.92113 L520.66013 907.17389" />
    <path d="M531.70208 907.17389 L538.49677 908.92113" />
    <path d="M550.38159 905.64339 L555.49055 910.45163" />
    <path d="M550.38159 880.41985 L555.49055 885.22809" />
    <path d="M531.70208 881.95035 L538.49677 883.69759" />
    <path d="M513.86543 883.69759 L520.66013 881.95035" />
    <path d="M496.87165 885.22809 L501.98061 880.41985" />
    <path d="M482.66734 879.4858 L480.51162 886.16214" />
    <path d="M480.51162 860.9386 L482.66734 854.26225" />
    <path d="M496.87165 860.00455 L501.98061 855.1963" />
    <path d="M513.86543 858.47405 L520.66013 856.72681" />
    <path d="M531.70208 856.72681 L538.49677 858.47405" />
    <path d="M550.38159 855.1963 L555.49055 860.00455" />
    <path d="M550.38159 829.97276 L555.49055 834.78101" />
    <path d="M531.70208 831.50326 L538.49677 833.25051" />
    <path d="M513.86543 833.25051 L520.66013 831.50326" />
    <path d="M496.87165 834.78101 L501.98061 829.97276" />
    <path d="M482.66734 829.03871 L480.51162 835.71506" />
    <path d="M464.41901 835.82092 L463.08666 828.93285" />
    <path d="M448.16112 835.07234 L443.67126 829.68143" />
    <path d="M431.34627 833.65502 L424.81281 831.09875" />
    <path d="M413.72097 831.92061 L406.76482 832.83316" />
    <path d="M395.23277 830.2994 L389.57973 834.45437" />
    <path d="M376.04332 829.1936 L373.09588 835.56017" />
    <path d="M389.57973 809.23083 L395.23277 805.07585" />
    <path d="M413.72097 806.69707 L406.76482 807.60962" />
    <path d="M431.34627 808.43148 L424.81281 805.8752" />
    <path d="M443.67126 804.45789 L448.16112 809.8488" />
    <path d="M464.41901 810.59738 L463.08666 803.70931" />
    <path d="M464.41901 785.37384 L463.08666 778.48576" />
    <path d="M448.16112 784.62525 L443.67126 779.23435" />
    <path d="M431.34627 783.20794 L424.81281 780.65166" />
    <path d="M413.72097 781.47353 L406.76482 782.38608" />
    <path d="M395.23277 779.85231 L389.57973 784.00729" />
    <path d="M376.04332 778.74651 L373.09588 785.11309" />
    <path d="M376.04332 803.97005 L373.09588 810.33663" />
    <path d="M480.51162 810.49152 L482.66734 803.81517" />
    <path d="M496.87165 809.55747 L501.98061 804.74922" />
    <path d="M513.86543 808.02696 L520.66013 806.27972" />
    <path d="M531.70208 806.27972 L538.49677 808.02696" />
    <path d="M550.38159 804.74922 L555.49055 809.55747" />
    <path d="M550.38159 779.52568 L555.49055 784.33392" />
    <path d="M531.70208 781.05618 L538.49677 782.80342" />
    <path d="M513.86543 782.80342 L520.66013 781.05618" />
    <path d="M496.87165 784.33392 L501.98061 779.52568" />
    <path d="M482.66734 778.59163 L480.51162 785.26797" />
    <path d="M496.87165 759.11038 L501.98061 754.30214" />
    <path d="M513.86543 757.57988 L520.66013 755.83264" />
  </g>
</svg>