<?xml version="1.0" standalone="no"?>
<!DOCTYPE svg PUBLIC "-//W3C//DTD SVG 1.1//EN" 
    "http://www.w3.org/Graphics/SVG/1.1/DTD/svg11.dtd">
<svg width="29.7cm" height="42cm"
    xmlns="http://www.w3.org/2000/svg" version="1.1" viewBox="0 0 1052.3622 1488.18898">
  <g fill="none" stroke="black" stroke-width="0.05cm" stroke-linejoin="round" stroke-linecap="round">
    <path d="M24.85895 316.38663 L24.85895 503.87501" />
    <path d="M33.14527 515.59303 L33.14527 304.66861" />
    <path d="M41.43158 292.95059 L41.43158 527.31105" />
    <path d="M49.7179 527.31105 L49.7179 292.95059" />
    <path d="M58.00422 292.95059 L58.00422 527.31105" />
    <path d="M66.29053 539.02908 L66.29053 281.23256" />
    <path d="M74.57685 281.23256 L74.57685 539.02908" />
    <path d="M82.86317 539.02908 L82.86317 281.23256" />
    <path d="M91.14948 269.51454 L91.14948 539.02908" />
    <path d="M99.4358 539.02908 L99.4358 269.51454" />
    <path d="M107.72212 269.51454 L107.72212 539.02908" />
    <path d="M116.00843 539.02908 L116.00843 269.51454" />
    <path d="M124.29475 257.79652 L124.29475 539.02908" />
    <path d="M132.58107 539.02908 L132.58107 257.79652" />
    <path d="M140.86738 257.79652 L140.86738 539.02908" />
    <path d="M149.1537 539.02908 L149.1537 246.07849" />
    <path d="M157.44001 246.07849 L157.44001 539.02908" />
    <path d="M174.01265 527.31105 L174.01265 222.64245" />
    <path d="M165.72633 234.36047 L165.72633 539.02908" />
    <path d="M190.58528 527.31105 L190.58528 187.48837" />
    <path d="M198.8716 164.05233 L198.8716 515.59303" />
    <path d="M207.15791 515.59303 L207.15791 152.3343" />
    <path d="M215.44423 128.89826 L215.44423 503.87501" />
    <path d="M223.73055 503.87501 L223.73055 117.18023" />
    <path d="M232.01686 105.46221 L232.01686 492.15698" />
    <path d="M240.30318 492.15698 L240.30318 93.74419" />
    <path d="M248.5895 82.02616 L248.5895 480.43896" />
    <path d="M256.87581 468.72094 L256.87581 70.30814" />
    <path d="M265.16213 58.59012 L265.16213 457.00291" />
    <path d="M273.44845 457.00291 L273.44845 46.87209" />
    <path d="M281.73476 46.87209 L281.73476 445.28489" />
    <path d="M290.02108 445.28489 L290.02108 35.15407" />
    <path d="M298.3074 23.43605 L298.3074 445.28489" />
    <path d="M306.59371 433.56687 L306.59371 21.04724" />
    <path d="M314.88003 21.04724 L314.88003 433.56687" />
    <path d="M323.16635 433.56687 L323.16635 21.04724" />
    <path d="M331.45266 21.04724 L331.45266 433.56687" />
    <path d="M339.73898 433.56687 L339.73898 21.04724" />
    <path d="M348.0253 21.04724 L348.0253 433.56687" />
    <path d="M356.31161 433.56687 L356.31161 21.04724" />
    <path d="M364.59793 21.04724 L364.59793 445.28489" />
    <path d="M372.88425 445.28489 L372.88425 21.04724" />
    <path d="M381.17056 21.04724 L381.17056 445.28489" />
    <path d="M389.45688 445.28489 L389.45688 21.04724" />
    <path d="M397.7432 21.04724 L397.7432 445.28489" />
    <path d="M406.02951 445.28489 L406.02951 21.04724" />
    <path d="M414.31583 21.04724 L414.31583 457.00291" />
    <path d="M422.60215 457.00291 L422.60215 21.04724" />
    <path d="M430.88846 21.04724 L430.88846 457.00291" />
    <path d="M439.17478 468.72094 L439.17478 21.04724" />
    <path d="M447.46109 21.04724 L447.46109 503.87501" />
    <path d="M455.74741 597.6192 L455.74741 21.04724" />
    <path d="M464.03373 21.04724 L464.03373 621.05524" />
    <path d="M472.32004 644.49129 L472.32004 21.04724" />
    <path d="M480.60636 21.04724 L480.60636 656.20931" />
    <path d="M488.89268 667.92734 L488.89268 21.04724" />
    <path d="M497.17899 21.04724 L497.17899 679.64536" />
    <path d="M505.46531 691.36338 L505.46531 21.04724" />
    <path d="M513.75163 21.04724 L513.75163 703.08141" />
    <path d="M522.03794 703.08141 L522.03794 21.04724" />
    <path d="M530.32426 21.04724 L530.32426 714.79943" />
    <path d="M538.61058 714.79943 L538.61058 21.04724" />
    <path d="M546.89689 21.04724 L546.89689 714.79943" />
    <path d="M555.18321 726.51745 L555.18321 21.04724" />
    <path d="M563.46953 21.04724 L563.46953 726.51745" />
    <path d="M571.75584 726.51745 L571.75584 21.04724" />
    <path d="M580.04216 21.04724 L580.04216 726.51745" />
    <path d="M588.32848 738.23548 L588.32848 21.04724" />
    <path d="M596.61479 21.04724 L596.61479 738.23548" />
    <path d="M604.90111 738.23548 L604.90111 21.04724" />
    <path d="M613.18743 21.04724 L613.18743 738.23548" />
    <path d="M621.47374 738.23548 L621.47374 21.04724" />
    <path d="M629.76006 21.04724 L629.76006 738.23548" />
    <path d="M638.04638 738.23548 L638.04638 21.04724" />
    <path d="M646.33269 21.04724 L646.33269 339.82268" />
    <path d="M646.33269 363.25873 L646.33269 738.23548" />
    <path d="M671.19164 726.51745 L671.19164 398.4128" />
    <path d="M662.90533 398.4128 L662.90533 726.51745" />
    <path d="M687.76428 714.79943 L687.76428 410.13082" />
    <path d="M679.47796 410.13082 L679.47796 726.51745" />
    <path d="M704.33691 714.79943 L704.33691 421.84884" />
    <path d="M696.05059 421.84884 L696.05059 714.79943" />
    <path d="M720.90954 703.08141 L720.90954 433.56687" />
    <path d="M712.62323 433.56687 L712.62323 703.08141" />
    <path d="M745.76849 667.92734 L745.76849 457.00291" />
    <path d="M737.48217 457.00291 L737.48217 679.64536" />
    <path d="M778.91376 515.59303 L778.91376 597.6192" />
    <path d="M770.62744 492.15698 L770.62744 621.05524" />
    <path d="M861.77692 515.59303 L861.77692 374.97675" />
    <path d="M870.06324 363.25873 L870.06324 515.59303" />
    <path d="M878.34956 527.31105 L878.34956 351.5407" />
    <path d="M886.63587 351.5407 L886.63587 539.02908" />
    <path d="M894.92219 539.02908 L894.92219 339.82268" />
    <path d="M903.20851 328.10466 L903.20851 550.7471" />
    <path d="M911.49482 550.7471 L911.49482 328.10466" />
    <path d="M919.78114 316.38663 L919.78114 562.46512" />
    <path d="M928.06746 562.46512 L928.06746 316.38663" />
    <path d="M936.35377 316.38663 L936.35377 562.46512" />
    <path d="M944.64009 562.46512 L944.64009 304.66861" />
    <path d="M952.92641 304.66861 L952.92641 574.18315" />
    <path d="M961.21272 574.18315 L961.21272 304.66861" />
    <path d="M969.49904 304.66861 L969.49904 574.18315" />
    <path d="M977.78536 574.18315 L977.78536 304.66861" />
    <path d="M986.07167 304.66861 L986.07167 574.18315" />
    <path d="M994.35799 574.18315 L994.35799 304.66861" />
    <path d="M1002.64431 304.66861 L1002.64431 574.18315" />
    <path d="M1010.93062 574.18315 L1010.93062 304.66861" />
    <path d="M1019.21694 304.66861 L1019.21694 574.18315" />
    <path d="M1027.50326 562.46512 L1027.50326 304.66861" />
    <path d="M969.49904 117.18023 L969.49904 21.04724" />
    <path d="M961.21272 21.04724 L961.21272 117.18023" />
    <path d="M977.78536 105.46221 L977.78536 21.04724" />
    <path d="M986.07167 21.04724 L986.07167 105.46221" />
    <path d="M1002.64431 93.74419 L1002.64431 21.04724" />
    <path d="M994.35799 21.04724 L994.35799 93.74419" />
    <path d="M1019.21694 70.30814 L1019.21694 21.04724" />
    <path d="M1010.93062 21.04724 L1010.93062 82.02616" />
    <path d="M1027.50326 21.04724 L1027.50326 35.15407" />
    <path d="M952.92641 21.04724 L952.92641 117.18023" />
    <path d="M944.64009 21.04724 L944.64009 117.18023" />
    <path d="M936.35377 21.04724 L936.35377 117.18023" />
    <path d="M928.06746 21.04724 L928.06746 117.18023" />
    <path d="M919.78114 21.04724 L919.78114 117.18023" />
    <path d="M911.49482 21.04724 L911.49482 117.18023" />
    <path d="M903.20851 21.04724 L903.20851 117.18023" />
    <path d="M894.92219 21.04724 L894.92219 105.46221" />
    <path d="M886.63587 21.04724 L886.63587 105.46221" />
    <path d="M878.34956 21.04724 L878.34956 93.74419" />
    <path d="M870.06324 21.04724 L870.06324 93.74419" />
    <path d="M861.77692 21.04724 L861.77692 82.02616" />
    <path d="M853.49061 21.04724 L853.49061 58.59012" />
    <path d="M679.47796 82.02616 L679.47796 234.36047" />
    <path d="M671.19164 269.51454 L671.19164 58.59012" />
    <path d="M662.90533 35.15407 L662.90533 292.95059" />
    <path d="M654.61901 386.69477 L654.61901 726.51745" />
    <path d="M762.34112 480.43896 L762.34112 644.49129" />
    <path d="M754.05481 468.72094 L754.05481 656.20931" />
    <path d="M853.49061 492.15698 L853.49061 398.4128" />
    <path d="M845.20429 421.84884 L845.20429 468.72094" />
    <path d="M729.19586 445.28489 L729.19586 691.36338" />
    <path d="M894.92219 925.72385 L894.92219 1148.3663" />
    <path d="M903.20851 1148.3663 L903.20851 925.72385" />
    <path d="M911.49482 914.00583 L911.49482 1160.08432" />
    <path d="M919.78114 1160.08432 L919.78114 914.00583" />
    <path d="M928.06746 914.00583 L928.06746 1160.08432" />
    <path d="M936.35377 1160.08432 L936.35377 914.00583" />
    <path d="M944.64009 902.2878 L944.64009 1171.80234" />
    <path d="M952.92641 1171.80234 L952.92641 902.2878" />
    <path d="M961.21272 902.2878 L961.21272 1171.80234" />
    <path d="M969.49904 1171.80234 L969.49904 902.2878" />
    <path d="M977.78536 902.2878 L977.78536 1171.80234" />
    <path d="M986.07167 1171.80234 L986.07167 902.2878" />
    <path d="M994.35799 902.2878 L994.35799 1171.80234" />
    <path d="M1002.64431 1171.80234 L1002.64431 902.2878" />
    <path d="M1010.93062 902.2878 L1010.93062 1160.08432" />
    <path d="M1019.21694 1160.08432 L1019.21694 914.00583" />
    <path d="M1027.50326 914.00583 L1027.50326 1160.08432" />
    <path d="M886.63587 1148.3663 L886.63587 937.44187" />
    <path d="M878.34956 949.1599 L878.34956 1136.64827" />
    <path d="M870.06324 1124.93025 L870.06324 949.1599" />
    <path d="M861.77692 960.87792 L861.77692 1124.93025" />
    <path d="M853.49061 1101.4942 L853.49061 984.31397" />
    <path d="M845.20429 996.03199 L845.20429 1089.77618" />
    <path d="M745.76849 1160.08432 L745.76849 1394.44479" />
    <path d="M754.05481 1382.72677 L754.05481 1171.80234" />
    <path d="M762.34112 1183.52037 L762.34112 1371.00874" />
    <path d="M770.62744 1359.29072 L770.62744 1195.23839" />
    <path d="M778.91376 1206.95641 L778.91376 1347.5727" />
    <path d="M787.20007 1324.13665 L787.20007 1218.67444" />
    <path d="M737.48217 1160.08432 L737.48217 1406.16281" />
    <path d="M729.19586 1406.16281 L729.19586 1148.3663" />
    <path d="M720.90954 1148.3663 L720.90954 1417.88084" />
    <path d="M712.62323 1417.88084 L712.62323 1136.64827" />
    <path d="M704.33691 1136.64827 L704.33691 1429.59886" />
    <path d="M696.05059 1429.59886 L696.05059 1124.93025" />
    <path d="M687.76428 1124.93025 L687.76428 1441.31688" />
    <path d="M679.47796 1441.31688 L679.47796 1124.93025" />
    <path d="M671.19164 1124.93025 L671.19164 1441.31688" />
    <path d="M662.90533 1453.03491 L662.90533 1113.21223" />
    <path d="M654.61901 1113.21223 L654.61901 1453.03491" />
    <path d="M646.33269 1453.03491 L646.33269 1113.21223" />
    <path d="M638.04638 1113.21223 L638.04638 1453.03491" />
    <path d="M629.76006 1453.03491 L629.76006 1113.21223" />
    <path d="M621.47374 1113.21223 L621.47374 1453.03491" />
    <path d="M613.18743 1464.75293 L613.18743 1113.21223" />
    <path d="M604.90111 1101.4942 L604.90111 1464.75293" />
    <path d="M596.61479 1464.75293 L596.61479 1101.4942" />
    <path d="M588.32848 1101.4942 L588.32848 1464.75293" />
    <path d="M580.04216 1464.75293 L580.04216 1101.4942" />
    <path d="M571.75584 1101.4942 L571.75584 1453.03491" />
    <path d="M563.46953 1453.03491 L563.46953 1101.4942" />
    <path d="M555.18321 1101.4942 L555.18321 1453.03491" />
    <path d="M546.89689 1453.03491 L546.89689 1101.4942" />
    <path d="M538.61058 1101.4942 L538.61058 1453.03491" />
    <path d="M530.32426 1453.03491 L530.32426 1089.77618" />
    <path d="M522.03794 1089.77618 L522.03794 1441.31688" />
    <path d="M513.75163 1441.31688 L513.75163 1089.77618" />
    <path d="M505.46531 1089.77618 L505.46531 1441.31688" />
    <path d="M497.17899 1441.31688 L497.17899 1078.05816" />
    <path d="M488.89268 1078.05816 L488.89268 1429.59886" />
    <path d="M480.60636 1429.59886 L480.60636 1066.34013" />
    <path d="M472.32004 1066.34013 L472.32004 1429.59886" />
    <path d="M464.03373 1417.88084 L464.03373 1054.62211" />
    <path d="M455.74741 1054.62211 L455.74741 1417.88084" />
    <path d="M447.46109 1417.88084 L447.46109 1042.90409" />
    <path d="M439.17478 1042.90409 L439.17478 1417.88084" />
    <path d="M430.88846 1417.88084 L430.88846 1031.18606" />
    <path d="M422.60215 1031.18606 L422.60215 1406.16281" />
    <path d="M414.31583 1406.16281 L414.31583 1031.18606" />
    <path d="M406.02951 1019.46804 L406.02951 1406.16281" />
    <path d="M397.7432 1406.16281 L397.7432 1019.46804" />
    <path d="M389.45688 1019.46804 L389.45688 1406.16281" />
    <path d="M381.17056 1406.16281 L381.17056 1007.75002" />
    <path d="M372.88425 1007.75002 L372.88425 1406.16281" />
    <path d="M364.59793 1417.88084 L364.59793 1007.75002" />
    <path d="M356.31161 1007.75002 L356.31161 1417.88084" />
    <path d="M348.0253 1417.88084 L348.0253 1007.75002" />
    <path d="M339.73898 1007.75002 L339.73898 1417.88084" />
    <path d="M331.45266 1417.88084 L331.45266 1007.75002" />
    <path d="M323.16635 1007.75002 L323.16635 1417.88084" />
    <path d="M314.88003 1406.16281 L314.88003 1007.75002" />
    <path d="M306.59371 1007.75002 L306.59371 1406.16281" />
    <path d="M298.3074 1406.16281 L298.3074 1007.75002" />
    <path d="M290.02108 1007.75002 L290.02108 1406.16281" />
    <path d="M281.73476 1406.16281 L281.73476 1007.75002" />
    <path d="M273.44845 1007.75002 L273.44845 1406.16281" />
    <path d="M265.16213 1394.44479 L265.16213 1019.46804" />
    <path d="M256.87581 1019.46804 L256.87581 1394.44479" />
    <path d="M248.5895 1394.44479 L248.5895 1019.46804" />
    <path d="M240.30318 1031.18606 L240.30318 1382.72677" />
    <path d="M232.01686 1382.72677 L232.01686 1031.18606" />
    <path d="M223.73055 1042.90409 L223.73055 1382.72677" />
    <path d="M215.44423 1371.00874 L215.44423 1042.90409" />
    <path d="M207.15791 1054.62211 L207.15791 1359.29072" />
    <path d="M198.8716 1359.29072 L198.8716 1054.62211" />
    <path d="M190.58528 1066.34013 L190.58528 1347.5727" />
    <path d="M182.29896 1335.85467 L182.29896 1078.05816" />
    <path d="M174.01265 1089.77618 L174.01265 1324.13665" />
    <path d="M165.72633 1300.7006 L165.72633 1113.21223" />
    <path d="M157.44001 1136.64827 L157.44001 1277.26455" />
    <path d="M149.1537 1242.11048 L149.1537 1171.80234" />
    <path d="M182.29896 527.31105 L182.29896 210.92442" />
    <path d="M654.61901 316.38663 L654.61901 21.04724" />
    <path d="M687.76428 140.61628 L687.76428 175.77035" />
  </g>
</svg>