<?xml version="1.0" standalone="no"?>
<!DOCTYPE svg PUBLIC "-//W3C//DTD SVG 1.1//EN" 
    "http://www.w3.org/Graphics/SVG/1.1/DTD/svg11.dtd">
<svg width="29.7cm" height="42cm"
    xmlns="http://www.w3.org/2000/svg" version="1.1" viewBox="0 0 1052.3622 1488.18898">
  <g fill="none" stroke="black" stroke-width="0.1cm" stroke-linejoin="round" stroke-linecap="round">
    <path d="M320.91792 551.41291 L321.20139 558.42293" />
    <path d="M338.87868 558.42575 L338.91393 551.41009" />
    <path d="M356.92563 551.41535 L356.54027 558.4205" />
    <path d="M374.18525 558.40468 L374.95394 551.43117" />
    <path d="M392.99935 551.46055 L391.81314 558.37529" />
    <path d="M409.42414 558.32891 L411.06165 551.50694" />
    <path d="M427.01945 558.26178 L429.13963 551.57407" />
    <path d="M444.60159 558.17016 L447.23078 551.66569" />
    <path d="M462.17465 558.05074 L465.33102 551.78511" />
    <path d="M479.74429 557.90128 L483.43468 551.93457" />
    <path d="M497.31748 557.72127 L501.53478 552.11457" />
    <path d="M514.90189 557.51242 L519.62366 552.32343" />
    <path d="M532.50493 557.27881 L537.69392 552.55704" />
    <path d="M550.13272 557.02658 L555.73942 552.80927" />
    <path d="M567.78936 556.76312 L573.75608 553.07273" />
    <path d="M585.47656 556.49611 L591.74218 553.33974" />
    <path d="M603.19378 556.23252 L609.69825 553.60333" />
    <path d="M620.93881 555.97802 L627.62652 553.85783" />
    <path d="M638.70833 555.73668 L645.5303 554.09917" />
    <path d="M656.49859 555.51103 L663.41333 554.32482" />
    <path d="M674.30585 555.30227 L681.27936 554.53358" />
    <path d="M692.12668 555.1106 L699.13183 554.72524" />
    <path d="M709.95807 554.93555 L716.97373 554.9003" />
    <path d="M727.79754 554.77619 L734.80756 555.05966" />
    <path d="M734.7888 580.53034 L727.8163 579.75259" />
    <path d="M716.96606 580.37397 L709.96574 579.90896" />
    <path d="M699.13665 580.19927 L692.12186 580.08366" />
    <path d="M681.2978 580.00438 L674.28741 580.27855" />
    <path d="M663.44595 579.78771 L656.46597 580.49522" />
    <path d="M645.57668 579.54836 L638.66194 580.73457" />
    <path d="M627.68477 579.28655 L620.88056 580.99638" />
    <path d="M609.76446 579.00431 L603.12757 581.27862" />
    <path d="M591.81011 578.70604 L585.40863 581.57689" />
    <path d="M573.81719 578.39895 L567.72825 581.88398" />
    <path d="M555.78362 578.0929 L550.08852 582.19003" />
    <path d="M537.71093 577.79941 L532.48792 582.48352" />
    <path d="M519.60483 577.52996 L514.92072 582.75297" />
    <path d="M501.4747 577.29391 L497.37756 582.98902" />
    <path d="M483.332 577.09699 L479.84697 583.18594" />
    <path d="M465.18826 576.94073 L462.31741 583.3422" />
    <path d="M447.05335 576.82302 L444.77903 583.45991" />
    <path d="M428.93445 576.73936 L427.22463 583.54357" />
    <path d="M410.836 576.6841 L409.64979 583.59884" />
    <path d="M392.76 576.65147 L392.05249 583.63146" />
    <path d="M392.47001 601.85771 L392.34248 608.8723" />
    <path d="M409.93021 608.85892 L410.55558 601.8711" />
    <path d="M428.67265 601.90764 L427.48644 608.82238" />
    <path d="M428.33423 627.08993 L427.82485 634.08717" />
    <path d="M445.32308 634.04592 L446.50929 627.13118" />
    <path d="M464.73087 627.21978 L462.7748 633.95732" />
    <path d="M464.34594 652.35472 L463.15973 659.26946" />
    <path d="M480.49376 659.14444 L482.68521 652.47974" />
    <path d="M501.08054 652.71885 L497.77172 658.90533" />
    <path d="M500.74072 677.7834 L498.11154 684.28787" />
    <path d="M515.15413 683.83898 L519.37143 678.23228" />
    <path d="M537.90278 678.92698 L532.29608 683.14429" />
    <path d="M538.08278 704.41398 L532.11607 708.10437" />
    <path d="M519.10798 703.27582 L515.41758 709.24253" />
    <path d="M500.01924 702.80181 L498.83303 709.71655" />
    <path d="M498.24009 728.18143 L500.61218 734.784" />
    <path d="M517.85588 728.02535 L516.66967 734.94009" />
    <path d="M520.72015 756.11315 L513.80541 757.29936" />
    <path d="M496.12485 755.52021 L502.72742 757.8923" />
    <path d="M502.8835 781.3367 L495.96876 782.52291" />
    <path d="M478.09333 781.64323 L485.08563 782.21637" />
    <path d="M485.04685 806.56024 L478.13211 807.74645" />
    <path d="M460.24501 807.17097 L467.26067 807.13572" />
    <path d="M467.21021 831.78378 L460.29547 832.96999" />
    <path d="M442.41228 832.54356 L449.4201 832.21021" />
    <path d="M449.37356 857.00732 L442.45882 858.19353" />
    <path d="M424.58092 857.85512 L431.57816 857.34574" />
    <path d="M406.73522 857.56324 L413.75057 857.63761" />
    <path d="M388.9101 857.31386 L395.90239 857.887" />
    <path d="M371.09741 857.10137 L378.04179 858.09949" />
    <path d="M353.29169 856.92006 L360.17421 858.28079" />
    <path d="M335.48942 856.76478 L342.30319 858.43608" />
    <path d="M317.68837 856.63108 L324.43094 858.56978" />
    <path d="M317.6154 882.15894 L324.50391 883.489" />
    <path d="M335.4267 882.30722 L342.36591 883.34072" />
    <path d="M353.24237 882.47603 L360.22353 883.1719" />
    <path d="M371.06517 882.66848 L378.07402 882.97946" />
    <path d="M388.89895 882.88774 L395.91354 882.7602" />
    <path d="M406.74898 883.13665 L413.7368 882.51128" />
    <path d="M424.62217 883.41707 L431.53691 882.23086" />
    <path d="M442.52701 883.72877 L449.30536 881.91917" />
    <path d="M460.47298 884.06805 L467.03269 881.57989" />
    <path d="M478.46899 884.42638 L484.70997 881.22156" />
    <path d="M496.52085 884.78981 L502.33141 880.85812" />
    <path d="M514.62832 885.14017 L519.89724 880.50777" />
    <path d="M532.78322 885.45843 L537.41563 880.18951" />
    <path d="M550.97023 885.72925 L554.90192 879.91869" />
    <path d="M569.17031 885.94446 L572.37513 879.70348" />
    <path d="M587.36529 886.10382 L589.85345 879.54412" />
    <path d="M605.54121 886.21314 L607.35082 879.43479" />
    <path d="M623.68956 886.28134 L624.87577 879.3666" />
    <path d="M642.432 879.33006 L641.80663 886.31788" />
    <path d="M659.89219 886.33126 L660.01973 879.31667" />
    <path d="M677.63712 879.31954 L677.94809 886.3284" />
    <path d="M695.97719 886.31455 L695.28132 879.33339" />
    <path d="M712.94915 879.35437 L713.98265 886.29357" />
    <path d="M731.96758 886.26823 L730.63752 879.37971" />
    <path d="M732.2719 860.97171 L730.3332 854.22915" />
    <path d="M714.30155 861.00731 L712.63025 854.19354" />
    <path d="M696.30962 861.04169 L694.94889 854.15916" />
    <path d="M678.29167 861.07262 L677.29355 854.12823" />
    <path d="M659.66939 854.10428 L660.24253 861.09658" />
    <path d="M642.1565 861.1081 L642.08213 854.09275" />
    <path d="M624.53735 854.10181 L624.02798 861.09904" />
    <path d="M605.85291 861.0578 L607.03912 854.14306" />
    <path d="M589.5874 854.23165 L587.63134 860.9692" />
    <path d="M569.37103 860.81608 L572.17442 854.38477" />
    <path d="M554.78127 854.61707 L551.09088 860.58378" />
    <path d="M532.8209 860.26754 L537.37795 854.93331" />
    <path d="M519.92989 855.3219 L514.59567 859.87895" />
    <path d="M496.44277 859.44563 L502.40949 855.75523" />
    <path d="M484.80514 856.19873 L478.37383 859.00212" />
    <path d="M460.38406 858.57846 L467.12161 856.6224" />
    <path d="M478.25713 833.47261 L484.92184 831.28116" />
    <path d="M496.33289 834.03129 L502.51937 830.72248" />
    <path d="M514.54559 834.59546 L519.97997 830.15831" />
    <path d="M532.88085 835.09407 L537.318 829.6597" />
    <path d="M551.28166 835.47012 L554.59048 829.28365" />
    <path d="M569.677 835.70924 L571.86844 829.04453" />
    <path d="M588.01626 835.83425 L589.20247 828.91952" />
    <path d="M606.61269 828.87297 L606.27934 835.8808" />
    <path d="M624.46721 835.8799 L624.09812 828.87387" />
    <path d="M641.64857 828.90074 L642.59006 835.85303" />
    <path d="M660.65999 835.81338 L659.25193 828.94039" />
    <path d="M676.89724 828.9852 L678.68797 835.76857" />
    <path d="M696.68295 835.72276 L694.57555 829.03101" />
    <path d="M712.27986 829.0756 L714.65195 835.67817" />
    <path d="M732.60034 835.63586 L730.00476 829.11791" />
    <path d="M732.94461 810.25315 L729.66049 804.05353" />
    <path d="M715.02517 810.29562 L711.90664 804.01107" />
    <path d="M697.08883 810.34314 L694.16968 803.96354" />
    <path d="M679.13028 810.39615 L676.45493 803.91053" />
    <path d="M661.142 810.45463 L658.76991 803.85206" />
    <path d="M643.11315 810.51749 L641.12547 803.7892" />
    <path d="M625.028 810.58112 L623.53733 803.72557" />
    <path d="M606.86414 810.63621 L606.0279 803.67048" />
    <path d="M588.627 803.64551 L588.59174 810.66117" />
    <path d="M570.17962 810.61071 L571.36583 803.69597" />
    <path d="M554.25067 803.90111 L551.62148 810.40558" />
    <path d="M532.99077 809.95669 L537.20808 804.34999" />
    <path d="M520.06613 805.04469 L514.45943 809.262" />
    <path d="M496.1739 808.46794 L502.67836 805.83875" />
    <path d="M514.27942 783.775 L520.24614 780.0846" />
    <path d="M533.25423 784.91316 L536.94462 778.94644" />
    <path d="M552.34297 785.38717 L553.52918 778.47243" />
    <path d="M570.48615 778.43365 L571.05929 785.42595" />
    <path d="M589.44502 785.33669 L587.77372 778.52292" />
    <path d="M605.25997 778.62852 L607.63206 785.23109" />
    <path d="M625.70439 785.13665 L622.86094 778.72295" />
    <path d="M640.53079 778.80222 L643.70784 785.05738" />
    <path d="M661.66772 784.99167 L658.2442 778.86793" />
    <path d="M675.98656 778.92258 L679.59865 784.93702" />
    <path d="M697.50955 784.89117 L693.74896 778.96844" />
    <path d="M711.52575 779.0073 L715.40605 784.8523" />
    <path d="M733.29191 784.81903 L729.31319 779.04057" />
    <path d="M733.62609 759.33425 L728.979 754.07827" />
    <path d="M715.77408 759.34775 L711.15772 754.06477" />
    <path d="M697.91875 759.36397 L693.33976 754.04855" />
    <path d="M680.05889 759.38379 L675.52633 754.02873" />
    <path d="M662.19264 759.40856 L657.71928 754.00395" />
    <path d="M644.31697 759.44039 L639.92166 753.97212" />
    <path d="M626.42658 759.48273 L622.13875 753.92979" />
    <path d="M608.51137 759.54166 L604.38066 753.87086" />
    <path d="M590.54952 759.62876 L586.66922 753.78376" />
    <path d="M572.48448 759.76813 L569.06097 753.64439" />
    <path d="M554.12212 760.00754 L551.75003 753.40497" />
    <path d="M534.50632 760.16363 L535.69253 753.24889" />
    <path d="M538.5568 730.88961 L531.64206 732.07582" />
    <path d="M556.23736 732.66876 L549.63479 730.29667" />
    <path d="M573.83459 733.19447 L567.71085 729.77096" />
    <path d="M591.53187 733.42286 L585.68687 729.54257" />
    <path d="M603.61062 729.41736 L609.28141 733.54807" />
    <path d="M627.05914 733.62663 L621.50619 729.3388" />
    <path d="M639.38518 729.28506 L644.85345 733.68037" />
    <path d="M662.65826 733.71939 L657.25365 729.24604" />
    <path d="M675.11508 729.21644 L680.47014 733.749" />
    <path d="M698.28696 733.77221 L692.97155 729.19322" />
    <path d="M710.82441 729.17454 L716.10739 733.7909" />
    <path d="M733.93054 733.80626 L728.67456 729.15917" />
    <path d="M734.19178 708.24853 L728.41332 704.26982" />
    <path d="M716.3884 708.19932 L710.5434 704.31903" />
    <path d="M698.59062 708.13947 L692.66789 704.37888" />
    <path d="M680.79983 708.06522 L674.78539 704.45313" />
    <path d="M663.01783 707.97093 L656.89409 704.54742" />
    <path d="M645.24689 707.8477 L638.99173 704.67065" />
    <path d="M627.48951 707.6809 L621.07581 704.83745" />
    <path d="M609.7473 707.44522 L603.14473 705.07313" />
    <path d="M592.01625 707.09483 L585.20248 705.42352" />
    <path d="M574.26887 706.54574 L567.27657 705.97261" />
    <path d="M556.39344 705.66607 L549.4787 706.85228" />
    <path d="M556.18831 679.72104 L549.68384 682.35023" />
    <path d="M574.23009 680.44253 L567.31535 681.62874" />
    <path d="M592.1172 681.01801 L585.10154 681.05326" />
    <path d="M609.92888 681.45375 L602.96315 680.61751" />
    <path d="M627.71044 681.78097 L620.85489 680.2903" />
    <path d="M645.48346 682.02947 L638.75517 680.0418" />
    <path d="M663.25724 682.22168 L656.65467 679.84959" />
    <path d="M674.5498 679.69796 L681.03541 682.37331" />
    <path d="M698.81905 682.49521 L692.43945 679.57606" />
    <path d="M710.32363 679.47637 L716.60817 682.5949" />
    <path d="M734.40236 682.67769 L728.20274 679.39358" />
    <path d="M734.56153 657.10988 L728.04357 654.5143" />
    <path d="M716.76719 656.99814 L710.16462 654.62605" />
    <path d="M698.97513 656.86579 L692.28338 654.75839" />
    <path d="M681.18429 656.70745 L674.40092 654.91673" />
    <path d="M663.39246 656.51612 L656.51946 655.10806" />
    <path d="M645.59546 656.28284 L638.64317 655.34135" />
    <path d="M627.78568 655.99664 L620.77965 655.62754" />
    <path d="M609.94993 655.64542 L602.9421 655.97877" />
    <path d="M592.06674 655.21899 L585.152 656.4052" />
    <path d="M574.10507 654.71637 L567.44037 656.90781" />
    <path d="M556.02931 654.15768 L549.84284 657.4665" />
    <path d="M537.81661 653.59352 L532.38224 658.03067" />
    <path d="M519.48135 653.0949 L515.0442 658.52928" />
    <path d="M519.54131 627.92144 L514.98425 633.25566" />
    <path d="M501.27133 627.60519 L497.58093 633.57191" />
    <path d="M482.99118 627.3729 L480.18779 633.8042" />
    <path d="M497.46029 608.27028 L501.39198 602.45973" />
    <path d="M519.57898 602.73055 L514.94658 607.99947" />
    <path d="M537.73389 603.0488 L532.46497 607.68121" />
    <path d="M537.76654 628.31002 L532.43231 632.86708" />
    <path d="M555.91943 628.74335 L549.95272 632.43375" />
    <path d="M573.98838 629.18685 L567.55707 631.99024" />
    <path d="M591.97814 629.61052 L585.2406 631.56658" />
    <path d="M609.90339 629.99544 L602.98865 631.18165" />
    <path d="M627.78128 630.33386 L620.78405 630.84324" />
    <path d="M645.62699 630.62573 L638.61163 630.55137" />
    <path d="M663.45211 630.87512 L656.45981 630.30198" />
    <path d="M681.2648 631.08761 L674.32041 630.08949" />
    <path d="M699.07052 631.26891 L692.18799 629.90819" />
    <path d="M716.87279 631.4242 L710.05902 629.7529" />
    <path d="M734.67383 631.5579 L727.93127 629.6192" />
    <path d="M734.74681 606.03004 L727.85829 604.69998" />
    <path d="M716.93551 605.88176 L709.9963 604.84826" />
    <path d="M699.11983 605.71294 L692.13868 605.01707" />
    <path d="M681.29703 605.52049 L674.28818 605.20952" />
    <path d="M663.46325 605.30124 L656.44866 605.42878" />
    <path d="M645.61322 605.05232 L638.6254 605.67769" />
    <path d="M627.74003 604.7719 L620.82529 605.95811" />
    <path d="M609.83519 604.4602 L603.05684 606.26981" />
    <path d="M591.88922 604.12092 L585.32952 606.60909" />
    <path d="M573.89321 603.76259 L567.65223 606.96742" />
    <path d="M555.84135 603.39916 L550.0308 607.33085" />
    <path d="M483.1919 602.24452 L479.98707 608.4855" />
    <path d="M464.99692 602.08515 L462.50875 608.64486" />
    <path d="M446.82099 601.97583 L445.01139 608.75418" />
    <path d="M410.20571 627.08087 L410.28008 634.09623" />
    <path d="M409.77215 652.33595 L410.71364 659.28824" />
    <path d="M409.24906 677.67149 L411.23673 684.39978" />
    <path d="M427.33421 677.60786 L428.82488 684.46341" />
    <path d="M445.49807 677.55277 L446.33431 684.5185" />
    <path d="M444.73014 702.95789 L447.10223 709.56046" />
    <path d="M462.91718 702.85229 L464.58849 709.66606" />
    <path d="M481.30291 702.76303 L481.87605 709.75532" />
    <path d="M479.87773 728.42084 L483.30124 734.54459" />
    <path d="M478.52761 754.9945 L484.65136 758.41802" />
    <path d="M460.83034 754.76611 L466.67534 758.64641" />
    <path d="M460.34595 781.09415 L467.15972 782.76545" />
    <path d="M442.6149 780.74376 L449.21747 783.11585" />
    <path d="M449.39905 807.57146 L442.43332 806.73522" />
    <path d="M424.65176 806.40801 L431.50732 807.89868" />
    <path d="M431.58256 832.56143 L424.57652 832.19234" />
    <path d="M406.76675 831.90614 L413.71904 832.84763" />
    <path d="M388.96975 831.67286 L395.84274 833.08091" />
    <path d="M371.17792 831.48152 L377.96128 833.27225" />
    <path d="M353.38707 831.32319 L360.07883 833.43059" />
    <path d="M335.59502 831.19084 L342.19759 833.56293" />
    <path d="M317.80068 831.0791 L324.31863 833.67467" />
    <path d="M317.95984 805.51129 L324.15947 808.7954" />
    <path d="M335.75403 805.59408 L342.03858 808.71261" />
    <path d="M353.54315 805.69377 L359.92275 808.61291" />
    <path d="M371.32679 805.81567 L377.81241 808.49102" />
    <path d="M389.10496 805.9673 L395.70753 808.33939" />
    <path d="M406.87875 806.15951 L413.60704 808.14718" />
    <path d="M407.11531 780.34128 L413.37047 783.51833" />
    <path d="M424.87269 780.50808 L431.28639 783.35153" />
    <path d="M425.30307 754.56234 L430.85601 758.85018" />
    <path d="M443.08079 754.6409 L448.75159 758.77162" />
    <path d="M465.69298 734.40522 L461.81269 728.56022" />
    <path d="M443.85083 728.64732 L447.98155 734.31811" />
    <path d="M425.93562 728.70624 L430.22346 734.25919" />
    <path d="M408.04524 728.74858 L412.44055 734.21685" />
    <path d="M407.50876 754.5086 L412.97703 758.90391" />
    <path d="M389.70394 754.46958 L395.10855 758.94294" />
    <path d="M389.34437 780.21804 L395.46812 783.64156" />
    <path d="M371.56238 780.12375 L377.57682 783.73585" />
    <path d="M353.77159 780.04951 L359.69432 783.81009" />
    <path d="M335.9738 779.98965 L341.8188 783.86995" />
    <path d="M318.17043 779.94044 L323.94888 783.91916" />
    <path d="M318.43167 754.38271 L323.68764 759.0298" />
    <path d="M336.25481 754.39808 L341.5378 759.01444" />
    <path d="M354.07524 754.41677 L359.39066 758.99575" />
    <path d="M371.89207 754.43998 L377.24713 758.97254" />
    <path d="M394.64292 734.18502 L390.16957 728.78041" />
    <path d="M372.30332 728.80519 L376.83588 734.16025" />
    <path d="M354.44346 728.82501 L359.02244 734.14042" />
    <path d="M336.58812 728.84122 L341.20448 734.12421" />
    <path d="M318.73611 728.85473 L323.3832 734.1107" />
    <path d="M340.83645 709.18168 L336.95616 703.33667" />
    <path d="M319.0703 703.36995 L323.04901 709.1484" />
    <path d="M340.45557 684.17791 L337.33704 677.89336" />
    <path d="M319.4176 677.93582 L322.70171 684.13544" />
    <path d="M340.08235 659.11338 L337.71026 652.51081" />
    <path d="M319.76187 652.55311 L322.35744 659.07107" />
    <path d="M339.73195 633.99543 L338.06065 627.18166" />
    <path d="M320.09031 627.21727 L322.02901 633.95983" />
    <path d="M339.41305 608.83461 L338.37955 601.8954" />
    <path d="M320.39463 601.92075 L321.72469 608.80927" />
    <path d="M321.44853 583.62772 L320.67078 576.65521" />
    <path d="M338.6638 576.64131 L339.12881 583.64163" />
    <path d="M356.79076 583.64886 L356.67514 576.63407" />
    <path d="M374.70668 576.63627 L374.43251 583.64666" />
    <path d="M374.41411 601.86058 L374.72508 608.86943" />
    <path d="M357.08089 608.85558 L356.38502 601.87443" />
    <path d="M356.05259 627.14729 L357.41331 634.02981" />
    <path d="M375.06866 634.06074 L374.07054 627.11636" />
    <path d="M392.11968 627.0924 L392.69282 634.0847" />
    <path d="M391.70222 652.37559 L393.11027 659.24859" />
    <path d="M391.2202 677.73435 L393.59229 684.33692" />
    <path d="M390.69449 703.1973 L394.118 709.32105" />
    <path d="M408.65437 703.13159 L411.83142 709.38676" />
    <path d="M426.65782 703.05233 L429.50127 709.46602" />
    <path d="M463.77046 677.5278 L463.73521 684.54346" />
    <path d="M482.18259 677.57826 L480.99638 684.493" />
    <path d="M446.08286 652.30818 L445.74951 659.316" />
    <path d="M427.89499 652.30908 L428.26409 659.31511" />
    <path d="M373.67424 652.42041 L375.46496 659.20377" />
    <path d="M357.78665 659.15797 L355.67925 652.46621" />
    <path d="M355.27338 677.84583 L358.19252 684.22543" />
    <path d="M373.23192 677.79283 L375.90727 684.27844" />
    <path d="M372.76355 703.25196 L376.37565 709.2664" />
    <path d="M358.61324 709.22054 L354.85266 703.29781" />
    <path d="M353.22555 907.9897 L360.24035 908.10532" />
    <path d="M371.0644 908.1846 L378.07479 907.91043" />
    <path d="M388.91625 908.40126 L395.89624 907.69376" />
    <path d="M406.78552 908.64062 L413.70026 907.45441" />
    <path d="M424.67744 908.90242 L431.48164 907.1926" />
    <path d="M442.59775 909.18467 L449.23463 906.91035" />
    <path d="M460.5521 909.48294 L466.95357 906.61208" />
    <path d="M478.54501 909.79003 L484.63396 906.30499" />
    <path d="M496.57858 910.09608 L502.27368 905.99894" />
    <path d="M514.65127 910.38957 L519.87428 905.70546" />
    <path d="M532.75737 910.65902 L537.44148 905.43601" />
    <path d="M550.8875 910.89506 L554.98464 905.19996" />
    <path d="M569.0302 911.09198 L572.51524 905.00304" />
    <path d="M587.17394 911.24825 L590.0448 904.84677" />
    <path d="M605.30886 911.36595 L607.58317 904.72907" />
    <path d="M623.42775 911.44961 L625.13758 904.64541" />
    <path d="M641.52621 911.50488 L642.71242 904.59014" />
    <path d="M659.60221 911.5375 L660.30971 904.55752" />
    <path d="M677.65552 911.55271 L677.92969 904.54232" />
    <path d="M695.68706 911.55491 L695.57144 904.54011" />
    <path d="M713.69841 911.54767 L713.2334 904.54735" />
    <path d="M731.69142 911.53376 L730.91367 904.56126" />
    <path d="M731.44429 936.77606 L731.16081 929.76604" />
    <path d="M713.44827 936.77888 L713.48353 929.76322" />
    <path d="M695.43657 936.77363 L695.82194 929.76847" />
    <path d="M677.40826 936.75781 L678.17695 929.7843" />
    <path d="M659.36285 936.72842 L660.54906 929.81368" />
    <path d="M641.30055 936.68204 L642.93807 929.86007" />
    <path d="M623.22257 936.61491 L625.34276 929.9272" />
    <path d="M605.13142 936.52329 L607.76061 930.01882" />
    <path d="M587.03118 936.40387 L590.18755 930.13824" />
    <path d="M568.92752 936.25441 L572.61792 930.2877" />
    <path d="M550.82742 936.0744 L555.04473 930.4677" />
    <path d="M532.73854 935.86555 L537.46031 930.67656" />
    <path d="M514.66828 935.63194 L519.85727 930.91017" />
    <path d="M496.62278 935.3797 L502.22948 931.1624" />
    <path d="M478.60613 935.11625 L484.57284 931.42585" />
    <path d="M460.62002 934.84924 L466.88565 931.69287" />
    <path d="M442.66395 934.58565 L449.16842 931.95646" />
    <path d="M424.73568 934.33115 L431.4234 932.21096" />
    <path d="M406.83191 934.08981 L413.65388 932.4523" />
    <path d="M388.94888 933.86416 L395.86362 932.67795" />
    <path d="M371.08284 933.6554 L378.05635 932.88671" />
    <path d="M353.23037 933.46373 L360.23553 933.07837" />
    <path d="M335.38847 933.28868 L342.40413 933.25343" />
    <path d="M317.55465 933.12932 L324.56467 933.41279" />
    <path d="M324.54591 908.43639 L317.5734 907.65864" />
    <path d="M335.39614 907.815 L342.39646 908.28002" />
  </g>
</svg>